<svg xmlns="http://www.w3.org/2000/svg" viewBox="0 0 507.19 381.43"><defs><clipPath id="a"><path fill="none" d="M301.16 137.83h193.15V242.1H301.16z"/></clipPath></defs><g data-name="Comp 1"><path fill="#262626" stroke="#a5802a" stroke-linecap="round" stroke-linejoin="round" stroke-width="2" d="M5.85 171.63H218.7v45.52H5.85z"/><text transform="translate(15.86 190.38)" font-size="12.03" fill="#fff" font-family="Georgia, Georgia" letter-spacing=".01em">View today’s astrology <tspan x="0" y="14.03">reading for Aries</tspan></text><path fill="#262626" stroke="#a5802a" stroke-miterlimit="10" stroke-width="2" d="M168.41 171.63h50.3v45.52h-50.3z"/><path fill="none" stroke="#a5802a" stroke-miterlimit="10" stroke-width="2" d="M178.84 194.39h15.94"/><path d="M207.24 194.39c-5.86 2.18-13.13 5.89-17.64 9.82l3.55-9.82-3.55-9.81c4.51 3.93 11.78 7.64 17.64 9.81z" fill="#a5802a"/><path fill="#a5802a" stroke="#a5802a" stroke-linecap="round" stroke-linejoin="round" stroke-width="2" d="M407.01 283.99v-57.7h-17.75v57.7h-38.3v9.03h94.35v-9.03h-38.3z"/><path fill="#262626" stroke="#a5802a" stroke-miterlimit="10" stroke-width="6" d="M292.97 128.93H503.3v126.43H292.97z"/><path fill="#202020" d="M300.35 242.98l-12.84-4.61V144.1l12.84-3.84v102.72z"/><path d="M217.76 172a1 1 0 0 1 .6-1.28 1 1 0 0 1 1.28.6 1 1 0 0 1-.6 1.28 1 1 0 0 1-.34.06 1 1 0 0 1-.94-.66zm5.64-2.06a1 1 0 0 1 .59-1.28 1 1 0 0 1 1.28.59 1 1 0 0 1-.59 1.29 1.07 1.07 0 0 1-.35.06 1 1 0 0 1-.93-.69zm5.63-2.06a1 1 0 0 1 .6-1.29 1 1 0 0 1 1.28.6 1 1 0 0 1-.6 1.28.8.8 0 0 1-.34.07 1 1 0 0 1-.97-.69zm5.64-2.06a1 1 0 0 1 .59-1.29 1 1 0 0 1 1.29.6 1 1 0 0 1-.6 1.28 1 1 0 0 1-.35.06 1 1 0 0 1-.93-.68zm5.63-2.07a1 1 0 0 1 .59-1.28 1 1 0 0 1 1.29.6 1 1 0 0 1-.6 1.28 1 1 0 0 1-.34.06 1 1 0 0 1-.94-.69zm5.64-2.06a1 1 0 0 1 .59-1.28 1 1 0 0 1 1.28.59 1 1 0 0 1-.59 1.29 1.07 1.07 0 0 1-.35.06 1 1 0 0 1-.93-.69zm5.63-2.06a1 1 0 0 1 .6-1.28 1 1 0 0 1 1.28.59 1 1 0 0 1-.6 1.28.82.82 0 0 1-.34.06 1 1 0 0 1-.94-.68zm5.63-2.06a1 1 0 0 1 .6-1.29 1 1 0 0 1 1.28.6 1 1 0 0 1-.59 1.28 1.07 1.07 0 0 1-.35.06 1 1 0 0 1-.94-.68zm5.64-2.07a1 1 0 0 1 .59-1.28 1 1 0 0 1 1.29.6 1 1 0 0 1-.6 1.28 1 1 0 0 1-.34.06 1 1 0 0 1-.94-.69zm5.63-2.06a1 1 0 0 1 .6-1.28 1 1 0 0 1 1.28.6 1 1 0 0 1-.6 1.28 1 1 0 0 1-.34.06 1 1 0 0 1-.94-.69zm5.64-2.06a1 1 0 0 1 .59-1.28 1 1 0 0 1 1.29.59 1 1 0 0 1-.6 1.29 1 1 0 0 1-.34.06 1 1 0 0 1-.94-.69zm5.63-2.06a1 1 0 0 1 .6-1.29 1 1 0 0 1 1.28.6 1 1 0 0 1-.6 1.28 1 1 0 0 1-.34.06 1 1 0 0 1-.94-.68zm5.64-2.07a1 1 0 0 1 .59-1.28 1 1 0 0 1 1.28.6 1 1 0 0 1-.59 1.28 1.07 1.07 0 0 1-.35.06 1 1 0 0 1-.93-.69zm5.63-2.06a1 1 0 0 1 .6-1.28 1 1 0 0 1 1.28.59 1 1 0 0 1-.6 1.29 1 1 0 0 1-.34.06 1 1 0 0 1-.95-.69zm5.63-2.06a1 1 0 0 1 .6-1.28 1 1 0 0 1 1.28.59 1 1 0 0 1-.59 1.28.87.87 0 0 1-.35.07 1 1 0 0 1-.94-.69zm5.64-2.06a1 1 0 0 1 .59-1.29 1 1 0 0 1 1.29.6 1 1 0 0 1-.6 1.28 1 1 0 0 1-.34.06 1 1 0 0 1-.94-.72zM304.15 241.87a1 1 0 0 1-.7-1.23 1 1 0 0 1 1.23-.7 1 1 0 0 1 .7 1.23 1 1 0 0 1-1 .73zm-5.78-1.61a1 1 0 0 1-.7-1.23 1 1 0 0 1 1.23-.69 1 1 0 0 1 .7 1.23 1 1 0 0 1-1 .73.82.82 0 0 1-.23-.04zm-5.79-1.6a1 1 0 0 1-.7-1.23 1 1 0 0 1 1.24-.69 1 1 0 0 1 .69 1.23 1 1 0 0 1-1 .73.84.84 0 0 1-.23-.04zm-5.78-1.6a1 1 0 0 1-.7-1.23 1 1 0 0 1 1.23-.7 1 1 0 0 1 .7 1.23 1 1 0 0 1-1 .74.84.84 0 0 1-.23-.04zm-5.78-1.6a1 1 0 0 1-.7-1.23 1 1 0 0 1 1.23-.7 1 1 0 0 1 .7 1.23 1 1 0 0 1-1 .73zm-5.78-1.6a1 1 0 0 1-.7-1.24 1 1 0 0 1 1.23-.69 1 1 0 0 1 .7 1.23 1 1 0 0 1-1 .73 1.09 1.09 0 0 1-.23-.03zm-5.79-1.61a1 1 0 0 1-.69-1.23 1 1 0 0 1 1.23-.69 1 1 0 0 1 .69 1.23 1 1 0 0 1-1 .73.84.84 0 0 1-.23-.04zm-5.78-1.6a1 1 0 0 1-.69-1.23 1 1 0 0 1 1.23-.7 1 1 0 0 1 .69 1.24 1 1 0 0 1-1 .73.84.84 0 0 1-.23-.04zm-5.78-1.6a1 1 0 0 1-.7-1.23 1 1 0 0 1 1.23-.7 1 1 0 0 1 .7 1.23 1 1 0 0 1-1 .74 1.26 1.26 0 0 1-.23-.04zm-5.78-1.6a1 1 0 0 1-.7-1.23 1 1 0 0 1 1.23-.7 1 1 0 0 1 .7 1.23 1 1 0 0 1-1 .73zm-5.78-1.61a1 1 0 0 1-.7-1.22 1 1 0 0 1 1.23-.7 1 1 0 0 1 .69 1.23 1 1 0 0 1-1 .73.82.82 0 0 1-.22-.04zm-5.79-1.6a1 1 0 0 1-.69-1.23 1 1 0 0 1 1.23-.69 1 1 0 0 1 .69 1.23 1 1 0 0 1-1 .73.84.84 0 0 1-.23-.04zm-5.78-1.6a1 1 0 0 1-.7-1.23 1 1 0 0 1 1.24-.7 1 1 0 0 1 .69 1.23 1 1 0 0 1-1 .74.84.84 0 0 1-.23-.04zM229 221a1 1 0 0 1-.7-1.23 1 1 0 0 1 1.23-.7 1 1 0 0 1 .7 1.23 1 1 0 0 1-1 .74 1.26 1.26 0 0 1-.23-.04zm-5.78-1.6a1 1 0 0 1-.7-1.23 1 1 0 0 1 1.23-.7 1 1 0 0 1 .7 1.23 1 1 0 0 1-1 .73z" fill="#a5802a"/><path d="M494.07 242.43H301.75V138.24h192.32zm-190.32-2h188.32V140.24H303.75z" fill="#a5802a"/><g clip-path="url(#a)"><path fill="#333" d="M302.92 139.02h189.63v138.05H302.92z"/><path d="M493.55 278.06H301.92V138h191.63zm-189.63-2h187.63V140H303.92z" fill="#a5802a"/><path fill="#333" d="M302.92 139.02h189.63v19.61H302.92z"/><path d="M493.55 159.63H301.92V138h191.63zm-189.63-2h187.63V140H303.92z" fill="#a5802a"/><path fill="#494949" d="M327.56 166.49h89.07v100.16h-89.07zM423.61 166.49h44.29v47.24h-44.29zM423.61 220.04h44.29v47.24h-44.29z"/><path d="M351.44 151.75h-.91l-1.09-1.83a3.53 3.53 0 0 0-.29-.43 2.09 2.09 0 0 0-.29-.3 1.07 1.07 0 0 0-.32-.16 1.12 1.12 0 0 0-.38-.06h-.63v2.78h-.77v-6.53h1.95a2.79 2.79 0 0 1 .79.11 1.73 1.73 0 0 1 .63.33 1.41 1.41 0 0 1 .42.54 1.93 1.93 0 0 1 0 1.39 1.46 1.46 0 0 1-.29.5 1.65 1.65 0 0 1-.45.38 2.3 2.3 0 0 1-.6.25 1.08 1.08 0 0 1 .28.16 1.58 1.58 0 0 1 .23.22 2.21 2.21 0 0 1 .22.29l.24.38zm-3.91-5.84v2.37h1a1.55 1.55 0 0 0 .53-.09 1.24 1.24 0 0 0 .42-.24 1.13 1.13 0 0 0 .27-.4 1.29 1.29 0 0 0 .1-.53 1 1 0 0 0-.33-.81 1.46 1.46 0 0 0-1-.3zM355.72 149.61h-3.29a1.83 1.83 0 0 0 .42 1.2 1.46 1.46 0 0 0 1.1.42 2.27 2.27 0 0 0 1.45-.52v.7a2.68 2.68 0 0 1-1.62.45 2 2 0 0 1-1.56-.64 2.62 2.62 0 0 1-.56-1.78 2.57 2.57 0 0 1 .62-1.78 2 2 0 0 1 1.53-.68 1.75 1.75 0 0 1 1.41.59 2.44 2.44 0 0 1 .5 1.64zM355 149a1.51 1.51 0 0 0-.31-1 1.07 1.07 0 0 0-.86-.36 1.16 1.16 0 0 0-.89.38 1.7 1.7 0 0 0-.46 1zM360.19 151.75h-.75V151a1.55 1.55 0 0 1-1.43.84 1.52 1.52 0 0 1-1.09-.37 1.29 1.29 0 0 1-.39-1c0-.87.51-1.38 1.54-1.52l1.39-.19c0-.8-.32-1.19-1-1.19a2.3 2.3 0 0 0-1.52.57v-.76a2.84 2.84 0 0 1 1.59-.44c1.09 0 1.64.58 1.64 1.74zm-.75-2.36l-1.12.16a1.83 1.83 0 0 0-.78.25.75.75 0 0 0-.27.66.68.68 0 0 0 .25.55.89.89 0 0 0 .64.22 1.2 1.2 0 0 0 .92-.39 1.39 1.39 0 0 0 .36-1zM365.57 151.75h-.74V151a1.88 1.88 0 0 1-3 .27 2.54 2.54 0 0 1-.52-1.7 2.77 2.77 0 0 1 .58-1.85 1.9 1.9 0 0 1 1.55-.7 1.5 1.5 0 0 1 1.4.75v-2.88h.74zm-.74-2.11V149a1.33 1.33 0 0 0-.38-.95 1.23 1.23 0 0 0-.94-.39 1.28 1.28 0 0 0-1.08.5 2.18 2.18 0 0 0-.39 1.38 2 2 0 0 0 .38 1.27 1.19 1.19 0 0 0 1 .47 1.29 1.29 0 0 0 1-.45 1.68 1.68 0 0 0 .41-1.19zM367.47 145.91a.46.46 0 0 1-.34-.14.45.45 0 0 1-.15-.35.47.47 0 0 1 .15-.35.45.45 0 0 1 .34-.13.51.51 0 0 1 .35.13.5.5 0 0 1 .14.35.46.46 0 0 1-.14.34.49.49 0 0 1-.35.15zm.36 5.84h-.74v-4.66h.74zM373.21 151.75h-.74v-2.66c0-1-.37-1.48-1.09-1.48a1.16 1.16 0 0 0-.92.42 1.52 1.52 0 0 0-.37 1.06v2.66h-.75v-4.66h.75v.77a1.67 1.67 0 0 1 1.53-.88 1.42 1.42 0 0 1 1.17.49 2.21 2.21 0 0 1 .4 1.43zM378.6 151.38c0 1.71-.82 2.56-2.46 2.56a3.39 3.39 0 0 1-1.51-.32v-.75a3.09 3.09 0 0 0 1.5.44c1.15 0 1.72-.61 1.72-1.83V151a1.89 1.89 0 0 1-3 .27 2.51 2.51 0 0 1-.53-1.67 2.92 2.92 0 0 1 .57-1.89 1.89 1.89 0 0 1 1.56-.7 1.52 1.52 0 0 1 1.4.75v-.64h.75zm-.75-1.74V149a1.35 1.35 0 0 0-.38-.95 1.24 1.24 0 0 0-.93-.39 1.3 1.3 0 0 0-1.08.5 2.21 2.21 0 0 0-.4 1.41 1.91 1.91 0 0 0 .38 1.24 1.19 1.19 0 0 0 1 .47 1.32 1.32 0 0 0 1-.45 1.64 1.64 0 0 0 .41-1.19zM379.83 151.58v-.8a2.19 2.19 0 0 0 1.34.45c.65 0 1-.22 1-.65a.63.63 0 0 0-.08-.32 1 1 0 0 0-.23-.23 1.56 1.56 0 0 0-.34-.18l-.41-.17a4.08 4.08 0 0 1-.55-.25 1.62 1.62 0 0 1-.39-.28 1.21 1.21 0 0 1-.24-.35 1.36 1.36 0 0 1-.08-.47 1.09 1.09 0 0 1 .15-.58 1.49 1.49 0 0 1 .4-.43 1.79 1.79 0 0 1 .58-.25 2.39 2.39 0 0 1 .66-.09 2.67 2.67 0 0 1 1.08.21v.75a2.14 2.14 0 0 0-1.18-.33 1.13 1.13 0 0 0-.38 0 .86.86 0 0 0-.29.13.6.6 0 0 0-.18.21.48.48 0 0 0-.07.26.59.59 0 0 0 .07.31.64.64 0 0 0 .19.22 1.49 1.49 0 0 0 .31.17l.41.17c.21.08.39.16.56.24a2.19 2.19 0 0 1 .42.28 1.18 1.18 0 0 1 .26.37 1.14 1.14 0 0 1 .1.48 1.17 1.17 0 0 1-.16.6 1.36 1.36 0 0 1-.4.43 2.1 2.1 0 0 1-.59.25 3.19 3.19 0 0 1-.7.08 2.55 2.55 0 0 1-1.26-.23zM388.92 145.5a1 1 0 0 0-.5-.12q-.78 0-.78 1v.72h1.09v.64h-1.09v4h-.74v-4h-.8v-.64h.8v-.76a1.59 1.59 0 0 1 .42-1.16 1.45 1.45 0 0 1 1.06-.42 1.58 1.58 0 0 1 .54.08zM392 147.84a.94.94 0 0 0-.57-.15 1 1 0 0 0-.8.45 2.13 2.13 0 0 0-.32 1.23v2.38h-.75v-4.66h.75v1a1.6 1.6 0 0 1 .49-.77 1.1 1.1 0 0 1 .73-.27 1.36 1.36 0 0 1 .45.06zM394.6 151.86a2.18 2.18 0 0 1-1.65-.65 2.45 2.45 0 0 1-.62-1.74 2.51 2.51 0 0 1 .65-1.83 2.28 2.28 0 0 1 1.73-.66 2.1 2.1 0 0 1 1.63.64 2.94 2.94 0 0 1 0 3.57 2.19 2.19 0 0 1-1.74.67zm0-4.25a1.39 1.39 0 0 0-1.13.49 2 2 0 0 0-.42 1.35 1.9 1.9 0 0 0 .42 1.3 1.43 1.43 0 0 0 1.13.48 1.38 1.38 0 0 0 1.12-.47 2 2 0 0 0 .39-1.33 2.09 2.09 0 0 0-.39-1.35 1.38 1.38 0 0 0-1.07-.47zM404.73 151.75H404v-2.68a2 2 0 0 0-.24-1.12.91.91 0 0 0-.81-.34 1 1 0 0 0-.81.43 1.71 1.71 0 0 0-.33 1.05v2.66h-.75V149c0-.91-.35-1.37-1.06-1.37a1 1 0 0 0-.81.41 1.7 1.7 0 0 0-.32 1.07v2.66h-.75v-4.66h.75v.74a1.57 1.57 0 0 1 1.45-.85 1.35 1.35 0 0 1 .83.27 1.32 1.32 0 0 1 .49.69 1.65 1.65 0 0 1 1.54-1c1 0 1.54.63 1.54 1.9zM410.86 151.7a1.43 1.43 0 0 1-.7.15c-.81 0-1.22-.46-1.22-1.37v-2.75h-.8v-.64h.8V146l.74-.24v1.38h1.18v.64h-1.18v2.62a1.13 1.13 0 0 0 .16.67.66.66 0 0 0 .53.2.81.81 0 0 0 .49-.15zM415.72 151.75H415v-2.69c0-1-.36-1.45-1.08-1.45a1.16 1.16 0 0 0-.92.42 1.56 1.56 0 0 0-.38 1.08v2.64h-.74v-6.9h.74v3a1.69 1.69 0 0 1 1.53-.88c1.05 0 1.57.63 1.57 1.9zM420.88 149.61h-3.29a1.73 1.73 0 0 0 .42 1.2 1.43 1.43 0 0 0 1.1.42 2.26 2.26 0 0 0 1.44-.52v.7a2.68 2.68 0 0 1-1.62.45 1.94 1.94 0 0 1-1.55-.64 3 3 0 0 1 .05-3.56A2 2 0 0 1 419 147a1.78 1.78 0 0 1 1.42.59 2.49 2.49 0 0 1 .5 1.64zm-.77-.64a1.46 1.46 0 0 0-.31-1 1.05 1.05 0 0 0-.85-.36 1.19 1.19 0 0 0-.9.38 1.63 1.63 0 0 0-.45 1zM428.92 145.4l-3.82 5.66h3.73v.69H424v-.21l3.79-5.63h-3.49v-.69h4.66zM431.82 151.86a2.21 2.21 0 0 1-1.65-.65 2.45 2.45 0 0 1-.61-1.74 2.5 2.5 0 0 1 .64-1.83 2.31 2.31 0 0 1 1.73-.66 2.08 2.08 0 0 1 1.63.64 2.92 2.92 0 0 1 0 3.57 2.21 2.21 0 0 1-1.74.67zm.06-4.25a1.41 1.41 0 0 0-1.14.49 2 2 0 0 0-.42 1.35 1.86 1.86 0 0 0 .43 1.3 1.43 1.43 0 0 0 1.13.48 1.37 1.37 0 0 0 1.11-.47 2 2 0 0 0 .39-1.33 2.09 2.09 0 0 0-.39-1.35 1.37 1.37 0 0 0-1.11-.47zM439.32 151.75h-.75V151a1.87 1.87 0 0 1-3 .27 2.54 2.54 0 0 1-.53-1.7 2.77 2.77 0 0 1 .58-1.85 1.91 1.91 0 0 1 1.55-.7 1.49 1.49 0 0 1 1.4.75v-2.88h.75zm-.75-2.11V149a1.32 1.32 0 0 0-.37-.95 1.37 1.37 0 0 0-2 .11 2.18 2.18 0 0 0-.4 1.38 2 2 0 0 0 .38 1.27 1.21 1.21 0 0 0 1 .47 1.28 1.28 0 0 0 1-.45 1.68 1.68 0 0 0 .39-1.19zM441.21 145.91a.48.48 0 0 1-.34-.14.45.45 0 0 1-.14-.35.46.46 0 0 1 .14-.35.47.47 0 0 1 .34-.13.49.49 0 0 1 .35.13.5.5 0 0 1 .14.35.46.46 0 0 1-.14.34.47.47 0 0 1-.35.15zm.36 5.84h-.74v-4.66h.74zM446.42 151.75h-.74V151a1.58 1.58 0 0 1-1.44.84 1.53 1.53 0 0 1-1.09-.37 1.29 1.29 0 0 1-.39-1c0-.87.51-1.38 1.54-1.52l1.4-.19c0-.8-.32-1.19-1-1.19a2.28 2.28 0 0 0-1.52.57v-.76a2.78 2.78 0 0 1 1.58-.44c1.09 0 1.64.58 1.64 1.74zm-.74-2.36l-1.13.16a1.88 1.88 0 0 0-.78.25.75.75 0 0 0-.27.66.71.71 0 0 0 .25.55.92.92 0 0 0 .65.22 1.18 1.18 0 0 0 .91-.39 1.4 1.4 0 0 0 .37-1zM451 151.54a2.51 2.51 0 0 1-1.28.32 2.13 2.13 0 0 1-1.61-.65 2.33 2.33 0 0 1-.61-1.68 2.57 2.57 0 0 1 .66-1.85 2.3 2.3 0 0 1 1.76-.7 2.45 2.45 0 0 1 1.08.23v.79a1.89 1.89 0 0 0-1.11-.36 1.52 1.52 0 0 0-1.17.51 2 2 0 0 0-.46 1.34 1.9 1.9 0 0 0 .43 1.3 1.52 1.52 0 0 0 1.16.47 1.89 1.89 0 0 0 1.15-.4z" fill="#fff"/></g><path d="M494.07 242.91H301.75V138.24h192.32zm-190.32-2h188.32V140.24H303.75z" fill="#a5802a"/></g></svg>