<svg xmlns="http://www.w3.org/2000/svg" viewBox="0 0 507.19 381.43"><g data-name="Comp 1"><path fill="#262626" stroke="#a5802a" stroke-miterlimit="10" stroke-width="2" d="M29.83 104.55h278.09v202.44H29.83z"/><path fill="#262626" stroke="#a5802a" stroke-miterlimit="10" stroke-width="2" d="M29.83 104.55h278.09v28.76H29.83z"/><path fill="#494949" d="M65.97 144.84h130.62v146.88H65.97zM206.83 144.84h64.95v69.27h-64.95zM206.83 223.36h64.95v69.27h-64.95z"/><path d="M101 123.22h-1.34l-1.6-2.68a6.43 6.43 0 0 0-.43-.64 2.49 2.49 0 0 0-.43-.43 1.45 1.45 0 0 0-.46-.24 2 2 0 0 0-.57-.08h-.92v4.07h-1.12v-9.57H97a3.92 3.92 0 0 1 1.16.16 2.59 2.59 0 0 1 .92.47 2.31 2.31 0 0 1 .61.8 2.76 2.76 0 0 1 .22 1.12 2.73 2.73 0 0 1-.15.92 2.28 2.28 0 0 1-.43.74 2.44 2.44 0 0 1-.67.56 3.78 3.78 0 0 1-.87.36 2 2 0 0 1 .41.25 2.54 2.54 0 0 1 .34.32c.11.13.21.27.32.42l.35.56zm-5.74-8.56v3.48h1.52a2.45 2.45 0 0 0 .78-.13 2 2 0 0 0 .62-.36 1.78 1.78 0 0 0 .41-.59 2 2 0 0 0 .14-.77 1.48 1.48 0 0 0-.49-1.19 2.14 2.14 0 0 0-1.44-.44zM107.27 120.08h-4.82a2.51 2.51 0 0 0 .61 1.76 2.13 2.13 0 0 0 1.62.62 3.34 3.34 0 0 0 2.12-.76v1a4 4 0 0 1-2.38.65 2.89 2.89 0 0 1-2.28-.93 3.81 3.81 0 0 1-.83-2.62 3.72 3.72 0 0 1 .91-2.6 2.88 2.88 0 0 1 2.24-1 2.59 2.59 0 0 1 2.08.86 3.63 3.63 0 0 1 .73 2.41zm-1.12-.93a2.14 2.14 0 0 0-.46-1.47 1.52 1.52 0 0 0-1.25-.53 1.76 1.76 0 0 0-1.31.55 2.55 2.55 0 0 0-.67 1.45zM113.82 123.22h-1.09v-1.07a2.3 2.3 0 0 1-2.1 1.23 2.25 2.25 0 0 1-1.6-.54 1.85 1.85 0 0 1-.58-1.43c0-1.28.75-2 2.26-2.23l2-.29q0-1.74-1.41-1.74a3.35 3.35 0 0 0-2.23.84v-1.12a4.19 4.19 0 0 1 2.32-.64c1.61 0 2.41.85 2.41 2.55zm-1.09-3.46l-1.65.23a2.67 2.67 0 0 0-1.15.38 1.09 1.09 0 0 0-.39 1 1 1 0 0 0 .36.81 1.33 1.33 0 0 0 .95.32 1.78 1.78 0 0 0 1.35-.57 2 2 0 0 0 .53-1.44zM121.72 123.22h-1.1v-1.16a2.76 2.76 0 0 1-4.41.4 3.72 3.72 0 0 1-.77-2.5 4.07 4.07 0 0 1 .85-2.71 2.82 2.82 0 0 1 2.28-1 2.2 2.2 0 0 1 2 1.1v-4.25h1.1zm-1.1-3.09v-1a2 2 0 0 0-.54-1.4 1.85 1.85 0 0 0-1.39-.57 1.89 1.89 0 0 0-1.58.73 3.24 3.24 0 0 0-.57 2 2.89 2.89 0 0 0 .55 1.87 1.82 1.82 0 0 0 1.48.68 1.86 1.86 0 0 0 1.48-.66 2.47 2.47 0 0 0 .57-1.65zM124.49 114.65a.72.72 0 0 1-.5-.2.69.69 0 0 1-.2-.51.68.68 0 0 1 .7-.71.77.77 0 0 1 .52.2.73.73 0 0 1 .2.51.69.69 0 0 1-.2.5.73.73 0 0 1-.52.21zm.54 8.57h-1.1v-6.83H125zM132.92 123.22h-1.1v-3.9c0-1.45-.53-2.17-1.59-2.17a1.68 1.68 0 0 0-1.35.62 2.27 2.27 0 0 0-.54 1.55v3.9h-1.1v-6.83h1.1v1.13a2.46 2.46 0 0 1 2.24-1.29 2.07 2.07 0 0 1 1.71.72 3.19 3.19 0 0 1 .6 2.09zM140.81 122.67q0 3.77-3.6 3.77A4.87 4.87 0 0 1 135 126v-1.1a4.54 4.54 0 0 0 2.21.64c1.68 0 2.52-.89 2.52-2.68v-.75a2.76 2.76 0 0 1-4.4.4 3.64 3.64 0 0 1-.78-2.45 4.26 4.26 0 0 1 .84-2.77 2.8 2.8 0 0 1 2.29-1 2.24 2.24 0 0 1 2.05 1.1v-.94h1.09zm-1.09-2.54v-1a1.94 1.94 0 0 0-.55-1.39 1.81 1.81 0 0 0-1.37-.58 1.88 1.88 0 0 0-1.59.74 3.3 3.3 0 0 0-.58 2.06 2.89 2.89 0 0 0 .55 1.83 1.81 1.81 0 0 0 1.46.68 1.91 1.91 0 0 0 1.5-.65 2.44 2.44 0 0 0 .58-1.69zM142.62 123v-1.2a3.22 3.22 0 0 0 2 .66q1.44 0 1.44-1a.76.76 0 0 0-.13-.46 1.18 1.18 0 0 0-.33-.34 2.27 2.27 0 0 0-.49-.26l-.62-.25a8.63 8.63 0 0 1-.79-.36 2.34 2.34 0 0 1-.58-.42 1.38 1.38 0 0 1-.34-.52 1.81 1.81 0 0 1-.12-.69 1.61 1.61 0 0 1 .22-.85 1.94 1.94 0 0 1 .59-.62 2.74 2.74 0 0 1 .83-.38 4.24 4.24 0 0 1 2.57.18v1.11a3.13 3.13 0 0 0-1.74-.49 1.84 1.84 0 0 0-.55.07 1.3 1.3 0 0 0-.43.19.88.88 0 0 0-.27.31.76.76 0 0 0-.1.39.88.88 0 0 0 .1.45 1 1 0 0 0 .28.32 2.79 2.79 0 0 0 .46.25l.6.25a7.21 7.21 0 0 1 .82.35 2.85 2.85 0 0 1 .61.42 1.55 1.55 0 0 1 .39.53 1.73 1.73 0 0 1 .14.71 1.65 1.65 0 0 1-.23.88 1.75 1.75 0 0 1-.59.62 2.67 2.67 0 0 1-.86.37 4.31 4.31 0 0 1-1 .12 3.75 3.75 0 0 1-1.88-.34zM156 114.06a1.44 1.44 0 0 0-.73-.18c-.76 0-1.14.49-1.14 1.45v1.06h1.6v.93h-1.6v5.9H153v-5.9h-1.17v-.93H153v-1.11a2.32 2.32 0 0 1 .62-1.7 2.07 2.07 0 0 1 1.55-.62 2.12 2.12 0 0 1 .79.12zM160.42 117.49a1.39 1.39 0 0 0-.83-.22 1.37 1.37 0 0 0-1.17.67 3 3 0 0 0-.47 1.8v3.48h-1.1v-6.83H158v1.41a2.4 2.4 0 0 1 .72-1.13 1.62 1.62 0 0 1 1.07-.4 1.86 1.86 0 0 1 .66.09zM164.28 123.38a3.18 3.18 0 0 1-2.42-1 3.54 3.54 0 0 1-.9-2.54 3.71 3.71 0 0 1 .94-2.69 3.39 3.39 0 0 1 2.54-1 3.06 3.06 0 0 1 2.39.94 3.75 3.75 0 0 1 .86 2.61 3.67 3.67 0 0 1-.93 2.62 3.25 3.25 0 0 1-2.48 1.06zm.08-6.23a2.09 2.09 0 0 0-1.67.72 2.9 2.9 0 0 0-.61 2 2.82 2.82 0 0 0 .62 1.92 2.1 2.1 0 0 0 1.66.7 2 2 0 0 0 1.63-.69 2.91 2.91 0 0 0 .58-2 3 3 0 0 0-.58-2 2 2 0 0 0-1.63-.65zM179.14 123.22h-1.09v-3.92a3 3 0 0 0-.35-1.64 1.34 1.34 0 0 0-1.18-.51 1.44 1.44 0 0 0-1.19.64 2.44 2.44 0 0 0-.49 1.53v3.9h-1.1v-4.06c0-1.34-.52-2-1.55-2a1.43 1.43 0 0 0-1.19.6 2.51 2.51 0 0 0-.47 1.57v3.9h-1.09v-6.83h1.09v1.08a2.31 2.31 0 0 1 2.12-1.24 2 2 0 0 1 1.94 1.41 2.43 2.43 0 0 1 2.26-1.41c1.51 0 2.26.92 2.26 2.78zM188.12 123.16a2.09 2.09 0 0 1-1 .21c-1.19 0-1.79-.67-1.79-2v-4.05h-1.18v-.93h1.18v-1.67l1.09-.36v2h1.72v.93h-1.74v3.85a1.55 1.55 0 0 0 .24 1 .91.91 0 0 0 .77.3 1.14 1.14 0 0 0 .71-.23zM195.26 123.22h-1.1v-3.94c0-1.42-.53-2.13-1.58-2.13a1.7 1.7 0 0 0-1.35.62 2.27 2.27 0 0 0-.55 1.58v3.87h-1.09V113.1h1.09v4.42a2.48 2.48 0 0 1 2.24-1.29c1.54 0 2.31.92 2.31 2.78zM202.82 120.08H198a2.56 2.56 0 0 0 .61 1.76 2.15 2.15 0 0 0 1.62.62 3.32 3.32 0 0 0 2.12-.76v1a4 4 0 0 1-2.38.65 2.89 2.89 0 0 1-2.28-.93 3.81 3.81 0 0 1-.83-2.62 3.76 3.76 0 0 1 .91-2.6 2.89 2.89 0 0 1 2.25-1 2.59 2.59 0 0 1 2.07.86 3.63 3.63 0 0 1 .74 2.41zm-1.13-.93a2.19 2.19 0 0 0-.45-1.47 1.54 1.54 0 0 0-1.25-.53 1.77 1.77 0 0 0-1.32.55 2.55 2.55 0 0 0-.67 1.45zM214.61 113.92l-5.61 8.29h5.48v1h-7.15v-.31l5.56-8.25h-5.12v-1h6.84zM218.87 123.38a3.16 3.16 0 0 1-2.42-1 3.5 3.5 0 0 1-.91-2.54 3.75 3.75 0 0 1 .94-2.69 3.42 3.42 0 0 1 2.55-1 3 3 0 0 1 2.38.94 4.29 4.29 0 0 1-.06 5.23 3.28 3.28 0 0 1-2.48 1.06zm.08-6.23a2.07 2.07 0 0 0-1.67.72 2.91 2.91 0 0 0-.62 2 2.78 2.78 0 0 0 .63 1.92 2.08 2.08 0 0 0 1.66.7 2 2 0 0 0 1.63-.69 3 3 0 0 0 .57-2 3.05 3.05 0 0 0-.57-2 2 2 0 0 0-1.58-.65zM229.85 123.22h-1.09v-1.16a2.76 2.76 0 0 1-4.41.4 3.77 3.77 0 0 1-.77-2.5 4.08 4.08 0 0 1 .86-2.71 2.82 2.82 0 0 1 2.27-1 2.19 2.19 0 0 1 2 1.1v-4.25h1.09zm-1.09-3.09v-1a1.93 1.93 0 0 0-.55-1.4 1.84 1.84 0 0 0-1.39-.57 1.88 1.88 0 0 0-1.57.73 3.24 3.24 0 0 0-.58 2 3 3 0 0 0 .55 1.87 1.83 1.83 0 0 0 1.48.68 1.88 1.88 0 0 0 1.49-.66 2.47 2.47 0 0 0 .57-1.65zM232.63 114.65a.7.7 0 0 1-.5-.2.66.66 0 0 1-.21-.51.69.69 0 0 1 .21-.51.7.7 0 0 1 .5-.2.73.73 0 0 1 .51.2.69.69 0 0 1 .21.51.66.66 0 0 1-.21.5.69.69 0 0 1-.51.21zm.54 8.57h-1.1v-6.83h1.1zM240.27 123.22h-1.09v-1.07a2.29 2.29 0 0 1-2.1 1.23 2.26 2.26 0 0 1-1.6-.54 1.89 1.89 0 0 1-.58-1.43c0-1.28.76-2 2.26-2.23l2.05-.29q0-1.74-1.41-1.74a3.37 3.37 0 0 0-2.23.84v-1.12a4.21 4.21 0 0 1 2.32-.64c1.61 0 2.41.85 2.41 2.55zm-1.09-3.46l-1.65.23a2.67 2.67 0 0 0-1.15.38 1.09 1.09 0 0 0-.39 1 1 1 0 0 0 .36.81 1.35 1.35 0 0 0 1 .32 1.77 1.77 0 0 0 1.35-.57 2 2 0 0 0 .53-1.44zM247 122.91a3.57 3.57 0 0 1-1.86.47 3.05 3.05 0 0 1-2.36-.95 3.44 3.44 0 0 1-.9-2.47 3.77 3.77 0 0 1 1-2.71 3.37 3.37 0 0 1 2.58-1 3.64 3.64 0 0 1 1.59.33v1.12a2.83 2.83 0 0 0-1.63-.53 2.21 2.21 0 0 0-1.72.75 2.84 2.84 0 0 0-.67 2 2.74 2.74 0 0 0 .63 1.9 2.17 2.17 0 0 0 1.69.69 2.75 2.75 0 0 0 1.68-.59z" fill="#fff"/><path d="M308.05 151.69a1.07 1.07 0 0 1-.39-.07 1 1 0 0 1-.32-.22 1 1 0 0 1-.22-1.09 1 1 0 0 1 .22-.32.87.87 0 0 1 .32-.22 1 1 0 0 1 1.09.22.87.87 0 0 1 .22.32 1 1 0 0 1-.22 1.09.44.44 0 0 1-.15.12 1 1 0 0 1-.17.1h-.19a.62.62 0 0 1-.19.07zM441.07 150.69a1 1 0 0 1 1-1 1 1 0 0 1 1 1 1 1 0 0 1-1 1 1 1 0 0 1-1-1zm-6.09 0a1 1 0 0 1 1-1 1 1 0 0 1 1 1 1 1 0 0 1-1 1 1 1 0 0 1-.98-1zm-6.1 0a1 1 0 0 1 1-1 1 1 0 0 1 1 1 1 1 0 0 1-1 1 1 1 0 0 1-1-1zm-6.08 0a1 1 0 0 1 1-1 1 1 0 0 1 1 1 1 1 0 0 1-1 1 1 1 0 0 1-1-1zm-6.1 0a1 1 0 0 1 1-1 1 1 0 0 1 1 1 1 1 0 0 1-1 1 1 1 0 0 1-1-1zm-6.09 0a1 1 0 0 1 1-1 1 1 0 0 1 1 1 1 1 0 0 1-1 1 1 1 0 0 1-1-1zm-6.09 0a1 1 0 0 1 1-1 1 1 0 0 1 1 1 1 1 0 0 1-1 1 1 1 0 0 1-1-1zm-6.09 0a1 1 0 0 1 1-1 1 1 0 0 1 1 1 1 1 0 0 1-1 1 1 1 0 0 1-1-1zm-6.09 0a1 1 0 0 1 1-1 1 1 0 0 1 1 1 1 1 0 0 1-1 1 1 1 0 0 1-1-1zm-6.1 0a1 1 0 0 1 1-1 1 1 0 0 1 1 1 1 1 0 0 1-1 1 1 1 0 0 1-1-1zm-6.09 0a1 1 0 0 1 1-1 1 1 0 0 1 1 1 1 1 0 0 1-1 1 1 1 0 0 1-1-1zm-6.09 0a1 1 0 0 1 1-1 1 1 0 0 1 1 1 1 1 0 0 1-1 1 1 1 0 0 1-1-1zm-6.09 0a1 1 0 0 1 1-1 1 1 0 0 1 1 1 1 1 0 0 1-1 1 1 1 0 0 1-.97-1zm-6.1 0a1 1 0 0 1 1-1 1 1 0 0 1 1 1 1 1 0 0 1-1 1 1 1 0 0 1-1-1zm-6.09 0a1 1 0 0 1 1-1 1 1 0 0 1 1 1 1 1 0 0 1-1 1 1 1 0 0 1-1-1zm-6.09 0a1 1 0 0 1 1-1 1 1 0 0 1 1 1 1 1 0 0 1-1 1 1 1 0 0 1-1-1zm-6.09 0a1 1 0 0 1 1-1 1 1 0 0 1 1 1 1 1 0 0 1-1 1 1 1 0 0 1-1-1zm-6.09 0a1 1 0 0 1 1-1 1 1 0 0 1 1 1 1 1 0 0 1-1 1 1 1 0 0 1-1-1zm-6.1 0a1 1 0 0 1 1-1 1 1 0 0 1 1 1 1 1 0 0 1-1 1 1 1 0 0 1-1-1zm-6.09 0a1 1 0 0 1 1-1 1 1 0 0 1 1 1 1 1 0 0 1-1 1 1 1 0 0 1-1-1zm-6.09 0a1 1 0 0 1 1-1 1 1 0 0 1 1 1 1 1 0 0 1-1 1 1 1 0 0 1-1-1zm-6.09 0a1 1 0 0 1 1-1 1 1 0 0 1 1 1 1 1 0 0 1-1 1 1 1 0 0 1-1-1zM448.16 151.69a1 1 0 0 1-.7-.29.87.87 0 0 1-.22-.32 1 1 0 0 1-.08-.39 1 1 0 0 1 .08-.38.87.87 0 0 1 .22-.32 1 1 0 0 1 1.63.32 1 1 0 0 1-.93 1.38zM447.17 232.89a1 1 0 0 1 1-1 1 1 0 0 1 1 1 1 1 0 0 1-1 1 1 1 0 0 1-1-1zm0-5.87a1 1 0 0 1 1-1 1 1 0 0 1 1 1 1 1 0 0 1-1 1 1 1 0 0 1-1-1.02zm0-5.87a1 1 0 0 1 1-1 1 1 0 0 1 1 1 1 1 0 0 1-1 1 1 1 0 0 1-1-1zm0-5.87a1 1 0 0 1 1-1 1 1 0 0 1 1 1 1 1 0 0 1-1 1 1 1 0 0 1-1-1zm0-5.87a1 1 0 0 1 1-1 1 1 0 0 1 1 1 1 1 0 0 1-1 1 1 1 0 0 1-1-1zm0-5.87a1 1 0 0 1 1-1 1 1 0 0 1 1 1 1 1 0 0 1-1 1 1 1 0 0 1-1-1zm0-5.88a1 1 0 0 1 1-1 1 1 0 0 1 1 1 1 1 0 0 1-1 1 1 1 0 0 1-1-1zm0-5.87a1 1 0 0 1 1-1 1 1 0 0 1 1 1 1 1 0 0 1-1 1 1 1 0 0 1-1-1zm0-5.87a1 1 0 0 1 1-1 1 1 0 0 1 1 1 1 1 0 0 1-1 1 1 1 0 0 1-1-1zm0-5.87a1 1 0 0 1 1-1 1 1 0 0 1 1 1 1 1 0 0 1-1 1 1 1 0 0 1-1-1zm0-5.87a1 1 0 0 1 1-1 1 1 0 0 1 1 1 1 1 0 0 1-1 1 1 1 0 0 1-1-1zm0-5.87a1 1 0 0 1 1-1 1 1 0 0 1 1 1 1 1 0 0 1-1 1 1 1 0 0 1-1-1zm0-5.87a1 1 0 0 1 1-1 1 1 0 0 1 1 1 1 1 0 0 1-1 1 1 1 0 0 1-1-1zm0-5.88a1 1 0 0 1 1-1 1 1 0 0 1 1 1 1 1 0 0 1-1 1 1 1 0 0 1-1-1zM448.16 239.77a1 1 0 0 1-.7-1.71 1 1 0 0 1 1.41 0 1 1 0 0 1 .3.71 1 1 0 0 1-.3.7 1 1 0 0 1-.71.3zM441.05 238.77a1 1 0 0 1 1-1 1 1 0 0 1 1 1 1 1 0 0 1-1 1 1 1 0 0 1-1-1zm-6.12 0a1 1 0 0 1 1-1 1 1 0 0 1 1 1 1 1 0 0 1-1 1 1 1 0 0 1-1-1zm-6.12 0a1 1 0 0 1 1-1 1 1 0 0 1 1 1 1 1 0 0 1-1 1 1 1 0 0 1-1-1zm-6.12 0a1 1 0 0 1 1-1 1 1 0 0 1 1 1 1 1 0 0 1-1 1 1 1 0 0 1-1-1zm-6.12 0a1 1 0 0 1 1-1 1 1 0 0 1 1 1 1 1 0 0 1-1 1 1 1 0 0 1-1-1zm-6.11 0a1 1 0 0 1 1-1 1 1 0 0 1 1 1 1 1 0 0 1-1 1 1 1 0 0 1-1-1zm-6.12 0a1 1 0 0 1 1-1 1 1 0 0 1 1 1 1 1 0 0 1-1 1 1 1 0 0 1-1-1zm-6.12 0a1 1 0 0 1 1-1 1 1 0 0 1 1 1 1 1 0 0 1-1 1 1 1 0 0 1-1-1zm-6.12 0a1 1 0 0 1 1-1 1 1 0 0 1 1 1 1 1 0 0 1-1 1 1 1 0 0 1-1-1zm-6.11 0a1 1 0 0 1 1-1 1 1 0 0 1 1 1 1 1 0 0 1-1 1 1 1 0 0 1-.99-1zm-6.12 0a1 1 0 0 1 1-1 1 1 0 0 1 1 1 1 1 0 0 1-1 1 1 1 0 0 1-1-1zM374.75 239.77a1 1 0 0 1-1-1 1 1 0 0 1 .29-.71 1.19 1.19 0 0 1 .33-.22 1 1 0 0 1 1.38.93 1 1 0 0 1-.07.38 1.21 1.21 0 0 1-.22.32l-.15.13-.18.09a.64.64 0 0 1-.18.06z" fill="#a5802a"/><path fill="#262626" stroke="#a5802a" stroke-miterlimit="10" stroke-width="2" d="M184.27 199.02h234.99v71.17H184.27z"/><text transform="translate(230.43 219.72)" font-size="13.28" fill="#fff" font-family="Georgia, Georgia" letter-spacing=".01em">The Zodiac would like to <tspan x="-11.19" y="15.49">send you push notifications!</tspan></text><path fill="#262626" stroke="#a5802a" stroke-miterlimit="10" stroke-width="2" d="M184.27 249.07h117.49v21.12H184.27zM301.77 249.07h117.49v21.12H301.77z"/><text transform="translate(228.87 263.23)" font-size="11.06" fill="#fff" font-family="Georgia, Georgia" letter-spacing=".01em">Allow</text><text transform="translate(341.72 263.23)" font-size="11.06" fill="#fff" font-family="Georgia, Georgia" letter-spacing=".01em">Decline</text><circle cx="446.22" cy="153.94" r="40.05" fill="#a5802a" stroke="#a5802a" stroke-miterlimit="10" stroke-width="2"/><path d="M484.67 142.39h-.05l-.18-.49c-.25-.71-.5-1.42-.74-2.14a.37.37 0 0 0-.44-.31 5.62 5.62 0 0 0-.58 0 1.74 1.74 0 0 1-2-.86 2.17 2.17 0 0 1-.28-.67c-.09-.44-.12-.9-.18-1.39-.62.25-1.19.46-1.27 1.25a12 12 0 0 1-.37 1.53 20.74 20.74 0 0 1-1.46-1.59 1.79 1.79 0 0 1-.12-.94 1.11 1.11 0 0 0-.52-1.09 3 3 0 0 1-.83-.72c-.64-.89-1.53-.69-2.45-.67.17.49.32.95.51 1.4a.73.73 0 0 0 .31.29c.52.29 1 .57 1.55.87a5.7 5.7 0 0 1 .64.5c-.51.16-.48.5-.46.85s0 .55-.09.62a2.18 2.18 0 0 1-1.06.37c-.68 0-.82-.16-1.16-.84.53-.21 1.31.4 1.65-.53-.67-.45-1.35-.89-2-1.36s-1.34-.62-1.25-1.68c-.41.36-.7.59-.95.86a.74.74 0 0 1-.9.24.92.92 0 0 0-1.28.47c-.28.46-.68.86-1 1.31s-.49.87-.76 1.29a.71.71 0 0 1-.43.34 20.85 20.85 0 0 1-2.62.08 3.53 3.53 0 0 1-1.18-.46.57.57 0 0 1-.15-.35c-.09-.54-.17-1.08-.23-1.62a1.55 1.55 0 0 1 0-.48 1.25 1.25 0 0 1 1.07-1 5.09 5.09 0 0 1 2.66.1c.46.13.62 0 .66-.44 0-.19.07-.37.11-.58l-.84-.24c.09-.54.17-1.07.28-1.6 0-.08.19-.17.3-.19.46-.09.94-.13 1.39-.25a1.61 1.61 0 0 0 .63-.4 4.06 4.06 0 0 0 .62-.87c.54-1.09 1.52-1.06 2.5-1 .46 0 .92.11 1.43.18-.1-.7-.19-1.29-.29-1.93l-1.63.62c-.14-.35-.29-.65-.39-1a.65.65 0 0 0-.66-.53c-.18 0-.47-.13-.49-.24-.07-.32-.27-.64 0-1a3.73 3.73 0 0 1 1.82-1.12 1.72 1.72 0 0 0 .68-.37c.5-.57.48-.69-.11-1.19a39.55 39.55 0 0 0-21.24-9.28c-.57-.07-1.14-.12-1.71-.17h-6.46a40.4 40.4 0 0 0-19.87 7.43v.12h1.47a1 1 0 0 1 .51.08 5.59 5.59 0 0 0 2.05.69c.28 0 .45.15.49.46a.44.44 0 0 0 .29.29h2.34c0-.62-.18-.77-.82-.78s-1.12 0-1.7-.06c.29-.37.62-.69.14-1.17h-1.91v-.08c.48-.37 1-.71 1.45-1.11a2.7 2.7 0 0 1 1.73-.6 1.87 1.87 0 0 1 2.11 1.09c.14.31.41.38.75.44a2 2 0 0 0 2.2-.81 1 1 0 0 1 .18-.16l.69.36c-.44.47-.86.94-1.3 1.38a.64.64 0 0 1-.42.09h-1.52c0 .51.07.94.11 1.36h2.32c.1 0 .22-.18.26-.3a.48.48 0 0 1 .53-.37h.8c.27 0 .61-.11.62-.53a3.2 3.2 0 0 1 .09-.49l-.89-.2c0-.75.32-1.09 1-1.1s1.68.06 2.64.11c-.47.42-.83.78-1.22 1.1s-.11.69 0 1c0 .12.27.25.44.29a10.64 10.64 0 0 0 1.12.17c0-.49 0-.94-.08-1.39s.09-.5.38-.69a8 8 0 0 1 3.54-.83.76.76 0 0 1 .38.09c1.06.47 2.11 1 3.17 1.4a.49.49 0 0 1 .34.54v1l1.18.33c-.18.34-.32.66-.5 1-.05.08-.19.12-.29.15a.61.61 0 0 1-.27 0c-.86-.14-1.49 0-1.64 1a.32.32 0 0 1-.27.19c-1.17-.26-2.35-.54-3.54-.93l2.89-1.56c-.4-.33-.75-.64-1.12-.92-.07-.06-.22 0-.33 0-.55.06-1.09.17-1.63.2a1.45 1.45 0 0 0-1.21.61 1.45 1.45 0 0 1-1.33.63 2.33 2.33 0 0 0-.38 0c-.16.46.12.66.45.84v.13a5.86 5.86 0 0 0-.73.13c-.12 0-.32.14-.32.21 0 .44-.27.46-.59.45h-.44c-.06-.37-.13-.73-.2-1.17a13.68 13.68 0 0 0-1.93.67c-1.05.54-2 1.19-3.07 1.77-.24.14-.32.28-.22.54a2.9 2.9 0 0 1 .12.42c.14.92.81 1.24 1.6 1.4a9 9 0 0 0 1.27.18c.25 0 .32.14.32.37v1.92c.58 0 1-.08 1.2-.69a2.17 2.17 0 0 1 1.86-1.62c.85-.19.83-.25.84-1.11v-1.37a.92.92 0 0 1 .41-.81 1.49 1.49 0 0 1 1.68-.36 7.28 7.28 0 0 0 1.47.33c.42.06.49.27.43.64s-.1.81-.14 1.26c1.12.21 1.84-.7 2.85-.93 0 .64.07 1.26.08 1.89a.58.58 0 0 0 .34.6c.29.15.55.35.84.5a.58.58 0 0 1 .35.63c0 1 0 1-1 1.34a2.16 2.16 0 0 0-.45.29 2.26 2.26 0 0 0 .42.49 3.57 3.57 0 0 0 .89.4.63.63 0 0 1 .5.83 2 2 0 0 0 0 .37 2.22 2.22 0 0 1-.58 0c-.63-.17-1.26-.36-1.86-.58a.65.65 0 0 1-.31-.45.74.74 0 0 1 .17-.47c.1-.17.34-.27.39-.44.14-.47 0-.57-.68-.66 0 .63-.47.62-.92.67a3.64 3.64 0 0 0-.44.07.58.58 0 0 1-.84-.4c-.13-.36-.88-.54-1.35-.36a.63.63 0 0 0-.4.79.51.51 0 0 0 .27.32 10 10 0 0 0 1.07.31l-.69.76a1.79 1.79 0 0 0-.23-.24.68.68 0 0 0-1 0c-.37.35-.76.69-1.12 1.07a1.88 1.88 0 0 0-.22.45.67.67 0 0 1-.2.21 4.65 4.65 0 0 1-.62.34c-1.72.69-2.81 2.12-4 3.4a1.09 1.09 0 0 0-.2.65 1.14 1.14 0 0 1-.6 1 13 13 0 0 0-2.94 2.27.91.91 0 0 0-.25.71c.06.63.09 1.27.13 2-.58-.28-1.1-.51-1.6-.77-.07 0-.08-.21-.08-.32v-1.11h-4.33a3.21 3.21 0 0 0-.8.19c-.18.06-.33.2-.51.26-2 .65-2.52 2.4-3 4.16-.06.23.17.51.24.78a1.24 1.24 0 0 0 1.25 1 2.46 2.46 0 0 0 1.93-.44c.67-.53 1.42-1 2.17-1.46.19.52.41 1 .05 1.48a12.1 12.1 0 0 0-.66 1.25l2.31.42c.07 1.08.16 2.13.2 3.18 0 .33.15.45.47.5.79.11 1.58.25 2.36.4a.6.6 0 0 0 .66-.22c.5-.61 1-1.18 1.53-1.79a.53.53 0 0 1 .65-.2 6 6 0 0 0 1.12.23 1.71 1.71 0 0 1 1.53 1 .64.64 0 0 0 .73.36c.41-.05.82-.06 1.24-.08.64 0 .64 0 .76-.72.61.32 1.29.47 1.65 1.17a9.74 9.74 0 0 0 .93 1.46.73.73 0 0 0 .49.27h1.77a.68.68 0 0 1 .64.36 4.68 4.68 0 0 1 .83 2.92.47.47 0 0 0 .39.5c.75.27 1.49.57 2.24.84a1.77 1.77 0 0 0 .52.09h2.75a.65.65 0 0 1 .7.41 2.56 2.56 0 0 0 2.1 1.72 1 1 0 0 1 .22.1 3.27 3.27 0 0 1-.79 2 4.57 4.57 0 0 0-1.51 3.61 18.76 18.76 0 0 1-.24 2.48 1.34 1.34 0 0 1-.33.62 2.82 2.82 0 0 1-2.82.95c-.55-.11-.82.13-1.11.6a1.71 1.71 0 0 0-.21 1.53c.13.39.17.81.29 1.21a.86.86 0 0 1-.18.85 24.39 24.39 0 0 0-2.94 4.11.83.83 0 0 1-.36.3c-.63.31-1.26.66-1.92.91a6.38 6.38 0 0 1-1.38.28.41.41 0 0 0-.41.42c0 .28.11.36.34.41a1.66 1.66 0 0 1 .21.06c.55.16.66.56.26 1s-.56.53-.8.75c.28.93 1 .88 1.77.85-.08.44-.14.83-.21 1.21a2.19 2.19 0 0 1-.12.33c-.29.84-.26.95.4 1.51.31.26.6.54.92.77s.15.45.1.7-.25.28-.47.27a2.58 2.58 0 0 0-.48 0 3.26 3.26 0 0 1-2.75-1 12.66 12.66 0 0 1-2.4-3.2 2.93 2.93 0 0 1-.5-2.38 3.22 3.22 0 0 0-1-3.35.79.79 0 0 1-.2-.81c.17-.84.31-1.69.46-2.54v-.12l-.07-.06c-.74-.29-.74-.29-.74-1.11v-5.5a.79.79 0 0 0-.39-.77 11.07 11.07 0 0 1-1-.76 3.78 3.78 0 0 0-1.89-.9.45.45 0 0 1-.46-.49 2.66 2.66 0 0 0-.74-1.66c-.77-.9-1.49-1.84-2.21-2.77a.92.92 0 0 1-.17-.55c.08-1 .22-1.91.29-2.86a.82.82 0 0 1 .41-.72c.5-.32 1-.68 1.46-1a.48.48 0 0 0 .24-.55c-.09-.6-.17-1.2-.23-1.8 0-.29-.14-.38-.41-.39-.78 0-1.57-.1-2.35-.18a1 1 0 0 1-.55-.27c-.66-.71-1.27-1.45-1.92-2.16a1.53 1.53 0 0 0-.65-.41c-.78-.23-1.57-.41-2.39-.62 0-.3.06-.6.09-.95l-1.31-.19-.12.53c-.8-.2-1.59-.44-2.4-.57a2 2 0 0 1-1.68-1.25 1.06 1.06 0 0 0-.17-.26c-.5-.56-.72-1.12-.15-1.78.07-.08 0-.34-.08-.46-.49-.75-1-1.51-1.53-2.23a3.14 3.14 0 0 1-.64-1.62c0-.25-.07-.5-.11-.75-.13-.79-.13-.79-1-.66.19 1.07.07 2.21.86 3.13.24.28.38.64.62.92a1.31 1.31 0 0 1 .14 1.43 1.74 1.74 0 0 1-1.68-.8 6.09 6.09 0 0 1-1.15-4.37 1 1 0 0 0-.79-1.23 1.07 1.07 0 0 1-.9-1.38 7.91 7.91 0 0 0 0-1.21c-.12.22-.18.32-.23.43a38.17 38.17 0 0 0-2 6.52c-.05.21.05.46-.05.66-1.53 3.29-2.16 10.39 0 15.89.36.92.32 2 .59 2.94a39.79 39.79 0 0 0 14 20.73 39 39 0 0 0 17.67 7.83c1.39.25 2.8.38 4.13.54h5.33a40 40 0 0 0 28.44-14.73H476v-2.23a1.74 1.74 0 0 0-.24-.77 9.55 9.55 0 0 1-1.23-2 7 7 0 0 1 0-2.29 1.2 1.2 0 0 0-.49-1.15 1.78 1.78 0 0 1-.77-1.76 1.32 1.32 0 0 1 .14-.55c.36-.72.73-1.45 1.13-2.16a.67.67 0 0 0 0-.73c-.82-1.41-1.63-2.82-2.41-4.24a1.42 1.42 0 0 1-.17-.75c0-.78.14-1.56.21-2.34v-.64c-.65-.08-1.27-.17-1.88-.2a1.3 1.3 0 0 1-1.07-.52 1.29 1.29 0 0 0-1.15-.5 1.9 1.9 0 0 0-1.73.65.63.63 0 0 1-.46.16h-1.82a1.58 1.58 0 0 0-1.08.21c-.23.18-.71 0-1.08.06s-.64-.17-.88-.45c-1.07-1.23-2.14-2.45-3.2-3.69a.8.8 0 0 1-.21-.5v-2.8c0-.13.1-.36.19-.38.44-.09.53-.41.56-.78 0-.2.06-.41.09-.59s-.06-.08-.08-.08c-.26 0-.66 0-.75-.12a3.55 3.55 0 0 1-.35-1.13c0-.11.14-.28.25-.36q1.89-1.38 3.79-2.73a.68.68 0 0 0 .33-.65v-1.56a.65.65 0 0 1 .26-.44c.54-.33 1.1-.64 1.67-.93a1 1 0 0 1 .5-.1c.32 0 .65 0 1 .05a4 4 0 0 0 2.62-.61 2.73 2.73 0 0 1 1.2-.21c1.13-.11 2.27-.19 3.49-.28V141c0 .37.08.55.47.63.81.17 1.62.37 2.41.61a10.67 10.67 0 0 1 1.16.5c.25.09.51.14.85.23v-1.37c.66-.06 1.26-.14 1.86-.18a.77.77 0 0 1 .44.16c.45.31.86.67 1.33 1a2 2 0 0 0 .88.29h2.26a5 5 0 0 0 .65-.07v.35zm-20-14.25c.08-.31.2-.62.6-.69s.66-.13 1.06-.21c.26 1.55.67 3 2.28 3.6-.36.51-.65 1-1.42 1s-1.29.06-2 .1a10.75 10.75 0 0 1 .13-1.24c0-.1.23-.16.36-.23s.51-.15.56-.3c.1-.32-.1-.57-.42-.73s-.53-.38-.82-.52a.61.61 0 0 1-.3-.78zm-1.91 2c.32-.54.66-1 1.36-1a2.53 2.53 0 0 1 .91.25c.19.1.09.83-.13 1a10.5 10.5 0 0 1-1.38.94 2.8 2.8 0 0 1-1 .14 1.62 1.62 0 0 1 .27-1.37zm-22 5.16c-.14.43-.51.21-.94.32l.41-1.07c.38.17.67.3.54.71zm2.6-.77a1 1 0 0 0-.34.37 1 1 0 0 1-1 .51c-.28-.05-.49-.43-.43-.87h.51c.35 0 .66 0 .78-.43.06-.25.44-.25 1 .1-.17.07-.35.16-.51.28z" fill="#262626"/><circle cx="446.22" cy="153.94" r="40.05" fill="none" stroke="#a5802a" stroke-miterlimit="10" stroke-width="2"/><path d="M396.91 117.53l1.92-4.43-4.4-3.08-3.53 3.34c-.4-.12-.8-.22-1.2-.31l-1.44-4.85-5.35.47-.59 5.1c-.29.12-.58.25-.86.4l-4.46-2.93-3.78 3.76 2.93 4.45c-.12.22-.22.45-.33.68l-5.47.63-.46 5.35 5.13 1.53c.05.24.11.48.17.72l-3.8 4 3.08 4.4 4.78-2.07a7.61 7.61 0 0 0 .72.55l-.32 5.34 5.18 1.39 2.22-4.43h1.17l3 4.08 4.87-2.26-1.1-4.58c.31-.26.61-.53.9-.82l.16-.16 4.7 1.12 2.27-4.86-3.69-2.73a13.63 13.63 0 0 0 .18-1.55l4.23-2.11-1.39-5.19-4.63.28a12.44 12.44 0 0 0-.81-1.23zm-4.62 2.52a7.25 7.25 0 1 1-10.26 0 7.28 7.28 0 0 1 10.26 0zM413 99.74l1-2.26-2.23-1.56-1.8 1.7a6.06 6.06 0 0 0-.61-.16l-.79-2.46-2.72.24-.3 2.59c-.15.07-.3.13-.44.21l-2.26-1.49-1.93 1.93 1.49 2.26a3.78 3.78 0 0 0-.17.35l-2.78.32-.24 2.72 2.61.78.09.36-1.93 2 1.56 2.24 2.43-1.06.37.29-.16 2.71 2.64.71 1.12-2.26h.6l1.54 2.08 2.48-1.16-.57-2.32a5.87 5.87 0 0 0 .46-.41.6.6 0 0 1 .08-.08l2.39.57 1.15-2.48-1.87-1.39q.06-.39.09-.78l2.15-1.08-.71-2.64-2.35.14a6.67 6.67 0 0 0-.39-.61zm-2.38 1.26a3.69 3.69 0 1 1-5.22 0 3.69 3.69 0 0 1 5.22 0z" fill="#a5802a"/></g></svg>