<svg xmlns="http://www.w3.org/2000/svg" viewBox="0 0 507.19 381.43"><g data-name="Comp 1"><path d="M292.9 272.7h4.3a12.3 12.3 0 0 1 21.56-8.1v-.06a14.93 14.93 0 1 1 27.44 8.16h11.38a6.15 6.15 0 1 1 0 12.3H292.9a6.15 6.15 0 0 1 0-12.3zM6.04 44.06h252.95v177.71H6.04z" fill="#262626" stroke="#a5802a" stroke-linecap="round" stroke-linejoin="round" stroke-width="2"/><path fill="#262626" stroke="#a5802a" stroke-linecap="round" stroke-linejoin="round" stroke-width="2" d="M6.04 44.06h252.95v14.17H6.04z"/><path fill="#494949" d="M42.18 76.43h114.67v128.94H42.18zM165.83 76.43h57.02v60.81h-57.02z"/><path fill="#494949" d="M151.83 145.36h57.02v60.81h-57.02z"/><path fill="#333" stroke="#a5802a" stroke-miterlimit="10" stroke-width="2" d="M29.37 101.68h206.28v62.47H29.37z"/><text transform="translate(69.89 119.86)" font-size="11.66" fill="#fff" font-family="Georgia, Georgia" letter-spacing=".01em">The Zodiac would like to <tspan x="-9.82" y="13.6">send you push notifications!</tspan></text><path fill="#a5802a" stroke="#a5802a" stroke-miterlimit="10" stroke-width="2" d="M29.37 145.62h103.14v18.54H29.37z"/><path fill="#333" stroke="#a5802a" stroke-miterlimit="10" stroke-width="2" d="M132.51 145.62h103.14v18.54H132.51z"/><text transform="translate(68.53 158.05)" font-size="9.71" font-family="Georgia, Georgia" letter-spacing=".01em">Allow</text><text transform="translate(167.58 158.05)" font-size="9.71" fill="#fff" font-family="Georgia, Georgia" letter-spacing=".01em">Decline</text><path fill="none" stroke="#a5802a" stroke-linecap="round" stroke-linejoin="round" stroke-width="2" d="M236.12 127.47"/><path fill="none" stroke="#a5802a" stroke-linecap="round" stroke-linejoin="round" stroke-width="2" stroke-dasharray="0 6.03" d="M242.15 127.47h147.73"/><path fill="none" stroke="#a5802a" stroke-linecap="round" stroke-linejoin="round" stroke-width="2" d="M392.9 127.47"/><path fill="none" stroke="#a5802a" stroke-linecap="round" stroke-linejoin="round" stroke-width="2" stroke-dasharray="0 6.16" d="M392.9 133.64v89.39"/><path fill="none" stroke="#a5802a" stroke-linecap="round" stroke-linejoin="round" stroke-width="2" d="M392.9 226.11"/><path d="M224.05 127.47c5.68 2.11 12.73 5.7 17.1 9.51l-3.44-9.51 3.44-9.51c-4.37 3.81-11.42 7.41-17.1 9.51zM392.9 238.18c-2.11-5.68-5.71-12.73-9.51-17.09l9.51 3.44 9.51-3.44c-3.81 4.36-7.41 11.41-9.51 17.09z" fill="#a5802a"/><path fill="none" stroke="#a5802a" stroke-linecap="round" stroke-linejoin="round" stroke-width="2" d="M78.88 167.77"/><path fill="none" stroke="#a5802a" stroke-linecap="round" stroke-linejoin="round" stroke-width="2" stroke-dasharray="0 5.97" d="M78.88 173.74v116.43"/><path fill="none" stroke="#a5802a" stroke-linecap="round" stroke-linejoin="round" stroke-width="2" d="M78.88 293.15"/><path fill="none" stroke="#a5802a" stroke-linecap="round" stroke-linejoin="round" stroke-width="2" stroke-dasharray="0 6.04" d="M84.92 293.15h184.26"/><path fill="none" stroke="#a5802a" stroke-linecap="round" stroke-linejoin="round" stroke-width="2" d="M272.2 293.15"/><path d="M284.27 293.15c-5.68 2.11-12.72 5.7-17.09 9.51l3.44-9.51-3.44-9.51c4.37 3.81 11.41 7.41 17.09 9.51z" fill="#a5802a"/><path fill="none" stroke="#a5802a" stroke-linecap="round" stroke-linejoin="round" stroke-width="2" d="M291.23 293.15"/><path fill="none" stroke="#a5802a" stroke-linecap="round" stroke-linejoin="round" stroke-width="2" stroke-dasharray="0 5.97" d="M297.21 293.15h92.6"/><path fill="none" stroke="#a5802a" stroke-linecap="round" stroke-linejoin="round" stroke-width="2" d="M392.8 293.15"/><path fill="none" stroke="#a5802a" stroke-linecap="round" stroke-linejoin="round" stroke-width="2" stroke-dasharray="0 6.24" d="M392.8 286.92v-40.54"/><path fill="none" stroke="#a5802a" stroke-linecap="round" stroke-linejoin="round" stroke-width="2" d="M392.8 243.27"/><path d="M462.24 312.52h-11.83a28.78 28.78 0 0 0-32.7-42.14 39.79 39.79 0 0 0-76.89 10.19 29.27 29.27 0 0 0-6.46-.73 28.77 28.77 0 0 0-28.77 28.76 29.77 29.77 0 0 0 .27 3.92h-8.67a12.42 12.42 0 1 0 0 24.84h165.05a12.42 12.42 0 1 0 0-24.84z" fill="#262626" stroke="#a5802a" stroke-linecap="round" stroke-linejoin="round" stroke-width="2"/><path d="M494.94 276.05h-6.25a17.86 17.86 0 0 0-31.31-11.76v-.09a21.69 21.69 0 1 0-39.85 11.85H401a8.94 8.94 0 0 0 0 17.87h93.95a8.94 8.94 0 1 0 0-17.87z" fill="#262626" stroke="#a5802a" stroke-linecap="round" stroke-linejoin="round" stroke-width="2"/></g></svg>