<svg xmlns="http://www.w3.org/2000/svg" viewBox="0 0 507.19 381.43"><g data-name="Comp 1"><path d="M325.78 317h-57.44v-88.17a1.17 1.17 0 0 0-1.17-1.18H240a1.17 1.17 0 0 0-1.17 1.18V317h-57.41a.15.15 0 0 0-.15.14v13.82a.15.15 0 0 0 .15.15h144.36a.15.15 0 0 0 .14-.15v-13.85a.14.14 0 0 0-.14-.11z" fill="#a5802a"/><path fill="#262626" stroke="#a5802a" stroke-linecap="round" stroke-linejoin="round" stroke-width="2" d="M92.69 79.87H414.5v193.44H92.69z"/><path d="M418 276.84H89.17V76.35H418zm-321.8-7H411V83.4H96.22z" fill="#a5802a"/><path fill="#333" d="M262.34 97.2h135.42v28.96H262.34z"/><path d="M398.94 127.34H261.17V96h137.77zM263.52 125h133.07V98.37H263.52z" fill="#a5802a"/><path d="M274 104.09a.8.8 0 0 0-.23 0 .61.61 0 0 0-.23.09.55.55 0 0 0-.2.2 1.57 1.57 0 0 0-.16.29c-.16.4-.41 1-.74 1.86s-.68 1.71-1 2.62h-.31l-1-2.79-.68-1.81a.72.72 0 0 0-.12-.21.83.83 0 0 0-.2-.16.55.55 0 0 0-.22-.1h-.23v-.26h2.19v.26a2.58 2.58 0 0 0-.47.06c-.13 0-.2.07-.2.14a.44.44 0 0 0 0 .1.46.46 0 0 0 0 .09c.09.25.24.64.44 1.2s.5 1.33.88 2.35c.19-.46.41-1 .65-1.63s.41-1.06.5-1.3a2.55 2.55 0 0 0 .14-.47 1.83 1.83 0 0 0 0-.21.17.17 0 0 0-.08-.14.62.62 0 0 0-.2-.1 1 1 0 0 0-.25-.06h-.25v-.26h2zM275.93 109.13h-1.77v-.25H274.49a.29.29 0 0 0 .16-.12.48.48 0 0 0 .05-.22v-2.27a.54.54 0 0 0-.05-.22.52.52 0 0 0-.16-.17.57.57 0 0 0-.2-.07 1.18 1.18 0 0 0-.25 0v-.25l1.3-.08h.05v3a.43.43 0 0 0 .05.21.3.3 0 0 0 .16.13h.16a.47.47 0 0 0 .17 0zm-.46-5.18a.57.57 0 0 1-.14.37.48.48 0 0 1-.35.16.46.46 0 0 1-.33-.15.54.54 0 0 1-.14-.35.52.52 0 0 1 .14-.36.46.46 0 0 1 .33-.15.48.48 0 0 1 .35.14.49.49 0 0 1 .14.39zM279.74 108.26a1.84 1.84 0 0 1-.62.7 1.53 1.53 0 0 1-.89.27 1.9 1.9 0 0 1-.78-.16 1.67 1.67 0 0 1-.55-.43 1.92 1.92 0 0 1-.32-.62 2.73 2.73 0 0 1-.1-.76 2.13 2.13 0 0 1 .44-1.33 1.6 1.6 0 0 1 .53-.43 1.47 1.47 0 0 1 .7-.16 1.6 1.6 0 0 1 .69.13 1.19 1.19 0 0 1 .47.35 1.26 1.26 0 0 1 .25.49 2 2 0 0 1 .09.61v.25h-2.43a2.73 2.73 0 0 0 .07.66 1.42 1.42 0 0 0 .21.52 1 1 0 0 0 .38.34 1.1 1.1 0 0 0 .56.13 1 1 0 0 0 .57-.16 1.52 1.52 0 0 0 .47-.56zm-.83-1.4a3.64 3.64 0 0 0 0-.45 1.76 1.76 0 0 0-.11-.4.81.81 0 0 0-.24-.28.66.66 0 0 0-.38-.11.79.79 0 0 0-.65.33 1.52 1.52 0 0 0-.28.91zM285.72 105.68a.75.75 0 0 0-.34.14.6.6 0 0 0-.26.34c-.13.37-.24.72-.35 1s-.24.7-.37 1.11c0 .13-.09.27-.14.42a3.45 3.45 0 0 0-.12.43h-.32l-1-2.72-1 2.72h-.31c-.18-.56-.37-1.11-.54-1.65l-.47-1.42a.53.53 0 0 0-.23-.28.75.75 0 0 0-.32-.12v-.24h1.63v.26a.82.82 0 0 0-.26 0q-.15 0-.15.12v.06a.23.23 0 0 0 0 .11l.27.87c.1.33.23.74.38 1.26l.94-2.65h.36l1 2.61c.1-.33.21-.65.32-1s.19-.6.27-.87c0-.07 0-.13.05-.18a.5.5 0 0 0 0-.16.14.14 0 0 0-.06-.12.54.54 0 0 0-.15-.09H284.26v-.23h1.4zM290.16 109c-.16.07-.32.12-.46.17a1.94 1.94 0 0 1-.53.07.78.78 0 0 1-.65-.24 1 1 0 0 1-.19-.66v-2.49h-.66v-.36h.68v-1.15h.65v1.15h1.05v.36H289v2.06a3.79 3.79 0 0 0 0 .38.66.66 0 0 0 .08.27.37.37 0 0 0 .18.17.73.73 0 0 0 .32.06h.53zM294.19 107.25a2.46 2.46 0 0 1-.12.76 1.79 1.79 0 0 1-.35.64 1.51 1.51 0 0 1-.6.44 1.81 1.81 0 0 1-.76.15 1.65 1.65 0 0 1-1.22-.52 1.82 1.82 0 0 1-.39-.61 2.09 2.09 0 0 1-.14-.81 2 2 0 0 1 .5-1.41 1.82 1.82 0 0 1 2.58 0 1.9 1.9 0 0 1 .5 1.36zm-.77 0a4.28 4.28 0 0 0-.05-.6 2.12 2.12 0 0 0-.17-.52 1.06 1.06 0 0 0-.31-.38.83.83 0 0 0-.48-.14.81.81 0 0 0-.49.15 1.12 1.12 0 0 0-.33.38 2.12 2.12 0 0 0-.17.52 3.82 3.82 0 0 0 0 .57 4.43 4.43 0 0 0 .05.66 1.72 1.72 0 0 0 .19.54 1 1 0 0 0 .32.38.79.79 0 0 0 .47.14.82.82 0 0 0 .74-.46 2.4 2.4 0 0 0 .23-1.23zM298.83 109.06l-1.28.08h-.06v-.34a1.65 1.65 0 0 1-.47.35 1.33 1.33 0 0 1-1.19 0 1.39 1.39 0 0 1-.51-.39 2 2 0 0 1-.35-.62 2.53 2.53 0 0 1-.13-.8 2.14 2.14 0 0 1 .14-.76 2 2 0 0 1 .38-.63 1.85 1.85 0 0 1 .55-.4 1.64 1.64 0 0 1 .68-.15 2.15 2.15 0 0 1 .5.07 1.68 1.68 0 0 1 .43.17v-1.29a.64.64 0 0 0-.06-.28.38.38 0 0 0-.14-.2.66.66 0 0 0-.28-.1 2.3 2.3 0 0 0-.39 0v-.23l1.51-.08.05.05v5a.51.51 0 0 0 .05.22.54.54 0 0 0 .15.15.53.53 0 0 0 .21.06h.24zm-1.34-.64v-2.16a2 2 0 0 0-.1-.21 1.57 1.57 0 0 0-.17-.21.87.87 0 0 0-.25-.15.9.9 0 0 0-.34-.06.81.81 0 0 0-.41.11 1 1 0 0 0-.33.34 1.63 1.63 0 0 0-.22.53 3.08 3.08 0 0 0-.08.71 2.49 2.49 0 0 0 .06.57 1.68 1.68 0 0 0 .2.48 1.19 1.19 0 0 0 .33.34 1 1 0 0 0 .48.12.87.87 0 0 0 .5-.13 1.52 1.52 0 0 0 .33-.28zM302.76 109.06l-.31.1a1 1 0 0 1-.3 0 .72.72 0 0 1-.46-.13.67.67 0 0 1-.23-.4 1.65 1.65 0 0 1-.52.41 1.46 1.46 0 0 1-.66.14.92.92 0 0 1-.68-.25.87.87 0 0 1-.27-.67 1.12 1.12 0 0 1 .06-.38.92.92 0 0 1 .18-.3.8.8 0 0 1 .24-.2 1.88 1.88 0 0 1 .29-.14l.68-.24a5.59 5.59 0 0 0 .69-.26v-.37-.19a.62.62 0 0 0-.09-.26.64.64 0 0 0-.59-.35.83.83 0 0 0-.32.06.64.64 0 0 0-.21.12.73.73 0 0 0 0 .22 1.39 1.39 0 0 1 0 .27.34.34 0 0 1-.11.24.49.49 0 0 1-.33.11.31.31 0 0 1-.27-.13.53.53 0 0 1-.09-.3.56.56 0 0 1 .12-.33 1.21 1.21 0 0 1 .31-.28 2 2 0 0 1 .41-.18 1.51 1.51 0 0 1 .46-.07 3 3 0 0 1 .55 0 .94.94 0 0 1 .42.19.89.89 0 0 1 .29.37 1.56 1.56 0 0 1 .1.61v1.9a.43.43 0 0 0 .05.24.41.41 0 0 0 .15.14.4.4 0 0 0 .18 0h.25zm-1.3-2l-.56.18a2.3 2.3 0 0 0-.44.23.92.92 0 0 0-.29.3.68.68 0 0 0-.11.41.59.59 0 0 0 .16.46.57.57 0 0 0 .41.14.91.91 0 0 0 .47-.12 1.67 1.67 0 0 0 .34-.31zM302.93 110.33a.44.44 0 0 1 .11-.3.3.3 0 0 1 .25-.12.46.46 0 0 1 .21 0 .79.79 0 0 1 .15.12l.12.15.1.16a1.5 1.5 0 0 0 .44-.53 4.76 4.76 0 0 0 .38-.74l-.64-1.58c-.2-.47-.4-1-.6-1.45a.62.62 0 0 0-.24-.27 1.16 1.16 0 0 0-.34-.12v-.24h1.68v.26a1 1 0 0 0-.27 0c-.1 0-.15.06-.15.1a.28.28 0 0 0 0 .08v.1c.09.25.24.61.43 1.07l.45 1.11.35-.82c.12-.29.25-.62.4-1 0 0 .05-.11.08-.2a.63.63 0 0 0 .05-.21c0-.07-.06-.13-.17-.18a1.16 1.16 0 0 0-.33-.11v-.23h1.37v.23a.73.73 0 0 0-.3.13.63.63 0 0 0-.27.31c-.29.69-.56 1.31-.79 1.88s-.4 1-.52 1.24a5.06 5.06 0 0 1-.42.82 2 2 0 0 1-.36.46.77.77 0 0 1-.31.21.77.77 0 0 1-.74-.08.41.41 0 0 1-.12-.25zM308.23 104.17a.94.94 0 0 1-.11.45 1.36 1.36 0 0 1-.25.36 2.16 2.16 0 0 1-.33.27l-.29.18-.12-.22a2.9 2.9 0 0 0 .29-.19.78.78 0 0 0 .21-.18 1.24 1.24 0 0 0 .17-.23 1.18 1.18 0 0 0 .07-.32h-.18a.49.49 0 0 1-.36-.12.42.42 0 0 1-.13-.33.48.48 0 0 1 .11-.29.42.42 0 0 1 .33-.14.49.49 0 0 1 .45.21 1 1 0 0 1 .14.55zM311.3 107.32a1 1 0 0 1 .23.31 1.1 1.1 0 0 1 .08.43 1.06 1.06 0 0 1-.38.84 1.6 1.6 0 0 1-1.58.21 1.71 1.71 0 0 1-.38-.21l-.08.24h-.28v-1.28h.25a1.22 1.22 0 0 0 .13.34 1.41 1.41 0 0 0 .23.35 1.6 1.6 0 0 0 .35.28 1 1 0 0 0 .46.11.82.82 0 0 0 .55-.16.58.58 0 0 0 .19-.47.6.6 0 0 0-.07-.31.57.57 0 0 0-.18-.2 1.39 1.39 0 0 0-.3-.16l-.4-.13a2.79 2.79 0 0 1-.39-.15 1.88 1.88 0 0 1-.37-.21 1.18 1.18 0 0 1-.26-.32.94.94 0 0 1-.11-.45 1 1 0 0 1 .34-.77 1.28 1.28 0 0 1 .89-.31 1.74 1.74 0 0 1 .45.06 1.24 1.24 0 0 1 .36.13l.09-.19h.27l.05 1.18h-.26a1.23 1.23 0 0 0-.33-.65.89.89 0 0 0-.63-.25.69.69 0 0 0-.48.16.47.47 0 0 0-.18.37.58.58 0 0 0 .06.28.52.52 0 0 0 .17.19 1.46 1.46 0 0 0 .28.14l.42.15a3.27 3.27 0 0 1 .47.18 2 2 0 0 1 .34.27zM317.66 109.06l-.3.1a1 1 0 0 1-.3 0 .75.75 0 0 1-.47-.13.66.66 0 0 1-.22-.4 1.77 1.77 0 0 1-.52.41 1.51 1.51 0 0 1-.67.14 1 1 0 0 1-.68-.25.9.9 0 0 1-.26-.67 1.12 1.12 0 0 1 .06-.38 1.11 1.11 0 0 1 .17-.3 1 1 0 0 1 .25-.2 1.53 1.53 0 0 1 .29-.14l.68-.24a5.59 5.59 0 0 0 .69-.26v-.37-.19a1.14 1.14 0 0 0-.09-.26.61.61 0 0 0-.21-.24.62.62 0 0 0-.39-.11.87.87 0 0 0-.32.06.7.7 0 0 0-.2.12 1.12 1.12 0 0 0 0 .22.93.93 0 0 1 0 .27.31.31 0 0 1-.12.24.46.46 0 0 1-.32.11.33.33 0 0 1-.28-.13.53.53 0 0 1-.09-.3.58.58 0 0 1 .13-.33 1.21 1.21 0 0 1 .31-.28 1.74 1.74 0 0 1 .41-.18 1.51 1.51 0 0 1 .46-.07 3 3 0 0 1 .55 0 1 1 0 0 1 .42.19.89.89 0 0 1 .29.37 1.77 1.77 0 0 1 .1.61v1.9a.54.54 0 0 0 .05.24.56.56 0 0 0 .16.14.37.37 0 0 0 .18 0h.24zm-1.3-2l-.55.18a2 2 0 0 0-.44.23.86.86 0 0 0-.3.3.76.76 0 0 0-.1.41.59.59 0 0 0 .16.46.55.55 0 0 0 .41.14.88.88 0 0 0 .46-.12 1.27 1.27 0 0 0 .34-.31zM320.54 107.32a1.18 1.18 0 0 1 .24.31 1.1 1.1 0 0 1 .08.43 1.06 1.06 0 0 1-.38.84 1.48 1.48 0 0 1-1 .33 1.41 1.41 0 0 1-.59-.12 2.14 2.14 0 0 1-.39-.21l-.07.24h-.28v-1.28h.26a1.22 1.22 0 0 0 .13.34 1.41 1.41 0 0 0 .23.35 1.39 1.39 0 0 0 .35.28.94.94 0 0 0 .45.11.8.8 0 0 0 .55-.16.65.65 0 0 0 .14-.74.57.57 0 0 0-.18-.2 1.79 1.79 0 0 0-.31-.16l-.39-.13a2.79 2.79 0 0 1-.39-.15 1.63 1.63 0 0 1-.37-.21 1 1 0 0 1-.27-.32.93.93 0 0 1-.1-.45 1 1 0 0 1 .33-.77 1.33 1.33 0 0 1 .9-.31 1.72 1.72 0 0 1 .44.06 1.44 1.44 0 0 1 .37.13l.08-.19h.27l.06 1.18h-.26a1.17 1.17 0 0 0-.34-.65.89.89 0 0 0-.63-.25.73.73 0 0 0-.48.16.5.5 0 0 0-.17.37.58.58 0 0 0 .06.28.39.39 0 0 0 .17.19 1.22 1.22 0 0 0 .28.14c.11 0 .25.09.42.15a3.14 3.14 0 0 1 .46.18 1.49 1.49 0 0 1 .33.23zM323.77 109c-.16.07-.31.12-.46.17a1.94 1.94 0 0 1-.53.07.78.78 0 0 1-.65-.24 1 1 0 0 1-.18-.66v-2.49h-.67v-.36h.72v-1.15h.68v1.15h1.05v.36h-1v2.44a.66.66 0 0 0 .08.27.37.37 0 0 0 .18.17.73.73 0 0 0 .32.06h.53zM327 105.92a.64.64 0 0 1-.09.34.31.31 0 0 1-.28.15.44.44 0 0 1-.32-.11.33.33 0 0 1-.11-.24.66.66 0 0 1 0-.15.68.68 0 0 0 0-.14.83.83 0 0 0-.41.15 1.15 1.15 0 0 0-.39.4v2.14a.38.38 0 0 0 .05.22.31.31 0 0 0 .15.12l.24.06h.26v.25h-1.93v-.25h.33a.26.26 0 0 0 .15-.12.38.38 0 0 0 .05-.22v-2.27a.48.48 0 0 0-.05-.23.65.65 0 0 0-.15-.18.43.43 0 0 0-.17-.06.66.66 0 0 0-.21 0v-.25l1.22-.08h.06v.55a1.7 1.7 0 0 1 .51-.46 1.15 1.15 0 0 1 .52-.16.53.53 0 0 1 .38.16.55.55 0 0 1 .19.38zM331 107.25a2.46 2.46 0 0 1-.12.76 2 2 0 0 1-.35.64 1.66 1.66 0 0 1-.6.44 1.87 1.87 0 0 1-.76.15 1.7 1.7 0 0 1-.67-.13 1.67 1.67 0 0 1-.56-.39 2 2 0 0 1-.39-.61 2.29 2.29 0 0 1-.14-.81 2 2 0 0 1 .5-1.41 1.84 1.84 0 0 1 2.59 0 1.94 1.94 0 0 1 .5 1.36zm-.77 0a3.21 3.21 0 0 0-.06-.6 1.76 1.76 0 0 0-.17-.52 1.06 1.06 0 0 0-.31-.38.82.82 0 0 0-.47-.14.79.79 0 0 0-.49.15.94.94 0 0 0-.33.38 1.77 1.77 0 0 0-.17.52 3.88 3.88 0 0 0-.05.57 3.37 3.37 0 0 0 .06.66 2 2 0 0 0 .18.54 1.1 1.1 0 0 0 .32.38.83.83 0 0 0 .48.14.81.81 0 0 0 .73-.46 2.3 2.3 0 0 0 .3-1.23zM333.36 109.13h-1.79v-.25H331.91a.33.33 0 0 0 .16-.12.48.48 0 0 0 .05-.22v-4.27a.54.54 0 0 0-.06-.25.58.58 0 0 0-.15-.19.9.9 0 0 0-.25-.08h-.28v-.24l1.38-.08.05.05v5.06a.46.46 0 0 0 .05.21.27.27 0 0 0 .16.13l.16.06h.18zM337.49 107.25a2.46 2.46 0 0 1-.12.76 2 2 0 0 1-.35.64 1.58 1.58 0 0 1-.6.44 1.87 1.87 0 0 1-.76.15 1.74 1.74 0 0 1-.67-.13 1.67 1.67 0 0 1-.56-.39 1.8 1.8 0 0 1-.38-.61 2.09 2.09 0 0 1-.15-.81 2 2 0 0 1 .5-1.41 1.71 1.71 0 0 1 1.32-.55 1.69 1.69 0 0 1 1.27.52 1.94 1.94 0 0 1 .5 1.39zm-.77 0a3.21 3.21 0 0 0-.06-.6 1.77 1.77 0 0 0-.16-.52 1.08 1.08 0 0 0-.32-.38.87.87 0 0 0-1 0 .94.94 0 0 0-.33.38 1.77 1.77 0 0 0-.17.52 3.88 3.88 0 0 0-.05.57 3.37 3.37 0 0 0 .06.66 2 2 0 0 0 .18.54 1.22 1.22 0 0 0 .32.38.85.85 0 0 0 1.22-.32 2.4 2.4 0 0 0 .31-1.22zM341.25 108.75a1.08 1.08 0 0 1 .24.32 1 1 0 0 1 .08.44 1 1 0 0 1-.11.5 1.24 1.24 0 0 1-.35.41 2.07 2.07 0 0 1-.6.27 3.36 3.36 0 0 1-.85.1 2.44 2.44 0 0 1-1.25-.25.78.78 0 0 1-.41-.71.69.69 0 0 1 .3-.6 1.27 1.27 0 0 1 .76-.24v-.06l-.24-.08a.67.67 0 0 1-.2-.12.55.55 0 0 1-.16-.18.54.54 0 0 1-.06-.27.56.56 0 0 1 .14-.36 1.2 1.2 0 0 1 .43-.29 1.47 1.47 0 0 1-.56-.43 1 1 0 0 1-.2-.61 1.08 1.08 0 0 1 .39-.86 1.44 1.44 0 0 1 1-.34 1.84 1.84 0 0 1 .33 0l.34.09h1.28v.36h-.87a1.1 1.1 0 0 1 .21.36 1.27 1.27 0 0 1 .07.38 1 1 0 0 1-.4.82 1.36 1.36 0 0 1-.91.33h-.45a.58.58 0 0 0-.18.11.29.29 0 0 0-.09.22.25.25 0 0 0 .08.21.39.39 0 0 0 .19.1.9.9 0 0 0 .25 0h.29a4 4 0 0 1 .45 0h.41a1.11 1.11 0 0 1 .34.08 1.06 1.06 0 0 1 .31.3zm-.29.9a.59.59 0 0 0-.09-.34.58.58 0 0 0-.3-.19h-1.18a1 1 0 0 0-.57.27.68.68 0 0 0-.17.47.54.54 0 0 0 .06.25.56.56 0 0 0 .19.22 1 1 0 0 0 .35.16 2.12 2.12 0 0 0 .54.06 1.54 1.54 0 0 0 .86-.21.71.71 0 0 0 .35-.69zm-.71-3.09a1.18 1.18 0 0 0-.18-.69.55.55 0 0 0-.49-.26.56.56 0 0 0-.3.07.6.6 0 0 0-.21.21.83.83 0 0 0-.1.29 2.19 2.19 0 0 0 0 .36 1.19 1.19 0 0 0 .18.68.54.54 0 0 0 .46.26.57.57 0 0 0 .5-.26 1.22 1.22 0 0 0 .14-.66zM341.8 110.33a.49.49 0 0 1 .1-.3.34.34 0 0 1 .26-.12.4.4 0 0 1 .2 0 .61.61 0 0 1 .16.12l.12.15.1.16a1.5 1.5 0 0 0 .44-.53 3.9 3.9 0 0 0 .37-.74c-.23-.59-.44-1.12-.63-1.58s-.4-1-.6-1.45a.62.62 0 0 0-.24-.27 1.16 1.16 0 0 0-.34-.12v-.24h1.68v.26a.93.93 0 0 0-.27 0c-.1 0-.16.06-.16.1a.45.45 0 0 0 0 .08.42.42 0 0 0 0 .1c.09.25.24.61.43 1.07l.45 1.11.35-.82c.12-.29.25-.62.4-1l.08-.2a.59.59 0 0 0 0-.21c0-.07-.05-.13-.16-.18a1.28 1.28 0 0 0-.33-.11v-.23h1.37v.23a.73.73 0 0 0-.3.13.63.63 0 0 0-.27.31c-.29.69-.56 1.31-.79 1.88s-.4 1-.52 1.24a6 6 0 0 1-.42.82 2 2 0 0 1-.36.46.77.77 0 0 1-.31.21.72.72 0 0 1-.29.06.69.69 0 0 1-.45-.14.41.41 0 0 1-.07-.25zM271.79 114.85a.6.6 0 0 1-.09.33.32.32 0 0 1-.29.15.42.42 0 0 1-.32-.11.34.34 0 0 1-.09-.22.77.77 0 0 1 0-.15v-.13a.87.87 0 0 0-.41.14 1.31 1.31 0 0 0-.4.41v2.14a.41.41 0 0 0 .05.21.34.34 0 0 0 .16.13 1.11 1.11 0 0 0 .24 0h.26v.25H269v-.25h.18a.41.41 0 0 0 .16 0 .25.25 0 0 0 .15-.11.38.38 0 0 0 0-.22v-2.27a.59.59 0 0 0 0-.23.45.45 0 0 0-.15-.18l-.17-.07h-.21v-.25l1.22-.08v.52a1.71 1.71 0 0 1 .52-.46 1 1 0 0 1 .51-.16.49.49 0 0 1 .38.15.58.58 0 0 1 .2.46zM275.45 117.19a1.81 1.81 0 0 1-.61.7 1.6 1.6 0 0 1-.89.26 1.87 1.87 0 0 1-.78-.15 1.67 1.67 0 0 1-.55-.43 1.87 1.87 0 0 1-.32-.63 2.68 2.68 0 0 1-.1-.76 2.09 2.09 0 0 1 .11-.7 1.76 1.76 0 0 1 .33-.62 1.6 1.6 0 0 1 .53-.43 1.47 1.47 0 0 1 .7-.16 1.78 1.78 0 0 1 .69.12 1.29 1.29 0 0 1 .47.35 1.34 1.34 0 0 1 .25.49 2.06 2.06 0 0 1 .09.62v.25h-2.43a3.37 3.37 0 0 0 .06.66 1.73 1.73 0 0 0 .22.52 1.12 1.12 0 0 0 .38.34 1.22 1.22 0 0 0 .56.12 1.05 1.05 0 0 0 .57-.15 1.6 1.6 0 0 0 .46-.56zm-.82-1.41a3.49 3.49 0 0 0 0-.44 1.26 1.26 0 0 0-.12-.4.63.63 0 0 0-.23-.28.66.66 0 0 0-.38-.11.79.79 0 0 0-.65.33 1.42 1.42 0 0 0-.28.9zM279.45 118l-.31.1a1 1 0 0 1-.3 0 .72.72 0 0 1-.46-.14.64.64 0 0 1-.23-.39 2 2 0 0 1-.52.41 1.46 1.46 0 0 1-.66.14.93.93 0 0 1-.68-.26.85.85 0 0 1-.27-.66 1.12 1.12 0 0 1 .06-.38.92.92 0 0 1 .18-.3.68.68 0 0 1 .24-.2 1.88 1.88 0 0 1 .29-.14c.11 0 .34-.13.68-.24a4.06 4.06 0 0 0 .69-.27v-.37-.19a.67.67 0 0 0-.09-.26.79.79 0 0 0-.21-.24.61.61 0 0 0-.38-.1.83.83 0 0 0-.32.06.64.64 0 0 0-.21.12.79.79 0 0 0 0 .22 1.39 1.39 0 0 1 0 .27.34.34 0 0 1-.11.24.49.49 0 0 1-.33.11.3.3 0 0 1-.27-.14.5.5 0 0 1-.09-.29.52.52 0 0 1 .12-.33 1.05 1.05 0 0 1 .31-.28 2 2 0 0 1 .41-.18 1.53 1.53 0 0 1 .47-.07 2.9 2.9 0 0 1 .54 0 1.05 1.05 0 0 1 .42.18.92.92 0 0 1 .29.38 1.53 1.53 0 0 1 .1.61v1.9a.39.39 0 0 0 .05.23.36.36 0 0 0 .15.15.42.42 0 0 0 .18 0h.25zm-1.3-2l-.56.18a2.26 2.26 0 0 0-.44.22 1.17 1.17 0 0 0-.29.3.73.73 0 0 0-.11.42.55.55 0 0 0 .16.45.58.58 0 0 0 .41.15.83.83 0 0 0 .47-.13 1.63 1.63 0 0 0 .34-.3zM283.92 118l-1.28.08h-.06v-.35a1.57 1.57 0 0 1-.48.35 1.34 1.34 0 0 1-.58.14 1.39 1.39 0 0 1-.6-.14 1.51 1.51 0 0 1-.51-.39 2.08 2.08 0 0 1-.41-.69 2.32 2.32 0 0 1-.13-.8 2.14 2.14 0 0 1 .14-.76 2 2 0 0 1 .38-.63 1.59 1.59 0 0 1 .55-.4 1.63 1.63 0 0 1 .67-.15 1.75 1.75 0 0 1 .51.07 1.6 1.6 0 0 1 .42.16v-1.28a.68.68 0 0 0-.05-.29.48.48 0 0 0-.14-.2.91.91 0 0 0-.28-.1h-.39v-.24l1.51-.08v5.06a.56.56 0 0 0 .05.23.54.54 0 0 0 .15.15.53.53 0 0 0 .21.06h.24zm-1.35-.65v-2.15a1 1 0 0 0-.09-.21.87.87 0 0 0-.17-.21 1 1 0 0 0-.25-.15.74.74 0 0 0-.34-.07.73.73 0 0 0-.41.12 1 1 0 0 0-.33.33 1.69 1.69 0 0 0-.22.54 3.08 3.08 0 0 0-.08.71 2.49 2.49 0 0 0 .06.57 1.68 1.68 0 0 0 .2.48 1 1 0 0 0 .33.33.86.86 0 0 0 .48.13.81.81 0 0 0 .49-.13 1.35 1.35 0 0 0 .33-.3zM286.15 118.06h-1.77v-.25h.17a.38.38 0 0 0 .16 0 .31.31 0 0 0 .16-.11.48.48 0 0 0 .05-.22v-2.27a.5.5 0 0 0-.21-.39.81.81 0 0 0-.2-.08h-.25v-.25l1.3-.08h.05v3a.48.48 0 0 0 .05.22.27.27 0 0 0 .16.13H286.15zm-.47-5.19a.5.5 0 0 1-.14.37.41.41 0 0 1-.34.16.43.43 0 0 1-.33-.15.49.49 0 0 1-.14-.34.52.52 0 0 1 .14-.36.44.44 0 0 1 .33-.16.45.45 0 0 1 .35.15.46.46 0 0 1 .13.33zM290.75 118.06H289v-.25h.19a.43.43 0 0 0 .17 0 .25.25 0 0 0 .15-.11.38.38 0 0 0 .05-.22v-1.9a.9.9 0 0 0-.18-.6.58.58 0 0 0-.45-.22 1 1 0 0 0-.36.07 1.13 1.13 0 0 0-.29.15.9.9 0 0 0-.2.18l-.11.16v2.12a.37.37 0 0 0 .06.21.32.32 0 0 0 .15.13h.36v.25h-1.8v-.25h.18a.41.41 0 0 0 .16 0 .25.25 0 0 0 .15-.11.38.38 0 0 0 .05-.22v-2.27a.6.6 0 0 0-.05-.24.5.5 0 0 0-.15-.17l-.17-.07h-.21v-.25l1.22-.08h.05v.52l.23-.22a2 2 0 0 1 .25-.2 1.26 1.26 0 0 1 .33-.15 1.37 1.37 0 0 1 .42-.06.93.93 0 0 1 .79.33 1.39 1.39 0 0 1 .25.88v1.92a.46.46 0 0 0 .05.21.31.31 0 0 0 .15.12l.16.06h.18zM294.43 117.67a1.27 1.27 0 0 1 .24.33 1.08 1.08 0 0 1 .08.44 1 1 0 0 1-.46.9 2.08 2.08 0 0 1-.6.28 3.4 3.4 0 0 1-.85.09 2.53 2.53 0 0 1-1.25-.24.77.77 0 0 1-.41-.72.7.7 0 0 1 .29-.6 1.46 1.46 0 0 1 .76-.24l-.23-.08-.2-.12a.49.49 0 0 1-.16-.19.5.5 0 0 1-.06-.26.56.56 0 0 1 .14-.36 1.07 1.07 0 0 1 .42-.29v-.06a1.41 1.41 0 0 1-.55-.43 1 1 0 0 1-.2-.61 1.09 1.09 0 0 1 .39-.86 1.49 1.49 0 0 1 1-.33 1.84 1.84 0 0 1 .33 0l.34.09h1.28v.35h-.87a1.13 1.13 0 0 1 .21.35 1.31 1.31 0 0 1 .06.38 1.06 1.06 0 0 1-.39.83 1.36 1.36 0 0 1-.91.33h-.45a.58.58 0 0 0-.18.11.26.26 0 0 0-.09.21.27.27 0 0 0 .07.21.39.39 0 0 0 .19.1 1 1 0 0 0 .25 0h1.15a.89.89 0 0 1 .35.08 1.27 1.27 0 0 1 .31.31zm-.29.91a.56.56 0 0 0-.1-.35.46.46 0 0 0-.29-.18h-1.18a1 1 0 0 0-.57.26.7.7 0 0 0-.17.48.54.54 0 0 0 .06.25.55.55 0 0 0 .19.22 1.14 1.14 0 0 0 .35.16 2.06 2.06 0 0 0 .54.06 1.54 1.54 0 0 0 .86-.21.72.72 0 0 0 .31-.69zm-.71-3.09a1.21 1.21 0 0 0-.18-.7.57.57 0 0 0-.5-.26.73.73 0 0 0-.3.07.58.58 0 0 0-.2.21.81.81 0 0 0-.1.3 1.37 1.37 0 0 0 0 .36 1.15 1.15 0 0 0 .18.67.57.57 0 0 0 1 0 1.11 1.11 0 0 0 .1-.65zM299.92 112.72a.43.43 0 0 1-.09.28.32.32 0 0 1-.27.12.39.39 0 0 1-.2-.05.52.52 0 0 1-.17-.13 1.56 1.56 0 0 1-.13-.19l-.11-.16c-.17 0-.3.12-.39.34a3.2 3.2 0 0 0-.13 1.08v.38h.94v.35h-.94v2.65a.41.41 0 0 0 .05.21.27.27 0 0 0 .16.13h.49v.25h-1.93v-.25h.17a.38.38 0 0 0 .16 0 .31.31 0 0 0 .16-.11.48.48 0 0 0 .05-.22v-2.69H297v-.35h.73v-.24a2.05 2.05 0 0 1 .43-1.36 1.37 1.37 0 0 1 1.08-.52.85.85 0 0 1 .5.13.41.41 0 0 1 .18.35zM303.34 116.18a2.51 2.51 0 0 1-.12.76 2.07 2.07 0 0 1-.35.64 1.69 1.69 0 0 1-.6.44 1.87 1.87 0 0 1-.76.15 1.71 1.71 0 0 1-.67-.14 1.51 1.51 0 0 1-.56-.38 2 2 0 0 1-.39-.61 2.29 2.29 0 0 1-.14-.81 2 2 0 0 1 .5-1.41 1.84 1.84 0 0 1 2.59 0 1.94 1.94 0 0 1 .5 1.36zm-.77 0a3.19 3.19 0 0 0-.06-.59 1.83 1.83 0 0 0-.17-.53 1 1 0 0 0-.31-.37.82.82 0 0 0-.47-.14.86.86 0 0 0-.49.14 1 1 0 0 0-.33.39 1.67 1.67 0 0 0-.17.52 3.64 3.64 0 0 0-.05.56 3.55 3.55 0 0 0 .06.67 2.14 2.14 0 0 0 .18.54 1.1 1.1 0 0 0 .32.38.82.82 0 0 0 .48.13.84.84 0 0 0 .74-.45 2.44 2.44 0 0 0 .27-1.25zM306.77 114.85a.54.54 0 0 1-.1.33.3.3 0 0 1-.28.15.4.4 0 0 1-.32-.11.34.34 0 0 1-.07-.22.76.76 0 0 1 0-.15v-.13a.84.84 0 0 0-.41.14 1.21 1.21 0 0 0-.4.41v2.14a.41.41 0 0 0 .05.21.3.3 0 0 0 .16.13 1.11 1.11 0 0 0 .24 0h.25v.25H304v-.25h.17a.35.35 0 0 0 .16 0 .31.31 0 0 0 .16-.11.48.48 0 0 0 .05-.22v-2.27a.46.46 0 0 0-.06-.23.34.34 0 0 0-.15-.18.59.59 0 0 0-.16-.07h-.21v-.25l1.22-.08h.05v.52a1.57 1.57 0 0 1 .51-.46 1 1 0 0 1 .52-.16.5.5 0 0 1 .38.15.58.58 0 0 1 .13.46zM314.12 118.06h-2.19v-.27a2 2 0 0 0 .48-.08c.13 0 .19-.08.19-.13a.31.31 0 0 0 0-.09.19.19 0 0 0 0-.08l-.44-1.19h-1.85c-.07.18-.13.33-.17.46l-.14.32a1.85 1.85 0 0 0-.06.26.5.5 0 0 0 0 .16c0 .1.08.18.23.23a1.72 1.72 0 0 0 .53.1v.27h-2v-.27h.24a.91.91 0 0 0 .24-.1 1 1 0 0 0 .23-.21 1 1 0 0 0 .16-.3c.27-.67.56-1.42.88-2.25s.6-1.56.86-2.21h.29l1.76 4.57a.89.89 0 0 0 .13.24.69.69 0 0 0 .2.17.56.56 0 0 0 .22.09 1.24 1.24 0 0 0 .23 0zm-2.12-2.17l-.8-2.06-.79 2.06zM317.11 114.85a.6.6 0 0 1-.09.33.31.31 0 0 1-.28.15.4.4 0 0 1-.32-.11.3.3 0 0 1-.11-.24.76.76 0 0 1 0-.15v-.13a.84.84 0 0 0-.41.14 1.21 1.21 0 0 0-.4.41v2.14a.33.33 0 0 0 0 .21.27.27 0 0 0 .16.13 1.11 1.11 0 0 0 .24 0h.25v.25h-1.93v-.25h.17a.38.38 0 0 0 .16 0 .31.31 0 0 0 .16-.11.48.48 0 0 0 .05-.22v-2.27a.46.46 0 0 0-.06-.23.38.38 0 0 0-.15-.18l-.17-.07h-.2v-.25l1.22-.08h.05v.52a1.57 1.57 0 0 1 .51-.46 1 1 0 0 1 .52-.16.52.52 0 0 1 .38.15.58.58 0 0 1 .25.48zM319.3 118.06h-1.77v-.25h.17a.38.38 0 0 0 .16 0 .31.31 0 0 0 .16-.11.48.48 0 0 0 .05-.22v-2.27a.5.5 0 0 0-.21-.39l-.2-.08h-.25v-.25l1.3-.08h.05v3a.38.38 0 0 0 .05.22.27.27 0 0 0 .16.13H319.3zm-.47-5.19a.5.5 0 0 1-.14.37.41.41 0 0 1-.34.16.43.43 0 0 1-.33-.15.49.49 0 0 1-.14-.34.52.52 0 0 1 .14-.36.44.44 0 0 1 .33-.16.45.45 0 0 1 .35.15.46.46 0 0 1 .13.33zM323.1 117.19a1.83 1.83 0 0 1-.62.7 1.55 1.55 0 0 1-.88.26 1.87 1.87 0 0 1-.78-.15 1.57 1.57 0 0 1-.55-.43 1.87 1.87 0 0 1-.32-.63 2.68 2.68 0 0 1-.11-.76 2.1 2.1 0 0 1 .12-.7 1.76 1.76 0 0 1 .33-.62 1.6 1.6 0 0 1 .53-.43 1.47 1.47 0 0 1 .7-.16 1.78 1.78 0 0 1 .69.12 1.25 1.25 0 0 1 .46.35 1.36 1.36 0 0 1 .26.49 2.07 2.07 0 0 1 .08.62v.25h-2.43a3.34 3.34 0 0 0 .07.66 1.73 1.73 0 0 0 .22.52 1 1 0 0 0 .38.34 1.22 1.22 0 0 0 .56.12 1.05 1.05 0 0 0 .57-.15 1.6 1.6 0 0 0 .46-.56zm-.82-1.41a3.49 3.49 0 0 0 0-.44 1.59 1.59 0 0 0-.12-.4.71.71 0 0 0-.23-.28.67.67 0 0 0-.39-.11.81.81 0 0 0-.65.33 1.55 1.55 0 0 0-.28.9zM326 116.25a1 1 0 0 1 .24.31 1.1 1.1 0 0 1 .08.43 1.07 1.07 0 0 1-.38.84 1.53 1.53 0 0 1-1 .32 1.59 1.59 0 0 1-.59-.11 1.62 1.62 0 0 1-.39-.22l-.07.25h-.28v-1.29h.26a1.62 1.62 0 0 0 .12.35 2.16 2.16 0 0 0 .24.35 1.39 1.39 0 0 0 .35.28.94.94 0 0 0 .45.11.8.8 0 0 0 .55-.17.56.56 0 0 0 .2-.46.54.54 0 0 0-.06-.27.58.58 0 0 0-.18-.2 1.79 1.79 0 0 0-.31-.16l-.39-.14a2.66 2.66 0 0 1-.39-.14 1.44 1.44 0 0 1-.37-.21 1.09 1.09 0 0 1-.27-.33.87.87 0 0 1-.1-.44 1 1 0 0 1 .33-.77 1.28 1.28 0 0 1 .9-.31 2.28 2.28 0 0 1 .44 0 1.43 1.43 0 0 1 .37.14l.08-.2h.27l.06 1.19h-.26a1.14 1.14 0 0 0-.34-.65.85.85 0 0 0-.63-.25.73.73 0 0 0-.48.15.52.52 0 0 0-.17.38.61.61 0 0 0 .06.28.44.44 0 0 0 .17.19 1.82 1.82 0 0 0 .28.14l.42.15a3.14 3.14 0 0 1 .46.18 1.49 1.49 0 0 1 .33.28z" fill="#fff"/><path fill="#333" d="M365.76 97.2h32v28.96h-32z"/><path d="M398.94 127.34h-34.35V96h34.35zm-32-2.35h29.65V98.37h-29.65z" fill="#a5802a"/><path fill="#a5802a" d="M372.4 110.5h10.14v2.35H372.4z"/><path d="M390.47 111.68a39.45 39.45 0 0 0-11.22 6.24l2.25-6.24-2.25-6.24a39.45 39.45 0 0 0 11.22 6.24z" fill="#a5802a"/></g></svg>