<svg xmlns="http://www.w3.org/2000/svg" viewBox="0 0 507.19 381.43"><g data-name="Comp 1"><path fill="#262626" stroke="#a5802a" stroke-miterlimit="10" stroke-width="2" d="M76.2 37.49l3.01 14.83 14.83 3.01-14.83 3.01-3.01 14.83-3.01-14.83-14.83-3.01 14.83-3.01 3.01-14.83zM39.98 208.84l1.71 8.4 8.4 1.7-8.4 1.7-1.71 8.4-1.7-8.4-8.4-1.7 8.4-1.7 1.7-8.4z"/><path d="M116.13 212.75c5.09 1.21 10.2 11.17 2.74 17.51a7.07 7.07 0 0 0-3.09-9.52c2 4.86 1.22 18.59-10.82 20.92 3.7-3.69 3.44-8.43.12-11.75l-2-2.15a14.59 14.59 0 0 0 0 20.65C91.46 244 85.21 230.59 89.64 219a5.75 5.75 0 0 0-4.64 6.66c-2.74-4.06-.64-10.17 3.42-12.91M51.08 110.06l25 56.81c4.61 15.84 9.94 25.51 26 25.51 16.05 0 21.82-9.67 26.43-25.51l24.6-56.81" fill="#262626" stroke="#a5802a" stroke-linecap="round" stroke-linejoin="round" stroke-width="2"/><path d="M47.76 123.59a9.78 9.78 0 0 1 0 13.83 12.23 12.23 0 0 1-17.3 0 15.31 15.31 0 0 1 0-21.62 19.11 19.11 0 0 1 27 0 23.88 23.88 0 0 1 0 33.78 29.84 29.84 0 0 1-42.21 0 37.3 37.3 0 0 1 0-52.77 46.63 46.63 0 0 1 66 0c11.22-11.23 29.64-11 41 .4 18.22-18.22 48.25-18.62 66.47-.4a37.32 37.32 0 0 1 0 52.77 29.85 29.85 0 0 1-42.22 0 23.88 23.88 0 0 1 0-33.78 19.11 19.11 0 0 1 27 0 15.29 15.29 0 0 1 0 21.62 12.23 12.23 0 0 1-17.3 0 9.78 9.78 0 0 1 0-13.83" fill="#262626" stroke="#a5802a" stroke-linecap="round" stroke-linejoin="round" stroke-width="2"/><ellipse cx="102.25" cy="209.58" rx="14.75" ry="9.36" fill="#262626" stroke="#a5802a" stroke-linecap="round" stroke-linejoin="round" stroke-width="2"/><path d="M102.25 202.75c-.15.56-.31 1.08-.48 1.58-2.79 8.18-12.06 10.33-17 4.31a56.3 56.3 0 0 1-6-9.37c-11.08-21.63 17.36-55.44 9.32-70.09" fill="#262626" stroke="#a5802a" stroke-linecap="round" stroke-linejoin="round" stroke-width="2"/><path d="M101.79 202.75c.14.56.3 1.08.47 1.58 2.8 8.18 12.07 10.33 17 4.31a56.3 56.3 0 0 0 6-9.37c11.08-21.63-17.35-55.44-9.32-70.09" fill="#262626" stroke="#a5802a" stroke-linecap="round" stroke-linejoin="round" stroke-width="2"/><path d="M104.17 202l6.29-5.69a2.86 2.86 0 0 0-1.91-5H96a2.86 2.86 0 0 0-1.92 5l6.3 5.69a2.88 2.88 0 0 0 3.79 0zM75.47 113.4c-2.16 6.2-8.31 9.68-13.76 7.78M128.31 113.4c2.16 6.2 8.32 9.68 13.76 7.78M88.93 131.8H70.84l5.53 9.05h12.56M115.2 131.8h18.09l-5.53 9.05H115.2" fill="#262626" stroke="#a5802a" stroke-linecap="round" stroke-linejoin="round" stroke-width="2"/><path fill="#262626" stroke="#a5802a" stroke-miterlimit="10" stroke-width="2" d="M252.07 166.22h244.12v177.71H252.07z"/><path fill="#262626" stroke="#a5802a" stroke-miterlimit="10" stroke-width="2" d="M252.07 166.22h244.12v14.17H252.07z"/><path fill="#494949" d="M283.8 198.59h114.67v128.94H283.8zM407.45 198.59h57.02v60.81h-57.02zM407.45 267.52h57.02v60.81h-57.02z"/><path fill="#333" stroke="#a5802a" stroke-miterlimit="10" stroke-width="2" d="M270.99 223.84h206.28v62.47H270.99z"/><text transform="translate(311.5 242.02)" font-size="11.66" fill="#fff" font-family="Georgia, Georgia" letter-spacing=".01em">The Zodiac would like to <tspan x="-9.82" y="13.6">send you push notifications!</tspan></text><path fill="#333" stroke="#a5802a" stroke-miterlimit="10" stroke-width="2" d="M270.99 267.78h103.14v18.54H270.99zM374.13 267.78h103.14v18.54H374.13z"/><text transform="translate(310.14 280.21)" font-size="9.71" fill="#fff" font-family="Georgia, Georgia" letter-spacing=".01em">Allow</text><text transform="translate(409.2 280.21)" font-size="9.71" fill="#fff" font-family="Georgia, Georgia" letter-spacing=".01em">Decline</text><path fill="none" stroke="#a5802a" stroke-linecap="round" stroke-linejoin="round" stroke-width="2" d="M270.99 250.66"/><path fill="none" stroke="#a5802a" stroke-linecap="round" stroke-linejoin="round" stroke-width="2" stroke-dasharray="0 5.88" d="M265.11 250.66h-55.87"/><path fill="none" stroke="#a5802a" stroke-linecap="round" stroke-linejoin="round" stroke-width="2" d="M206.3 250.66"/><path fill="none" stroke="#a5802a" stroke-linecap="round" stroke-linejoin="round" stroke-width="2" stroke-dasharray="0 5.94" d="M206.3 244.72V188.3"/><path fill="none" stroke="#a5802a" stroke-linecap="round" stroke-linejoin="round" stroke-width="2" d="M206.3 185.33"/><path fill="none" stroke="#a5802a" stroke-linecap="round" stroke-linejoin="round" stroke-width="2" stroke-dasharray="0 6.04" d="M200.26 185.33h-69.48"/><path fill="none" stroke="#a5802a" stroke-linecap="round" stroke-linejoin="round" stroke-width="2" d="M127.76 185.33"/><path fill="#262626" stroke="#a5802a" stroke-miterlimit="10" stroke-width="2" d="M160.18 173.31l2.03 9.99 9.99 2.03-9.99 2.03-2.03 9.99-2.03-9.99-9.99-2.03 9.99-2.03 2.03-9.99z"/></g></svg>