<svg xmlns="http://www.w3.org/2000/svg" viewBox="0 0 507.19 381.43"><g data-name="Comp 1"><path fill="#262626" stroke="#a5802a" stroke-linecap="round" stroke-linejoin="round" stroke-width="2" d="M4.86 169.63h212.85v45.52H4.86z"/><text transform="translate(14.87 188.38)" font-size="12.03" fill="#fff" font-family="Georgia, Georgia" letter-spacing=".01em">View today’s astrology <tspan x="0" y="14.03">reading for Aries</tspan></text><path fill="#262626" stroke="#a5802a" stroke-miterlimit="10" stroke-width="2" d="M167.41 169.63h50.3v45.52h-50.3z"/><path fill="none" stroke="#a5802a" stroke-miterlimit="10" stroke-width="2" d="M177.84 192.39h15.94"/><path d="M206.24 192.39c-5.86 2.18-13.13 5.89-17.64 9.82l3.55-9.82-3.55-9.81c4.51 3.93 11.78 7.64 17.64 9.81z" fill="#a5802a"/><path fill="#a5802a" stroke="#a5802a" stroke-linecap="round" stroke-linejoin="round" stroke-width="2" d="M406.01 281.99v-57.7h-17.74v57.7h-38.31v9.03h94.35v-9.03h-38.3z"/><path fill="#262626" stroke="#a5802a" stroke-miterlimit="10" stroke-width="6" d="M291.97 126.93H502.3v126.43H291.97z"/><path fill="#333" stroke="#a5802a" stroke-miterlimit="10" stroke-width="2" d="M303.42 138.26h187.44v101.12H303.42z"/><path fill="#333" stroke="#a5802a" stroke-miterlimit="10" stroke-width="2" d="M303.42 138.26h187.44v10.88H303.42z"/><path fill="#494949" d="M327.78 163.11h88.04v75.8h-88.04zM422.72 163.11h43.78v46.69h-43.78zM422.72 215.11h43.78v23.8h-43.78z"/><path fill="#262626" d="M299.35 240.98l-12.84-4.61V142.1l12.84-3.84v102.72z"/><path fill="none" stroke="#a5802a" stroke-linecap="round" stroke-linejoin="round" stroke-width="2" stroke-dasharray="0 6" d="M217.71 169.63l85.71-31.37"/><path fill="#333" stroke="#a5802a" stroke-linecap="round" stroke-linejoin="round" stroke-width="2" stroke-dasharray="0 6" d="M303.42 238.9l-85.71-23.75"/><path fill="none" stroke="#a5802a" stroke-miterlimit="10" stroke-width="2" d="M303.42 138.26h187.44v100.65H303.42z"/></g></svg>