<svg xmlns="http://www.w3.org/2000/svg" viewBox="0 0 507.19 381.43"><g data-name="Comp 1"><path fill="#262626" stroke="#a5802a" stroke-miterlimit="10" stroke-width="2" d="M74.78 64.06l3.01 14.83 14.83 3.01-14.83 3.01-3.01 14.83-3.01-14.83-14.83-3.01 14.83-3.01 3.01-14.83zM38.57 235.41l1.7 8.4 8.4 1.7-8.4 1.71-1.7 8.39-1.71-8.39-8.4-1.71 8.4-1.7 1.71-8.4z"/><path d="M117.71 239.32c5.1 1.21 10.2 11.17 2.74 17.51a7.07 7.07 0 0 0-3.09-9.52c2.06 4.87 1.22 18.59-10.81 20.92 3.69-3.69 3.44-8.43.11-11.75l-2-2.15a14.6 14.6 0 0 0 0 20.66c-11.66-4.43-17.87-17.83-13.44-29.42a5.76 5.76 0 0 0-4.69 6.66c-2.73-4-.64-10.17 3.42-12.91M52.66 136.63l25 56.81c4.62 15.84 9.94 25.51 26 25.51 16 0 21.81-9.67 26.43-25.51l24.59-56.81" fill="#262626" stroke="#a5802a" stroke-linecap="round" stroke-linejoin="round" stroke-width="2"/><path d="M49.34 150.16a9.78 9.78 0 0 1 0 13.83 12.22 12.22 0 0 1-17.29 0 15.28 15.28 0 0 1 0-21.61 19.09 19.09 0 0 1 27 0 23.89 23.89 0 0 1 0 33.77 29.85 29.85 0 0 1-42.22 0 37.32 37.32 0 0 1 0-52.77 46.64 46.64 0 0 1 66 0c11.22-11.23 29.63-10.95 41 .4 18.22-18.22 48.25-18.62 66.47-.4a37.32 37.32 0 0 1 0 52.77 29.85 29.85 0 0 1-42.22 0 23.87 23.87 0 0 1 0-33.77 19.09 19.09 0 0 1 27 0 15.28 15.28 0 0 1 0 21.61 12.22 12.22 0 0 1-17.29 0 9.78 9.78 0 0 1 0-13.83" fill="#262626" stroke="#a5802a" stroke-linecap="round" stroke-linejoin="round" stroke-width="2"/><ellipse cx="103.83" cy="236.15" rx="14.75" ry="9.36" fill="#262626" stroke="#a5802a" stroke-linecap="round" stroke-linejoin="round" stroke-width="2"/><path d="M103.83 229.32c-.14.56-.3 1.08-.47 1.58-2.8 8.18-12.07 10.33-17 4.31a56.3 56.3 0 0 1-6-9.37c-11.06-21.63 17.38-55.44 9.34-70.08" fill="#262626" stroke="#a5802a" stroke-linecap="round" stroke-linejoin="round" stroke-width="2"/><path d="M103.37 229.32c.15.56.3 1.08.47 1.58 2.8 8.18 12.07 10.33 17 4.31a56.3 56.3 0 0 0 6-9.37c11.08-21.63-17.36-55.44-9.32-70.08" fill="#262626" stroke="#a5802a" stroke-linecap="round" stroke-linejoin="round" stroke-width="2"/><path d="M105.75 228.57l6.3-5.69a2.87 2.87 0 0 0-1.92-5h-12.6a2.87 2.87 0 0 0-1.92 5l6.3 5.69a2.88 2.88 0 0 0 3.84 0zM77.05 140c-2.16 6.2-8.31 9.68-13.75 7.78M129.9 140c2.16 6.2 8.31 9.68 13.75 7.78M90.52 158.37H72.43l5.52 9.05h12.57M116.78 158.37h18.09l-5.52 9.05h-12.57" fill="#262626" stroke="#a5802a" stroke-linecap="round" stroke-linejoin="round" stroke-width="2"/><path fill="#262626" stroke="#a5802a" stroke-miterlimit="10" stroke-width="2" d="M158.76 199.88l2.03 9.99 9.99 2.03-9.99 2.03-2.03 9.99-2.03-9.99-9.99-2.03 9.99-2.03 2.03-9.99z"/><path fill="none" stroke="#a5802a" stroke-linecap="round" stroke-linejoin="round" stroke-width="2" d="M216.69 330.1"/><path fill="none" stroke="#a5802a" stroke-linecap="round" stroke-linejoin="round" stroke-width="2" stroke-dasharray="0 5.95" d="M210.75 330.1H100.76"/><path fill="none" stroke="#a5802a" stroke-linecap="round" stroke-linejoin="round" stroke-width="2" d="M97.79 330.1"/><path fill="none" stroke="#a5802a" stroke-linecap="round" stroke-linejoin="round" stroke-width="2" stroke-dasharray="0 5.75" d="M97.79 324.35v-37.4"/><path fill="none" stroke="#a5802a" stroke-linecap="round" stroke-linejoin="round" stroke-width="2" d="M400.69 188.18"/><path fill="none" stroke="#a5802a" stroke-linecap="round" stroke-linejoin="round" stroke-width="2" stroke-dasharray="0 5.95" d="M400.69 194.13v109.99"/><path fill="none" stroke="#a5802a" stroke-linecap="round" stroke-linejoin="round" stroke-width="2" d="M400.69 307.09"/><path fill="none" stroke="#a5802a" stroke-linecap="round" stroke-linejoin="round" stroke-width="2" stroke-dasharray="0 5.95" d="M394.74 307.09h-32.71"/><path fill="none" stroke="#a5802a" stroke-linecap="round" stroke-linejoin="round" stroke-width="2" d="M359.06 307.09"/><path fill="#262626" stroke="#a5802a" stroke-linecap="round" stroke-linejoin="round" stroke-width="2" d="M293.41 167.42h206.28v44.12H293.41z"/><text transform="translate(303.11 185.59)" font-size="11.66" fill="#fff" font-family="Georgia, Georgia" letter-spacing=".01em">View today’s astrology <tspan x="0" y="13.6">reading for Aries</tspan></text><path fill="#262626" stroke="#a5802a" stroke-linecap="round" stroke-linejoin="round" stroke-width="2" d="M450.94 167.42h48.75v44.12h-48.75z"/><path fill="none" stroke="#a5802a" stroke-miterlimit="10" stroke-width="2" d="M461.05 189.48h15.45"/><path d="M488.57 189.48c-5.68 2.1-12.72 5.7-17.09 9.51l3.44-9.51-3.44-9.48c4.37 3.77 11.41 7.37 17.09 9.48z" fill="#a5802a"/><path d="M182.3 297.25h4.13a11.8 11.8 0 0 1 20.69-7.77v-.06a14.34 14.34 0 1 1 26.33 7.83h10.94a5.91 5.91 0 0 1 0 11.81H182.3a5.91 5.91 0 1 1 0-11.81z" fill="#262626" stroke="#a5802a" stroke-linecap="round" stroke-linejoin="round" stroke-width="2"/><path d="M344.83 335.47h-11.35A27.61 27.61 0 0 0 309.61 294a27.8 27.8 0 0 0-7.51 1 38.2 38.2 0 0 0-73.81 9.78 28.12 28.12 0 0 0-6.2-.7 27.61 27.61 0 0 0-27.61 27.6 29.07 29.07 0 0 0 .26 3.76h-8.33a11.93 11.93 0 0 0 0 23.85h158.42a11.93 11.93 0 1 0 0-23.85z" fill="#262626" stroke="#a5802a" stroke-linecap="round" stroke-linejoin="round" stroke-width="2"/><path d="M379.3 303.47h-6a17.14 17.14 0 0 0-30.05-11.29v-.09A20.82 20.82 0 1 0 305 303.47h-15.87a8.58 8.58 0 1 0 0 17.15h90.17a8.58 8.58 0 1 0 0-17.15z" fill="#262626" stroke="#a5802a" stroke-linecap="round" stroke-linejoin="round" stroke-width="2"/></g></svg>