<svg xmlns="http://www.w3.org/2000/svg" viewBox="0 0 507.19 381.43"><g data-name="Comp 1"><path d="M228 320a1 1 0 0 1-.71-.29 1 1 0 0 1 0-1.42 1 1 0 0 1 1.41 0 1.19 1.19 0 0 1 .22.33 1 1 0 0 1-.22 1.09 1 1 0 0 1-.7.29zM221.06 319a1 1 0 0 1 1-1 1 1 0 0 1 1 1 1 1 0 0 1-1 1 1 1 0 0 1-1-1zm-5.95 0a1 1 0 0 1 1-1 1 1 0 0 1 1 1 1 1 0 0 1-1 1 1 1 0 0 1-1-1zm-5.94 0a1 1 0 0 1 1-1 1 1 0 0 1 1 1 1 1 0 0 1-1 1 1 1 0 0 1-1-1zm-5.95 0a1 1 0 0 1 1-1 1 1 0 0 1 1 1 1 1 0 0 1-1 1 1 1 0 0 1-1-1zm-5.94 0a1 1 0 0 1 1-1 1 1 0 0 1 1 1 1 1 0 0 1-1 1 1 1 0 0 1-1-1zm-5.95 0a1 1 0 0 1 1-1 1 1 0 0 1 1 1 1 1 0 0 1-1 1 1 1 0 0 1-1-1zm-5.94 0a1 1 0 0 1 1-1 1 1 0 0 1 1 1 1 1 0 0 1-1 1 1 1 0 0 1-1-1zm-5.95 0a1 1 0 0 1 1-1 1 1 0 0 1 1 1 1 1 0 0 1-1 1 1 1 0 0 1-1-1zm-5.94 0a1 1 0 0 1 1-1 1 1 0 0 1 1 1 1 1 0 0 1-1 1 1 1 0 0 1-1-1zm-5.95 0a1 1 0 0 1 1-1 1 1 0 0 1 1 1 1 1 0 0 1-1 1 1 1 0 0 1-1-1zm-5.94 0a1 1 0 0 1 1-1 1 1 0 0 1 1 1 1 1 0 0 1-1 1 1 1 0 0 1-1-1zm-6 0a1 1 0 0 1 1-1 1 1 0 0 1 1 1 1 1 0 0 1-1 1 1 1 0 0 1-.95-1zm-5.94 0a1 1 0 0 1 1-1 1 1 0 0 1 1 1 1 1 0 0 1-1 1 1 1 0 0 1-.95-1zm-5.95 0a1 1 0 0 1 1-1 1 1 0 0 1 1 1 1 1 0 0 1-1 1 1 1 0 0 1-.95-1zm-6 0a1 1 0 0 1 1-1 1 1 0 0 1 1 1 1 1 0 0 1-1 1 1 1 0 0 1-.9-1zm-5.94 0a1 1 0 0 1 1-1 1 1 0 0 1 1 1 1 1 0 0 1-1 1 1 1 0 0 1-.9-1zm-5.95 0a1 1 0 0 1 1-1 1 1 0 0 1 1 1 1 1 0 0 1-1 1 1 1 0 0 1-.9-1zm-5.83 0a1 1 0 0 1 1-1 1 1 0 0 1 1 1 1 1 0 0 1-1 1 1 1 0 0 1-1-1zm-6 0a1 1 0 0 1 1-1 1 1 0 0 1 1 1 1 1 0 0 1-1 1 1 1 0 0 1-1-1zM109.1 320a1 1 0 0 1-.71-.29 1.21 1.21 0 0 1-.22-.32 1.28 1.28 0 0 1-.07-.39 1.22 1.22 0 0 1 .07-.38 1.46 1.46 0 0 1 .22-.33 1 1 0 0 1 1.41 0 1 1 0 0 1 .3.71 1 1 0 0 1-.08.39.87.87 0 0 1-.22.32 1 1 0 0 1-.7.29zM108.1 313.11a1 1 0 0 1 1-1 1 1 0 0 1 1 1 1 1 0 0 1-1 1 1 1 0 0 1-1-1zm0-5.84a1 1 0 0 1 1-1 1 1 0 0 1 1 1 1 1 0 0 1-1 1 1 1 0 0 1-1-1zm0-5.84a1 1 0 0 1 1-1 1 1 0 0 1 1 1 1 1 0 0 1-1 1 1 1 0 0 1-1-1zm0-5.85a1 1 0 0 1 1-1 1 1 0 0 1 1 1 1 1 0 0 1-1 1 1 1 0 0 1-1-1zm0-5.84a1 1 0 0 1 1-1 1 1 0 0 1 1 1 1 1 0 0 1-1 1 1 1 0 0 1-1-1zm0-5.84a1 1 0 0 1 1-1 1 1 0 0 1 1 1 1 1 0 0 1-1 1 1 1 0 0 1-1-1zm0-5.85a1 1 0 0 1 1-1 1 1 0 0 1 1 1 1 1 0 0 1-1 1 1 1 0 0 1-1-1zm0-5.84a1 1 0 0 1 1-1 1 1 0 0 1 1 1 1 1 0 0 1-1 1 1 1 0 0 1-1-1zm0-5.85a1 1 0 0 1 1-1 1 1 0 0 1 1 1 1 1 0 0 1-1 1 1 1 0 0 1-1-1zm0-5.84a1 1 0 0 1 1-1 1 1 0 0 1 1 1 1 1 0 0 1-1 1 1 1 0 0 1-1-1zm0-5.84a1 1 0 0 1 1-1 1 1 0 0 1 1 1 1 1 0 0 1-1 1 1 1 0 0 1-1-1zm0-5.85a1 1 0 0 1 1-1 1 1 0 0 1 1 1 1 1 0 0 1-1 1 1 1 0 0 1-1-1zm0-5.84a1 1 0 0 1 1-1 1 1 0 0 1 1 1 1 1 0 0 1-1 1 1 1 0 0 1-1-.99zm0-5.84a1 1 0 0 1 1-1 1 1 0 0 1 1 1 1 1 0 0 1-1 1 1 1 0 0 1-1-1zm0-5.84a1 1 0 0 1 1-1 1 1 0 0 1 1 1 1 1 0 0 1-1 1 1 1 0 0 1-1-1zm0-5.85a1 1 0 0 1 1-1 1 1 0 0 1 1 1 1 1 0 0 1-1 1 1 1 0 0 1-1-1zM109.1 220.62a1.09 1.09 0 0 1-.39-.08 1 1 0 0 1-.32-.21.79.79 0 0 1-.12-.15 1.62 1.62 0 0 1-.1-.18 1.21 1.21 0 0 1 0-.18 1.36 1.36 0 0 1 0-.2 1.22 1.22 0 0 1 .07-.38 1.46 1.46 0 0 1 .22-.33 1 1 0 0 1 1.41 0 1 1 0 0 1 .3.71 1.36 1.36 0 0 1 0 .2.64.64 0 0 1-.06.18 1.51 1.51 0 0 1-.09.18l-.13.15a1 1 0 0 1-.7.29zM393.73 220a1 1 0 0 1-.71-.29l-.12-.15a1.08 1.08 0 0 1-.15-.36 1.36 1.36 0 0 1 0-.2 1 1 0 0 1 .29-.7 1 1 0 0 1 .91-.28l.18.06.18.09.15.13a1 1 0 0 1 .29.7 1 1 0 0 1-.29.71l-.15.13-.18.09-.18.05a.68.68 0 0 1-.22.02zM392.73 304.5a1 1 0 0 1 1-1 1 1 0 0 1 1 1 1 1 0 0 1-1 1 1 1 0 0 1-1-1zm0-6.11a1 1 0 0 1 1-1 1 1 0 0 1 1 1 1 1 0 0 1-1 1 1 1 0 0 1-1-1zm0-6.11a1 1 0 0 1 1-1 1 1 0 0 1 1 1 1 1 0 0 1-1 1 1 1 0 0 1-1-1zm0-6.11a1 1 0 0 1 1-1 1 1 0 0 1 1 1 1 1 0 0 1-1 1 1 1 0 0 1-1-1zm0-6.11a1 1 0 0 1 1-1 1 1 0 0 1 1 1 1 1 0 0 1-1 1 1 1 0 0 1-1-1zm0-6.11a1 1 0 0 1 1-1 1 1 0 0 1 1 1 1 1 0 0 1-1 1 1 1 0 0 1-1-.95zm0-6.11a1 1 0 0 1 1-1 1 1 0 0 1 1 1 1 1 0 0 1-1 1 1 1 0 0 1-1-1zm0-6.11a1 1 0 0 1 1-1 1 1 0 0 1 1 1 1 1 0 0 1-1 1 1 1 0 0 1-1-1zm0-6.11a1 1 0 0 1 1-1 1 1 0 0 1 1 1 1 1 0 0 1-1 1 1 1 0 0 1-1-1zm0-6.11a1 1 0 0 1 1-1 1 1 0 0 1 1 1 1 1 0 0 1-1 1 1 1 0 0 1-1-1zm0-6.12a1 1 0 0 1 1-1 1 1 0 0 1 1 1 1 1 0 0 1-1 1 1 1 0 0 1-1-1zm0-6.11a1 1 0 0 1 1-1 1 1 0 0 1 1 1 1 1 0 0 1-1 1 1 1 0 0 1-1-1zm0-6.11a1 1 0 0 1 1-1 1 1 0 0 1 1 1 1 1 0 0 1-1 1 1 1 0 0 1-1-1zm0-6.11a1 1 0 0 1 1-1 1 1 0 0 1 1 1 1 1 0 0 1-1 1 1 1 0 0 1-1-1zM393.73 311.61a1.05 1.05 0 0 1-.71-.29 1.15 1.15 0 0 1-.21-.33 1 1 0 0 1-.08-.38 1.36 1.36 0 0 1 0-.2.82.82 0 0 1 .06-.19.7.7 0 0 1 .09-.17l.12-.15a1 1 0 0 1 .91-.27l.18.05.18.1.15.12a1 1 0 0 1 .29.71 1 1 0 0 1-.08.38 1.15 1.15 0 0 1-.21.33 1 1 0 0 1-.33.21.64.64 0 0 1-.18.06zM387 310.61a1 1 0 0 1 1-1 1 1 0 0 1 1 1 1 1 0 0 1-1 1 1 1 0 0 1-1-1zm-5.75 0a1 1 0 0 1 1-1 1 1 0 0 1 1 1 1 1 0 0 1-1 1 1 1 0 0 1-1.02-1zm-5.76 0a1 1 0 0 1 1-1 1 1 0 0 1 1 1 1 1 0 0 1-1 1 1 1 0 0 1-1.02-1zm-5.75 0a1 1 0 0 1 1-1 1 1 0 0 1 1 1 1 1 0 0 1-1 1 1 1 0 0 1-1.02-1zm-5.75 0a1 1 0 0 1 1-1 1 1 0 0 1 1 1 1 1 0 0 1-1 1 1 1 0 0 1-.99-1zm-5.76 0a1 1 0 0 1 1-1 1 1 0 0 1 1 1 1 1 0 0 1-1 1 1 1 0 0 1-1.02-1zm-5.75 0a1 1 0 0 1 1-1 1 1 0 0 1 1 1 1 1 0 0 1-1 1 1 1 0 0 1-1.02-1zM347.71 311.61a1 1 0 0 1-1-1 1 1 0 0 1 .29-.71 1 1 0 0 1 1.41 0 1 1 0 0 1 .29.71 1 1 0 0 1-.07.38 1 1 0 0 1-.92.62z" fill="#a5802a"/><path d="M193.69 298.69h3.12a8.9 8.9 0 0 1 15.6-5.86v-.05a10.82 10.82 0 1 1 19.87 5.91h8.24a4.46 4.46 0 1 1 0 8.91h-46.83a4.46 4.46 0 1 1 0-8.91zM342.3 303.38h-4.53a12.93 12.93 0 0 0-22.67-8.52v-.06a15.7 15.7 0 1 0-28.85 8.58h-12a6.47 6.47 0 0 0 0 12.93h68a6.47 6.47 0 1 0 0-12.93z" fill="#262626" stroke="#a5802a" stroke-miterlimit="10" stroke-width="2"/><path d="M316.3 327.52h-8.57A20.82 20.82 0 0 0 284.06 297a28.82 28.82 0 0 0-55.68 7.38 21.09 21.09 0 0 0-4.67-.53 20.82 20.82 0 0 0-20.83 20.82 20.42 20.42 0 0 0 .2 2.84h-6.29a9 9 0 0 0 0 18H316.3a9 9 0 0 0 0-18z" fill="#262626" stroke="#a5802a" stroke-miterlimit="10" stroke-width="2"/><path fill="#a5802a" stroke="#a5802a" stroke-linecap="round" stroke-linejoin="round" stroke-width=".25" d="M356.65 243.85h74.18v7.1h-74.18z"/><path fill="#a5802a" stroke="#a5802a" stroke-linecap="round" stroke-linejoin="round" stroke-width="2" d="M386.76 198.49h13.95v48.09h-13.95z"/><path fill="#262626" stroke="#a5802a" stroke-miterlimit="10" stroke-width="6" d="M311.06 121.95h165.35v99.4H311.06z"/><path fill="#333" d="M224.01 316.38h74.59v15.95h-74.59z"/><path d="M299.05 332.79h-75.5v-16.87h75.5zm-74.59-.91h73.68v-15.05h-73.68z" fill="#a5802a"/><path d="M230.4 320.18h-.13a.33.33 0 0 0-.12.05.43.43 0 0 0-.12.11l-.08.16-.41 1c-.18.44-.37.95-.57 1.45h-.17c-.19-.53-.38-1-.57-1.54l-.37-1a.41.41 0 0 0-.07-.11.45.45 0 0 0-.1-.09l-.13-.05h-.12V320h1.2v.15a1 1 0 0 0-.26 0c-.07 0-.1 0-.1.08v.05l.25.66.48 1.3q.15-.39.36-.9l.27-.72.08-.25a.57.57 0 0 0 0-.12.09.09 0 0 0 0-.08l-.11-.06h-.28V320h1.08zM231.49 323h-1v-.14h.18a.1.1 0 0 0 .08-.06.27.27 0 0 0 0-.12v-1.26a.27.27 0 0 0 0-.12.32.32 0 0 0-.08-.09h-.25v-.14h.72v1.65a.21.21 0 0 0 0 .12.22.22 0 0 0 .09.07h.18zm-.26-2.85a.31.31 0 0 1-.07.2.25.25 0 0 1-.19.09.25.25 0 0 1-.18-.08.3.3 0 0 1-.08-.2.27.27 0 0 1 .08-.19.23.23 0 0 1 .18-.09.26.26 0 0 1 .19.08.28.28 0 0 1 .07.14zM233.59 322.47a1.08 1.08 0 0 1-.34.39.85.85 0 0 1-.49.14.94.94 0 0 1-.43-.08.89.89 0 0 1-.3-.24 1 1 0 0 1-.18-.34 1.42 1.42 0 0 1-.06-.42 1.32 1.32 0 0 1 .06-.39 1.25 1.25 0 0 1 .19-.34.85.85 0 0 1 .29-.24.8.8 0 0 1 .39-.09 1 1 0 0 1 .37.07.59.59 0 0 1 .26.2.69.69 0 0 1 .14.27 1.16 1.16 0 0 1 0 .34v.13h-1.29a1.4 1.4 0 0 0 0 .37.7.7 0 0 0 .12.28.62.62 0 0 0 .83.17.75.75 0 0 0 .25-.31zm-.46-.77a1.1 1.1 0 0 0 0-.25.71.71 0 0 0-.06-.22.37.37 0 0 0-.13-.15.33.33 0 0 0-.21-.06.45.45 0 0 0-.36.18.9.9 0 0 0-.15.5zM236.88 321.05a.36.36 0 0 0-.18.08.32.32 0 0 0-.15.19c-.07.2-.13.39-.19.57l-.21.61c0 .07-.05.15-.07.23a2.17 2.17 0 0 0-.07.24h-.17l-.55-1.5-.55 1.5h-.16c-.11-.31-.21-.61-.3-.91s-.19-.56-.26-.78a.34.34 0 0 0-.13-.16.43.43 0 0 0-.18-.06v-.14h.9v.15a.36.36 0 0 0-.14 0c-.05 0-.08 0-.08.07v.06c0 .06.1.3.15.48l.22.69.51-1.46h.2l.53 1.44c.06-.18.11-.36.17-.53s.11-.33.15-.49v-.09a.29.29 0 0 0 0-.09.1.1 0 0 0 0-.07h-.24v-.13h.77zM239.33 322.86l-.25.1a1.26 1.26 0 0 1-.3 0 .43.43 0 0 1-.35-.12.58.58 0 0 1-.11-.37v-1.37H238v-.2h.37v-.63h.37v.63h.58v.2h-.57v1.13a1.22 1.22 0 0 0 0 .21.33.33 0 0 0 0 .15.22.22 0 0 0 .1.09.42.42 0 0 0 .18 0H239.32zM241.55 321.92a1.23 1.23 0 0 1-.07.42 1.08 1.08 0 0 1-.19.35.78.78 0 0 1-.33.24.93.93 0 0 1-.42.08.86.86 0 0 1-.36-.07 1 1 0 0 1-.31-.21 1.33 1.33 0 0 1-.22-.34 1.25 1.25 0 0 1-.08-.45 1.12 1.12 0 0 1 .28-.77 1 1 0 0 1 1.42 0 1 1 0 0 1 .28.75zm-.42 0a2 2 0 0 0 0-.33 1.63 1.63 0 0 0-.1-.29.55.55 0 0 0-.17-.2.45.45 0 0 0-.26-.08.46.46 0 0 0-.27.08.46.46 0 0 0-.18.21.7.7 0 0 0-.09.29 1.71 1.71 0 0 0 0 .31 2 2 0 0 0 0 .36 1.05 1.05 0 0 0 .1.3.63.63 0 0 0 .18.21.45.45 0 0 0 .26.08.48.48 0 0 0 .41-.25 1.36 1.36 0 0 0 .12-.69zM244.1 322.91h-.7v-.19a.83.83 0 0 1-.26.19.76.76 0 0 1-.32.08.81.81 0 0 1-.34-.08.83.83 0 0 1-.28-.22 1 1 0 0 1-.19-.34 1.5 1.5 0 0 1-.07-.44 1.25 1.25 0 0 1 .08-.42 1.08 1.08 0 0 1 .21-.34.84.84 0 0 1 .3-.22.83.83 0 0 1 .37-.08 1.27 1.27 0 0 1 .28 0l.23.09v-.7a.41.41 0 0 0 0-.16.18.18 0 0 0-.08-.11.42.42 0 0 0-.15-.06h-.21v-.13h.83v2.73a.21.21 0 0 0 0 .12.14.14 0 0 0 .08.09.16.16 0 0 0 .11 0h.13zm-.74-.35v-1.19a.63.63 0 0 0-.14-.23l-.14-.08a.38.38 0 0 0-.19 0 .36.36 0 0 0-.22.07.64.64 0 0 0-.19.18 1 1 0 0 0-.12.29 1.64 1.64 0 0 0 0 .4 1.48 1.48 0 0 0 0 .31.85.85 0 0 0 .11.26.58.58 0 0 0 .19.19.53.53 0 0 0 .26.07.54.54 0 0 0 .27-.07.93.93 0 0 0 .17-.2zM246.27 322.91l-.17.06h-.17a.39.39 0 0 1-.25-.07.3.3 0 0 1-.12-.22.94.94 0 0 1-.28.22.72.72 0 0 1-.37.08.51.51 0 0 1-.38-.14.49.49 0 0 1-.14-.36.66.66 0 0 1 0-.21.48.48 0 0 1 .1-.17.47.47 0 0 1 .13-.11l.16-.08.38-.13a2.45 2.45 0 0 0 .38-.15v-.2-.1a.88.88 0 0 0 0-.15.49.49 0 0 0-.12-.13.33.33 0 0 0-.21-.06.39.39 0 0 0-.18 0l-.11.06a.74.74 0 0 0 0 .12 1 1 0 0 1 0 .15.18.18 0 0 1-.06.13.28.28 0 0 1-.18.06.19.19 0 0 1-.16-.07.29.29 0 0 1 0-.16.28.28 0 0 1 .06-.18.93.93 0 0 1 .18-.16.9.9 0 0 1 .22-.1 1.17 1.17 0 0 1 .26 0 1.39 1.39 0 0 1 .3 0 .52.52 0 0 1 .23.1.49.49 0 0 1 .16.21 1 1 0 0 1 .05.33v1.02a.23.23 0 0 0 0 .13.2.2 0 0 0 .08.08H246.3zm-.72-1.08l-.3.1a1.15 1.15 0 0 0-.25.12.52.52 0 0 0-.16.17.41.41 0 0 0-.06.23.33.33 0 0 0 .09.25.34.34 0 0 0 .23.08.52.52 0 0 0 .25-.07.79.79 0 0 0 .19-.17zM246.36 323.61a.21.21 0 0 1 .06-.16.16.16 0 0 1 .14-.07.2.2 0 0 1 .11 0 .24.24 0 0 1 .09.06l.06.08.06.09a.75.75 0 0 0 .24-.29 2 2 0 0 0 .21-.41l-.35-.87c-.11-.26-.22-.52-.33-.8a.37.37 0 0 0-.13-.15l-.19-.06v-.14h.92v.15h-.14q-.09 0-.09.06v.06c0 .06.13.33.24.58s.19.46.25.62l.19-.46.22-.55a.76.76 0 0 1 0-.11.35.35 0 0 0 0-.12s0-.07-.1-.1l-.17-.06v-.13h.75v.13a.52.52 0 0 0-.16.07.35.35 0 0 0-.15.17c-.17.38-.31.73-.44 1s-.22.54-.29.68a2.29 2.29 0 0 1-.23.45 1.17 1.17 0 0 1-.19.26.51.51 0 0 1-.18.11.4.4 0 0 1-.15 0 .37.37 0 0 1-.25-.07.21.21 0 0 1 0-.02zM249.28 320.22a.51.51 0 0 1-.06.25.67.67 0 0 1-.14.19.93.93 0 0 1-.18.16l-.16.09-.06-.12.16-.1a.36.36 0 0 0 .11-.1.38.38 0 0 0 .09-.13.39.39 0 0 0 0-.17H249a.32.32 0 0 1-.2-.07.27.27 0 0 1-.07-.18.21.21 0 0 1 .07-.16.22.22 0 0 1 .18-.08.28.28 0 0 1 .25.12.56.56 0 0 1 .05.3zM251 322a.43.43 0 0 1 .13.17.53.53 0 0 1 0 .23.59.59 0 0 1-.21.47.85.85 0 0 1-.54.17.88.88 0 0 1-.33-.06 1 1 0 0 1-.21-.12v.14h-.15v-.71h.14a.88.88 0 0 0 .2.38.77.77 0 0 0 .19.16.51.51 0 0 0 .25.06.45.45 0 0 0 .3-.09.37.37 0 0 0 .08-.41.52.52 0 0 0-.1-.11.67.67 0 0 0-.17-.08l-.22-.08-.21-.08a.56.56 0 0 1-.2-.12.61.61 0 0 1-.15-.17.51.51 0 0 1-.06-.25.52.52 0 0 1 .19-.42.66.66 0 0 1 .49-.18h.24l.2.08.05-.11h.09v.65h-.14a.64.64 0 0 0-.19-.35.48.48 0 0 0-.34-.14.37.37 0 0 0-.27.09.26.26 0 0 0-.1.2.24.24 0 0 0 0 .15.24.24 0 0 0 .09.11.79.79 0 0 0 .16.08l.23.08.25.1a.77.77 0 0 1 .31.16zM254.48 322.91l-.17.06h-.17a.39.39 0 0 1-.25-.07.3.3 0 0 1-.12-.22.94.94 0 0 1-.28.22.72.72 0 0 1-.37.08.48.48 0 0 1-.37-.14.46.46 0 0 1-.15-.36.66.66 0 0 1 0-.21.48.48 0 0 1 .1-.17.4.4 0 0 1 .14-.11l.15-.08.38-.13a2.09 2.09 0 0 0 .38-.15v-.2-.1a.88.88 0 0 0-.05-.15.49.49 0 0 0-.12-.13.33.33 0 0 0-.21-.06.39.39 0 0 0-.18 0l-.11.06a.74.74 0 0 0 0 .12 1 1 0 0 1 0 .15.18.18 0 0 1-.06.13.28.28 0 0 1-.18.06.16.16 0 0 1-.15-.07.24.24 0 0 1 0-.16.28.28 0 0 1 .06-.18.93.93 0 0 1 .18-.16.9.9 0 0 1 .22-.1 1.17 1.17 0 0 1 .26 0 1.39 1.39 0 0 1 .3 0 .52.52 0 0 1 .23.1.49.49 0 0 1 .16.21 1 1 0 0 1 0 .33v1.02a.23.23 0 0 0 0 .13.2.2 0 0 0 .08.08H254.42zm-.72-1.08l-.3.1a1.15 1.15 0 0 0-.25.12.52.52 0 0 0-.16.17.41.41 0 0 0-.06.23.33.33 0 0 0 .09.25.34.34 0 0 0 .23.08.52.52 0 0 0 .25-.07.79.79 0 0 0 .19-.17zM256.06 322a.43.43 0 0 1 .13.17.52.52 0 0 1 .05.23.59.59 0 0 1-.21.47.88.88 0 0 1-.55.17.83.83 0 0 1-.32-.06.64.64 0 0 1-.21-.12v.14h-.15v-.71h.14a1.14 1.14 0 0 0 .07.19.91.91 0 0 0 .13.19 1 1 0 0 0 .19.16.54.54 0 0 0 .25.06.48.48 0 0 0 .31-.09.33.33 0 0 0 .1-.26.33.33 0 0 0 0-.15.35.35 0 0 0-.1-.11.67.67 0 0 0-.17-.08l-.22-.08-.21-.08a.56.56 0 0 1-.2-.12.61.61 0 0 1-.15-.17.51.51 0 0 1-.06-.25.52.52 0 0 1 .12-.5.67.67 0 0 1 .49-.18h.24l.21.08v-.11h.15v.65H256a.69.69 0 0 0-.18-.35.52.52 0 0 0-.35-.14.4.4 0 0 0-.27.09.25.25 0 0 0-.09.2.33.33 0 0 0 0 .15.24.24 0 0 0 .09.11 1.19 1.19 0 0 0 .16.08l.23.08.25.1a.77.77 0 0 1 .22.24zM257.84 322.86l-.25.1a1.23 1.23 0 0 1-.29 0 .46.46 0 0 1-.36-.12.58.58 0 0 1-.1-.37v-1.37h-.37v-.2h.37v-.63h.38v.63h.58v.2h-.58v1.13a1.22 1.22 0 0 0 0 .21.54.54 0 0 0 0 .15.28.28 0 0 0 .1.09.48.48 0 0 0 .18 0H257.79zM259.64 321.18a.38.38 0 0 1-.05.19.19.19 0 0 1-.16.08.26.26 0 0 1-.18-.06.18.18 0 0 1-.06-.13v-.16a.49.49 0 0 0-.22.08.66.66 0 0 0-.22.22v1.18a.21.21 0 0 0 0 .12.27.27 0 0 0 .08.07h.28v.23h-1.07v-.14h.19a.16.16 0 0 0 .08-.06.27.27 0 0 0 0-.12v-1.26a.27.27 0 0 0 0-.12.27.27 0 0 0-.08-.1H258.02v-.14h.67v.28a1.07 1.07 0 0 1 .28-.25.6.6 0 0 1 .29-.09.29.29 0 0 1 .21.09.31.31 0 0 1 .17.09zM261.83 321.92a1.52 1.52 0 0 1-.06.42 1.1 1.1 0 0 1-.2.35.78.78 0 0 1-.33.24 1.05 1.05 0 0 1-.78 0 1 1 0 0 1-.31-.21 1.08 1.08 0 0 1-.21-.34 1.06 1.06 0 0 1-.08-.45 1.11 1.11 0 0 1 .27-.77.93.93 0 0 1 .73-.31 1 1 0 0 1 .7.29 1.08 1.08 0 0 1 .27.78zm-.42 0a2 2 0 0 0 0-.33 1.1 1.1 0 0 0-.09-.29.7.7 0 0 0-.18-.2.42.42 0 0 0-.26-.08.5.5 0 0 0-.27.08.63.63 0 0 0-.18.21 1.23 1.23 0 0 0-.09.29 1.71 1.71 0 0 0 0 .31 2 2 0 0 0 0 .36.82.82 0 0 0 .11.3.51.51 0 0 0 .17.21.45.45 0 0 0 .26.08.48.48 0 0 0 .41-.25 1.36 1.36 0 0 0 .12-.69zM263.12 323h-1v-.14h.18a.15.15 0 0 0 .09-.06.28.28 0 0 0 0-.13v-2.35a.35.35 0 0 0 0-.14.28.28 0 0 0-.09-.1H262.01v-.13h.76v2.78a.21.21 0 0 0 0 .12s0 .05.08.07h.19zM265.4 321.92a1.23 1.23 0 0 1-.07.42 1.31 1.31 0 0 1-.19.35.93.93 0 0 1-.33.24 1 1 0 0 1-.42.08.94.94 0 0 1-.37-.07 1.06 1.06 0 0 1-.31-.21 1.08 1.08 0 0 1-.21-.34 1.25 1.25 0 0 1-.08-.45 1.07 1.07 0 0 1 .28-.77.9.9 0 0 1 .72-.31.93.93 0 0 1 .7.29 1 1 0 0 1 .28.77zm-.43 0a2 2 0 0 0 0-.33 1.1 1.1 0 0 0-.09-.29.55.55 0 0 0-.17-.2.45.45 0 0 0-.26-.08.46.46 0 0 0-.27.08.46.46 0 0 0-.18.21.91.91 0 0 0-.1.29 1.67 1.67 0 0 0 0 .31 2 2 0 0 0 0 .36.81.81 0 0 0 .1.3.53.53 0 0 0 .18.21.42.42 0 0 0 .26.08.46.46 0 0 0 .4-.25 1.36 1.36 0 0 0 .16-.69zM267.47 322.74a.46.46 0 0 1 .13.18.57.57 0 0 1 0 .24.55.55 0 0 1-.07.28.56.56 0 0 1-.19.22.84.84 0 0 1-.33.15 1.57 1.57 0 0 1-.47.05 1.44 1.44 0 0 1-.69-.13.43.43 0 0 1-.22-.39.41.41 0 0 1 .16-.34.77.77 0 0 1 .42-.13h-.13a.41.41 0 0 1-.11-.07.43.43 0 0 1-.09-.1.32.32 0 0 1 0-.14.3.3 0 0 1 .08-.2.5.5 0 0 1 .23-.16 1 1 0 0 1-.31-.24.57.57 0 0 1-.1-.34.59.59 0 0 1 .21-.47.83.83 0 0 1 .55-.19h.18l.19.05h.7v.2h-.47a.49.49 0 0 1 .11.2.78.78 0 0 1 0 .21.61.61 0 0 1-.22.45.75.75 0 0 1-.5.18h-.25l-.1.06a.17.17 0 0 0-.05.12.16.16 0 0 0 0 .12h.88a.77.77 0 0 1 .19.05.62.62 0 0 1 .27.14zm-.16.5a.36.36 0 0 0-.05-.19.29.29 0 0 0-.16-.1H266.45a.64.64 0 0 0-.32.14.4.4 0 0 0-.09.27.35.35 0 0 0 0 .14.3.3 0 0 0 .11.12.57.57 0 0 0 .19.08 1 1 0 0 0 .77-.08.4.4 0 0 0 .2-.38zm-.39-1.7a.75.75 0 0 0-.1-.39.32.32 0 0 0-.27-.14.31.31 0 0 0-.17 0 .57.57 0 0 0-.11.11.43.43 0 0 0-.06.17 1.23 1.23 0 0 0 0 .19.71.71 0 0 0 .1.38.33.33 0 0 0 .26.14.31.31 0 0 0 .27-.14.61.61 0 0 0 .08-.32zM267.77 323.61a.21.21 0 0 1 .06-.16.16.16 0 0 1 .14-.07.2.2 0 0 1 .11 0 .24.24 0 0 1 .09.06l.06.08s0 .07.06.09a.75.75 0 0 0 .24-.29 2 2 0 0 0 .21-.41l-.35-.87c-.11-.26-.22-.52-.33-.8a.33.33 0 0 0-.14-.15.64.64 0 0 0-.18-.06v-.14h.92v.15h-.14q-.09 0-.09.06a.14.14 0 0 0 0 .06c.05.13.13.33.24.58s.19.46.24.62c.07-.15.13-.3.2-.46l.22-.55a.76.76 0 0 1 0-.11.35.35 0 0 0 0-.12s0-.07-.1-.1l-.17-.06v-.13h.75v.13a.68.68 0 0 0-.17.07.39.39 0 0 0-.14.17c-.17.38-.31.73-.44 1s-.22.54-.29.68a2.29 2.29 0 0 1-.23.45 1.17 1.17 0 0 1-.19.26.51.51 0 0 1-.18.11.4.4 0 0 1-.15 0 .42.42 0 0 1-.26-.07.23.23 0 0 1 .01-.02zM229.21 326.1a.41.41 0 0 1-.05.19.18.18 0 0 1-.16.08.24.24 0 0 1-.17-.06.19.19 0 0 1-.06-.13v-.16a.49.49 0 0 0-.23.08.58.58 0 0 0-.22.22v1.18a.21.21 0 0 0 0 .12.22.22 0 0 0 .09.07h.27v.14h-1.07v-.14h.19a.19.19 0 0 0 .08-.07.21.21 0 0 0 0-.12v-1.25a.35.35 0 0 0 0-.13.24.24 0 0 0-.08-.09h-.21v-.13l.67-.05v.29a.92.92 0 0 1 .28-.25.6.6 0 0 1 .29-.09.29.29 0 0 1 .21.08.36.36 0 0 1 .17.22zM231.23 327.39a1.17 1.17 0 0 1-.34.39.91.91 0 0 1-.49.14 1 1 0 0 1-.43-.09.76.76 0 0 1-.3-.23 1 1 0 0 1-.18-.35 1.4 1.4 0 0 1-.06-.41 1 1 0 0 1 .07-.39 1 1 0 0 1 .18-.34.85.85 0 0 1 .29-.24.8.8 0 0 1 .39-.09.89.89 0 0 1 .38.07.7.7 0 0 1 .39.46 1.27 1.27 0 0 1 .05.34v.14h-1.34a1.37 1.37 0 0 0 0 .36.69.69 0 0 0 .12.29.55.55 0 0 0 .21.19.71.71 0 0 0 .31.07.54.54 0 0 0 .31-.09.94.94 0 0 0 .26-.31zm-.45-.77a2.29 2.29 0 0 0 0-.25 1 1 0 0 0-.07-.22.37.37 0 0 0-.13-.15.33.33 0 0 0-.21-.06.42.42 0 0 0-.35.18.81.81 0 0 0-.16.5zM233.43 327.83l-.17.06h-.17a.39.39 0 0 1-.25-.08.29.29 0 0 1-.12-.22 1 1 0 0 1-.28.23.84.84 0 0 1-.37.08.51.51 0 0 1-.37-.14.48.48 0 0 1-.15-.37.66.66 0 0 1 0-.21.54.54 0 0 1 .1-.16.4.4 0 0 1 .14-.11.55.55 0 0 1 .15-.08l.38-.13a2.09 2.09 0 0 0 .38-.15v-.2a1 1 0 0 1 0-.11.78.78 0 0 0 0-.14.49.49 0 0 0-.12-.13.33.33 0 0 0-.21-.06h-.18a.35.35 0 0 0-.11.07.74.74 0 0 0 0 .12.77.77 0 0 1 0 .15.18.18 0 0 1-.06.13.28.28 0 0 1-.18.06.16.16 0 0 1-.15-.07.26.26 0 0 1-.05-.17.32.32 0 0 1 .06-.18.89.89 0 0 1 .4-.25.78.78 0 0 1 .26 0h.3a.54.54 0 0 1 .23.11.53.53 0 0 1 .16.2 1.06 1.06 0 0 1 .05.34v1.08a.28.28 0 0 0 0 .13l.08.08H233.42zm-.72-1.09c-.11 0-.22.07-.3.11a1.15 1.15 0 0 0-.25.12.61.61 0 0 0-.16.16.44.44 0 0 0-.06.23.3.3 0 0 0 .09.25.31.31 0 0 0 .23.08.43.43 0 0 0 .25-.07.6.6 0 0 0 .19-.16zM235.89 327.83l-.71.05v-.19a.79.79 0 0 1-.27.2.72.72 0 0 1-.32.08.8.8 0 0 1-.33-.08.85.85 0 0 1-.28-.22 1.11 1.11 0 0 1-.19-.34 1.23 1.23 0 0 1-.07-.44 1.16 1.16 0 0 1 .07-.42 1 1 0 0 1 .21-.34.84.84 0 0 1 .31-.22.81.81 0 0 1 .37-.09 1 1 0 0 1 .28 0 .79.79 0 0 1 .23.09v-.71a.37.37 0 0 0 0-.15.19.19 0 0 0-.08-.11.34.34 0 0 0-.15-.06h-.21v-.12l.82-.05v2.74a.22.22 0 0 0 0 .12l.08.09h.25zm-.74-.36v-1.18a.61.61 0 0 0-.05-.12.52.52 0 0 0-.1-.11.43.43 0 0 0-.13-.09.58.58 0 0 0-.19 0 .46.46 0 0 0-.23.06.66.66 0 0 0-.18.19.87.87 0 0 0-.12.29 1.61 1.61 0 0 0 0 .39 1.58 1.58 0 0 0 0 .32.85.85 0 0 0 .11.26.52.52 0 0 0 .18.18.5.5 0 0 0 .27.08.46.46 0 0 0 .27-.08.69.69 0 0 0 .17-.19zM237.12 327.87h-1v-.14h.19a.19.19 0 0 0 .08-.07.21.21 0 0 0 0-.12v-1.25a.27.27 0 0 0 0-.12.24.24 0 0 0-.08-.09h-.25v-.13l.71-.05v1.66a.21.21 0 0 0 0 .12.22.22 0 0 0 .09.07h.18zm-.26-2.86a.31.31 0 0 1-.07.21.26.26 0 0 1-.45-.19.31.31 0 0 1 .07-.2.29.29 0 0 1 .19-.08.27.27 0 0 1 .19.08.24.24 0 0 1 .07.17zM239.65 327.87h-1v-.14h.2a.22.22 0 0 0 .09-.07.37.37 0 0 0 0-.12v-1a.45.45 0 0 0-.1-.33.32.32 0 0 0-.25-.12.64.64 0 0 0-.2 0 .51.51 0 0 0-.16.09.32.32 0 0 0-.1.1l-.06.08v1.17a.21.21 0 0 0 0 .12.19.19 0 0 0 .08.07h.2v.14h-1v-.14h.18a.22.22 0 0 0 .09-.07.21.21 0 0 0 0-.12v-1.25a.28.28 0 0 0 0-.13.2.2 0 0 0-.09-.09.19.19 0 0 0-.09 0h-.11v-.13l.67-.05v.29l.12-.12a1.1 1.1 0 0 1 .14-.11.75.75 0 0 1 .18-.08.61.61 0 0 1 .24 0 .5.5 0 0 1 .43.19.78.78 0 0 1 .14.48v1.06a.36.36 0 0 0 0 .11.22.22 0 0 0 .09.07h.18zM241.68 327.66a.52.52 0 0 1 .13.17.62.62 0 0 1 .05.25.5.5 0 0 1-.07.27.59.59 0 0 1-.19.23 1.26 1.26 0 0 1-.33.15 2 2 0 0 1-.47 0 1.37 1.37 0 0 1-.68-.13.42.42 0 0 1-.23-.4.38.38 0 0 1 .16-.33.77.77 0 0 1 .42-.13l-.13-.05a.39.39 0 0 1-.11-.06.43.43 0 0 1-.09-.1.33.33 0 0 1 0-.15.32.32 0 0 1 .08-.2.71.71 0 0 1 .23-.16.8.8 0 0 1-.3-.23.51.51 0 0 1-.11-.34.59.59 0 0 1 .21-.47.78.78 0 0 1 .55-.19h.18l.19.05h.7v.16h-.47a.65.65 0 0 1 .15.4.55.55 0 0 1-.22.45.71.71 0 0 1-.5.19h-.25l-.1.06a.17.17 0 0 0 0 .12.12.12 0 0 0 0 .11.24.24 0 0 0 .11.06h.77a.72.72 0 0 1 .19 0 .66.66 0 0 1 .13.27zm-.16.5a.36.36 0 0 0-.05-.19.25.25 0 0 0-.16-.1H240.66a.56.56 0 0 0-.32.14.39.39 0 0 0-.09.26.32.32 0 0 0 0 .14.25.25 0 0 0 .11.12.42.42 0 0 0 .19.09 1.23 1.23 0 0 0 .29 0 .85.85 0 0 0 .48-.11.41.41 0 0 0 .2-.35zm-.39-1.71a.63.63 0 0 0-.1-.38.3.3 0 0 0-.27-.14.31.31 0 0 0-.17 0 .29.29 0 0 0-.11.11.44.44 0 0 0-.06.16 1.36 1.36 0 0 0 0 .2.67.67 0 0 0 .1.37.31.31 0 0 0 .26.15.29.29 0 0 0 .27-.15.57.57 0 0 0 .08-.32zM244.7 324.93a.29.29 0 0 1 0 .16.2.2 0 0 1-.15.06.24.24 0 0 1-.12 0 .27.27 0 0 1-.08-.07.39.39 0 0 1-.08-.1l-.06-.1c-.09 0-.16.07-.21.2a1.66 1.66 0 0 0-.08.59v.21h.52v.12h-.52v1.46a.21.21 0 0 0 0 .12.22.22 0 0 0 .09.07h.27v.14h-1.08v-.14h.19s.07 0 .08-.07a.21.21 0 0 0 0-.12V326h-.4v-.19h.4v-.13a1.13 1.13 0 0 1 .24-.75.76.76 0 0 1 .6-.29.48.48 0 0 1 .27.07.23.23 0 0 1 .12.22zM246.59 326.83a1.42 1.42 0 0 1-.07.42 1.06 1.06 0 0 1-.19.35 1 1 0 0 1-.33.25 1.16 1.16 0 0 1-.42.08 1 1 0 0 1-.89-.62 1.29 1.29 0 0 1-.08-.45 1.1 1.1 0 0 1 .28-.78.92.92 0 0 1 .72-.3.93.93 0 0 1 .7.29 1 1 0 0 1 .28.76zm-.43 0a1.84 1.84 0 0 0 0-.33 1.1 1.1 0 0 0-.09-.29.58.58 0 0 0-.17-.21.44.44 0 0 0-.26-.07.4.4 0 0 0-.27.08.55.55 0 0 0-.19.21 1.1 1.1 0 0 0-.09.29 1.62 1.62 0 0 0 0 .31 2 2 0 0 0 0 .36 1 1 0 0 0 .1.3.6.6 0 0 0 .17.21.47.47 0 0 0 .27.07.44.44 0 0 0 .4-.25 1.29 1.29 0 0 0 .13-.67zM248.48 326.1a.41.41 0 0 1 0 .19.19.19 0 0 1-.16.08.24.24 0 0 1-.18-.06.19.19 0 0 1-.06-.13.28.28 0 0 1 0-.09V326a.46.46 0 0 0-.22.08.58.58 0 0 0-.22.22v1.18a.21.21 0 0 0 0 .12s0 .05.08.07h.28v.14h-1.06v-.14h.18a.22.22 0 0 0 .09-.07.21.21 0 0 0 0-.12v-1.25a.35.35 0 0 0 0-.13.2.2 0 0 0-.09-.09.19.19 0 0 0-.09 0h-.11v-.13l.67-.05v.29a.82.82 0 0 1 .28-.25.57.57 0 0 1 .29-.09.32.32 0 0 1 .21.08.36.36 0 0 1 .11.24zM252.53 327.87h-1.21v-.15h.26c.07 0 .11-.05.11-.08a.09.09 0 0 0 0-.05l-.24-.65h-1a2 2 0 0 0-.09.25c0 .07 0 .14-.07.2a.39.39 0 0 0 0 .14.34.34 0 0 0 0 .09c0 .06 0 .1.12.13a.94.94 0 0 0 .3.05v.15h-1.1v-.15h.13l.13-.05a.51.51 0 0 0 .13-.12.87.87 0 0 0 .09-.17c.15-.36.31-.78.48-1.23s.34-.87.47-1.22h.17l1 2.52a.35.35 0 0 0 .07.12.27.27 0 0 0 .11.1.33.33 0 0 0 .12.05h.13zm-1.17-1.2l-.44-1.13-.44 1.13z" fill="#fff"/><path d="M254.18 326.1a.33.33 0 0 1-.06.19.16.16 0 0 1-.15.08.24.24 0 0 1-.18-.06.19.19 0 0 1-.06-.13.28.28 0 0 1 0-.09V326a.46.46 0 0 0-.22.08.58.58 0 0 0-.22.22v1.18a.37.37 0 0 0 0 .12.22.22 0 0 0 .09.07h.27v.14h-1.06v-.14h.18a.22.22 0 0 0 .09-.07.21.21 0 0 0 0-.12v-1.25a.35.35 0 0 0 0-.13.2.2 0 0 0-.09-.09.19.19 0 0 0-.09 0h-.11v-.13l.67-.05v.29a.82.82 0 0 1 .28-.25.57.57 0 0 1 .28-.09.29.29 0 0 1 .21.08.32.32 0 0 1 .17.24zM255.38 327.87h-1v-.14h.19a.27.27 0 0 0 .08-.07.21.21 0 0 0 0-.12v-1.25a.27.27 0 0 0 0-.12.24.24 0 0 0-.08-.09h-.25v-.13l.71-.05v1.66a.21.21 0 0 0 0 .12.27.27 0 0 0 .08.07h.19zm-.26-2.86a.28.28 0 0 1-.08.21.23.23 0 0 1-.18.09.25.25 0 0 1-.19-.09.26.26 0 0 1-.07-.19.31.31 0 0 1 .07-.2.27.27 0 0 1 .38 0 .24.24 0 0 1 .07.17zM257.47 327.39a1 1 0 0 1-.34.39.88.88 0 0 1-.49.14.93.93 0 0 1-.42-.09.72.72 0 0 1-.31-.23 1 1 0 0 1-.17-.35 1.4 1.4 0 0 1-.06-.41 1.27 1.27 0 0 1 .06-.39 1 1 0 0 1 .18-.34 1 1 0 0 1 .29-.24 1 1 0 0 1 .77 0 .73.73 0 0 1 .26.19.87.87 0 0 1 .14.27 1.27 1.27 0 0 1 0 .34v.14h-1.33a2 2 0 0 0 0 .36 1.1 1.1 0 0 0 .12.29.76.76 0 0 0 .21.19.74.74 0 0 0 .31.07.52.52 0 0 0 .31-.09.83.83 0 0 0 .26-.31zm-.45-.77a2.29 2.29 0 0 0 0-.25.64.64 0 0 0-.06-.22.47.47 0 0 0-.13-.15.37.37 0 0 0-.21-.06.44.44 0 0 0-.36.18.8.8 0 0 0-.15.5zM259.09 326.87a.52.52 0 0 1 .13.17.6.6 0 0 1 0 .24.57.57 0 0 1-.21.46.91.91 0 0 1-.87.12 1.35 1.35 0 0 1-.22-.12v.13h-.15v-.7h.14a1.6 1.6 0 0 0 .07.19 1.27 1.27 0 0 0 .13.19.7.7 0 0 0 .19.15.54.54 0 0 0 .25.06.48.48 0 0 0 .31-.09.3.3 0 0 0 .1-.25.33.33 0 0 0 0-.15.35.35 0 0 0-.1-.11l-.17-.09-.22-.07-.21-.08-.2-.12a.65.65 0 0 1-.15-.18.48.48 0 0 1-.06-.24.56.56 0 0 1 .15-.38.71.71 0 0 1 .49-.17h.24a.84.84 0 0 1 .21.08v-.11h.15v.65H259a.7.7 0 0 0-.19-.36.47.47 0 0 0-.34-.13.46.46 0 0 0-.27.08.29.29 0 0 0-.09.21.33.33 0 0 0 0 .15.31.31 0 0 0 .09.11l.16.07.23.09a1.09 1.09 0 0 1 .25.1.76.76 0 0 1 .25.1z" fill="#fff"/><path fill="#333" d="M280.97 316.38h17.63v15.95h-17.63z"/><path d="M299.05 332.79h-18.53v-16.87h18.53zm-17.62-.91h16.71v-15.05h-16.71z" fill="#a5802a"/><path fill="#a5802a" d="M284.63 323.9h5.59v.91h-5.59z"/><path d="M294.58 324.35a22.29 22.29 0 0 0-6.18 3.44l1.24-3.44-1.24-3.43a22 22 0 0 0 6.18 3.43z" fill="#a5802a"/><g opacity=".46"><path d="M177.64 187.84s-8.37 5.9 1.14 15.22c0 0-5.14-.38-6.85-4.18 0 0-5.33 9.9 4.19 19.6 0 0-12.76-4.94-12.37-12.37.41-8-1-9.52-1-9.52s-.76 8.19-2.28 12.57a61 61 0 0 0-1.71-9.9s-11.81 5.14-1.34 21.13 2.43 22.32 2.43 22.32c-1-8.92-14.72-12.57-17.1-17.09s-3-4-3-4c1.53 3.66.1 5.91.1 5.91s-.1-5.91-7.35-13.11-10.08-26.63-10.08-26.63c-4 6.85-.57 12-.57 12-6-7.2-11.22-20.21 1-35.36 10.34-12.85 11.15-18.82 11.15-18.82s.73-4.1 4.29-4.86" fill="#262626"/><path d="M159.1 244.6l-.21-1.78c-.58-5.08-5.8-8.38-10.41-11.29-3-1.88-5.55-3.5-6.57-5.44l-.47-.86a6 6 0 0 1-.76 2.87l-1.79 2.83v-3.35c0-.05-.23-5.64-7.06-12.42-5.66-5.61-8.65-18.06-9.8-24a9.92 9.92 0 0 0 .69 8.12l-1.6 1.2c-4.36-5.24-13-19.29 1-36.63C132 151.44 133 145.54 133 145.48c0-.24.9-4.82 5.07-5.71l.41 2c-2.86.61-3.5 4-3.51 4.06 0 .2-.9 6.35-11.35 19.33-3.88 4.83-11.32 16.65-4.14 29.52a14 14 0 0 1 2.11-7.33l1.44-2.44.41 2.81c0 .19 2.85 19.19 9.79 26.06a30.63 30.63 0 0 1 5.61 7.39l.31-.25a1.19 1.19 0 0 1 1-.22c.67.13 1.62.77 3.59 4.5.77 1.46 3.24 3 5.86 4.68 4.18 2.64 9.26 5.84 10.88 10.7 1.58-2.51 3.43-8.56-3.79-19.6-4-6.08-5.33-11.4-4-15.81a11.24 11.24 0 0 1 5.78-6.79l1-.44.34 1.06a36.56 36.56 0 0 1 1.06 4.74c.65-3.61 1-7.15 1-7.2l.21-2.29 1.53 1.72c.27.3 1.61 2.23 1.2 10.23-.21 4.09 4.28 7.46 7.76 9.44a17.69 17.69 0 0 1-1.45-17.2l1-1.78.83 1.85a5.77 5.77 0 0 0 3 2.79 11.06 11.06 0 0 1-2.59-7.56 9.71 9.71 0 0 1 3.81-6.68l1.15 1.63-.58-.81.58.81a7.8 7.8 0 0 0-3 5.24c-.21 2.66 1.21 5.51 4.23 8.46l1.95 1.91-2.73-.2a10.65 10.65 0 0 1-6.57-3c-1 3.07-2 9.91 4.69 16.76l3.25 3.31-4.32-1.67c-.55-.22-13.43-5.31-13-13.36 0-.81.06-1.56.07-2.23a39.16 39.16 0 0 1-1.37 5.66l-1.52 4.37-.42-4.61a66.93 66.93 0 0 0-1.33-8.48 9.3 9.3 0 0 0-3.66 5c-1.12 3.82.15 8.57 3.78 14.11 10.85 16.57 2.56 23.37 2.2 23.66z" fill="#a5802a"/><path d="M136.33 143.8c-3-11.68 24-20.82 30.46-4.45v-.25l17.9 7.23 6.85 15.61 12.72 6.22a5.13 5.13 0 0 1 2.45 6.66l-9.46 21.77s-12-8.56-22.84-2.66" fill="#262626"/><path d="M197.68 198.12l-1-.71c-.11-.09-11.62-8.13-21.79-2.6l-.95-1.76c9.52-5.18 19.66.08 22.88 2.06l9-20.68a4.14 4.14 0 0 0-2-5.37l-13-6.38-6.84-15.57-16.14-6.53v4l-1.93-4.88c-2.36-6-9.25-10.51-19.35-7.21-5.36 1.75-10.54 6-9.21 11l-1.94.51c-1.41-5.43 2.92-11 10.53-13.44s17.58-1.14 21.53 7.67l18 7.28 6.87 15.65 12.39 6.06a6.11 6.11 0 0 1 2.93 7.95z" fill="#a5802a"/><path d="M145.36 144.3c-17.27-2.36-23.53 15.11-23.53 15.11.17-12.08 6.59-20.67 17.37-21.79" fill="#262626"/><path d="M120.74 165.4l.09-6c.18-12.89 7.18-21.62 18.26-22.78l.21 2c-8.5.89-14.33 6.79-16 15.78 3.31-5.21 10.25-12.71 22.18-11.09l-.27 2c-16.28-2.22-22.39 14.29-22.45 14.46z" fill="#a5802a"/><path d="M161.21 143.8a6.14 6.14 0 1 0-8.83 7.27" fill="#262626"/><path d="M151.9 151.94a7.14 7.14 0 1 1 10.26-8.46l-1.9.63a5.14 5.14 0 1 0-7.39 6.09zM160.05 186.8a9.51 9.51 0 0 1-7.54-3.72l1.54-1.27a7.56 7.56 0 0 0 6.87 3 11.11 11.11 0 0 1-4.65-12.94l1.89.66a9.34 9.34 0 0 0 5.91 11.61l2.24.78-2.13 1.08a10.25 10.25 0 0 1-4.13.8z" fill="#a5802a"/><path fill="#262626" d="M174.23 157.77l12.14 3.56.18 7.91-8.93-2.62M204.1 180.85s1.27-5.83-3-7.36c-2.26-.79 1.52-5.83 1.52-5.83"/><path d="M205.08 181.07l-2-.43c0-.2 1-5-2.4-6.2a2 2 0 0 1-1.29-1.32c-.59-2 1.64-5.13 2.34-6.06l1.6 1.2c-1.38 1.85-2.24 3.86-2 4.29 4.13 1.45 4.25 6.2 3.75 8.52z" fill="#a5802a"/><path d="M201.57 186.44s-2.24 1.54-6.1.25a6.77 6.77 0 0 0-6.6 1.53" fill="#262626"/><path d="M189.58 188.92l-1.41-1.41a7.75 7.75 0 0 1 7.62-1.77c3.28 1.1 5.14-.08 5.22-.13l1.12 1.65c-.1.08-2.69 1.81-7 .38a5.79 5.79 0 0 0-5.55 1.28zM162.09 197.23c-1.06-.95-10.28-9.54-9.75-15.45.22-2.39 1.56-5.09 2.85-7.69 1.8-3.64 3.66-7.4 2.14-9.69-3.18-4.77-2.75-7.55-2.69-7.85l2 .39s-.32 2.28 2.39 6.35c2.17 3.25 0 7.54-2 11.69-1.21 2.44-2.46 5-2.65 7-.38 4.18 6.45 11.37 9.11 13.8z" fill="#a5802a"/></g><path fill="#a5802a" d="M166.76 223.69l1.84-4.24-4.08-2.17 4.47-1.2-.86-4.54 3.73 2.73 3.02-3.49.18 4.62 4.62.18-3.5 3.02 2.74 3.72-4.54-.85-1.21 4.46-2.17-4.08-4.24 1.84zM31.68 217.87l1.84-4.24-4.09-2.17 4.47-1.21-.85-4.54 3.72 2.74 3.02-3.5.18 4.62 4.62.18-3.5 3.02 2.74 3.73-4.54-.85-1.21 4.46-2.16-4.08-4.24 1.84zM144.78 194.57l1.84-4.24-4.08-2.17 4.46-1.21-.85-4.54 3.72 2.74 3.02-3.5.19 4.62 4.61.18-3.49 3.02 2.73 3.73-4.54-.85-1.2 4.46-2.17-4.08-4.24 1.84zM80.55 216.33l-.21-3.53-3.02-1.83 3.29-1.29.81-3.43 2.24 2.73 3.52-.3-1.91 2.98 1.37 3.25-3.42-.89-2.67 2.31zM148.04 177.54l-.21-3.53-3.02-1.83 3.29-1.28.81-3.44 2.24 2.73 3.52-.29-1.91 2.97 1.37 3.26-3.42-.9-2.67 2.31zM166.21 202.1l-.21-3.53-3.02-1.83 3.29-1.28.81-3.44 2.24 2.73 3.52-.29-1.91 2.97 1.37 3.26-3.42-.9-2.67 2.31zM180.37 169.54l-.51-3.49-3.17-1.57 3.17-1.56.51-3.5 2.46 2.53 3.48-.59-1.64 3.12 1.64 3.13-3.48-.6-2.46 2.53zM67.34 251.58l2.81-1.44 1.59-2.73 1.43 2.81 2.73 1.59-2.81 1.44-1.59 2.73-1.44-2.81-2.72-1.59zM66.11 231.04l2.81-1.44 1.59-2.73 1.44 2.81 2.73 1.59-2.81 1.44-1.59 2.73-1.44-2.81-2.73-1.59zM206.52 209.34l2.5 1.92 3.15.28-1.93 2.5-.27 3.14-2.5-1.92-3.15-.27 1.93-2.51.27-3.14zM168.79 157.89l2.5-1.92 1.08-2.97 1.92 2.51 2.97 1.07-2.51 1.92-1.07 2.97-1.92-2.5-2.97-1.08zM185.683 214.999l16.876-1.968.056.487-16.875 1.968zM45.951 210.88l28.845-.559.01.49-28.845.56zM73.947 227.283l5.413-9.564.427.241-5.414 9.564zM70.096 246.009l.209-8.037.49.012-.21 8.038zM92.758 208.5l46.451-12.864.13.472-46.45 12.865zM158.198 166.833l8.935-6.602.291.394-8.935 6.602z"/></g></svg>