<svg xmlns="http://www.w3.org/2000/svg" viewBox="0 0 507.19 381.43"><g data-name="Comp 1"><path d="M305.64 275.67h3.74a10.69 10.69 0 0 1 18.74-7v-.06a13 13 0 0 1 26 0 12.83 12.83 0 0 1-2.12 7.09h9.91a5.35 5.35 0 1 1 0 10.7h-56.27a5.35 5.35 0 1 1 0-10.7z" fill="#262626" stroke="#a5802a" stroke-miterlimit="10" stroke-width="2"/><path d="M289 292.85a1 1 0 0 1-.71-.29 1 1 0 0 1-.29-.71 1 1 0 1 1 2 0 1 1 0 0 1-.29.71 1 1 0 0 1-.71.29zM457.43 291.85a1 1 0 0 1 1-1 1 1 0 0 1 1 1 1 1 0 0 1-1 1 1 1 0 0 1-1-1zm-6.05 0a1 1 0 0 1 1-1 1 1 0 0 1 1 1 1 1 0 0 1-1 1 1 1 0 0 1-1-1zm-6.05 0a1 1 0 0 1 1-1 1 1 0 0 1 1 1 1 1 0 0 1-1 1 1 1 0 0 1-1-1zm-6.05 0a1 1 0 0 1 1-1 1 1 0 0 1 1 1 1 1 0 0 1-1 1 1 1 0 0 1-1-1zm-6 0a1 1 0 0 1 1-1 1 1 0 0 1 1 1 1 1 0 0 1-1 1 1 1 0 0 1-1.05-1zm-6.05 0a1 1 0 0 1 1-1 1 1 0 0 1 1 1 1 1 0 0 1-1 1 1 1 0 0 1-1.05-1zm-6.05 0a1 1 0 0 1 1-1 1 1 0 0 1 1 1 1 1 0 0 1-1 1 1 1 0 0 1-1.05-1zm-6.05 0a1 1 0 0 1 1-1 1 1 0 0 1 1 1 1 1 0 0 1-1 1 1 1 0 0 1-1.05-1zm-6.05 0a1 1 0 0 1 1-1 1 1 0 0 1 1 1 1 1 0 0 1-1 1 1 1 0 0 1-1.08-1zm-6 0a1 1 0 0 1 1-1 1 1 0 0 1 1 1 1 1 0 0 1-1 1 1 1 0 0 1-1.08-1zm-6.05 0a1 1 0 0 1 1-1 1 1 0 0 1 1 1 1 1 0 0 1-1 1 1 1 0 0 1-1.1-1zm-6.05 0a1 1 0 0 1 1-1 1 1 0 0 1 1 1 1 1 0 0 1-1 1 1 1 0 0 1-1.1-1zm-6.05 0a1 1 0 0 1 1-1 1 1 0 0 1 1 1 1 1 0 0 1-1 1 1 1 0 0 1-1.1-1zm-6.05 0a1 1 0 0 1 1-1 1 1 0 0 1 1 1 1 1 0 0 1-1 1 1 1 0 0 1-1.1-1zm-6 0a1 1 0 0 1 1-1 1 1 0 0 1 1 1 1 1 0 0 1-1 1 1 1 0 0 1-1.15-1zm-6.05 0a1 1 0 0 1 1-1 1 1 0 0 1 1 1 1 1 0 0 1-1 1 1 1 0 0 1-1.15-1zm-6.05 0a1 1 0 0 1 1-1 1 1 0 0 1 1 1 1 1 0 0 1-1 1 1 1 0 0 1-1.15-1zm-6.06 0a1 1 0 0 1 1-1 1 1 0 0 1 1 1 1 1 0 0 1-1 1 1 1 0 0 1-1.15-1zm-6.05 0a1 1 0 0 1 1-1 1 1 0 0 1 1 1 1 1 0 0 1-1 1 1 1 0 0 1-1.15-1zm-6 0a1 1 0 0 1 1-1 1 1 0 0 1 1 1 1 1 0 0 1-1 1 1 1 0 0 1-1.2-1zm-6.05 0a1 1 0 0 1 1-1 1 1 0 0 1 1 1 1 1 0 0 1-1 1 1 1 0 0 1-1.2-1zm-6.05 0a1 1 0 0 1 1-1 1 1 0 0 1 1 1 1 1 0 0 1-1 1 1 1 0 0 1-1.2-1zm-6.05 0a1 1 0 0 1 1-1 1 1 0 0 1 1 1 1 1 0 0 1-1 1 1 1 0 0 1-1.2-1zm-6.05 0a1 1 0 0 1 1-1 1 1 0 0 1 1 1 1 1 0 0 1-1 1 1 1 0 0 1-1.2-1zm-6 0a1 1 0 0 1 1-1 1 1 0 0 1 1 1 1 1 0 0 1-1 1 1 1 0 0 1-1.25-1zm-6.05 0a1 1 0 0 1 1-1 1 1 0 0 1 1 1 1 1 0 0 1-1 1 1 1 0 0 1-1.25-1zm-6.05 0a1 1 0 0 1 1-1 1 1 0 0 1 1 1 1 1 0 0 1-1 1 1 1 0 0 1-1.25-1zm-6.05 0a1 1 0 0 1 1-1 1 1 0 0 1 1 1 1 1 0 0 1-1 1 1 1 0 0 1-1.25-1zM464.48 292.85a1 1 0 0 1-1-1 1 1 0 0 1 .3-.71 1 1 0 0 1 .32-.21 1 1 0 0 1 .77 0 1 1 0 0 1 .32.21 1 1 0 0 1 .29.71 1 1 0 0 1-.61.92 1.09 1.09 0 0 1-.39.08zM463.48 285.29a1 1 0 0 1 1-1 1 1 0 0 1 1 1 1 1 0 0 1-1 1 1 1 0 0 1-1-1zm0-6.57a1 1 0 0 1 1-1 1 1 0 0 1 1 1 1 1 0 0 1-1 1 1 1 0 0 1-1-1zm0-6.56a1 1 0 0 1 1-1 1 1 0 0 1 1 1 1 1 0 0 1-1 1 1 1 0 0 1-1-1zM464.48 266.6a1 1 0 0 1-.7-1.71 1.21 1.21 0 0 1 .32-.22 1 1 0 0 1 .77 0 1.21 1.21 0 0 1 .32.22 1 1 0 0 1 .22 1.09 1.19 1.19 0 0 1-.22.33 1 1 0 0 1-.32.21 1.09 1.09 0 0 1-.39.08z" fill="#a5802a"/><path d="M484.12 281.31h-5.44a15.53 15.53 0 0 0-27.22-10.23V271a18.86 18.86 0 1 0-34.66 10.31h-14.38a7.77 7.77 0 1 0 0 15.53h81.7a7.77 7.77 0 1 0 0-15.53z" fill="#262626" stroke="#a5802a" stroke-miterlimit="10" stroke-width="2"/><path d="M452.89 310.3H442.6a25 25 0 0 0-21.6-37.58 25.11 25.11 0 0 0-6.81.94 34.6 34.6 0 0 0-66.86 8.86 25.41 25.41 0 0 0-5.62-.64 25 25 0 0 0-25 25 25.43 25.43 0 0 0 .24 3.4h-7.54a10.81 10.81 0 1 0 0 21.61h143.48a10.81 10.81 0 0 0 0-21.61z" fill="#262626" stroke="#a5802a" stroke-miterlimit="10" stroke-width="2"/><path fill="#333" d="M341.74 300.71h81.83v17.5h-81.83z"/><path d="M424.07 318.71h-82.83v-18.49h82.83zm-81.84-1h80.84v-16.5h-80.84z" fill="#a5802a"/><path d="M348.75 304.88h-.14a.3.3 0 0 0-.14.06.34.34 0 0 0-.12.12l-.09.17c-.1.24-.26.62-.46 1.12s-.4 1-.62 1.59H347l-.63-1.69-.41-1.09a.54.54 0 0 0-.07-.13.63.63 0 0 0-.12-.1h-.27v-.16h1.32v.16a1.7 1.7 0 0 0-.28 0c-.08 0-.12 0-.12.08a.13.13 0 0 0 0 .06v.06c0 .06.15.38.27.72s.3.81.53 1.42c.12-.28.25-.61.4-1s.25-.64.3-.79a1 1 0 0 0 .08-.28.83.83 0 0 0 0-.13.14.14 0 0 0 0-.07l-.12-.06h-.31v-.16h1.19zM350 307.92h-1.07v-.14h.2a.16.16 0 0 0 .09-.07.28.28 0 0 0 0-.13v-1.38a.28.28 0 0 0 0-.13.28.28 0 0 0-.09-.1l-.13-.05h-.14v-.15l.78-.05v1.82a.25.25 0 0 0 0 .13.24.24 0 0 0 .09.08H349.94zm-.29-3.13a.32.32 0 0 1-.08.23.27.27 0 0 1-.21.09.28.28 0 0 1-.2-.09.32.32 0 0 1 0-.42.3.3 0 0 1 .2-.1.26.26 0 0 1 .21.09.27.27 0 0 1 .03.2zM352.25 307.4a1.22 1.22 0 0 1-.38.43 1 1 0 0 1-.54.15 1.11 1.11 0 0 1-.46-.09.88.88 0 0 1-.34-.26 1.13 1.13 0 0 1-.19-.38 1.65 1.65 0 0 1-.06-.46 1.52 1.52 0 0 1 .06-.42 1.28 1.28 0 0 1 .21-.38 1.13 1.13 0 0 1 .31-.26 1 1 0 0 1 .43-.09 1.09 1.09 0 0 1 .42.07.83.83 0 0 1 .28.21.85.85 0 0 1 .15.3 1.44 1.44 0 0 1 .05.37v.15h-1.47a2.35 2.35 0 0 0 0 .4 1 1 0 0 0 .14.31.52.52 0 0 0 .23.21.67.67 0 0 0 .33.08.58.58 0 0 0 .35-.1.92.92 0 0 0 .28-.34zm-.5-.85v-.27a1.37 1.37 0 0 0-.07-.24.58.58 0 0 0-.14-.17.41.41 0 0 0-.23-.06.5.5 0 0 0-.4.19 1 1 0 0 0-.17.55zM355.86 305.84a.64.64 0 0 0-.2.08.37.37 0 0 0-.16.21q-.12.33-.21.63c-.07.2-.15.42-.23.67 0 .08-.05.16-.08.25s-.05.18-.08.26h-.19l-.6-1.64-.59 1.64h-.19l-.33-1-.28-.86a.33.33 0 0 0-.14-.17.53.53 0 0 0-.2-.07v-.15h1v.16h-.16c-.06 0-.08 0-.08.08v.07c0 .02.1.33.17.53s.13.44.23.75l.57-1.6h.21l.58 1.58c.07-.2.13-.39.19-.58s.12-.37.17-.53v-.11a.3.3 0 0 0 0-.1.13.13 0 0 0 0-.07.19.19 0 0 0-.09-.05H355v-.14h.84zM358.54 307.83l-.27.1a1 1 0 0 1-.32 0 .48.48 0 0 1-.4-.14.66.66 0 0 1-.11-.4v-1.51H357v-.21h.41V305h.41v.7h.64v.21h-.64v1.48a.84.84 0 0 0 .05.17.36.36 0 0 0 .11.1.5.5 0 0 0 .19 0h.32zM361 306.79a1.43 1.43 0 0 1-.07.46 1.22 1.22 0 0 1-.21.39 1 1 0 0 1-.36.26 1.14 1.14 0 0 1-.46.09 1 1 0 0 1-.41-.08 1.08 1.08 0 0 1-.34-.23 1.37 1.37 0 0 1-.23-.37 1.3 1.3 0 0 1-.09-.49 1.22 1.22 0 0 1 .31-.85 1.11 1.11 0 0 1 1.56 0 1.17 1.17 0 0 1 .3.82zm-.46 0a1.45 1.45 0 0 0 0-.35.86.86 0 0 0-.1-.32.62.62 0 0 0-.19-.23.51.51 0 0 0-.28-.08.56.56 0 0 0-.3.08.68.68 0 0 0-.2.24.94.94 0 0 0-.1.31 2 2 0 0 0 0 .34 2.41 2.41 0 0 0 0 .4 1 1 0 0 0 .12.33.62.62 0 0 0 .19.23.52.52 0 0 0 .29.08.5.5 0 0 0 .44-.27 1.48 1.48 0 0 0 .11-.76zM363.78 307.88l-.77.05v-.21a.86.86 0 0 1-.29.21.76.76 0 0 1-.35.09.81.81 0 0 1-.37-.09.87.87 0 0 1-.31-.23 1.71 1.71 0 0 1-.21-.38 1.51 1.51 0 0 1-.07-.48 1.17 1.17 0 0 1 .08-.46 1 1 0 0 1 .23-.38 1 1 0 0 1 .74-.33 1 1 0 0 1 .3 0 .88.88 0 0 1 .26.1V305a.47.47 0 0 0 0-.17.27.27 0 0 0-.09-.12.38.38 0 0 0-.17-.06h-.23v-.14l.91-.05v3a.29.29 0 0 0 0 .14.2.2 0 0 0 .09.09.33.33 0 0 0 .13 0h.14zm-.81-.39v-1.3a.49.49 0 0 0-.06-.13.53.53 0 0 0-.1-.12.38.38 0 0 0-.15-.09.46.46 0 0 0-.21 0 .4.4 0 0 0-.24.07.55.55 0 0 0-.2.2 1.06 1.06 0 0 0-.14.32 2 2 0 0 0 0 .43 1.83 1.83 0 0 0 0 .35 1.48 1.48 0 0 0 .12.29.76.76 0 0 0 .2.2.57.57 0 0 0 .29.08.56.56 0 0 0 .3-.08.7.7 0 0 0 .22-.22zM366.16 307.88l-.16.12h-.18a.47.47 0 0 1-.28-.08.41.41 0 0 1-.13-.24 1.18 1.18 0 0 1-.31.25 1 1 0 0 1-.41.08.59.59 0 0 1-.41-.15.56.56 0 0 1-.16-.4.73.73 0 0 1 0-.23.52.52 0 0 1 .11-.19.65.65 0 0 1 .15-.12l.17-.08a3.49 3.49 0 0 1 .41-.14 3.11 3.11 0 0 0 .42-.17v-.22a.89.89 0 0 0 0-.11.3.3 0 0 0-.05-.16.37.37 0 0 0-.36-.21.41.41 0 0 0-.19 0 .32.32 0 0 0-.13.07.45.45 0 0 0 0 .13 1 1 0 0 1 0 .16.21.21 0 0 1-.07.15.32.32 0 0 1-.2.06.18.18 0 0 1-.17-.08.35.35 0 0 1-.05-.18.37.37 0 0 1 .07-.19.77.77 0 0 1 .19-.17.82.82 0 0 1 .25-.11 1 1 0 0 1 .28 0 1.62 1.62 0 0 1 .33 0 .85.85 0 0 1 .26.11.58.58 0 0 1 .17.23 1 1 0 0 1 .06.37v1.12a.29.29 0 0 0 0 .14.24.24 0 0 0 .09.08.16.16 0 0 0 .11 0h.15zm-.79-1.19l-.33.11a1.15 1.15 0 0 0-.27.14.52.52 0 0 0-.18.18.49.49 0 0 0-.06.25.38.38 0 0 0 .09.28.37.37 0 0 0 .25.09.51.51 0 0 0 .28-.08 1 1 0 0 0 .21-.19zM366.26 308.65a.28.28 0 0 1 .06-.18.21.21 0 0 1 .16-.07h.12a.22.22 0 0 1 .09.07l.08.09a.44.44 0 0 0 .06.1 1.05 1.05 0 0 0 .27-.32 2.29 2.29 0 0 0 .22-.45l-.38-1-.37-.88a.31.31 0 0 0-.14-.16.6.6 0 0 0-.2-.07v-.15h1v.16h-.16c-.07 0-.1 0-.1.05a.43.43 0 0 1 0 .05v.07c.05.14.14.36.26.64l.27.67c.07-.16.14-.32.21-.5s.15-.37.24-.61l.05-.12a.35.35 0 0 0 0-.13s0-.07-.11-.1a.49.49 0 0 0-.19-.07v-.14h.82v.14a.49.49 0 0 0-.17.08.35.35 0 0 0-.17.19c-.18.41-.34.79-.47 1.13s-.25.59-.32.75a3.82 3.82 0 0 1-.25.5 1.82 1.82 0 0 1-.22.28.59.59 0 0 1-.19.12.33.33 0 0 1-.17 0 .41.41 0 0 1-.28-.09.26.26 0 0 1-.02-.05zM369.46 304.93a.6.6 0 0 1-.06.27.71.71 0 0 1-.15.22 1.56 1.56 0 0 1-.2.16l-.17.11-.08-.13.18-.12a.63.63 0 0 0 .12-.1.65.65 0 0 0 .1-.15.64.64 0 0 0 .05-.19h-.11a.29.29 0 0 1-.22-.07.28.28 0 0 1-.08-.2.27.27 0 0 1 .07-.18.26.26 0 0 1 .2-.08.29.29 0 0 1 .27.13.54.54 0 0 1 .08.33zM371.32 306.83a.85.85 0 0 1 .14.19.67.67 0 0 1 .05.26.65.65 0 0 1-.23.51.92.92 0 0 1-.6.19.86.86 0 0 1-.36-.07 1.16 1.16 0 0 1-.23-.12v.14h-.17v-.77h.08a.75.75 0 0 0 .08.2 1 1 0 0 0 .14.22.83.83 0 0 0 .21.16.59.59 0 0 0 .61 0 .36.36 0 0 0 .11-.28.38.38 0 0 0 0-.16.32.32 0 0 0-.11-.12.67.67 0 0 0-.19-.1l-.24-.08-.23-.09a.67.67 0 0 1-.22-.13.6.6 0 0 1-.23-.46.59.59 0 0 1 .21-.46.73.73 0 0 1 .54-.19h.26a1 1 0 0 1 .23.08l.05-.12h.16v.72h-.15a.68.68 0 0 0-.23-.35.52.52 0 0 0-.38-.15.44.44 0 0 0-.29.09.29.29 0 0 0-.1.23.38.38 0 0 0 0 .16.32.32 0 0 0 .11.12.54.54 0 0 0 .17.08l.25.09.28.11a1.4 1.4 0 0 1 .28.1zM375.16 307.88l-.16.12h-.18a.47.47 0 0 1-.28-.08.42.42 0 0 1-.14-.24 1.18 1.18 0 0 1-.31.25 1 1 0 0 1-.41.08.59.59 0 0 1-.41-.15.56.56 0 0 1-.16-.4.65.65 0 0 1 .15-.42.58.58 0 0 1 .14-.12l.18-.08a2.91 2.91 0 0 1 .41-.14 2.83 2.83 0 0 0 .41-.17v-.22a.54.54 0 0 0 0-.11.43.43 0 0 0-.05-.16.37.37 0 0 0-.36-.21.41.41 0 0 0-.19 0 .32.32 0 0 0-.13.07 1.05 1.05 0 0 0 0 .13.5.5 0 0 1 0 .16.19.19 0 0 1-.08.15.27.27 0 0 1-.19.06.18.18 0 0 1-.17-.08.35.35 0 0 1-.05-.18.3.3 0 0 1 .07-.19.63.63 0 0 1 .19-.17.82.82 0 0 1 .25-.11.9.9 0 0 1 .28 0 1.72 1.72 0 0 1 .33 0 .71.71 0 0 1 .25.11.52.52 0 0 1 .18.23 1 1 0 0 1 .06.37v1.12a.29.29 0 0 0 0 .14.27.27 0 0 0 .1.08.15.15 0 0 0 .1 0h.15zm-.78-1.19l-.34.11a1.3 1.3 0 0 0-.26.14.52.52 0 0 0-.18.18.49.49 0 0 0-.07.25.38.38 0 0 0 .1.28.37.37 0 0 0 .25.09.51.51 0 0 0 .28-.08 1 1 0 0 0 .21-.19zM376.9 306.83a.62.62 0 0 1 .14.19.53.53 0 0 1 0 .26.62.62 0 0 1-.23.51.87.87 0 0 1-.59.19.86.86 0 0 1-.36-.07.92.92 0 0 1-.23-.12l-.05.14h-.17v-.77h.16a.69.69 0 0 0 .07.2 1.64 1.64 0 0 0 .14.22.83.83 0 0 0 .21.16.55.55 0 0 0 .28.07.47.47 0 0 0 .33-.1.34.34 0 0 0 .12-.28.27.27 0 0 0 0-.16.25.25 0 0 0-.11-.12.77.77 0 0 0-.18-.1l-.24-.08-.23-.09a.86.86 0 0 1-.23-.13.55.55 0 0 1-.22-.46.61.61 0 0 1 .2-.46.76.76 0 0 1 .54-.19 1.24 1.24 0 0 1 .27 0 .79.79 0 0 1 .22.08v-.12h.26v.72h-.16a.73.73 0 0 0-.2-.39.52.52 0 0 0-.38-.15.44.44 0 0 0-.29.09.3.3 0 0 0-.11.23.38.38 0 0 0 0 .16.29.29 0 0 0 .1.12.67.67 0 0 0 .17.08l.26.09.28.11a1.27 1.27 0 0 1 .23.17zM378.85 307.83l-.27.1a1 1 0 0 1-.32 0 .44.44 0 0 1-.39-.14.6.6 0 0 1-.12-.4v-1.51h-.4v-.21h.41V305h.41v.7h.64v.21h-.64v1.48a.84.84 0 0 0 .05.17.36.36 0 0 0 .11.1.5.5 0 0 0 .19 0h.32zM380.83 306a.36.36 0 0 1-.06.2.19.19 0 0 1-.17.09.22.22 0 0 1-.19-.07.17.17 0 0 1-.07-.14.28.28 0 0 1 0-.09v-.08a.59.59 0 0 0-.25.08.82.82 0 0 0-.24.25v1.29a.23.23 0 0 0 0 .13.27.27 0 0 0 .1.08H380.25v.14h-1.17v-.14h.2a.18.18 0 0 0 .1-.07.28.28 0 0 0 0-.13v-1.38a.43.43 0 0 0 0-.14.22.22 0 0 0-.09-.1h-.23v-.15l.74-.05v.28a.91.91 0 0 1 .31-.28.66.66 0 0 1 .31-.1.33.33 0 0 1 .23.1.33.33 0 0 1 .18.28zM383.23 306.79a1.43 1.43 0 0 1-.07.46 1.22 1.22 0 0 1-.21.39.9.9 0 0 1-.36.26 1.14 1.14 0 0 1-.46.09.9.9 0 0 1-.4-.08 1 1 0 0 1-.34-.23 1.18 1.18 0 0 1-.24-.37 1.53 1.53 0 0 1-.08-.49 1.21 1.21 0 0 1 .3-.85 1.11 1.11 0 0 1 1.56 0 1.17 1.17 0 0 1 .3.82zm-.46 0a2.16 2.16 0 0 0 0-.35 1.08 1.08 0 0 0-.11-.32.54.54 0 0 0-.19-.23.49.49 0 0 0-.28-.08.56.56 0 0 0-.3.08.68.68 0 0 0-.2.24.94.94 0 0 0-.1.31 2 2 0 0 0 0 .34 1.64 1.64 0 0 0 0 .4 1 1 0 0 0 .11.33.62.62 0 0 0 .19.23.52.52 0 0 0 .29.08.49.49 0 0 0 .44-.27 1.48 1.48 0 0 0 .15-.76zM384.65 307.92h-1.08v-.14h.2a.15.15 0 0 0 .1-.07.28.28 0 0 0 0-.13V305a.29.29 0 0 0 0-.16.31.31 0 0 0-.09-.11.41.41 0 0 0-.15-.05h-.17v-.14l.84-.05v3.06a.28.28 0 0 0 0 .13.24.24 0 0 0 .09.08H384.6zM387.14 306.79a1.43 1.43 0 0 1-.07.46 1.22 1.22 0 0 1-.21.39.83.83 0 0 1-.36.26 1.14 1.14 0 0 1-.46.09.9.9 0 0 1-.4-.08 1 1 0 0 1-.34-.23 1.18 1.18 0 0 1-.24-.37 1.53 1.53 0 0 1-.08-.49 1.21 1.21 0 0 1 .3-.85 1.11 1.11 0 0 1 1.56 0 1.17 1.17 0 0 1 .3.82zm-.46 0a2.16 2.16 0 0 0 0-.35 1.08 1.08 0 0 0-.11-.32.6.6 0 0 0-.18-.23.55.55 0 0 0-.29-.08.56.56 0 0 0-.3.08.68.68 0 0 0-.2.24 1.25 1.25 0 0 0-.1.31 2 2 0 0 0 0 .34 1.64 1.64 0 0 0 0 .4 1 1 0 0 0 .11.33.62.62 0 0 0 .19.23.52.52 0 0 0 .29.08.48.48 0 0 0 .44-.27 1.48 1.48 0 0 0 .15-.76zM389.42 307.69a.66.66 0 0 1 .14.2.54.54 0 0 1 .05.27.66.66 0 0 1-.07.3.59.59 0 0 1-.21.24 1.2 1.2 0 0 1-.36.17 1.9 1.9 0 0 1-.52.06 1.5 1.5 0 0 1-.75-.15.47.47 0 0 1-.25-.43.43.43 0 0 1 .18-.37.81.81 0 0 1 .46-.14l-.14-.05-.12-.07a.58.58 0 0 1-.1-.12.35.35 0 0 1 0-.16.33.33 0 0 1 .08-.22.78.78 0 0 1 .19-.22.93.93 0 0 1-.34-.26.61.61 0 0 1-.12-.37.64.64 0 0 1 .24-.52.84.84 0 0 1 .6-.2.68.68 0 0 1 .2 0h.98v.21h-.52a.72.72 0 0 1 .12.21.66.66 0 0 1 0 .23.63.63 0 0 1-.24.5.8.8 0 0 1-.55.2h-.27a.34.34 0 0 0-.11.07.17.17 0 0 0 0 .25.23.23 0 0 0 .12.06.57.57 0 0 0 .15 0h.74a.54.54 0 0 1 .21.05.76.76 0 0 1 .21.26zm-.18.55a.46.46 0 0 0-.05-.21.33.33 0 0 0-.18-.11h-.72a.64.64 0 0 0-.34.16.39.39 0 0 0-.1.29.4.4 0 0 0 0 .15.29.29 0 0 0 .12.13.69.69 0 0 0 .21.1 1.47 1.47 0 0 0 .32 0 1 1 0 0 0 .52-.13.44.44 0 0 0 .22-.38zm-.43-1.87a.77.77 0 0 0-.1-.42.37.37 0 0 0-.3-.15.36.36 0 0 0-.19 0 .3.3 0 0 0-.12.13.43.43 0 0 0-.06.17.82.82 0 0 0 0 .22.66.66 0 0 0 .11.41.33.33 0 0 0 .28.16.35.35 0 0 0 .3-.16.7.7 0 0 0 .08-.36zM389.75 308.65a.28.28 0 0 1 .06-.18.2.2 0 0 1 .16-.07h.12a.22.22 0 0 1 .09.07l.07.09.07.1a.93.93 0 0 0 .26-.32 2.4 2.4 0 0 0 .23-.45c-.14-.35-.27-.67-.39-1s-.23-.58-.36-.88a.31.31 0 0 0-.14-.16.6.6 0 0 0-.2-.07v-.15h1v.16h-.16c-.07 0-.1 0-.1.05a.11.11 0 0 0 0 .05.14.14 0 0 1 0 .07l.27.64.27.67c.06-.16.13-.32.21-.5s.15-.37.24-.61l.05-.12a.35.35 0 0 0 0-.13s0-.07-.11-.1a.56.56 0 0 0-.19-.07v-.14h.82v.14a.62.62 0 0 0-.18.08.38.38 0 0 0-.16.19c-.18.41-.34.79-.48 1.13s-.24.59-.31.75-.18.38-.25.5a1.82 1.82 0 0 1-.22.28.59.59 0 0 1-.19.12.35.35 0 0 1-.17 0 .41.41 0 0 1-.28-.09.23.23 0 0 1-.03-.05zM347.44 311.38a.33.33 0 0 1-.05.2.2.2 0 0 1-.18.09.29.29 0 0 1-.19-.06.22.22 0 0 1-.06-.15v-.09-.08a.51.51 0 0 0-.25.09.78.78 0 0 0-.24.24v1.3a.28.28 0 0 0 0 .13.2.2 0 0 0 .1.07.26.26 0 0 0 .14 0h.16v.15h-1.17v-.15h.2a.13.13 0 0 0 .09-.07.25.25 0 0 0 0-.13v-1.37a.32.32 0 0 0 0-.14.24.24 0 0 0-.09-.11h-.23v-.14l.74-.05v.31a1.16 1.16 0 0 1 .31-.28.71.71 0 0 1 .31-.09.32.32 0 0 1 .24.09.39.39 0 0 1 .17.24zM349.66 312.8a1.28 1.28 0 0 1-.38.42.88.88 0 0 1-.53.16 1 1 0 0 1-.47-.1.85.85 0 0 1-.28-.28 1.25 1.25 0 0 1-.2-.38 1.76 1.76 0 0 1-.06-.46 1.25 1.25 0 0 1 .07-.43 1 1 0 0 1 .2-.37.95.95 0 0 1 .74-.36 1.08 1.08 0 0 1 .42.08.74.74 0 0 1 .28.21.73.73 0 0 1 .15.29 1.17 1.17 0 0 1 .05.38v.15h-1.46a1.56 1.56 0 0 0 0 .39 1 1 0 0 0 .13.32.58.58 0 0 0 .23.21.71.71 0 0 0 .34.07.64.64 0 0 0 .34-.09 1 1 0 0 0 .28-.34zm-.5-.85a2.45 2.45 0 0 0 0-.27.68.68 0 0 0-.07-.24.39.39 0 0 0-.14-.17.35.35 0 0 0-.23-.07.47.47 0 0 0-.39.2.82.82 0 0 0-.17.55zM352.07 313.28l-.19.06a.5.5 0 0 1-.18 0 .42.42 0 0 1-.28-.08.35.35 0 0 1-.13-.24 1.21 1.21 0 0 1-.32.25.82.82 0 0 1-.4.09.58.58 0 0 1-.41-.16.51.51 0 0 1-.16-.4.8.8 0 0 1 0-.23.54.54 0 0 1 .11-.18.44.44 0 0 1 .15-.12l.17-.09.41-.14a2.92 2.92 0 0 0 .42-.16v-.23a.59.59 0 0 0 0-.11.75.75 0 0 0 0-.16.57.57 0 0 0-.13-.14.39.39 0 0 0-.23-.07.65.65 0 0 0-.2 0 .31.31 0 0 0-.12.07 1.15 1.15 0 0 0 0 .14.88.88 0 0 1 0 .16.17.17 0 0 1-.07.14.26.26 0 0 1-.2.07.18.18 0 0 1-.16-.08.27.27 0 0 1 0-.18.31.31 0 0 1 .07-.2.79.79 0 0 1 .19-.17 1.33 1.33 0 0 1 .24-.11 1 1 0 0 1 .28 0 1.55 1.55 0 0 1 .33 0 .5.5 0 0 1 .26.11.47.47 0 0 1 .17.22 1 1 0 0 1 .06.37v1.12a.26.26 0 0 0 0 .14.2.2 0 0 0 .09.09h.26zm-.78-1.19a2.27 2.27 0 0 0-.34.11 1.13 1.13 0 0 0-.27.13.81.81 0 0 0-.18.19.49.49 0 0 0-.06.25.33.33 0 0 0 .1.27.35.35 0 0 0 .25.09.54.54 0 0 0 .28-.08.7.7 0 0 0 .2-.18zM354.77 313.28l-.77.05v-.21a1.06 1.06 0 0 1-.29.22.9.9 0 0 1-.36.08.94.94 0 0 1-.36-.08 1 1 0 0 1-.31-.24 1.07 1.07 0 0 1-.21-.38 1.43 1.43 0 0 1-.07-.48 1.21 1.21 0 0 1 .08-.46 1.14 1.14 0 0 1 .23-.38 1 1 0 0 1 .74-.33 1.54 1.54 0 0 1 .3 0 1.28 1.28 0 0 1 .26.1v-.77a.52.52 0 0 0 0-.18.27.27 0 0 0-.09-.12l-.17-.06h-.23v-.14l.91-.05v3a.25.25 0 0 0 0 .13.28.28 0 0 0 .09.1.35.35 0 0 0 .13 0h.14zm-.81-.39v-1.3a.38.38 0 0 0-.06-.13.64.64 0 0 0-.1-.13l-.15-.09a.65.65 0 0 0-.21 0 .48.48 0 0 0-.24.07.8.8 0 0 0-.21.2 1.75 1.75 0 0 0-.13.33 1.91 1.91 0 0 0 0 .43 1.72 1.72 0 0 0 0 .34 1.26 1.26 0 0 0 .12.29.55.55 0 0 0 .2.2.47.47 0 0 0 .29.08.56.56 0 0 0 .3-.08.85.85 0 0 0 .23-.21zM356.12 313.32h-1.07v-.15h.2a.14.14 0 0 0 .1-.07.25.25 0 0 0 0-.13v-1.37a.33.33 0 0 0 0-.14.41.41 0 0 0-.09-.1h-.27v-.14l.78-.05v1.81a.23.23 0 0 0 0 .13.2.2 0 0 0 .1.08.29.29 0 0 0 .1 0h.1zm-.28-3.13a.31.31 0 0 1-.09.22.23.23 0 0 1-.2.1.25.25 0 0 1-.2-.09.29.29 0 0 1-.09-.21.31.31 0 0 1 .09-.22.25.25 0 0 1 .2-.09.29.29 0 0 1 .21.09.28.28 0 0 1 .08.2zM358.9 313.32h-1.09v-.15h.22a.13.13 0 0 0 .09-.07.25.25 0 0 0 0-.13v-1.17a.53.53 0 0 0-.11-.37.32.32 0 0 0-.27-.13.54.54 0 0 0-.22 0 .56.56 0 0 0-.17.09.43.43 0 0 0-.12.11l-.07.1v1.28a.16.16 0 0 0 0 .12.18.18 0 0 0 .09.08.19.19 0 0 0 .1 0h.12v.15h-1.09v-.15h.2a.14.14 0 0 0 .1-.07.25.25 0 0 0 0-.13v-1.37a.33.33 0 0 0 0-.14.24.24 0 0 0-.09-.11h-.23v-.14l.74-.05v.31l.13-.13.15-.12a.61.61 0 0 1 .2-.09.71.71 0 0 1 .26 0 .56.56 0 0 1 .47.2.82.82 0 0 1 .16.53v1.16a.44.44 0 0 0 0 .13.21.21 0 0 0 .1.08h.2zM361.13 313.09a.85.85 0 0 1 .14.19.72.72 0 0 1 .05.27.6.6 0 0 1-.07.3.72.72 0 0 1-.21.25 1.19 1.19 0 0 1-.36.16 1.9 1.9 0 0 1-.52.06 1.48 1.48 0 0 1-.75-.15.46.46 0 0 1-.25-.43.43.43 0 0 1 .18-.36.81.81 0 0 1 .46-.15l-.14-.05-.13-.07a.31.31 0 0 1-.09-.11.38.38 0 0 1 0-.16.33.33 0 0 1 .09-.22.53.53 0 0 1 .25-.17.87.87 0 0 1-.33-.26.59.59 0 0 1-.12-.37.68.68 0 0 1 .23-.52.93.93 0 0 1 .61-.2h.2l.2.05h.77v.22h-.52a.71.71 0 0 1 .13.22.93.93 0 0 1 0 .23.62.62 0 0 1-.24.49.81.81 0 0 1-.55.21h-.28a.27.27 0 0 0-.1.06.16.16 0 0 0-.06.13.17.17 0 0 0 0 .13.24.24 0 0 0 .11.06h.85a.52.52 0 0 1 .21 0 .8.8 0 0 1 .24.19zm-.18.55a.33.33 0 0 0-.06-.21.28.28 0 0 0-.18-.11 1.14 1.14 0 0 0-.25 0H360a.6.6 0 0 0-.34.15.44.44 0 0 0-.11.29.33.33 0 0 0 0 .15.36.36 0 0 0 .11.14.63.63 0 0 0 .22.09 1 1 0 0 0 .32 0 .89.89 0 0 0 .52-.13.41.41 0 0 0 .28-.37zm-.43-1.87a.72.72 0 0 0-.11-.42.33.33 0 0 0-.3-.16.34.34 0 0 0-.18 0 .37.37 0 0 0-.12.13.75.75 0 0 0-.07.18 1.49 1.49 0 0 0 0 .21.71.71 0 0 0 .11.41.34.34 0 0 0 .29.16.32.32 0 0 0 .29-.16.67.67 0 0 0 .09-.35zM364.44 310.1a.34.34 0 0 1-.05.17.22.22 0 0 1-.17.07h-.12l-.1-.08a1 1 0 0 1-.08-.11c0-.05-.05-.08-.06-.11a.31.31 0 0 0-.24.21 2.06 2.06 0 0 0-.08.65v.23h.57v.22h-.57v1.6a.28.28 0 0 0 0 .13.2.2 0 0 0 .1.07.42.42 0 0 0 .14 0h.16v.15h-1.14v-.15h.2a.13.13 0 0 0 .09-.07.25.25 0 0 0 0-.13v-1.62h-.44v-.22h.44V311a1.26 1.26 0 0 1 .26-.82.84.84 0 0 1 .66-.32.51.51 0 0 1 .3.08.25.25 0 0 1 .13.16zM366.51 312.18a1.55 1.55 0 0 1-.08.47 1.17 1.17 0 0 1-.21.38 1 1 0 0 1-.36.27 1.11 1.11 0 0 1-.46.09 1.1 1.1 0 0 1-.4-.08 1 1 0 0 1-.34-.24 1.06 1.06 0 0 1-.23-.37 1.21 1.21 0 0 1-.09-.48 1.23 1.23 0 0 1 .3-.86 1 1 0 0 1 .8-.33 1 1 0 0 1 .77.31 1.17 1.17 0 0 1 .3.84zm-.47 0a2.38 2.38 0 0 0 0-.36 1.21 1.21 0 0 0-.1-.32.59.59 0 0 0-.19-.22.51.51 0 0 0-.58 0 .5.5 0 0 0-.2.23.8.8 0 0 0-.1.32 2 2 0 0 0 0 .34 2.6 2.6 0 0 0 0 .4 1.17 1.17 0 0 0 .11.33.61.61 0 0 0 .2.22.43.43 0 0 0 .28.09.52.52 0 0 0 .45-.28 1.44 1.44 0 0 0 .09-.74zM368.58 311.38a.34.34 0 0 1-.06.2.18.18 0 0 1-.17.09.27.27 0 0 1-.19-.06.19.19 0 0 1-.07-.15v-.09-.08a.45.45 0 0 0-.25.09.62.62 0 0 0-.24.24v1.3a.28.28 0 0 0 0 .13.22.22 0 0 0 .09.07.33.33 0 0 0 .15 0h.15v.15h-1.17v-.15h.28a.13.13 0 0 0 .09-.07.25.25 0 0 0 0-.13v-1.37a.32.32 0 0 0 0-.14.53.53 0 0 0-.09-.11H366.87v-.14l.74-.05v.31a1 1 0 0 1 .31-.28.67.67 0 0 1 .31-.09.3.3 0 0 1 .23.09.35.35 0 0 1 .12.24zM373 313.32h-1.3v-.16a1.16 1.16 0 0 0 .29-.05c.08 0 .11-.05.11-.08a.43.43 0 0 0 0-.05l-.27-.72h-1.13l-.1.28c0 .07-.05.15-.07.21v.16a.38.38 0 0 0 0 .1c0 .06 0 .11.14.14a1.4 1.4 0 0 0 .32.06v.16h-1.2v-.16h.14l.15-.05.14-.13a1.14 1.14 0 0 0 .09-.19c.16-.4.34-.85.53-1.35s.37-1 .52-1.34h.18l1.06 2.76a1 1 0 0 0 .08.15.63.63 0 0 0 .12.1l.13.06h.14zm-1.26-1.32l-.48-1.24-.48 1.24zM374.83 311.38a.42.42 0 0 1-.05.2.2.2 0 0 1-.18.09.29.29 0 0 1-.19-.06.22.22 0 0 1-.06-.15v-.09-.08a.48.48 0 0 0-.25.09.78.78 0 0 0-.24.24v1.3a.28.28 0 0 0 0 .13.2.2 0 0 0 .1.07.26.26 0 0 0 .14 0h.15v.15h-1.16v-.15h.2a.13.13 0 0 0 .09-.07.25.25 0 0 0 0-.13v-1.37a.32.32 0 0 0 0-.14.24.24 0 0 0-.09-.11h-.23v-.14l.74-.05v.31a1.16 1.16 0 0 1 .31-.28.71.71 0 0 1 .31-.09.29.29 0 0 1 .23.09.35.35 0 0 1 .18.24zM376.15 313.32h-1.07v-.15h.2a.13.13 0 0 0 .1-.07.25.25 0 0 0 0-.13v-1.37a.32.32 0 0 0 0-.14l-.1-.1h-.27v-.14l.78-.05v1.81a.23.23 0 0 0 0 .13.18.18 0 0 0 .09.08h.2zm-.28-3.13a.35.35 0 0 1-.08.22.27.27 0 0 1-.41 0 .28.28 0 0 1-.08-.21.3.3 0 0 1 .08-.22.27.27 0 0 1 .2-.09.29.29 0 0 1 .21.09.28.28 0 0 1 .08.21zM378.45 312.8a1.25 1.25 0 0 1-.37.42.93.93 0 0 1-.54.16 1 1 0 0 1-.47-.1 1 1 0 0 1-.33-.25 1 1 0 0 1-.19-.38 1.43 1.43 0 0 1-.07-.46 1.25 1.25 0 0 1 .07-.43 1.2 1.2 0 0 1 .2-.37.9.9 0 0 1 .32-.26.88.88 0 0 1 .43-.1 1 1 0 0 1 .41.08.67.67 0 0 1 .28.21.9.9 0 0 1 .16.29 1.52 1.52 0 0 1 0 .38v.15h-1.47a1.56 1.56 0 0 0 0 .39 1 1 0 0 0 .13.32.66.66 0 0 0 .23.21.74.74 0 0 0 .34.07.62.62 0 0 0 .42-.13 1 1 0 0 0 .28-.34zm-.45-.8a1.23 1.23 0 0 0 0-.27.52.52 0 0 0-.07-.24.39.39 0 0 0-.14-.17.33.33 0 0 0-.23-.07.47.47 0 0 0-.39.2.88.88 0 0 0-.17.55zM380.23 312.23a.52.52 0 0 1 .14.19.63.63 0 0 1 .05.26.64.64 0 0 1-.23.5.92.92 0 0 1-.6.2 1 1 0 0 1-.36-.07 1.44 1.44 0 0 1-.23-.13v.15h-.17v-.78h.15a.8.8 0 0 0 .08.21.77.77 0 0 0 .14.21.87.87 0 0 0 .21.17.6.6 0 0 0 .27.07.55.55 0 0 0 .34-.1.35.35 0 0 0 .11-.29.41.41 0 0 0 0-.16.6.6 0 0 0-.11-.12.76.76 0 0 0-.18-.09l-.24-.09-.24-.08a.91.91 0 0 1-.22-.13.62.62 0 0 1-.16-.2.45.45 0 0 1-.07-.27.6.6 0 0 1 .21-.46.73.73 0 0 1 .54-.19 1.15 1.15 0 0 1 .26 0 .85.85 0 0 1 .23.09l.05-.12h.16v.71h-.15a.68.68 0 0 0-.21-.39.52.52 0 0 0-.38-.15.44.44 0 0 0-.29.09.3.3 0 0 0-.1.23.43.43 0 0 0 0 .17.38.38 0 0 0 .11.11l.17.09.25.09.28.11a.93.93 0 0 1 .19.17z" fill="#fff"/><path fill="#333" d="M404.23 300.71h19.34v17.5h-19.34z"/><path d="M424.07 318.71h-20.34v-18.49h20.34zm-19.34-1h18.34v-16.5h-18.34z" fill="#a5802a"/><path fill="#a5802a" d="M408.24 308.97h6.13v1h-6.13z"/><path d="M419.16 309.47a23.84 23.84 0 0 0-6.78 3.77l1.36-3.77-1.36-3.78a24.11 24.11 0 0 0 6.78 3.78z" fill="#a5802a"/><path fill="#262626" stroke="#a5802a" stroke-miterlimit="10" stroke-width="2" d="M15.81 65.3h231.23v168.33H15.81z"/><path fill="#262626" stroke="#a5802a" stroke-miterlimit="10" stroke-width="2" d="M15.81 65.3h231.23v23.91H15.81z"/><path fill="#494949" d="M45.86 98.8h108.61v122.13H45.86zM162.98 98.8h54.01v57.6h-54.01zM162.98 164.09h54.01v57.6h-54.01z"/><path d="M75 80.82h-1.13l-1.33-2.23c-.12-.2-.24-.38-.35-.53a2.34 2.34 0 0 0-.36-.35 1.3 1.3 0 0 0-.38-.21 1.73 1.73 0 0 0-.47-.06h-.77v3.38h-.93v-7.95h2.37a3.35 3.35 0 0 1 1 .13 2.11 2.11 0 0 1 .76.39 1.79 1.79 0 0 1 .51.67 2.2 2.2 0 0 1 .18.93 2.33 2.33 0 0 1-.12.76 1.83 1.83 0 0 1-.36.62 2.24 2.24 0 0 1-.55.46 2.8 2.8 0 0 1-.73.3 2.3 2.3 0 0 1 .35.2 3.5 3.5 0 0 1 .28.27l.26.35.29.46zm-4.77-7.11v2.89h1.27a1.91 1.91 0 0 0 .64-.11 1.58 1.58 0 0 0 .52-.3 1.32 1.32 0 0 0 .34-.49 1.47 1.47 0 0 0 .13-.64 1.23 1.23 0 0 0-.42-1 1.75 1.75 0 0 0-1.19-.36zM80.21 78.21h-4a2.21 2.21 0 0 0 .51 1.47 1.79 1.79 0 0 0 1.35.51 2.77 2.77 0 0 0 1.76-.63v.85a3.25 3.25 0 0 1-2 .55 2.39 2.39 0 0 1-1.89-.78 3.63 3.63 0 0 1 .06-4.34 2.44 2.44 0 0 1 1.87-.84 2.16 2.16 0 0 1 1.73.72 3 3 0 0 1 .61 2zm-.94-.77a1.83 1.83 0 0 0-.38-1.23 1.29 1.29 0 0 0-1-.44 1.49 1.49 0 0 0-1.09.46 2.1 2.1 0 0 0-.56 1.21zM85.65 80.82h-.91v-.88A1.91 1.91 0 0 1 83 81a1.86 1.86 0 0 1-1.33-.45 1.57 1.57 0 0 1-.48-1.2c0-1.06.63-1.67 1.88-1.85l1.7-.24c0-1-.39-1.45-1.17-1.45a2.81 2.81 0 0 0-1.85.7v-.93a3.54 3.54 0 0 1 1.9-.58c1.33 0 2 .7 2 2.12zM84.74 78l-1.37.19a2.3 2.3 0 0 0-1 .31.92.92 0 0 0-.32.8.87.87 0 0 0 .3.68 1.17 1.17 0 0 0 .79.26 1.49 1.49 0 0 0 1.12-.47 1.72 1.72 0 0 0 .44-1.2zM92.22 80.82h-.91v-1a2.1 2.1 0 0 1-2 1.1 2.13 2.13 0 0 1-1.71-.77 3.09 3.09 0 0 1-.6-2.03 3.36 3.36 0 0 1 .71-2.26 2.32 2.32 0 0 1 1.87-.86 1.82 1.82 0 0 1 1.7.92v-3.51h.91zm-.91-2.57v-.83a1.66 1.66 0 0 0-.46-1.17 1.52 1.52 0 0 0-1.15-.48 1.57 1.57 0 0 0-1.31.61 2.67 2.67 0 0 0-.48 1.69 2.37 2.37 0 0 0 .46 1.55 1.48 1.48 0 0 0 1.23.57 1.53 1.53 0 0 0 1.23-.55 2 2 0 0 0 .48-1.39zM94.53 73.7a.57.57 0 0 1-.42-.17.59.59 0 0 1 .42-1 .57.57 0 0 1 .42.17.54.54 0 0 1 .17.42.57.57 0 0 1-.17.42.61.61 0 0 1-.42.16zm.47 7.12h-.91v-5.68H95zM101.53 80.82h-.91v-3.24c0-1.2-.44-1.81-1.32-1.81a1.44 1.44 0 0 0-1.13.52 1.88 1.88 0 0 0-.45 1.29v3.24h-.91v-5.68h.91v.94A2.06 2.06 0 0 1 99.61 75a1.75 1.75 0 0 1 1.43.6 2.67 2.67 0 0 1 .49 1.74zM108.1 80.37q0 3.13-3 3.13a4 4 0 0 1-1.84-.4v-.91a3.72 3.72 0 0 0 1.83.53c1.4 0 2.09-.74 2.09-2.23v-.62a2.3 2.3 0 0 1-3.66.33 3 3 0 0 1-.64-2 3.57 3.57 0 0 1 .69-2.31 2.33 2.33 0 0 1 1.91-.85 1.86 1.86 0 0 1 1.7.92v-.79h.92zm-.92-2.12v-.83a1.64 1.64 0 0 0-.45-1.16 1.5 1.5 0 0 0-1.14-.49 1.56 1.56 0 0 0-1.32.62 2.72 2.72 0 0 0-.48 1.71 2.32 2.32 0 0 0 .46 1.52 1.47 1.47 0 0 0 1.21.57 1.58 1.58 0 0 0 1.24-.54 2 2 0 0 0 .48-1.4zM109.59 80.62v-1a2.7 2.7 0 0 0 1.64.55c.8 0 1.2-.26 1.2-.8a.65.65 0 0 0-.1-.38.93.93 0 0 0-.28-.28 2 2 0 0 0-.41-.22l-.51-.2c-.25-.11-.47-.21-.66-.31a2 2 0 0 1-.48-.34 1.3 1.3 0 0 1-.29-.44 1.61 1.61 0 0 1-.1-.57 1.39 1.39 0 0 1 .19-.71 1.59 1.59 0 0 1 .49-.51 2.19 2.19 0 0 1 .69-.32 3.1 3.1 0 0 1 .81-.1 3.27 3.27 0 0 1 1.32.25v.92a2.61 2.61 0 0 0-1.44-.41 1.6 1.6 0 0 0-.46.06 1 1 0 0 0-.35.17.68.68 0 0 0-.23.25.59.59 0 0 0-.08.32.74.74 0 0 0 .08.38.92.92 0 0 0 .23.26 1.71 1.71 0 0 0 .38.21l.51.21a6.11 6.11 0 0 1 .67.29 2.53 2.53 0 0 1 .51.35 1.41 1.41 0 0 1 .33.44 1.51 1.51 0 0 1 .11.59 1.45 1.45 0 0 1-.18.74 1.62 1.62 0 0 1-.5.51 2.34 2.34 0 0 1-.72.31 3.88 3.88 0 0 1-.85.1 3.19 3.19 0 0 1-1.52-.32zM120.68 73.21a1.21 1.21 0 0 0-.6-.15q-1 0-1 1.2v.88h1.33v.78h-1.33v4.9h-.9v-4.9h-1v-.78h1v-.92a1.91 1.91 0 0 1 .51-1.41 1.75 1.75 0 0 1 1.29-.52 1.7 1.7 0 0 1 .66.1zM124.4 76.06a1.13 1.13 0 0 0-.69-.18 1.16 1.16 0 0 0-1 .55 2.54 2.54 0 0 0-.39 1.5v2.89h-.91v-5.68h.91v1.17a1.93 1.93 0 0 1 .6-.93 1.31 1.31 0 0 1 .89-.34 1.56 1.56 0 0 1 .55.08zM127.61 81a2.64 2.64 0 0 1-2-.8 2.94 2.94 0 0 1-.75-2.11 3.1 3.1 0 0 1 .78-2.24 2.82 2.82 0 0 1 2.11-.8 2.57 2.57 0 0 1 2 .78 3.13 3.13 0 0 1 .71 2.17 3.07 3.07 0 0 1-.77 2.18 2.71 2.71 0 0 1-2.08.82zm.07-5.19a1.72 1.72 0 0 0-1.39.6 2.47 2.47 0 0 0-.51 1.65 2.34 2.34 0 0 0 .51 1.59 1.77 1.77 0 0 0 1.39.58 1.65 1.65 0 0 0 1.35-.57 2.46 2.46 0 0 0 .48-1.63 2.51 2.51 0 0 0-.48-1.64 1.66 1.66 0 0 0-1.35-.62zM140 80.82h-.91v-3.26a2.39 2.39 0 0 0-.29-1.36 1.08 1.08 0 0 0-1-.43 1.2 1.2 0 0 0-1 .54 2 2 0 0 0-.41 1.27v3.24h-.91v-3.37q0-1.68-1.29-1.68a1.2 1.2 0 0 0-1 .51 2.05 2.05 0 0 0-.39 1.3v3.24h-.91v-5.68h.91V76a1.92 1.92 0 0 1 1.76-1 1.7 1.7 0 0 1 1 .32 1.65 1.65 0 0 1 .59.85 2 2 0 0 1 1.94-1.17c1.25 0 1.87.77 1.87 2.31zM147.43 80.77a1.7 1.7 0 0 1-.85.18c-1 0-1.49-.56-1.49-1.67v-3.36h-1v-.78h1v-1.39l.91-.29v1.68h1.43v.78H146v3.2a1.35 1.35 0 0 0 .2.82.77.77 0 0 0 .64.24.91.91 0 0 0 .59-.19zM153.37 80.82h-.91v-3.27c0-1.18-.44-1.78-1.33-1.78a1.47 1.47 0 0 0-1.12.52 1.92 1.92 0 0 0-.45 1.32v3.21h-.91v-8.41h.91v3.67a2.08 2.08 0 0 1 1.89-1.08q1.92 0 1.92 2.31zM159.65 78.21h-4a2.11 2.11 0 0 0 .51 1.47 1.76 1.76 0 0 0 1.34.51 2.77 2.77 0 0 0 1.76-.63v.85a3.23 3.23 0 0 1-2 .55 2.39 2.39 0 0 1-1.89-.78 3.14 3.14 0 0 1-.69-2.17 3.09 3.09 0 0 1 .76-2.17 2.42 2.42 0 0 1 1.86-.83 2.14 2.14 0 0 1 1.73.72 3 3 0 0 1 .61 2zm-.93-.77a1.88 1.88 0 0 0-.38-1.23 1.31 1.31 0 0 0-1-.44 1.51 1.51 0 0 0-1.1.46 2.09 2.09 0 0 0-.55 1.21zM169.46 73.09L164.79 80h4.55v.84h-5.94v-.26l4.6-6.87h-4.25v-.84h5.69zM173 81a2.64 2.64 0 0 1-2-.8 2.91 2.91 0 0 1-.76-2.11 3.06 3.06 0 0 1 .79-2.24 2.82 2.82 0 0 1 2.11-.8 2.53 2.53 0 0 1 2 .78 3.55 3.55 0 0 1-.05 4.35A2.71 2.71 0 0 1 173 81zm.06-5.19a1.72 1.72 0 0 0-1.38.6 2.47 2.47 0 0 0-.52 1.65 2.34 2.34 0 0 0 .52 1.59 1.76 1.76 0 0 0 1.38.58 1.68 1.68 0 0 0 1.36-.57 2.46 2.46 0 0 0 .47-1.63 2.5 2.5 0 0 0-.47-1.64 1.68 1.68 0 0 0-1.36-.62zM182.13 80.82h-.91v-1a2.1 2.1 0 0 1-1.95 1.1 2.14 2.14 0 0 1-1.72-.77 3.14 3.14 0 0 1-.64-2.07 3.42 3.42 0 0 1 .71-2.26 2.35 2.35 0 0 1 1.9-.85 1.83 1.83 0 0 1 1.7.92v-3.48h.91zm-.91-2.57v-.83a1.65 1.65 0 0 0-.45-1.17 1.54 1.54 0 0 0-1.16-.48 1.6 1.6 0 0 0-1.31.61 2.67 2.67 0 0 0-.47 1.69 2.42 2.42 0 0 0 .45 1.55 1.51 1.51 0 0 0 1.23.57 1.55 1.55 0 0 0 1.24-.55 2.07 2.07 0 0 0 .47-1.39zM184.44 73.7a.57.57 0 0 1-.41-.17.58.58 0 0 1 0-.84.53.53 0 0 1 .41-.17.58.58 0 0 1 .6.59.61.61 0 0 1-.17.42.61.61 0 0 1-.43.17zm.44 7.12H184v-5.68h.91zM190.8 80.82h-.91v-.88a1.9 1.9 0 0 1-1.74 1 1.86 1.86 0 0 1-1.33-.45 1.57 1.57 0 0 1-.48-1.2c0-1.06.62-1.67 1.87-1.85l1.71-.24c0-1-.39-1.45-1.18-1.45a2.83 2.83 0 0 0-1.85.7v-.93a3.56 3.56 0 0 1 1.93-.53c1.34 0 2 .7 2 2.12zm-.91-2.82l-1.38.19a2.25 2.25 0 0 0-.95.31.92.92 0 0 0-.32.8.87.87 0 0 0 .3.68 1.16 1.16 0 0 0 .79.26 1.46 1.46 0 0 0 1.11-.47 1.69 1.69 0 0 0 .45-1.2zM196.38 80.56a2.86 2.86 0 0 1-1.55.4 2.6 2.6 0 0 1-2-.79 2.86 2.86 0 0 1-.75-2 3.15 3.15 0 0 1 .81-2.26 2.79 2.79 0 0 1 2.15-.85 2.94 2.94 0 0 1 1.32.28v.93a2.33 2.33 0 0 0-1.36-.45 1.82 1.82 0 0 0-1.43.63 2.36 2.36 0 0 0-.56 1.64 2.24 2.24 0 0 0 .53 1.57 1.8 1.8 0 0 0 1.41.58 2.25 2.25 0 0 0 1.39-.49z" fill="#fff"/><path fill="#262626" stroke="#a5802a" stroke-miterlimit="10" stroke-width="2" d="M39.1 118.38h186.88v56.6H39.1z"/><text transform="translate(75.81 134.85)" font-size="10.56" fill="#fff" font-family="Georgia, Georgia" letter-spacing=".01em">The Zodiac would like to <tspan x="-8.9" y="12.32">send you push notifications!</tspan></text><path fill="#a5802a" stroke="#a5802a" stroke-miterlimit="10" stroke-width="2" d="M39.1 158.19h93.44v16.79H39.1z"/><path fill="#262626" stroke="#a5802a" stroke-miterlimit="10" stroke-width="2" d="M132.54 158.19h93.44v16.79h-93.44z"/><text transform="translate(74.57 169.46)" font-size="8.8" font-family="Georgia, Georgia" letter-spacing=".01em">Allow</text><text transform="translate(164.31 169.46)" font-size="8.8" fill="#fff" font-family="Georgia, Georgia" letter-spacing=".01em">Decline</text><path d="M240.23 142.75h-.2a.64.64 0 0 1-.18-.06.76.76 0 0 1-.18-.09l-.15-.12a1.15 1.15 0 0 1-.21-.33.94.94 0 0 1 0-.76.93.93 0 0 1 .21-.33l.15-.12a.76.76 0 0 1 .18-.09.64.64 0 0 1 .18-.06.86.86 0 0 1 .39 0 .6.6 0 0 1 .19.06.56.56 0 0 1 .17.09 1 1 0 0 1 .16.12.93.93 0 0 1 .21.33.94.94 0 0 1 0 .76 1 1 0 0 1-.21.33l-.16.12a.56.56 0 0 1-.17.09.6.6 0 0 1-.19.06zM374 141.75a1 1 0 0 1 1-1 1 1 0 0 1 1 1 1 1 0 0 1-1 1 1 1 0 0 1-1-1zm-6.13 0a1 1 0 0 1 1-1 1 1 0 0 1 1 1 1 1 0 0 1-1 1 1 1 0 0 1-1-1zm-6.12 0a1 1 0 0 1 1-1 1 1 0 0 1 1 1 1 1 0 0 1-1 1 1 1 0 0 1-1-1zm-6.13 0a1 1 0 0 1 1-1 1 1 0 0 1 1 1 1 1 0 0 1-1 1 1 1 0 0 1-1-1zm-6.12 0a1 1 0 0 1 1-1 1 1 0 0 1 1 1 1 1 0 0 1-1 1 1 1 0 0 1-1-1zm-6.13 0a1 1 0 0 1 1-1 1 1 0 0 1 1 1 1 1 0 0 1-1 1 1 1 0 0 1-1-1zm-6.12 0a1 1 0 0 1 1-1 1 1 0 0 1 1 1 1 1 0 0 1-1 1 1 1 0 0 1-1-1zm-6.13 0a1 1 0 0 1 1-1 1 1 0 0 1 1 1 1 1 0 0 1-1 1 1 1 0 0 1-1-1zm-6.13 0a1 1 0 0 1 1-1 1 1 0 0 1 1 1 1 1 0 0 1-1 1 1 1 0 0 1-.99-1zm-6.12 0a1 1 0 0 1 1-1 1 1 0 0 1 1 1 1 1 0 0 1-1 1 1 1 0 0 1-1-1zm-6.13 0a1 1 0 0 1 1-1 1 1 0 0 1 1 1 1 1 0 0 1-1 1 1 1 0 0 1-1-1zm-6.12 0a1 1 0 0 1 1-1 1 1 0 0 1 1 1 1 1 0 0 1-1 1 1 1 0 0 1-1-1zm-6.13 0a1 1 0 0 1 1-1 1 1 0 0 1 1 1 1 1 0 0 1-1 1 1 1 0 0 1-1-1zm-6.13 0a1 1 0 0 1 1-1 1 1 0 0 1 1 1 1 1 0 0 1-1 1 1 1 0 0 1-1-1zm-6.12 0a1 1 0 0 1 1-1 1 1 0 0 1 1 1 1 1 0 0 1-1 1 1 1 0 0 1-1-1zm-6.13 0a1 1 0 0 1 1-1 1 1 0 0 1 1 1 1 1 0 0 1-1 1 1 1 0 0 1-1-1zm-6.12 0a1 1 0 0 1 1-1 1 1 0 0 1 1 1 1 1 0 0 1-1 1 1 1 0 0 1-.99-1zm-6.13 0a1 1 0 0 1 1-1 1 1 0 0 1 1 1 1 1 0 0 1-1 1 1 1 0 0 1-1-1zm-6.12 0a1 1 0 0 1 1-1 1 1 0 0 1 1 1 1 1 0 0 1-1 1 1 1 0 0 1-1-1zm-6.13 0a1 1 0 0 1 1-1 1 1 0 0 1 1 1 1 1 0 0 1-1 1 1 1 0 0 1-1-1zm-6.13 0a1 1 0 0 1 1-1 1 1 0 0 1 1 1 1 1 0 0 1-1 1 1 1 0 0 1-1-1zm-6.12 0a1 1 0 0 1 1-1 1 1 0 0 1 1 1 1 1 0 0 1-1 1 1 1 0 0 1-1-1zM381.13 142.75a1.05 1.05 0 0 1-.71-.29 1 1 0 0 1 0-1.42 1 1 0 0 1 .9-.27.6.6 0 0 1 .19.06.56.56 0 0 1 .17.09.61.61 0 0 1 .15.12.83.83 0 0 1 .22.33 1 1 0 0 1-.22 1.09 1 1 0 0 1-.7.29zM380.13 224.1a1 1 0 0 1 1-1 1 1 0 0 1 1 1 1 1 0 0 1-1 1 1 1 0 0 1-1-1zm0-5.88a1 1 0 0 1 1-1 1 1 0 0 1 1 1 1 1 0 0 1-1 1 1 1 0 0 1-1-1zm0-5.89a1 1 0 0 1 1-1 1 1 0 0 1 1 1 1 1 0 0 1-1 1 1 1 0 0 1-1-1zm0-5.88a1 1 0 0 1 1-1 1 1 0 0 1 1 1 1 1 0 0 1-1 1 1 1 0 0 1-1-1zm0-5.88a1 1 0 0 1 1-1 1 1 0 0 1 1 1 1 1 0 0 1-1 1 1 1 0 0 1-1-1zm0-5.88a1 1 0 0 1 1-1 1 1 0 0 1 1 1 1 1 0 0 1-1 1 1 1 0 0 1-1-1zm0-5.88a1 1 0 0 1 1-1 1 1 0 0 1 1 1 1 1 0 0 1-1 1 1 1 0 0 1-1-1zm0-5.89a1 1 0 0 1 1-1 1 1 0 0 1 1 1 1 1 0 0 1-1 1 1 1 0 0 1-1-1zm0-5.88a1 1 0 0 1 1-1 1 1 0 0 1 1 1 1 1 0 0 1-1 1 1 1 0 0 1-1-1.04zm0-5.88a1 1 0 0 1 1-1 1 1 0 0 1 1 1 1 1 0 0 1-1 1 1 1 0 0 1-1-1zm0-5.88a1 1 0 0 1 1-1 1 1 0 0 1 1 1 1 1 0 0 1-1 1 1 1 0 0 1-1-1zm0-5.88a1 1 0 0 1 1-1 1 1 0 0 1 1 1 1 1 0 0 1-1 1 1 1 0 0 1-1-1zm0-5.89a1 1 0 0 1 1-1 1 1 0 0 1 1 1 1 1 0 0 1-1 1 1 1 0 0 1-1-1zm0-5.88a1 1 0 0 1 1-1 1 1 0 0 1 1 1 1 1 0 0 1-1 1 1 1 0 0 1-1-1zM381.13 231a1.05 1.05 0 0 1-.71-.29 1 1 0 0 1 0-1.42 1 1 0 0 1 .9-.27.6.6 0 0 1 .19.06.56.56 0 0 1 .17.09.61.61 0 0 1 .15.12.83.83 0 0 1 .22.33 1 1 0 0 1-.22 1.09 1 1 0 0 1-.7.29z" fill="#a5802a"/><path d="M228.16 141.75c5.68 2.11 12.73 5.7 17.09 9.51l-3.44-9.51 3.44-9.51c-4.36 3.81-11.41 7.4-17.09 9.51zM381.13 242.05c-2.11-5.68-5.71-12.73-9.51-17.09l9.51 3.44 9.51-3.44c-3.81 4.36-7.41 11.41-9.51 17.09zM81.69 179.26A1 1 0 0 1 81 179a1 1 0 0 1-.29-.7 1.07 1.07 0 0 1 .07-.39 1 1 0 0 1 .22-.32 1 1 0 0 1 1.41 0 .87.87 0 0 1 .22.32 1.09 1.09 0 0 1 .08.39 1 1 0 0 1-.3.7 1 1 0 0 1-.72.26zM80.69 285.87a1 1 0 0 1 1-1 1 1 0 0 1 1 1 1 1 0 0 1-1 1 1 1 0 0 1-1-1zm0-6a1 1 0 0 1 1-1 1 1 0 0 1 1 1 1 1 0 0 1-1 1 1 1 0 0 1-1-.98zm0-6a1 1 0 0 1 1-1 1 1 0 0 1 1 1 1 1 0 0 1-1 1 1 1 0 0 1-1-.96zm0-6a1 1 0 0 1 1-1 1 1 0 0 1 1 1 1 1 0 0 1-1 1 1 1 0 0 1-1-.93zm0-6a1 1 0 0 1 1-1 1 1 0 0 1 1 1 1 1 0 0 1-1 1 1 1 0 0 1-1-.87zm0-6a1 1 0 0 1 1-1 1 1 0 0 1 1 1 1 1 0 0 1-1 1 1 1 0 0 1-1-.87zm0-6a1 1 0 0 1 1-1 1 1 0 0 1 1 1 1 1 0 0 1-1 1 1 1 0 0 1-1-.87zm0-6a1 1 0 0 1 1-1 1 1 0 0 1 1 1 1 1 0 0 1-1 1 1 1 0 0 1-1-.87zm0-6a1 1 0 0 1 1-1 1 1 0 0 1 1 1 1 1 0 0 1-1 1 1 1 0 0 1-1-.87zm0-6a1 1 0 0 1 1-1 1 1 0 0 1 1 1 1 1 0 0 1-1 1 1 1 0 0 1-1-.81zm0-6a1 1 0 0 1 1-1 1 1 0 0 1 1 1 1 1 0 0 1-1 1 1 1 0 0 1-1-.79zm0-6a1 1 0 0 1 1-1 1 1 0 0 1 1 1 1 1 0 0 1-1 1 1 1 0 0 1-1-.76zm0-6a1 1 0 0 1 1-1 1 1 0 0 1 1 1 1 1 0 0 1-1 1 1 1 0 0 1-1-.74zm0-6a1 1 0 0 1 1-1 1 1 0 0 1 1 1 1 1 0 0 1-1 1 1 1 0 0 1-1-.72zm0-6a1 1 0 0 1 1-1 1 1 0 0 1 1 1 1 1 0 0 1-1 1 1 1 0 0 1-1-.7zm0-6a1 1 0 0 1 1-1 1 1 0 0 1 1 1 1 1 0 0 1-1 1 1 1 0 0 1-1-.68zm0-6a1 1 0 0 1 1-1 1 1 0 0 1 1 1 1 1 0 0 1-1 1 1 1 0 0 1-1-.66zm0-6a1 1 0 0 1 1-1 1 1 0 0 1 1 1 1 1 0 0 1-1 1 1 1 0 0 1-1-.64zM81.69 292.85a1 1 0 0 1-.71-.29 1 1 0 0 1-.29-.71 1 1 0 0 1 .29-.71 1 1 0 0 1 1.41 0 1 1 0 0 1 .3.71 1 1 0 0 1-1 1zM263.55 291.85a1 1 0 0 1 1-1 1 1 0 0 1 1 1 1 1 0 0 1-1 1 1 1 0 0 1-1-1zm-6.09 0a1 1 0 0 1 1-1 1 1 0 0 1 1 1 1 1 0 0 1-1 1 1 1 0 0 1-1-1zm-6.1 0a1 1 0 0 1 1-1 1 1 0 0 1 1 1 1 1 0 0 1-1 1 1 1 0 0 1-1-1zm-6.09 0a1 1 0 0 1 1-1 1 1 0 0 1 1 1 1 1 0 0 1-1 1 1 1 0 0 1-1-1zm-6.1 0a1 1 0 0 1 1-1 1 1 0 0 1 1 1 1 1 0 0 1-1 1 1 1 0 0 1-1-1zm-6.1 0a1 1 0 0 1 1-1 1 1 0 0 1 1 1 1 1 0 0 1-1 1 1 1 0 0 1-1-1zm-6.09 0a1 1 0 0 1 1-1 1 1 0 0 1 1 1 1 1 0 0 1-1 1 1 1 0 0 1-.98-1zm-6.1 0a1 1 0 0 1 1-1 1 1 0 0 1 1 1 1 1 0 0 1-1 1 1 1 0 0 1-1-1zm-6.09 0a1 1 0 0 1 1-1 1 1 0 0 1 1 1 1 1 0 0 1-1 1 1 1 0 0 1-1-1zm-6.1 0a1 1 0 0 1 1-1 1 1 0 0 1 1 1 1 1 0 0 1-1 1 1 1 0 0 1-1-1zm-6.09 0a1 1 0 0 1 1-1 1 1 0 0 1 1 1 1 1 0 0 1-1 1 1 1 0 0 1-1-1zm-6.1 0a1 1 0 0 1 1-1 1 1 0 0 1 1 1 1 1 0 0 1-1 1 1 1 0 0 1-1-1zm-6.1 0a1 1 0 0 1 1-1 1 1 0 0 1 1 1 1 1 0 0 1-1 1 1 1 0 0 1-1-1zm-6.09 0a1 1 0 0 1 1-1 1 1 0 0 1 1 1 1 1 0 0 1-1 1 1 1 0 0 1-1-1zm-6.1 0a1 1 0 0 1 1-1 1 1 0 0 1 1 1 1 1 0 0 1-1 1 1 1 0 0 1-1-1zm-6.09 0a1 1 0 0 1 1-1 1 1 0 0 1 1 1 1 1 0 0 1-1 1 1 1 0 0 1-1-1zm-6.1 0a1 1 0 0 1 1-1 1 1 0 0 1 1 1 1 1 0 0 1-1 1 1 1 0 0 1-1.02-1zm-6.09 0a1 1 0 0 1 1-1 1 1 0 0 1 1 1 1 1 0 0 1-1 1 1 1 0 0 1-1-1zm-6.1 0a1 1 0 0 1 1-1 1 1 0 0 1 1 1 1 1 0 0 1-1 1 1 1 0 0 1-1-1zm-6.1 0a1 1 0 0 1 1-1 1 1 0 0 1 1 1 1 1 0 0 1-1 1 1 1 0 0 1-1-1zm-6.09 0a1 1 0 0 1 1-1 1 1 0 0 1 1 1 1 1 0 0 1-1 1 1 1 0 0 1-1-1zm-6.09 0a1 1 0 0 1 1-1 1 1 0 0 1 1 1 1 1 0 0 1-1 1 1 1 0 0 1-1-1zm-6.1 0a1 1 0 0 1 1-1 1 1 0 0 1 1 1 1 1 0 0 1-1 1 1 1 0 0 1-1-1zm-6.1 0a1 1 0 0 1 1-1 1 1 0 0 1 1 1 1 1 0 0 1-1 1 1 1 0 0 1-1-1zm-6.09 0a1 1 0 0 1 1-1 1 1 0 0 1 1 1 1 1 0 0 1-1 1 1 1 0 0 1-1-1zm-6.1 0a1 1 0 0 1 1-1 1 1 0 0 1 1 1 1 1 0 0 1-1 1 1 1 0 0 1-1-1zm-6.09 0a1 1 0 0 1 1-1 1 1 0 0 1 1 1 1 1 0 0 1-1 1 1 1 0 0 1-1-1zm-6.1 0a1 1 0 0 1 1-1 1 1 0 0 1 1 1 1 1 0 0 1-1 1 1 1 0 0 1-.97-1zm-6.09 0a1 1 0 0 1 1-1 1 1 0 0 1 1 1 1 1 0 0 1-1 1 1 1 0 0 1-1-1zm-6.1 0a1 1 0 0 1 1-1 1 1 0 0 1 1 1 1 1 0 0 1-1 1 1 1 0 0 1-1-1zM270.65 292.85a1 1 0 0 1-.71-.29 1 1 0 0 1 0-1.42 1 1 0 0 1 1.41 0 1 1 0 0 1-.7 1.71z" fill="#a5802a"/><path d="M282.72 291.85c-5.68 2.11-12.73 5.7-17.1 9.51l3.44-9.51-3.44-9.51c4.38 3.81 11.38 7.41 17.1 9.51z" fill="#a5802a"/></g></svg>