<svg xmlns="http://www.w3.org/2000/svg" viewBox="0 0 360.18 381.43"><g data-name="Comp 1"><path d="M185.54 65.81l3.63-8.38-8.33-5.84-6.69 6.34a20.48 20.48 0 0 0-2.27-.59l-2.74-9.2L159 49l-1.11 9.66c-.56.23-1.11.49-1.65.77l-8.42-5.56-7.19 7.19 5.56 8.42c-.23.43-.43.87-.62 1.31L135.21 72l-.89 10.13 9.73 2.9c.1.45.2.91.32 1.36L137.18 94l5.84 8.33 9-3.92c.44.36.9.71 1.36 1l-.61 10.12 9.83 2.64 4.2-8.41c.75 0 1.49 0 2.23-.09l5.74 7.74 9.22-4.3-1.99-8.63c.58-.49 1.15-1 1.7-1.55l.3-.31 8.9 2.13 4.3-9.22-7-5.18a23.94 23.94 0 0 0 .33-2.92l8-4-2.63-9.82-8.78.52a24.84 24.84 0 0 0-1.58-2.32zm-8.76 4.79a13.75 13.75 0 1 1-19.44 0 13.78 13.78 0 0 1 19.44 0zM216 32.1l1.85-4.27-4.24-3-3.41 3.23c-.38-.12-.76-.22-1.15-.31l-1.39-4.67-5.16.45-.56 4.91q-.43.18-.84.39L196.8 26l-3.66 3.66L196 34c-.11.22-.21.44-.31.66l-5.28.61-.45 5.16 5 1.47c0 .23.1.46.17.69l-3.66 3.87 3 4.24 4.61-2c.23.19.46.36.69.53l-.31 5.15 5 1.34 2.14-4.28a10.57 10.57 0 0 0 1.13 0l2.92 3.94 4.69-2.19-1.05-4.41c.3-.25.59-.51.87-.79l.15-.16 4.53 1.08 2.19-4.69-3.56-2.63a10.62 10.62 0 0 0 .17-1.49l4.08-2-1.34-5-4.46.27q-.5-.7-.92-1.27zm-4.46 2.43a7 7 0 1 1-9.89 0 7 7 0 0 1 9.87 0z" fill="#a5802a"/><circle cx="272.64" cy="105.98" r="71.57" fill="#a5802a" stroke="#a5802a" stroke-miterlimit="10" stroke-width="2"/><path d="M341.34 85.34h-.09c-.11-.29-.21-.58-.32-.88-.44-1.27-.89-2.54-1.31-3.82-.14-.41-.34-.62-.8-.56s-.7 0-1 0a3.09 3.09 0 0 1-3.54-1.54 3.72 3.72 0 0 1-.5-1.18c-.16-.8-.22-1.62-.32-2.5-1.12.45-2.12.83-2.26 2.24a20.45 20.45 0 0 1-.67 2.74 35 35 0 0 1-2.61-2.85 3 3 0 0 1-.21-1.68 2 2 0 0 0-.93-1.94 5.5 5.5 0 0 1-1.49-1.3c-1.14-1.58-2.74-1.23-4.38-1.18.32.87.58 1.7.91 2.5a1.36 1.36 0 0 0 .57.51c.91.53 1.85 1 2.76 1.56a11.35 11.35 0 0 1 1.14.89c-.9.29-.85.9-.82 1.52 0 .38.05 1-.15 1.1a4 4 0 0 1-1.9.67c-1.22 0-1.47-.28-2.08-1.51.95-.36 2.34.72 3-.93-1.2-.81-2.41-1.6-3.59-2.44-1-.71-2.39-1.11-2.23-3-.72.64-1.24 1-1.68 1.52a1.34 1.34 0 0 1-1.62.43 1.65 1.65 0 0 0-2.28.84c-.51.83-1.22 1.53-1.76 2.34s-.87 1.56-1.35 2.31a1.33 1.33 0 0 1-.78.6 38.36 38.36 0 0 1-4.67.15 6.07 6.07 0 0 1-2.11-.83c-.16-.07-.24-.39-.28-.61-.16-1-.3-1.93-.41-2.91a2.73 2.73 0 0 1 .06-.85 2.21 2.21 0 0 1 1.85-1.75 9.05 9.05 0 0 1 4.74.17c.82.23 1.12 0 1.18-.79a9.58 9.58 0 0 1 .21-1l-1.52-.42c.17-1 .31-1.92.52-2.86 0-.15.33-.3.52-.34.83-.16 1.68-.24 2.5-.46a2.44 2.44 0 0 0 1.11-.71 6.55 6.55 0 0 0 1.11-1.59c1-1.94 2.71-1.89 4.47-1.8.83 0 1.65.2 2.56.31-.19-1.24-.34-2.3-.51-3.45l-2.93 1.12c-.25-.62-.52-1.16-.7-1.74a1.17 1.17 0 0 0-1.18-.94c-.31 0-.83-.22-.87-.43-.13-.57-.48-1.14 0-1.8a6.61 6.61 0 0 1 3.24-2 3.31 3.31 0 0 0 1.23-.66c.89-1 .84-1.24-.2-2.13A70.68 70.68 0 0 0 281 34.88c-1-.12-2.05-.21-3.07-.31h-11.52a72.3 72.3 0 0 0-35.51 13.29v.22h2.63a1.85 1.85 0 0 1 .92.16 9.67 9.67 0 0 0 3.65 1.22c.5.09.8.27.87.83a.75.75 0 0 0 .53.51c1.39.05 2.79 0 4.18 0-.08-1.12-.33-1.38-1.47-1.4s-2 0-3-.11c.52-.66 1.12-1.23.25-2.08H236l-.07-.15c.87-.66 1.78-1.26 2.59-2a4.85 4.85 0 0 1 3.1-1.08c1.75-.13 3 .31 3.76 1.95a1.51 1.51 0 0 0 1.34.78 3.6 3.6 0 0 0 3.94-1.44c.07-.11.2-.17.32-.28l1.24.64c-.79.84-1.54 1.68-2.34 2.47a1.18 1.18 0 0 1-.75.15h-2.72c.08.9.14 1.67.21 2.42h4.15c.16 0 .39-.32.46-.53a.86.86 0 0 1 .94-.66c.48 0 .95-.09 1.43-.06.7 0 1.1-.19 1.12-1a5 5 0 0 1 .15-.87l-1.59-.35c.09-1.35.58-1.95 1.85-2 1.49 0 3 .11 4.7.19-.83.76-1.47 1.4-2.18 2s-.19 1.23-.07 1.82c.05.23.5.45.8.53.61.15 1.25.19 2 .3-.05-.88-.06-1.69-.15-2.49a1.17 1.17 0 0 1 .77-1.15c1.95-1.28 4.18-1.16 6.33-1.48a1.31 1.31 0 0 1 .68.18c1.89.83 3.76 1.68 5.65 2.5a.85.85 0 0 1 .62.95v1.84l2.11.6c-.31.6-.57 1.17-.89 1.7-.09.15-.33.22-.51.28a1 1 0 0 1-.48 0c-1.53-.25-2.68.1-2.94 1.87a.58.58 0 0 1-.48.35c-2.1-.46-4.19-1-6.33-1.66l5.17-2.78c-.71-.6-1.33-1.15-2-1.66a1 1 0 0 0-.61 0c-1 .11-1.93.31-2.91.36a2.59 2.59 0 0 0-2.16 1.09 2.58 2.58 0 0 1-2.38 1.12 3.61 3.61 0 0 0-.67.08c-.28.81.21 1.18.81 1.5v.22c-.44.08-.88.12-1.3.24-.22.06-.57.25-.57.38 0 .79-.49.82-1.06.8h-.79c-.11-.66-.22-1.3-.36-2.09a24 24 0 0 0-3.44 1.2c-1.87 1-3.66 2.12-5.49 3.17-.42.24-.58.49-.39 1a3.44 3.44 0 0 1 .21.76c.25 1.64 1.46 2.2 2.86 2.5a19.4 19.4 0 0 0 2.27.33c.45 0 .58.23.57.65v3.43c1 0 1.85-.13 2.14-1.23a3.88 3.88 0 0 1 3.33-2.89c1.52-.34 1.49-.45 1.49-2 0-.82.05-1.65 0-2.46a1.69 1.69 0 0 1 .73-1.45 2.67 2.67 0 0 1 3-.64 12.88 12.88 0 0 0 2.63.6c.75.11.87.47.76 1.13s-.17 1.46-.25 2.25c2 .38 3.29-1.24 5.1-1.65.05 1.14.13 2.25.13 3.37a1.08 1.08 0 0 0 .61 1.08c.52.27 1 .62 1.5.89a1.05 1.05 0 0 1 .64 1.13c-.08 1.78-.06 1.77-1.84 2.39a4.13 4.13 0 0 0-.79.52 3.77 3.77 0 0 0 .75.87 6.17 6.17 0 0 0 1.59.72 1.12 1.12 0 0 1 .89 1.47 5.77 5.77 0 0 0-.07.67 4 4 0 0 1-1 0c-1.12-.31-2.24-.64-3.33-1a1.15 1.15 0 0 1-.54-.79 1.46 1.46 0 0 1 .29-.86c.2-.28.63-.47.71-.77.25-.84 0-1-1.23-1.19 0 1.13-.83 1.12-1.63 1.21a5.06 5.06 0 0 0-.78.12c-.73.22-1.21.11-1.51-.71-.23-.66-1.56-1-2.4-.65a1.11 1.11 0 0 0-.72 1.41 1 1 0 0 0 .47.58c.59.22 1.21.35 1.92.54l-1.23 1.36c-.16-.17-.28-.31-.41-.43a1.24 1.24 0 0 0-1.86 0c-.67.63-1.36 1.25-2 1.91-.2.21-.24.55-.39.81a1 1 0 0 1-.35.37 7.13 7.13 0 0 1-1.11.62c-3.07 1.22-5 3.79-7.2 6.07a2 2 0 0 0-.37 1.17A2 2 0 0 1 249 82a22.72 22.72 0 0 0-5.24 4 1.6 1.6 0 0 0-.44 1.27c.1 1.12.15 2.26.23 3.6-1-.49-2-.9-2.86-1.37-.12-.06-.14-.38-.14-.58v-2h-7.73a5.22 5.22 0 0 0-1.43.34c-.32.11-.6.35-.92.46-3.61 1.17-4.5 4.29-5.3 7.44-.1.4.3.92.43 1.39a2.2 2.2 0 0 0 2.23 1.75 4.38 4.38 0 0 0 3.45-.79c1.21-.93 2.53-1.71 3.88-2.61.34.93.73 1.73.09 2.65a23.26 23.26 0 0 0-1.19 2.24l4.14.75c.13 1.93.27 3.8.36 5.68 0 .59.26.8.84.89 1.41.2 2.81.45 4.22.72a1.06 1.06 0 0 0 1.17-.4c.89-1.08 1.85-2.1 2.73-3.19a1 1 0 0 1 1.16-.37 9.32 9.32 0 0 0 2 .41 3.11 3.11 0 0 1 2.74 1.82 1.11 1.11 0 0 0 1.29.65c.73-.09 1.47-.1 2.21-.14 1.16-.06 1.16-.06 1.37-1.28 1.1.56 2.31.83 2.94 2.09a19.83 19.83 0 0 0 1.66 2.61 1.32 1.32 0 0 0 .88.48c1.06.07 2.12.07 3.17.06a1.21 1.21 0 0 1 1.14.63 8.47 8.47 0 0 1 1.49 5.22.83.83 0 0 0 .68.9c1.35.48 2.67 1 4 1.5a3.16 3.16 0 0 0 .92.15h4.92a1.15 1.15 0 0 1 1.24.74 4.61 4.61 0 0 0 3.76 3.07 2.13 2.13 0 0 1 .39.18c-.23 1.31-.34 2.63-1.4 3.61a8.11 8.11 0 0 0-2.56 6.22 32.74 32.74 0 0 1-.43 4.42 2.33 2.33 0 0 1-.6 1.11 5 5 0 0 1-5 1.7c-1-.2-1.48.24-2 1.07a3.06 3.06 0 0 0-.38 2.74c.23.7.31 1.45.52 2.16a1.53 1.53 0 0 1-.32 1.52c-1.83 2.39-3.94 4.58-5.25 7.34a1.4 1.4 0 0 1-.64.53c-1.14.57-2.26 1.18-3.44 1.64a11.89 11.89 0 0 1-2.47.5.71.71 0 0 0-.72.74c-.06.52.18.66.59.73.13 0 .25.08.38.12 1 .28 1.18 1 .46 1.77-.46.49-1 .94-1.41 1.34.49 1.66 1.77 1.57 3.15 1.51-.13.8-.24 1.49-.37 2.17a4.76 4.76 0 0 1-.21.6c-.52 1.49-.47 1.69.72 2.68.54.46 1.05 1 1.64 1.38s.26.81.17 1.26-.45.5-.83.48a3.7 3.7 0 0 0-.88 0c-2 .33-3.41-.62-4.91-1.86-1.93-1.6-3-3.71-4.27-5.73a5.18 5.18 0 0 1-.9-4.25 5.77 5.77 0 0 0-1.74-6A1.41 1.41 0 0 1 252 153c.3-1.5.55-3 .82-4.53v-.21c0-.06-.08-.11-.12-.12-1.32-.51-1.32-.51-1.32-2v-9.84a1.43 1.43 0 0 0-.71-1.37 20.45 20.45 0 0 1-1.85-1.36 6.54 6.54 0 0 0-3.38-1.61.82.82 0 0 1-.82-.87 4.71 4.71 0 0 0-1.32-3c-1.37-1.61-2.66-3.29-4-5a1.6 1.6 0 0 1-.29-1c.15-1.71.39-3.4.52-5.11a1.46 1.46 0 0 1 .72-1.29c.9-.56 1.73-1.21 2.62-1.79a.87.87 0 0 0 .43-1c-.16-1.07-.31-2.14-.41-3.22 0-.51-.25-.67-.74-.69-1.4-.08-2.8-.17-4.19-.32a1.79 1.79 0 0 1-1-.49c-1.16-1.26-2.26-2.59-3.43-3.85a2.72 2.72 0 0 0-1.15-.74c-1.39-.41-2.8-.73-4.28-1.11.06-.53.11-1.07.17-1.69l-2.35-.34c-.07.3-.13.57-.21.94-1.43-.35-2.85-.79-4.3-1a3.63 3.63 0 0 1-3-2.23 1.74 1.74 0 0 0-.3-.46c-.89-1-1.28-2-.27-3.18.12-.14 0-.61-.14-.83-.88-1.34-1.78-2.69-2.74-4a5.73 5.73 0 0 1-1.14-2.9c0-.45-.12-.89-.2-1.34-.22-1.41-.22-1.41-1.78-1.17.34 1.91.13 4 1.53 5.6.42.5.68 1.14 1.1 1.64a2.29 2.29 0 0 1 .27 2.54 3.09 3.09 0 0 1-3-1.42 10.92 10.92 0 0 1-2.05-7.8 1.73 1.73 0 0 0-1.42-2.2 1.94 1.94 0 0 1-1.6-2.48 13.6 13.6 0 0 0 0-2.15c-.21.39-.33.57-.41.77a69.48 69.48 0 0 0-3.63 11.64c-.08.38.08.82-.08 1.18-2.75 5.87-3.87 18.56 0 28.4.65 1.63.57 3.54 1.07 5.26a70.92 70.92 0 0 0 25 37 69.83 69.83 0 0 0 31.57 14c2.49.44 5 .68 7.38 1h9.53a71.3 71.3 0 0 0 50.81-26.31h-2.25v-4a3.1 3.1 0 0 0-.43-1.38c-.72-1.18-1.8-2.22-2.19-3.49a12.49 12.49 0 0 1-.06-4.1 2.11 2.11 0 0 0-.88-2 3.21 3.21 0 0 1-1.37-3.15 2.67 2.67 0 0 1 .25-1c.65-1.3 1.32-2.6 2-3.87a1.14 1.14 0 0 0 0-1.3q-1.98-3.66-4.14-7.46a2.71 2.71 0 0 1-.3-1.34c.08-1.39.26-2.79.39-4.18 0-.36 0-.72.06-1.14-1.17-.13-2.26-.3-3.37-.35a2.29 2.29 0 0 1-1.89-.93 2.34 2.34 0 0 0-2.06-.9 3.41 3.41 0 0 0-3.09 1.16 1.23 1.23 0 0 1-.84.3h-3.25a2.84 2.84 0 0 0-1.91.38c-.42.33-1.29 0-1.94.12a1.67 1.67 0 0 1-1.58-.81c-1.9-2.21-3.82-4.39-5.72-6.6a1.57 1.57 0 0 1-.34-.91v-5c0-.24.17-.65.32-.68.8-.17.95-.73 1-1.4 0-.36.11-.72.16-1.06-.07-.07-.1-.13-.14-.13-.46-.07-1.18 0-1.34-.22a6 6 0 0 1-.62-2c0-.18.24-.49.45-.64 2.24-1.63 4.49-3.26 6.76-4.86a1.21 1.21 0 0 0 .59-1.18v-2.77a1.17 1.17 0 0 1 .47-.8c1-.59 2-1.14 3-1.66a2 2 0 0 1 .9-.19 16.93 16.93 0 0 1 1.74.11 7.22 7.22 0 0 0 4.67-1.1 5.32 5.32 0 0 1 2.15-.38c2-.18 4.05-.32 6.23-.5v3.2c0 .66.14 1 .84 1.14 1.45.29 2.89.66 4.31 1.07.71.22 1.37.63 2.07.9.44.17.92.26 1.52.42v-2.33c1.17-.12 2.24-.25 3.32-.32a1.34 1.34 0 0 1 .78.27c.8.56 1.55 1.21 2.38 1.72a3.44 3.44 0 0 0 1.58.52c1.34.07 2.69 0 4 0 .38 0 .76-.08 1.17-.12v.61zm-35.68-25.46c.14-.55.36-1.11 1.07-1.23s1.18-.23 1.89-.37c.47 2.76 1.2 5.27 4.08 6.43-.65.92-1.16 1.85-2.53 1.79-1.15 0-2.31.1-3.61.17a21.68 21.68 0 0 1 .24-2.21c0-.18.41-.29.65-.42s.92-.27 1-.52c.18-.57-.17-1-.74-1.32s-.95-.67-1.46-.93a1.09 1.09 0 0 1-.59-1.39zm-3.41 3.5c.57-1 1.19-1.83 2.43-1.79a4.15 4.15 0 0 1 1.62.45c.34.16.17 1.48-.22 1.77a18.71 18.71 0 0 1-2.48 1.69 5.35 5.35 0 0 1-1.74.24 2.87 2.87 0 0 1 .39-2.36zM262.9 72.6c-.25.78-.9.39-1.68.57.28-.75.49-1.3.73-1.91.67.37 1.18.62.95 1.34zm4.64-1.37a1.88 1.88 0 0 0-.6.66 1.76 1.76 0 0 1-1.85.91c-.49-.09-.86-.77-.76-1.55h.91c.64 0 1.18 0 1.39-.78.12-.45.79-.44 1.83.18-.31.2-.63.35-.92.58z" fill="#262626"/><circle cx="272.64" cy="105.98" r="71.57" fill="none" stroke="#a5802a" stroke-miterlimit="10" stroke-width="2"/><path fill="#262626" stroke="#a5802a" stroke-miterlimit="10" stroke-width="2" d="M27.46 191.92h229.17v161.01H27.46z"/><path fill="#262626" stroke="#a5802a" stroke-miterlimit="10" stroke-width="2" d="M27.46 191.92h229.17v12.84H27.46z"/><path fill="#494949" d="M60.21 221.24H164.1v116.82H60.21zM172.23 221.24h51.66v55.09h-51.66zM172.23 283.69h51.66v55.09h-51.66z"/></g></svg>