<svg xmlns="http://www.w3.org/2000/svg" viewBox="0 0 409.32 183.61"><g data-name="Comp 1"><path fill="#262626" d="M116.12 72.81h131.36v28.09H116.12z"/><path d="M248.27 101.71h-133V72h133zm-131.36-1.6h129.76v-26.5H116.91z" fill="#a5802a"/><path fill="#262626" d="M216.43 72.81h31.04v28.09h-31.04z"/><path d="M248.27 101.71h-32.64V72h32.64zm-31-1.6h29.44v-26.5h-29.48z" fill="#a5802a"/><path fill="#a5802a" d="M222.87 86.06h9.84v1.6h-9.84z"/><path d="M240.4 86.86a38.29 38.29 0 0 0-10.89 6.06l2.19-6.06-2.19-6.06a38.29 38.29 0 0 0 10.89 6.06z" fill="#a5802a"/><path d="M137.8 83.4a3 3 0 0 0-.5.09 1.6 1.6 0 0 0-.49.19.83.83 0 0 0-.28.56 6.24 6.24 0 0 0-.07 1.06v6.1H136l-5-6.82v4.3a5.23 5.23 0 0 0 0 1.12 1 1 0 0 0 .28.55 1.28 1.28 0 0 0 .55.25 3.16 3.16 0 0 0 .56.11v.42H129v-.43a2.34 2.34 0 0 0 .53-.11 1.3 1.3 0 0 0 .47-.19.82.82 0 0 0 .28-.5 5.9 5.9 0 0 0 .08-1.15v-4.11a1.7 1.7 0 0 0-.09-.54 1.08 1.08 0 0 0-.26-.42 1.71 1.71 0 0 0-.57-.33 2.15 2.15 0 0 0-.58-.15V83h2.37l4.67 6.36v-4a5.23 5.23 0 0 0-.09-1.11.92.92 0 0 0-.27-.52 1.79 1.79 0 0 0-.54-.22 3.17 3.17 0 0 0-.56-.12V83h3.37zM144.1 88.36a3.88 3.88 0 0 1-.2 1.21 2.93 2.93 0 0 1-.55 1 2.72 2.72 0 0 1-.93.7 3.09 3.09 0 0 1-1.2.23 2.66 2.66 0 0 1-1.05-.21 2.63 2.63 0 0 1-.88-.61 2.77 2.77 0 0 1-.61-1 3.42 3.42 0 0 1-.22-1.27 3.17 3.17 0 0 1 .78-2.22 2.87 2.87 0 0 1 4.07 0 3.05 3.05 0 0 1 .79 2.17zm-1.21 0a5 5 0 0 0-.09-.93 3 3 0 0 0-.27-.84A1.63 1.63 0 0 0 142 86a1.2 1.2 0 0 0-.74-.22 1.29 1.29 0 0 0-.77.22 1.63 1.63 0 0 0-.52.61 2.55 2.55 0 0 0-.27.82 5.51 5.51 0 0 0-.07.89 5.67 5.67 0 0 0 .09 1 3 3 0 0 0 .29.85 1.54 1.54 0 0 0 .5.59 1.21 1.21 0 0 0 .75.22 1.32 1.32 0 0 0 1.16-.71 3.88 3.88 0 0 0 .47-1.89zM148.63 91.07c-.25.1-.49.19-.72.26a2.49 2.49 0 0 1-.83.11 1.26 1.26 0 0 1-1-.36 1.67 1.67 0 0 1-.29-1v-3.97h-1v-.56h1.06v-1.8h1.07v1.8h1.65v.56h-1.64v3.85a1.2 1.2 0 0 0 .13.43.57.57 0 0 0 .28.25 1.18 1.18 0 0 0 .5.09h.43a1.72 1.72 0 0 0 .4-.07zM152.15 91.32h-2.79v-.39h.28a1.37 1.37 0 0 0 .25 0 .41.41 0 0 0 .24-.18.72.72 0 0 0 .08-.35v-3.64a.77.77 0 0 0-.08-.34.75.75 0 0 0-.24-.26.89.89 0 0 0-.32-.12 2 2 0 0 0-.39-.07v-.38l2-.13.08.08v4.72a.68.68 0 0 0 .08.34.44.44 0 0 0 .24.2 1.34 1.34 0 0 0 .26.09h.27zm-.73-8.15a.92.92 0 0 1-.22.59.72.72 0 0 1-.54.25.67.67 0 0 1-.52-.24.77.77 0 0 1-.22-.55.79.79 0 0 1 .22-.56.67.67 0 0 1 .52-.24.77.77 0 0 1 .76.75zM157.3 82.93a.73.73 0 0 1-.14.45.51.51 0 0 1-.43.18.69.69 0 0 1-.32-.08 1.16 1.16 0 0 1-.25-.2 2.32 2.32 0 0 1-.22-.3 2.36 2.36 0 0 0-.17-.26c-.26 0-.46.19-.6.55A4.63 4.63 0 0 0 155 85v.59h1.49v.56H155v4.16a.68.68 0 0 0 .08.34.48.48 0 0 0 .25.19 1.52 1.52 0 0 0 .38.09h.4v.39h-3v-.39h.27a1.37 1.37 0 0 0 .25 0 .47.47 0 0 0 .25-.18.72.72 0 0 0 .08-.35v-4.29h-1.15v-.56h1.15v-.37a3.21 3.21 0 0 1 .68-2.14 2.13 2.13 0 0 1 1.7-.81 1.26 1.26 0 0 1 .79.2.64.64 0 0 1 .17.5z" fill="#fff"/><path d="M159.84 91.32h-2.78v-.39h.52a.47.47 0 0 0 .25-.18.72.72 0 0 0 .08-.35v-3.64a.73.73 0 0 0-.33-.6.89.89 0 0 0-.32-.12 2.06 2.06 0 0 0-.38-.07v-.38l2-.13.09.08v4.72a.69.69 0 0 0 .07.34.5.5 0 0 0 .25.2l.25.09h.27zm-.73-8.15a.87.87 0 0 1-.22.59.7.7 0 0 1-1.06 0 .82.82 0 0 1-.22-.55.84.84 0 0 1 .22-.56.69.69 0 0 1 .52-.24.75.75 0 0 1 .76.75zM163.37 91.47a2.44 2.44 0 0 1-2-.83 3.36 3.36 0 0 1-.71-2.24 3.25 3.25 0 0 1 .19-1.14 3.21 3.21 0 0 1 .55-1 2.54 2.54 0 0 1 .87-.67 2.57 2.57 0 0 1 1.13-.26 2.25 2.25 0 0 1 1.39.41 1.33 1.33 0 0 1 .53 1.11 1 1 0 0 1-.14.52.52.52 0 0 1-.47.23.78.78 0 0 1-.53-.17.53.53 0 0 1-.19-.4 2.11 2.11 0 0 1 .07-.54 2.57 2.57 0 0 0 .08-.41.5.5 0 0 0-.31-.24 1.63 1.63 0 0 0-.45-.06 1.24 1.24 0 0 0-.53.12 1.41 1.41 0 0 0-.49.44 2.29 2.29 0 0 0-.35.8 4.57 4.57 0 0 0-.14 1.19 3 3 0 0 0 .48 1.78 1.49 1.49 0 0 0 1.27.69 1.55 1.55 0 0 0 1-.28 2.73 2.73 0 0 0 .71-.83l.37.25a3.09 3.09 0 0 1-1 1.1 2.36 2.36 0 0 1-1.33.43zM171.75 91.21l-.48.17a1.73 1.73 0 0 1-.47.06 1.1 1.1 0 0 1-.73-.22 1 1 0 0 1-.35-.62 3 3 0 0 1-.82.64 2.26 2.26 0 0 1-1.05.23 1.52 1.52 0 0 1-1.07-.4 1.39 1.39 0 0 1-.42-1 1.64 1.64 0 0 1 .1-.6 1.34 1.34 0 0 1 .28-.47 1.22 1.22 0 0 1 .38-.32 4.6 4.6 0 0 1 .45-.22l1.07-.37a8.43 8.43 0 0 0 1.09-.42V87a1.73 1.73 0 0 0 0-.3 1.23 1.23 0 0 0-.13-.41 1.31 1.31 0 0 0-.33-.38 1.08 1.08 0 0 0-.61-.16 1.35 1.35 0 0 0-.5.09 1 1 0 0 0-.32.19 1.37 1.37 0 0 0 0 .35 1.64 1.64 0 0 1 .06.42.49.49 0 0 1-.19.38.73.73 0 0 1-.51.17.48.48 0 0 1-.43-.21.84.84 0 0 1-.14-.47.85.85 0 0 1 .19-.51 1.8 1.8 0 0 1 .5-.44 2.37 2.37 0 0 1 .64-.28 2.33 2.33 0 0 1 .73-.12 5.21 5.21 0 0 1 .85.07 1.61 1.61 0 0 1 .67.29 1.34 1.34 0 0 1 .45.59 2.41 2.41 0 0 1 .16 1v2.91a.74.74 0 0 0 .08.36.59.59 0 0 0 .24.23.51.51 0 0 0 .28.06h.39zm-2-3.1c-.33.1-.62.2-.87.29a3.27 3.27 0 0 0-.7.35 1.74 1.74 0 0 0-.46.48 1.15 1.15 0 0 0-.17.65.94.94 0 0 0 .25.72 1 1 0 0 0 .65.23 1.28 1.28 0 0 0 .73-.21 1.88 1.88 0 0 0 .53-.48zM176 91.07c-.25.1-.49.19-.72.26a2.49 2.49 0 0 1-.83.11 1.26 1.26 0 0 1-1-.36 1.61 1.61 0 0 1-.3-1v-3.97h-1v-.56h1.07v-1.8h1.06v1.8h1.66v.56h-1.65v3.24a5.16 5.16 0 0 0 0 .61 1.2 1.2 0 0 0 .13.43.53.53 0 0 0 .28.25 1.15 1.15 0 0 0 .5.09h.43a1.84 1.84 0 0 0 .4-.07zM179.54 91.32h-2.78v-.39h.53a.41.41 0 0 0 .24-.18.72.72 0 0 0 .08-.35v-3.64a.67.67 0 0 0-.09-.34.64.64 0 0 0-.23-.26A1 1 0 0 0 177 86a1.92 1.92 0 0 0-.38-.07v-.38l2-.13.09.08v4.72a.69.69 0 0 0 .07.34.5.5 0 0 0 .25.2l.25.09h.27zm-.73-8.15a.87.87 0 0 1-.22.59.69.69 0 0 1-.54.25.65.65 0 0 1-.51-.24.77.77 0 0 1-.22-.55.79.79 0 0 1 .22-.56.65.65 0 0 1 .51-.24.72.72 0 0 1 .55.23.73.73 0 0 1 .21.52zM186 88.36a3.87 3.87 0 0 1-.19 1.21 3.11 3.11 0 0 1-.55 1 2.75 2.75 0 0 1-.94.7 3.06 3.06 0 0 1-1.2.23 2.65 2.65 0 0 1-1-.21 2.57 2.57 0 0 1-.89-.61 2.9 2.9 0 0 1-.6-1 3.42 3.42 0 0 1-.23-1.27 3.13 3.13 0 0 1 .79-2.22 2.64 2.64 0 0 1 2.06-.87 2.67 2.67 0 0 1 2 .82 3 3 0 0 1 .75 2.22zm-1.21 0a5 5 0 0 0-.09-.93 3.33 3.33 0 0 0-.26-.84A1.74 1.74 0 0 0 184 86a1.25 1.25 0 0 0-.75-.22 1.29 1.29 0 0 0-.77.22 1.73 1.73 0 0 0-.52.61 2.82 2.82 0 0 0-.26.82 5.55 5.55 0 0 0-.08.89 5.67 5.67 0 0 0 .09 1 3 3 0 0 0 .29.85 1.64 1.64 0 0 0 .5.59 1.21 1.21 0 0 0 .75.22 1.3 1.3 0 0 0 1.16-.71 3.77 3.77 0 0 0 .41-1.89zM193.38 91.32h-2.82v-.39h.29a1.46 1.46 0 0 0 .27 0 .41.41 0 0 0 .24-.18.72.72 0 0 0 .08-.35v-3a1.44 1.44 0 0 0-.29-.95.91.91 0 0 0-.71-.33 1.47 1.47 0 0 0-.56.1 1.8 1.8 0 0 0-.46.23 1.45 1.45 0 0 0-.31.29l-.17.25v3.33a.62.62 0 0 0 .08.33.5.5 0 0 0 .25.2 1.07 1.07 0 0 0 .27.09h.29v.39H187v-.39h.27a1.37 1.37 0 0 0 .25 0 .47.47 0 0 0 .25-.18.73.73 0 0 0 .07-.35v-3.65a.8.8 0 0 0-.08-.37.78.78 0 0 0-.24-.27.67.67 0 0 0-.26-.1h-.33v-.38l1.92-.13.08.08v.82l.35-.34a3.28 3.28 0 0 1 .4-.32 2.1 2.1 0 0 1 1.19-.33 1.45 1.45 0 0 1 1.23.52 2.2 2.2 0 0 1 .4 1.38v3a.67.67 0 0 0 .07.33.47.47 0 0 0 .24.19l.24.09h.29zM198 88.48a1.59 1.59 0 0 1 .37.49 1.68 1.68 0 0 1 .13.68 1.65 1.65 0 0 1-.6 1.31 2.57 2.57 0 0 1-2.48.33 2.47 2.47 0 0 1-.61-.33l-.12.38h-.44l-.06-2h.41a2.28 2.28 0 0 0 .2.54 2.31 2.31 0 0 0 .37.55 1.93 1.93 0 0 0 .54.44 1.45 1.45 0 0 0 .72.18 1.35 1.35 0 0 0 .87-.26.92.92 0 0 0 .3-.74.82.82 0 0 0-.1-.42.94.94 0 0 0-.28-.32 2.29 2.29 0 0 0-.47-.24l-.63-.22a5.81 5.81 0 0 1-.61-.22 2.46 2.46 0 0 1-.58-.34 1.7 1.7 0 0 1-.42-.5 1.46 1.46 0 0 1-.16-.71 1.58 1.58 0 0 1 .52-1.2 2 2 0 0 1 1.41-.5 2.86 2.86 0 0 1 .7.09 2.45 2.45 0 0 1 .57.21l.14-.3h.42l.09 1.86h-.41a1.8 1.8 0 0 0-.53-1 1.37 1.37 0 0 0-1-.39 1.09 1.09 0 0 0-.75.24.74.74 0 0 0-.28.59 1 1 0 0 0 .09.44.77.77 0 0 0 .27.3 2.36 2.36 0 0 0 .45.22c.17.07.39.14.66.23a5.15 5.15 0 0 1 .72.29 2.54 2.54 0 0 1 .58.32z" fill="#fff"/><circle cx="53.94" cy="86.86" r="43.28" fill="#262626"/><path d="M44.88 101.3a1.92 1.92 0 0 1-1-.28 2 2 0 0 1-.68-2.69l8-13.34V58.84a2 2 0 1 1 3.92 0v26.69a2 2 0 0 1-.27 1l-8.25 13.8a2 2 0 0 1-1.72.97z" fill="#a5802a"/><rect x="51.88" y="42.7" width="4.03" height="5.54" rx=".75" ry=".75" fill="#a5802a"/><rect x="51.88" y="125.3" width="4.03" height="5.54" rx=".75" ry=".75" fill="#a5802a"/><rect x="10.48" y="84" width="4.03" height="5.54" rx=".75" ry=".75" transform="rotate(-90 12.5 86.77)" fill="#a5802a"/><rect x="93.08" y="84" width="4.03" height="5.54" rx=".75" ry=".75" transform="rotate(-90 95.095 86.765)" fill="#a5802a"/><path d="M94.14 76.7l-3 .82a.7.7 0 0 1-.84-.49l-.07-.25a.7.7 0 0 1 .49-.84l3-.81a40.7 40.7 0 0 0-3.59-8.5l-2.65 1.52a.68.68 0 0 1-.93-.25l-.13-.22a.69.69 0 0 1 .25-.94l2.64-1.52a42 42 0 0 0-5.72-7.33l-2.28 2.28a.7.7 0 0 1-1 0l-.17-.17a.67.67 0 0 1 0-1l2.26-2.27a41.38 41.38 0 0 0-7.33-5.54l-1.57 2.74a.68.68 0 0 1-.93.25l-.23-.13a.67.67 0 0 1-.25-.93l1.57-2.72a41.27 41.27 0 0 0-8.5-3.4l-.8 3a.68.68 0 0 1-.84.48l-.25-.06a.69.69 0 0 1-.48-.84l.79-3a41.34 41.34 0 0 0-19.77.12l.77 2.87a.69.69 0 0 1-.49.84l-.25.07A.68.68 0 0 1 43 50l-.77-2.86a41.76 41.76 0 0 0-8.42 3.54l1.46 2.53a.69.69 0 0 1-.25.94l-.22.13a.7.7 0 0 1-.94-.25l-1.46-2.54A42.14 42.14 0 0 0 25.2 57l2.05 2a.69.69 0 0 1 0 1l-.19.19a.69.69 0 0 1-1 0l-2.05-2a41.68 41.68 0 0 0-5.57 7.23L21 66.87a.68.68 0 0 1 .25.93l-.13.23a.68.68 0 0 1-.93.25l-2.53-1.46a41.37 41.37 0 0 0-3.52 8.42L17 76a.68.68 0 0 1 .48.84l-.06.25a.69.69 0 0 1-.84.48l-2.87-.77a41.66 41.66 0 0 0-1.24 10 41 41 0 0 0 1.17 9.72l3-.79a.69.69 0 0 1 .84.48l.07.26a.69.69 0 0 1-.49.83l-3 .8a41.55 41.55 0 0 0 3.46 8.49l2.72-1.57a.7.7 0 0 1 .94.25l.13.23a.69.69 0 0 1-.25.93L18.34 108a41.4 41.4 0 0 0 5.5 7.26l2.08-2.08a.68.68 0 0 1 1 0l.18.18a.68.68 0 0 1 0 1l-2.1 2.12a41.19 41.19 0 0 0 7.25 5.68l1.52-2.63a.68.68 0 0 1 .93-.25l.23.13a.69.69 0 0 1 .25.93L33.63 123a41 41 0 0 0 8.5 3.62l.81-3a.7.7 0 0 1 .84-.49l.25.07a.69.69 0 0 1 .48.84l-.81 3a41.69 41.69 0 0 0 10.24 1.28 41.25 41.25 0 0 0 9.75-1.17l-.84-3.15a.69.69 0 0 1 .49-.84l.25-.06a.67.67 0 0 1 .83.48l.84 3.14a41.24 41.24 0 0 0 8.59-3.52l-1.64-2.84a.7.7 0 0 1 .25-.93l.23-.13a.67.67 0 0 1 .93.25l1.64 2.84a41.82 41.82 0 0 0 7.36-5.65l-2.3-2.31a.68.68 0 0 1 0-1l.18-.18a.68.68 0 0 1 1 0l2.31 2.31a42.17 42.17 0 0 0 5.66-7.35l-2.83-1.64a.69.69 0 0 1-.25-.94l.13-.22a.68.68 0 0 1 .93-.25l2.84 1.64a42.23 42.23 0 0 0 3.54-8.58l-3.14-.84a.7.7 0 0 1-.49-.84l.07-.25a.7.7 0 0 1 .84-.49l3.14.85a41.6 41.6 0 0 0-.08-20z" fill="none"/><path d="M18.34 108.06l-3.15 1.82a45.32 45.32 0 0 0 6.08 8l2.57-2.57a41.4 41.4 0 0 1-5.5-7.25zM25 116.48l-2.57 2.57a45.37 45.37 0 0 0 8 6.26l1.82-3.15a41.19 41.19 0 0 1-7.25-5.68zM73.66 50.4l1.82-3.15a44.43 44.43 0 0 0-9.38-3.8L65.16 47a41.27 41.27 0 0 1 8.5 3.4zM33.63 123l-1.81 3.15a45.2 45.2 0 0 0 9.37 4l.94-3.51a41 41 0 0 1-8.5-3.64zM17.67 66.82L14.52 65a45.32 45.32 0 0 0-3.88 9.3l3.51.94a41.37 41.37 0 0 1 3.52-8.42zM95.4 86.86a41.49 41.49 0 0 1-1.18 9.84l3.51.94a45 45 0 0 0-.08-21.88l-3.51.94a41.52 41.52 0 0 1 1.26 10.16zM24.05 58.18l-2.57-2.57a45 45 0 0 0-6.14 8l3.14 1.82a41.68 41.68 0 0 1 5.57-7.25zM12.48 86.86a41.66 41.66 0 0 1 1.24-10l-3.51-.94a45.26 45.26 0 0 0-1.36 11 44.64 44.64 0 0 0 1.29 10.66l3.51-.94a41 41 0 0 1-1.17-9.78zM14.06 98.16l-3.51.94a45 45 0 0 0 3.83 9.37l3.14-1.82a41.55 41.55 0 0 1-3.46-8.49zM93.7 75.13l3.51-.94a44.66 44.66 0 0 0-3.95-9.38l-3.15 1.82a40.7 40.7 0 0 1 3.59 8.5zM89.29 65.22l3.15-1.82a44.86 44.86 0 0 0-6.31-8.07l-2.56 2.56a42 42 0 0 1 5.72 7.33zM53.94 128.32A41.69 41.69 0 0 1 43.7 127l-.94 3.51A45.3 45.3 0 0 0 53.94 132a44.83 44.83 0 0 0 10.69-1.29l-.94-3.51a41.25 41.25 0 0 1-9.75 1.12zM90.26 106.85l3.14 1.81a44.56 44.56 0 0 0 3.9-9.45l-3.5-.94a42.23 42.23 0 0 1-3.54 8.58zM53.94 45.4a41.36 41.36 0 0 1 9.64 1.14l.94-3.54a45.07 45.07 0 0 0-21.65.12l.94 3.51a41.28 41.28 0 0 1 10.13-1.23zM82.4 56.75l2.6-2.56a45.61 45.61 0 0 0-8.08-6.13l-1.82 3.15a41.38 41.38 0 0 1 7.3 5.54zM42.24 47.09l-.94-3.5a43.77 43.77 0 0 0-9.3 3.9l1.81 3.14a41.76 41.76 0 0 1 8.43-3.54zM83.78 115.61l2.57 2.57a45.58 45.58 0 0 0 6.24-8.11l-3.15-1.81a42.17 42.17 0 0 1-5.66 7.35zM32.41 51.44l-1.82-3.14a45.39 45.39 0 0 0-8 6.16L25.2 57a42.14 42.14 0 0 1 7.21-5.56zM75.26 122.41l1.82 3.14a44.71 44.71 0 0 0 8.11-6.23l-2.57-2.56a41.82 41.82 0 0 1-7.36 5.65zM65.26 126.74l.95 3.51a44.83 44.83 0 0 0 9.46-3.89l-1.82-3.14a41.24 41.24 0 0 1-8.59 3.52z" fill="#a5802a"/><path d="M27.07 113.42l-.18-.18a.68.68 0 0 0-1 0l-2.08 2.08c.37.39.75.78 1.14 1.16l2.09-2.09a.68.68 0 0 0 .03-.97z" fill="#a5802a"/><path d="M23.84 115.32l-2.57 2.57c.37.39.75.78 1.14 1.16l2.59-2.57c-.41-.38-.79-.77-1.16-1.16zM80.14 60l.18.19a.7.7 0 0 0 1 0l2.28-2.28-1.2-1.16L80.14 59a.67.67 0 0 0 0 1z" fill="#a5802a"/><path d="M83.57 57.89l2.56-2.56c-.38-.39-.77-.77-1.16-1.14l-2.57 2.56zM34.91 119.41l-.23-.13a.68.68 0 0 0-.93.25l-1.52 2.63c.46.28.93.56 1.4.82l1.53-2.64a.69.69 0 0 0-.25-.93z" fill="#a5802a"/><path d="M32.23 122.16l-1.82 3.15c.46.28.94.55 1.41.82l1.81-3.13c-.47-.28-.94-.56-1.4-.84zM72.34 54.05l.23.13a.68.68 0 0 0 .93-.25l1.57-2.72q-.69-.42-1.41-.81l-1.57 2.72a.67.67 0 0 0 .25.93z" fill="#a5802a"/><path d="M75.07 51.21l1.82-3.15c-.47-.27-.93-.55-1.41-.81l-1.82 3.15q.72.39 1.41.81zM44 123.16l-.25-.07a.7.7 0 0 0-.84.49l-.81 3 1.57.44.81-3a.69.69 0 0 0-.48-.86z" fill="#a5802a"/><path d="M42.13 126.6l-.94 3.51 1.57.44.94-3.55zM63.27 50.35l.25.06a.68.68 0 0 0 .84-.48l.8-3-1.58-.41-.79 3a.69.69 0 0 0 .48.83z" fill="#a5802a"/><path d="M65.16 47l.94-3.5c-.52-.15-1-.29-1.58-.42l-.94 3.51zM63.59 123.12l-.25.06a.69.69 0 0 0-.49.84l.84 3.13 1.57-.41-.84-3.14a.67.67 0 0 0-.83-.48z" fill="#a5802a"/><path d="M63.69 127.15l.94 3.51 1.58-.41-.95-3.51zM43.84 50.44l.25-.07a.69.69 0 0 0 .49-.84l-.77-2.87c-.53.13-1.05.28-1.57.43L43 50a.68.68 0 0 0 .84.44z" fill="#a5802a"/><path d="M43.81 46.66l-.94-3.51c-.53.13-1 .28-1.57.44l.94 3.5c.52-.15 1.04-.3 1.57-.43zM72.69 119.32l-.23.13a.7.7 0 0 0-.25.93l1.64 2.84c.48-.26 1-.54 1.41-.81l-1.64-2.84a.67.67 0 0 0-.93-.25z" fill="#a5802a"/><path d="M73.85 123.22l1.82 3.14q.7-.39 1.41-.81l-1.82-3.14c-.46.27-.93.59-1.41.81zM34.81 54.23l.19-.13a.69.69 0 0 0 .25-.94l-1.46-2.53c-.47.26-1 .53-1.41.81L33.87 54a.7.7 0 0 0 .94.23z" fill="#a5802a"/><path d="M33.82 50.63L32 47.49c-.48.26-.95.53-1.42.81l1.82 3.14c.47-.28.95-.55 1.42-.81zM80.5 113.3l-.18.18a.68.68 0 0 0 0 1l2.3 2.31c.4-.38.78-.76 1.16-1.15l-2.31-2.31a.68.68 0 0 0-.97-.03z" fill="#a5802a"/><path d="M82.62 116.76l2.57 2.56c.39-.37.78-.75 1.16-1.14l-2.57-2.57c-.38.39-.78.77-1.16 1.15zM27.06 60.23l.19-.19a.69.69 0 0 0 0-1L25.2 57c-.39.37-.78.76-1.15 1.15l2.05 2a.69.69 0 0 0 .96.08z" fill="#a5802a"/><path d="M25.2 57l-2.57-2.57c-.39.38-.77.76-1.15 1.15l2.57 2.57c.37-.36.76-.75 1.15-1.15zM86.49 105.46l-.13.22a.69.69 0 0 0 .25.94l2.83 1.64c.28-.47.55-.94.82-1.41l-2.84-1.64a.68.68 0 0 0-.93.25z" fill="#a5802a"/><path d="M89.44 108.26l3.15 1.81q.42-.69.81-1.41l-3.14-1.81c-.26.47-.54.94-.82 1.41zM21.13 68l.13-.23a.68.68 0 0 0-.25-.93l-2.53-1.46q-.42.69-.81 1.41l2.53 1.46a.68.68 0 0 0 .93-.25z" fill="#a5802a"/><path d="M18.48 65.41l-3.14-1.82c-.29.46-.55.94-.82 1.41l3.15 1.82q.39-.72.81-1.41zM90.24 96.34l-.07.25a.7.7 0 0 0 .49.84l3.14.84c.14-.52.29-1 .42-1.57l-3.14-.85a.7.7 0 0 0-.84.49z" fill="#a5802a"/><path d="M94.22 96.7c-.13.52-.28 1-.42 1.57l3.5.94c.15-.52.3-1 .43-1.57zM17.43 77.1l.06-.25A.68.68 0 0 0 17 76l-2.86-.77c-.15.52-.3 1-.43 1.57l2.87.77a.69.69 0 0 0 .85-.47z" fill="#a5802a"/><path d="M14.15 75.24l-3.51-.94c-.15.52-.3 1-.43 1.57l3.51.94c.13-.53.28-1.05.43-1.57zM90.19 76.78l.07.25a.7.7 0 0 0 .84.49l3-.82c-.13-.53-.28-1-.44-1.57l-3 .81a.7.7 0 0 0-.47.84zM94.14 76.7l3.51-.94c-.13-.53-.28-1.05-.44-1.57l-3.51.94c.16.52.3 1.04.44 1.57zM17.52 96.53l-.07-.26a.69.69 0 0 0-.84-.48l-3 .79c.13.53.26 1.06.41 1.58l3-.8a.69.69 0 0 0 .5-.83z" fill="#a5802a"/><path d="M13.65 96.58l-3.51.94c.13.53.27 1.06.41 1.58l3.51-.94c-.15-.52-.28-1.05-.41-1.58zM86.4 67.68l.13.22a.68.68 0 0 0 .93.25l2.65-1.52c-.27-.48-.54-.95-.82-1.41l-2.64 1.52a.69.69 0 0 0-.25.94z" fill="#a5802a"/><path d="M90.11 66.63l3.15-1.82c-.27-.47-.54-1-.82-1.41l-3.15 1.82c.28.46.55.93.82 1.41zM21.31 105.56l-.13-.23a.7.7 0 0 0-.94-.25l-2.72 1.57c.26.48.54.95.82 1.41l2.72-1.57a.69.69 0 0 0 .25-.93z" fill="#a5802a"/><path d="M17.52 106.65l-3.14 1.82c.26.48.53.94.81 1.41l3.15-1.82c-.28-.46-.56-.93-.82-1.41z" fill="#a5802a"/><path fill="none" stroke="#a5802a" stroke-linecap="round" stroke-linejoin="round" stroke-width="2" d="M254.95 86.86"/><path fill="none" stroke="#a5802a" stroke-linecap="round" stroke-linejoin="round" stroke-width="2" stroke-dasharray="0 5.98" d="M260.93 86.86h80.71"/><path fill="none" stroke="#a5802a" stroke-linecap="round" stroke-linejoin="round" stroke-width="2" d="M344.63 86.86"/><path fill="none" stroke="#a5802a" stroke-linecap="round" stroke-linejoin="round" stroke-width="2" stroke-dasharray="0 6" d="M296.95 82.12v-48h35.5M297.45 92.12v48h35.5"/><rect x="343.87" y="114.37" width="32.43" height="3.1" rx="1.55" ry="1.55" fill="#a5802a"/><path d="M375.55 117.5h-30.92a.78.78 0 0 1-.78-.78v-1.59a.78.78 0 0 1 .78-.78h30.92a.78.78 0 0 1 .78.78v1.59a.78.78 0 0 1-.78.78zm-30.92-3.1a.73.73 0 0 0-.73.73v1.59a.73.73 0 0 0 .73.73h30.92a.73.73 0 0 0 .73-.73v-1.59a.73.73 0 0 0-.73-.73z" fill="#a5802a"/><rect x="357.04" y="94.54" width="6.1" height="21.03" rx="3.05" ry="3.05" fill="#a5802a"/><path d="M362.38 115.75h-4.58a.94.94 0 0 1-.95-.94V95.3a1 1 0 0 1 .95-1h4.58a1 1 0 0 1 .95 1v19.51a1 1 0 0 1-.95.94zm-4.58-21a.56.56 0 0 0-.57.57v19.51a.57.57 0 0 0 .57.57h4.58a.57.57 0 0 0 .57-.57V95.3a.56.56 0 0 0-.57-.57z" fill="#a5802a"/><path fill="#202020" d="M323.94 64.46h72.3v43.46h-72.3z"/><path d="M396.52 108.2h-72.86v-44h72.86zm-72.3-.56H396v-42.9h-71.78z" fill="#a5802a"/><rect x="356.23" y="66.99" width="37.7" height="11.95" rx="3.24" ry="3.24" fill="#0c0c0c"/><path d="M393.32 79.13h-36.48a.8.8 0 0 1-.8-.8V67.6a.8.8 0 0 1 .8-.8h36.48a.8.8 0 0 1 .8.8v10.73a.8.8 0 0 1-.8.8zm-36.48-11.95a.42.42 0 0 0-.42.42v10.73a.42.42 0 0 0 .42.42h36.48a.42.42 0 0 0 .42-.42V67.6a.42.42 0 0 0-.42-.42z" fill="#a5802a"/><path fill="#a5802a" d="M356.27 71.33h37.66v.38h-37.66z"/><path d="M364.1 69.85v-.06h.18v-1.23h-.18v-.06h.72a.53.53 0 0 1 .31.08.33.33 0 0 1 .14.27.37.37 0 0 1 0 .11.39.39 0 0 1-.3.25l.36.58h.07-.4l-.34-.62h-.14v.56h.18v.06zm.46-1.29v.61h.16a.22.22 0 0 0 .14 0 .29.29 0 0 0 .12-.26.51.51 0 0 0 0-.13.25.25 0 0 0-.25-.17zM366.39 69.69a.41.41 0 0 1-.37.19.6.6 0 0 1-.27-.07.49.49 0 0 1-.23-.45.51.51 0 0 1 .1-.32.47.47 0 0 1 .4-.19.51.51 0 0 1 .25.06.29.29 0 0 1 .18.27.19.19 0 0 1 0 .08c-.05.07-.18.1-.41.1h-.22q0 .45.27.45h.1a.32.32 0 0 0 .2-.18h.06a.16.16 0 0 1-.06.06zm-.43-.77c-.1 0-.16.16-.16.37h.34c.05 0 .08-.06.08-.13a.17.17 0 0 0 0-.07c0-.11-.07-.17-.16-.17zM367.2 69.67a.3.3 0 0 1 0 .08.36.36 0 0 1-.28.13h-.12a.23.23 0 0 1-.16-.25c0-.2.19-.31.59-.31v-.15a.22.22 0 0 0 0-.08c0-.1-.06-.16-.15-.16h-.07l-.07.11a.12.12 0 0 1-.12.08.11.11 0 0 1-.07-.1.11.11 0 0 1 0-.08c.05-.08.17-.13.36-.13h.12a.32.32 0 0 1 .28.35v.48c0 .07 0 .11.05.11s.07-.06.08-.16h.06a.36.36 0 0 1 0 .11.18.18 0 0 1-.19.13.23.23 0 0 1-.31-.16zm-.16.1a.29.29 0 0 0 .15-.2v-.21H367a.19.19 0 0 0-.15.2c0 .12 0 .18.14.18zM368.49 69.63a.32.32 0 0 1-.32.21.35.35 0 0 1-.22-.08.45.45 0 0 1-.19-.41.61.61 0 0 1 .11-.36.42.42 0 0 1 .35-.18.42.42 0 0 1 .29.11v-.52h-.21v-.06h.46v1.41h.13-.38zm-.46-.1c0 .16.1.25.21.25a.21.21 0 0 0 .11 0 .51.51 0 0 0 .14-.42 1 1 0 0 0 0-.19q0-.21-.21-.21h-.1c-.1.06-.14.19-.14.41a.91.91 0 0 0-.04.16zM369.53 69.8H369v-.06h.07s.07-.05.07-.12v-.73H369v-.06h.39v.91h.11zm-.1-1.15a.16.16 0 0 1-.14.08h-.07a.13.13 0 0 1-.08-.13.12.12 0 0 1 0-.08.13.13 0 0 1 .13-.08h.07a.14.14 0 0 1 .08.14.17.17 0 0 1 .01.07zM370.19 69.8h-.52v-.06h.07c.05 0 .08-.05.08-.12v-.73h-.15v-.06h.38v.19l.06-.09a.37.37 0 0 1 .27-.13.28.28 0 0 1 .13 0 .33.33 0 0 1 .19.34v.57h.11-.52v-.06h.08s.05 0 .05-.11v-.48-.09c0-.02-.08-.14-.16-.14a.16.16 0 0 0-.09 0 .27.27 0 0 0-.13.25v.55h.1zM371.74 68.92a.14.14 0 0 1 0-.06.21.21 0 0 1 .18-.12h.08a.11.11 0 0 1 .08.11.07.07 0 0 1-.07.06h-.13a.09.09 0 0 0-.09.07.34.34 0 0 1 .12.27.4.4 0 0 1-.08.23.43.43 0 0 1-.35.15h-.26a.07.07 0 0 0-.06.07s0 .06.08.06h.52a.23.23 0 0 1 .24.24.19.19 0 0 1 0 .12.53.53 0 0 1-.47.17.66.66 0 0 1-.25 0q-.15-.06-.15-.18a.24.24 0 0 1 .06-.15.2.2 0 0 1-.09-.18.31.31 0 0 1 0-.08.17.17 0 0 1 .18-.12h-.05a.35.35 0 0 1-.16-.29.31.31 0 0 1 .07-.21.42.42 0 0 1 .37-.16.43.43 0 0 1 .23 0zm-.05 1.29c.13 0 .2-.08.2-.15s-.07 0-.17 0h-.51a.42.42 0 0 0 0 .1.14.14 0 0 0 0 .06c0 .08.14.12.31.12zm-.38-.8a.18.18 0 0 0 .27.11c.05 0 .08-.14.08-.3a.74.74 0 0 0 0-.18.15.15 0 0 0-.16-.13.18.18 0 0 0-.11 0 .44.44 0 0 0-.07.29c-.02.11-.01.16-.01.21zM372.53 69.81c.1 0 .17 0 .19-.1 0-.07-.05-.13-.14-.18h-.1a.79.79 0 0 1-.24-.14.27.27 0 0 1-.06-.17.26.26 0 0 1 .2-.25.54.54 0 0 1 .19 0 .45.45 0 0 1 .27.07v-.08.28h-.07c0-.14-.08-.2-.22-.21s-.17 0-.19.1a.18.18 0 0 0 .13.16h.1a.79.79 0 0 1 .24.14.28.28 0 0 1 .06.18.26.26 0 0 1-.19.26.58.58 0 0 1-.19 0 .59.59 0 0 1-.31-.08v.07-.34h.07c0 .2.09.29.26.29zM374.18 69.8h-.64v-.06h.07a.11.11 0 0 0 .1-.12v-.73h-.17v-.06h.17a.65.65 0 0 1 .07-.29.41.41 0 0 1 .36-.19.36.36 0 0 1 .19 0q.12.06.12.15s-.05.07-.11.07a.09.09 0 0 1-.07 0l-.06-.11c0-.06-.06-.09-.1-.09h-.07a.81.81 0 0 0-.07.42h.26v.06H374v.85h.18z" fill="#fff"/><path d="M374.93 69.8h-.61v-.06h.08s.07-.05.07-.12v-.73h-.15v-.06h.38v.22a.35.35 0 0 1 .07-.12.34.34 0 0 1 .25-.11h.05a.14.14 0 0 1 .11.14.12.12 0 0 1-.12.08.13.13 0 0 1-.08-.08h-.06a.38.38 0 0 0-.12.29v.49h.18zM376.16 69a.47.47 0 0 1 .19.41.48.48 0 0 1-.12.33.5.5 0 0 1-.4.19.5.5 0 0 1-.5-.52.52.52 0 0 1 .11-.33.51.51 0 0 1 .41-.18.55.55 0 0 1 .31.1zm-.53.67c0 .13.1.2.21.2a.17.17 0 0 0 .1 0c.09-.05.14-.19.14-.43a1.47 1.47 0 0 0 0-.25c0-.13-.1-.2-.22-.2a.2.2 0 0 0-.11 0c-.08 0-.13.19-.13.42a.88.88 0 0 0 .01.21zM377 69.8h-.51v-.06h.07c.05 0 .08-.05.08-.12v-.73h-.15v-.06h.38v.19a.33.33 0 0 1 .3-.18h.08a.31.31 0 0 1 .19.21.34.34 0 0 1 .32-.21.3.3 0 0 1 .15.05.32.32 0 0 1 .14.31v.58h.12-.51v-.06h.07s.05 0 .05-.11v-.48a.5.5 0 0 0 0-.12c0-.07-.07-.11-.14-.11h-.06a.26.26 0 0 0-.13.22v.6h.08-.48v-.06h.07s.05 0 .05-.11v-.48a.5.5 0 0 0 0-.12.14.14 0 0 0-.13-.11L377 69a.3.3 0 0 0-.13.26v.55h.13zM378.81 68.89h.19v-.21l.25-.05v.26h.31V69h-.31v.73c0 .09 0 .13.11.13s.13-.07.16-.2h.06a.56.56 0 0 1 0 .12.24.24 0 0 1-.24.14c-.19 0-.29-.12-.3-.34V69h-.16zM380.14 69.8h-.52v-.06h.07c.05 0 .08-.05.08-.12v-1.18h-.15v-.06h.38v.69l.05-.08a.36.36 0 0 1 .29-.14.21.21 0 0 1 .12 0 .32.32 0 0 1 .19.34v.57h.11-.5v-.06h.07v-.59a.19.19 0 0 0 0-.08.16.16 0 0 0-.17-.14h-.09a.3.3 0 0 0-.13.28v.52h.11zM381.83 69.69a.41.41 0 0 1-.37.19.6.6 0 0 1-.27-.07.49.49 0 0 1-.23-.45.51.51 0 0 1 .1-.32.47.47 0 0 1 .4-.19.51.51 0 0 1 .25.06.29.29 0 0 1 .18.27.19.19 0 0 1 0 .08c-.05.07-.18.1-.41.1h-.22q0 .45.27.45h.1a.32.32 0 0 0 .2-.18h.06a.16.16 0 0 1-.06.06zm-.43-.77c-.1 0-.16.16-.16.37H381.55c.05 0 .08-.06.08-.13a.17.17 0 0 0 0-.07c0-.11-.07-.17-.16-.17zM382.5 69.85l.83-1.26h-.41a.2.2 0 0 0-.18.14l-.1.2h-.06v-.4h1l-.82 1.24h.48a.21.21 0 0 0 .22-.19l.07-.22h.06v.47zM384.62 69a.49.49 0 0 1 .19.41.48.48 0 0 1-.12.33.5.5 0 0 1-.4.19.52.52 0 0 1-.32-.11.51.51 0 0 1-.18-.41.52.52 0 0 1 .11-.33.51.51 0 0 1 .41-.18.55.55 0 0 1 .31.1zm-.54.67a.22.22 0 0 0 .22.2.17.17 0 0 0 .1 0c.09-.05.14-.19.14-.43a.81.81 0 0 0 0-.25c0-.13-.1-.2-.21-.2a.24.24 0 0 0-.12 0q-.12.07-.12.42a1.61 1.61 0 0 0-.01.21zM385.73 69.63a.36.36 0 0 1-.55.13.45.45 0 0 1-.19-.41.61.61 0 0 1 .11-.36.43.43 0 0 1 .36-.18.41.41 0 0 1 .28.11v-.52h-.21v-.06h.47v1.41h.13-.38zm-.46-.1c0 .16.1.25.21.25a.21.21 0 0 0 .11 0c.1-.07.14-.21.14-.42a1 1 0 0 0 0-.19q0-.21-.21-.21h-.1c-.09.06-.14.19-.14.41a.91.91 0 0 0-.01.16zM386.78 69.8h-.54v-.06h.07c.05 0 .07-.05.07-.12v-.73h-.14v-.06h.39v.91h.12zm-.11-1.15a.16.16 0 0 1-.14.08h-.07a.13.13 0 0 1-.08-.13.12.12 0 0 1 0-.08.14.14 0 0 1 .13-.08h.07a.15.15 0 0 1 .09.14.19.19 0 0 1 0 .07zM387.55 69.67a.3.3 0 0 1 0 .08.36.36 0 0 1-.28.13h-.11a.23.23 0 0 1-.17-.25c0-.2.2-.31.59-.31v-.15a.22.22 0 0 0 0-.08c0-.1-.06-.16-.15-.16h-.07s-.05 0-.07.11a.12.12 0 0 1-.11.08.11.11 0 0 1-.08-.1.11.11 0 0 1 0-.08.43.43 0 0 1 .37-.13h.11a.32.32 0 0 1 .28.35v.59s.07-.06.08-.16h.06v.11a.2.2 0 0 1-.2.13.23.23 0 0 1-.25-.16zm-.15.1a.28.28 0 0 0 .14-.2v-.21h-.19a.19.19 0 0 0-.15.2c0 .12.05.18.14.18zM388.21 69a.46.46 0 0 1 .39-.18.61.61 0 0 1 .28.07.21.21 0 0 1 .12.18.13.13 0 0 1-.13.08h-.08a.23.23 0 0 1-.05-.13v-.06c0-.06-.06-.09-.13-.09h-.05c-.12 0-.18.18-.18.46s.09.44.26.44h.09a.36.36 0 0 0 .24-.19h.06l-.06.1a.43.43 0 0 1-.36.15.6.6 0 0 1-.27-.07.46.46 0 0 1-.24-.44.5.5 0 0 1 .11-.32z" fill="#fff"/><path fill="#a5802a" d="M357.98 70.18h4.32v.2h-4.32zM362.3 69.81h-1.53l.12-.16a1 1 0 1 0-1.5 0l.13.16H358v-.2h1.15a1.14 1.14 0 0 1-.14-.54 1.15 1.15 0 1 1 2.3 0 1.13 1.13 0 0 1-.13.54h1.14z"/><path d="M358.63 74.43a.67.67 0 0 1-.3.06.46.46 0 0 1-.36-.15.52.52 0 0 1-.14-.39.6.6 0 0 1 .15-.42.58.58 0 0 1 .4-.16.62.62 0 0 1 .25 0v.13a.54.54 0 0 0-.25-.06.38.38 0 0 0-.3.12.45.45 0 0 0-.12.33.46.46 0 0 0 .11.32.35.35 0 0 0 .28.12.51.51 0 0 0 .28-.08zM359.49 74.47h-.12V74q0-.24-.18-.24a.2.2 0 0 0-.15.06.28.28 0 0 0-.04.18v.44h-.13v-1.11h.13v.5a.27.27 0 0 1 .25-.15c.17 0 .26.11.26.32zM360.36 74.12h-.54a.27.27 0 0 0 .07.2.25.25 0 0 0 .18.07.4.4 0 0 0 .24-.09v.12a.54.54 0 0 1-.27.07.33.33 0 0 1-.26-.11.42.42 0 0 1-.09-.29.44.44 0 0 1 .1-.3.34.34 0 0 1 .25-.11.3.3 0 0 1 .24.1.43.43 0 0 1 .08.27zm-.13-.11a.23.23 0 0 0-.05-.17.16.16 0 0 0-.14 0 .2.2 0 0 0-.15.06.26.26 0 0 0-.07.16zM361.09 74.44a.46.46 0 0 1-.21 0 .37.37 0 0 1-.27-.11.41.41 0 0 1-.1-.28.42.42 0 0 1 .11-.3.37.37 0 0 1 .29-.12.34.34 0 0 1 .18 0v.13a.32.32 0 0 0-.18-.06.24.24 0 0 0-.2.08.38.38 0 0 0 0 .44.26.26 0 0 0 .19.08.34.34 0 0 0 .19-.07zM361.93 74.47h-.17l-.34-.37v.37h-.13v-1.14h.13v.72l.32-.35h.16l-.35.37zM363.13 73.7l-.36.89c-.06.16-.15.24-.26.24h-.08v-.11h.07a.16.16 0 0 0 .14-.11l.06-.15-.3-.77h.14l.21.59a.18.18 0 0 0 0 .06.18.18 0 0 1 0-.06l.22-.59zM363.59 74.49a.37.37 0 0 1-.27-.11.39.39 0 0 1-.1-.29.37.37 0 0 1 .39-.41.37.37 0 0 1 .27.11.44.44 0 0 1 .09.29.42.42 0 0 1-.1.3.38.38 0 0 1-.28.11zm0-.7a.22.22 0 0 0-.19.08.34.34 0 0 0-.07.22.38.38 0 0 0 .07.22.26.26 0 0 0 .19.08.22.22 0 0 0 .18-.08.31.31 0 0 0 .07-.22.33.33 0 0 0-.07-.23.21.21 0 0 0-.17-.07zM364.81 74.47h-.12v-.12a.27.27 0 0 1-.24.14c-.19 0-.28-.11-.28-.33v-.46h.13v.44c0 .16.06.25.18.25a.21.21 0 0 0 .15-.07.26.26 0 0 0 .06-.18v-.44h.12zM365.48 73.82h-.09a.16.16 0 0 0-.14.07.41.41 0 0 0-.05.21v.39h-.12v-.79h.12v.16a.25.25 0 0 1 .09-.13.16.16 0 0 1 .12 0h.07zM366.73 74.47h-.13v-.13a.28.28 0 0 1-.26.15.29.29 0 0 1-.23-.1.44.44 0 0 1-.09-.29.47.47 0 0 1 .09-.3.32.32 0 0 1 .26-.12.24.24 0 0 1 .23.13v-.48h.13zm-.13-.35V74a.23.23 0 0 0-.06-.16.2.2 0 0 0-.15-.06.19.19 0 0 0-.18.08.37.37 0 0 0-.06.23.33.33 0 0 0 .06.21.19.19 0 0 0 .16.08.21.21 0 0 0 .17-.08.29.29 0 0 0 .06-.18zM367.55 74.47h-.13v-.12a.26.26 0 0 1-.24.14.28.28 0 0 1-.18-.06.23.23 0 0 1-.06-.16c0-.15.08-.23.25-.26h.23c0-.13-.05-.19-.16-.19a.4.4 0 0 0-.25.09v-.13a.59.59 0 0 1 .26-.07c.19 0 .28.1.28.29zm-.13-.39h-.18a.22.22 0 0 0-.13 0 .13.13 0 0 0-.05.11.15.15 0 0 0 0 .09.21.21 0 0 0 .11 0 .21.21 0 0 0 .15-.07.23.23 0 0 0 .06-.16zM367.86 73.5a.07.07 0 0 1-.06 0 .08.08 0 0 1 0-.06.09.09 0 0 1 .06 0h.06a.11.11 0 0 1 0 .06.07.07 0 0 1-.06 0zm.06 1h-.12v-.8h.12zM368.31 74.47h-.12v-1.14h.12zM369.19 73.7l-.35.89q-.1.24-.27.24h-.08v-.11h.07c.07 0 .11 0 .14-.11l.06-.15-.3-.77h.14l.21.59a.35.35 0 0 1 0 .06.35.35 0 0 0 0-.06l.22-.59zM370.4 74.47h-.12v-.12a.27.27 0 0 1-.24.14c-.18 0-.28-.11-.28-.33v-.46h.13v.44c0 .16.06.25.18.25a.21.21 0 0 0 .15-.07.26.26 0 0 0 .06-.18v-.44h.12zM370.8 74.36v.47h-.12V73.7h.12v.13a.28.28 0 0 1 .26-.15.29.29 0 0 1 .23.1.51.51 0 0 1 0 .59.3.3 0 0 1-.25.12.25.25 0 0 1-.24-.13zm0-.31v.11a.25.25 0 0 0 .06.16.26.26 0 0 0 .16.07.21.21 0 0 0 .18-.09.43.43 0 0 0 .06-.24.3.3 0 0 0-.06-.2.19.19 0 0 0-.16-.07.21.21 0 0 0-.17.07.25.25 0 0 0-.08.19zM372.25 74.47h-.13v-.13a.28.28 0 0 1-.26.15.29.29 0 0 1-.23-.1.44.44 0 0 1-.09-.29.42.42 0 0 1 .1-.3.29.29 0 0 1 .25-.12.24.24 0 0 1 .23.13v-.48h.13zm-.13-.35V74a.23.23 0 0 0-.06-.16.2.2 0 0 0-.15-.06.19.19 0 0 0-.18.08.37.37 0 0 0-.06.23.33.33 0 0 0 .06.21.19.19 0 0 0 .16.08.21.21 0 0 0 .17-.08.29.29 0 0 0 .06-.18zM373.07 74.47h-.13v-.12a.26.26 0 0 1-.24.14.28.28 0 0 1-.18-.06.23.23 0 0 1-.06-.16c0-.15.08-.23.25-.26h.23c0-.13-.05-.19-.16-.19a.4.4 0 0 0-.25.09v-.13a.59.59 0 0 1 .26-.07c.19 0 .28.1.28.29zm-.13-.39h-.18a.22.22 0 0 0-.13 0 .13.13 0 0 0-.05.11.15.15 0 0 0 0 .09.21.21 0 0 0 .11 0 .21.21 0 0 0 .15-.07.23.23 0 0 0 .06-.16zM373.67 74.46a.18.18 0 0 1-.11 0c-.14 0-.2-.08-.2-.23v-.43h-.14v-.1h.14v-.19h.12v.23h.19v.1h-.19v.44a.16.16 0 0 0 0 .11h.08a.11.11 0 0 0 .08 0zM374.46 74.12h-.54a.27.27 0 0 0 .07.2.25.25 0 0 0 .18.07.36.36 0 0 0 .24-.09v.12a.54.54 0 0 1-.27.07.35.35 0 0 1-.26-.11.42.42 0 0 1-.09-.29.49.49 0 0 1 .1-.3.36.36 0 0 1 .26-.11.28.28 0 0 1 .23.1.43.43 0 0 1 .08.27zm-.12-.11a.24.24 0 0 0-.06-.17.16.16 0 0 0-.14 0 .2.2 0 0 0-.14.06.27.27 0 0 0-.08.16zM375.66 74.47h-.13v-.12a.26.26 0 0 1-.24.14.28.28 0 0 1-.18-.06.23.23 0 0 1-.06-.16c0-.15.08-.23.25-.26h.23c0-.13 0-.19-.15-.19a.41.41 0 0 0-.26.09v-.13a.6.6 0 0 1 .27-.07c.18 0 .27.1.27.29zm-.13-.39h-.18a.22.22 0 0 0-.13 0 .12.12 0 0 0 0 .11.11.11 0 0 0 0 .09.15.15 0 0 0 .1 0 .21.21 0 0 0 .15-.07.23.23 0 0 0 .06-.16zM376 74.36v.11h-.12v-1.14h.12v.5a.29.29 0 0 1 .27-.15.31.31 0 0 1 .23.1.42.42 0 0 1 .08.28.48.48 0 0 1-.09.31.31.31 0 0 1-.26.12.26.26 0 0 1-.23-.13zm0-.31v.11a.25.25 0 0 0 .06.16.24.24 0 0 0 .16.07.2.2 0 0 0 .17-.09.36.36 0 0 0 .07-.24.3.3 0 0 0-.06-.2.19.19 0 0 0-.16-.07.21.21 0 0 0-.17.07.25.25 0 0 0-.07.19zM377.15 74.49a.37.37 0 0 1-.27-.11.39.39 0 0 1-.1-.29.37.37 0 0 1 .39-.41.37.37 0 0 1 .27.11.44.44 0 0 1 .09.29.42.42 0 0 1-.1.3.38.38 0 0 1-.28.11zm0-.7a.22.22 0 0 0-.19.08.34.34 0 0 0-.07.22.38.38 0 0 0 .07.22.26.26 0 0 0 .19.08.22.22 0 0 0 .18-.08.31.31 0 0 0 .07-.22.33.33 0 0 0-.07-.23.21.21 0 0 0-.17-.07zM378.37 74.47h-.12v-.12a.25.25 0 0 1-.23.14c-.19 0-.28-.11-.28-.33v-.46h.13v.44c0 .16.06.25.18.25a.21.21 0 0 0 .15-.07.26.26 0 0 0 .06-.18v-.44h.12zM379 74.46a.16.16 0 0 1-.11 0c-.14 0-.2-.08-.2-.23v-.43h-.13v-.1h.13v-.19h.12v.23h.19v.1h-.19v.44a.16.16 0 0 0 0 .11h.16zM380 74.46a.18.18 0 0 1-.11 0c-.14 0-.2-.08-.2-.23v-.43h-.14v-.1h.14v-.19h.12v.23h.19v.1h-.19v.44a.16.16 0 0 0 0 .11h.08a.11.11 0 0 0 .08 0zM380.79 74.47h-.12V74q0-.24-.18-.24a.2.2 0 0 0-.15.06.28.28 0 0 0-.06.18v.44h-.12v-1.11h.12v.5a.29.29 0 0 1 .26-.15c.17 0 .25.11.25.32zM381.66 74.12h-.54a.32.32 0 0 0 .07.2.25.25 0 0 0 .18.07.36.36 0 0 0 .24-.09v.12a.54.54 0 0 1-.27.07.31.31 0 0 1-.25-.11.38.38 0 0 1-.1-.29.49.49 0 0 1 .1-.3.36.36 0 0 1 .26-.11.26.26 0 0 1 .23.1.38.38 0 0 1 .08.27zm-.12-.11a.29.29 0 0 0-.05-.17.22.22 0 0 0-.29 0 .27.27 0 0 0-.08.16zM382.43 74.36v.47h-.12V73.7h.12v.13a.32.32 0 0 1 .5 0 .42.42 0 0 1 .08.28.48.48 0 0 1-.09.31.31.31 0 0 1-.26.12.26.26 0 0 1-.23-.18zm0-.31v.11a.25.25 0 0 0 .06.16.24.24 0 0 0 .16.07.23.23 0 0 0 .18-.09.43.43 0 0 0 .06-.24.3.3 0 0 0-.06-.2.19.19 0 0 0-.16-.07.21.21 0 0 0-.17.07.25.25 0 0 0-.07.19zM383.35 74.47h-.12v-1.14h.12zM384.17 74.47h-.12v-.12a.28.28 0 0 1-.24.14.24.24 0 0 1-.18-.06.24.24 0 0 1-.07-.16c0-.15.09-.23.26-.26h.23c0-.13-.05-.19-.16-.19a.38.38 0 0 0-.25.09v-.13a.53.53 0 0 1 .26-.07c.18 0 .27.1.27.29zm-.12-.39h-.19a.25.25 0 0 0-.13 0 .12.12 0 0 0 0 .11.11.11 0 0 0 0 .09.18.18 0 0 0 .11 0 .21.21 0 0 0 .15-.07.23.23 0 0 0 .06-.16zM385.06 74.47h-.12V74q0-.24-.18-.24a.2.2 0 0 0-.15.06.28.28 0 0 0-.06.18v.44h-.13v-.74h.13v.13a.27.27 0 0 1 .25-.15.24.24 0 0 1 .19.08.36.36 0 0 1 .07.24zM385.93 74.12h-.54a.32.32 0 0 0 .06.2.29.29 0 0 0 .19.07.4.4 0 0 0 .24-.09v.12a.54.54 0 0 1-.27.07.33.33 0 0 1-.26-.11.42.42 0 0 1-.09-.29.44.44 0 0 1 .1-.3.34.34 0 0 1 .25-.11.3.3 0 0 1 .24.1.43.43 0 0 1 .08.27zm-.13-.12a.29.29 0 0 0-.05-.17.16.16 0 0 0-.14 0 .2.2 0 0 0-.15.06.26.26 0 0 0-.07.16zM386.49 74.46a.2.2 0 0 1-.11 0c-.14 0-.21-.08-.21-.23v-.43H386v-.1h.13v-.19h.13v.23h.19v.1h-.19v.55a.12.12 0 0 0 .09 0 .11.11 0 0 0 .08 0zM386.63 74.44v-.13a.35.35 0 0 0 .22.08c.11 0 .16 0 .16-.11a.13.13 0 0 0 0-.06h-.28v-.06a.19.19 0 0 1 0-.08.29.29 0 0 1 0-.09.23.23 0 0 1 .07-.07.18.18 0 0 1 .09 0h.11a.34.34 0 0 1 .18 0v.12a.32.32 0 0 0-.19 0h-.07.28a.21.21 0 0 1 0 .06.24.24 0 0 1 0 .08.15.15 0 0 1 0 .1.16.16 0 0 1-.07.07h-.21a.39.39 0 0 1-.29.09zM387.5 73.37l-.11.34h-.09l.08-.34zM358 76.21v.47h-.13v-1.13h.13v.14a.28.28 0 0 1 .26-.16.3.3 0 0 1 .24.11.47.47 0 0 1 .08.28.52.52 0 0 1-.09.31.35.35 0 0 1-.26.11.25.25 0 0 1-.23-.13zm0-.31v.1a.23.23 0 0 0 .06.16.18.18 0 0 0 .15.07.2.2 0 0 0 .18-.09.43.43 0 0 0 .06-.24.32.32 0 0 0-.06-.2.19.19 0 0 0-.16-.07.21.21 0 0 0-.17.07.31.31 0 0 0-.06.2zM359.13 76.34a.34.34 0 0 1-.28-.11.41.41 0 0 1-.1-.28.45.45 0 0 1 .11-.31.38.38 0 0 1 .28-.11.34.34 0 0 1 .27.11.39.39 0 0 1 .1.29.41.41 0 0 1-.11.3.35.35 0 0 1-.27.11zm0-.7a.21.21 0 0 0-.19.08.38.38 0 0 0 0 .44.24.24 0 0 0 .19.08.23.23 0 0 0 .18-.08.36.36 0 0 0 .06-.22.34.34 0 0 0-.06-.22.21.21 0 0 0-.17-.08zM359.68 76.3v-.14a.35.35 0 0 0 .22.08c.11 0 .16 0 .16-.11L360 76h-.15a.18.18 0 0 1-.07 0 .09.09 0 0 1 0-.06.15.15 0 0 1 0-.07.3.3 0 0 1 0-.1l.07-.07h.2a.48.48 0 0 1 .18 0v.12a.38.38 0 0 0-.19 0h-.07a.13.13 0 0 0 0 .1h.16a.18.18 0 0 1 .07 0 .09.09 0 0 1 0 .06.19.19 0 0 1 0 .08.17.17 0 0 1 0 .1l-.06.07h-.22a.42.42 0 0 1-.24.07zM360.75 76.32h-.11c-.14 0-.21-.08-.21-.23v-.45h-.13v-.11h.13v-.19h.13v.23h.19v.11h-.19v.43a.27.27 0 0 0 0 .11.1.1 0 0 0 .09 0 .11.11 0 0 0 .08 0zM361 75.36a.09.09 0 0 1-.06 0 .08.08 0 0 1 0-.06.1.1 0 0 1 .12 0 .08.08 0 0 1 0 .06.09.09 0 0 1-.06 0zm.06 1h-.13v-.77h.13zM361.65 76.34a.34.34 0 0 1-.28-.11.41.41 0 0 1-.1-.28.45.45 0 0 1 .11-.31.38.38 0 0 1 .28-.11.34.34 0 0 1 .27.11.39.39 0 0 1 .1.29.4.4 0 0 1-.1.3.39.39 0 0 1-.28.11zm0-.7a.21.21 0 0 0-.19.08.38.38 0 0 0 0 .44.26.26 0 0 0 .19.08.22.22 0 0 0 .18-.08.36.36 0 0 0 .06-.22.34.34 0 0 0-.06-.22.19.19 0 0 0-.17-.08zM362.88 76.32h-.12v-.44q0-.24-.18-.24a.18.18 0 0 0-.15.07.24.24 0 0 0-.06.17v.44h-.12v-.77h.12v.13a.27.27 0 0 1 .25-.15.24.24 0 0 1 .2.09.37.37 0 0 1 .06.23zM363.2 75.36a.07.07 0 0 1-.06 0v-.06c0-.06 0 0 .06 0h.05a.06.06 0 0 1 0 .06.12.12 0 0 1-.08.08zm.06 1h-.13v-.77h.13zM364.16 76.32H364v-.44q0-.24-.18-.24a.18.18 0 0 0-.15.07.24.24 0 0 0-.06.17v.44h-.13v-.77h.13v.13a.27.27 0 0 1 .25-.15.24.24 0 0 1 .2.09.37.37 0 0 1 .06.23zM365.07 76.26c0 .29-.14.43-.41.43a.54.54 0 0 1-.25-.06v-.12a.5.5 0 0 0 .25.07.26.26 0 0 0 .29-.3v-.09a.28.28 0 0 1-.26.15.28.28 0 0 1-.23-.1.41.41 0 0 1-.09-.28.45.45 0 0 1 .1-.31.29.29 0 0 1 .25-.12.25.25 0 0 1 .23.13v-.11h.12zM365 76v-.11a.21.21 0 0 0-.07-.16.2.2 0 0 0-.15-.06.22.22 0 0 0-.18.08.39.39 0 0 0-.06.23.33.33 0 0 0 .06.21.19.19 0 0 0 .16.08.21.21 0 0 0 .17-.08.29.29 0 0 0 .07-.19zM366.74 76.34h-.14l-.05-.06-.06-.07a.23.23 0 0 1-.07.07l-.08.05h-.38a.27.27 0 0 1-.12-.06.36.36 0 0 1-.07-.1.28.28 0 0 1 0-.13.29.29 0 0 1 .07-.2.42.42 0 0 1 .18-.13v-.06a.22.22 0 0 1 0-.08.16.16 0 0 1 0-.1.16.16 0 0 1 .06-.08.19.19 0 0 1 .09-.05H366.38a.26.26 0 0 1 .09.05.18.18 0 0 1 .05.07.29.29 0 0 1 0 .09.25.25 0 0 1-.05.15.45.45 0 0 1-.15.11l.09.05.08.06.06.08.06.09a1.14 1.14 0 0 0 .1-.19.78.78 0 0 0 0-.22h.12a.71.71 0 0 1 0 .14.65.65 0 0 1 0 .13.75.75 0 0 1-.06.13l-.06.1a.43.43 0 0 0 0 .07h.2v.11h-.05zm-.63-.11h.26a.17.17 0 0 0 .06-.06.62.62 0 0 0-.08-.12l-.08-.09-.08-.06H366l-.07.06a.18.18 0 0 0-.05.07.31.31 0 0 0 0 .1.15.15 0 0 0 0 .09l.05.06h.07zm.19-.77a.14.14 0 0 0 0-.06h-.1a.21.21 0 0 0-.12 0 .16.16 0 0 0 0 .11v.06h.05l.14-.07a.17.17 0 0 0 .03-.04zM368.1 76.32h-.1v-.44q0-.24-.18-.24a.18.18 0 0 0-.15.07.24.24 0 0 0-.06.18v.43h-.12v-1.14h.12v.5a.29.29 0 0 1 .25-.15c.18 0 .26.11.26.32zM368.68 76.34a.34.34 0 0 1-.28-.11.41.41 0 0 1-.1-.28.45.45 0 0 1 .11-.31.38.38 0 0 1 .28-.11.34.34 0 0 1 .27.11.39.39 0 0 1 .1.29.41.41 0 0 1-.11.3.35.35 0 0 1-.27.11zm0-.7a.21.21 0 0 0-.18.08.38.38 0 0 0 0 .44.23.23 0 0 0 .18.08.24.24 0 0 0 .19-.08.36.36 0 0 0 .06-.22.34.34 0 0 0-.06-.22.21.21 0 0 0-.19-.08zM370.24 75.55l-.23.77h-.13l-.15-.55a.64.64 0 0 1 0-.07v.07l-.18.55h-.12l-.23-.77h.13l.16.58a.2.2 0 0 0 0 .07.25.25 0 0 1 0-.07l.17-.58h.12l.15.58v0l.16-.58zM371.2 76.32h-.11c-.14 0-.21-.08-.21-.23v-.45h-.13v-.11h.13v-.19h.13v.23h.19v.11h-.2v.43a.27.27 0 0 0 0 .11.1.1 0 0 0 .09 0 .11.11 0 0 0 .08 0zM372 76.32h-.12v-.44q0-.24-.18-.24a.18.18 0 0 0-.15.07.24.24 0 0 0-.06.18v.43h-.13v-1.14h.13v.5a.27.27 0 0 1 .25-.15c.17 0 .26.11.26.32zM372.89 76h-.54a.27.27 0 0 0 .07.2.25.25 0 0 0 .18.07.4.4 0 0 0 .24-.09v.12a.45.45 0 0 1-.27.07.33.33 0 0 1-.26-.1.45.45 0 0 1-.09-.3.39.39 0 0 1 .1-.29.32.32 0 0 1 .25-.12.33.33 0 0 1 .24.1.46.46 0 0 1 .08.27zm-.13-.11a.21.21 0 0 0-.05-.16.17.17 0 0 0-.14-.06.2.2 0 0 0-.15.06.29.29 0 0 0-.07.16zM373.71 75.55l-.36.9c-.06.16-.15.24-.26.24H373v-.11h.07a.16.16 0 0 0 .14-.11l.06-.15-.3-.77h.14l.2.6.22-.6zM374.82 76.29a.46.46 0 0 1-.21 0 .3.3 0 0 1-.26-.11.37.37 0 0 1-.11-.27.45.45 0 0 1 .11-.31.38.38 0 0 1 .29-.12.48.48 0 0 1 .18 0v.13a.3.3 0 0 0-.18-.06.26.26 0 0 0-.19.08.34.34 0 0 0-.08.23.28.28 0 0 0 .07.21.26.26 0 0 0 .19.08.28.28 0 0 0 .19-.07zM375.58 76.32h-.13v-.12a.24.24 0 0 1-.24.14.28.28 0 0 1-.18-.06.21.21 0 0 1-.06-.16c0-.15.08-.23.25-.25h.23c0-.13-.05-.19-.16-.19a.4.4 0 0 0-.25.09v-.12a.5.5 0 0 1 .26-.08c.19 0 .28.1.28.29zm-.13-.39h-.18a.33.33 0 0 0-.13 0 .13.13 0 0 0-.05.11.13.13 0 0 0 0 .09.15.15 0 0 0 .11 0 .18.18 0 0 0 .15-.07.21.21 0 0 0 .06-.16zM376.46 76.32h-.12v-.44q0-.24-.18-.24a.18.18 0 0 0-.15.07.24.24 0 0 0-.06.17v.44h-.12v-.77h.17v.13a.27.27 0 0 1 .25-.15.24.24 0 0 1 .2.09.37.37 0 0 1 .06.23zM377.7 76.32h-.12v-.12a.24.24 0 0 1-.24.14.28.28 0 0 1-.18-.06.21.21 0 0 1-.06-.16c0-.15.08-.23.25-.25h.23c0-.13-.05-.19-.16-.19a.4.4 0 0 0-.25.09v-.12a.5.5 0 0 1 .26-.08c.18 0 .27.1.27.29zm-.12-.39h-.18a.33.33 0 0 0-.13 0 .13.13 0 0 0 0 .11.13.13 0 0 0 0 .09.15.15 0 0 0 .11 0 .18.18 0 0 0 .15-.07.21.21 0 0 0 .06-.16zM378.34 75.29h-.09c-.08 0-.13 0-.13.16v.12h.18v.11h-.18v.66H378v-.66h-.13v-.11h.13v-.12a.32.32 0 0 1 .07-.2.29.29 0 0 1 .18-.07h.09zM378.84 75.29h-.09c-.08 0-.13 0-.13.16v.12h.18v.11h-.18v.66h-.12v-.66h-.13v-.11h.13v-.12a.32.32 0 0 1 .07-.2.29.29 0 0 1 .18-.07h.09zM379.57 76H379a.32.32 0 0 0 .07.2.25.25 0 0 0 .18.07.36.36 0 0 0 .24-.09v.12a.45.45 0 0 1-.27.07.3.3 0 0 1-.25-.1.4.4 0 0 1-.1-.3.44.44 0 0 1 .1-.29.34.34 0 0 1 .26-.12.29.29 0 0 1 .23.1.4.4 0 0 1 .08.27zm-.12-.11a.25.25 0 0 0-.05-.16.2.2 0 0 0-.15-.06.2.2 0 0 0-.14.06.3.3 0 0 0-.08.16zM380.3 76.29a.46.46 0 0 1-.21 0 .3.3 0 0 1-.26-.11.36.36 0 0 1-.1-.27.45.45 0 0 1 .1-.31.38.38 0 0 1 .29-.12.48.48 0 0 1 .18 0v.13a.28.28 0 0 0-.18-.06.26.26 0 0 0-.19.08.34.34 0 0 0-.08.23.28.28 0 0 0 .07.21.26.26 0 0 0 .19.08.28.28 0 0 0 .19-.07zM380.86 76.32h-.11c-.14 0-.2-.08-.2-.23v-.45h-.14v-.11h.14v-.19h.12v.23h.19v.11h-.19v.43a.16.16 0 0 0 0 .11h.08a.11.11 0 0 0 .08 0zM382.1 75.55l-.36.9c-.06.16-.15.24-.26.24h-.08v-.11h.07a.16.16 0 0 0 .14-.11l.06-.15-.3-.77h.14l.21.6.22-.6zM382.56 76.34a.33.33 0 0 1-.27-.11.37.37 0 0 1-.1-.28.45.45 0 0 1 .1-.31.4.4 0 0 1 .29-.11.37.37 0 0 1 .27.11.44.44 0 0 1 .09.29.4.4 0 0 1-.1.3.38.38 0 0 1-.28.11zm0-.7a.22.22 0 0 0-.19.08.38.38 0 0 0 0 .44.26.26 0 0 0 .19.08.22.22 0 0 0 .18-.08.31.31 0 0 0 .07-.22.29.29 0 0 0-.07-.22.19.19 0 0 0-.17-.08zM383.78 76.32h-.12v-.12a.25.25 0 0 1-.24.14c-.18 0-.28-.11-.28-.33v-.46h.13V76c0 .17.06.25.18.25a.18.18 0 0 0 .15-.07.24.24 0 0 0 .06-.17v-.45h.12zM384.45 75.68a.12.12 0 0 0-.09 0 .17.17 0 0 0-.14.08.37.37 0 0 0-.05.2v.39h-.12v-.77h.12v.16a.22.22 0 0 1 .08-.13.16.16 0 0 1 .12 0h.07zM385.7 76.32h-.13v-.13a.28.28 0 0 1-.26.15.26.26 0 0 1-.23-.1.41.41 0 0 1-.08-.24.45.45 0 0 1 .1-.31.29.29 0 0 1 .25-.12.25.25 0 0 1 .23.13v-.48h.13zm-.13-.35v-.11a.25.25 0 0 0-.06-.16.2.2 0 0 0-.15-.06.22.22 0 0 0-.18.08.39.39 0 0 0-.06.23.33.33 0 0 0 .06.21.19.19 0 0 0 .16.08.21.21 0 0 0 .17-.08.29.29 0 0 0 .06-.16zM386.52 76.32h-.13v-.12a.24.24 0 0 1-.24.14.28.28 0 0 1-.18-.06.21.21 0 0 1-.06-.16c0-.15.08-.23.25-.25h.23c0-.13-.05-.19-.16-.19a.4.4 0 0 0-.25.09v-.12a.5.5 0 0 1 .27-.08c.18 0 .27.1.27.29zm-.13-.39h-.18a.33.33 0 0 0-.13 0 .13.13 0 0 0-.05.11.13.13 0 0 0 0 .09.15.15 0 0 0 .11 0 .18.18 0 0 0 .15-.07.21.21 0 0 0 .06-.16zM387.38 75.55l-.36.9c-.06.16-.15.24-.26.24h-.08v-.11h.07a.16.16 0 0 0 .14-.11l.06-.15-.3-.77h.14l.21.6.22-.6zM387.62 76.34a.09.09 0 0 1-.06 0 .08.08 0 0 1 0-.06.09.09 0 0 1 .06 0 .06.06 0 0 1 .06 0 .11.11 0 0 1-.09.09zm.07-1.1v.78h-.1v-.78z" fill="#fff"/><rect x="343.87" y="57.05" width="32.43" height="3.1" rx="1.55" ry="1.55" fill="#a5802a"/><path d="M375.55 60.18h-30.92a.78.78 0 0 1-.78-.78v-1.6a.78.78 0 0 1 .78-.78h30.92a.78.78 0 0 1 .78.78v1.6a.78.78 0 0 1-.78.78zm-30.92-3.11a.73.73 0 0 0-.73.73v1.6a.73.73 0 0 0 .73.73h30.92a.73.73 0 0 0 .73-.73v-1.6a.73.73 0 0 0-.73-.73z" fill="#a5802a"/><rect x="357.04" y="37.21" width="6.1" height="21.03" rx="3.05" ry="3.05" fill="#a5802a"/><path d="M362.38 58.43h-4.58a.94.94 0 0 1-.95-.94V38a.94.94 0 0 1 .95-.94h4.58a1 1 0 0 1 .95.94v19.49a1 1 0 0 1-.95.94zm-4.58-21a.57.57 0 0 0-.57.57v19.49a.56.56 0 0 0 .57.56h4.58a.56.56 0 0 0 .57-.56V38a.57.57 0 0 0-.57-.57z" fill="#a5802a"/><path fill="#202020" d="M323.94 7.13h72.3v43.46h-72.3z"/><path d="M396.52 50.87h-72.86v-44h72.86zm-72.3-.56H396V7.42h-71.78z" fill="#a5802a"/><rect x="356.23" y="9.66" width="37.7" height="11.95" rx="3.24" ry="3.24" fill="#0c0c0c"/><path d="M393.32 21.8h-36.48a.8.8 0 0 1-.8-.8V10.27a.79.79 0 0 1 .8-.79h36.48a.79.79 0 0 1 .8.79V21a.8.8 0 0 1-.8.8zm-36.48-12a.42.42 0 0 0-.42.42V21a.42.42 0 0 0 .42.42h36.48a.42.42 0 0 0 .42-.42V10.27a.42.42 0 0 0-.42-.42z" fill="#a5802a"/><path fill="#a5802a" d="M356.27 14h37.66v.38h-37.66z"/><path d="M364.1 12.53v-.06h.18v-1.24h-.18v-.06h.72a.62.62 0 0 1 .31.08.34.34 0 0 1 .14.28.45.45 0 0 1 0 .11.4.4 0 0 1-.3.24l.36.59h.07v.06h-.4l-.34-.62h-.14v.56h.18v.06zm.46-1.3v.61h.16a.21.21 0 0 0 .14 0 .32.32 0 0 0 .12-.27.59.59 0 0 0 0-.13.26.26 0 0 0-.25-.17zM366.39 12.37a.4.4 0 0 1-.37.18.5.5 0 0 1-.27-.07.55.55 0 0 1-.13-.76.45.45 0 0 1 .4-.19.66.66 0 0 1 .25.05.29.29 0 0 1 .18.27.29.29 0 0 1 0 .09c-.05.07-.18.1-.41.09h-.22q0 .45.27.45h.1a.31.31 0 0 0 .2-.19h.06zm-.43-.78c-.1 0-.16.16-.16.37h.31a.13.13 0 0 0 .08-.13.22.22 0 0 0 0-.08c0-.11-.07-.16-.16-.16zM367.2 12.34a.2.2 0 0 1 0 .08.33.33 0 0 1-.28.13h-.12a.23.23 0 0 1-.16-.25c0-.2.19-.3.59-.31v-.14a.19.19 0 0 0 0-.08c0-.11-.06-.16-.15-.16H367a.19.19 0 0 0-.07.12.12.12 0 0 1-.12.09.1.1 0 0 1-.07-.1.13.13 0 0 1 0-.08q.07-.12.36-.12h.12a.32.32 0 0 1 .28.35v.47c0 .07 0 .11.05.11s.07-.05.08-.16h.06a.3.3 0 0 1 0 .1.17.17 0 0 1-.19.13c-.2.03-.27-.04-.3-.18zm-.16.1a.29.29 0 0 0 .15-.2V12a.84.84 0 0 0-.19 0 .18.18 0 0 0-.15.19c0 .12 0 .19.14.19zM368.49 12.31a.33.33 0 0 1-.32.2.34.34 0 0 1-.22-.07.47.47 0 0 1-.19-.42.61.61 0 0 1 .11-.35.42.42 0 0 1 .35-.18.41.41 0 0 1 .29.1v-.51h-.21v-.06h.46v1.41h.13v.06h-.38zm-.46-.1q0 .24.21.24a.15.15 0 0 0 .11 0c.09-.06.14-.2.14-.42a1.11 1.11 0 0 0 0-.19c0-.14-.1-.2-.21-.2a.2.2 0 0 0-.1 0c-.1.06-.14.2-.14.42a.91.91 0 0 0-.04.15zM369.53 12.47v.06H369v-.06h.07s.07-.05.07-.11v-.73H369v-.06h.39v.91h.11zm-.1-1.15a.14.14 0 0 1-.14.08h-.07a.15.15 0 0 1-.08-.14.1.1 0 0 1 0-.07.12.12 0 0 1 .13-.08h.07a.14.14 0 0 1 .08.14.15.15 0 0 1 .01.07zM370.19 12.47v.06h-.52v-.06h.07a.1.1 0 0 0 .08-.11v-.73h-.15v-.06h.38v.19l.06-.09a.34.34 0 0 1 .27-.13h.13a.34.34 0 0 1 .19.35v.57h.11v.06h-.52v-.06h.08s.05-.05.05-.11v-.49-.09a.16.16 0 0 0-.16-.13h-.09a.3.3 0 0 0-.13.25v.56h.1zM371.74 11.59a.14.14 0 0 1 0-.06.21.21 0 0 1 .18-.12h.08a.12.12 0 0 1 .08.11.07.07 0 0 1-.07.06.07.07 0 0 1-.06 0h-.07c-.02 0-.07 0-.09.08a.31.31 0 0 1 .12.26.38.38 0 0 1-.08.23.41.41 0 0 1-.35.16h-.26s-.06 0-.06.06 0 .06.08.06h.52c.15 0 .23.11.23.25a.15.15 0 0 1 0 .11c-.07.12-.23.17-.47.17a.66.66 0 0 1-.25 0q-.15-.06-.15-.18a.2.2 0 0 1 .06-.14.23.23 0 0 1-.09-.18.19.19 0 0 1 0-.08.17.17 0 0 1 .18-.12h-.05a.33.33 0 0 1-.16-.28.36.36 0 0 1 .07-.22.44.44 0 0 1 .37-.15.51.51 0 0 1 .24-.02zm-.05 1.3c.13 0 .2-.08.2-.15s-.07 0-.17 0h-.42a.15.15 0 0 1-.09 0 .49.49 0 0 0 0 .11.14.14 0 0 0 0 .06c0 .08.14.12.31.12zm-.38-.81a.18.18 0 0 0 .27.11.38.38 0 0 0 .08-.29.74.74 0 0 0 0-.18.15.15 0 0 0-.16-.13.18.18 0 0 0-.11 0 .41.41 0 0 0-.07.28c-.02.13-.01.13-.01.21zM372.53 12.49a.18.18 0 0 0 .19-.1.09.09 0 0 0 0-.05c0-.07-.05-.13-.14-.18l-.1-.05a.79.79 0 0 1-.24-.14.25.25 0 0 1-.06-.17.24.24 0 0 1 .2-.24.63.63 0 0 1 .46 0v-.07.29h-.07a.2.2 0 0 0-.22-.21c-.11 0-.17 0-.19.09a.11.11 0 0 0 0 .05c0 .07 0 .12.13.17h.1a.79.79 0 0 1 .24.14.33.33 0 0 1 .06.19.24.24 0 0 1-.19.25.58.58 0 0 1-.19 0 .59.59 0 0 1-.31-.07v.06-.25h.07c0 .19.09.29.26.29zM374.18 12.47v.06h-.64v-.06h.07a.1.1 0 0 0 .1-.11v-.73h-.17v-.06h.17a.62.62 0 0 1 .07-.29.39.39 0 0 1 .36-.19.5.5 0 0 1 .19 0q.12.06.12.15a.1.1 0 0 1-.11.07.08.08 0 0 1-.07 0l-.06-.11c0-.06-.06-.08-.1-.08a.08.08 0 0 0-.07 0 .76.76 0 0 0-.07.42h.26v.06H374v.85h.18z" fill="#fff"/><path d="M374.93 12.47v.06h-.61v-.06h.08a.1.1 0 0 0 .07-.11v-.73h-.15v-.06h.38v.21a.75.75 0 0 1 .07-.12.38.38 0 0 1 .25-.11h.05a.13.13 0 0 1 .11.13.13.13 0 0 1 0 .06.12.12 0 0 1-.12.08.15.15 0 0 1-.08-.09s0-.05-.06-.05a.36.36 0 0 0-.12.29v.49h.18zM376.16 11.63a.45.45 0 0 1 .19.4.52.52 0 0 1-.12.34.52.52 0 0 1-.71.07.48.48 0 0 1-.19-.41.52.52 0 0 1 .11-.33.53.53 0 0 1 .41-.17.48.48 0 0 1 .31.1zm-.53.67c0 .13.1.19.21.19h.1c.09-.05.14-.2.14-.44a1.57 1.57 0 0 0 0-.25.21.21 0 0 0-.22-.19.2.2 0 0 0-.11 0c-.08.05-.13.19-.13.42a.93.93 0 0 0 .01.27zM377 12.47v.06h-.51v-.06h.07a.1.1 0 0 0 .08-.11v-.73h-.15v-.06h.38v.18a.34.34 0 0 1 .3-.17h.08a.31.31 0 0 1 .19.21.35.35 0 0 1 .32-.2.28.28 0 0 1 .15 0 .34.34 0 0 1 .14.32v.58h.12v.06h-.51v-.06h.07s.05-.05.05-.11v-.49a.36.36 0 0 0 0-.11c0-.08-.07-.12-.14-.12h-.06a.25.25 0 0 0-.13.22v.6h.08v.06h-.48v-.06h.07s.05-.05.05-.11v-.49a.36.36 0 0 0 0-.11.14.14 0 0 0-.13-.11h-.07a.28.28 0 0 0-.13.25v.56h.16zM378.81 11.57h.19v-.22h.25v.27h.31v.06h-.31v.73c0 .08 0 .12.11.12s.13-.06.16-.2h.06a.34.34 0 0 1 0 .12.23.23 0 0 1-.24.14c-.19 0-.29-.12-.3-.34v-.58h-.16zM380.14 12.47v.06h-.52v-.06h.07a.1.1 0 0 0 .08-.11v-1.24h-.15v-.06h.38v.69l.05-.09a.35.35 0 0 1 .29-.13h.12a.33.33 0 0 1 .19.35v.57h.11v.06h-.5v-.06h.07v-.59a.28.28 0 0 0 0-.09.16.16 0 0 0-.17-.14.16.16 0 0 0-.09 0 .3.3 0 0 0-.13.27v.53h.11zM381.83 12.37a.4.4 0 0 1-.37.18.5.5 0 0 1-.27-.07.55.55 0 0 1-.13-.76.45.45 0 0 1 .4-.19.66.66 0 0 1 .25.05.29.29 0 0 1 .18.27.29.29 0 0 1 0 .09c-.05.07-.18.1-.41.09h-.22q0 .45.27.45h.1a.31.31 0 0 0 .2-.19h.06zm-.43-.78c-.1 0-.16.16-.16.37h.31a.13.13 0 0 0 .08-.13.22.22 0 0 0 0-.08c0-.11-.07-.16-.16-.16zM382.5 12.53l.83-1.25h-.41q-.12 0-.18.15l-.1.2h-.06v-.41h1v.05l-.82 1.25h.48a.22.22 0 0 0 .22-.19l.07-.22h.06v.47zM384.62 11.63a.47.47 0 0 1 .19.4.52.52 0 0 1-.12.34.49.49 0 0 1-.4.18.52.52 0 0 1-.32-.11.5.5 0 0 1-.18-.41.52.52 0 0 1 .11-.33.53.53 0 0 1 .41-.17.48.48 0 0 1 .31.1zm-.54.67a.21.21 0 0 0 .22.19h.1c.09-.05.14-.2.14-.44a.85.85 0 0 0 0-.25c0-.13-.1-.19-.21-.19a.24.24 0 0 0-.12 0q-.12.08-.12.42a1.72 1.72 0 0 0-.01.27zM385.73 12.31a.35.35 0 0 1-.33.2.34.34 0 0 1-.22-.07.47.47 0 0 1-.19-.42.61.61 0 0 1 .11-.35.43.43 0 0 1 .36-.18.4.4 0 0 1 .28.1v-.51h-.21v-.06h.47v1.41h.13v.06h-.38zm-.46-.1q0 .24.21.24a.15.15 0 0 0 .11 0c.1-.06.14-.2.14-.42a1.11 1.11 0 0 0 0-.19c0-.14-.1-.2-.21-.2a.2.2 0 0 0-.1 0c-.09.06-.14.2-.14.42a.91.91 0 0 0-.01.15zM386.78 12.47v.06h-.54v-.06h.07c.05 0 .07-.05.07-.11v-.73h-.14v-.06h.39v.91h.12zm-.11-1.15a.14.14 0 0 1-.14.08h-.07a.15.15 0 0 1-.08-.14.1.1 0 0 1 0-.07.13.13 0 0 1 .13-.08h.07a.15.15 0 0 1 .09.14.14.14 0 0 1 0 .07zM387.55 12.34a.2.2 0 0 1 0 .08.33.33 0 0 1-.28.13h-.11a.23.23 0 0 1-.17-.25c0-.2.2-.3.59-.31v-.14a.19.19 0 0 0 0-.08c0-.11-.06-.16-.15-.16h-.07a.19.19 0 0 0-.07.12.11.11 0 0 1-.11.09.1.1 0 0 1-.08-.1.13.13 0 0 1 0-.08c.05-.08.18-.12.37-.12h.11a.32.32 0 0 1 .28.35v.58s.07-.05.08-.16h.06v.1a.19.19 0 0 1-.2.13c-.15.03-.22-.04-.25-.18zm-.15.1a.28.28 0 0 0 .14-.2V12a.84.84 0 0 0-.19 0 .18.18 0 0 0-.15.19c0 .12.05.19.14.19zM388.21 11.7a.48.48 0 0 1 .39-.17.51.51 0 0 1 .28.07c.08.05.12.1.12.17a.13.13 0 0 1-.13.08h-.08a.19.19 0 0 1-.05-.12.35.35 0 0 0 0-.06.12.12 0 0 0-.13-.1h-.05c-.12 0-.18.18-.18.46s.09.43.26.43h.09a.32.32 0 0 0 .24-.18h.03l-.06.1a.43.43 0 0 1-.36.15.5.5 0 0 1-.27-.07.44.44 0 0 1-.24-.43.53.53 0 0 1 .14-.33z" fill="#fff"/><path fill="#a5802a" d="M357.98 12.86h4.32v.2h-4.32zM362.3 12.49h-1.53l.12-.17a.91.91 0 0 0 .2-.58 1 1 0 0 0-1.9 0 .91.91 0 0 0 .2.58l.13.17H358v-.21h1.15a1.09 1.09 0 0 1-.14-.54 1.15 1.15 0 1 1 2.3 0 1.08 1.08 0 0 1-.13.54h1.14z"/><path d="M358.63 17.1a.67.67 0 0 1-.3.06.49.49 0 0 1-.33-.16.52.52 0 0 1-.14-.39.57.57 0 0 1 .15-.42.54.54 0 0 1 .4-.16.62.62 0 0 1 .25 0v.14a.45.45 0 0 0-.25-.07.35.35 0 0 0-.3.13.45.45 0 0 0-.12.33.43.43 0 0 0 .11.31.35.35 0 0 0 .28.12.51.51 0 0 0 .28-.07zM359.49 17.15h-.12v-.45q0-.24-.18-.24a.18.18 0 0 0-.15.07.28.28 0 0 0-.06.18v.44h-.13V16h.15v.5a.27.27 0 0 1 .25-.14c.17 0 .26.1.26.31zM360.36 16.79h-.54a.26.26 0 0 0 .07.2.21.21 0 0 0 .18.07.4.4 0 0 0 .24-.09v.12a.45.45 0 0 1-.27.07.33.33 0 0 1-.26-.1.45.45 0 0 1-.09-.3.41.41 0 0 1 .1-.29.31.31 0 0 1 .25-.11.32.32 0 0 1 .24.09.47.47 0 0 1 .08.28zm-.13-.1a.22.22 0 0 0-.05-.17.17.17 0 0 0-.14-.06.2.2 0 0 0-.15.06.29.29 0 0 0-.07.17zM361.09 17.11a.43.43 0 0 1-.48-.05.43.43 0 0 1-.1-.28.45.45 0 0 1 .11-.31.36.36 0 0 1 .29-.11.48.48 0 0 1 .18 0v.13a.32.32 0 0 0-.18-.06.28.28 0 0 0-.2.08.35.35 0 0 0-.07.23.28.28 0 0 0 .07.21.26.26 0 0 0 .19.08.28.28 0 0 0 .19-.07zM361.93 17.15h-.17l-.34-.37v.37h-.13V16h.13v.73l.32-.36h.16l-.35.38zM363.13 16.37l-.36.9c-.06.16-.15.24-.26.24h-.08v-.11h.07a.14.14 0 0 0 .14-.11l.06-.15-.3-.77h.14l.21.6a.18.18 0 0 0 0 .06.15.15 0 0 1 0-.06l.22-.6zM363.59 17.16a.36.36 0 0 1-.27-.1.41.41 0 0 1-.1-.29.4.4 0 0 1 .1-.3.43.43 0 0 1 .56 0 .45.45 0 0 1 .09.3.39.39 0 0 1-.1.29.34.34 0 0 1-.28.1zm0-.7a.26.26 0 0 0-.19.08.38.38 0 0 0-.07.22.34.34 0 0 0 .07.22.26.26 0 0 0 .19.08.22.22 0 0 0 .18-.08.29.29 0 0 0 .07-.22.31.31 0 0 0-.07-.22.22.22 0 0 0-.17-.08zM364.81 17.15h-.12V17a.25.25 0 0 1-.24.14c-.19 0-.28-.11-.28-.32v-.47h.13v.45q0 .24.18.24a.18.18 0 0 0 .15-.07.24.24 0 0 0 .06-.17v-.45h.12zM365.48 16.5a.12.12 0 0 0-.09 0 .17.17 0 0 0-.14.08.39.39 0 0 0-.05.2v.4h-.12v-.78h.12v.16a.27.27 0 0 1 .09-.12.17.17 0 0 1 .12-.05h.07zM366.73 17.15h-.13V17a.28.28 0 0 1-.26.15.26.26 0 0 1-.23-.1.41.41 0 0 1-.09-.28.5.5 0 0 1 .09-.31.31.31 0 0 1 .26-.11.25.25 0 0 1 .23.12V16h.13zm-.13-.35v-.12a.25.25 0 0 0-.06-.16.2.2 0 0 0-.15-.06.22.22 0 0 0-.18.08.39.39 0 0 0-.06.23.33.33 0 0 0 .06.21.19.19 0 0 0 .16.08.21.21 0 0 0 .17-.07.31.31 0 0 0 .06-.19zM367.55 17.15h-.13V17a.25.25 0 0 1-.24.13.28.28 0 0 1-.18-.06.21.21 0 0 1-.06-.16c0-.14.08-.23.25-.25h.23c0-.13-.05-.2-.16-.2a.36.36 0 0 0-.25.1v-.13a.48.48 0 0 1 .26-.07.24.24 0 0 1 .28.28zm-.13-.39h-.18a.33.33 0 0 0-.13 0 .13.13 0 0 0-.05.11.13.13 0 0 0 0 .09.15.15 0 0 0 .11 0 .2.2 0 0 0 .15-.06.25.25 0 0 0 .06-.17zM367.86 16.18h-.06a.1.1 0 0 1 0-.12h.12a.14.14 0 0 1 0 .06zm.06 1h-.12v-.78h.12zM368.31 17.15h-.12V16h.12zM369.19 16.37l-.35.9q-.1.24-.27.24h-.08v-.11h.07c.07 0 .11 0 .14-.11l.06-.15-.3-.77h.14l.21.6a.35.35 0 0 1 0 .06v-.06l.22-.6zM370.4 17.15h-.12V17a.25.25 0 0 1-.24.14c-.18 0-.28-.11-.28-.32v-.47h.13v.45q0 .24.18.24a.18.18 0 0 0 .15-.07.24.24 0 0 0 .06-.17v-.45h.12zM370.8 17v.47h-.12v-1.1h.12v.14a.28.28 0 0 1 .26-.15.26.26 0 0 1 .23.1.41.41 0 0 1 .09.28.45.45 0 0 1-.1.31.3.3 0 0 1-.25.11.25.25 0 0 1-.23-.16zm0-.31v.11a.23.23 0 0 0 .06.16.22.22 0 0 0 .34 0 .37.37 0 0 0 .06-.23.33.33 0 0 0-.06-.21.19.19 0 0 0-.16-.07.21.21 0 0 0-.17.08.24.24 0 0 0-.08.19zM372.25 17.15h-.13V17a.28.28 0 0 1-.26.15.26.26 0 0 1-.23-.1.41.41 0 0 1-.09-.28.45.45 0 0 1 .1-.31.28.28 0 0 1 .25-.11.25.25 0 0 1 .23.12V16h.13zm-.13-.35v-.12a.25.25 0 0 0-.06-.16.2.2 0 0 0-.15-.06.22.22 0 0 0-.18.08.39.39 0 0 0-.06.23.33.33 0 0 0 .06.21.19.19 0 0 0 .16.08.21.21 0 0 0 .17-.07.31.31 0 0 0 .06-.19zM373.07 17.15h-.13V17a.25.25 0 0 1-.24.13.28.28 0 0 1-.18-.06.21.21 0 0 1-.06-.16c0-.14.08-.23.25-.25h.23c0-.13-.05-.2-.16-.2a.36.36 0 0 0-.25.1v-.13a.48.48 0 0 1 .26-.07.24.24 0 0 1 .28.28zm-.13-.39h-.18a.33.33 0 0 0-.13 0 .13.13 0 0 0-.05.11.13.13 0 0 0 0 .09.15.15 0 0 0 .11 0 .2.2 0 0 0 .15-.06.25.25 0 0 0 .06-.17zM373.67 17.14h-.11c-.14 0-.2-.07-.2-.22v-.46h-.14v-.11h.14v-.18h.12v.22h.19v.11h-.19v.43a.19.19 0 0 0 0 .12h.08a.11.11 0 0 0 .08 0zM374.46 16.79h-.54a.26.26 0 0 0 .07.2.21.21 0 0 0 .18.07.36.36 0 0 0 .24-.09v.12a.45.45 0 0 1-.27.07.34.34 0 0 1-.26-.1.45.45 0 0 1-.09-.3.46.46 0 0 1 .1-.29.33.33 0 0 1 .26-.11.3.3 0 0 1 .23.09.47.47 0 0 1 .08.28zm-.12-.1a.22.22 0 0 0-.06-.17.17.17 0 0 0-.14-.06.2.2 0 0 0-.14.06.3.3 0 0 0-.08.17zM375.66 17.15h-.13V17a.25.25 0 0 1-.24.13.28.28 0 0 1-.18-.06.21.21 0 0 1-.06-.16c0-.14.08-.23.25-.25h.23c0-.13 0-.2-.15-.2a.37.37 0 0 0-.26.1v-.13a.5.5 0 0 1 .27-.07c.18 0 .27.09.27.28zm-.13-.39h-.18a.33.33 0 0 0-.13 0 .12.12 0 0 0 0 .11.1.1 0 0 0 0 .09.12.12 0 0 0 .1 0 .2.2 0 0 0 .15-.06.25.25 0 0 0 .06-.17zM376 17v.12h-.12V16h.12v.51a.29.29 0 0 1 .27-.15.28.28 0 0 1 .23.1.41.41 0 0 1 .08.28.5.5 0 0 1-.09.31.3.3 0 0 1-.26.11.26.26 0 0 1-.23-.16zm0-.31v.11a.23.23 0 0 0 .06.16.2.2 0 0 0 .16.07.2.2 0 0 0 .17-.09.32.32 0 0 0 .07-.23.33.33 0 0 0-.06-.21.19.19 0 0 0-.16-.07.21.21 0 0 0-.17.08.24.24 0 0 0-.07.21zM377.15 17.16a.36.36 0 0 1-.27-.1.41.41 0 0 1-.1-.29.4.4 0 0 1 .1-.3.43.43 0 0 1 .56 0 .45.45 0 0 1 .09.3.39.39 0 0 1-.1.29.34.34 0 0 1-.28.1zm0-.7a.26.26 0 0 0-.19.08.38.38 0 0 0-.07.22.34.34 0 0 0 .11.24.26.26 0 0 0 .19.08.22.22 0 0 0 .18-.08.29.29 0 0 0 .07-.22.31.31 0 0 0-.07-.22.22.22 0 0 0-.21-.1zM378.37 17.15h-.12V17a.24.24 0 0 1-.23.14c-.19 0-.28-.11-.28-.32v-.47h.13v.45q0 .24.18.24a.18.18 0 0 0 .15-.07.24.24 0 0 0 .06-.17v-.45h.12zM379 17.14h-.11c-.14 0-.2-.07-.2-.22v-.46h-.13v-.11h.13v-.18h.12v.22h.19v.11h-.19v.43a.19.19 0 0 0 0 .12h.08a.1.1 0 0 0 .08 0zM380 17.14h-.11c-.14 0-.2-.07-.2-.22v-.46h-.14v-.11h.14v-.18h.12v.22h.19v.11h-.19v.43a.19.19 0 0 0 0 .12h.08a.11.11 0 0 0 .08 0zM380.79 17.15h-.12v-.45q0-.24-.18-.24a.18.18 0 0 0-.15.07.28.28 0 0 0-.06.18v.44h-.12V16h.12v.5a.28.28 0 0 1 .26-.14c.17 0 .25.1.25.31zM381.66 16.79h-.54a.3.3 0 0 0 .07.2.21.21 0 0 0 .18.07.36.36 0 0 0 .24-.09v.12a.45.45 0 0 1-.27.07.3.3 0 0 1-.25-.1.4.4 0 0 1-.1-.3.46.46 0 0 1 .1-.29.33.33 0 0 1 .26-.11.29.29 0 0 1 .23.09.41.41 0 0 1 .08.28zm-.12-.1a.26.26 0 0 0-.05-.17.2.2 0 0 0-.15-.06.2.2 0 0 0-.14.06.3.3 0 0 0-.08.17zM382.43 17v.47h-.12v-1.1h.12v.14a.29.29 0 0 1 .27-.15.26.26 0 0 1 .23.1.41.41 0 0 1 .08.28.5.5 0 0 1-.09.31.3.3 0 0 1-.26.11.26.26 0 0 1-.23-.16zm0-.31v.11a.23.23 0 0 0 .06.16.2.2 0 0 0 .16.07.23.23 0 0 0 .18-.09.37.37 0 0 0 .06-.23.33.33 0 0 0-.06-.21.19.19 0 0 0-.16-.07.21.21 0 0 0-.17.08.24.24 0 0 0-.07.21zM383.35 17.15h-.12V16h.12zM384.17 17.15h-.12V17a.27.27 0 0 1-.24.13.24.24 0 0 1-.18-.06.22.22 0 0 1-.07-.16c0-.14.09-.23.26-.25h.23c0-.13-.05-.2-.16-.2a.35.35 0 0 0-.25.1v-.13a.44.44 0 0 1 .26-.07c.18 0 .27.09.27.28zm-.12-.39h-.19a.4.4 0 0 0-.13 0 .12.12 0 0 0 0 .11.1.1 0 0 0 0 .09.14.14 0 0 0 .11 0 .2.2 0 0 0 .16.04.25.25 0 0 0 .06-.17zM385.06 17.15h-.12v-.44c0-.17-.06-.25-.18-.25a.18.18 0 0 0-.15.07.26.26 0 0 0-.06.18v.44h-.13v-.78h.13v.13a.27.27 0 0 1 .25-.14.21.21 0 0 1 .19.08.32.32 0 0 1 .07.23zM385.93 16.79h-.54a.3.3 0 0 0 .06.2.25.25 0 0 0 .19.07.4.4 0 0 0 .24-.09v.12a.45.45 0 0 1-.27.07.33.33 0 0 1-.26-.1.45.45 0 0 1-.09-.3.41.41 0 0 1 .1-.29.31.31 0 0 1 .25-.11.32.32 0 0 1 .24.09.47.47 0 0 1 .08.28zm-.13-.1a.26.26 0 0 0-.05-.17.17.17 0 0 0-.14-.06.2.2 0 0 0-.15.06.29.29 0 0 0-.07.17zM386.49 17.14h-.11c-.14 0-.21-.07-.21-.22v-.46H386v-.11h.13v-.18h.13v.22h.19v.11h-.19v.43a.2.2 0 0 0 0 .12.12.12 0 0 0 .09 0 .11.11 0 0 0 .08 0zM386.63 17.12V17a.34.34 0 0 0 .22.07c.11 0 .16 0 .16-.11a.07.07 0 0 0 0-.05h-.28v-.06a.22.22 0 0 1 0-.08.3.3 0 0 1 0-.1.46.46 0 0 1 .07-.07h.2a.48.48 0 0 1 .18 0v.13a.33.33 0 0 0-.19-.06h-.07v.05a.43.43 0 0 0 0 .05H387.13l.07.05a.21.21 0 0 1 0 .06.19.19 0 0 1 0 .08.17.17 0 0 1 0 .1l-.07.07a.25.25 0 0 1-.09 0h-.12a.4.4 0 0 1-.29-.01zM387.5 16.05l-.11.33h-.09l.08-.33zM358 18.89v.46h-.13v-1.12h.13v.13a.29.29 0 0 1 .26-.15.3.3 0 0 1 .24.1.47.47 0 0 1 .08.28.5.5 0 0 1-.09.31.32.32 0 0 1-.26.12.26.26 0 0 1-.23-.13zm0-.31v.1a.25.25 0 0 0 .06.17.2.2 0 0 0 .15.06.22.22 0 0 0 .18-.08.43.43 0 0 0 .06-.24.28.28 0 0 0-.06-.2.19.19 0 0 0-.16-.08.21.21 0 0 0-.17.08.29.29 0 0 0-.06.19zM359.13 19a.38.38 0 0 1-.28-.11.44.44 0 0 1-.1-.29.41.41 0 0 1 .11-.3.38.38 0 0 1 .28-.11.31.31 0 0 1 .27.11.38.38 0 0 1 .1.29.44.44 0 0 1-.11.3.35.35 0 0 1-.27.11zm0-.71a.24.24 0 0 0-.19.08.33.33 0 0 0-.07.23.28.28 0 0 0 .07.21.21.21 0 0 0 .19.08.23.23 0 0 0 .18-.07.39.39 0 0 0 .06-.23.36.36 0 0 0-.06-.22.23.23 0 0 0-.17-.06zM359.68 19v-.13a.34.34 0 0 0 .22.07c.11 0 .16 0 .16-.11a.09.09 0 0 0 0-.05h-.21l-.07-.05a.21.21 0 0 1 0-.06.19.19 0 0 1 0-.08.24.24 0 0 1 0-.09.16.16 0 0 1 .07-.07l.09-.05h.06a.48.48 0 0 1 .18 0v.13a.31.31 0 0 0-.19-.06h-.07.23v.06a.19.19 0 0 1 0 .08.17.17 0 0 1 0 .1s0 .05-.06.07h-.22a.42.42 0 0 1-.19.24zM360.75 19a.2.2 0 0 1-.11 0c-.14 0-.21-.08-.21-.23v-.46h-.13v-.1h.13V18h.13v.23h.19v.1h-.19v.44a.27.27 0 0 0 0 .11.12.12 0 0 0 .09 0h.08zM361 18h-.06a.1.1 0 0 1 0-.12h.12a.1.1 0 0 1 0 .12zm.06 1h-.13v-.77h.13zM361.65 19a.38.38 0 0 1-.28-.11.44.44 0 0 1-.1-.29.41.41 0 0 1 .11-.3.38.38 0 0 1 .28-.11.31.31 0 0 1 .27.11.38.38 0 0 1 .1.29.44.44 0 0 1-.1.3.39.39 0 0 1-.28.11zm0-.71a.24.24 0 0 0-.19.08.33.33 0 0 0-.07.23.28.28 0 0 0 .07.21.22.22 0 0 0 .19.08.21.21 0 0 0 .18-.07.39.39 0 0 0 .06-.23.36.36 0 0 0-.06-.22.22.22 0 0 0-.17-.06zM362.88 19h-.12v-.44c0-.17-.06-.25-.18-.25a.21.21 0 0 0-.15.07.28.28 0 0 0-.06.18V19h-.12v-.77h.12v.12a.29.29 0 0 1 .25-.14.26.26 0 0 1 .2.08.4.4 0 0 1 .06.24zM363.2 18h-.06a.1.1 0 0 1 0-.12h.11a.07.07 0 0 1 0 .12zm.06 1h-.13v-.77h.13zM364.16 19H364v-.44c0-.17-.06-.25-.18-.25a.21.21 0 0 0-.15.07.28.28 0 0 0-.06.18V19h-.13v-.77h.13v.12a.29.29 0 0 1 .25-.14.26.26 0 0 1 .2.08.4.4 0 0 1 .06.24zM365.07 18.94a.37.37 0 0 1-.41.42.7.7 0 0 1-.25-.05v-.13a.52.52 0 0 0 .25.08c.19 0 .29-.1.29-.31v-.08a.28.28 0 0 1-.26.15.28.28 0 0 1-.23-.11.38.38 0 0 1-.09-.27.47.47 0 0 1 .1-.32.31.31 0 0 1 .25-.11.25.25 0 0 1 .23.12v-.1h.12zm-.12-.29v-.11a.19.19 0 0 0-.07-.16.18.18 0 0 0-.15-.07.2.2 0 0 0-.18.09.37.37 0 0 0-.06.23.35.35 0 0 0 .06.21.19.19 0 0 0 .16.07.21.21 0 0 0 .17-.07.29.29 0 0 0 .12-.19zM366.74 19h-.08a.09.09 0 0 1-.06 0h-.05l-.06-.07-.07.06-.08.05H366.11L366 19l-.12-.06a.36.36 0 0 1-.07-.1.29.29 0 0 1 0-.14.26.26 0 0 1 .07-.19.44.44 0 0 1 .18-.14v-.06-.06a.17.17 0 0 1 0-.07.2.2 0 0 1 0-.11.16.16 0 0 1-.06-.07.19.19 0 0 1 .09 0H366.39l.05.07a.3.3 0 0 1 0 .1.25.25 0 0 1-.05.15.44.44 0 0 1-.15.1l.09.05.08.07.06.07.06.09a1.14 1.14 0 0 0 .1-.19.76.76 0 0 0 0-.21.13.13 0 0 0 0-.06.11.11 0 0 0 0-.05h.12a.11.11 0 0 1 0 .05v.05a.61.61 0 0 1 0 .14.74.74 0 0 1 0 .14.67.67 0 0 1-.06.12l-.06.11v.06l.05.05H366.83V19h-.11zm-.63-.11h.26a.17.17 0 0 0 .06-.06.62.62 0 0 0-.08-.12.36.36 0 0 0-.08-.09.27.27 0 0 0-.08-.07l-.11-.05-.08.05a.18.18 0 0 0-.07.05l-.05.07a.31.31 0 0 0 0 .1v.09a.18.18 0 0 0 .05.07h.07zm.19-.77a.08.08 0 0 0 0-.06h-.1a.16.16 0 0 0-.12 0 .14.14 0 0 0 0 .11v.11h.05a.37.37 0 0 0 .14-.08.16.16 0 0 0 .03-.06zM368.1 19h-.1v-.45q0-.24-.18-.24a.21.21 0 0 0-.15.07.28.28 0 0 0-.06.18V19h-.12v-1.14h.12v.49a.3.3 0 0 1 .25-.14c.18 0 .26.1.26.31zM368.68 19a.38.38 0 0 1-.28-.11.44.44 0 0 1-.1-.29.41.41 0 0 1 .11-.3.38.38 0 0 1 .28-.11.31.31 0 0 1 .27.11.38.38 0 0 1 .1.29.44.44 0 0 1-.11.3.35.35 0 0 1-.27.11zm0-.71a.23.23 0 0 0-.18.08.33.33 0 0 0-.07.23.28.28 0 0 0 .07.21.21.21 0 0 0 .18.08.24.24 0 0 0 .19-.07.39.39 0 0 0 .06-.23.36.36 0 0 0-.06-.22.24.24 0 0 0-.19-.06zM370.24 18.23L370 19h-.13l-.15-.55v-.08.07l-.18.56h-.12l-.23-.77h.13l.16.58a.23.23 0 0 0 0 .07.14.14 0 0 1 0-.07l.17-.58h.12l.15.58a.64.64 0 0 1 0 .07v-.07l.16-.58zM371.2 19a.2.2 0 0 1-.11 0c-.14 0-.21-.08-.21-.23v-.46h-.13v-.1h.13V18h.13v.23h.19v.1h-.2v.44a.27.27 0 0 0 0 .11.12.12 0 0 0 .09 0h.08zM372 19h-.12v-.45q0-.24-.18-.24a.21.21 0 0 0-.15.07.28.28 0 0 0-.06.18V19h-.13v-1.14h.13v.49a.29.29 0 0 1 .25-.14c.17 0 .26.1.26.31zM372.89 18.64h-.54a.24.24 0 0 0 .07.2.21.21 0 0 0 .18.07.46.46 0 0 0 .24-.08v.11a.46.46 0 0 1-.27.08.33.33 0 0 1-.26-.11.51.51 0 0 1 0-.59.34.34 0 0 1 .25-.11.3.3 0 0 1 .24.1.41.41 0 0 1 .08.27zm-.13-.1a.23.23 0 0 0-.05-.17.17.17 0 0 0-.14-.06.18.18 0 0 0-.15.07.26.26 0 0 0-.07.16zM373.71 18.23l-.36.89c-.06.16-.15.24-.26.24H373v-.11h.07c.06 0 .11 0 .14-.12l.06-.14-.3-.77h.14l.2.59v.06a.18.18 0 0 1 0-.06l.22-.59zM374.82 19a.37.37 0 0 1-.21.06.33.33 0 0 1-.26-.11.38.38 0 0 1-.11-.28.45.45 0 0 1 .11-.31.42.42 0 0 1 .29-.11.34.34 0 0 1 .18 0v.12a.3.3 0 0 0-.18-.06.23.23 0 0 0-.19.09.31.31 0 0 0-.08.22.28.28 0 0 0 .07.21.22.22 0 0 0 .19.08.33.33 0 0 0 .19-.06zM375.58 19h-.13v-.12a.26.26 0 0 1-.24.14.28.28 0 0 1-.21-.02.24.24 0 0 1-.06-.17c0-.14.08-.22.25-.25h.23c0-.13-.05-.2-.16-.2a.36.36 0 0 0-.25.1v-.13a.48.48 0 0 1 .26-.07c.19 0 .28.09.28.29zm-.13-.39h-.18a.32.32 0 0 0-.13.05.11.11 0 0 0-.05.1.18.18 0 0 0 0 .1.22.22 0 0 0 .26 0 .23.23 0 0 0 .06-.16zM376.46 19h-.12v-.44c0-.17-.06-.25-.18-.25a.21.21 0 0 0-.15.07.28.28 0 0 0-.06.18V19h-.12v-.77h.17v.12a.29.29 0 0 1 .25-.14.26.26 0 0 1 .2.08.4.4 0 0 1 .06.24zM377.7 19h-.12v-.12a.26.26 0 0 1-.24.14.28.28 0 0 1-.18-.06.24.24 0 0 1-.06-.17c0-.14.08-.22.25-.25h.23c0-.13-.05-.2-.16-.2a.36.36 0 0 0-.25.1v-.13a.48.48 0 0 1 .26-.07c.18 0 .27.09.27.29zm-.12-.39h-.18a.32.32 0 0 0-.13.05.11.11 0 0 0 0 .1.18.18 0 0 0 0 .1.22.22 0 0 0 .26 0 .23.23 0 0 0 .06-.16zM378.34 18h-.09c-.08 0-.13.06-.13.17v.12h.18v.1h-.18V19H378v-.67h-.13v-.1h.13v-.13a.29.29 0 0 1 .07-.19.24.24 0 0 1 .18-.07h.09zM378.84 18h-.09c-.08 0-.13.06-.13.17v.12h.18v.1h-.18V19h-.12v-.67h-.13v-.1h.13v-.13a.29.29 0 0 1 .07-.19.24.24 0 0 1 .18-.07h.09zM379.57 18.64H379a.28.28 0 0 0 .07.2.21.21 0 0 0 .18.07.41.41 0 0 0 .24-.08v.11a.46.46 0 0 1-.27.08.31.31 0 0 1-.25-.11.39.39 0 0 1-.1-.29.49.49 0 0 1 .1-.3.36.36 0 0 1 .26-.11.26.26 0 0 1 .23.1.36.36 0 0 1 .08.27zm-.12-.1a.29.29 0 0 0-.05-.17.2.2 0 0 0-.15-.06.17.17 0 0 0-.14.07.27.27 0 0 0-.08.16zM380.3 19a.37.37 0 0 1-.21.06.33.33 0 0 1-.26-.11.37.37 0 0 1-.1-.28.45.45 0 0 1 .1-.31.42.42 0 0 1 .29-.11.34.34 0 0 1 .18 0v.12a.28.28 0 0 0-.18-.06.23.23 0 0 0-.19.09.31.31 0 0 0-.08.22.28.28 0 0 0 .07.21.22.22 0 0 0 .19.08.33.33 0 0 0 .19-.06zM380.86 19a.18.18 0 0 1-.11 0c-.14 0-.2-.08-.2-.23v-.46h-.14v-.1h.14V18h.12v.23h.19v.1h-.19v.44a.16.16 0 0 0 0 .11h.16zM382.1 18.23l-.36.89c-.06.16-.15.24-.26.24h-.08v-.11h.07c.06 0 .11 0 .14-.12l.06-.14-.3-.77h.14l.21.59a.18.18 0 0 0 0 .06.18.18 0 0 1 0-.06l.22-.59zM382.56 19a.37.37 0 0 1-.27-.11.39.39 0 0 1-.1-.29.37.37 0 0 1 .39-.41.33.33 0 0 1 .27.11.42.42 0 0 1 .09.29.44.44 0 0 1-.1.3.38.38 0 0 1-.28.11zm0-.71a.26.26 0 0 0-.19.08.39.39 0 0 0-.07.23.33.33 0 0 0 .07.21.22.22 0 0 0 .19.08.21.21 0 0 0 .18-.07.33.33 0 0 0 .07-.23.31.31 0 0 0-.07-.22.22.22 0 0 0-.17-.06zM383.78 19h-.12v-.12a.27.27 0 0 1-.24.14c-.18 0-.28-.11-.28-.33v-.46h.13v.44q0 .24.18.24a.2.2 0 0 0 .15-.06.28.28 0 0 0 .06-.18v-.44h.12zM384.45 18.35h-.09a.16.16 0 0 0-.14.07.41.41 0 0 0-.05.21V19h-.12v-.77h.12v.16a.2.2 0 0 1 .08-.13.17.17 0 0 1 .12-.05h.07zM385.7 19h-.13v-.13a.28.28 0 0 1-.26.15.27.27 0 0 1-.23-.11.41.41 0 0 1-.09-.28.45.45 0 0 1 .1-.31.31.31 0 0 1 .25-.11.25.25 0 0 1 .23.12v-.47h.13zm-.13-.35v-.11a.21.21 0 0 0-.06-.16.18.18 0 0 0-.15-.07.2.2 0 0 0-.18.09.36.36 0 0 0-.06.22.38.38 0 0 0 .06.22.19.19 0 0 0 .16.07.21.21 0 0 0 .17-.07.29.29 0 0 0 .06-.19zM386.52 19h-.13v-.12a.26.26 0 0 1-.24.14.28.28 0 0 1-.15-.02.24.24 0 0 1-.06-.17c0-.14.08-.22.25-.25h.23c0-.13-.05-.2-.16-.2a.36.36 0 0 0-.25.1v-.13a.5.5 0 0 1 .27-.07c.18 0 .27.09.27.29zm-.13-.39h-.18a.32.32 0 0 0-.13.05.11.11 0 0 0-.05.1.18.18 0 0 0 0 .1.22.22 0 0 0 .26 0 .23.23 0 0 0 .06-.16zM387.38 18.23l-.36.89c-.06.16-.15.24-.26.24h-.08v-.11h.07c.06 0 .11 0 .14-.12L387 19l-.3-.77h.14l.21.59a.18.18 0 0 0 0 .06.18.18 0 0 1 0-.06l.22-.59zM387.62 19h-.06a.1.1 0 0 1 0-.12.07.07 0 0 1 .06 0h.06a.07.07 0 0 1 0 .12zm.07-1.09v.77h-.1v-.77z" fill="#fff"/><rect x="343.87" y="176.37" width="32.43" height="3.1" rx="1.55" ry="1.55" fill="#a5802a"/><path d="M375.55 179.5h-30.92a.78.78 0 0 1-.78-.78v-1.59a.78.78 0 0 1 .78-.78h30.92a.78.78 0 0 1 .78.78v1.59a.78.78 0 0 1-.78.78zm-30.92-3.1a.73.73 0 0 0-.73.73v1.59a.73.73 0 0 0 .73.73h30.92a.73.73 0 0 0 .73-.73v-1.59a.73.73 0 0 0-.73-.73z" fill="#a5802a"/><rect x="357.04" y="156.54" width="6.1" height="21.03" rx="3.05" ry="3.05" fill="#a5802a"/><path d="M362.38 177.75h-4.58a.94.94 0 0 1-.95-.94V157.3a1 1 0 0 1 .95-1h4.58a1 1 0 0 1 .95 1v19.51a1 1 0 0 1-.95.94zm-4.58-21a.56.56 0 0 0-.57.57v19.51a.57.57 0 0 0 .57.57h4.58a.57.57 0 0 0 .57-.57V157.3a.56.56 0 0 0-.57-.57z" fill="#a5802a"/><path fill="#202020" d="M323.94 126.46h72.3v43.46h-72.3z"/><path d="M396.52 170.2h-72.86v-44h72.86zm-72.3-.56H396v-42.9h-71.78z" fill="#a5802a"/><rect x="356.23" y="128.99" width="37.7" height="11.95" rx="3.24" ry="3.24" fill="#0c0c0c"/><path d="M393.32 141.13h-36.48a.8.8 0 0 1-.8-.8V129.6a.8.8 0 0 1 .8-.8h36.48a.8.8 0 0 1 .8.8v10.73a.8.8 0 0 1-.8.8zm-36.48-11.95a.42.42 0 0 0-.42.42v10.73a.42.42 0 0 0 .42.42h36.48a.42.42 0 0 0 .42-.42V129.6a.42.42 0 0 0-.42-.42z" fill="#a5802a"/><path fill="#a5802a" d="M356.27 133.33h37.66v.38h-37.66z"/><path d="M364.1 131.85v-.06h.18v-1.23h-.18v-.06h.72a.53.53 0 0 1 .31.08.33.33 0 0 1 .14.27.37.37 0 0 1 0 .11.39.39 0 0 1-.3.25l.36.58h.07-.4l-.34-.62h-.14v.56h.18v.06zm.46-1.29v.61h.16a.22.22 0 0 0 .14 0 .29.29 0 0 0 .12-.26.51.51 0 0 0 0-.13.25.25 0 0 0-.25-.17zM366.39 131.69a.41.41 0 0 1-.37.19.6.6 0 0 1-.27-.07.49.49 0 0 1-.23-.45.51.51 0 0 1 .1-.32.47.47 0 0 1 .4-.19.51.51 0 0 1 .25.06.29.29 0 0 1 .18.27.19.19 0 0 1 0 .08c-.05.07-.18.1-.41.1h-.22q0 .45.27.45h.1a.32.32 0 0 0 .2-.18h.06a.16.16 0 0 1-.06.06zm-.43-.77c-.1 0-.16.16-.16.37h.34c.05 0 .08-.06.08-.13a.17.17 0 0 0 0-.07c0-.11-.07-.17-.16-.17zM367.2 131.67a.3.3 0 0 1 0 .08.36.36 0 0 1-.28.13h-.12a.23.23 0 0 1-.16-.25c0-.2.19-.31.59-.31v-.15a.22.22 0 0 0 0-.08c0-.1-.06-.16-.15-.16h-.07l-.07.11a.12.12 0 0 1-.12.08.11.11 0 0 1-.07-.1.11.11 0 0 1 0-.08c.05-.08.17-.13.36-.13h.12a.32.32 0 0 1 .28.35v.48c0 .07 0 .11.05.11s.07-.06.08-.16h.06a.36.36 0 0 1 0 .11.18.18 0 0 1-.19.13.23.23 0 0 1-.31-.16zm-.16.1a.29.29 0 0 0 .15-.2v-.21H367a.19.19 0 0 0-.15.2c0 .12 0 .18.14.18zM368.49 131.63a.32.32 0 0 1-.32.21.35.35 0 0 1-.22-.08.45.45 0 0 1-.19-.41.61.61 0 0 1 .11-.36.42.42 0 0 1 .35-.18.42.42 0 0 1 .29.11v-.52h-.21v-.06h.46v1.41h.13-.38zm-.46-.1c0 .16.1.25.21.25a.21.21 0 0 0 .11 0 .51.51 0 0 0 .14-.42 1 1 0 0 0 0-.19q0-.21-.21-.21h-.1c-.1.06-.14.19-.14.41a.91.91 0 0 0-.04.16zM369.53 131.8H369v-.06h.07s.07 0 .07-.12v-.73H369v-.06h.39v.91h.11zm-.1-1.15a.16.16 0 0 1-.14.08h-.07a.13.13 0 0 1-.08-.13.12.12 0 0 1 0-.08.13.13 0 0 1 .13-.08h.07a.14.14 0 0 1 .08.14.17.17 0 0 1 .01.07zM370.19 131.8h-.52v-.06h.07c.05 0 .08 0 .08-.12v-.73h-.15v-.06h.38v.19l.06-.09a.37.37 0 0 1 .27-.13.28.28 0 0 1 .13 0 .33.33 0 0 1 .19.34v.57h.11-.52v-.06h.08s.05 0 .05-.11v-.48-.09c0-.02-.08-.14-.16-.14a.16.16 0 0 0-.09 0 .27.27 0 0 0-.13.25v.55h.1zM371.74 130.92a.14.14 0 0 1 0-.06.21.21 0 0 1 .18-.12h.08a.11.11 0 0 1 .08.11.07.07 0 0 1-.07.06h-.13a.09.09 0 0 0-.09.07.34.34 0 0 1 .12.27.4.4 0 0 1-.08.23.43.43 0 0 1-.35.15h-.26a.07.07 0 0 0-.06.07s0 .06.08.06h.52a.23.23 0 0 1 .23.24.19.19 0 0 1 0 .12.53.53 0 0 1-.47.17.66.66 0 0 1-.25 0q-.15-.06-.15-.18a.24.24 0 0 1 .06-.15.2.2 0 0 1-.09-.18.31.31 0 0 1 0-.08.17.17 0 0 1 .18-.12h-.05a.35.35 0 0 1-.16-.29.31.31 0 0 1 .07-.21.42.42 0 0 1 .37-.16.43.43 0 0 1 .24 0zm-.05 1.29c.13 0 .2-.08.2-.15s-.07-.05-.17-.05h-.51a.42.42 0 0 0 0 .1.14.14 0 0 0 0 .06c0 .08.14.12.31.12zm-.38-.8a.18.18 0 0 0 .27.11c.05 0 .08-.14.08-.3a.74.74 0 0 0 0-.18.15.15 0 0 0-.16-.13.18.18 0 0 0-.11 0 .44.44 0 0 0-.07.29c-.02.11-.01.16-.01.21zM372.53 131.81c.1 0 .17 0 .19-.1a.07.07 0 0 0 0-.05c0-.07-.05-.13-.14-.18h-.1a.79.79 0 0 1-.24-.14.27.27 0 0 1-.06-.17.26.26 0 0 1 .2-.25.54.54 0 0 1 .19 0 .45.45 0 0 1 .27.07v-.08.28h-.07c0-.14-.08-.2-.22-.21s-.17 0-.19.1a.09.09 0 0 0 0 .05.18.18 0 0 0 .13.16l.1.05a.79.79 0 0 1 .24.14.28.28 0 0 1 .06.18.26.26 0 0 1-.19.26.58.58 0 0 1-.19 0 .59.59 0 0 1-.31-.08v.07-.34h.07c0 .15.09.24.26.24zM374.18 131.8h-.64v-.06h.07a.11.11 0 0 0 .1-.12v-.73h-.17v-.06h.17a.65.65 0 0 1 .07-.29.41.41 0 0 1 .36-.19.36.36 0 0 1 .19 0q.12.06.12.15s-.05.07-.11.07a.09.09 0 0 1-.07 0l-.06-.11c0-.06-.06-.09-.1-.09h-.07a.81.81 0 0 0-.07.42h.26v.06H374v.85h.18z" fill="#fff"/><path d="M374.93 131.8h-.61v-.06h.08s.07 0 .07-.12v-.73h-.15v-.06h.38v.22a.35.35 0 0 1 .07-.12.34.34 0 0 1 .25-.11h.05a.14.14 0 0 1 .11.14.09.09 0 0 1 0 .05.12.12 0 0 1-.12.08.13.13 0 0 1-.08-.08s0-.05-.06-.05a.38.38 0 0 0-.12.29v.49h.18zM376.16 131a.47.47 0 0 1 .19.41.48.48 0 0 1-.12.33.5.5 0 0 1-.4.19.5.5 0 0 1-.5-.52.52.52 0 0 1 .11-.33.51.51 0 0 1 .41-.18.55.55 0 0 1 .31.1zm-.53.67c0 .13.1.2.21.2a.17.17 0 0 0 .1 0c.09 0 .14-.19.14-.43a1.47 1.47 0 0 0 0-.25c0-.13-.1-.2-.22-.2a.2.2 0 0 0-.11 0c-.08.05-.13.19-.13.42a.88.88 0 0 0 .01.21zM377 131.8h-.51v-.06h.07c.05 0 .08 0 .08-.12v-.73h-.15v-.06h.38v.19a.33.33 0 0 1 .3-.18h.08a.31.31 0 0 1 .19.21.34.34 0 0 1 .32-.21.3.3 0 0 1 .15.05.32.32 0 0 1 .14.31v.58h.12-.51v-.06h.07s.05-.05.05-.11v-.48a.5.5 0 0 0 0-.12c0-.07-.07-.11-.14-.11h-.06a.26.26 0 0 0-.13.22v.6h.08-.48v-.06h.07s.05-.05.05-.11v-.48a.5.5 0 0 0 0-.12.14.14 0 0 0-.13-.11h-.07a.3.3 0 0 0-.13.26v.55h.16zM378.81 130.89h.19v-.21l.25-.05v.26h.31v.11h-.31v.73c0 .09 0 .13.11.13s.13-.07.16-.2h.06a.56.56 0 0 1 0 .12.24.24 0 0 1-.24.14c-.19 0-.29-.12-.3-.34V131h-.16zM380.14 131.8h-.52v-.06h.07c.05 0 .08 0 .08-.12v-1.23h-.15v-.06h.38v.69l.05-.08a.36.36 0 0 1 .29-.14.21.21 0 0 1 .12 0 .32.32 0 0 1 .19.34v.57h.11-.5v-.06h.07v-.59a.19.19 0 0 0 0-.08.16.16 0 0 0-.17-.14h-.09a.3.3 0 0 0-.13.28v.52h.11zM381.83 131.69a.41.41 0 0 1-.37.19.6.6 0 0 1-.27-.07.49.49 0 0 1-.23-.45.51.51 0 0 1 .1-.32.47.47 0 0 1 .4-.19.51.51 0 0 1 .25.06.29.29 0 0 1 .18.27.19.19 0 0 1 0 .08c-.05.07-.18.1-.41.1h-.22q0 .45.27.45h.1a.32.32 0 0 0 .2-.18h.06a.16.16 0 0 1-.06.06zm-.43-.77c-.1 0-.16.16-.16.37H381.55c.05 0 .08-.06.08-.13a.17.17 0 0 0 0-.07c0-.11-.07-.17-.16-.17zM382.5 131.85l.83-1.26h-.41a.2.2 0 0 0-.18.14l-.1.2h-.06v-.4h1v.05l-.82 1.24h.48a.21.21 0 0 0 .22-.19l.07-.22h.06v.47zM384.62 131a.49.49 0 0 1 .19.41.48.48 0 0 1-.12.33.5.5 0 0 1-.4.19.52.52 0 0 1-.32-.11.51.51 0 0 1-.18-.41.52.52 0 0 1 .11-.33.51.51 0 0 1 .41-.18.55.55 0 0 1 .31.1zm-.54.67a.22.22 0 0 0 .22.2.17.17 0 0 0 .1 0c.09 0 .14-.19.14-.43a.81.81 0 0 0 0-.25c0-.13-.1-.2-.21-.2a.24.24 0 0 0-.12 0q-.12.08-.12.42a1.61 1.61 0 0 0-.01.21zM385.73 131.63a.36.36 0 0 1-.55.13.45.45 0 0 1-.19-.41.61.61 0 0 1 .11-.36.43.43 0 0 1 .36-.18.41.41 0 0 1 .28.11v-.52h-.21v-.06h.47v1.41h.13-.38zm-.46-.1c0 .16.1.25.21.25a.21.21 0 0 0 .11 0c.1-.07.14-.21.14-.42a1 1 0 0 0 0-.19q0-.21-.21-.21h-.1c-.09.06-.14.19-.14.41a.91.91 0 0 0-.01.16zM386.78 131.8h-.54v-.06h.07c.05 0 .07 0 .07-.12v-.73h-.14v-.06h.39v.91h.12zm-.11-1.15a.16.16 0 0 1-.14.08h-.07a.13.13 0 0 1-.08-.13.12.12 0 0 1 0-.08.14.14 0 0 1 .13-.08h.07a.15.15 0 0 1 .09.14.19.19 0 0 1 0 .07zM387.55 131.67a.3.3 0 0 1 0 .08.36.36 0 0 1-.28.13h-.11a.23.23 0 0 1-.17-.25c0-.2.2-.31.59-.31v-.15a.22.22 0 0 0 0-.08c0-.1-.06-.16-.15-.16h-.07s-.05 0-.07.11a.12.12 0 0 1-.11.08.11.11 0 0 1-.08-.1.11.11 0 0 1 0-.08.43.43 0 0 1 .37-.13h.11a.32.32 0 0 1 .28.35v.59s.07-.06.08-.16h.06v.11a.2.2 0 0 1-.2.13.23.23 0 0 1-.25-.16zm-.15.1a.28.28 0 0 0 .14-.2v-.21h-.19a.19.19 0 0 0-.15.2c0 .12.05.18.14.18zM388.21 131a.46.46 0 0 1 .39-.18.61.61 0 0 1 .28.07.21.21 0 0 1 .12.18.13.13 0 0 1-.13.08h-.08a.23.23 0 0 1-.05-.13v-.06c0-.06-.06-.09-.13-.09h-.05c-.12 0-.18.18-.18.46s.09.44.26.44h.09a.36.36 0 0 0 .24-.19h.06l-.06.1a.43.43 0 0 1-.36.15.6.6 0 0 1-.27-.07.46.46 0 0 1-.24-.44.5.5 0 0 1 .11-.32z" fill="#fff"/><path fill="#a5802a" d="M357.98 132.18h4.32v.2h-4.32zM362.3 131.81h-1.53l.12-.16a1 1 0 1 0-1.5 0l.13.16H358v-.2h1.15a1.14 1.14 0 0 1-.14-.54 1.15 1.15 0 0 1 2.3 0 1.13 1.13 0 0 1-.13.54h1.14z"/><path d="M358.63 136.43a.67.67 0 0 1-.3.06.46.46 0 0 1-.36-.15.52.52 0 0 1-.14-.39.6.6 0 0 1 .15-.42.58.58 0 0 1 .4-.16.62.62 0 0 1 .25 0v.13a.54.54 0 0 0-.25-.06.38.38 0 0 0-.3.12.45.45 0 0 0-.12.33.46.46 0 0 0 .11.32.35.35 0 0 0 .28.12.51.51 0 0 0 .28-.08zM359.49 136.47h-.12V136q0-.24-.18-.24a.2.2 0 0 0-.15.06.28.28 0 0 0-.06.18v.44h-.13v-1.14h.15v.5a.27.27 0 0 1 .25-.15c.17 0 .26.11.26.32zM360.36 136.12h-.54a.27.27 0 0 0 .07.2.25.25 0 0 0 .18.07.4.4 0 0 0 .24-.09v.12a.54.54 0 0 1-.27.07.33.33 0 0 1-.26-.11.42.42 0 0 1-.09-.29.44.44 0 0 1 .1-.3.34.34 0 0 1 .25-.11.3.3 0 0 1 .24.1.43.43 0 0 1 .08.27zm-.13-.11a.23.23 0 0 0-.05-.17.16.16 0 0 0-.14-.05.2.2 0 0 0-.15.06.26.26 0 0 0-.07.16zM361.09 136.44a.46.46 0 0 1-.21.05.37.37 0 0 1-.27-.11.41.41 0 0 1-.1-.28.42.42 0 0 1 .11-.3.37.37 0 0 1 .29-.12.34.34 0 0 1 .18 0v.13a.32.32 0 0 0-.18-.06.24.24 0 0 0-.2.08.38.38 0 0 0 0 .44.26.26 0 0 0 .19.08.34.34 0 0 0 .19-.07zM361.93 136.47h-.17l-.34-.37v.37h-.13v-1.14h.13v.72l.32-.35h.16l-.35.37zM363.13 135.7l-.36.89c-.06.16-.15.24-.26.24h-.08v-.11h.07a.16.16 0 0 0 .14-.11l.06-.15-.3-.77h.14l.21.59a.18.18 0 0 0 0 .06.18.18 0 0 1 0-.06l.22-.59zM363.59 136.49a.37.37 0 0 1-.27-.11.39.39 0 0 1-.1-.29.37.37 0 0 1 .39-.41.37.37 0 0 1 .27.11.44.44 0 0 1 .09.29.42.42 0 0 1-.1.3.38.38 0 0 1-.28.11zm0-.7a.22.22 0 0 0-.19.08.34.34 0 0 0-.07.22.38.38 0 0 0 .07.22.26.26 0 0 0 .19.08.22.22 0 0 0 .18-.08.31.31 0 0 0 .07-.22.33.33 0 0 0-.07-.23.21.21 0 0 0-.17-.07zM364.81 136.47h-.12v-.12a.27.27 0 0 1-.24.14c-.19 0-.28-.11-.28-.33v-.46h.13v.44c0 .16.06.25.18.25a.21.21 0 0 0 .15-.07.26.26 0 0 0 .06-.18v-.44h.12zM365.48 135.82h-.09a.16.16 0 0 0-.14.07.41.41 0 0 0-.05.21v.39h-.12v-.77h.12v.16a.25.25 0 0 1 .09-.13.16.16 0 0 1 .12 0h.07zM366.73 136.47h-.13v-.13a.28.28 0 0 1-.26.15.29.29 0 0 1-.23-.1.44.44 0 0 1-.09-.29.47.47 0 0 1 .09-.3.32.32 0 0 1 .26-.12.24.24 0 0 1 .23.13v-.48h.13zm-.13-.35V136a.23.23 0 0 0-.06-.16.2.2 0 0 0-.15-.06.19.19 0 0 0-.18.08.37.37 0 0 0-.06.23.33.33 0 0 0 .06.21.19.19 0 0 0 .16.08.21.21 0 0 0 .17-.08.29.29 0 0 0 .06-.18zM367.55 136.47h-.13v-.12a.26.26 0 0 1-.24.14.28.28 0 0 1-.18-.06.23.23 0 0 1-.06-.16c0-.15.08-.23.25-.26h.23c0-.13-.05-.19-.16-.19a.4.4 0 0 0-.25.09v-.13a.59.59 0 0 1 .26-.07c.19 0 .28.1.28.29zm-.13-.39h-.18a.22.22 0 0 0-.13 0 .13.13 0 0 0-.05.11.15.15 0 0 0 0 .09.21.21 0 0 0 .11 0 .21.21 0 0 0 .15-.07.23.23 0 0 0 .06-.16zM367.86 135.5a.07.07 0 0 1-.06 0 .08.08 0 0 1 0-.06.09.09 0 0 1 .06 0h.06a.11.11 0 0 1 0 .06.07.07 0 0 1-.06 0zm.06 1h-.12v-.77h.12zM368.31 136.47h-.12v-1.14h.12zM369.19 135.7l-.35.89q-.1.24-.27.24h-.08v-.11h.07c.07 0 .11 0 .14-.11l.06-.15-.3-.77h.14l.21.59a.35.35 0 0 1 0 .06.35.35 0 0 0 0-.06l.22-.59zM370.4 136.47h-.12v-.12a.27.27 0 0 1-.24.14c-.18 0-.28-.11-.28-.33v-.46h.13v.44c0 .16.06.25.18.25a.21.21 0 0 0 .15-.07.26.26 0 0 0 .06-.18v-.44h.12zM370.8 136.36v.47h-.12v-1.13h.12v.13a.28.28 0 0 1 .26-.15.29.29 0 0 1 .23.1.51.51 0 0 1 0 .59.3.3 0 0 1-.25.12.25.25 0 0 1-.24-.13zm0-.31v.11a.25.25 0 0 0 .06.16.26.26 0 0 0 .16.07.21.21 0 0 0 .18-.09.43.43 0 0 0 .06-.24.3.3 0 0 0-.06-.2.19.19 0 0 0-.16-.07.21.21 0 0 0-.17.07.25.25 0 0 0-.08.19zM372.25 136.47h-.13v-.13a.28.28 0 0 1-.26.15.29.29 0 0 1-.23-.1.44.44 0 0 1-.09-.29.42.42 0 0 1 .1-.3.29.29 0 0 1 .25-.12.24.24 0 0 1 .23.13v-.48h.13zm-.13-.35V136a.23.23 0 0 0-.06-.16.2.2 0 0 0-.15-.06.19.19 0 0 0-.18.08.37.37 0 0 0-.06.23.33.33 0 0 0 .06.21.19.19 0 0 0 .16.08.21.21 0 0 0 .17-.08.29.29 0 0 0 .06-.18zM373.07 136.47h-.13v-.12a.26.26 0 0 1-.24.14.28.28 0 0 1-.18-.06.23.23 0 0 1-.06-.16c0-.15.08-.23.25-.26h.23c0-.13-.05-.19-.16-.19a.4.4 0 0 0-.25.09v-.13a.59.59 0 0 1 .26-.07c.19 0 .28.1.28.29zm-.13-.39h-.18a.22.22 0 0 0-.13 0 .13.13 0 0 0-.05.11.15.15 0 0 0 0 .09.21.21 0 0 0 .11 0 .21.21 0 0 0 .15-.07.23.23 0 0 0 .06-.16zM373.67 136.46a.18.18 0 0 1-.11 0c-.14 0-.2-.08-.2-.23v-.46h-.14v-.1h.14v-.19h.12v.23h.19v.1h-.19v.44a.16.16 0 0 0 0 .11h.08a.11.11 0 0 0 .08 0zM374.46 136.12h-.54a.27.27 0 0 0 .07.2.25.25 0 0 0 .18.07.36.36 0 0 0 .24-.09v.12a.54.54 0 0 1-.27.07.35.35 0 0 1-.26-.11.42.42 0 0 1-.09-.29.49.49 0 0 1 .1-.3.36.36 0 0 1 .26-.11.28.28 0 0 1 .23.1.43.43 0 0 1 .08.27zm-.12-.11a.24.24 0 0 0-.06-.17.16.16 0 0 0-.14-.05.2.2 0 0 0-.14.06.27.27 0 0 0-.08.16zM375.66 136.47h-.13v-.12a.26.26 0 0 1-.24.14.28.28 0 0 1-.18-.06.23.23 0 0 1-.06-.16c0-.15.08-.23.25-.26h.23c0-.13 0-.19-.15-.19a.41.41 0 0 0-.26.09v-.13a.6.6 0 0 1 .27-.07c.18 0 .27.1.27.29zm-.13-.39h-.18a.22.22 0 0 0-.13 0 .12.12 0 0 0 0 .11.11.11 0 0 0 0 .09.15.15 0 0 0 .1 0 .21.21 0 0 0 .15-.07.23.23 0 0 0 .06-.16zM376 136.36v.11h-.12v-1.14h.12v.5a.29.29 0 0 1 .27-.15.31.31 0 0 1 .23.1.42.42 0 0 1 .08.28.48.48 0 0 1-.09.31.31.31 0 0 1-.26.12.26.26 0 0 1-.23-.13zm0-.31v.11a.25.25 0 0 0 .06.16.24.24 0 0 0 .16.07.2.2 0 0 0 .17-.09.36.36 0 0 0 .07-.24.3.3 0 0 0-.06-.2.19.19 0 0 0-.16-.07.21.21 0 0 0-.17.07.25.25 0 0 0-.07.19zM377.15 136.49a.37.37 0 0 1-.27-.11.39.39 0 0 1-.1-.29.37.37 0 0 1 .39-.41.37.37 0 0 1 .27.11.44.44 0 0 1 .09.29.42.42 0 0 1-.1.3.38.38 0 0 1-.28.11zm0-.7a.22.22 0 0 0-.19.08.34.34 0 0 0-.07.22.38.38 0 0 0 .07.22.26.26 0 0 0 .19.08.22.22 0 0 0 .18-.08.31.31 0 0 0 .07-.22.33.33 0 0 0-.07-.23.21.21 0 0 0-.17-.07zM378.37 136.47h-.12v-.12a.25.25 0 0 1-.23.14c-.19 0-.28-.11-.28-.33v-.46h.13v.44c0 .16.06.25.18.25a.21.21 0 0 0 .15-.07.26.26 0 0 0 .06-.18v-.44h.12zM379 136.46a.16.16 0 0 1-.11 0c-.14 0-.2-.08-.2-.23v-.46h-.13v-.1h.13v-.19h.12v.23h.19v.1h-.19v.44a.16.16 0 0 0 0 .11h.16zM380 136.46a.18.18 0 0 1-.11 0c-.14 0-.2-.08-.2-.23v-.46h-.14v-.1h.14v-.19h.12v.23h.19v.1h-.19v.44a.16.16 0 0 0 0 .11h.08a.11.11 0 0 0 .08 0zM380.79 136.47h-.12V136q0-.24-.18-.24a.2.2 0 0 0-.15.06.28.28 0 0 0-.06.18v.44h-.12v-1.14h.12v.5a.29.29 0 0 1 .26-.15c.17 0 .25.11.25.32zM381.66 136.12h-.54a.32.32 0 0 0 .07.2.25.25 0 0 0 .18.07.36.36 0 0 0 .24-.09v.12a.54.54 0 0 1-.27.07.31.31 0 0 1-.25-.11.38.38 0 0 1-.1-.29.49.49 0 0 1 .1-.3.36.36 0 0 1 .26-.11.26.26 0 0 1 .23.1.38.38 0 0 1 .08.27zm-.12-.11a.29.29 0 0 0-.05-.17.22.22 0 0 0-.29 0 .27.27 0 0 0-.08.16zM382.43 136.36v.47h-.12v-1.13h.12v.13a.32.32 0 0 1 .5-.05.42.42 0 0 1 .08.28.48.48 0 0 1-.09.31.31.31 0 0 1-.26.12.26.26 0 0 1-.23-.13zm0-.31v.11a.25.25 0 0 0 .06.16.24.24 0 0 0 .16.07.23.23 0 0 0 .18-.09.43.43 0 0 0 .06-.24.3.3 0 0 0-.06-.2.19.19 0 0 0-.16-.07.21.21 0 0 0-.17.07.25.25 0 0 0-.07.19zM383.35 136.47h-.12v-1.14h.12zM384.17 136.47h-.12v-.12a.28.28 0 0 1-.24.14.24.24 0 0 1-.18-.06.24.24 0 0 1-.07-.16c0-.15.09-.23.26-.26h.23c0-.13-.05-.19-.16-.19a.38.38 0 0 0-.25.09v-.13a.53.53 0 0 1 .26-.07c.18 0 .27.1.27.29zm-.12-.39h-.19a.25.25 0 0 0-.13 0 .12.12 0 0 0 0 .11.11.11 0 0 0 0 .09.18.18 0 0 0 .11 0 .21.21 0 0 0 .15-.07.23.23 0 0 0 .06-.16zM385.06 136.47h-.12V136q0-.24-.18-.24a.2.2 0 0 0-.15.06.28.28 0 0 0-.06.18v.44h-.13v-.77h.13v.13a.27.27 0 0 1 .25-.15.24.24 0 0 1 .19.08.36.36 0 0 1 .07.24zM385.93 136.12h-.54a.32.32 0 0 0 .06.2.29.29 0 0 0 .19.07.4.4 0 0 0 .24-.09v.12a.54.54 0 0 1-.27.07.33.33 0 0 1-.26-.11.42.42 0 0 1-.09-.29.44.44 0 0 1 .1-.3.34.34 0 0 1 .25-.11.3.3 0 0 1 .24.1.43.43 0 0 1 .08.27zm-.13-.11a.29.29 0 0 0-.05-.17.16.16 0 0 0-.14-.05.2.2 0 0 0-.15.06.26.26 0 0 0-.07.16zM386.49 136.46a.2.2 0 0 1-.11 0c-.14 0-.21-.08-.21-.23v-.46H386v-.1h.13v-.19h.13v.23h.19v.1h-.19v.55a.12.12 0 0 0 .09 0 .11.11 0 0 0 .08 0zM386.63 136.44v-.13a.35.35 0 0 0 .22.08c.11 0 .16 0 .16-.11a.13.13 0 0 0 0-.06h-.22l-.06-.05v-.06a.19.19 0 0 1 0-.08.29.29 0 0 1 0-.09.23.23 0 0 1 .07-.07.18.18 0 0 1 .09 0h.11a.34.34 0 0 1 .18 0v.12a.32.32 0 0 0-.19-.05h-.07a.43.43 0 0 0 0 .05h.28a.21.21 0 0 1 0 .06.24.24 0 0 1 0 .08.15.15 0 0 1 0 .1.16.16 0 0 1-.07.07h-.21a.39.39 0 0 1-.29.14zM387.5 135.37l-.11.34h-.09l.08-.34zM358 138.21v.47h-.13v-1.13h.13v.14a.28.28 0 0 1 .26-.16.3.3 0 0 1 .24.11.47.47 0 0 1 .08.28.52.52 0 0 1-.09.31.35.35 0 0 1-.26.11.25.25 0 0 1-.23-.13zm0-.31v.1a.23.23 0 0 0 .06.16.18.18 0 0 0 .15.07.2.2 0 0 0 .18-.09.43.43 0 0 0 .06-.24.32.32 0 0 0-.06-.2.19.19 0 0 0-.16-.07.21.21 0 0 0-.17.07.31.31 0 0 0-.06.2zM359.13 138.34a.34.34 0 0 1-.28-.11.41.41 0 0 1-.1-.28.45.45 0 0 1 .11-.31.38.38 0 0 1 .28-.11.34.34 0 0 1 .27.11.39.39 0 0 1 .1.29.41.41 0 0 1-.11.3.35.35 0 0 1-.27.11zm0-.7a.21.21 0 0 0-.19.08.38.38 0 0 0 0 .44.24.24 0 0 0 .19.08.23.23 0 0 0 .18-.08.36.36 0 0 0 .06-.22.34.34 0 0 0-.06-.22.21.21 0 0 0-.17-.08zM359.68 138.3v-.14a.35.35 0 0 0 .22.08c.11 0 .16 0 .16-.11h-.21a.18.18 0 0 1-.07-.05.09.09 0 0 1 0-.06.15.15 0 0 1 0-.07.3.3 0 0 1 0-.1l.07-.07h.2a.48.48 0 0 1 .18 0v.12a.38.38 0 0 0-.19-.05h-.07a.13.13 0 0 0 0 .1h.16a.18.18 0 0 1 .07 0 .09.09 0 0 1 0 .06.19.19 0 0 1 0 .08.17.17 0 0 1 0 .1l-.06.07h-.22a.42.42 0 0 1-.24.04zM360.75 138.32h-.11c-.14 0-.21-.08-.21-.23v-.45h-.13v-.11h.13v-.19h.13v.23h.19v.11h-.19v.43a.27.27 0 0 0 0 .11.1.1 0 0 0 .09 0 .11.11 0 0 0 .08 0zM361 137.36h-.06a.08.08 0 0 1 0-.05.08.08 0 0 1 0-.06.1.1 0 0 1 .12 0 .08.08 0 0 1 0 .06.08.08 0 0 1 0 .05zm.06 1h-.13v-.77h.13zM361.65 138.34a.34.34 0 0 1-.28-.11.41.41 0 0 1-.1-.28.45.45 0 0 1 .11-.31.38.38 0 0 1 .28-.11.34.34 0 0 1 .27.11.39.39 0 0 1 .1.29.4.4 0 0 1-.1.3.39.39 0 0 1-.28.11zm0-.7a.21.21 0 0 0-.19.08.38.38 0 0 0 0 .44.26.26 0 0 0 .19.08.22.22 0 0 0 .18-.08.36.36 0 0 0 .06-.22.34.34 0 0 0-.06-.22.19.19 0 0 0-.17-.08zM362.88 138.32h-.12v-.44q0-.24-.18-.24a.18.18 0 0 0-.15.07.24.24 0 0 0-.06.17v.44h-.12v-.77h.12v.13a.27.27 0 0 1 .25-.15.24.24 0 0 1 .2.09.37.37 0 0 1 .06.23zM363.2 137.36a.07.07 0 0 1-.06 0v-.05-.06c0-.01 0 0 .06 0h.05a.06.06 0 0 1 0 .06.12.12 0 0 1-.08.08zm.06 1h-.13v-.77h.13zM364.16 138.32H364v-.44q0-.24-.18-.24a.18.18 0 0 0-.15.07.24.24 0 0 0-.06.17v.44h-.13v-.77h.13v.13a.27.27 0 0 1 .25-.15.24.24 0 0 1 .2.09.37.37 0 0 1 .06.23zM365.07 138.26c0 .29-.14.43-.41.43a.54.54 0 0 1-.25-.06v-.12a.5.5 0 0 0 .25.07.26.26 0 0 0 .29-.3v-.09a.28.28 0 0 1-.26.15.28.28 0 0 1-.23-.1.41.41 0 0 1-.09-.28.45.45 0 0 1 .1-.31.29.29 0 0 1 .25-.12.25.25 0 0 1 .23.13v-.11h.12zM365 138v-.11a.21.21 0 0 0-.07-.16.2.2 0 0 0-.15-.06.22.22 0 0 0-.18.08.39.39 0 0 0-.06.23.33.33 0 0 0 .06.21.19.19 0 0 0 .16.08.21.21 0 0 0 .17-.08.29.29 0 0 0 .07-.19zM366.74 138.34h-.14l-.05-.06-.06-.07a.23.23 0 0 1-.07.07H365.96a.27.27 0 0 1-.12-.06.36.36 0 0 1-.07-.1.28.28 0 0 1 0-.13.29.29 0 0 1 .07-.2.42.42 0 0 1 .18-.13v-.06a.22.22 0 0 1 0-.08.16.16 0 0 1 0-.1.16.16 0 0 1 .06-.08.19.19 0 0 1 .09 0H366.38a.26.26 0 0 1 .09 0 .18.18 0 0 1 .05.07.29.29 0 0 1 0 .09.25.25 0 0 1-.05.15.45.45 0 0 1-.15.11h.09l.08.06.06.08.06.09a1.14 1.14 0 0 0 .1-.19.78.78 0 0 0 0-.22.09.09 0 0 0 0-.05.09.09 0 0 0 0-.05h.12a.09.09 0 0 1 0 .05v.05a.71.71 0 0 1 0 .14.65.65 0 0 1 0 .13.75.75 0 0 1-.06.13l-.06.1a.43.43 0 0 0 0 .07h.2v.11h-.05zm-.63-.11h.19l.07-.05.06-.06a.62.62 0 0 0-.08-.12l-.08-.09-.08-.06-.11-.05H366l-.07.06a.18.18 0 0 0-.05.07.31.31 0 0 0 0 .1.15.15 0 0 0 0 .09l.05.06h.07zm.19-.77a.14.14 0 0 0 0-.06h-.1a.21.21 0 0 0-.12 0 .16.16 0 0 0 0 .11v.11h.05l.14-.07a.17.17 0 0 0 .03-.09zM368.1 138.32h-.1v-.44q0-.24-.18-.24a.18.18 0 0 0-.15.07.24.24 0 0 0-.06.18v.43h-.12v-1.14h.12v.5a.29.29 0 0 1 .25-.15c.18 0 .26.11.26.32zM368.68 138.34a.34.34 0 0 1-.28-.11.41.41 0 0 1-.1-.28.45.45 0 0 1 .11-.31.38.38 0 0 1 .28-.11.34.34 0 0 1 .27.11.39.39 0 0 1 .1.29.41.41 0 0 1-.11.3.35.35 0 0 1-.27.11zm0-.7a.21.21 0 0 0-.18.08.38.38 0 0 0 0 .44.23.23 0 0 0 .18.08.24.24 0 0 0 .19-.08.36.36 0 0 0 .06-.22.34.34 0 0 0-.06-.22.21.21 0 0 0-.19-.08zM370.24 137.55l-.23.77h-.13l-.15-.55a.64.64 0 0 1 0-.07v.07l-.18.55h-.12l-.23-.77h.13l.16.58a.2.2 0 0 0 0 .07.25.25 0 0 1 0-.07l.17-.58h.12l.15.58v0l.16-.58zM371.2 138.32h-.11c-.14 0-.21-.08-.21-.23v-.45h-.13v-.11h.13v-.19h.13v.23h.19v.11h-.2v.43a.27.27 0 0 0 0 .11.1.1 0 0 0 .09 0 .11.11 0 0 0 .08 0zM372 138.32h-.12v-.44q0-.24-.18-.24a.18.18 0 0 0-.15.07.24.24 0 0 0-.06.18v.43h-.13v-1.14h.13v.5a.27.27 0 0 1 .25-.15c.17 0 .26.11.26.32zM372.89 138h-.54a.27.27 0 0 0 .07.2.25.25 0 0 0 .18.07.4.4 0 0 0 .24-.09v.12a.45.45 0 0 1-.27.07.33.33 0 0 1-.26-.1.45.45 0 0 1-.09-.3.39.39 0 0 1 .1-.29.32.32 0 0 1 .25-.12.33.33 0 0 1 .24.1.46.46 0 0 1 .08.27zm-.13-.11a.21.21 0 0 0-.05-.16.17.17 0 0 0-.14-.06.2.2 0 0 0-.15.06.29.29 0 0 0-.07.16zM373.71 137.55l-.36.9c-.06.16-.15.24-.26.24H373v-.11h.07a.16.16 0 0 0 .14-.11l.06-.15-.3-.77h.14l.2.6.22-.6zM374.82 138.29a.46.46 0 0 1-.21.05.3.3 0 0 1-.26-.11.37.37 0 0 1-.11-.27.45.45 0 0 1 .11-.31.38.38 0 0 1 .29-.12.48.48 0 0 1 .18 0v.13a.3.3 0 0 0-.18-.06.26.26 0 0 0-.19.08.34.34 0 0 0-.08.23.28.28 0 0 0 .07.21.26.26 0 0 0 .19.08.28.28 0 0 0 .19-.07zM375.58 138.32h-.13v-.12a.24.24 0 0 1-.24.14.28.28 0 0 1-.18-.06.21.21 0 0 1-.06-.16c0-.15.08-.23.25-.25h.23c0-.13-.05-.19-.16-.19a.4.4 0 0 0-.25.09v-.12a.5.5 0 0 1 .26-.08c.19 0 .28.1.28.29zm-.13-.39h-.18a.33.33 0 0 0-.13 0 .13.13 0 0 0-.05.11.13.13 0 0 0 0 .09.15.15 0 0 0 .11 0 .18.18 0 0 0 .15-.07.21.21 0 0 0 .06-.16zM376.46 138.32h-.12v-.44q0-.24-.18-.24a.18.18 0 0 0-.15.07.24.24 0 0 0-.06.17v.44h-.12v-.77h.17v.13a.27.27 0 0 1 .25-.15.24.24 0 0 1 .2.09.37.37 0 0 1 .06.23zM377.7 138.32h-.12v-.12a.24.24 0 0 1-.24.14.28.28 0 0 1-.18-.06.21.21 0 0 1-.06-.16c0-.15.08-.23.25-.25h.23c0-.13-.05-.19-.16-.19a.4.4 0 0 0-.25.09v-.12a.5.5 0 0 1 .26-.08c.18 0 .27.1.27.29zm-.12-.39h-.18a.33.33 0 0 0-.13 0 .13.13 0 0 0 0 .11.13.13 0 0 0 0 .09.15.15 0 0 0 .11 0 .18.18 0 0 0 .15-.07.21.21 0 0 0 .06-.16zM378.34 137.29h-.09c-.08 0-.13 0-.13.16v.12h.18v.11h-.18v.66H378v-.66h-.13v-.11h.13v-.12a.32.32 0 0 1 .07-.2.29.29 0 0 1 .18-.07h.09zM378.84 137.29h-.09c-.08 0-.13 0-.13.16v.12h.18v.11h-.18v.66h-.12v-.66h-.13v-.11h.13v-.12a.32.32 0 0 1 .07-.2.29.29 0 0 1 .18-.07h.09zM379.57 138H379a.32.32 0 0 0 .07.2.25.25 0 0 0 .18.07.36.36 0 0 0 .24-.09v.12a.45.45 0 0 1-.27.07.3.3 0 0 1-.25-.1.4.4 0 0 1-.1-.3.44.44 0 0 1 .1-.29.34.34 0 0 1 .26-.12.29.29 0 0 1 .23.1.4.4 0 0 1 .08.27zm-.12-.11a.25.25 0 0 0-.05-.16.2.2 0 0 0-.15-.06.2.2 0 0 0-.14.06.3.3 0 0 0-.08.16zM380.3 138.29a.46.46 0 0 1-.21.05.3.3 0 0 1-.26-.11.36.36 0 0 1-.1-.27.45.45 0 0 1 .1-.31.38.38 0 0 1 .29-.12.48.48 0 0 1 .18 0v.13a.28.28 0 0 0-.18-.06.26.26 0 0 0-.19.08.34.34 0 0 0-.08.23.28.28 0 0 0 .07.21.26.26 0 0 0 .19.08.28.28 0 0 0 .19-.07zM380.86 138.32h-.11c-.14 0-.2-.08-.2-.23v-.45h-.14v-.11h.14v-.19h.12v.23h.19v.11h-.19v.43a.16.16 0 0 0 0 .11h.08a.11.11 0 0 0 .08 0zM382.1 137.55l-.36.9c-.06.16-.15.24-.26.24h-.08v-.11h.07a.16.16 0 0 0 .14-.11l.06-.15-.3-.77h.14l.21.6.22-.6zM382.56 138.34a.33.33 0 0 1-.27-.11.37.37 0 0 1-.1-.28.45.45 0 0 1 .1-.31.4.4 0 0 1 .29-.11.37.37 0 0 1 .27.11.44.44 0 0 1 .09.29.4.4 0 0 1-.1.3.38.38 0 0 1-.28.11zm0-.7a.22.22 0 0 0-.19.08.38.38 0 0 0 0 .44.26.26 0 0 0 .19.08.22.22 0 0 0 .18-.08.31.31 0 0 0 .07-.22.29.29 0 0 0-.07-.22.19.19 0 0 0-.17-.08zM383.78 138.32h-.12v-.12a.25.25 0 0 1-.24.14c-.18 0-.28-.11-.28-.33v-.46h.13v.45c0 .17.06.25.18.25a.18.18 0 0 0 .15-.07.24.24 0 0 0 .06-.17v-.45h.12zM384.45 137.68a.12.12 0 0 0-.09 0 .17.17 0 0 0-.14.08.37.37 0 0 0-.05.2v.39h-.12v-.77h.12v.16a.22.22 0 0 1 .08-.13.16.16 0 0 1 .12 0h.07zM385.7 138.32h-.13v-.13a.28.28 0 0 1-.26.15.26.26 0 0 1-.23-.1.41.41 0 0 1-.08-.24.45.45 0 0 1 .1-.31.29.29 0 0 1 .25-.12.25.25 0 0 1 .23.13v-.48h.13zm-.13-.35v-.11a.25.25 0 0 0-.06-.16.2.2 0 0 0-.15-.06.22.22 0 0 0-.18.08.39.39 0 0 0-.06.23.33.33 0 0 0 .06.21.19.19 0 0 0 .16.08.21.21 0 0 0 .17-.08.29.29 0 0 0 .06-.16zM386.52 138.32h-.13v-.12a.24.24 0 0 1-.24.14.28.28 0 0 1-.18-.06.21.21 0 0 1-.06-.16c0-.15.08-.23.25-.25h.23c0-.13-.05-.19-.16-.19a.4.4 0 0 0-.25.09v-.12a.5.5 0 0 1 .27-.08c.18 0 .27.1.27.29zm-.13-.39h-.18a.33.33 0 0 0-.13 0 .13.13 0 0 0-.05.11.13.13 0 0 0 0 .09.15.15 0 0 0 .11 0 .18.18 0 0 0 .15-.07.21.21 0 0 0 .06-.16zM387.38 137.55l-.36.9c-.06.16-.15.24-.26.24h-.08v-.11h.07a.16.16 0 0 0 .14-.11l.06-.15-.3-.77h.14l.21.6.22-.6zM387.62 138.34a.09.09 0 0 1-.06 0 .08.08 0 0 1 0-.06.08.08 0 0 1 0-.05h.06a.06.06 0 0 1 .06 0 .05.05 0 0 1 0 .05.11.11 0 0 1-.09.09zm.07-1.1v.78h-.1v-.78z" fill="#fff"/></g></svg>