<svg xmlns="http://www.w3.org/2000/svg" viewBox="0 0 189.8 189.8"><path d="M189.8 94.9l-.29-.5-12.26-21.23V47.45l-.5-.29L155 34.59l-12.36-21.38-.29-.5h-25.26L95.57.29l-.5-.29-.5.29-21.52 12.42h-25.6l-.29.5-12.51 21.67-21.27 12.28-.5.29v25.14L.29 94.4l-.29.5.29.5 12.59 21.81v25.14l.5.29 21.27 12.28 12.51 21.67.29.5h25.6l21.52 12.42.5.29.5-.29 21.52-12.42h25.26l.29-.5L155 155.21l21.77-12.57.5-.29v-25.72l12.24-21.23zm-1.65-.9l-10.9-6.29V75.17zm-26.21 47.11h-19.66v-19l16.53-9.55 9.82 17zm7.27-10.58l6.11 10.58H163.1zm-27.93 44.51l-10.36-6 10.36-6zm-11.36-6.55l-17.06-9.85 9.54-16.53h18.88V162zm-40.85 8.56h12l-6 10.39zm-.58-1l-9.93-17.2 16.34-9.43 16.59 9.58-9.84 17.05zm-40-13.16L59.05 169l-10.53 6.08zm0-1.16v-19.58h19.25l9.46 16.38-17.15 9.9zm-27.15-31.87l9.9-17.15 16.28 9.4v19H27.86zm5.36 11.29H14.82l5.94-10.29zm-12.82-53l17-9.81 9.52 16.5-9.54 16.52-17-9.81zm-1 12.83l-10.6-6.15 10.6-6.12zM28 48.49h19.52v19.07L31.25 77l-9.86-17.14zm-7.19 10.37l-6-10.37h12zm27.71-44.28l10.65 6.15-10.65 6.14zm11.65 6.73l17 9.82-9.43 16.36H48.52V28zm34.9-19.16l6.1 10.56H89zm6.67 11.56l9.76 16.91-16.6 9.58-16.35-9.43 9.85-17.06zm39.54 13l-10.48-6.08 10.48-6zm0 1.15v19.63H122.4L112.87 31l16.93-9.77zm27.3 32.32L158.8 77.1l-16.52-9.54V48.49h19.57zM163 48.49h12.32l-6.16 10.66zm6.16 12.66l7.09 12.29v13.73l-16.58-9.57zm-38.32 1l10.44 6v12.04zm10.44 20.08v25.26l-12.2 21.12-21.79 12.58H82.5l-21.27-12.32-12.71-22V82.78l12.68-22 21.35-12.29h24.7l21.85 12.62zm-11.44-21.85L123 48.49h18.31V67zm-1.74-1l-18.85-10.89h12.57zm-20.59-11.89L95.9 40.78l16.1-9.3 9.24 16zm-2 0H84.29l10.61-6.13zm-23.22 0H68.9l9.15-15.86 15.85 9.15zm-1.74 1L62.2 59.08l6.12-10.59zM60.47 60.08L48.52 67V48.49h18.64zm-1 1.73l-10.95 19V68.14zm-11.95 20.7L41 93.82l-9.24-16 15.77-9.11zm0 2v20.62l-6-10.31zm0 22.62V121l-15.78-9.12 9.25-16zm1 1.73l11 19-11-6.34zm12 20.74l6.66 11.55H48.52v-18.46zm1.73 1l18.25 10.55H68.32zm20 11.55l11.67 6.73L78.06 158l-9.16-15.85zm2 0h21.33l-10.68 6.16zm23.33 0h13.68l-9.25 16-16.09-9.3zm1.73-1l18.79-10.85-6.26 10.85zm20.52-11.85l11.47-6.61v18.46H123zm1-1.73l10.47-18.12v12.08zm11.47-19.85l6.87-11.9 9.16 15.88-16 9.25zm0-2v-21.8l6.29 10.9zm0-23.8V68.71l16 9.25-9.15 15.86zm0-34.43V28.41l12 6.91 7 12.17zm-29.93-17.37l-9.47-16.41h13.92l12 6.92zm-34.69.15l-16.51-9.54 12.15-7h13.92zM47.52 47.49h-19l6.85-11.88 12.14-7zm-17.13 30L13.88 87V72.85l6.93-12zm0 34.76l-9.61 16.65-6.9-11.9v-14.31zm17.15 29.94v19l-12.14-7-6.94-12zm30.16 17.2l9.63 16.7h-14L61.05 169zm34.66.15l16.56 9.56-12.1 7h-14zm29.92-17.39h19.09l-7.12 12.33-12 6.91zm17.4-30.09l16.57-9.57v13.87l-7 12.21zm-.5-.87l-9.46-16.37 9.45-16.36 17.08 9.87v13zm18.07-22.28l10.27 5.92-10.27 5.93zm-7.51-28.76l6.51-11.28v22.57zm5.58-12.66h-12.89L156 36.32zm-22.07-13.9l-11-6.34V14.58zm-12.47-19.88l-11 6.34-11-6.34zm-38.46-1L95.93 1.65l19.16 11.06zM94.2 1.65l-6.38 11.06H75.05zm-34 18.5L49 13.71h22.3zm-12.68-5.56v12.86l-11.14 6.43zm-20.15 32.9H14.82l18.83-10.88zm-13.49 1.38l6.35 11-6.35 11zm-1 38.69L1.65 94l11.23-19.41zm-11.34 8l11.34 6.55v13.1zm18.64 34.3l-6.3 10.91V119zm-5.64 12.29h12.74l6.37 11zm21.84 13.77l11.14 6.43v12.86zm12.4 20.17l11.27-6.51 11.27 6.51zm39.13 1l6.43 11.14-19.29-11.14zm7.88 11.14l6.44-11.14h12.86zm34.13-18.55l11.08 6.41h-22.18zm12.36 5.54v-12.67l11-6.34zm20.24-33.07h13.08L156 153.48zm13.73-1.38l-6.46-11.2 6.46-11.21zm1-38.86l11-6.36-11 19.08z" fill="#a5802a" data-name="Comp 1"/></svg>