<svg xmlns="http://www.w3.org/2000/svg" viewBox="0 0 546.73 556.4"><defs><clipPath id="a"><path fill="none" d="M68.13-459.94H485.2v354.78H68.13z"/></clipPath></defs><g data-name="Comp 1"><g clip-path="url(#a)"><rect x="118.53" y="-429.91" width="329.06" height="483.58" rx="34.22" ry="34.22" fill="#1c1c1c" stroke="#a5802a" stroke-miterlimit="10" stroke-width="2"/></g><g opacity=".46" stroke="#a5802a" stroke-miterlimit="10" stroke-width="2"><path d="M432.59 141s-19.69 13.87 2.69 35.81c0 0-12.09-.9-16.12-9.85 0 0-12.53 23.28 9.85 46.11 0 0-30-11.64-29.1-29.1 1-18.8-2.23-22.38-2.23-22.38s-1.79 19.25-5.38 29.54c0 0-1.34-14.77-4-23.27 0 0-27.76 12.08-3.14 49.69s5.7 52.49 5.7 52.49c-2.4-21-34.61-29.56-40.2-40.19s-7.16-9.33-7.16-9.33c3.58 8.59.22 13.89.22 13.89s-.22-13.89-17.29-30.82-23.7-62.62-23.7-62.62c-9.51 16.11-1.34 28.3-1.34 28.3-14.1-16.93-26.39-47.53 2.26-83.15 24.43-30.37 26.21-44.41 26.21-44.41s1.73-9.64 10.09-11.43" fill="#262626"/><path d="M335.45 37.4c-7.16-27.46 56.41-48.95 71.63-10.4v-.59l42.08 17 16.11 36.7 29.92 14.59a12.08 12.08 0 0 1 5.81 15.66l-22.3 51.19s-28.2-20.15-53.7-6.27" fill="#262626"/><path d="M356.68 38.57c-40.62-5.57-55.34 35.55-55.34 35.55.4-28.41 15.5-48.61 40.85-51.26M394 37.4a14.43 14.43 0 1 0-20.8 17.1" fill="#262626"/><path d="M384.57 104.11c-4.31 12.31 2.88 26 15.33 30.31a20.5 20.5 0 0 1-24.61-6.14M438.1 74.8l.6 18.28" fill="none"/><path d="M494.82 124.54s3-13.73-7.16-17.31c-5.31-1.87 3.58-13.73 3.58-13.73M488.85 137.67s-5.25 3.63-14.33.6-15.52 3.58-15.52 3.58" fill="#262626"/><path d="M397.6 161.32s-23.35-21.26-22.16-34.39S394 95.3 386.78 84.55s-6-16.71-6-16.71" fill="none"/></g><path fill="#a5802a" d="M400.56 254.44l5.2-11.97-11.52-6.11 12.59-3.41-2.4-12.82 10.51 7.73 8.53-9.87.52 13.03 13.03.51-9.87 8.53 7.73 10.52-12.83-2.4-3.4 12.59-6.12-11.52-11.97 5.19zM19.25 238l5.19-11.97-11.52-6.12 12.59-3.4-2.4-12.82 10.52 7.72 8.53-9.87.51 13.04 13.04.51-9.87 8.53 7.72 10.52-12.82-2.4-3.4 12.59-6.12-11.52L19.25 238zM338.5 172.23l5.19-11.97-11.52-6.12 12.6-3.4-2.4-12.82 10.51 7.72 8.53-9.87.51 13.04 13.04.51-9.87 8.53 7.72 10.51-12.82-2.4-3.4 12.6-6.12-11.52-11.97 5.19zM157.19 233.66l-.57-9.96-8.53-5.17 9.29-3.63 2.28-9.71 6.32 7.72 9.94-.83-5.39 8.39 3.86 9.2-9.64-2.53-7.56 6.52zM347.7 124.17l-.58-9.95-8.52-5.17 9.29-3.63 2.28-9.71 6.32 7.72 9.93-.83-5.38 8.39 3.86 9.2-9.65-2.53-7.55 6.51zM398.99 193.5l-.58-9.96-8.53-5.16 9.29-3.63 2.28-9.71 6.32 7.72 9.94-.83-5.39 8.39 3.87 9.19-9.65-2.52-7.55 6.51zM438.95 101.6l-1.43-9.87-8.94-4.42 8.94-4.41 1.44-9.87 6.96 7.14 9.83-1.68-4.64 8.83 4.64 8.82-9.83-1.68-6.97 7.14zM119.91 333.16l7.93-4.06 4.49-7.7 4.06 7.93 7.7 4.48-7.93 4.07-4.49 7.7-4.06-7.94-7.7-4.48zM116.46 275.19l7.93-4.07 4.49-7.7 4.06 7.94 7.7 4.48-7.93 4.06-4.49 7.71-4.06-7.94-7.7-4.48zM512.78 213.93l7.06 5.43 8.88.77-5.44 7.06-.77 8.88-7.06-5.44-8.87-.76 5.43-7.06.77-8.88zM406.28 68.71l7.07-5.43 3.03-8.38 5.42 7.08 8.38 3.02-7.07 5.43-3.03 8.38-5.42-7.07-8.38-3.03zM453.973 229.898l47.627-5.553.161 1.38-47.627 5.553zM59.542 218.276l81.415-1.578.027 1.39-81.415 1.578zM138.557 264.561l15.29-27.013 1.21.684-15.29 27.014zM127.718 317.452l.59-22.672 1.39.036-.59 22.672zM191.643 211.576l131.114-36.312.371 1.34-131.114 36.311zM376.357 93.954l25.23-18.642.826 1.117-25.23 18.642z"/><rect x="201.95" y="526.71" width="172.54" height="16.51" rx="4.02" ry="4.02" fill="#a5802a" stroke="#a5802a" stroke-linecap="round" stroke-linejoin="round" stroke-width=".25"/><rect x="272" y="421.19" width="32.45" height="111.86" rx="4.02" ry="4.02" fill="#a5802a" stroke="#a5802a" stroke-linecap="round" stroke-linejoin="round" stroke-width="2"/><path fill="#202020" stroke="#a5802a" stroke-miterlimit="10" stroke-width="3" d="M95.91 261.16h384.62v231.2H95.91z"/><rect x="234.36" y="274.62" width="233.88" height="74.12" rx="3.24" ry="3.24" fill="#0c0c0c" stroke="#a5802a" stroke-miterlimit="10" stroke-width="2"/><path fill="none" stroke="#a5802a" stroke-miterlimit="10" stroke-width="2" d="M234.63 302.69h233.62"/><path d="M283.19 292.39V292h1.11v-7.66h-1.11V284h4.5a3.24 3.24 0 0 1 1.87.52 2 2 0 0 1 .92 1.68 2.23 2.23 0 0 1-1.93 2.22l2.2 3.63h.46q.18 0 .18.36H289l-2.12-3.86H286V292h1.12v.38zm2.83-8v3.77h1.05a1.45 1.45 0 0 0 .87-.27 1.89 1.89 0 0 0 .71-1.64 2.38 2.38 0 0 0-.14-.81 1.49 1.49 0 0 0-1.52-1zM297.43 291.39a2.51 2.51 0 0 1-2.31 1.14 3.44 3.44 0 0 1-1.69-.42 3 3 0 0 1-1.41-2.76 3.32 3.32 0 0 1 .6-2 2.86 2.86 0 0 1 2.46-1.17 3.63 3.63 0 0 1 1.58.34 1.78 1.78 0 0 1 1.12 1.67 1 1 0 0 1-.14.53c-.28.43-1.12.63-2.52.61h-1.41q.07 2.79 1.71 2.79a1.8 1.8 0 0 0 .6-.1 2.08 2.08 0 0 0 1.29-1.16l.33.11a4.11 4.11 0 0 1-.21.42zm-2.67-4.8c-.66.21-1 1-1.05 2.3h1.08a3.08 3.08 0 0 0 .89-.07.76.76 0 0 0 .48-.82 2.42 2.42 0 0 0 0-.47c-.11-.68-.46-1-1-1a1.22 1.22 0 0 0-.4.06zM302.44 291.25a2.62 2.62 0 0 1-.27.49 2.07 2.07 0 0 1-1.72.79 2.09 2.09 0 0 1-.72-.12 1.47 1.47 0 0 1-1.05-1.55c0-1.25 1.23-1.89 3.67-1.93V288a3.94 3.94 0 0 0 0-.5c-.1-.66-.42-1-1-1a1.07 1.07 0 0 0-.41.08 1.17 1.17 0 0 0-.43.72 2.16 2.16 0 0 0-.08.24.72.72 0 0 1-.7.52.7.7 0 0 1-.25-.05.58.58 0 0 1-.45-.61.85.85 0 0 1 .15-.48 2.62 2.62 0 0 1 2.28-.79 4.32 4.32 0 0 1 .74.07 2 2 0 0 1 1.71 2.15v3c0 .45.1.68.32.7s.44-.34.5-1h.36a5.2 5.2 0 0 1-.09.67 1.14 1.14 0 0 1-1.23.79c-.77.01-1.18-.42-1.33-1.26zm-1 .6a1.66 1.66 0 0 0 .89-1.25v-1.27a4.42 4.42 0 0 0-1.14.14 1.14 1.14 0 0 0-.95 1.2v.14c0 .75.31 1.13.84 1.13a.87.87 0 0 0 .38-.09zM310.45 291a2.56 2.56 0 0 1-.11.24 2.12 2.12 0 0 1-2 1.27 2.34 2.34 0 0 1-1.4-.45 3 3 0 0 1-1.13-2.57 3.63 3.63 0 0 1 .65-2.2 2.61 2.61 0 0 1 2.21-1.13 2.49 2.49 0 0 1 1.75.66v-3.21h-1.29v-.36H312V292h.84c.11 0 .17.15.17.36h-2.35zm-2.88-.63c.19 1 .62 1.52 1.31 1.52a1.14 1.14 0 0 0 .69-.23 3.11 3.11 0 0 0 .87-2.61 5.35 5.35 0 0 0-.13-1.19c-.21-.85-.64-1.28-1.29-1.28a1.22 1.22 0 0 0-.61.17c-.62.37-.92 1.22-.92 2.57a5.74 5.74 0 0 0 .08 1.07zM316.91 292q.21 0 .21.36h-3.35V292a1.78 1.78 0 0 0 .44 0c.31-.08.46-.31.46-.72v-4.53h-.9v-.35h2.44v5.6h.7zm-.67-7.11a.89.89 0 0 1-.84.49.94.94 0 0 1-.43-.1.86.86 0 0 1-.52-.84 1.06 1.06 0 0 1 .11-.45.9.9 0 0 1 .84-.52.85.85 0 0 1 .43.12.9.9 0 0 1 .52.85 1 1 0 0 1-.11.48zM321 292q.18 0 .18.36H318V292a1.8 1.8 0 0 0 .43 0c.31-.07.46-.31.46-.72v-4.53H318v-.35h2.35l.07 1.16a2.65 2.65 0 0 1 .36-.56 2.19 2.19 0 0 1 1.7-.8 2.1 2.1 0 0 1 .79.16 2.05 2.05 0 0 1 1.14 2.13V292h.72q.18 0 .18.36h-3.2V292a1.25 1.25 0 0 0 .44-.06c.22-.07.33-.3.33-.7v-3a2.38 2.38 0 0 0-.07-.56 1 1 0 0 0-1-.83 1.2 1.2 0 0 0-.53.14 1.85 1.85 0 0 0-.84 1.55V292h.6zM330.59 286.58a1.31 1.31 0 0 1 .15-.37 1.24 1.24 0 0 1 1.1-.76 1.42 1.42 0 0 1 .42.07.7.7 0 0 1 .48.69.69.69 0 0 1 0 .13.43.43 0 0 1-.47.38.57.57 0 0 1-.35-.16.76.76 0 0 0-.45-.24.66.66 0 0 0-.57.47 2.14 2.14 0 0 1 .77 1.67 2.26 2.26 0 0 1-.48 1.4 2.62 2.62 0 0 1-2.21 1h-1.58c-.25.05-.38.18-.38.39a.36.36 0 0 0 0 .1c0 .24.21.36.5.37l2.78.05a2.31 2.31 0 0 1 .46.05 1.43 1.43 0 0 1 1.41 1.51 1.4 1.4 0 0 1-.21.73c-.45.7-1.43 1-2.92 1a4.23 4.23 0 0 1-1.55-.25q-1-.37-1-1.14a1.3 1.3 0 0 0-.16-2 1.55 1.55 0 0 1 .1-.52 1.11 1.11 0 0 1 1.12-.73 2.82 2.82 0 0 1-.31-.21 2.16 2.16 0 0 1-1-1.77 2.12 2.12 0 0 1 .45-1.33 2.69 2.69 0 0 1 2.26-1 2.93 2.93 0 0 1 1.64.47zm-.28 8c.81-.18 1.21-.48 1.21-.91a.66.66 0 0 0 0-.25c-.1-.21-.44-.32-1-.32h-2.61a1.83 1.83 0 0 1-.55-.1 1.23 1.23 0 0 0-.25.64.7.7 0 0 0 .09.35q.38.75 1.95.75a5.51 5.51 0 0 0 1.16-.14zm-2.35-5a1 1 0 0 0 1 .86 1 1 0 0 0 .65-.19c.31-.24.47-.84.47-1.81a4.68 4.68 0 0 0-.1-1.13.94.94 0 0 0-1-.8 1 1 0 0 0-.66.19q-.45.36-.45 1.77a5.23 5.23 0 0 0 .13 1.15zM335.52 292.13c.63 0 1-.21 1.16-.63a.9.9 0 0 0 0-.28c0-.45-.29-.83-.88-1.14l-.61-.28a4.29 4.29 0 0 1-1.44-.87 1.58 1.58 0 0 1 .82-2.56 3.46 3.46 0 0 1 1.19-.19 3.17 3.17 0 0 1 1.68.4c0-.28.07-.44.22-.47h.14v1.75h-.42a1.22 1.22 0 0 0-1.39-1.29c-.63 0-1 .2-1.16.59a.85.85 0 0 0-.06.31c0 .39.28.74.84 1l.59.27a4.29 4.29 0 0 1 1.46.89 1.62 1.62 0 0 1 .42 1.12 1.58 1.58 0 0 1-1.23 1.6 3.56 3.56 0 0 1-1.12.17 3.86 3.86 0 0 1-2-.47q0 .38-.18.42h-.19v-2.14h.44q.1 1.78 1.72 1.8zM345.75 292q.21 0 .21.36H342V292a2.63 2.63 0 0 0 .43 0 .66.66 0 0 0 .63-.73v-4.52H342v-.36h1.09v-.2a3.51 3.51 0 0 1 .42-1.79 2.39 2.39 0 0 1 2.25-1.19 2.76 2.76 0 0 1 1.16.22 1 1 0 0 1 .71.94 1.5 1.5 0 0 1 0 .2.64.64 0 0 1-.69.43.53.53 0 0 1-.43-.2 2.65 2.65 0 0 1-.39-.7c-.17-.35-.38-.53-.62-.53a.68.68 0 0 0-.42.14c-.29.27-.43 1.14-.43 2.6v.08h1.59v.36h-1.59V292h1.12z" fill="#fff"/><path d="M350.39 292q.21 0 .21.36h-3.79V292a2 2 0 0 0 .46 0c.28-.08.42-.31.42-.72v-4.53h-.88v-.35h2.31l.08 1.32a2.51 2.51 0 0 1 .46-.73 2.06 2.06 0 0 1 1.53-.7 1.24 1.24 0 0 1 .33 0 .79.79 0 0 1 .66.84.71.71 0 0 1-.07.32.73.73 0 0 1-.71.5.81.81 0 0 1-.27-.05c-.18-.05-.34-.23-.5-.53s-.24-.32-.37-.32a.48.48 0 0 0-.26.1 2.3 2.3 0 0 0-.76 1.81v3h1.15zM358 286.79a2.93 2.93 0 0 1 1.17 2.51 3.18 3.18 0 0 1-.73 2.1 3.23 3.23 0 0 1-4.44.45 3.09 3.09 0 0 1-1.15-2.55 3 3 0 0 1 .7-2 3.4 3.4 0 0 1 4.45-.49zm-3.29 4.21c.19.81.63 1.21 1.33 1.21a1.46 1.46 0 0 0 .63-.14c.57-.31.85-1.22.85-2.72a6.46 6.46 0 0 0-.14-1.54 1.31 1.31 0 0 0-1.34-1.21 1.36 1.36 0 0 0-.71.18c-.51.33-.76 1.2-.76 2.62a7.51 7.51 0 0 0 .14 1.6zM363.09 292q.21 0 .21.36h-3.15V292a1.89 1.89 0 0 0 .44 0c.3-.07.46-.31.46-.72v-4.53h-.9v-.35h2.35l.07 1.12a2.26 2.26 0 0 0 .11-.22 2 2 0 0 1 1.86-1.1 1.77 1.77 0 0 1 .46.07 1.79 1.79 0 0 1 1.18 1.31.69.69 0 0 1 0-.1 2.11 2.11 0 0 1 2-1.28 1.67 1.67 0 0 1 .91.27 2.13 2.13 0 0 1 .92 2V292h.7q.18 0 .18.36h-3.14V292a1.14 1.14 0 0 0 .46-.07c.17-.07.26-.3.26-.69v-3a2.24 2.24 0 0 0-.1-.7.9.9 0 0 0-.89-.72.8.8 0 0 0-.36.09 1.63 1.63 0 0 0-.83 1.36V292h.53q.18 0 .18.36h-3V292a1.11 1.11 0 0 0 .46-.07c.18-.07.26-.3.26-.69v-3a2.48 2.48 0 0 0-.09-.7q-.24-.69-.81-.69a.86.86 0 0 0-.45.13 1.8 1.8 0 0 0-.81 1.56V292h.51zM374.47 286.42h1v-1.33l1.53-.3v1.63h2v.37h-2V291a2.64 2.64 0 0 0 0 .28c.06.53.29.8.68.8s.79-.43 1-1.26l.38.05a3.34 3.34 0 0 1-.22.75 1.48 1.48 0 0 1-1.5.88c-1.17-.05-1.8-.75-1.88-2.1v-3.65h-1zM382.68 292q.18 0 .18.36h-3.24V292a2.25 2.25 0 0 0 .4 0c.33-.06.49-.31.49-.73v-7.63h-.89v-.36h2.43v4.27a2.38 2.38 0 0 1 .29-.51 2.18 2.18 0 0 1 1.81-.85 2 2 0 0 1 .75.14 2.07 2.07 0 0 1 1.13 2.15V292h.7q.18 0 .18.36h-3.1V292a1.18 1.18 0 0 0 .48-.07q.21-.1.21-.69v-3a2.2 2.2 0 0 0-.06-.53 1 1 0 0 0-1-.87 1.15 1.15 0 0 0-.56.15 1.82 1.82 0 0 0-.8 1.72V292h.63zM393.22 291.39a2.52 2.52 0 0 1-2.31 1.14 3.44 3.44 0 0 1-1.69-.42 3 3 0 0 1-1.41-2.76 3.32 3.32 0 0 1 .6-2 2.86 2.86 0 0 1 2.46-1.17 3.63 3.63 0 0 1 1.58.34 1.78 1.78 0 0 1 1.12 1.67 1 1 0 0 1-.14.53c-.28.43-1.12.63-2.52.61h-1.41q.08 2.79 1.71 2.79a1.8 1.8 0 0 0 .6-.1 2 2 0 0 0 1.28-1.16l.34.11a4.11 4.11 0 0 1-.21.42zm-2.67-4.8c-.66.21-1 1-1.05 2.3h1.08a3.08 3.08 0 0 0 .89-.07.76.76 0 0 0 .53-.82 3.57 3.57 0 0 0 0-.47c-.12-.68-.46-1-1-1a1.22 1.22 0 0 0-.45.06zM397.32 292.39v-.3l5.16-7.76h-2.53c-.47 0-.84.3-1.13.89l-.57 1.27h-.38L398 284h6.29v.31l-5 7.73h3a1.4 1.4 0 0 0 1.37-1.18l.38-1.35h.39v2.91zM410.49 286.79a2.93 2.93 0 0 1 1.17 2.51 3.22 3.22 0 0 1-.72 2.1 3.25 3.25 0 0 1-4.45.45 3.11 3.11 0 0 1-1.14-2.55 3 3 0 0 1 .7-2 3.39 3.39 0 0 1 4.44-.49zm-3.31 4.21c.19.81.63 1.21 1.33 1.21a1.46 1.46 0 0 0 .63-.14c.56-.31.85-1.22.85-2.72a7 7 0 0 0-.14-1.54c-.19-.81-.64-1.21-1.34-1.21a1.43 1.43 0 0 0-.72.18c-.5.33-.75 1.2-.75 2.62a7.51 7.51 0 0 0 .14 1.6zM417.41 291a1.28 1.28 0 0 1-.11.24 2.12 2.12 0 0 1-2 1.27 2.36 2.36 0 0 1-1.4-.45 3 3 0 0 1-1.13-2.57 3.63 3.63 0 0 1 .66-2.2 2.6 2.6 0 0 1 2.2-1.13 2.47 2.47 0 0 1 1.75.66v-3.21h-1.29v-.36h2.84V292h.84c.11 0 .17.15.17.36h-2.35zm-2.88-.63c.19 1 .63 1.52 1.32 1.52a1.12 1.12 0 0 0 .68-.23 3.11 3.11 0 0 0 .87-2.61 4.82 4.82 0 0 0-.13-1.19c-.21-.85-.64-1.28-1.28-1.28a1.26 1.26 0 0 0-.62.17c-.61.37-.92 1.22-.92 2.57a6.79 6.79 0 0 0 .08 1.07zM423.87 292q.21 0 .21.36h-3.35V292a1.92 1.92 0 0 0 .45 0c.3-.08.46-.31.46-.72v-4.53h-.91v-.35h2.44v5.6h.7zm-.67-7.11a.88.88 0 0 1-.84.49.94.94 0 0 1-.43-.1.87.87 0 0 1-.52-.84 1.06 1.06 0 0 1 .11-.45.9.9 0 0 1 .84-.52.88.88 0 0 1 .44.12.9.9 0 0 1 .51.85.88.88 0 0 1-.11.48zM428.7 291.25a2.62 2.62 0 0 1-.27.49 2.07 2.07 0 0 1-1.72.79 2.09 2.09 0 0 1-.72-.12 1.47 1.47 0 0 1-1.05-1.55c0-1.25 1.23-1.89 3.67-1.93V288a3.94 3.94 0 0 0 0-.5c-.1-.66-.42-1-1-1a1.07 1.07 0 0 0-.41.08 1.17 1.17 0 0 0-.43.72 2.16 2.16 0 0 0-.08.24.72.72 0 0 1-.7.52.7.7 0 0 1-.25-.05.58.58 0 0 1-.45-.61.85.85 0 0 1 .15-.48 2.62 2.62 0 0 1 2.28-.79 4.32 4.32 0 0 1 .74.07 2 2 0 0 1 1.71 2.15v3c0 .45.1.68.32.7s.44-.34.5-1h.36a3.89 3.89 0 0 1-.09.67 1.14 1.14 0 0 1-1.23.79c-.74.01-1.18-.42-1.33-1.26zm-1 .6a1.66 1.66 0 0 0 .89-1.25v-1.27a4.42 4.42 0 0 0-1.14.14 1.15 1.15 0 0 0-1 1.2v.14c0 .75.32 1.13.84 1.13a.87.87 0 0 0 .43-.09zM432.75 287.28a3 3 0 0 1 2.45-1.1 3.33 3.33 0 0 1 1.71.42 1.31 1.31 0 0 1 .76 1.1 1.83 1.83 0 0 1 0 .21.73.73 0 0 1-.79.49.92.92 0 0 1-.46-.13 1.14 1.14 0 0 1-.33-.78 3.41 3.41 0 0 0-.06-.38.75.75 0 0 0-.81-.58h-.32c-.76.18-1.13 1.12-1.13 2.84s.56 2.7 1.66 2.72a2.24 2.24 0 0 0 2-1.24l.37.1a2.17 2.17 0 0 1-.37.62 2.71 2.71 0 0 1-2.22.93 3.48 3.48 0 0 1-1.7-.41 2.85 2.85 0 0 1-1.44-2.72 3.27 3.27 0 0 1 .68-2.09z" fill="#fff"/><path fill="#a5802a" d="M245.25 294.45h26.79v1.24h-26.79zM272 292.12h-9.51l.78-1a5.89 5.89 0 1 0-10.55-3.6 5.79 5.79 0 0 0 1.23 3.6l.77 1h-9.51v-1.24h7.1a7.14 7.14 0 1 1 12.59 0h7.1z"/><path d="M249.27 320.76a3.92 3.92 0 0 1-1.84.39 3 3 0 0 1-2.29-.92 3.42 3.42 0 0 1-.85-2.42 3.58 3.58 0 0 1 1-2.6 3.27 3.27 0 0 1 2.45-1 4 4 0 0 1 1.57.27v.84a3.17 3.17 0 0 0-1.58-.4 2.45 2.45 0 0 0-1.87.77 2.9 2.9 0 0 0-.71 2.06 2.78 2.78 0 0 0 .67 2 2.27 2.27 0 0 0 1.75.72 3.36 3.36 0 0 0 1.74-.44zM254.6 321h-.76v-2.76q0-1.5-1.11-1.5a1.23 1.23 0 0 0-.94.43 1.6 1.6 0 0 0-.38 1.12V321h-.77v-7h.77v3a1.72 1.72 0 0 1 1.56-.9c1.08 0 1.61.65 1.61 1.95zM260 318.84h-3.37a1.79 1.79 0 0 0 .43 1.23 1.48 1.48 0 0 0 1.13.44 2.31 2.31 0 0 0 1.48-.54v.72a2.72 2.72 0 0 1-1.66.46 2 2 0 0 1-1.59-.65 2.67 2.67 0 0 1-.58-1.84 2.63 2.63 0 0 1 .63-1.82 2 2 0 0 1 1.57-.7 1.81 1.81 0 0 1 1.45.6 2.56 2.56 0 0 1 .51 1.69zm-.78-.65a1.61 1.61 0 0 0-.32-1 1.07 1.07 0 0 0-.87-.37 1.23 1.23 0 0 0-.92.39 1.8 1.8 0 0 0-.47 1zM264.51 320.82a2.46 2.46 0 0 1-1.3.33 2.15 2.15 0 0 1-1.65-.67 2.4 2.4 0 0 1-.63-1.72 2.69 2.69 0 0 1 .68-1.91 2.38 2.38 0 0 1 1.8-.71 2.45 2.45 0 0 1 1.11.23v.79a1.93 1.93 0 0 0-1.14-.38 1.56 1.56 0 0 0-1.2.53 2 2 0 0 0-.46 1.38 1.89 1.89 0 0 0 .44 1.33 1.52 1.52 0 0 0 1.18.49 1.89 1.89 0 0 0 1.17-.42zM269.74 321h-1.07l-2.11-2.3v2.3h-.77v-7h.77v4.49l2-2.19h1l-2.21 2.31zM277.16 316.25l-2.16 5.56c-.39 1-.94 1.48-1.65 1.48a1.75 1.75 0 0 1-.5-.06v-.69a1.38 1.38 0 0 0 .45.09.93.93 0 0 0 .87-.69l.38-.91-1.86-4.78h.85l1.29 3.68.09.37.1-.36 1.35-3.69zM280 321.15a2.19 2.19 0 0 1-1.68-.67 2.46 2.46 0 0 1-.64-1.78 2.62 2.62 0 0 1 .66-1.89 2.37 2.37 0 0 1 1.78-.67 2.13 2.13 0 0 1 1.66.66 2.61 2.61 0 0 1 .6 1.82 2.58 2.58 0 0 1-.65 1.84 2.24 2.24 0 0 1-1.73.69zm.06-4.37a1.45 1.45 0 0 0-1.16.5 2.06 2.06 0 0 0-.43 1.39 1.93 1.93 0 0 0 .43 1.34 1.48 1.48 0 0 0 1.16.5 1.42 1.42 0 0 0 1.14-.49 2.11 2.11 0 0 0 .4-1.37 2.14 2.14 0 0 0-.4-1.38 1.39 1.39 0 0 0-1.1-.49zM287.61 321h-.76v-.76a1.57 1.57 0 0 1-1.47.87q-1.71 0-1.71-2v-2.86h.76V319c0 1 .39 1.52 1.16 1.52a1.16 1.16 0 0 0 .92-.42 1.58 1.58 0 0 0 .36-1.08v-2.76h.76zM291.76 317a.91.91 0 0 0-.58-.16 1 1 0 0 0-.82.46 2.15 2.15 0 0 0-.33 1.27V321h-.76v-4.79h.73v1a1.71 1.71 0 0 1 .5-.79 1.12 1.12 0 0 1 .75-.29 1.35 1.35 0 0 1 .46.07zM299.5 321h-.76v-.82a1.92 1.92 0 0 1-3.08.29 2.65 2.65 0 0 1-.54-1.75 2.87 2.87 0 0 1 .6-1.91 2 2 0 0 1 1.59-.71 1.54 1.54 0 0 1 1.43.77v-3h.76zm-.76-2.17v-.7a1.37 1.37 0 0 0-.39-1 1.29 1.29 0 0 0-1-.4 1.32 1.32 0 0 0-1.1.52 2.28 2.28 0 0 0-.4 1.42 2 2 0 0 0 .39 1.31 1.24 1.24 0 0 0 1 .48 1.31 1.31 0 0 0 1-.47 1.76 1.76 0 0 0 .5-1.12zM304.57 321h-.76v-.75a1.73 1.73 0 0 1-2.58.48 1.3 1.3 0 0 1-.4-1c0-.9.52-1.42 1.57-1.57l1.43-.2c0-.81-.33-1.22-1-1.22a2.37 2.37 0 0 0-1.56.59v-.78a3 3 0 0 1 1.62-.45c1.12 0 1.68.59 1.68 1.78zm-.76-2.42l-1.15.15a1.82 1.82 0 0 0-.8.27.76.76 0 0 0-.27.67.72.72 0 0 0 .25.57 1 1 0 0 0 .66.23 1.23 1.23 0 0 0 .94-.41 1.4 1.4 0 0 0 .37-1zM306.52 315a.46.46 0 0 1-.35-.14.45.45 0 0 1-.14-.35.45.45 0 0 1 .14-.36.46.46 0 0 1 .35-.14.48.48 0 0 1 .36.14.49.49 0 0 1 .14.36.52.52 0 0 1-.14.35.52.52 0 0 1-.36.14zm.37 6h-.76v-4.79h.76zM309.32 321h-.77v-7h.77zM314.78 316.25l-2.2 5.56c-.39 1-.94 1.48-1.65 1.48a1.8 1.8 0 0 1-.5-.06v-.69a1.38 1.38 0 0 0 .46.09.93.93 0 0 0 .86-.69l.38-.91-1.86-4.78h.85l1.29 3.68c0 .05 0 .17.1.37l.1-.36 1.35-3.69zM322.3 321h-.77v-.76a1.56 1.56 0 0 1-1.47.87c-1.14 0-1.7-.68-1.7-2v-2.86h.75V319c0 1 .39 1.52 1.16 1.52a1.16 1.16 0 0 0 .92-.42 1.58 1.58 0 0 0 .36-1.08v-2.76h.77zM324.73 320.35v2.89H324v-7h.76v.84a1.8 1.8 0 0 1 1.65-.95 1.73 1.73 0 0 1 1.44.64 2.63 2.63 0 0 1 .52 1.72 3 3 0 0 1-.58 1.93 2 2 0 0 1-1.6.72 1.62 1.62 0 0 1-1.46-.79zm0-1.94v.67a1.4 1.4 0 0 0 .39 1 1.27 1.27 0 0 0 1 .42 1.26 1.26 0 0 0 1.08-.54 2.39 2.39 0 0 0 .4-1.48 2 2 0 0 0-.37-1.25 1.21 1.21 0 0 0-1-.46 1.36 1.36 0 0 0-1.07.47 1.71 1.71 0 0 0-.45 1.17zM333.75 321H333v-.82a1.91 1.91 0 0 1-3.07.29 2.65 2.65 0 0 1-.54-1.75 2.93 2.93 0 0 1 .59-1.91 2 2 0 0 1 1.59-.71 1.52 1.52 0 0 1 1.43.77v-3h.77zm-.77-2.17v-.7a1.41 1.41 0 0 0-.38-1 1.32 1.32 0 0 0-1-.4 1.3 1.3 0 0 0-1.1.52 2.22 2.22 0 0 0-.4 1.42 2 2 0 0 0 .39 1.31 1.24 1.24 0 0 0 1 .48 1.29 1.29 0 0 0 1-.47 1.71 1.71 0 0 0 .51-1.12zM338.82 321h-.76v-.75a1.6 1.6 0 0 1-1.47.86 1.56 1.56 0 0 1-1.11-.38 1.31 1.31 0 0 1-.41-1c0-.9.53-1.42 1.58-1.57l1.43-.2c0-.81-.33-1.22-1-1.22a2.35 2.35 0 0 0-1.55.59v-.78a3 3 0 0 1 1.62-.45c1.12 0 1.68.59 1.68 1.78zm-.76-2.42l-1.15.15a1.78 1.78 0 0 0-.8.27.76.76 0 0 0-.27.67.75.75 0 0 0 .24.57 1 1 0 0 0 .67.23 1.23 1.23 0 0 0 .94-.41 1.44 1.44 0 0 0 .37-1zM342.59 321a1.47 1.47 0 0 1-.71.15c-.84 0-1.26-.47-1.26-1.4v-2.85h-.82v-.65h.82v-1.17l.77-.25v1.42h1.2v.65h-1.2v2.7a1.13 1.13 0 0 0 .16.69.65.65 0 0 0 .54.21.85.85 0 0 0 .5-.16zM347.48 318.84h-3.37a1.84 1.84 0 0 0 .43 1.23 1.49 1.49 0 0 0 1.13.44 2.31 2.31 0 0 0 1.48-.54v.72a2.72 2.72 0 0 1-1.66.46 2 2 0 0 1-1.59-.65 2.67 2.67 0 0 1-.58-1.84 2.63 2.63 0 0 1 .63-1.82 2 2 0 0 1 1.57-.7 1.79 1.79 0 0 1 1.45.6 2.56 2.56 0 0 1 .51 1.69zm-.78-.65a1.56 1.56 0 0 0-.32-1 1.07 1.07 0 0 0-.87-.37 1.23 1.23 0 0 0-.92.39 1.8 1.8 0 0 0-.47 1zM354.89 321h-.76v-.75a1.6 1.6 0 0 1-1.47.86 1.57 1.57 0 0 1-1.11-.38 1.3 1.3 0 0 1-.4-1c0-.9.52-1.42 1.57-1.57l1.43-.2c0-.81-.33-1.22-1-1.22a2.35 2.35 0 0 0-1.56.59v-.78a3 3 0 0 1 1.62-.45c1.12 0 1.68.59 1.68 1.78zm-.76-2.42l-1.15.15a1.82 1.82 0 0 0-.8.27.76.76 0 0 0-.27.67.72.72 0 0 0 .25.57.93.93 0 0 0 .66.23 1.23 1.23 0 0 0 .94-.41 1.4 1.4 0 0 0 .37-1zM357.23 320.35v.65h-.76v-7h.76v3.14a1.8 1.8 0 0 1 1.65-.95 1.75 1.75 0 0 1 1.44.64 2.69 2.69 0 0 1 .52 1.72 3 3 0 0 1-.59 1.93 1.91 1.91 0 0 1-1.59.72 1.57 1.57 0 0 1-1.43-.85zm0-1.94v.67a1.4 1.4 0 0 0 .39 1 1.25 1.25 0 0 0 1 .42 1.26 1.26 0 0 0 1.09-.54 2.46 2.46 0 0 0 .39-1.48 2 2 0 0 0-.36-1.25 1.21 1.21 0 0 0-1-.46 1.36 1.36 0 0 0-1.07.47 1.71 1.71 0 0 0-.46 1.17zM364.17 321.15a2.19 2.19 0 0 1-1.69-.67 2.5 2.5 0 0 1-.63-1.78 2.62 2.62 0 0 1 .65-1.89 2.37 2.37 0 0 1 1.78-.67 2.13 2.13 0 0 1 1.66.66 2.61 2.61 0 0 1 .6 1.82 2.58 2.58 0 0 1-.64 1.84 2.26 2.26 0 0 1-1.73.69zm.05-4.37a1.45 1.45 0 0 0-1.16.5 2.06 2.06 0 0 0-.43 1.39 1.93 1.93 0 0 0 .43 1.34 1.48 1.48 0 0 0 1.16.5 1.42 1.42 0 0 0 1.14-.49 2.05 2.05 0 0 0 .4-1.37 2.08 2.08 0 0 0-.4-1.38 1.39 1.39 0 0 0-1.14-.49zM371.73 321H371v-.76a1.57 1.57 0 0 1-1.47.87q-1.71 0-1.71-2v-2.86h.76V319c0 1 .39 1.52 1.16 1.52a1.16 1.16 0 0 0 .92-.42 1.58 1.58 0 0 0 .34-1.1v-2.76h.76zM375.6 321a1.47 1.47 0 0 1-.71.15c-.84 0-1.25-.47-1.25-1.4v-2.85h-.82v-.65h.82v-1.17l.76-.25v1.42h1.2v.65h-1.2v2.7a1.13 1.13 0 0 0 .16.69.65.65 0 0 0 .54.21.83.83 0 0 0 .5-.16zM381.68 321a1.48 1.48 0 0 1-.72.15c-.83 0-1.25-.47-1.25-1.4v-2.85h-.82v-.65h.82v-1.17l.77-.25v1.42h1.2v.65h-1.2v2.7a1.13 1.13 0 0 0 .16.69.65.65 0 0 0 .54.21.85.85 0 0 0 .5-.16zM386.77 321H386v-2.76q0-1.5-1.11-1.5a1.23 1.23 0 0 0-.94.43 1.6 1.6 0 0 0-.38 1.12V321h-.77v-7h.77v3a1.74 1.74 0 0 1 1.57-.9c1.07 0 1.61.65 1.61 1.95zM392.16 318.84h-3.37a1.79 1.79 0 0 0 .43 1.23 1.48 1.48 0 0 0 1.13.44 2.33 2.33 0 0 0 1.48-.54v.72a2.74 2.74 0 0 1-1.66.46 2 2 0 0 1-1.59-.65 2.67 2.67 0 0 1-.58-1.84 2.63 2.63 0 0 1 .63-1.82 2 2 0 0 1 1.57-.7 1.82 1.82 0 0 1 1.45.6 2.56 2.56 0 0 1 .51 1.69zm-.78-.65a1.61 1.61 0 0 0-.32-1 1.08 1.08 0 0 0-.88-.37 1.21 1.21 0 0 0-.91.39 1.74 1.74 0 0 0-.47 1zM396.94 320.35v2.89h-.76v-7h.76v.84a1.78 1.78 0 0 1 1.65-.95 1.75 1.75 0 0 1 1.44.64 2.69 2.69 0 0 1 .51 1.72 3 3 0 0 1-.58 1.93 1.94 1.94 0 0 1-1.59.72 1.59 1.59 0 0 1-1.43-.79zm0-1.94v.67a1.44 1.44 0 0 0 .38 1 1.36 1.36 0 0 0 2.07-.12 2.46 2.46 0 0 0 .39-1.48 1.9 1.9 0 0 0-.37-1.25 1.18 1.18 0 0 0-1-.46 1.34 1.34 0 0 0-1.07.47 1.71 1.71 0 0 0-.42 1.17zM402.64 321h-.76v-7h.76zM407.72 321H407v-.75a1.61 1.61 0 0 1-1.47.86 1.58 1.58 0 0 1-1.12-.38 1.34 1.34 0 0 1-.4-1c0-.9.53-1.42 1.58-1.57L407 318c0-.81-.33-1.22-1-1.22a2.35 2.35 0 0 0-1.55.59v-.78a3 3 0 0 1 1.62-.45c1.12 0 1.68.59 1.68 1.78zm-.76-2.42l-1.16.15a1.82 1.82 0 0 0-.8.27.87.87 0 0 0 0 1.24 1 1 0 0 0 .67.23 1.23 1.23 0 0 0 .94-.41 1.44 1.44 0 0 0 .37-1zM413.23 321h-.76v-2.73q0-1.53-1.11-1.53a1.23 1.23 0 0 0-.95.43 1.63 1.63 0 0 0-.37 1.1V321h-.77v-4.79h.73v.79a1.72 1.72 0 0 1 1.56-.9 1.49 1.49 0 0 1 1.2.5 2.32 2.32 0 0 1 .41 1.47zM418.62 318.84h-3.37a1.79 1.79 0 0 0 .43 1.23 1.48 1.48 0 0 0 1.13.44 2.31 2.31 0 0 0 1.48-.54v.72a2.72 2.72 0 0 1-1.66.46 2 2 0 0 1-1.59-.65 2.67 2.67 0 0 1-.58-1.84 2.63 2.63 0 0 1 .63-1.82 2 2 0 0 1 1.57-.7 1.81 1.81 0 0 1 1.45.6 2.56 2.56 0 0 1 .51 1.69zm-.78-.65a1.61 1.61 0 0 0-.32-1 1.07 1.07 0 0 0-.87-.37 1.23 1.23 0 0 0-.92.39 1.8 1.8 0 0 0-.47 1zM422.1 321a1.44 1.44 0 0 1-.71.15c-.84 0-1.25-.47-1.25-1.4v-2.85h-.82v-.65h.82v-1.17l.76-.25v1.42h1.2v.65h-1.2v2.7a1.21 1.21 0 0 0 .16.69.65.65 0 0 0 .54.21.83.83 0 0 0 .5-.16zM423 320.87V320a2.23 2.23 0 0 0 1.37.47c.67 0 1-.23 1-.68a.55.55 0 0 0-.09-.32.75.75 0 0 0-.23-.24 1.56 1.56 0 0 0-.34-.18l-.43-.18a4.24 4.24 0 0 1-.56-.25 1.79 1.79 0 0 1-.4-.29 1 1 0 0 1-.32-.33 1.34 1.34 0 0 1-.08-.48 1.21 1.21 0 0 1 .15-.6 1.4 1.4 0 0 1 .41-.43 1.66 1.66 0 0 1 .59-.26 2.52 2.52 0 0 1 .67-.09 2.75 2.75 0 0 1 1.11.21v.78a2.15 2.15 0 0 0-1.21-.35 1.6 1.6 0 0 0-.39.05.87.87 0 0 0-.29.14.63.63 0 0 0-.19.21.53.53 0 0 0-.07.28.62.62 0 0 0 .07.31.59.59 0 0 0 .2.22 1.15 1.15 0 0 0 .31.18l.43.17.57.25a2.37 2.37 0 0 1 .42.29 1.29 1.29 0 0 1 .28.38 1.24 1.24 0 0 1 .09.5 1.2 1.2 0 0 1-.15.61 1.47 1.47 0 0 1-.42.44 2.32 2.32 0 0 1-.6.26 3.36 3.36 0 0 1-.71.08 2.69 2.69 0 0 1-1.19-.28zM428.34 314.22l-.65 2.08h-.55l.52-2.08zM245.4 331.84v2.9h-.77v-7h.77v.84a1.82 1.82 0 0 1 1.65-.95 1.75 1.75 0 0 1 1.44.64A2.66 2.66 0 0 1 249 330a3 3 0 0 1-.58 1.92 2 2 0 0 1-1.6.72 1.6 1.6 0 0 1-1.42-.8zm0-1.93v.67a1.43 1.43 0 0 0 .38 1 1.3 1.3 0 0 0 1 .41 1.27 1.27 0 0 0 1.08-.53 2.42 2.42 0 0 0 .4-1.49 2 2 0 0 0-.37-1.25 1.23 1.23 0 0 0-1-.45 1.35 1.35 0 0 0-1.07.46 1.71 1.71 0 0 0-.43 1.18zM252.34 332.64a2.19 2.19 0 0 1-1.69-.67 2.48 2.48 0 0 1-.63-1.78 2.58 2.58 0 0 1 .66-1.88 2.35 2.35 0 0 1 1.77-.68 2.15 2.15 0 0 1 1.67.66 2.62 2.62 0 0 1 .59 1.83 2.57 2.57 0 0 1-.64 1.83 2.26 2.26 0 0 1-1.73.69zm0-4.36a1.43 1.43 0 0 0-1.16.5 2 2 0 0 0-.43 1.39 2 2 0 0 0 .44 1.34 1.43 1.43 0 0 0 1.15.49 1.38 1.38 0 0 0 1.14-.48 2.07 2.07 0 0 0 .4-1.37 2.13 2.13 0 0 0-.4-1.39 1.38 1.38 0 0 0-1.09-.48zM255.76 332.36v-.82a2.25 2.25 0 0 0 1.38.46c.67 0 1-.23 1-.67a.67.67 0 0 0-.08-.33.91.91 0 0 0-.24-.24 2.16 2.16 0 0 0-.34-.18l-.43-.17a6 6 0 0 1-.56-.26 1.53 1.53 0 0 1-.4-.29 1.26 1.26 0 0 1-.24-.36 1.42 1.42 0 0 1-.08-.48 1.16 1.16 0 0 1 .15-.6 1.56 1.56 0 0 1 .41-.44 2.11 2.11 0 0 1 .59-.26 2.54 2.54 0 0 1 .68-.09 2.57 2.57 0 0 1 1.1.22v.77a2.14 2.14 0 0 0-1.21-.34 1.13 1.13 0 0 0-.38.05.83.83 0 0 0-.3.13.67.67 0 0 0-.19.22.6.6 0 0 0-.07.27.71.71 0 0 0 .07.31.72.72 0 0 0 .2.23 2.28 2.28 0 0 0 .32.18l.42.17a5.12 5.12 0 0 1 .57.25 1.91 1.91 0 0 1 .43.29 1.41 1.41 0 0 1 .27.37 1.28 1.28 0 0 1 .09.5 1.24 1.24 0 0 1-.15.62 1.44 1.44 0 0 1-.42.43 1.82 1.82 0 0 1-.6.26 2.76 2.76 0 0 1-.71.08 2.72 2.72 0 0 1-1.28-.28zM262.42 332.49a1.44 1.44 0 0 1-.71.15c-.83 0-1.25-.47-1.25-1.41v-2.83h-.82v-.66h.82v-1.17l.76-.24v1.41h1.2v.66h-1.2v2.7a1.07 1.07 0 0 0 .17.68.62.62 0 0 0 .54.21.74.74 0 0 0 .49-.16zM264 326.53a.5.5 0 0 1-.35-.14.53.53 0 0 1 0-.72.5.5 0 0 1 .35-.14.52.52 0 0 1 .36.14.48.48 0 0 1 .14.36.45.45 0 0 1-.14.35.49.49 0 0 1-.36.15zm.37 6h-.76v-4.79h.76zM268 332.64a2.19 2.19 0 0 1-1.69-.67 2.48 2.48 0 0 1-.63-1.78 2.58 2.58 0 0 1 .66-1.88 2.34 2.34 0 0 1 1.77-.68 2.15 2.15 0 0 1 1.67.66 2.67 2.67 0 0 1 .59 1.83 2.57 2.57 0 0 1-.64 1.83 2.26 2.26 0 0 1-1.73.69zm0-4.36a1.43 1.43 0 0 0-1.16.5 2 2 0 0 0-.43 1.39 2 2 0 0 0 .43 1.34 1.47 1.47 0 0 0 1.16.49 1.38 1.38 0 0 0 1.14-.48 2.07 2.07 0 0 0 .4-1.37 2.13 2.13 0 0 0-.4-1.39 1.38 1.38 0 0 0-1.14-.48zM275.65 332.53h-.77v-2.73c0-1-.36-1.52-1.1-1.52a1.19 1.19 0 0 0-.95.43 1.61 1.61 0 0 0-.38 1.09v2.73h-.76v-4.79h.76v.8a1.71 1.71 0 0 1 1.57-.91 1.43 1.43 0 0 1 1.19.51 2.25 2.25 0 0 1 .42 1.46zM277.59 326.53a.52.52 0 0 1-.35-.14.53.53 0 0 1 0-.72.52.52 0 0 1 .35-.14.52.52 0 0 1 .36.14.49.49 0 0 1 .15.36.45.45 0 0 1-.15.35.49.49 0 0 1-.36.15zm.38 6h-.77v-4.79h.8zM283.59 332.53h-.77v-2.73c0-1-.37-1.52-1.11-1.52a1.18 1.18 0 0 0-.94.43 1.61 1.61 0 0 0-.38 1.09v2.73h-.76v-4.79h.76v.8a1.71 1.71 0 0 1 1.57-.91 1.43 1.43 0 0 1 1.19.51 2.25 2.25 0 0 1 .42 1.46zM289.21 332.15c0 1.76-.84 2.64-2.51 2.64a3.44 3.44 0 0 1-1.55-.34v-.77a3.17 3.17 0 0 0 1.54.45c1.17 0 1.76-.62 1.76-1.88v-.52a1.94 1.94 0 0 1-3.07.28 2.59 2.59 0 0 1-.54-1.72 3 3 0 0 1 .58-1.94 2 2 0 0 1 1.6-.72 1.55 1.55 0 0 1 1.43.78v-.67h.76zm-.76-1.78v-.71a1.37 1.37 0 0 0-.39-1 1.24 1.24 0 0 0-.95-.4 1.34 1.34 0 0 0-1.11.51 2.31 2.31 0 0 0-.4 1.45 2 2 0 0 0 .38 1.28 1.25 1.25 0 0 0 1 .48 1.32 1.32 0 0 0 1.05-.46 1.75 1.75 0 0 0 .42-1.15zM299.56 332.64a1.23 1.23 0 0 1-.84-.28 2.54 2.54 0 0 1-.34-.32c-.1-.13-.22-.28-.33-.44a2.78 2.78 0 0 1-.44.39 2.88 2.88 0 0 1-.54.33 2.63 2.63 0 0 1-.65.23 3.13 3.13 0 0 1-.77.09 3 3 0 0 1-.92-.13 1.89 1.89 0 0 1-.72-.37 1.61 1.61 0 0 1-.46-.6 2 2 0 0 1-.17-.83 1.87 1.87 0 0 1 .41-1.22 3 3 0 0 1 1.14-.84 1.9 1.9 0 0 1-.28-.24 2 2 0 0 1-.25-.31 1.71 1.71 0 0 1-.17-.39 1.35 1.35 0 0 1-.07-.46 1.53 1.53 0 0 1 .13-.66 1.35 1.35 0 0 1 .37-.48 1.62 1.62 0 0 1 .55-.3 2.48 2.48 0 0 1 .68-.1 2.3 2.3 0 0 1 .67.1 1.58 1.58 0 0 1 .51.29 1.34 1.34 0 0 1 .34.45 1.41 1.41 0 0 1 .12.59 1.35 1.35 0 0 1-.32.93 2.39 2.39 0 0 1-.95.63 3.56 3.56 0 0 1 .58.31 4 4 0 0 1 .89.89c.13.17.26.35.38.53a4 4 0 0 0 .57-1.16 4.57 4.57 0 0 0 .19-1.34v-.33c0-.1 0-.21-.06-.31h.74a1.6 1.6 0 0 1 .05.29v.33a4.19 4.19 0 0 1-.09.86 5.47 5.47 0 0 1-.58 1.6 5.46 5.46 0 0 1-.42.67l.3.39a2.42 2.42 0 0 0 .27.28 1.22 1.22 0 0 0 .29.17 1.09 1.09 0 0 0 .33.05.9.9 0 0 0 .28 0l.3-.09v.71a2 2 0 0 1-.35.1zm-3.91-.66a2.63 2.63 0 0 0 .65-.08 2.25 2.25 0 0 0 .55-.21 2 2 0 0 0 .46-.3 3.11 3.11 0 0 0 .37-.35c-.19-.3-.36-.55-.52-.76a3.82 3.82 0 0 0-.49-.55 2.83 2.83 0 0 0-.52-.39 4.79 4.79 0 0 0-.64-.31c-.19.08-.37.17-.54.26a2.08 2.08 0 0 0-.43.34 1.71 1.71 0 0 0-.28.45 1.57 1.57 0 0 0-.1.6 1.29 1.29 0 0 0 .12.57 1 1 0 0 0 .32.4 1.23 1.23 0 0 0 .47.24 1.81 1.81 0 0 0 .58.11zm1.17-4.78a.82.82 0 0 0-.09-.4.84.84 0 0 0-.22-.27 1.08 1.08 0 0 0-.3-.16 1.12 1.12 0 0 0-.32 0 1.09 1.09 0 0 0-.73.24.88.88 0 0 0-.27.68 1 1 0 0 0 .06.36 1 1 0 0 0 .16.31 1.48 1.48 0 0 0 .24.26 2.49 2.49 0 0 0 .3.19 2.65 2.65 0 0 0 .88-.48.91.91 0 0 0 .29-.73zM308 332.53h-.77v-2.76c0-1-.37-1.49-1.1-1.49a1.21 1.21 0 0 0-.95.43 1.64 1.64 0 0 0-.38 1.11v2.71h-.76v-7.09h.76v3.1a1.73 1.73 0 0 1 1.57-.91c1.07 0 1.61.65 1.61 1.95zM311.59 332.64a2.19 2.19 0 0 1-1.69-.67 2.48 2.48 0 0 1-.63-1.78 2.58 2.58 0 0 1 .65-1.88 2.37 2.37 0 0 1 1.78-.68 2.13 2.13 0 0 1 1.66.66 2.62 2.62 0 0 1 .6 1.83 2.57 2.57 0 0 1-.64 1.83 2.26 2.26 0 0 1-1.73.69zm.05-4.36a1.42 1.42 0 0 0-1.16.5 2 2 0 0 0-.43 1.39 2 2 0 0 0 .43 1.34 1.47 1.47 0 0 0 1.16.49 1.4 1.4 0 0 0 1.14-.48 2.07 2.07 0 0 0 .4-1.37 2.13 2.13 0 0 0-.4-1.39 1.4 1.4 0 0 0-1.14-.48zM321.31 327.74l-1.43 4.79h-.8l-1-3.43a1.93 1.93 0 0 1-.07-.44 1.83 1.83 0 0 1-.1.43l-1.07 3.44h-.76l-1.45-4.79h.81l1 3.6a2.14 2.14 0 0 1 .07.43 2 2 0 0 1 .08-.44l1.1-3.59h.7l1 3.61a3.51 3.51 0 0 1 .07.43 3.11 3.11 0 0 1 .08-.43l1-3.61zM327.25 332.49a1.48 1.48 0 0 1-.72.15c-.83 0-1.25-.47-1.25-1.41v-2.83h-.82v-.66h.82v-1.17l.76-.24v1.41h1.21v.66H326v2.7a1.07 1.07 0 0 0 .17.68.65.65 0 0 0 .54.21.79.79 0 0 0 .5-.16zM332.34 332.53h-.76v-2.76c0-1-.37-1.49-1.11-1.49a1.18 1.18 0 0 0-.94.43 1.6 1.6 0 0 0-.39 1.11v2.71h-.76v-7.09h.76v3.1a1.73 1.73 0 0 1 1.57-.91c1.07 0 1.61.65 1.61 1.95zM337.73 330.33h-3.37a1.75 1.75 0 0 0 .43 1.23 1.48 1.48 0 0 0 1.13.44 2.38 2.38 0 0 0 1.48-.53v.72a2.82 2.82 0 0 1-1.67.45 2 2 0 0 1-1.58-.65 3.07 3.07 0 0 1 .05-3.66 2 2 0 0 1 1.57-.7 1.8 1.8 0 0 1 1.45.61 2.55 2.55 0 0 1 .51 1.69zm-.79-.65a1.53 1.53 0 0 0-.31-1 1.08 1.08 0 0 0-.88-.37 1.28 1.28 0 0 0-.92.38 1.79 1.79 0 0 0-.46 1zM342.79 327.74l-2.19 5.56c-.39 1-.94 1.49-1.65 1.49a1.8 1.8 0 0 1-.5-.06V334a1.65 1.65 0 0 0 .45.08.93.93 0 0 0 .87-.69l.38-.91-1.86-4.78h.85l1.29 3.69c0 .05.05.17.1.36 0-.07.05-.19.1-.35l1.35-3.7zM349.71 332.31a2.5 2.5 0 0 1-1.31.33 2.14 2.14 0 0 1-1.64-.66 2.42 2.42 0 0 1-.63-1.73 2.66 2.66 0 0 1 .68-1.9 2.35 2.35 0 0 1 1.8-.72 2.59 2.59 0 0 1 1.11.23v.79a2 2 0 0 0-1.14-.37 1.53 1.53 0 0 0-1.2.52 2 2 0 0 0-.47 1.38 1.9 1.9 0 0 0 .44 1.33 1.51 1.51 0 0 0 1.18.49 1.92 1.92 0 0 0 1.18-.42zM354.39 332.53h-.76v-.75a1.58 1.58 0 0 1-1.47.86 1.55 1.55 0 0 1-1.11-.37 1.33 1.33 0 0 1-.41-1c0-.89.53-1.42 1.58-1.56l1.43-.2c0-.82-.33-1.22-1-1.22a2.3 2.3 0 0 0-1.56.59v-.79a3 3 0 0 1 1.62-.45c1.12 0 1.68.6 1.68 1.79zm-.76-2.42l-1.15.16a1.92 1.92 0 0 0-.8.26.77.77 0 0 0-.27.67.73.73 0 0 0 .25.58.92.92 0 0 0 .66.22 1.22 1.22 0 0 0 .94-.4 1.46 1.46 0 0 0 .37-1zM359.91 332.53h-.77v-2.73c0-1-.37-1.52-1.11-1.52a1.18 1.18 0 0 0-.94.43 1.61 1.61 0 0 0-.38 1.09v2.73H356v-4.79h.76v.8a1.71 1.71 0 0 1 1.56-.91 1.45 1.45 0 0 1 1.2.51 2.25 2.25 0 0 1 .42 1.46zM367.6 332.53h-.76v-.75a1.58 1.58 0 0 1-1.47.86 1.55 1.55 0 0 1-1.11-.37 1.33 1.33 0 0 1-.41-1c0-.89.53-1.42 1.58-1.56l1.43-.2c0-.82-.33-1.22-1-1.22a2.3 2.3 0 0 0-1.56.59v-.79a3 3 0 0 1 1.62-.45c1.12 0 1.68.6 1.68 1.79zm-.76-2.42l-1.15.16a1.92 1.92 0 0 0-.8.26.77.77 0 0 0-.27.67.73.73 0 0 0 .25.58.92.92 0 0 0 .66.22 1.22 1.22 0 0 0 .94-.4 1.46 1.46 0 0 0 .37-1zM371.51 326.12a1 1 0 0 0-.5-.13c-.54 0-.81.34-.81 1v.74h1.12v.66h-1.12v4.13h-.76v-4.12h-.81v-.66h.81V327a1.6 1.6 0 0 1 .44-1.19 1.43 1.43 0 0 1 1.08-.44 1.6 1.6 0 0 1 .55.08zM374.61 326.12a.93.93 0 0 0-.5-.13c-.54 0-.81.34-.81 1v.74h1.12v.66h-1.12v4.13h-.75v-4.12h-.82v-.66h.82V327a1.6 1.6 0 0 1 .43-1.19 1.43 1.43 0 0 1 1.08-.44 1.6 1.6 0 0 1 .55.08zM379.19 330.33h-3.37a1.79 1.79 0 0 0 .43 1.23 1.48 1.48 0 0 0 1.13.44 2.36 2.36 0 0 0 1.48-.53v.72a2.79 2.79 0 0 1-1.66.45 2 2 0 0 1-1.59-.65 3.07 3.07 0 0 1 .05-3.66 2.06 2.06 0 0 1 1.57-.7 1.78 1.78 0 0 1 1.45.61 2.55 2.55 0 0 1 .51 1.69zm-.78-.65a1.58 1.58 0 0 0-.32-1 1.07 1.07 0 0 0-.87-.37 1.26 1.26 0 0 0-.92.38 1.8 1.8 0 0 0-.47 1zM383.71 332.31a2.46 2.46 0 0 1-1.3.33 2.18 2.18 0 0 1-1.65-.66 2.42 2.42 0 0 1-.63-1.73 2.66 2.66 0 0 1 .68-1.9 2.35 2.35 0 0 1 1.8-.72 2.59 2.59 0 0 1 1.11.23v.79a1.92 1.92 0 0 0-1.14-.37 1.55 1.55 0 0 0-1.2.52 2 2 0 0 0-.46 1.38 1.86 1.86 0 0 0 .44 1.33 1.48 1.48 0 0 0 1.18.49 1.89 1.89 0 0 0 1.17-.42zM387.19 332.49a1.44 1.44 0 0 1-.71.15c-.83 0-1.25-.47-1.25-1.41v-2.83h-.82v-.66h.82v-1.17l.76-.24v1.41h1.2v.66H386v2.7a1.07 1.07 0 0 0 .17.68.62.62 0 0 0 .54.21.76.76 0 0 0 .49-.16zM394.85 327.74l-2.19 5.56c-.39 1-.94 1.49-1.65 1.49a1.8 1.8 0 0 1-.5-.06V334a1.65 1.65 0 0 0 .45.08.93.93 0 0 0 .87-.69l.38-.91-1.86-4.78h.85l1.29 3.69q0 .07.09.36c0-.07.05-.19.1-.35l1.35-3.7zM397.73 332.64a2.19 2.19 0 0 1-1.68-.67 2.49 2.49 0 0 1-.64-1.78 2.58 2.58 0 0 1 .66-1.88 2.37 2.37 0 0 1 1.78-.68 2.13 2.13 0 0 1 1.66.66 2.62 2.62 0 0 1 .6 1.83 2.57 2.57 0 0 1-.64 1.83 2.27 2.27 0 0 1-1.74.69zm.06-4.36a1.42 1.42 0 0 0-1.16.5 2 2 0 0 0-.43 1.39 2 2 0 0 0 .43 1.34 1.47 1.47 0 0 0 1.16.49 1.41 1.41 0 0 0 1.14-.48 2.07 2.07 0 0 0 .4-1.37 2.13 2.13 0 0 0-.4-1.39 1.41 1.41 0 0 0-1.14-.48zM405.3 332.53h-.76v-.76a1.57 1.57 0 0 1-1.47.87c-1.14 0-1.71-.67-1.71-2v-2.87h.76v2.74c0 1 .39 1.52 1.16 1.52a1.19 1.19 0 0 0 .92-.41 1.61 1.61 0 0 0 .36-1.09v-2.76h.76zM409.45 328.52a1 1 0 0 0-1.4.31 2.14 2.14 0 0 0-.33 1.26v2.44H407v-4.79h.76v1a1.71 1.71 0 0 1 .5-.79 1.11 1.11 0 0 1 .75-.28 1.38 1.38 0 0 1 .46.06zM417.19 332.53h-.76v-.81a1.76 1.76 0 0 1-1.64.92 1.78 1.78 0 0 1-1.44-.64 2.63 2.63 0 0 1-.54-1.75 2.85 2.85 0 0 1 .6-1.9 2 2 0 0 1 1.59-.72 1.53 1.53 0 0 1 1.43.78v-3h.76zm-.76-2.16v-.71a1.35 1.35 0 0 0-.39-1 1.25 1.25 0 0 0-1-.4 1.3 1.3 0 0 0-1.09.51 2.24 2.24 0 0 0-.41 1.42 2 2 0 0 0 .39 1.31 1.26 1.26 0 0 0 1 .48 1.3 1.3 0 0 0 1-.46 1.76 1.76 0 0 0 .5-1.15zM422.27 332.53h-.77v-.75a1.75 1.75 0 0 1-2.58.49 1.33 1.33 0 0 1-.4-1c0-.89.52-1.42 1.57-1.56l1.43-.2c0-.82-.33-1.22-1-1.22a2.32 2.32 0 0 0-1.56.59v-.79a3 3 0 0 1 1.62-.45c1.12 0 1.69.6 1.69 1.79zm-.77-2.42l-1.15.16a2 2 0 0 0-.8.26.77.77 0 0 0-.27.67.73.73 0 0 0 .25.58.94.94 0 0 0 .66.22 1.22 1.22 0 0 0 .94-.4 1.42 1.42 0 0 0 .37-1zM427.62 327.74l-2.2 5.56c-.39 1-.94 1.49-1.65 1.49a1.8 1.8 0 0 1-.5-.06V334a1.65 1.65 0 0 0 .46.08.93.93 0 0 0 .86-.69l.38-.91-1.86-4.78h.89l1.29 3.69c0 .05.05.17.1.36a2.56 2.56 0 0 1 .09-.35l1.35-3.7zM429.13 332.62a.49.49 0 0 1-.36-.15.5.5 0 0 1-.15-.37.49.49 0 0 1 .15-.36.46.46 0 0 1 .36-.16.5.5 0 0 1 .37.16.49.49 0 0 1 .15.36.5.5 0 0 1-.15.37.53.53 0 0 1-.37.15zm.39-6.79l-.08 4.81h-.63l-.09-4.81z" fill="#fff"/></g></svg>