<svg xmlns="http://www.w3.org/2000/svg" viewBox="0 0 990.73 528.4"><defs><clipPath id="a"><path fill="none" d="M619.78-490.86h417.07v354.78H619.78z"/></clipPath></defs><g data-name="Comp 1"><g opacity=".2" fill="#9b8e6e"><path d="M34.1 80.15l2.08 4.89 5.04-1.68-2.53 4.67 4.46 2.89-5.23.94.52 5.29-4-3.51-3.81 3.7.26-5.31-5.28-.67 4.31-3.11-2.76-4.54 5.12 1.43 1.82-4.99zM138.3 62.32l2.08 4.89 5.04-1.68-2.54 4.67 4.46 2.89-5.23.94.52 5.29-3.99-3.51-3.81 3.7.25-5.31-5.27-.67 4.31-3.11-2.77-4.54 5.12 1.43 1.83-4.99zM111.29 165.67l1.54 3.64 3.75-1.25-1.88 3.47 3.31 2.15-3.89.69.39 3.93-2.97-2.61-2.83 2.76.19-3.95-3.92-.5 3.2-2.31-2.05-3.37 3.8 1.06 1.36-3.71zM516.66 477.01l1.55 3.63 3.74-1.25-1.88 3.48 3.31 2.14-3.88.7.38 3.93-2.96-2.61-2.83 2.75.18-3.94-3.91-.5 3.2-2.31-2.06-3.38 3.81 1.07 1.35-3.71zM430.07 340.85l1.54 3.63 3.75-1.25-1.88 3.47 3.31 2.15-3.89.7.39 3.93-2.97-2.61-2.83 2.75.19-3.94-3.92-.5 3.2-2.31-2.05-3.37 3.8 1.06 1.36-3.71zM466.12 158.89l1.55 3.64 3.74-1.25-1.88 3.47 3.31 2.15-3.88.69.38 3.93-2.96-2.61-2.84 2.76.19-3.95-3.92-.5 3.2-2.31-2.05-3.37 3.81 1.06 1.35-3.71zM481.85 172.35l1.54 3.64 3.75-1.25-1.88 3.47 3.31 2.15-3.89.69.39 3.93-2.97-2.6-2.83 2.75.19-3.94-3.92-.5 3.2-2.32-2.05-3.37 3.8 1.06 1.36-3.71zM633.35 227.68l1.54 3.63 3.74-1.25-1.88 3.47 3.32 2.15-3.89.7.39 3.93-2.97-2.61-2.83 2.75.19-3.94-3.92-.5 3.2-2.31-2.05-3.38 3.8 1.06 1.36-3.7zM766.97 175.09l1.54 3.64 3.75-1.25-1.88 3.47 3.31 2.15-3.89.69.39 3.93-2.97-2.6-2.83 2.75.19-3.94-3.92-.5 3.2-2.31-2.05-3.38 3.8 1.06 1.36-3.71zM677.75 267.58l1.54 3.63 3.74-1.25-1.88 3.47 3.32 2.15-3.89.7.38 3.93-2.96-2.61-2.84 2.75.19-3.94-3.91-.5 3.2-2.31-2.06-3.38 3.81 1.06 1.36-3.7zM430.22 249.76l1.54 3.63 3.74-1.25-1.88 3.47 3.32 2.15-3.89.69.39 3.94-2.97-2.61-2.83 2.75.18-3.94-3.91-.5 3.2-2.31-2.05-3.38 3.8 1.06 1.36-3.7zM249.35 144.82l1.55 3.64 3.74-1.25-1.88 3.47 3.31 2.14-3.88.7.38 3.93-2.97-2.61-2.83 2.76.19-3.95-3.92-.5 3.21-2.31-2.06-3.37 3.81 1.06 1.35-3.71zM97.53 343.83l1.54 3.64 3.74-1.26-1.88 3.48 3.32 2.15-3.89.69.38 3.93-2.96-2.61-2.83 2.76.18-3.95-3.91-.5 3.2-2.31-2.06-3.37 3.81 1.06 1.36-3.71zM85.01 287.56l1.54 3.64 3.75-1.25-1.88 3.47 3.31 2.15-3.89.69.39 3.93-2.97-2.6-2.83 2.75.19-3.94-3.92-.5 3.2-2.31-2.05-3.38 3.8 1.06 1.36-3.71zM105.15 301.49l1.54 3.63 3.75-1.25-1.88 3.47 3.31 2.15-3.89.7.39 3.93-2.97-2.61-2.83 2.75.19-3.94-3.92-.5 3.2-2.31-2.05-3.38 3.8 1.06 1.36-3.7zM208.82 220.52l1.54 3.64 3.75-1.25-1.88 3.47 3.31 2.15-3.89.69.39 3.93-2.97-2.6-2.83 2.75.19-3.95-3.92-.49 3.2-2.32-2.05-3.37 3.8 1.06 1.36-3.71zM134.98 287.73l1.54 3.64 3.74-1.26-1.88 3.48 3.32 2.14-3.89.7.38 3.93-2.96-2.61-2.83 2.75.19-3.94-3.92-.5 3.2-2.31-2.06-3.37 3.81 1.06 1.36-3.71zM157.1 75l1.54 3.63 3.75-1.25-1.88 3.47 3.31 2.15-3.88.69.38 3.94-2.97-2.61-2.83 2.75.19-3.94-3.92-.5 3.2-2.31-2.05-3.38 3.81 1.06 1.35-3.7zM276.41 174.69l1.54 3.64 3.75-1.25-1.88 3.47 3.31 2.15-3.88.69.38 3.93-2.96-2.6-2.84 2.75.19-3.95-3.92-.49 3.21-2.32-2.06-3.37 3.81 1.06 1.35-3.71zM366.32 206.38l1.54 3.64 3.75-1.26-1.88 3.48 3.31 2.15-3.89.69.39 3.93-2.97-2.61-2.83 2.76.19-3.95-3.92-.5 3.2-2.31-2.05-3.37 3.8 1.06 1.36-3.71zM363.68 250.58l1.55 3.64 3.74-1.26-1.88 3.48 3.31 2.14-3.88.7.38 3.93-2.96-2.61-2.84 2.76.19-3.95-3.92-.5 3.2-2.31-2.05-3.37 3.81 1.06 1.35-3.71z"/><path d="M94.82 295.24l1.54 3.64 3.75-1.26-1.88 3.48 3.31 2.15-3.89.69.39 3.93-2.97-2.61-2.83 2.75.19-3.94-3.92-.5 3.2-2.31-2.05-3.37 3.8 1.06 1.36-3.71zM421.71 30.93l2.08 4.89 5.04-1.68-2.53 4.67 4.45 2.89-5.23.93.52 5.29-3.99-3.5-3.81 3.7.25-5.31-5.27-.67 4.31-3.11-2.77-4.54 5.12 1.43 1.83-4.99zM615.04 492.51l2.08 4.89 5.04-1.68-2.53 4.67 4.46 2.89-5.23.93.52 5.29-4-3.5-3.81 3.7.26-5.31-5.28-.67 4.31-3.11-2.76-4.54 5.12 1.43 1.82-4.99zM333.47 418.96l2.07 4.89 5.04-1.68-2.53 4.67 4.46 2.89-5.23.94.52 5.28-3.99-3.5-3.82 3.7.26-5.31-5.27-.67 4.3-3.11-2.76-4.54 5.12 1.43 1.83-4.99zM107.01 239.98l2.07 4.89 5.04-1.68-2.53 4.67 4.46 2.89-5.23.94.52 5.28-3.99-3.5-3.81 3.7.25-5.31-5.27-.67 4.31-3.11-2.77-4.54 5.12 1.43 1.83-4.99zM215.66 308.97l2.07 4.9 5.04-1.69-2.53 4.68 4.46 2.89-5.23.93.52 5.29-3.99-3.51-3.81 3.71.25-5.31-5.27-.67 4.3-3.11-2.76-4.54 5.12 1.42 1.83-4.99zM843.82 396.8l2.08 4.89 5.04-1.69-2.53 4.68 4.46 2.89-5.24.93.52 5.29-3.99-3.5-3.81 3.7.25-5.31-5.27-.67 4.31-3.11-2.76-4.54 5.12 1.43 1.82-4.99zM634.42 53.18l2.08 4.89 5.04-1.69-2.53 4.68 4.46 2.89-5.23.93.51 5.29-3.99-3.5-3.81 3.7.25-5.31-5.27-.67 4.31-3.11-2.76-4.54 5.12 1.43 1.82-4.99zM490.61 273.62l2.08 4.89 5.04-1.68-2.53 4.67 4.46 2.89-5.23.94.52 5.29-4-3.51-3.81 3.7.25-5.31-5.27-.67 4.31-3.11-2.76-4.54 5.12 1.43 1.82-4.99zM572.06 272.42l2.07 4.89 5.04-1.68-2.53 4.67 4.46 2.89-5.23.94.52 5.29-3.99-3.51-3.81 3.7.25-5.3-5.27-.68 4.31-3.11-2.77-4.54 5.12 1.43 1.83-4.99zM37.05 347.06l1.89 3.59 4.04.49-2.84 2.9.79 3.99-3.65-1.8-3.54 1.98.58-4.02-2.98-2.76 4.01-.69 1.7-3.68zM71.11 366.6l1.89 3.59 4.03.49-2.84 2.9.79 3.99-3.64-1.8-3.55 1.98.59-4.02-2.98-2.76 4-.69 1.71-3.68zM69.25 309.33l1.64 2.96 3.37.32-2.3 2.47.73 3.3-3.06-1.42-2.91 1.71.41-3.35-2.54-2.24 3.32-.65 1.34-3.1zM81.14 303.59l1.64 2.95 3.36.32-2.3 2.48.74 3.29-3.07-1.42-2.9 1.72.4-3.36-2.53-2.23 3.32-.65 1.34-3.1zM116.4 345.09l1.89 3.6 4.03.48-2.84 2.91.79 3.98-3.64-1.8-3.55 1.98.59-4.02-2.98-2.76 4-.68 1.71-3.69zM167.31 378.61l1.89 3.59 4.04.49-2.84 2.9.79 3.99-3.65-1.8-3.54 1.98.58-4.02-2.98-2.76 4.01-.69 1.7-3.68zM206.96 459.9l1.89 3.6 4.03.49-2.83 2.9.79 3.99-3.65-1.8-3.54 1.98.58-4.02-2.98-2.76 4.01-.69 1.7-3.69zM236.34 457.5l1.89 3.59 4.03.49-2.83 2.9.79 3.99-3.65-1.8-3.54 1.98.58-4.02-2.98-2.76 4.01-.69 1.7-3.68zM256.89 464.62l1.89 3.59 4.03.49-2.83 2.91.78 3.98-3.64-1.8-3.55 1.98.59-4.02-2.98-2.76 4-.68 1.71-3.69zM326.95 487.7l.78 3.99 3.73 1.62-3.56 1.97-.39 4.05-2.97-2.77-3.97.88 1.72-3.69-2.06-3.5 4.03.49 2.69-3.04zM370.17 428.08l.77 3.99 3.73 1.62-3.55 1.97-.39 4.04-2.98-2.76-3.96.87 1.71-3.68-2.06-3.5 4.04.49 2.69-3.04zM441.14 434.81l.78 3.99 3.73 1.62-3.56 1.97-.39 4.04-2.97-2.77-3.97.88 1.72-3.68-2.06-3.5 4.03.49 2.69-3.04zM448.87 351.42l.77 3.99 3.73 1.62-3.55 1.97-.39 4.04-2.98-2.77-3.96.88 1.71-3.68-2.06-3.5 4.03.49 2.7-3.04zM349.44 211.34l.78 3.98 3.73 1.62-3.56 1.98-.39 4.04-2.97-2.77-3.97.88 1.72-3.68-2.06-3.51 4.03.5 2.69-3.04zM323.45 237.86l.78 3.99 3.72 1.62-3.55 1.97-.39 4.05-2.97-2.77-3.97.87 1.72-3.68-2.06-3.5 4.03.5 2.69-3.05zM277.35 187.81l.78 3.99 3.72 1.62-3.55 1.98-.39 4.04-2.97-2.77-3.97.88 1.72-3.68-2.07-3.51 4.04.5 2.69-3.05zM451.54 167.6l.77 3.98 3.73 1.63-3.55 1.97-.39 4.04-2.98-2.77-3.96.88 1.71-3.68-2.06-3.5 4.03.49 2.7-3.04zM460.27 78.08l.78 3.99 3.72 1.62-3.55 1.97-.39 4.04-2.97-2.77-3.97.88 1.71-3.68-2.06-3.5 4.03.49 2.7-3.04zM549.09 66.51l.78 3.99 3.72 1.62-3.55 1.97-.39 4.05-2.97-2.77-3.97.88 1.72-3.69-2.07-3.5 4.04.49 2.69-3.04zM532.53 283.53l.78 3.99 3.72 1.62-3.55 1.97-.39 4.04-2.97-2.77-3.97.88 1.72-3.68-2.07-3.5 4.04.49 2.69-3.04zM596.59 333.69l.78 3.99 3.73 1.62-3.56 1.97-.39 4.04-2.97-2.77-3.97.88 1.72-3.68-2.06-3.5 4.03.49 2.69-3.04zM308.25 274.74l.78 3.99 3.73 1.62-3.56 1.97-.39 4.04-2.97-2.77-3.97.88 1.72-3.68-2.06-3.5 4.03.49 2.69-3.04zM247.67 227.88l.77 3.99 3.73 1.62-3.55 1.98-.39 4.04-2.98-2.77-3.96.88 1.71-3.68-2.06-3.51 4.03.5 2.7-3.05zM216.3 161.63l.77 3.99 3.73 1.62-3.55 1.97-.39 4.04-2.98-2.77-3.96.88 1.71-3.68-2.06-3.5 4.03.49 2.7-3.04zM720.18 253.35l.78 3.99 3.72 1.62-3.55 1.97-.39 4.05-2.97-2.77-3.97.87 1.72-3.68-2.06-3.5 4.03.49 2.69-3.04zM802.85 353.54l.78 3.99 3.73 1.62-3.56 1.97-.39 4.04-2.97-2.77-3.97.88 1.72-3.68-2.06-3.5 4.03.49 2.69-3.04zM645.86 202.42l.78 3.99 3.72 1.62-3.55 1.97-.39 4.04-2.97-2.77-3.97.88 1.72-3.68-2.06-3.5 4.03.49 2.69-3.04zM510.81 60.87l.77 3.99 3.73 1.62-3.55 1.97-.39 4.04-2.98-2.77-3.96.88 1.71-3.68-2.06-3.5 4.04.49 2.69-3.04zM684.13 68.39l.78 3.99 3.72 1.62-3.55 1.97-.39 4.05-2.97-2.77-3.97.88 1.72-3.69-2.07-3.5 4.04.5 2.69-3.05zM656.4 40.26l.78 3.99 3.72 1.62-3.55 1.97-.39 4.04-2.97-2.77-3.97.88 1.72-3.68-2.06-3.5 4.03.49 2.69-3.04zM695.25 105.46l.77 3.98 3.73 1.63-3.55 1.97-.39 4.04-2.98-2.77-3.96.88 1.71-3.68-2.06-3.5 4.03.49 2.7-3.04zM766.38 220.38l.78 3.99 3.72 1.62-3.55 1.97-.39 4.04-2.97-2.77-3.97.88 1.72-3.68-2.07-3.5 4.04.49 2.69-3.04zM883.44 229.32l.78 3.99 3.72 1.62-3.55 1.97-.39 4.04-2.97-2.77-3.97.88 1.72-3.68-2.06-3.5 4.03.49 2.69-3.04zM798 228.92l.77 3.99 3.73 1.62-3.55 1.97-.4 4.04-2.97-2.77-3.96.88 1.71-3.68-2.06-3.5 4.03.49 2.7-3.04zM848.59 179.64l.78 3.99 3.72 1.62-3.55 1.97-.39 4.05-2.97-2.77-3.97.88 1.71-3.69-2.06-3.5 4.04.5 2.69-3.05zM769.29 82.77l.78 3.98 3.73 1.63-3.55 1.97-.39 4.04-2.98-2.77-3.96.88 1.71-3.68-2.06-3.5 4.03.49 2.69-3.04zM908.55 35.18l.78 3.99 3.72 1.62-3.55 1.97-.39 4.05-2.97-2.77-3.97.88 1.71-3.69-2.06-3.5 4.04.5 2.69-3.05zM852.17 24.55l.78 3.99 3.72 1.62-3.55 1.97-.39 4.04-2.97-2.77-3.97.88 1.72-3.68-2.06-3.5 4.03.49 2.69-3.04zM922.46 48.41l.78 3.99 3.72 1.62-3.55 1.97-.39 4.05-2.97-2.77-3.97.88 1.72-3.69-2.06-3.5 4.03.49 2.69-3.04zM464.4 500.11l1.89 3.6 4.03.48-2.84 2.91.79 3.99-3.64-1.8-3.55 1.98.59-4.02-2.98-2.76 4-.69 1.71-3.69zM239.15 322.46l1.89 3.59 4.03.49-2.83 2.9.79 3.99-3.65-1.8-3.54 1.98.58-4.02-2.98-2.76 4.01-.69 1.7-3.68zM144.42 143.24l1.89 3.6 4.04.48-2.84 2.91.79 3.99-3.65-1.8-3.54 1.98.58-4.02-2.98-2.76 4.01-.69 1.7-3.69zM52.67 105.66l1.89 3.6 4.03.48-2.83 2.91.78 3.99-3.64-1.81-3.55 1.99.59-4.02-2.98-2.77 4-.68 1.71-3.69zM172.85 227.4l1.89 3.6 4.03.48-2.84 2.91.79 3.98-3.64-1.8-3.55 1.98.59-4.02-2.98-2.76 4-.68 1.71-3.69zM134.1 262.29l1.89 3.6 4.03.48-2.83 2.91.78 3.99-3.64-1.8-3.55 1.98.59-4.02-2.98-2.76 4-.69 1.71-3.69zM179.49 120.3l1.89 3.59 4.03.49-2.83 2.9.79 3.99-3.65-1.8-3.54 1.98.58-4.02-2.98-2.76 4.01-.69 1.7-3.68zM146.02 172.91l1.89 3.59 4.03.49-2.84 2.91.79 3.98-3.64-1.8-3.55 1.98.59-4.02-2.98-2.76 4-.69 1.71-3.68zM154.78 183.72l1.88 3.6 4.04.48-2.84 2.91.79 3.98-3.64-1.79-3.55 1.98.58-4.03-2.97-2.76 4-.68 1.71-3.69zM116.86 101.5l1.89 3.6 4.03.48-2.83 2.91.78 3.99-3.64-1.8-3.54 1.98.58-4.02-2.98-2.77 4.01-.68 1.7-3.69zM384.87 195.76l1.89 3.6 4.04.48-2.84 2.91.79 3.98-3.65-1.8-3.54 1.98.58-4.02-2.98-2.76 4.01-.68 1.7-3.69zM553.16 475.84l1.89 3.6 4.04.48-2.84 2.91.79 3.99-3.65-1.8-3.54 1.98.58-4.02-2.98-2.77 4.01-.68 1.7-3.69zM642.22 439.66l1.88 3.59 4.04.49-2.84 2.9.79 3.99-3.64-1.8-3.55 1.98.59-4.02-2.99-2.76 4.01-.69 1.71-3.68zM31.14 363.36l1.89 3.59 4.03.49-2.84 2.9.79 3.99-3.64-1.8-3.55 1.98.59-4.02-2.98-2.76 4-.69 1.71-3.68zM48.22 300.12l1.89 3.6 4.03.48-2.83 2.91.78 3.99-3.64-1.8-3.55 1.98.59-4.02-2.98-2.76 4.01-.69 1.7-3.69zM805.1 344.86l-3.5 2.03-1.86 3.6-2.03-3.5-3.6-1.86 3.5-2.03 1.86-3.6 2.03 3.5 3.6 1.86zM781.01 328.84l-3.51 2.03-1.85 3.6-2.03-3.5-3.6-1.85 3.5-2.04 1.86-3.6 2.03 3.51 3.6 1.85zM772.27 278.77l-3.51 2.03-1.85 3.6-2.03-3.5-3.6-1.86 3.5-2.03 1.85-3.6 2.04 3.51 3.6 1.85zM779.88 268.63l-3.5 2.03-1.85 3.6-2.03-3.5-3.6-1.85 3.5-2.04 1.85-3.6 2.03 3.51 3.6 1.85zM710.26 327.24l-2.42 3.25-.3 4.03-3.24-2.42-4.04-.3 2.43-3.24.29-4.04 3.25 2.43 4.03.29zM672.19 345.54l-2.61 3.1-.54 4.01-3.09-2.61-4.01-.54 2.61-3.09.53-4.01 3.1 2.61 4.01.53zM823.31 272.75l-2.62 3.1-.53 4.01-3.09-2.61-4.02-.54 2.62-3.09.53-4.01 3.09 2.61 4.02.53zM858.96 264.02l-2.62 3.1-.53 4.01-3.09-2.61-4.02-.54 2.62-3.09.53-4.01 3.09 2.61 4.02.53zM930.47 199.05l-2.61 3.1-.53 4.01-3.1-2.62-4.01-.53 2.61-3.09.54-4.01 3.09 2.61 4.01.53zM975.37 116.88l-2.61 3.09-.53 4.01-3.1-2.61-4.01-.53 2.61-3.09.54-4.02 3.09 2.61 4.01.54zM963.89 106.36l-2.62 3.09-.53 4.02-3.09-2.62-4.02-.53 2.62-3.09.53-4.02 3.09 2.62 4.02.53zM893.82 216.67l-1.03 3.48 1.01 3.49-3.48-1.03-3.48 1.01 1.02-3.48-1.01-3.48 3.48 1.02 3.49-1.01zM788.96 261.28l-1.03 3.48 1.01 3.49-3.48-1.03-3.48 1.02 1.02-3.49-1.01-3.48 3.48 1.03 3.49-1.02zM887.07 146.6l-1.03 3.48 1.01 3.49-3.48-1.03-3.48 1.01 1.03-3.48-1.02-3.48 3.48 1.02 3.49-1.01zM891.78 102.43l-1.03 3.48 1.01 3.48-3.48-1.02-3.48 1.01 1.02-3.48-1.01-3.49 3.48 1.03 3.49-1.01zM810.06 141.89l-1.03 3.48 1.02 3.48-3.48-1.02-3.49 1.01 1.03-3.48-1.02-3.49 3.49 1.03 3.48-1.01zM795.43 66.39l-1.03 3.48 1.02 3.48-3.49-1.02-3.48 1.01 1.03-3.48-1.02-3.49 3.49 1.03 3.48-1.01zM775.77 70.76l-.76 2.55.75 2.57-2.56-.76-2.56.74.75-2.55-.74-2.56 2.56.75 2.56-.74zM779.18 78.9l-.76 2.55.75 2.57-2.56-.76-2.56.74.75-2.55-.74-2.56 2.56.75 2.56-.74zM767.68 75.54l-.76 2.56.75 2.56-2.56-.75-2.56.74.75-2.56-.74-2.56 2.56.76 2.56-.75zM701.11 151.37l-1.03 3.48 1.01 3.49-3.48-1.03-3.49 1.01 1.03-3.48-1.01-3.49 3.48 1.03 3.49-1.01zM545.16 247.14l-1.03 3.48 1.02 3.49-3.48-1.03-3.49 1.01 1.03-3.48-1.01-3.49 3.48 1.03 3.48-1.01zM508.95 245.14l-1.02 3.48 1.01 3.49-3.48-1.03-3.49 1.01 1.03-3.48-1.01-3.48 3.48 1.02 3.48-1.01zM504.75 259.79l-1.03 3.48 1.02 3.49-3.49-1.03-3.48 1.02 1.03-3.49-1.02-3.48 3.48 1.02 3.49-1.01zM453.49 223.7l-1.03 3.48 1.02 3.48-3.48-1.02-3.49 1.01 1.03-3.48-1.02-3.49 3.48 1.03 3.49-1.01zM356.89 116.35l-1.03 3.48 1.01 3.48-3.48-1.02-3.49 1.01 1.03-3.48-1.01-3.49 3.48 1.03 3.49-1.01zM287.88 124.69l-1.03 3.49 1.01 3.48-3.48-1.03-3.48 1.02 1.02-3.49-1.01-3.48 3.48 1.03 3.49-1.02zM535.44 273.57l-1.03 3.48 1.01 3.48-3.48-1.02-3.49 1.01 1.03-3.48-1.01-3.49 3.48 1.03 3.49-1.01zM499.23 156.03l-1.03 3.48 1.02 3.48-3.48-1.02-3.49 1.01 1.03-3.48-1.02-3.49 3.49 1.03 3.48-1.01zM379.97 322.36l-1.02 3.48 1.01 3.49-3.48-1.03-3.49 1.01 1.03-3.48-1.01-3.48 3.48 1.02 3.48-1.01zM341.98 348.67l-1.02 3.48 1.01 3.49-3.48-1.03-3.49 1.01 1.03-3.48-1.02-3.49 3.49 1.03 3.48-1.01zM544.64 292.45l-1.03 3.49 1.02 3.48-3.49-1.03-3.48 1.02 1.02-3.48-1.01-3.49 3.48 1.03 3.49-1.02zM539.45 317.52l-1.03 3.48 1.02 3.49-3.48-1.03-3.49 1.02 1.03-3.49-1.02-3.48 3.49 1.03 3.48-1.02zM289.1 477.18l-1.02 3.48 1.01 3.48-3.48-1.02-3.49 1.01 1.03-3.48-1.01-3.49 3.48 1.03 3.48-1.01zM261.35 348.62l-1.03 3.48 1.02 3.48-3.48-1.02-3.49 1.01 1.03-3.48-1.02-3.49 3.49 1.03 3.48-1.01zM239.82 302.19l-1.03 3.49 1.02 3.48-3.49-1.03-3.48 1.02 1.03-3.48-1.02-3.49 3.48 1.03 3.49-1.02zM296.39 304.1l-1.03 3.48 1.02 3.48-3.48-1.02-3.49 1.01 1.03-3.48-1.02-3.49 3.49 1.03 3.48-1.01zM300.76 312.71l-1.02 3.49 1.01 3.48-3.48-1.03-3.49 1.02 1.03-3.48-1.01-3.49 3.48 1.03 3.48-1.02zM306.79 320.88l-1.03 3.48 1.01 3.48-3.48-1.02-3.48 1.01 1.02-3.48-1.01-3.49 3.48 1.03 3.49-1.01zM659.8 226.07l-1.03 3.48 1.01 3.48-3.48-1.02-3.49 1.01 1.03-3.48-1.01-3.49 3.48 1.03 3.49-1.01zM641.76 358.36l-2.62 3.09-.53 4.02-3.09-2.62-4.02-.53 2.62-3.09.53-4.02 3.09 2.62 4.02.53zM562.04 394.86l-2.61 3.09-.53 4.02-3.1-2.62-4.01-.53 2.61-3.09.54-4.02 3.09 2.62 4.01.53zM539.16 402.21l-2.62 3.09-.53 4.02-3.09-2.62-4.02-.53 2.62-3.09.53-4.02 3.09 2.62 4.02.53zM462.31 444.86l-3.82 1.33-2.5 3.18-1.33-3.82-3.18-2.5 3.82-1.34 2.5-3.18 1.33 3.83 3.18 2.5zM466.49 412.33l-3.83 1.34-2.5 3.18-1.33-3.83-3.19-2.5 3.83-1.33 2.5-3.18 1.33 3.82 3.19 2.5zM487.72 380.63l-3.83 1.33-2.5 3.18-1.33-3.82-3.18-2.5 3.82-1.33 2.5-3.19 1.33 3.83 3.19 2.5z"/><circle cx="407.45" cy="465.94" r="3.39"/><circle cx="237.74" cy="315.33" r="2.15"/><circle cx="474.21" cy="151.81" r="2.15"/><circle cx="228.59" cy="323.18" r="2.15"/><path d="M467.007 80.36l32.044-10.119.171.542-32.044 10.119zM518.31 67.445l.151-.55 20.717 5.715-.152.55zM930.387 193.208l37.427-66.26.496.28-37.427 66.26zM927 58.622l.465-.328 28.162 40.025-.466.328zM885.932 114.662l.57-.014.66 26.291-.57.015zM853.645 178.034l22.414-20.076.38.425-22.414 20.075zM802.348 230.239l34.822-32.291.387.418-34.822 32.29zM891.442 228.875l24.937-20.999.367.436-24.937 20.999zM802.614 243.29l.527-.218 9.035 21.834-.527.218zM823.061 272.163l24.475-5.7.13.555-24.476 5.7zM768.88 286.585l.563-.083 5.113 34.665-.564.083zM781.253 333.968l.258-.509 11.178 5.662-.258.508zM766.78 216.362l1.116-26.977.57.024-1.117 26.977zM747.743 240.71l14.15-8.983.305.481-14.149 8.983zM729.5 255.76l15.994-10.472.314.479-15.994 10.472zM683.906 272.447l25.986-9.649.199.535-25.987 9.649zM641.337 241.27l.387-.419 25.753 23.79-.387.418zM654.578 296.204l15.468-13.68.377.427-15.468 13.68zM606.272 331.605l42.667-31.977.342.456-42.668 31.977zM635.52 227.818l4.343-13.404.542.175-4.342 13.404zM648.965 200.807l43.969-38.451.375.429-43.969 38.451zM685.103 84.784l.551-.145 5.165 19.632-.551.145zM663.59 55.283l.4-.405 8.107 8.059-.402.404zM644.592 57.94l8.15-5.936.335.462-8.148 5.935zM677.703 340.812l19.536-8.759.233.52-19.536 8.76zM646.434 355.334l9.584-4.551.245.515-9.585 4.55zM566.532 392.157L628.35 364.7l.231.521-61.816 27.458zM540.537 398.883l11.087-2.077.105.56-11.088 2.077zM464.54 438.232l63.193-30.685.25.513-63.195 30.685zM618.167 493.46l19.142-40.35.515.244-19.142 40.35zM564.94 486.487l.177-.542 39.85 13.01-.176.542zM528.272 482.227l16.142-1.117.039.568-16.141 1.118zM475.85 501.14l33.037-14.847.234.52-33.037 14.848zM412.85 471.268l.345-.454 41.76 31.652-.344.454zM378.99 440.096l.393-.413 22.087 21.004-.393.413zM467.885 404.087l11.75-18.622.482.304-11.75 18.623zM446.477 431.367l9.915-13.302.457.34-9.915 13.302zM383.814 327.968l.238-.518 34.167 15.672-.237.518zM344.718 346.715l24.382-16.427.319.472-24.382 16.428zM343.648 428.859l.082-.565 14.786 2.144-.082.564zM293.6 483.272l.141-.553 20.616 5.232-.14.553zM267.114 473.84l.185-.54 9.783 3.346-.184.539zM241.423 465.52l.093-.562 9.381 1.56-.093.562zM215.92 465.291l12.904-1.401.062.566-12.904 1.402zM171.154 392.75l.515-.245 31.868 66.753-.514.246zM124.014 357.785l.297-.487 37.952 23.12-.297.488zM176.77 244.596l.504-.265 33.212 63.126-.505.265zM211.743 236.127l.541-.18 20.21 60.578-.54.18zM245.223 337.387l.474-.317 7.097 10.605-.474.317zM250.819 309.392l.081-.564 36.067 5.204-.082.564zM309.633 270.835l8.486-19.972.525.223-8.486 19.972zM328.243 236.485l14.37-14.38.403.403-14.37 14.38zM366.975 251.789l14.462-40.59.537.19-14.462 40.591zM437.81 260.465l.2-.534 38.453 14.484-.2.534zM503.53 284.001l.088-.563 15.868 2.476-.088.563zM543.43 285.668l17.896-2.966.093.562-17.896 2.966zM534.97 317.325l2.128-15.141.564.08-2.128 15.14zM437.299 244.25l9.048-11.725.451.349-9.048 11.724zM582.568 307.69l.527-.217 10.338 25.256-.527.216zM601.224 259.809l25.718-19.706.347.452-25.718 19.706zM534.189 270.94l4.715-13.038.536.193-4.716 13.038zM494.37 273.355l2.039-4.718.523.226-2.039 4.718zM486.172 173.72l4.105-8.368.511.25-4.104 8.368zM478.927 152.709l.198-.535 12.694 4.711-.198.535zM470.006 170.189l.309-.48 8.031 5.186-.309.48zM279.04 162.49l4.716-28.928.563.091-4.716 28.928zM277.325 172.23l.239-4.674.569.03-.24 4.673zM255.12 158.265l.407-.398 14.755 15.083-.407.399zM258.054 142.992l18.788-10.184.272.5-18.788 10.185zM226.542 161.773l15.58-9.016.285.493-15.58 9.017zM251.136 228.797l19.774-27.806.465.33-19.775 27.806zM132.184 273.628l.57-.014.298 11.846-.57.014zM112.793 255.664l.341-.457 10.252 7.647-.34.457zM95.641 292.045l9.003-28.606.544.17-9.003 28.607zM56.041 306.188l20.78-2.938.08.564-20.78 2.939zM93.996 313.413l.568-.038 1.735 26.183-.569.038zM110.422 298.333l14.338-1.436.057.567-14.338 1.436zM45.73 359.792l.263-.505 13.838 7.2-.263.506zM161.318 87.95l.517-.24 13.679 29.48-.517.24zM151.345 143.92l20.53-12.375.294.488-20.53 12.374zM144.715 157.62l.57-.014.27 10.776-.57.015zM111.44 163.1l3.51-45.726.57.044-3.511 45.725zM119.986 100.204l13.216-17.575.455.342-13.215 17.576zM119.5 175.063l.125-.556 18.786 4.2-.124.556zM40.115 97.157l.473-.32 5.97 8.832-.472.32z"/></g><g clip-path="url(#a)"><rect x="670.19" y="-460.84" width="329.06" height="483.58" rx="34.22" ry="34.22" fill="#1c1c1c" stroke="#a5802a" stroke-miterlimit="10" stroke-width="2"/></g></g></svg>