<svg id="Layer_1" xmlns="http://www.w3.org/2000/svg" xmlns:xlink="http://www.w3.org/1999/xlink" viewBox="0 0 521.7 581.4"><style>.st1,.st2{fill:#262626;stroke:#a5802a;stroke-width:2;stroke-miterlimit:10}.st2{fill:none}.st3{fill:#a5802a}.st8{fill:#fff}</style><g opacity=".46"><path class="st1" d="M424.4 138s-19.7 13.9 2.7 35.8c0 0-12.1-.9-16.1-9.9 0 0-12.5 23.3 9.9 46.1 0 0-30-11.6-29.1-29.1 1-18.8-2.2-22.4-2.2-22.4s-1.8 19.2-5.4 29.5c0 0-1.3-14.8-4-23.3 0 0-27.8 12.1-3.1 49.7s5.7 52.5 5.7 52.5c-2.4-21-34.6-29.5-40.2-40.2s-7.2-9.3-7.2-9.3c3.6 8.6.2 13.9.2 13.9s-.2-13.9-17.3-30.8-23.8-62.5-23.8-62.5c-9.5 16.1-1.4 28.3-1.4 28.3-14.1-16.9-26.4-47.5 2.3-83.2 24.4-30.4 26.2-44.4 26.2-44.4s1.7-9.6 10.1-11.4"/><path class="st1" d="M327.2 34.5c-7.1-27.5 56.4-49 71.7-10.5v-.6l42.1 17 16.1 36.7L487 91.8c5.8 2.8 8.3 9.7 5.8 15.7l-22.3 51.2s-28.2-20.1-53.7-6.3"/><path class="st1" d="M348.5 35.6c-40.6-5.5-55.3 35.5-55.3 35.5.4-28.4 15.5-48.6 40.8-51.3m51.7 14.7c-2.5-7.6-10.6-11.7-18.2-9.2s-11.7 10.6-9.2 18.2c1.1 3.4 3.5 6.3 6.7 8.1"/><path class="st2" d="M376.4 101.2c-4.3 12.3 2.9 26 15.3 30.3-8.6 3.9-18.8 1.3-24.6-6.1m62.8-53.5l.6 18.3"/><path class="st1" d="M486.6 121.6s3-13.7-7.2-17.3c-5.3-1.9 3.6-13.7 3.6-13.7m-2.4 44.1s-5.2 3.6-14.3.6-15.5 3.6-15.5 3.6"/><path class="st2" d="M389.4 158.4S366 137.1 367.2 124s18.5-31.6 11.3-42.4-6-16.7-6-16.7"/></g><path class="st3" d="M392.4 251.5l5.2-12-11.5-6.1 12.6-3.4-2.4-12.8 10.5 7.7 8.5-9.9.5 13 13 .5-9.9 8.5 7.7 10.5-12.8-2.4-3.4 12.6-6.1-11.5-11.9 5.3zM11 235.1l5.2-12L4.7 217l12.6-3.4-2.4-12.8 10.5 7.7 8.5-9.9.5 13 13 .5-9.9 8.5 7.7 10.5-12.8-2.4-3.4 12.6-6-11.4-12 5.2zm319.3-65.8l5.2-12-11.5-6.1 12.6-3.4-2.4-12.8 10.5 7.7 8.5-9.9.5 13 13 .5-9.9 8.5 7.7 10.5-12.8-2.4-3.4 12.6-6.1-11.5-11.9 5.3zM149 230.7l-.6-9.9-8.5-5.2 9.3-3.6 2.3-9.7 6.3 7.7 9.9-.8-5.4 8.4 3.9 9.2-9.6-2.5-7.6 6.4zm190.5-109.5l-.6-9.9-8.5-5.2 9.3-3.6 2.3-9.7 6.3 7.7 9.9-.8-5.4 8.4 3.9 9.2-9.6-2.5-7.6 6.4zm51.3 69.4l-.6-10-8.5-5.2 9.3-3.6 2.3-9.7 6.3 7.7 9.9-.8-5.4 8.4 3.9 9.2-9.6-2.5-7.6 6.5zm40-91.9l-1.4-9.9-8.9-4.4 8.9-4.4 1.4-9.9 7 7.1 9.8-1.7-4.6 8.8 4.6 8.8-9.8-1.7-7 7.3zM111.7 330.2l7.9-4.1 4.5-7.7 4.1 7.9 7.7 4.5-7.9 4.1-4.5 7.7-4.1-7.9-7.7-4.5zm-3.5-58l7.9-4.1 4.5-7.7 4.1 7.9 7.7 4.5-7.9 4.1-4.5 7.7-4.1-7.9-7.7-4.5zM504.6 211l7.1 5.4 8.9.8-5.4 7.1-.8 8.9-7.1-5.4-8.9-.8 5.4-7.1.8-8.9zM398.1 65.8l7.1-5.4 3-8.4 5.4 7.1 8.4 3-7.1 5.4-3 8.4-5.4-7.1-8.4-3zM445.8 227l47.6-5.6.2 1.4-47.6 5.6-.2-1.4zM51.3 215.3l81.4-1.6v1.4l-81.4 1.6v-1.4zm79.1 46.3l15.3-27 1.2.7-15.3 27-1.2-.7zm-10.9 52.9l.6-22.7h1.4l-.6 22.7h-1.4zm63.9-105.9l131.1-36.3.4 1.3L183.8 210l-.4-1.4zM368.2 91l25.2-18.6.8 1.1L369 92.1l-.8-1.1z"/><defs><path id="SVGID_1_" d="M57.8 228.1h417.1v354.8H57.8z"/></defs><clipPath id="SVGID_2_"><use xlink:href="#SVGID_1_" overflow="visible"/></clipPath><g clip-path="url(#SVGID_2_)"><path d="M142.4 258.2H403c18.9 0 34.2 15.3 34.2 34.2v415.1c0 18.9-15.3 34.2-34.2 34.2H142.4c-18.9 0-34.2-15.3-34.2-34.2V292.4c0-18.9 15.3-34.2 34.2-34.2z" fill="#1c1c1c" stroke="#a5802a" stroke-width="2" stroke-miterlimit="10"/><path d="M143.5 257.5H402c19.5 0 35.3 15.8 35.3 35.3v36.7H108.2v-36.7c0-19.5 15.8-35.3 35.3-35.3z" stroke="#a5802a" stroke-width="2" stroke-miterlimit="10"/><path d="M130.2 423.6h285c4.9 0 8.9 4 8.9 8.9v78.1c0 4.9-4 8.9-8.9 8.9h-285c-4.9 0-8.9-4-8.9-8.9v-78.1c0-4.9 4-8.9 8.9-8.9z" fill="#0c0c0c" stroke="#a5802a" stroke-width="2" stroke-miterlimit="10"/><path class="st2" d="M121.6 460h302.5"/><path class="st8" d="M184.5 446.6v-.5h1.5v-9.9h-1.4v-.5h5.8c.9 0 1.7.2 2.4.7.8.5 1.2 1.3 1.2 2.2 0 1.4-1.1 2.7-2.5 2.9l2.9 4.7h.6c.2 0 .2.2.2.5h-3l-2.8-5h-1.2v4.5h1.4v.5l-5.1-.1zm3.7-10.4v4.9h1.4c.4 0 .8-.1 1.1-.3.6-.5 1-1.3.9-2.1 0-.4-.1-.7-.2-1-.3-.9-1.1-1.4-2-1.4l-1.2-.1zm14.8 9.2c-.7 1-1.8 1.6-3 1.5-.8 0-1.5-.2-2.2-.5-1.2-.7-1.9-2.1-1.8-3.6 0-.9.2-1.8.8-2.6.7-1 1.9-1.6 3.2-1.5.7 0 1.4.1 2.1.4.9.4 1.4 1.2 1.4 2.2 0 .2-.1.5-.2.7-.4.6-1.4.8-3.2.8h-1.8c.1 2.4.8 3.6 2.2 3.6.3 0 .5 0 .8-.1.8-.2 1.4-.8 1.7-1.5l.4.1c-.2.1-.3.3-.4.5zm-3.4-6.3c-.9.3-1.3 1.3-1.4 3l1.4.1c.4 0 .8 0 1.2-.1.4-.1.6-.5.6-1.1 0-.2 0-.4-.1-.6-.1-.9-.6-1.3-1.3-1.3h-.4zm9.8 6.1c-.1.2-.2.4-.4.6-.5.7-1.4 1-2.2 1-.3 0-.6 0-.9-.1-.9-.3-1.4-1.1-1.4-2 0-1.6 1.6-2.4 4.8-2.5V441v-.6c-.1-.9-.5-1.3-1.3-1.3-.2 0-.4 0-.5.1-.3.2-.5.6-.6.9l-.1.3c-.1.4-.5.7-.9.7h-.3c-.4-.1-.6-.4-.6-.8 0-.2.1-.4.2-.6.4-.7 1.4-1 2.9-1 .3 0 .7 0 1 .1 1.4.2 2.4 1.4 2.2 2.8v3.8c0 .6.1.9.4.9s.6-.4.6-1.3h.5c0 .3-.1.6-.1.9-.2.7-.9 1.1-1.6 1-.9-.1-1.5-.7-1.7-1.7zm-1.2.8c.6-.3 1-.9 1.2-1.6v-1.7c-.5 0-1 .1-1.5.2-.7.1-1.3.8-1.2 1.6v.2c0 1 .4 1.5 1.1 1.5.1-.1.2-.2.4-.2zm11.6-1.1c0 .1-.1.2-.1.3-.5 1-1.5 1.7-2.6 1.6-.6 0-1.3-.2-1.8-.6-1-.8-1.6-2-1.5-3.3 0-1 .3-2 .9-2.9.6-.9 1.7-1.5 2.9-1.5.8 0 1.7.3 2.3.9v-4.2h-1.7v-.5h3.7V446h1.1c.1 0 .2.2.2.5h-3l-.4-1.6zm-3.7-.8c.2 1.3.8 2 1.7 2 .3 0 .6-.1.9-.3.8-.6 1.1-1.7 1.1-3.4 0-.5 0-1-.2-1.5-.3-1.1-.8-1.6-1.7-1.6-.3 0-.6.1-.8.2-.8.5-1.2 1.6-1.2 3.3.1.4.1.8.2 1.3zm12.1 2.1c.2 0 .3.2.3.5h-4.3v-.5h.6c.4-.1.6-.4.6-.9v-5.9h-1.2v-.5h3.2v7.3H228.2zm-.9-9.2c-.2.4-.6.7-1.1.6-.2 0-.4 0-.6-.1-.4-.2-.7-.6-.7-1.1 0-.2.1-.4.1-.6.2-.4.6-.7 1.1-.7.2 0 .4.1.6.1.7.4.9 1.2.6 1.8zm6.1 9.2c.2 0 .2.2.2.5h-4.2v-.5h.6c.4-.1.6-.4.6-.9v-5.9h-1.2v-.5h3l.1 1.5c.1-.3.3-.5.5-.7.6-.6 1.4-1 2.2-1 .3 0 .7.1 1 .2 1 .5 1.6 1.6 1.5 2.8v4.6h.9c.2 0 .2.2.2.5h-4.1v-.5c.2 0 .4 0 .6-.1.3-.1.4-.4.4-.9v-3.9c0-.2 0-.5-.1-.7-.1-.6-.6-1.1-1.3-1.1-.2 0-.5.1-.7.2-.7.4-1.1 1.2-1.1 2v4.5h.6l.3-.1zm12.5-7.1c.1-.2.1-.3.2-.5.2-.6.8-1 1.4-1 .2 0 .4 0 .5.1.4.1.6.5.6.9v.2c0 .3-.3.5-.6.5-.2 0-.3-.1-.4-.2-.2-.2-.4-.3-.6-.3-.3 0-.6.3-.7.6.6.5 1 1.3 1 2.2 0 .7-.2 1.3-.6 1.8-.7.9-1.8 1.3-2.9 1.3h-2c-.3.1-.5.2-.5.5v.1c.1.3.3.5.6.5l3.6.1h.6c1 0 1.9.9 1.8 1.9v.1c0 .3-.1.7-.3 1-.6.9-1.9 1.4-3.8 1.4-.7 0-1.4-.1-2-.3-.8-.3-1.2-.8-1.2-1.5.7-.7.7-1.7 0-2.4l-.2-.2c0-.2 0-.5.1-.7.2-.6.8-1 1.4-.9l-.4-.3c-.8-.5-1.3-1.4-1.3-2.3 0-.6.2-1.2.6-1.7.7-.9 1.8-1.3 2.9-1.3.9-.1 1.6.1 2.2.4zm-.4 10.4c1.1-.2 1.6-.6 1.6-1.2 0-.1 0-.2-.1-.3-.1-.3-.6-.4-1.3-.4h-3.4c-.2 0-.5 0-.7-.1-.2.2-.3.5-.3.8 0 .2 0 .3.1.5.3.6 1.2 1 2.5 1 .5-.1 1.1-.1 1.6-.3zm-3-6.4c.1.7.6 1.1 1.3 1.1.3 0 .6-.1.8-.2.4-.3.6-1.1.6-2.4 0-.5 0-1-.1-1.5-.1-.6-.7-1.1-1.3-1-.3 0-.6.1-.9.2-.4.3-.6 1.1-.6 2.3.1.5.1 1 .2 1.5zm9.8 3.2c.8 0 1.3-.3 1.5-.8 0-.1.1-.2.1-.4 0-.6-.4-1.1-1.1-1.5l-.8-.4c-.7-.3-1.3-.6-1.9-1.1-.3-.4-.5-.9-.5-1.4 0-1 .6-1.8 1.6-2 .5-.2 1-.2 1.5-.2.8 0 1.5.1 2.2.5 0-.4.1-.6.3-.6h.2v2.3h-.6c.1-.9-.6-1.6-1.5-1.7h-.3c-.8 0-1.3.3-1.5.8 0 .1-.1.3-.1.4 0 .5.4.9 1.1 1.3l.8.4c.7.2 1.3.6 1.9 1.1.4.4.6.9.6 1.5.1 1-.6 1.9-1.6 2.1-.5.1-1 .2-1.4.2-.9 0-1.8-.2-2.6-.6 0 .3-.1.5-.2.5h-.2V444h.6c-.2 1.5.5 2.3 1.9 2.3zm13.2-.1c.2 0 .3.2.3.5h-5.1v-.5h.6c.5 0 .8-.4.8-.9v-5.9h-1.4v-.5h1.4v-.3c0-.8.2-1.6.5-2.3.6-1 1.7-1.6 2.9-1.5.5 0 1 .1 1.5.3.5.2.9.7.9 1.2v.3c-.1.4-.5.6-.9.6-.2 0-.4-.1-.6-.2-.2-.3-.4-.6-.5-.9-.2-.5-.5-.7-.8-.7-.2 0-.4.1-.5.2-.4.4-.6 1.5-.6 3.4v.1h2.1v.5H264v6.8h1.3l.2-.2z"/><path class="st8" d="M271.5 446.2c.2 0 .3.2.3.5h-4.9v-.5h.6c.4-.1.5-.4.5-.9v-5.9h-1.1v-.5h3l.1 1.7c.1-.3.3-.7.6-1 .5-.6 1.2-.9 2-.9.1 0 .3 0 .4.1.5.1.9.6.9 1.1 0 .1 0 .3-.1.4-.1.4-.5.6-.9.6h-.4c-.3-.1-.5-.4-.6-.7-.1-.3-.3-.4-.5-.4-.1 0-.2.1-.3.1-.7.6-1 1.5-1 2.3v3.9h1.3l.1.1zm9.9-6.8c1 .8 1.6 2 1.5 3.2 0 1-.3 2-.9 2.7-1.5 1.7-4 1.9-5.8.6-1-.8-1.6-2-1.5-3.3 0-1 .3-1.9.9-2.6 1.6-1.6 4-1.9 5.8-.6zm-4.3 5.4c.2 1 .8 1.6 1.7 1.6.3 0 .6-.1.8-.2.7-.4 1.1-1.6 1.1-3.5 0-.7 0-1.3-.2-2-.1-.9-.8-1.6-1.7-1.6-.3 0-.6.1-.9.2-.6.4-1 1.6-1 3.4 0 .7.1 1.4.2 2.1zm10.9 1.4c.2 0 .3.2.3.5h-4.1v-.5h.6c.4-.1.6-.4.6-.9v-5.9h-1.2v-.5h3l.1 1.5c0-.1.1-.2.1-.3.5-.9 1.4-1.4 2.4-1.4.2 0 .4 0 .6.1.8.3 1.3.9 1.5 1.7v-.1c.4-1 1.4-1.7 2.5-1.7.4 0 .8.1 1.2.4.8.6 1.3 1.5 1.2 2.5v4.7h.9c.2 0 .2.2.2.5h-4v-.5c.2 0 .4 0 .6-.1.2-.1.3-.4.3-.9v-3.9c0-.3 0-.6-.1-.9-.1-.5-.6-.9-1.2-.9-.2 0-.3 0-.5.1-.6.4-1 1-1.1 1.8v4.8h.7c.2 0 .2.2.2.5h-3.9v-.5c.2 0 .4 0 .6-.1.2-.1.3-.4.3-.9v-3.9c0-.3 0-.6-.1-.9-.1-.5-.5-.9-1-.9-.2 0-.4.1-.6.2-.7.4-1.1 1.2-1 2v4.5h.5l.4-.1zm14.7-7.3h1.3v-1.7l2-.4v2.1h2.5v.5H306v5.9c.1.7.4 1 .9 1s1-.6 1.3-1.6l.5.1c-.1.3-.2.7-.3 1-.3.8-1.1 1.2-1.9 1.1-1.5-.1-2.3-1-2.4-2.7v-4.7h-1.2l-.2-.6zm10.7 7.3c.2 0 .2.2.2.5h-4.2v-.5h.5c.4-.1.6-.4.6-1v-9.9h-1.1v-.5h3.1v5.5c.1-.2.2-.5.4-.7.6-.7 1.4-1.1 2.3-1.1.3 0 .7.1 1 .2 1 .4 1.5 1.3 1.5 2.8v4.6h.9c.1 0 .2.2.2.5h-4v-.5c.2 0 .4 0 .6-.1.2-.1.3-.4.3-.9v-3.8c0-.2 0-.5-.1-.7-.1-.7-.7-1.2-1.3-1.1-.3 0-.5.1-.7.2-.7.5-1.1 1.4-1 2.2v4.2h.6l.2.1zm13.6-.8c-.7 1-1.8 1.6-3 1.5-.8 0-1.5-.2-2.2-.5-1.2-.7-1.9-2.1-1.8-3.6 0-.9.2-1.8.8-2.6.8-1 2-1.6 3.2-1.5.7 0 1.4.1 2 .4.9.4 1.5 1.2 1.5 2.2 0 .2-.1.5-.2.7-.4.6-1.5.8-3.3.8h-1.8c.1 2.4.8 3.6 2.2 3.6.3 0 .5 0 .8-.1.8-.2 1.4-.8 1.7-1.5l.4.1c-.1.1-.2.3-.3.5zm-3.5-6.3c-.9.3-1.3 1.3-1.4 3l1.4.1c.4 0 .8 0 1.2-.1.4-.1.6-.5.6-1.1v-.6c-.1-.9-.6-1.3-1.3-1.3h-.5zm8.8 7.5v-.4l6.7-10h-3.3c-.7.1-1.3.5-1.5 1.2l-.7 1.6h-.5l.1-3.3h8.1v.4l-6.5 10h3.9c.9 0 1.6-.6 1.8-1.5l.5-1.8h.5v3.8h-9.1zm17.1-7.2c1 .8 1.6 2 1.5 3.2 0 1-.3 2-.9 2.7-1.5 1.7-4 1.9-5.8.6-1.8-1.5-2-4.1-.6-5.9 1.4-1.7 4-2 5.8-.6zm-4.3 5.4c.2 1 .8 1.6 1.7 1.6.3 0 .6-.1.8-.2.7-.4 1.1-1.6 1.1-3.5 0-.7 0-1.3-.2-2-.1-.9-.8-1.6-1.7-1.6-.3 0-.6.1-.9.2-.6.4-1 1.6-1 3.4 0 .7 0 1.4.2 2.1zm13.2.1c0 .1-.1.2-.1.3-.4 1-1.5 1.7-2.6 1.6-.6 0-1.3-.2-1.8-.6-1-.8-1.6-2-1.5-3.3 0-1 .3-2 .9-2.9.6-.9 1.7-1.5 2.9-1.5.8 0 1.7.3 2.3.9v-4.2h-1.7v-.5h3.7V446h1.1c.1 0 .2.2.2.5h-3l-.4-1.6zm-3.7-.8c.2 1.3.8 2 1.7 2 .3 0 .6-.1.9-.3.8-.6 1.1-1.7 1.1-3.4 0-.5 0-1-.2-1.5-.3-1.1-.8-1.6-1.7-1.6-.3 0-.6.1-.8.2-.8.5-1.2 1.6-1.2 3.3.1.4.1.8.2 1.3zm12.1 2.1c.2 0 .3.2.3.5h-4.4v-.5h.6c.4-.1.6-.4.6-.9v-5.9h-1.2v-.5h3.2v7.3H366.7zm-.9-9.2c-.2.4-.6.7-1.1.6-.2 0-.4 0-.6-.1-.4-.2-.7-.6-.7-1.1 0-.2.1-.4.1-.6.3-.6 1-.8 1.6-.6h.1c.4.2.7.6.7 1.1.1.3 0 .5-.1.7zm7.2 8.2c-.1.2-.2.4-.4.6-.5.7-1.4 1-2.2 1-.3 0-.6 0-1-.1-.9-.3-1.4-1.1-1.4-2 0-1.6 1.6-2.4 4.8-2.5V441v-.6c-.1-.9-.5-1.3-1.3-1.3-.2 0-.4 0-.5.1-.3.2-.5.6-.6.9l-.1.3c-.1.4-.5.7-.9.7h-.3c-.4-.1-.6-.4-.6-.8 0-.2.1-.4.2-.6.4-.7 1.4-1 3-1 .3 0 .7 0 1 .1 1.4.2 2.4 1.4 2.2 2.8v3.8c0 .6.1.9.4.9s.6-.4.6-1.3h.5c0 .3-.1.6-.1.9-.2.7-.9 1.1-1.6 1-1-.1-1.6-.7-1.7-1.7zm-1.3.8c.6-.3 1-.9 1.2-1.6v-1.7c-.5 0-1 .1-1.5.2-.7.1-1.3.8-1.2 1.6v.2c0 1 .4 1.5 1.1 1.5.1-.1.2-.2.4-.2zm6.5-6c.8-1 1.9-1.5 3.2-1.4.8 0 1.5.2 2.2.5.6.3 1 .8 1 1.4 0 .5-.4.9-.9.9h-.1c-.2 0-.4-.1-.6-.2-.3-.3-.4-.6-.4-1 0-.2 0-.4-.1-.5-.1-.4-.5-.8-1-.7h-.5c-1 .2-1.5 1.5-1.5 3.7s.7 3.5 2.2 3.5c.2 0 .5 0 .7-.1.8-.2 1.5-.7 1.9-1.5l.5.1c-.1.3-.3.6-.5.8-.7.8-1.8 1.3-2.9 1.2-.8 0-1.5-.2-2.2-.5-1.3-.7-2-2.1-1.9-3.5 0-.9.3-1.9.9-2.7z"/><path class="st3" d="M135.4 449.3h34.7v1.6h-34.7v-1.6zm34.7-3h-12.3l1-1.3c2.6-3.3 2-8.1-1.4-10.7s-8.1-2-10.7 1.4c-2.1 2.7-2.1 6.6 0 9.3l1 1.3h-12.3v-1.6h9.2c-.7-1.3-1.1-2.8-1.1-4.3-.2-5.1 3.8-9.4 8.9-9.5 5.1-.2 9.4 3.8 9.5 8.9v.6c0 1.5-.4 3-1.1 4.3h9.2v1.6z"/><path class="st8" d="M140.6 483.4c-.7.4-1.6.5-2.4.5-1.1.1-2.2-.4-3-1.2-.8-.9-1.2-2-1.1-3.1-.1-1.2.4-2.5 1.2-3.4.8-.9 2-1.3 3.2-1.3.7 0 1.4.1 2 .4v1.1c-.6-.4-1.3-.5-2.1-.5-.9 0-1.8.3-2.4 1-.6.7-1 1.7-.9 2.7 0 .9.3 1.8.9 2.5.6.6 1.4 1 2.3.9.8 0 1.6-.2 2.2-.6l.1 1zm6.9.3h-1v-3.6c0-1.3-.5-1.9-1.4-1.9-.5 0-.9.2-1.2.6-.3.4-.5.9-.5 1.4v3.5h-1v-9.2h1v4c.4-.7 1.2-1.2 2-1.2 1.4 0 2.1.9 2.1 2.5v3.9zm7-2.8h-4.4c0 .6.2 1.2.6 1.6.4.4.9.6 1.5.6.7 0 1.4-.2 1.9-.7v.9c-.6.4-1.4.6-2.2.6-.8 0-1.5-.3-2-.8-.5-.7-.8-1.5-.8-2.4 0-.9.3-1.7.8-2.4.5-.6 1.2-.9 2-.9.7 0 1.4.3 1.9.8.5.6.7 1.4.7 2.2v.5zm-1-.8c0-.5-.1-1-.4-1.3-.3-.3-.7-.5-1.1-.5-.4 0-.9.2-1.2.5-.3.4-.6.8-.6 1.3h3.3zm6.8 3.4c-.5.3-1.1.4-1.7.4-.8 0-1.6-.3-2.1-.9-.6-.6-.8-1.4-.8-2.2 0-.9.3-1.8.9-2.5.6-.6 1.5-1 2.3-.9.5 0 1 .1 1.4.3v1c-.4-.3-.9-.5-1.5-.5s-1.2.2-1.6.7c-.4.5-.6 1.1-.6 1.8 0 .6.2 1.2.6 1.7.4.4 1 .7 1.5.6.6 0 1.1-.2 1.5-.5l.1 1zm6.8.2h-1.4l-2.7-3v3h-1v-9.2h1v5.8l2.6-2.8h1.3l-2.9 3 3.1 3.2zm9.6-6.2l-2.8 7.2c-.5 1.3-1.2 1.9-2.1 1.9-.2 0-.4 0-.6-.1v-.9c.2.1.4.1.6.1.5 0 1-.4 1.1-.9l.5-1.2-2.4-6.2h1.1l1.7 4.8c0 .1.1.2.1.5 0-.1.1-.2.1-.5l1.8-4.8.9.1zm3.7 6.4c-.8 0-1.6-.3-2.2-.9-.6-.6-.9-1.5-.8-2.3 0-.9.3-1.8.9-2.4.6-.6 1.4-.9 2.3-.9.8 0 1.6.3 2.2.9.5.7.8 1.5.8 2.4 0 .9-.3 1.7-.8 2.4-.7.5-1.5.8-2.4.8zm.1-5.7c-.6 0-1.1.2-1.5.6-.4.5-.6 1.2-.6 1.8 0 .6.2 1.2.6 1.7.4.4.9.7 1.5.6.6 0 1.1-.2 1.5-.6.4-.5.6-1.1.5-1.8 0-.6-.1-1.3-.5-1.8-.4-.3-.9-.5-1.5-.5zm9.7 5.5h-1v-1c-.3.7-1.1 1.2-1.9 1.1-1.5 0-2.2-.9-2.2-2.6v-3.7h1v3.5c0 1.3.5 2 1.5 2 .5 0 .9-.2 1.2-.5.3-.4.5-.9.5-1.4v-3.6h1l-.1 6.2zm5.4-5.2c-.2-.1-.5-.2-.8-.2-.4 0-.8.2-1 .6-.3.5-.5 1.1-.4 1.6v3.2h-1v-6.2h1v1.3c.1-.4.3-.7.6-1 .3-.2.6-.4 1-.4.2 0 .4 0 .6.1v1zm10 5.2h-1v-1c-.7 1.2-2.2 1.6-3.4.8-.2-.1-.4-.3-.6-.5-.5-.6-.7-1.4-.7-2.3 0-.9.2-1.8.8-2.5.5-.6 1.2-.9 2-.9s1.5.3 1.9 1v-3.8h1v9.2zm-1-2.8v-.9c0-.5-.2-.9-.5-1.3-.3-.3-.8-.5-1.3-.5-.6 0-1.1.2-1.4.7-.4.5-.6 1.2-.5 1.8 0 .6.1 1.2.5 1.7.3.4.8.6 1.3.6s1-.2 1.3-.6c.5-.4.7-.9.6-1.5zm7.6 2.8h-1v-1c-.6 1.1-2 1.4-3.1.8-.1-.1-.2-.1-.3-.2-.3-.3-.5-.8-.5-1.3 0-1.2.7-1.8 2-2l1.9-.3c0-1-.4-1.6-1.3-1.6-.7 0-1.4.3-2 .8v-1c.6-.4 1.4-.6 2.1-.6 1.4 0 2.2.8 2.2 2.3v4.1zm-1-3.1l-1.5.2c-.4 0-.7.2-1 .3-.3.2-.4.5-.4.9 0 .3.1.6.3.7.2.2.5.3.9.3.5 0 .9-.2 1.2-.5.3-.4.5-.8.5-1.3v-.6zm3.5-4.6c-.3 0-.6-.3-.6-.6 0-.4.3-.6.6-.7.2 0 .4.1.5.2.1.1.2.3.2.5s-.1.3-.2.5c-.1 0-.3.1-.5.1zm.5 7.8h-1v-6.2h1v6.2zm3.2-.1h-1v-9.2h1v9.2zm7-6.2l-2.8 7.2c-.5 1.3-1.2 1.9-2.1 1.9-.2 0-.4 0-.6-.1v-.9c.2.1.4.1.6.1.5 0 1-.4 1.1-.9l.5-1.2-2.4-6.2h1.1l1.7 4.8c0 .1.1.2.1.5 0-.1.1-.2.1-.5l1.8-4.8.9.1zm9.7 6.2h-1v-1c-.4.7-1.1 1.2-1.9 1.1-1.5 0-2.2-.9-2.2-2.6v-3.7h1v3.5c0 1.3.5 2 1.5 2 .5 0 .9-.2 1.2-.5.3-.4.5-.9.5-1.4v-3.6h1l-.1 6.2zm3.2-.9v3.7h-1v-9h1v1.1c.4-.8 1.2-1.3 2.1-1.2.7 0 1.4.3 1.9.8.5.6.7 1.4.7 2.2 0 .9-.2 1.8-.8 2.5-.5.6-1.3 1-2.1.9-.7.1-1.4-.3-1.8-1zm0-2.5v.9c0 .5.2.9.5 1.3s.8.6 1.3.5c.6 0 1.1-.2 1.4-.7.4-.6.6-1.2.5-1.9 0-.6-.1-1.2-.5-1.6-.3-.4-.8-.6-1.3-.6s-1 .2-1.4.6c-.3.4-.5 1-.5 1.5zm11.7 3.4h-1v-1c-.7 1.2-2.2 1.6-3.4.8-.2-.1-.4-.3-.6-.5-.5-.6-.7-1.4-.7-2.3 0-.9.2-1.8.8-2.5.5-.6 1.3-1 2.1-.9.8 0 1.5.3 1.9 1v-3.8h1l-.1 9.2zm-1-2.8v-.9c0-.5-.2-.9-.5-1.3-.3-.3-.8-.5-1.3-.5-.6 0-1.1.2-1.4.7-.4.5-.6 1.2-.5 1.8 0 .6.1 1.2.5 1.7.3.4.8.6 1.3.6s1-.2 1.3-.6c.4-.4.6-.9.6-1.5zm7.5 2.8h-1v-1c-.6 1.1-2 1.4-3.1.8-.1-.1-.2-.1-.3-.2-.3-.3-.5-.8-.5-1.3 0-1.2.7-1.8 2-2l1.9-.3c0-1-.4-1.6-1.3-1.6-.7 0-1.4.3-2 .8v-1c.6-.4 1.4-.6 2.1-.6 1.4 0 2.2.8 2.2 2.3v4.1zm-1-3.1l-1.5.2c-.4 0-.7.2-1 .3-.3.2-.4.5-.4.9 0 .3.1.6.3.7.2.2.5.3.9.3.5 0 .9-.2 1.2-.5.3-.4.5-.8.5-1.3v-.6zm5.9 3.1c-.3.1-.6.2-.9.2-1.1 0-1.6-.6-1.6-1.8v-3.7h-1.1v-.9h1.1V476l1-.3v1.8h1.6v.9h-1.6v3.5c0 .3 0 .6.2.9.2.2.4.3.7.3.2 0 .5-.1.6-.2v.8zm6.4-2.8h-4.4c0 .6.2 1.2.5 1.6.4.4.9.6 1.5.6.7 0 1.4-.2 1.9-.7v.9c-.6.4-1.4.6-2.1.6-.8 0-1.5-.3-2.1-.8-.5-.7-.8-1.5-.8-2.4 0-.9.3-1.7.8-2.4.5-.6 1.2-.9 2-.9.7 0 1.4.3 1.9.8.5.6.7 1.4.7 2.2l.1.5zm-1-.8c0-.5-.1-1-.4-1.3-.3-.3-.7-.5-1.1-.5-.4 0-.9.2-1.2.5-.3.4-.5.8-.6 1.3h3.3zm10.6 3.6h-1v-1c-.6 1.1-2 1.4-3.1.8-.1-.1-.2-.1-.3-.2-.4-.3-.5-.8-.5-1.3 0-1.2.7-1.8 2-2l1.9-.3c0-1-.4-1.6-1.3-1.6-.7 0-1.4.3-2 .8v-1c.6-.4 1.4-.6 2.1-.6 1.5 0 2.2.8 2.2 2.3v4.1zm-1-3.1l-1.5.2c-.4 0-.7.2-1 .3-.3.2-.4.5-.4.9 0 .3.1.5.3.7.2.2.5.3.9.3.5 0 .9-.2 1.2-.5.3-.4.5-.8.5-1.3v-.6zm4 2.2v.9h-1v-9.2h1v4.1c.4-.8 1.2-1.3 2.1-1.2.7 0 1.4.3 1.9.8.5.6.7 1.4.7 2.2 0 .9-.2 1.8-.8 2.5-.5.6-1.3 1-2.1.9-.7.1-1.4-.3-1.8-1zm0-2.5v.9c0 .5.2.9.5 1.3s.8.6 1.3.5c.6 0 1.1-.2 1.4-.7.4-.6.6-1.2.5-1.9 0-.6-.1-1.2-.5-1.6-.3-.4-.8-.6-1.3-.6s-1 .2-1.4.6c-.4.4-.5 1-.5 1.5zm9 3.6c-.8 0-1.6-.3-2.2-.9-.6-.6-.9-1.5-.8-2.3-.1-.9.3-1.8.9-2.4.6-.6 1.4-.9 2.3-.9.8 0 1.6.3 2.1.9.6.7.8 1.5.8 2.4 0 .9-.3 1.7-.8 2.4-.7.5-1.5.8-2.3.8zm0-5.7c-.6 0-1.1.2-1.5.6-.4.5-.6 1.2-.6 1.8 0 .6.2 1.2.6 1.7.4.4.9.7 1.5.6.6 0 1.1-.2 1.5-.6.4-.5.6-1.1.5-1.8 0-.6-.1-1.3-.5-1.8-.3-.3-.9-.5-1.5-.5zm9.8 5.5h-1v-1c-.4.7-1.1 1.2-1.9 1.1-1.5 0-2.2-.9-2.2-2.6v-3.7h1v3.5c0 1.3.5 2 1.5 2 .5 0 .9-.2 1.2-.5.3-.4.5-.9.5-1.4v-3.6h1l-.1 6.2zm5 0c-.3.1-.6.2-.9.2-1.1 0-1.6-.6-1.6-1.8v-3.7h-1.1v-.9h1.1V476l1-.3v1.8h1.5v.9h-1.5v3.5c0 .3 0 .6.2.9.2.2.4.3.7.3.2 0 .5-.1.6-.2v.8zm7.8 0c-.3.1-.6.2-.9.2-1.1 0-1.6-.6-1.6-1.8v-3.7h-1.1v-.9h1.1V476l1-.3v1.8h1.5v.9h-1.6v3.5c0 .3 0 .6.2.9.2.2.4.3.7.3.2 0 .5-.1.6-.2v.8zm6.6 0h-1v-3.6c0-1.3-.5-1.9-1.4-1.9-.5 0-.9.2-1.2.6-.3.4-.5.9-.5 1.4v3.5h-1v-9.2h1v4c.4-.7 1.2-1.2 2-1.2 1.4 0 2.1.9 2.1 2.5v3.9zm7-2.8h-4.4c0 .6.2 1.2.6 1.6.4.4.9.6 1.5.6.7 0 1.4-.2 1.9-.7v.9c-.6.4-1.4.6-2.2.6-.8 0-1.5-.3-2-.9-.5-.7-.8-1.5-.8-2.4 0-.9.3-1.7.8-2.4.5-.6 1.2-.9 2-.9.7 0 1.4.3 1.9.8.5.6.7 1.4.7 2.2v.6zm-1-.8c0-.5-.1-1-.4-1.3-.3-.3-.7-.5-1.1-.5-.4 0-.9.2-1.2.5-.3.4-.6.8-.6 1.3h3.3zm7.2 2.7v3.7h-1v-9h1v1.1c.4-.8 1.2-1.3 2.1-1.2.7 0 1.4.3 1.9.8.5.6.7 1.4.7 2.2 0 .9-.2 1.8-.8 2.5-.5.6-1.3 1-2.1.9-.7.1-1.4-.3-1.8-1zm0-2.5v.9c0 .5.2.9.5 1.3s.8.6 1.3.5c.6 0 1.1-.2 1.4-.7.4-.6.6-1.2.5-1.9 0-.6-.1-1.2-.5-1.6-.3-.4-.8-.6-1.3-.6s-1 .2-1.4.6c-.3.4-.5 1-.5 1.5zm7.4 3.4h-1v-9.2h1v9.2zm6.6 0h-1v-1c-.6 1.1-2 1.4-3.1.8-.1-.1-.2-.1-.3-.2-.4-.3-.5-.8-.5-1.3 0-1.2.7-1.8 2-2l1.9-.3c0-1-.4-1.6-1.3-1.6-.7 0-1.4.3-2 .8v-1c.6-.4 1.4-.6 2.1-.6 1.5 0 2.2.8 2.2 2.3v4.1zm-1-3.1l-1.5.2c-.4 0-.7.2-1 .3-.3.2-.4.5-.4.9 0 .3.1.5.3.7.2.2.5.3.9.3.5 0 .9-.2 1.2-.5.3-.4.5-.8.5-1.3v-.6zm8.1 3.1h-1v-3.5c0-1.3-.5-2-1.4-2-.5 0-.9.2-1.2.6-.3.4-.5.9-.5 1.4v3.5h-1v-6.2h1v1c.4-.7 1.2-1.2 2-1.2.6 0 1.2.2 1.5.7.4.6.6 1.2.5 1.9l.1 3.8zm7-2.8h-4.4c0 .6.2 1.2.6 1.6.4.4.9.6 1.5.6.7 0 1.4-.2 1.9-.7v.9c-.6.4-1.4.6-2.2.6-.8 0-1.5-.3-2.1-.8-.5-.7-.8-1.5-.7-2.4 0-.9.3-1.7.8-2.4.5-.6 1.2-.9 2-.9.7 0 1.4.3 1.9.8.5.6.7 1.4.7 2.2v.5zm-1-.8c0-.5-.1-1-.4-1.3-.3-.3-.7-.5-1.1-.5-.4 0-.9.2-1.2.5-.3.4-.6.8-.6 1.3h3.3zm5.5 3.6c-.3.1-.6.2-.9.2-1.1 0-1.6-.6-1.6-1.8v-3.7h-1.1v-.9h1.1V476l1-.3v1.8h1.5v.9h-1.5v3.5c0 .3 0 .6.2.9.2.2.4.3.7.3.2 0 .5-.1.6-.2v.8zm1.1-.2v-1.1c.5.4 1.1.6 1.8.6.9 0 1.3-.3 1.3-.9 0-.1 0-.3-.1-.4l-.3-.3c-.1-.1-.3-.2-.5-.2l-.5-.2c-.3-.1-.5-.2-.7-.3-.2-.1-.4-.2-.5-.4-.1-.1-.2-.3-.3-.5-.1-.2-.1-.4-.1-.6 0-.3.1-.5.2-.8.1-.2.3-.4.5-.6.2-.2.5-.3.8-.3.3-.1.6-.1.9-.1.5 0 1 .1 1.4.3v1c-.5-.3-1-.5-1.6-.5-.2 0-.3 0-.5.1-.1 0-.3.1-.4.2-.1.1-.2.2-.2.3-.1.1-.1.2-.1.4 0 .1 0 .3.1.4l.3.3c.1.1.3.2.4.2l.5.2c.3.1.5.2.7.3.2.1.4.2.6.4.1.1.3.3.4.5.1.2.1.4.1.6 0 .3-.1.6-.2.8-.1.2-.3.4-.5.6-.2.2-.5.3-.8.3-.3.1-.6.1-.9.1-.7 0-1.3-.1-1.8-.4zm7-8.6l-.8 2.7h-.7l.7-2.7h.8zm-236.9 22.8v3.8h-1v-9.1h1v1.1c.4-.8 1.2-1.3 2.1-1.2.7 0 1.4.3 1.9.8.5.6.7 1.4.7 2.2 0 .9-.2 1.8-.8 2.5-.5.6-1.3 1-2.1.9-.7.1-1.4-.3-1.8-1zm0-2.5v.9c0 .5.2 1 .5 1.3.3.4.8.6 1.3.5.6 0 1.1-.2 1.4-.7.4-.6.5-1.2.5-1.9 0-.6-.1-1.2-.5-1.6-.3-.4-.8-.6-1.3-.6s-1 .2-1.4.6c-.4.4-.6 1-.5 1.5zm9 3.6c-.8 0-1.6-.3-2.2-.9-.6-.6-.9-1.5-.8-2.3-.1-.9.3-1.8.9-2.4.6-.6 1.4-.9 2.3-.9.8 0 1.6.3 2.2.8.5.7.8 1.5.8 2.4 0 .9-.3 1.7-.8 2.4-.8.6-1.6.9-2.4.9zm0-5.7c-.6 0-1.1.2-1.5.7-.4.5-.6 1.1-.6 1.8 0 .6.2 1.3.6 1.7.4.4.9.7 1.5.6.6 0 1.1-.2 1.5-.6.4-.5.6-1.1.5-1.8 0-.6-.1-1.3-.5-1.8-.4-.4-.9-.6-1.5-.6zm4.4 5.3v-1.1c.5.4 1.1.6 1.8.6.9 0 1.3-.3 1.3-.9 0-.1 0-.3-.1-.4l-.3-.3c-.1-.1-.3-.2-.4-.2l-.6-.2c-.3-.1-.5-.2-.7-.3-.2-.1-.4-.2-.5-.4-.1-.1-.2-.3-.3-.5-.1-.2-.1-.4-.1-.6 0-.3.1-.5.2-.8.1-.2.3-.4.5-.6.2-.2.5-.3.8-.3.3-.1.6-.1.9-.1.5 0 1 .1 1.4.3v1c-.5-.3-1-.5-1.6-.5-.2 0-.3 0-.5.1-.1 0-.3.1-.4.2-.1.1-.2.2-.2.3-.1.1-.1.2-.1.4 0 .1 0 .3.1.4l.3.3c.1.1.3.2.4.2l.6.2c.2.1.5.2.7.3.2.1.4.2.6.4.1.1.3.3.4.5.1.2.1.4.1.7 0 .3-.1.6-.2.8-.1.2-.3.4-.5.6-.2.2-.5.3-.8.3-1.1.1-2 0-2.8-.4zm8.6.2c-.3.1-.6.2-.9.2-1.1 0-1.6-.6-1.6-1.8v-3.7H154v-.8h1.1V491l1-.3v1.8h1.6v.8h-1.6v3.5c0 .3 0 .6.2.9.2.2.4.3.7.3.2 0 .5-.1.6-.2v.8zm2-7.8c-.2 0-.3-.1-.4-.2-.1-.1-.2-.3-.2-.5s.1-.3.2-.5c.1-.1.3-.2.4-.2.2 0 .3.1.5.2.1.1.2.3.2.5s-.1.3-.2.5c-.2.2-.3.3-.5.2zm.5 7.8h-1v-6.2h1v6.2zm4.7.2c-.8 0-1.6-.3-2.2-.9-.6-.6-.9-1.5-.8-2.3-.1-.9.3-1.8.9-2.4.6-.6 1.4-.9 2.3-.9.8 0 1.6.3 2.2.8.6.7.8 1.5.8 2.4 0 .9-.3 1.7-.8 2.4-.7.6-1.6.9-2.4.9zm.1-5.7c-.6 0-1.1.2-1.5.7-.4.5-.6 1.1-.6 1.8 0 .6.2 1.2.6 1.7.4.4.9.7 1.5.6.6 0 1.1-.2 1.5-.6.4-.5.6-1.1.5-1.8 0-.6-.1-1.3-.5-1.8-.4-.4-1-.6-1.5-.6zm9.8 5.5h-1v-3.5c0-1.3-.5-2-1.4-2-.5 0-.9.2-1.2.6-.3.4-.5.9-.5 1.4v3.5h-1v-6.2h1v1c.4-.7 1.2-1.2 2-1.2.6 0 1.2.2 1.6.7.4.6.6 1.2.5 1.9v3.8zm2.6-7.8c-.2 0-.3-.1-.4-.2-.1-.1-.2-.3-.2-.5s.1-.3.2-.5c.1-.1.3-.2.4-.2.2 0 .3.1.5.2.1.1.2.3.2.5s-.1.3-.2.5c-.2.2-.4.3-.5.2zm.4 7.8h-1v-6.2h1v6.2zm7.3 0h-1v-3.5c0-1.3-.5-2-1.4-2-.5 0-.9.2-1.2.6-.3.4-.5.9-.5 1.4v3.5h-1v-6.2h1v1c.4-.7 1.2-1.2 2-1.2.6 0 1.2.2 1.6.7.4.6.6 1.2.5 1.9v3.8zm7.3-.5c0 2.3-1.1 3.4-3.3 3.4-.7 0-1.4-.1-2-.4v-1c.6.4 1.3.6 2 .6 1.5 0 2.3-.8 2.3-2.4v-.7c-.4.8-1.3 1.2-2.1 1.2-.7 0-1.4-.3-1.9-.8-.5-.6-.7-1.4-.7-2.2 0-.9.2-1.8.8-2.5.5-.6 1.3-1 2.1-.9.8 0 1.5.3 1.9 1v-.9h1l-.1 5.6zm-1-2.3v-.9c0-.5-.2-.9-.5-1.3-.3-.3-.8-.5-1.2-.5-.6 0-1.1.2-1.4.7-.4.6-.6 1.2-.5 1.9 0 .6.1 1.2.5 1.7.3.4.8.6 1.3.6s1-.2 1.4-.6c.3-.5.4-1 .4-1.6zm14.4 3c-.2 0-.4 0-.6-.1-.2-.1-.3-.1-.5-.3-.2-.1-.3-.3-.4-.4-.1-.2-.3-.3-.4-.6-.2.2-.4.3-.6.5-.2.2-.5.3-.7.4l-.9.3c-.3.1-.7.1-1 .1-.4 0-.8-.1-1.2-.2-.3-.1-.7-.3-.9-.5-.3-.2-.5-.5-.6-.8-.1-.3-.2-.7-.2-1.1 0-.6.2-1.1.5-1.6.4-.5.9-.8 1.5-1.1-.1-.1-.3-.2-.4-.3-.1-.1-.2-.3-.3-.4-.1-.2-.2-.3-.2-.5-.1-.2-.1-.4-.1-.6 0-.3 0-.6.2-.8.1-.2.3-.5.5-.6.2-.2.4-.3.7-.4.3-.1.6-.1.9-.1.3 0 .6 0 .9.1.2.1.5.2.7.4.2.2.3.4.4.6.1.2.2.5.1.8 0 .4-.1.9-.4 1.2-.3.4-.8.6-1.2.8.3.1.5.2.8.4.2.2.4.3.6.5.2.2.4.4.5.6.2.2.3.5.5.7.3-.5.6-1 .7-1.5.2-.6.2-1.1.2-1.7v-.4c0-.1 0-.3-.1-.4h1c0 .1 0 .3.1.4v.4c0 .4 0 .7-.1 1.1-.1.4-.2.7-.3 1.1-.1.3-.3.7-.4 1-.2.3-.3.6-.5.9.1.2.3.4.4.5.1.1.2.3.4.4.1.1.2.2.4.2.1 0 .3.1.4.1h.4l.4-.1v.9c-.1.1-.3.1-.4.1h-.8zm-5-.9c.3 0 .6 0 .8-.1.2-.1.5-.2.7-.3.2-.1.4-.2.6-.4.2-.1.3-.3.5-.5-.2-.4-.5-.7-.7-1-.2-.2-.4-.5-.6-.7-.2-.2-.4-.4-.7-.5-.3-.2-.5-.3-.8-.4-.2.1-.5.2-.7.3-.2.1-.4.3-.6.4-.2.2-.3.4-.4.6-.1.2-.1.5-.1.8 0 .3 0 .5.1.7.1.2.2.4.4.5.2.1.4.3.6.3.3.3.6.3.9.3zm1.5-6.2c0-.2 0-.4-.1-.5-.1-.1-.2-.3-.3-.3-.1-.1-.2-.2-.4-.2-.1 0-.3-.1-.4-.1-.3 0-.7.1-.9.3-.2.2-.4.5-.4.9 0 .2 0 .3.1.5 0 .1.1.3.2.4l.3.3c.1.1.3.2.4.2.4-.1.8-.3 1.1-.6.2-.2.4-.5.4-.9zm14.5 6.9h-1V495c0-1.3-.5-1.9-1.4-1.9-.5 0-.9.2-1.2.6-.3.4-.5.9-.5 1.4v3.5h-1v-9.2h1v4c.4-.7 1.2-1.2 2-1.2 1.4 0 2.1.8 2.1 2.5v3.9zm4.6.2c-.8 0-1.6-.3-2.2-.9-.6-.6-.9-1.5-.8-2.3-.1-.9.3-1.8.9-2.4.6-.6 1.4-.9 2.3-.9.8 0 1.6.3 2.1.8.6.7.8 1.5.8 2.4 0 .9-.3 1.7-.8 2.4-.7.6-1.5.9-2.3.9zm.1-5.7c-.6 0-1.1.2-1.5.7-.4.5-.6 1.1-.6 1.8 0 .6.2 1.2.6 1.7.4.4.9.7 1.5.6.6 0 1.1-.2 1.5-.6.4-.5.6-1.1.5-1.8 0-.6-.1-1.3-.5-1.8-.4-.4-1-.6-1.5-.6zm12.5-.7l-1.9 6.2h-1l-1.3-4.4c-.1-.2-.1-.4-.1-.6 0 .2-.1.4-.1.6l-1.4 4.5h-1l-1.9-6.2h1l1.3 4.7c0 .2.1.4.1.5h.1c0-.2.1-.4.1-.6l1.4-4.7h.9l1.3 4.7c0 .2.1.4.1.6 0-.2.1-.4.1-.6l1.2-4.7h1.1zm7.7 6.2c-.3.1-.6.2-.9.2-1.1 0-1.6-.6-1.6-1.8v-3.7h-1v-.8h1V491l1-.3v1.8h1.6v.8H240v3.5c0 .3 0 .6.2.9.2.2.4.3.7.3.2 0 .5-.1.6-.2l.1.8zm6.6 0h-1V495c0-1.3-.5-1.9-1.4-1.9-.5 0-.9.2-1.2.6-.3.4-.5.9-.5 1.4v3.5h-1v-9.2h1v4c.4-.7 1.2-1.2 2-1.2 1.4 0 2.1.8 2.1 2.5v3.9zm6.9-2.8h-4.4c0 .6.2 1.2.6 1.6.4.4.9.6 1.5.6.7 0 1.4-.2 1.9-.7v.9c-.6.4-1.4.6-2.2.6-.8 0-1.5-.3-2.1-.8-.5-.7-.8-1.5-.8-2.4 0-.9.3-1.7.8-2.4.5-.6 1.2-.9 2-.9.7 0 1.4.3 1.9.8.5.6.7 1.4.7 2.2l.1.5zm-1-.9c0-.5-.1-1-.4-1.3-.3-.3-.7-.5-1.1-.5-.5 0-.9.2-1.2.5-.3.4-.6.8-.6 1.3h3.3zm7.6-2.5l-2.8 7.2c-.5 1.3-1.2 1.9-2.1 1.9-.2 0-.4 0-.6-.1v-.9c.2.1.4.1.6.1.5 0 1-.4 1.1-.9l.5-1.2-2.4-6.2h1.1l1.7 4.8c.1.2.1.3.1.5 0-.1.1-.2.1-.5l1.8-4.8.9.1zm8.9 5.9c-.5.3-1.1.4-1.7.4-.8 0-1.6-.3-2.1-.9-.6-.6-.8-1.4-.8-2.2 0-.9.3-1.8.9-2.5.6-.6 1.5-1 2.3-.9.5 0 1 .1 1.4.3v1c-.4-.3-.9-.5-1.5-.5s-1.2.2-1.5.7c-.4.5-.6 1.1-.6 1.8 0 .6.2 1.2.6 1.7.4.4 1 .7 1.5.6.6 0 1.1-.2 1.5-.5v1zm6.1.3h-1v-1c-.4.7-1.1 1.1-1.9 1.1-.5 0-1-.1-1.4-.5-.4-.3-.5-.8-.5-1.3 0-1.2.7-1.8 2-2l1.9-.3c0-1.1-.4-1.6-1.3-1.6-.7 0-1.5.3-2 .8v-1c.6-.4 1.4-.6 2.1-.6 1.5 0 2.2.8 2.2 2.3l-.1 4.1zm-1-3.1l-1.5.2c-.4 0-.7.2-1 .3-.3.2-.4.5-.4.9 0 .3.1.5.3.7.2.2.5.3.9.3.5 0 .9-.2 1.2-.5.3-.4.5-.8.5-1.3v-.6zm8.2 3.1h-1v-3.5c0-1.3-.5-2-1.4-2-.5 0-.9.2-1.2.6-.3.4-.5.9-.5 1.4v3.5h-1v-6.2h1v1c.4-.7 1.2-1.2 2-1.2.6 0 1.2.2 1.5.7.4.5.6 1.2.5 1.9l.1 3.8zm9.9 0h-1v-1c-.4.7-1.1 1.1-1.9 1.1-.5 0-1-.1-1.4-.5-.4-.3-.5-.8-.5-1.3 0-1.2.7-1.8 2-2l1.9-.3c0-1.1-.4-1.6-1.3-1.6-.7 0-1.5.3-2 .8v-1c.6-.4 1.4-.6 2.1-.6 1.5 0 2.2.8 2.2 2.3l-.1 4.1zm-1-3.1l-1.5.2c-.4 0-.7.2-1 .3-.3.2-.4.5-.4.9 0 .3.1.6.3.7.2.2.5.3.9.3.5 0 .9-.2 1.2-.5.3-.4.5-.8.5-1.3v-.6zm6.1-5.2c-.2-.1-.4-.2-.7-.2-.7 0-1 .4-1 1.3v1h1.5v.8h-1.5v5.4h-1v-5.4h-1.1v-.8h1.1v-1c0-.6.2-1.1.6-1.5.4-.4.9-.6 1.4-.6.2 0 .5 0 .7.1v.9zm4 0c-.2-.1-.4-.2-.6-.2-.7 0-1 .4-1 1.3v1h1.5v.8h-1.5v5.4h-1v-5.4h-1.1v-.8h1.1v-1c0-.6.2-1.1.6-1.5.4-.4.9-.6 1.4-.6.2 0 .5 0 .7.1l-.1.9zm5.9 5.5h-4.4c0 .6.2 1.2.5 1.6.4.4.9.6 1.5.6.7 0 1.4-.2 1.9-.7v.9c-.6.4-1.4.6-2.1.6-.8 0-1.5-.3-2.1-.8-.5-.7-.8-1.5-.8-2.4 0-.9.3-1.7.8-2.4.5-.6 1.2-.9 2-.9.7 0 1.4.2 1.9.8.5.6.7 1.4.7 2.2l.1.5zm-1-.9c0-.5-.1-1-.4-1.3-.3-.3-.7-.5-1.1-.5-.4 0-.9.2-1.2.5-.3.4-.6.8-.6 1.3h3.3zm6.9 3.4c-.5.3-1.1.4-1.7.4-.8 0-1.6-.3-2.1-.9-.6-.6-.8-1.4-.8-2.2 0-.9.3-1.8.9-2.5.6-.6 1.5-1 2.3-.9.5 0 1 .1 1.4.3v1c-.4-.3-.9-.5-1.5-.5s-1.2.2-1.6.7c-.4.5-.6 1.1-.6 1.8 0 .6.2 1.2.6 1.7.4.4 1 .7 1.5.6.6 0 1.1-.2 1.5-.5l.1 1zm4.5.3c-.3.1-.6.2-.9.2-1.1 0-1.6-.6-1.6-1.8v-3.7h-1.1v-.8h1.1V491l1-.3v1.8h1.6v.8h-1.6v3.5c0 .3 0 .6.2.9.2.2.4.3.7.3.2 0 .5-.1.6-.2v.8zm9.9-6.2l-2.8 7.2c-.5 1.3-1.2 1.9-2.1 1.9-.2 0-.4 0-.6-.1v-.9c.2.1.4.1.6.1.5 0 1-.4 1.1-.9l.5-1.2-2.4-6.2h1.1l1.7 4.8c0 .1.1.2.1.5 0-.1.1-.2.1-.5l1.8-4.8.9.1zm3.8 6.4c-.8 0-1.6-.3-2.2-.9-.6-.6-.9-1.5-.8-2.3-.1-.9.3-1.8.9-2.4.6-.6 1.4-.9 2.3-.9.8 0 1.6.3 2.2.8.5.7.8 1.5.8 2.4 0 .9-.3 1.7-.8 2.4-.8.6-1.6.9-2.4.9zm0-5.7c-.6 0-1.1.2-1.5.7-.4.5-.6 1.1-.5 1.8 0 .6.2 1.3.6 1.7.4.4.9.7 1.5.6.6 0 1.1-.2 1.5-.6.4-.5.6-1.1.5-1.8 0-.6-.1-1.3-.5-1.8-.5-.4-1-.6-1.6-.6zm9.7 5.5h-1v-1c-.3.7-1.1 1.2-1.9 1.1-1.5 0-2.2-.9-2.2-2.6v-3.7h1v3.6c0 1.3.5 2 1.5 2 .5 0 .9-.2 1.2-.5.3-.4.5-.9.5-1.4v-3.6h1l-.1 6.1zm5.4-5.2c-.2-.1-.5-.2-.7-.2-.4 0-.8.2-1.1.6-.3.5-.5 1.1-.4 1.6v3.2h-1v-6.2h1v1.3c.1-.4.3-.7.6-1 .4-.4 1-.5 1.6-.3v1zm10 5.2h-1v-1.1c-.4.8-1.2 1.2-2.1 1.2-.7 0-1.4-.3-1.9-.8-.5-.7-.7-1.5-.7-2.3-.1-.9.2-1.8.8-2.5.5-.6 1.3-1 2.1-.9.8 0 1.5.3 1.9 1v-3.8h1v9.2zm-1-2.8v-.9c0-.5-.2-.9-.5-1.3-.3-.3-.8-.5-1.3-.5-.6 0-1.1.2-1.4.7-.4.5-.6 1.2-.5 1.8 0 .6.1 1.2.5 1.7.3.4.8.6 1.3.6s1-.2 1.4-.6c.4-.4.6-.9.5-1.5zm7.6 2.8h-1v-1c-.4.7-1.1 1.1-1.9 1.1-.5 0-1-.1-1.4-.5-.4-.3-.5-.8-.5-1.3 0-1.2.7-1.8 2-2l1.9-.3c0-1.1-.4-1.6-1.3-1.6-.7 0-1.5.3-2 .8v-1c.6-.4 1.4-.6 2.1-.6 1.5 0 2.2.8 2.2 2.3l-.1 4.1zm-1-3.1l-1.5.2c-.4 0-.7.2-1 .3-.3.2-.4.5-.4.9 0 .3.1.6.3.7.2.2.5.3.9.3.5 0 .9-.2 1.2-.5.3-.4.5-.8.5-1.3v-.6zm7.9-3.1l-2.8 7.2c-.5 1.3-1.2 1.9-2.1 1.9-.2 0-.4 0-.6-.1v-.9c.2.1.4.1.6.1.5 0 1-.4 1.1-.9l.5-1.2-2.4-6.2h1.1l1.7 4.8c0 .1.1.2.1.5 0-.1.1-.2.1-.5l1.8-4.8.9.1zm2 6.3c-.2 0-.4-.1-.5-.2-.1-.1-.2-.3-.2-.5s.1-.4.2-.5c.1-.1.3-.2.5-.2s.3.1.5.2c.1.1.2.3.2.5s-.1.3-.2.5-.3.2-.5.2zm.5-8.8l-.1 6.2h-.8l-.1-6.2h1z"/><path class="st3" d="M263.4 303.8H308c2 0 3.6 1.6 3.6 3.6v1.5c0 2-1.6 3.6-3.6 3.6h-44.7c-2 0-3.6-1.6-3.6-3.6v-1.5c0-1.9 1.6-3.6 3.7-3.6z"/><circle class="st3" cx="239.9" cy="308.2" r="6.1"/><path class="st8" d="M229.2 398.8c.6-3.5 1.4-6.9 2.4-10.2 1-3.3 2.2-6.5 3.5-9.6 1.3-3.1 2.8-6.3 4.4-9.3 1.6-3.1 3.2-6.2 5-9.3h-21.6V358H248v1c-1.9 3.5-3.7 6.9-5.4 10.1-1.7 3.3-3.2 6.5-4.5 9.7-1.4 3.2-2.5 6.4-3.5 9.7-1 3.3-1.8 6.7-2.4 10.3h-3zM257 373.7c-.6 0-1.2-.2-1.6-.7-.4-.5-.7-1-.7-1.7 0-.6.2-1.2.7-1.6.4-.4 1-.6 1.6-.6.6 0 1.2.2 1.7.6.5.4.7 1 .7 1.6 0 .6-.2 1.2-.7 1.7-.5.5-1.1.7-1.7.7zm0 25.6c-.6 0-1.2-.2-1.6-.7-.4-.4-.7-1-.7-1.6 0-.7.2-1.2.7-1.6.4-.4 1-.6 1.6-.6.6 0 1.2.2 1.7.6.5.4.7 1 .7 1.6 0 .6-.2 1.2-.7 1.6-.5.4-1.1.7-1.7.7zM278.7 399.5c-3.8 0-6.7-1.7-8.8-5.2-2.1-3.5-3.2-8.5-3.2-15.1 0-7.3 1.1-12.7 3.3-16.4 2.2-3.7 5.4-5.5 9.5-5.5 7.9 0 11.8 7 11.8 20.9 0 6.9-1.1 12.2-3.3 15.9s-5.3 5.4-9.3 5.4zm.7-39.8c-3.1 0-5.6 1.6-7.3 4.8-1.7 3.2-2.6 8-2.6 14.4 0 5.8.8 10.3 2.5 13.5 1.7 3.1 4 4.7 7.1 4.7 3 0 5.4-1.6 7-4.8 1.7-3.2 2.5-7.8 2.5-13.7 0-12.6-3.1-18.9-9.2-18.9zM309.3 399.5c-3.8 0-6.7-1.7-8.8-5.2-2.1-3.5-3.2-8.5-3.2-15.1 0-7.3 1.1-12.7 3.3-16.4 2.2-3.7 5.4-5.5 9.5-5.5 7.9 0 11.8 7 11.8 20.9 0 6.9-1.1 12.2-3.3 15.9s-5.3 5.4-9.3 5.4zm.7-39.8c-3.1 0-5.6 1.6-7.3 4.8-1.7 3.2-2.6 8-2.6 14.4 0 5.8.8 10.3 2.5 13.5 1.7 3.1 4 4.7 7.1 4.7 3 0 5.4-1.6 7-4.8 1.7-3.2 2.5-7.8 2.5-13.7 0-12.6-3.1-18.9-9.2-18.9z"/></g><path d="M286.2 210.7l2.1 10.4 10.4 2.1-10.4 2.1-2.1 10.4-2.1-10.4-10.5-2.1 10.5-2.1 2.1-10.4zm212.7 160l2.1 10.5 10.4 2.1-10.4 2.1-2.1 10.4-2.1-10.4-10.4-2.1 10.4-2.1 2.1-10.5zM59.7 402.5l1.4 6.8 6.8 1.4-6.8 1.4-1.4 6.8-1.4-6.8-6.8-1.4 6.8-1.4 1.4-6.8zm404.6 122.6l1.4 6.9 6.9 1.4-6.9 1.4-1.4 6.9-1.4-6.9-6.9-1.4 6.9-1.4 1.4-6.9zM185.9 109.2l2.1 10.4 10.4 2.1-10.4 2.1-2.1 10.4-2.1-10.4-10.4-2.1 10.4-2.1 2.1-10.4z" opacity=".2" fill="#333" stroke="#a5802a" stroke-width="2" stroke-miterlimit="10"/></svg>