<svg xmlns="http://www.w3.org/2000/svg" viewBox="0 0 546.73 610.4"><defs><clipPath id="a"><path fill="none" d="M57.78 257.14h417.07v354.78H57.78z"/></clipPath></defs><g data-name="Comp 1"><g opacity=".46" stroke="#a5802a" stroke-miterlimit="10" stroke-width="2"><path d="M424.39 167s-19.7 13.87 2.68 35.81c0 0-12.08-.9-16.11-9.85 0 0-12.54 23.28 9.85 46.11 0 0-30-11.64-29.1-29.1 1-18.8-2.24-22.38-2.24-22.38s-1.79 19.25-5.37 29.54c0 0-1.34-14.77-4-23.28 0 0-27.76 12.09-3.13 49.69s5.69 52.49 5.69 52.49c-2.4-21-34.6-29.55-40.2-40.18s-7.16-9.33-7.16-9.33c3.58 8.59.22 13.89.22 13.89s-.22-13.89-17.29-30.82S294.51 167 294.51 167c-9.51 16.11-1.35 28.3-1.35 28.3-14.1-16.93-26.38-47.53 2.27-83.16 24.43-30.37 26.21-44.4 26.21-44.4s1.73-9.64 10.08-11.44" fill="#262626"/><path d="M327.25 63.46C320.08 36 383.65 14.51 398.87 53v-.6l42.08 17 16.12 36.7L487 120.76a12.07 12.07 0 0 1 5.77 15.66l-22.27 51.19s-28.21-20.15-53.72-6.27" fill="#262626"/><path d="M348.47 64.63c-40.61-5.53-55.33 35.55-55.33 35.55.4-28.41 15.5-48.61 40.84-51.26M385.74 63.46A14.43 14.43 0 1 0 365 80.56" fill="#262626"/><path d="M376.36 130.17c-4.3 12.31 2.88 26 15.34 30.31a20.52 20.52 0 0 1-24.61-6.14M429.9 100.86l.59 18.28" fill="none"/><path d="M486.61 150.6s3-13.73-7.16-17.31c-5.31-1.87 3.58-13.73 3.58-13.73M480.64 163.73s-5.24 3.63-14.32.6-15.52 3.58-15.52 3.58" fill="#262626"/><path d="M389.4 187.38S366 166.12 367.24 153s18.5-31.64 11.34-42.38-6-16.71-6-16.71" fill="none"/></g><path fill="#a5802a" d="M392.36 280.5l5.19-11.97-11.52-6.11 12.59-3.41-2.39-12.82 10.51 7.73 8.53-9.88.51 13.04 13.04.51-9.88 8.53 7.73 10.52-12.82-2.4-3.4 12.59-6.12-11.52-11.97 5.19zM11.04 264.06l5.2-11.97-11.53-6.12 12.6-3.4-2.4-12.82 10.51 7.72 8.53-9.87.52 13.04 13.03.51-9.87 8.53 7.73 10.51-12.83-2.39-3.4 12.59-6.12-11.52-11.97 5.19zM330.3 198.29l5.19-11.97-11.52-6.12 12.59-3.4-2.4-12.82 10.51 7.72 8.53-9.87.52 13.04 13.03.51-9.87 8.53 7.73 10.51-12.83-2.4-3.4 12.6-6.12-11.52-11.96 5.19zM148.99 259.71l-.58-9.95-8.53-5.17 9.29-3.63 2.28-9.71 6.32 7.72 9.94-.83-5.39 8.39 3.87 9.2-9.65-2.53-7.55 6.51zM339.5 150.23l-.58-9.95-8.53-5.17 9.29-3.63 2.28-9.71 6.32 7.72 9.94-.83-5.39 8.39 3.86 9.2-9.64-2.53-7.55 6.51zM390.78 219.56l-.58-9.96-8.52-5.17 9.29-3.62 2.28-9.71 6.32 7.71 9.94-.83-5.39 8.4 3.86 9.19-9.65-2.53-7.55 6.52zM430.75 127.66l-1.44-9.87-8.94-4.42 8.94-4.41 1.44-9.87 6.96 7.14 9.83-1.68-4.64 8.83 4.64 8.82-9.83-1.68-6.96 7.14zM111.7 359.22l7.93-4.07 4.49-7.7 4.06 7.94 7.7 4.48-7.93 4.07-4.49 7.7-4.06-7.94-7.7-4.48zM108.25 301.25l7.93-4.07 4.49-7.7 4.06 7.94 7.7 4.48-7.93 4.06-4.49 7.7-4.06-7.93-7.7-4.48zM504.57 239.99l7.07 5.43 8.87.77-5.43 7.06-.77 8.88-7.06-5.44-8.88-.76 5.44-7.07.76-8.87zM398.07 94.77l7.08-5.43 3.02-8.38 5.43 7.07 8.38 3.03-7.07 5.43-3.03 8.38-5.43-7.07-8.38-3.03zM445.776 255.962l47.627-5.553.161 1.38-47.627 5.554zM51.348 244.34l81.415-1.578.027 1.39-81.415 1.577zM130.352 290.622l15.29-27.013 1.21.685-15.29 27.013zM119.506 343.507l.59-22.672 1.39.036-.59 22.672zM183.426 237.642L314.54 201.33l.371 1.34-131.114 36.311zM368.159 120.016l25.23-18.642.826 1.118-25.23 18.642z"/><g clip-path="url(#a)"><rect x="108.19" y="287.16" width="329.06" height="483.58" rx="34.22" ry="34.22" fill="#1c1c1c" stroke="#a5802a" stroke-miterlimit="10" stroke-width="2"/><path d="M143.49 286.53h258.46a35.31 35.31 0 0 1 35.31 35.31v36.66H108.19v-36.67a35.31 35.31 0 0 1 35.3-35.3z" stroke="#a5802a" stroke-miterlimit="10" stroke-width="2"/><rect x="121.28" y="452.63" width="302.88" height="95.99" rx="8.93" ry="8.93" fill="#0c0c0c" stroke="#a5802a" stroke-miterlimit="10" stroke-width="2"/><path fill="none" stroke="#a5802a" stroke-miterlimit="10" stroke-width="2" d="M121.62 488.98h302.54"/><path d="M184.51 475.64v-.5H186v-9.92h-1.44v-.49h5.82a4.24 4.24 0 0 1 2.43.68 2.52 2.52 0 0 1 1.19 2.18 2.88 2.88 0 0 1-2.5 2.87l2.85 4.7h.59c.16 0 .24.19.24.46h-3l-2.75-5h-1.16v4.48h1.45v.5zm3.67-10.42v4.89h1.36a1.9 1.9 0 0 0 1.12-.34 2.47 2.47 0 0 0 .92-2.13 3 3 0 0 0-.18-1.05 1.93 1.93 0 0 0-2-1.37zM203 474.35a3.25 3.25 0 0 1-3 1.47 4.34 4.34 0 0 1-2.19-.55 3.79 3.79 0 0 1-1.83-3.56 4.31 4.31 0 0 1 .78-2.6 3.7 3.7 0 0 1 3.18-1.51 4.71 4.71 0 0 1 2.06.4 2.32 2.32 0 0 1 1.44 2.16 1.27 1.27 0 0 1-.18.69c-.36.56-1.44.82-3.25.78h-1.83c.06 2.42.79 3.62 2.21 3.62a2.27 2.27 0 0 0 .77-.13 2.67 2.67 0 0 0 1.67-1.5l.43.14a4 4 0 0 1-.26.59zm-3.45-6.22c-.86.27-1.31 1.26-1.36 3l1.39.06a4 4 0 0 0 1.16-.1c.41-.14.61-.5.61-1.07a3 3 0 0 0-.05-.6c-.14-.88-.59-1.32-1.34-1.32a1.48 1.48 0 0 0-.46.03zM209.44 474.16a3.1 3.1 0 0 1-.35.64 2.65 2.65 0 0 1-2.22 1 2.81 2.81 0 0 1-.94-.15 1.9 1.9 0 0 1-1.36-2q0-2.43 4.76-2.49V470a4.09 4.09 0 0 0 0-.63c-.12-.86-.54-1.29-1.27-1.29a1.13 1.13 0 0 0-.52.11 1.44 1.44 0 0 0-.56.92l-.11.31a.91.91 0 0 1-.9.67 1 1 0 0 1-.33 0 .76.76 0 0 1-.58-.8 1.11 1.11 0 0 1 .2-.62c.45-.68 1.43-1 2.95-1a4.89 4.89 0 0 1 1 .09 2.54 2.54 0 0 1 2.21 2.79v3.81c0 .58.13.89.41.91s.58-.44.65-1.29h.47a4.8 4.8 0 0 1-.12.87 1.46 1.46 0 0 1-1.59 1c-1.04-.04-1.61-.6-1.8-1.69zm-1.27.79a2.24 2.24 0 0 0 1.16-1.62v-1.66a6.38 6.38 0 0 0-1.49.19 1.48 1.48 0 0 0-1.23 1.56v.18c0 1 .41 1.45 1.09 1.45a1.24 1.24 0 0 0 .47-.05zM219.81 473.87a2.73 2.73 0 0 1-.14.31 2.76 2.76 0 0 1-2.61 1.64 3.1 3.1 0 0 1-1.81-.58 3.86 3.86 0 0 1-1.47-3.33 4.81 4.81 0 0 1 .85-2.85 3.39 3.39 0 0 1 2.86-1.46 3.22 3.22 0 0 1 2.27.86v-4.16h-1.67v-.48h3.68v11.34h1.08c.15 0 .22.19.22.46h-3zm-3.73-.81c.24 1.3.81 2 1.7 2a1.48 1.48 0 0 0 .89-.29c.75-.56 1.12-1.69 1.12-3.38a6.59 6.59 0 0 0-.16-1.55c-.28-1.1-.83-1.65-1.66-1.65a1.53 1.53 0 0 0-.8.22c-.8.47-1.2 1.58-1.2 3.32a8.27 8.27 0 0 0 .11 1.33zM228.18 475.18c.18 0 .27.18.27.46h-4.34v-.48a2.79 2.79 0 0 0 .57-.05q.6-.15.6-.93v-5.87h-1.17v-.45h3.16v7.3h.73zm-.87-9.21a1.15 1.15 0 0 1-1.09.63 1.38 1.38 0 0 1-.56-.12 1.13 1.13 0 0 1-.67-1.09 1.22 1.22 0 0 1 .15-.58 1.14 1.14 0 0 1 1.08-.68 1.12 1.12 0 0 1 .56.15 1.26 1.26 0 0 1 .53 1.69zM233.45 475.18c.16 0 .23.19.23.46h-4.16v-.48a2.9 2.9 0 0 0 .56-.05c.4-.09.6-.39.6-.93v-5.87h-1.16v-.45h3l.09 1.51a3.36 3.36 0 0 1 .47-.73 2.84 2.84 0 0 1 2.21-1 2.6 2.6 0 0 1 1 .2 2.68 2.68 0 0 1 1.49 2.77v4.59H238.7c.16 0 .24.19.24.46h-4.15v-.48a1.71 1.71 0 0 0 .58-.07c.28-.1.42-.4.42-.91v-3.89a2.68 2.68 0 0 0-.09-.72 1.24 1.24 0 0 0-1.29-1.08 1.43 1.43 0 0 0-.68.19 2.34 2.34 0 0 0-1.09 2v4.48h.56zM245.89 468.11a2.65 2.65 0 0 1 .2-.47 1.59 1.59 0 0 1 1.43-1 1.61 1.61 0 0 1 .54.09.9.9 0 0 1 .61.89.92.92 0 0 1 0 .16.57.57 0 0 1-.62.49.73.73 0 0 1-.45-.2 1 1 0 0 0-.58-.3.83.83 0 0 0-.74.6 2.74 2.74 0 0 1 1 2.16 2.93 2.93 0 0 1-.61 1.81 3.39 3.39 0 0 1-2.86 1.28h-1.83a.71.71 0 0 0-.2 0c-.32.06-.49.23-.49.51a.74.74 0 0 0 0 .12c.06.31.28.46.65.48l3.6.07a3.83 3.83 0 0 1 .6.05 1.87 1.87 0 0 1 1.83 2 1.83 1.83 0 0 1-.27.95c-.59.91-1.85 1.36-3.78 1.36a5.65 5.65 0 0 1-2-.32c-.84-.33-1.25-.82-1.25-1.48a1.7 1.7 0 0 0-.2-2.58 1.74 1.74 0 0 1 .13-.67 1.39 1.39 0 0 1 1.44-.94l-.4-.28a2.81 2.81 0 0 1-1.28-2.29 2.69 2.69 0 0 1 .58-1.72 3.48 3.48 0 0 1 2.93-1.26 3.9 3.9 0 0 1 2.02.49zm-.36 10.4c1.05-.23 1.57-.63 1.57-1.18a.7.7 0 0 0-.1-.33c-.12-.27-.57-.41-1.34-.42h-3.39a2.19 2.19 0 0 1-.7-.12 1.46 1.46 0 0 0-.33.83 1.07 1.07 0 0 0 .11.46c.33.64 1.17 1 2.54 1a7.51 7.51 0 0 0 1.64-.24zm-3-6.45a1.24 1.24 0 0 0 1.3 1.1 1.36 1.36 0 0 0 .83-.23c.41-.32.62-1.1.62-2.35a6.71 6.71 0 0 0-.13-1.47 1.22 1.22 0 0 0-1.3-1 1.27 1.27 0 0 0-.85.25c-.39.3-.58 1.07-.58 2.29a6.76 6.76 0 0 0 .07 1.41zM252.28 475.31c.81 0 1.31-.27 1.5-.82a1.13 1.13 0 0 0 .06-.36q0-.87-1.14-1.47c-.17-.09-.44-.21-.8-.37a6.06 6.06 0 0 1-1.86-1.12 2 2 0 0 1-.49-1.35 2 2 0 0 1 1.55-2 4.69 4.69 0 0 1 1.54-.24 4.15 4.15 0 0 1 2.17.51c0-.36.1-.56.29-.6h.19v2.27h-.55a1.6 1.6 0 0 0-1.81-1.68c-.81 0-1.31.26-1.5.77a1.09 1.09 0 0 0-.07.4q0 .76 1.08 1.32l.76.35a5.61 5.61 0 0 1 1.9 1.14 2.13 2.13 0 0 1 .55 1.46 2 2 0 0 1-1.6 2.07 4.63 4.63 0 0 1-1.44.22 5 5 0 0 1-2.55-.6q0 .46-.24.54h-.25V473h.58c.02 1.53.73 2.3 2.13 2.31zM265.52 475.18c.18 0 .27.18.27.46h-5.08v-.48a4.5 4.5 0 0 0 .56 0 .87.87 0 0 0 .81-.95v-5.85h-1.41v-.47h1.41v-.26a4.5 4.5 0 0 1 .55-2.32 3.09 3.09 0 0 1 2.91-1.55 3.62 3.62 0 0 1 1.5.29 1.37 1.37 0 0 1 .92 1.22 1.15 1.15 0 0 1 0 .26.83.83 0 0 1-.89.56.73.73 0 0 1-.56-.25 4.73 4.73 0 0 1-.51-.91c-.21-.46-.48-.69-.79-.69a.89.89 0 0 0-.55.18c-.37.35-.56 1.47-.56 3.36v.11h2.07v.47h-2.07v6.83h1.29z" fill="#fff"/><path d="M271.53 475.18c.19 0 .28.18.28.46h-4.91v-.48a3.28 3.28 0 0 0 .6-.05q.54-.15.54-.93v-5.87h-1.14v-.45h3l.11 1.71a3.22 3.22 0 0 1 .59-.95 2.7 2.7 0 0 1 2-.91 1.59 1.59 0 0 1 .43.06 1 1 0 0 1 .85 1.09 1.06 1.06 0 0 1-.09.42.94.94 0 0 1-.92.63 1.34 1.34 0 0 1-.35-.05 1.37 1.37 0 0 1-.65-.69c-.15-.28-.31-.42-.47-.42a.63.63 0 0 0-.34.13 3 3 0 0 0-1 2.34v3.94h1.32zM281.42 468.39a3.78 3.78 0 0 1 1.52 3.25 4.13 4.13 0 0 1-.94 2.72 4.21 4.21 0 0 1-5.75.59 4 4 0 0 1-1.49-3.31 3.94 3.94 0 0 1 .91-2.62 4.4 4.4 0 0 1 5.75-.63zm-4.29 5.39c.24 1 .82 1.57 1.72 1.57a1.83 1.83 0 0 0 .82-.19c.73-.4 1.1-1.57 1.1-3.52a9 9 0 0 0-.18-2 1.71 1.71 0 0 0-1.74-1.56 1.82 1.82 0 0 0-.92.23c-.65.43-1 1.56-1 3.4a9.55 9.55 0 0 0 .2 2.07zM288 475.18c.18 0 .27.18.27.46h-4.07v-.48a3.06 3.06 0 0 0 .56-.05c.4-.09.6-.39.6-.93v-5.87h-1.16v-.45h3l.09 1.45c.05-.09.09-.19.14-.29a2.64 2.64 0 0 1 2.41-1.42 2 2 0 0 1 .6.09 2.32 2.32 0 0 1 1.52 1.69v-.12a2.74 2.74 0 0 1 2.55-1.66 2.15 2.15 0 0 1 1.18.35 2.75 2.75 0 0 1 1.19 2.54v4.67H297.79c.16 0 .23.19.23.46H294v-.48a1.51 1.51 0 0 0 .6-.09c.23-.09.34-.39.34-.89v-3.89a3.34 3.34 0 0 0-.12-.91 1.19 1.19 0 0 0-1.16-.92 1 1 0 0 0-.47.11 2.11 2.11 0 0 0-1.07 1.76v4.83h.69c.16 0 .23.19.23.46h-3.85v-.48a1.58 1.58 0 0 0 .6-.09c.23-.09.34-.39.34-.89v-3.89a2.86 2.86 0 0 0-.13-.91 1.1 1.1 0 0 0-1-.89 1.2 1.2 0 0 0-.58.17 2.39 2.39 0 0 0-1.05 2v4.48h.49zM302.72 467.91H304v-1.72l2-.38v2.1h2.53v.48H306v5.86c.08.7.38 1 .88 1s1-.56 1.29-1.63l.49.07a4.36 4.36 0 0 1-.29 1 1.93 1.93 0 0 1-1.94 1.15c-1.52-.07-2.33-1-2.44-2.73v-4.72h-1.25zM313.35 475.18c.16 0 .23.19.23.46h-4.19v-.48a3.84 3.84 0 0 0 .52 0c.42-.09.63-.4.63-.95v-9.91h-1.15v-.48h3.14v5.55a4.18 4.18 0 0 1 .38-.68 2.86 2.86 0 0 1 2.34-1.09 2.45 2.45 0 0 1 1 .19c1 .41 1.46 1.33 1.46 2.78v4.59H318.62c.15 0 .23.19.23.46h-4v-.48a1.56 1.56 0 0 0 .61-.09c.18-.09.27-.39.27-.89v-3.83a2.87 2.87 0 0 0-.07-.69 1.3 1.3 0 0 0-1.34-1.13 1.51 1.51 0 0 0-.72.2 2.35 2.35 0 0 0-1 2.22v4.21h.6zM327 474.35a3.27 3.27 0 0 1-3 1.47 4.4 4.4 0 0 1-2.19-.55 3.8 3.8 0 0 1-1.82-3.56 4.37 4.37 0 0 1 .77-2.6 3.73 3.73 0 0 1 3.24-1.51 4.63 4.63 0 0 1 2 .44 2.31 2.31 0 0 1 1.45 2.16 1.27 1.27 0 0 1-.18.69c-.36.56-1.45.82-3.26.78h-1.82c.06 2.42.79 3.62 2.2 3.62a2.28 2.28 0 0 0 .78-.13 2.67 2.67 0 0 0 1.67-1.5l.43.14a4 4 0 0 1-.27.55zm-3.46-6.22c-.85.27-1.31 1.26-1.35 3l1.39.06a4 4 0 0 0 1.16-.1c.41-.14.61-.5.61-1.07a4 4 0 0 0-.05-.6c-.15-.88-.59-1.32-1.34-1.32a1.6 1.6 0 0 0-.42.03zM332.31 475.64v-.39l6.68-10h-3.27a1.72 1.72 0 0 0-1.47 1.17l-.74 1.63H333l.14-3.29h8.15v.4l-6.52 10h3.86a1.8 1.8 0 0 0 1.77-1.52l.49-1.75h.51v3.77zM349.37 468.39a3.8 3.8 0 0 1 1.52 3.25 4.18 4.18 0 0 1-.94 2.72 4.22 4.22 0 0 1-5.76.59 4.18 4.18 0 0 1 5.18-6.56zm-4.29 5.39c.24 1 .81 1.57 1.72 1.57a1.79 1.79 0 0 0 .81-.19c.74-.4 1.1-1.57 1.1-3.52a9 9 0 0 0-.18-2 1.71 1.71 0 0 0-1.73-1.56 1.89 1.89 0 0 0-.93.23c-.65.43-1 1.56-1 3.4a9.55 9.55 0 0 0 .21 2.07zM358.33 473.87a2.89 2.89 0 0 1-.15.31 2.74 2.74 0 0 1-2.6 1.64 3.1 3.1 0 0 1-1.81-.58 3.86 3.86 0 0 1-1.47-3.33 4.81 4.81 0 0 1 .85-2.85 3.39 3.39 0 0 1 2.85-1.46 3.22 3.22 0 0 1 2.27.86v-4.16h-1.67v-.48h3.67v11.34H361.36c.14 0 .22.19.22.46h-3zm-3.73-.81c.24 1.3.81 2 1.7 2a1.5 1.5 0 0 0 .89-.29c.75-.56 1.12-1.69 1.12-3.38a6.59 6.59 0 0 0-.16-1.55c-.28-1.1-.83-1.65-1.67-1.65a1.52 1.52 0 0 0-.79.22c-.8.47-1.2 1.58-1.2 3.32a8.27 8.27 0 0 0 .11 1.33zM366.7 475.18c.18 0 .27.18.27.46h-4.35v-.48a2.9 2.9 0 0 0 .58-.05q.6-.15.6-.93v-5.87h-1.18v-.45h3.17v7.3h.74zm-.87-9.21a1.15 1.15 0 0 1-1.09.63 1.38 1.38 0 0 1-.56-.12 1.12 1.12 0 0 1-.67-1.09 1.34 1.34 0 0 1 .14-.58 1.19 1.19 0 0 1 1.65-.53 1.18 1.18 0 0 1 .67 1.11 1.3 1.3 0 0 1-.14.61zM373 474.16a3.1 3.1 0 0 1-.35.64 2.65 2.65 0 0 1-2.22 1 2.91 2.91 0 0 1-.95-.15 1.9 1.9 0 0 1-1.35-2q0-2.43 4.76-2.49V470a5.9 5.9 0 0 0 0-.63c-.12-.86-.54-1.29-1.27-1.29a1.13 1.13 0 0 0-.52.11 1.44 1.44 0 0 0-.56.92l-.11.31a.91.91 0 0 1-.91.67.93.93 0 0 1-.32 0 .76.76 0 0 1-.58-.8 1.11 1.11 0 0 1 .2-.62c.44-.68 1.43-1 2.95-1a4.89 4.89 0 0 1 1 .09 2.54 2.54 0 0 1 2.21 2.79v3.81c0 .58.13.89.41.91s.58-.44.65-1.29h.47a4.8 4.8 0 0 1-.12.87 1.47 1.47 0 0 1-1.6 1c-1.08-.04-1.65-.6-1.79-1.69zm-1.27.79a2.24 2.24 0 0 0 1.16-1.62v-1.66a6.38 6.38 0 0 0-1.49.19 1.48 1.48 0 0 0-1.23 1.56v.18c.05 1 .41 1.45 1.09 1.45a1.24 1.24 0 0 0 .42-.05zM378.2 469a3.85 3.85 0 0 1 3.17-1.42 4.27 4.27 0 0 1 2.2.55 1.69 1.69 0 0 1 1 1.42.92.92 0 0 1-1.05.91 1.33 1.33 0 0 1-.6-.17 1.52 1.52 0 0 1-.43-1c0-.21-.05-.38-.08-.49a1 1 0 0 0-1-.74h-.42c-1 .24-1.47 1.46-1.47 3.68s.73 3.5 2.16 3.52a2.84 2.84 0 0 0 .72-.09 2.63 2.63 0 0 0 1.88-1.51l.47.13a2.59 2.59 0 0 1-.47.8 3.51 3.51 0 0 1-2.87 1.2 4.52 4.52 0 0 1-2.21-.53 3.68 3.68 0 0 1-1.87-3.52 4.18 4.18 0 0 1 .87-2.74z" fill="#fff"/><path fill="#a5802a" d="M135.38 478.31h34.7v1.61h-34.7zM170.07 475.29h-12.31l1-1.29a7.63 7.63 0 1 0-12.07 0l1 1.29h-12.31v-1.61h9.2a9 9 0 0 1-1.09-4.34 9.24 9.24 0 1 1 18.47 0 9.12 9.12 0 0 1-1.08 4.34h9.19z"/><path d="M140.58 512.38a5 5 0 0 1-2.38.51 3.83 3.83 0 0 1-3-1.2 4.4 4.4 0 0 1-1.11-3.13 4.65 4.65 0 0 1 1.25-3.37 4.25 4.25 0 0 1 3.17-1.28 5 5 0 0 1 2 .36v1.08a4.09 4.09 0 0 0-2.05-.52 3.11 3.11 0 0 0-2.41 1 3.78 3.78 0 0 0-.93 2.67 3.58 3.58 0 0 0 .87 2.53 2.91 2.91 0 0 0 2.27.94 4.19 4.19 0 0 0 2.25-.58zM147.49 512.74h-1v-3.57c0-1.29-.48-1.94-1.44-1.94a1.56 1.56 0 0 0-1.21.56 2.08 2.08 0 0 0-.5 1.44v3.51h-1v-9.18h1v4a2.27 2.27 0 0 1 2-1.18c1.39 0 2.09.85 2.09 2.53zM154.47 509.89h-4.37a2.38 2.38 0 0 0 .56 1.6 1.92 1.92 0 0 0 1.46.56 3 3 0 0 0 1.92-.69v.93a3.57 3.57 0 0 1-2.16.6 2.61 2.61 0 0 1-2-.85 3.45 3.45 0 0 1-.75-2.38 3.35 3.35 0 0 1 .82-2.35 2.61 2.61 0 0 1 2-.92 2.33 2.33 0 0 1 1.87.79 3.31 3.31 0 0 1 .67 2.19zm-1-.84a2 2 0 0 0-.41-1.34 1.4 1.4 0 0 0-1.13-.48 1.62 1.62 0 0 0-1.19.5 2.25 2.25 0 0 0-.6 1.32zM160.32 512.46a3.26 3.26 0 0 1-1.69.43 2.77 2.77 0 0 1-2.13-.87 3.12 3.12 0 0 1-.81-2.23 3.46 3.46 0 0 1 .87-2.47 3.07 3.07 0 0 1 2.34-.93 3.1 3.1 0 0 1 1.43.31v1a2.53 2.53 0 0 0-1.47-.48 2 2 0 0 0-1.55.68 2.58 2.58 0 0 0-.61 1.79 2.46 2.46 0 0 0 .57 1.72 2 2 0 0 0 1.53.63 2.46 2.46 0 0 0 1.52-.54zM167.09 512.74h-1.38l-2.73-3v3h-1v-9.18h1v5.82l2.59-2.84h1.3l-2.86 3zM176.7 506.54l-2.84 7.19c-.5 1.29-1.22 1.93-2.13 1.93a2.35 2.35 0 0 1-.65-.08v-.89a2 2 0 0 0 .59.11 1.21 1.21 0 0 0 1.12-.9l.49-1.17-2.41-6.19H172l1.67 4.77c0 .06.06.22.13.47 0-.09.06-.25.12-.46l1.76-4.78zM180.44 512.89a2.85 2.85 0 0 1-2.19-.87 3.22 3.22 0 0 1-.82-2.31 3.4 3.4 0 0 1 .85-2.44 3.07 3.07 0 0 1 2.3-.88 2.78 2.78 0 0 1 2.16.86 3.43 3.43 0 0 1 .77 2.37 3.36 3.36 0 0 1-.83 2.37 2.92 2.92 0 0 1-2.24.9zm.07-5.66a1.89 1.89 0 0 0-1.51.65 2.67 2.67 0 0 0-.55 1.8 2.49 2.49 0 0 0 .56 1.73 1.87 1.87 0 0 0 1.5.64 1.8 1.8 0 0 0 1.47-.62 2.7 2.7 0 0 0 .52-1.78 2.73 2.73 0 0 0-.52-1.79 1.78 1.78 0 0 0-1.47-.63zM190.24 512.74h-1v-1a2 2 0 0 1-1.9 1.13c-1.48 0-2.21-.88-2.21-2.64v-3.71h1v3.55c0 1.31.5 2 1.5 2a1.5 1.5 0 0 0 1.19-.54 2 2 0 0 0 .47-1.4v-3.57h1zM195.6 507.54a1.22 1.22 0 0 0-.75-.2 1.25 1.25 0 0 0-1 .6 2.75 2.75 0 0 0-.43 1.64v3.16h-1v-6.2h1v1.28a2.2 2.2 0 0 1 .65-1 1.44 1.44 0 0 1 1-.37 1.73 1.73 0 0 1 .59.08zM205.63 512.74h-1v-1.05a2.49 2.49 0 0 1-4 .36 3.43 3.43 0 0 1-.69-2.26 3.71 3.71 0 0 1 .77-2.47 2.53 2.53 0 0 1 2-.93 2 2 0 0 1 1.86 1v-3.84h1zm-1-2.8V509a1.77 1.77 0 0 0-.49-1.27 1.65 1.65 0 0 0-1.26-.52 1.68 1.68 0 0 0-1.42.67 2.88 2.88 0 0 0-.52 1.84 2.58 2.58 0 0 0 .5 1.69 1.62 1.62 0 0 0 1.33.62 1.68 1.68 0 0 0 1.34-.6 2.2 2.2 0 0 0 .53-1.49zM212.2 512.74h-1v-1a2.25 2.25 0 0 1-3.35.63 1.75 1.75 0 0 1-.52-1.31c0-1.16.68-1.83 2-2l1.85-.26c0-1.05-.42-1.58-1.27-1.58a3 3 0 0 0-2 .76v-1a3.77 3.77 0 0 1 2.1-.59c1.45 0 2.17.77 2.17 2.32zm-1-3.14l-1.49.21a2.39 2.39 0 0 0-1 .34 1 1 0 0 0-.35.87.93.93 0 0 0 .32.74 1.2 1.2 0 0 0 .86.29 1.56 1.56 0 0 0 1.21-.52 1.84 1.84 0 0 0 .48-1.31zM214.72 505a.63.63 0 0 1-.64-.64.64.64 0 0 1 1.1-.46.6.6 0 0 1 .19.46.62.62 0 0 1-.19.46.63.63 0 0 1-.46.18zm.48 7.78h-1v-6.2h1zM218.35 512.74h-1v-9.18h1zM225.41 506.54l-2.84 7.19c-.51 1.29-1.22 1.93-2.13 1.93a2.35 2.35 0 0 1-.65-.08v-.89a1.9 1.9 0 0 0 .59.11 1.22 1.22 0 0 0 1.12-.9l.49-1.17-2.41-6.19h1.1l1.67 4.77c0 .06.06.22.12.47 0-.09.06-.25.12-.46l1.76-4.78zM235.15 512.74h-1v-1a2 2 0 0 1-1.91 1.13c-1.47 0-2.21-.88-2.21-2.64v-3.71h1v3.55c0 1.31.5 2 1.49 2a1.49 1.49 0 0 0 1.19-.54 2 2 0 0 0 .47-1.4v-3.57h1zM238.31 511.84v3.75h-1v-9.05h1v1.09a2.35 2.35 0 0 1 2.13-1.24 2.26 2.26 0 0 1 1.87.84 3.43 3.43 0 0 1 .67 2.23 3.8 3.8 0 0 1-.76 2.49 2.51 2.51 0 0 1-2.06.94 2.05 2.05 0 0 1-1.85-1.05zm0-2.5v.87a1.84 1.84 0 0 0 .5 1.3 1.66 1.66 0 0 0 1.27.54 1.64 1.64 0 0 0 1.4-.69 3.17 3.17 0 0 0 .51-1.92 2.48 2.48 0 0 0-.47-1.62 1.59 1.59 0 0 0-1.29-.59 1.75 1.75 0 0 0-1.39.6 2.23 2.23 0 0 0-.56 1.51zM250 512.74h-1v-1.05a2.49 2.49 0 0 1-4 .36 3.43 3.43 0 0 1-.7-2.26 3.71 3.71 0 0 1 .78-2.47 2.53 2.53 0 0 1 2.05-.93 2 2 0 0 1 1.86 1v-3.84h1zm-1-2.8V509a1.77 1.77 0 0 0-.49-1.27 1.65 1.65 0 0 0-1.26-.52 1.68 1.68 0 0 0-1.42.67 2.88 2.88 0 0 0-.52 1.84 2.58 2.58 0 0 0 .5 1.69 1.62 1.62 0 0 0 1.33.62 1.68 1.68 0 0 0 1.34-.6 2.2 2.2 0 0 0 .52-1.49zM256.55 512.74h-1v-1a2.25 2.25 0 0 1-3.35.63 1.75 1.75 0 0 1-.52-1.31c0-1.16.68-1.83 2-2l1.85-.26c0-1.05-.42-1.58-1.27-1.58a3 3 0 0 0-2 .76v-1a3.77 3.77 0 0 1 2.1-.59c1.45 0 2.17.77 2.17 2.32zm-1-3.14l-1.49.21a2.34 2.34 0 0 0-1 .34 1 1 0 0 0-.35.87.93.93 0 0 0 .32.74 1.2 1.2 0 0 0 .86.29 1.56 1.56 0 0 0 1.21-.52 1.84 1.84 0 0 0 .48-1.31zM261.43 512.68a1.88 1.88 0 0 1-.92.19c-1.08 0-1.63-.6-1.63-1.81v-3.67h-1.06v-.85h1.06V505l1-.32v1.84h1.56v.85h-1.56v3.49a1.38 1.38 0 0 0 .22.89.82.82 0 0 0 .69.27 1 1 0 0 0 .65-.21zM267.77 509.89h-4.36a2.32 2.32 0 0 0 .55 1.6 1.94 1.94 0 0 0 1.46.56 3 3 0 0 0 1.92-.69v.93a3.54 3.54 0 0 1-2.15.6 2.62 2.62 0 0 1-2.06-.85 3.45 3.45 0 0 1-.75-2.38 3.35 3.35 0 0 1 .82-2.35 2.61 2.61 0 0 1 2-.92 2.35 2.35 0 0 1 1.88.79 3.31 3.31 0 0 1 .66 2.19zm-1-.84a2.06 2.06 0 0 0-.42-1.34 1.4 1.4 0 0 0-1.13-.48 1.62 1.62 0 0 0-1.19.5 2.38 2.38 0 0 0-.6 1.32zM277.37 512.74h-1v-1a2.24 2.24 0 0 1-3.34.63 1.72 1.72 0 0 1-.52-1.31c0-1.16.68-1.83 2-2l1.85-.26c0-1.05-.43-1.58-1.27-1.58a3 3 0 0 0-2 .76v-1a3.82 3.82 0 0 1 2.1-.59c1.45 0 2.18.77 2.18 2.32zm-1-3.14l-1.49.21a2.39 2.39 0 0 0-1 .34 1 1 0 0 0-.35.87 1 1 0 0 0 .32.74 1.21 1.21 0 0 0 .86.29 1.58 1.58 0 0 0 1.22-.52 1.84 1.84 0 0 0 .48-1.31zM280.39 511.84v.9h-1v-9.18h1v4.07a2.36 2.36 0 0 1 2.14-1.24 2.26 2.26 0 0 1 1.86.84 3.43 3.43 0 0 1 .67 2.23 3.85 3.85 0 0 1-.75 2.49 2.51 2.51 0 0 1-2.06.94 2 2 0 0 1-1.86-1.05zm0-2.5v.87a1.84 1.84 0 0 0 .5 1.3 1.63 1.63 0 0 0 1.26.54 1.66 1.66 0 0 0 1.41-.69 3.17 3.17 0 0 0 .51-1.92 2.48 2.48 0 0 0-.48-1.62 1.57 1.57 0 0 0-1.29-.59 1.77 1.77 0 0 0-1.39.6 2.22 2.22 0 0 0-.54 1.51zM289.37 512.89a2.84 2.84 0 0 1-2.18-.87 3.22 3.22 0 0 1-.82-2.31 3.36 3.36 0 0 1 .85-2.44 3.07 3.07 0 0 1 2.3-.88 2.74 2.74 0 0 1 2.15.86 3.39 3.39 0 0 1 .78 2.37 3.32 3.32 0 0 1-.84 2.37 2.89 2.89 0 0 1-2.24.9zm.08-5.66a1.89 1.89 0 0 0-1.51.65 2.67 2.67 0 0 0-.56 1.8 2.53 2.53 0 0 0 .56 1.73 1.91 1.91 0 0 0 1.51.64 1.8 1.8 0 0 0 1.47-.62 2.76 2.76 0 0 0 .52-1.78 2.79 2.79 0 0 0-.52-1.79 1.78 1.78 0 0 0-1.47-.63zM299.17 512.74h-1v-1a2 2 0 0 1-1.91 1.13c-1.47 0-2.2-.88-2.2-2.64v-3.71h1v3.55c0 1.31.5 2 1.5 2a1.5 1.5 0 0 0 1.19-.54 2 2 0 0 0 .46-1.4v-3.57h1zM304.18 512.68a1.88 1.88 0 0 1-.92.19c-1.08 0-1.62-.6-1.62-1.81v-3.67h-1.06v-.85h1.06V505l1-.32v1.84h1.55v.85h-1.55v3.49a1.45 1.45 0 0 0 .21.89.83.83 0 0 0 .7.27 1 1 0 0 0 .64-.21zM312.05 512.68a1.88 1.88 0 0 1-.92.19c-1.08 0-1.62-.6-1.62-1.81v-3.67h-1.07v-.85h1.07V505l1-.32v1.84h1.55v.85h-1.56v3.49a1.45 1.45 0 0 0 .21.89.83.83 0 0 0 .7.27 1 1 0 0 0 .64-.21zM318.65 512.74h-1v-3.57c0-1.29-.48-1.94-1.44-1.94a1.55 1.55 0 0 0-1.21.56 2.08 2.08 0 0 0-.5 1.44v3.51h-1v-9.18h1v4a2.26 2.26 0 0 1 2-1.18c1.39 0 2.09.85 2.09 2.53zM325.63 509.89h-4.37a2.38 2.38 0 0 0 .56 1.6 1.92 1.92 0 0 0 1.46.56 3.06 3.06 0 0 0 1.92-.69v.93a3.57 3.57 0 0 1-2.16.6A2.61 2.61 0 0 1 321 512a3.45 3.45 0 0 1-.75-2.38 3.35 3.35 0 0 1 .82-2.35 2.61 2.61 0 0 1 2-.92 2.33 2.33 0 0 1 1.87.79 3.31 3.31 0 0 1 .67 2.19zm-1-.84a2 2 0 0 0-.41-1.34 1.4 1.4 0 0 0-1.13-.48 1.62 1.62 0 0 0-1.19.5 2.25 2.25 0 0 0-.6 1.32zM331.82 511.84v3.75h-1v-9.05h1v1.09a2.33 2.33 0 0 1 2.13-1.24 2.26 2.26 0 0 1 1.87.84 3.49 3.49 0 0 1 .67 2.23 3.85 3.85 0 0 1-.76 2.49 2.51 2.51 0 0 1-2.06.94 2.05 2.05 0 0 1-1.85-1.05zm0-2.5v.87a1.84 1.84 0 0 0 .5 1.3 1.63 1.63 0 0 0 1.26.54 1.66 1.66 0 0 0 1.41-.69 3.17 3.17 0 0 0 .51-1.92 2.48 2.48 0 0 0-.48-1.62 1.56 1.56 0 0 0-1.29-.59 1.75 1.75 0 0 0-1.38.6 2.23 2.23 0 0 0-.56 1.51zM339.2 512.74h-1v-9.18h1zM345.78 512.74h-1v-1a2.24 2.24 0 0 1-3.34.63 1.72 1.72 0 0 1-.52-1.31c0-1.16.68-1.83 2-2l1.85-.26c0-1.05-.43-1.58-1.28-1.58a3 3 0 0 0-2 .76v-1a3.82 3.82 0 0 1 2.1-.59c1.45 0 2.18.77 2.18 2.32zm-1-3.14l-1.49.21a2.39 2.39 0 0 0-1 .34 1 1 0 0 0-.35.87 1 1 0 0 0 .32.74 1.21 1.21 0 0 0 .86.29 1.58 1.58 0 0 0 1.22-.52 1.84 1.84 0 0 0 .48-1.31zM352.92 512.74h-1v-3.54c0-1.31-.48-2-1.44-2a1.59 1.59 0 0 0-1.23.56 2.08 2.08 0 0 0-.48 1.41v3.54h-1v-6.2h1v1a2.24 2.24 0 0 1 2-1.18 1.89 1.89 0 0 1 1.55.66 2.93 2.93 0 0 1 .54 1.9zM359.89 509.89h-4.36a2.33 2.33 0 0 0 .56 1.6 1.92 1.92 0 0 0 1.46.56 3.06 3.06 0 0 0 1.92-.69v.93a3.59 3.59 0 0 1-2.16.6 2.63 2.63 0 0 1-2.06-.85 3.5 3.5 0 0 1-.74-2.38 3.39 3.39 0 0 1 .81-2.35 2.64 2.64 0 0 1 2-.92 2.34 2.34 0 0 1 1.88.79 3.31 3.31 0 0 1 .66 2.19zm-1-.84a2 2 0 0 0-.41-1.34 1.4 1.4 0 0 0-1.13-.48 1.6 1.6 0 0 0-1.19.5 2.32 2.32 0 0 0-.61 1.32zM364.4 512.68a1.88 1.88 0 0 1-.92.19c-1.08 0-1.62-.6-1.62-1.81v-3.67h-1.06v-.85h1.06V505l1-.32v1.84h1.55v.85h-1.55v3.49a1.45 1.45 0 0 0 .21.89.83.83 0 0 0 .7.27 1 1 0 0 0 .64-.21zM365.5 512.52v-1.07a2.92 2.92 0 0 0 1.78.6c.87 0 1.3-.29 1.3-.87a.77.77 0 0 0-.11-.42 1.1 1.1 0 0 0-.3-.31 2.38 2.38 0 0 0-.45-.24l-.55-.22q-.41-.17-.72-.33a2.39 2.39 0 0 1-.52-.37 1.37 1.37 0 0 1-.31-.48 1.71 1.71 0 0 1-.11-.62 1.56 1.56 0 0 1 .2-.78 1.77 1.77 0 0 1 .53-.56 2.51 2.51 0 0 1 .76-.34 3.17 3.17 0 0 1 .88-.12 3.61 3.61 0 0 1 1.43.28v1a2.78 2.78 0 0 0-1.57-.45 2 2 0 0 0-.5.06 1.34 1.34 0 0 0-.38.18.83.83 0 0 0-.25.28.68.68 0 0 0-.09.35.86.86 0 0 0 .09.41 1 1 0 0 0 .26.29 2.22 2.22 0 0 0 .41.23l.55.22c.27.11.52.22.73.33a2.37 2.37 0 0 1 .56.37 1.48 1.48 0 0 1 .35.48 1.64 1.64 0 0 1 .12.65 1.49 1.49 0 0 1-.2.8 1.61 1.61 0 0 1-.54.56 2.31 2.31 0 0 1-.78.34 3.93 3.93 0 0 1-.92.11 3.58 3.58 0 0 1-1.65-.36zM372.48 503.91l-.84 2.7h-.71l.66-2.7zM135.58 526.73v3.75h-1v-9.06h1v1.09a2.33 2.33 0 0 1 2.13-1.23 2.28 2.28 0 0 1 1.87.83 3.51 3.51 0 0 1 .67 2.23 3.9 3.9 0 0 1-.76 2.5 2.51 2.51 0 0 1-2.06.93 2.06 2.06 0 0 1-1.85-1.04zm0-2.5v.86a1.86 1.86 0 0 0 .5 1.31 1.63 1.63 0 0 0 1.26.54 1.66 1.66 0 0 0 1.41-.69 3.2 3.2 0 0 0 .51-1.92 2.55 2.55 0 0 0-.47-1.63 1.59 1.59 0 0 0-1.29-.59 1.76 1.76 0 0 0-1.39.61 2.21 2.21 0 0 0-.56 1.51zM144.56 527.77a2.86 2.86 0 0 1-2.19-.87 3.23 3.23 0 0 1-.82-2.3 3.38 3.38 0 0 1 .85-2.44 3.05 3.05 0 0 1 2.3-.88 2.77 2.77 0 0 1 2.16.85 3.38 3.38 0 0 1 .77 2.37 3.34 3.34 0 0 1-.83 2.38 3 3 0 0 1-2.24.89zm.07-5.66a1.86 1.86 0 0 0-1.51.66 2.66 2.66 0 0 0-.55 1.79 2.5 2.5 0 0 0 .56 1.74 1.91 1.91 0 0 0 1.5.64 1.78 1.78 0 0 0 1.47-.63 2.67 2.67 0 0 0 .52-1.77 2.74 2.74 0 0 0-.52-1.8 1.78 1.78 0 0 0-1.47-.63zM149 527.4v-1.06a2.92 2.92 0 0 0 1.78.6c.87 0 1.3-.3 1.3-.88a.82.82 0 0 0-.11-.42 1.42 1.42 0 0 0-.3-.3 2.38 2.38 0 0 0-.45-.24l-.55-.22q-.41-.17-.72-.33a2.12 2.12 0 0 1-.52-.38 1.42 1.42 0 0 1-.31-.47 1.73 1.73 0 0 1-.11-.63 1.5 1.5 0 0 1 .2-.77 1.77 1.77 0 0 1 .53-.56 2.31 2.31 0 0 1 .76-.35 3.6 3.6 0 0 1 .88-.11 3.44 3.44 0 0 1 1.43.28v1a2.78 2.78 0 0 0-1.57-.45 2 2 0 0 0-.5.07 1.11 1.11 0 0 0-.38.18.8.8 0 0 0-.25.27.74.74 0 0 0-.09.36.82.82 0 0 0 .09.4.89.89 0 0 0 .26.29 1.76 1.76 0 0 0 .41.23l.55.23a6.36 6.36 0 0 1 .73.32 2.39 2.39 0 0 1 .56.38 1.48 1.48 0 0 1 .35.48 1.6 1.6 0 0 1 .12.65 1.51 1.51 0 0 1-.2.8 1.7 1.7 0 0 1-.54.56 2.3 2.3 0 0 1-.78.33 3.88 3.88 0 0 1-2.57-.26zM157.62 527.57a1.88 1.88 0 0 1-.92.19c-1.09 0-1.63-.61-1.63-1.82v-3.67H154v-.85h1.06v-1.51l1-.32v1.83h1.56v.85h-1.56v3.5a1.47 1.47 0 0 0 .21.89.87.87 0 0 0 .7.26 1 1 0 0 0 .65-.2zM159.59 519.85a.64.64 0 0 1-.45-.18.63.63 0 0 1-.18-.46.66.66 0 0 1 .18-.47.64.64 0 0 1 .45-.18.66.66 0 0 1 .47.18.67.67 0 0 1 .19.47.64.64 0 0 1-.19.45.63.63 0 0 1-.47.19zm.49 7.78h-1v-6.21h1zM164.81 527.77a2.88 2.88 0 0 1-2.19-.87 3.23 3.23 0 0 1-.81-2.3 3.34 3.34 0 0 1 .85-2.44 3 3 0 0 1 2.29-.88 2.76 2.76 0 0 1 2.16.85 3.39 3.39 0 0 1 .78 2.37 3.34 3.34 0 0 1-.84 2.38 2.94 2.94 0 0 1-2.24.89zm.07-5.66a1.88 1.88 0 0 0-1.51.66 2.66 2.66 0 0 0-.55 1.79 2.54 2.54 0 0 0 .56 1.74 1.92 1.92 0 0 0 1.5.64 1.82 1.82 0 0 0 1.48-.63 2.72 2.72 0 0 0 .51-1.77 2.8 2.8 0 0 0-.51-1.8 1.82 1.82 0 0 0-1.48-.63zM174.74 527.63h-1v-3.54c0-1.32-.47-2-1.43-2a1.56 1.56 0 0 0-1.23.56 2.12 2.12 0 0 0-.48 1.42v3.54h-1v-6.21h1v1a2.23 2.23 0 0 1 2-1.17 1.89 1.89 0 0 1 1.55.66 3 3 0 0 1 .53 1.89zM177.26 519.85a.63.63 0 0 1-.45-.18.64.64 0 0 1-.19-.46.67.67 0 0 1 .19-.47.63.63 0 0 1 .45-.18.63.63 0 0 1 .46.18.63.63 0 0 1 .19.47.6.6 0 0 1-.19.45.6.6 0 0 1-.46.19zm.48 7.78h-1v-6.21h1zM185 527.63h-1v-3.54c0-1.32-.47-2-1.43-2a1.57 1.57 0 0 0-1.23.56 2.12 2.12 0 0 0-.48 1.42v3.54h-1v-6.21h1v1a2.23 2.23 0 0 1 2-1.17 1.89 1.89 0 0 1 1.55.66 3 3 0 0 1 .53 1.89zM192.31 527.13q0 3.42-3.26 3.42a4.37 4.37 0 0 1-2-.44v-1a4.17 4.17 0 0 0 2 .58c1.52 0 2.28-.81 2.28-2.44v-.68a2.31 2.31 0 0 1-2.13 1.19 2.28 2.28 0 0 1-1.85-.83 3.3 3.3 0 0 1-.71-2.21 3.9 3.9 0 0 1 .76-2.52 2.54 2.54 0 0 1 2.07-.93 2 2 0 0 1 1.86 1v-.86h1zm-1-2.31v-.91a1.78 1.78 0 0 0-.5-1.27 1.63 1.63 0 0 0-1.24-.53 1.72 1.72 0 0 0-1.43.67 3 3 0 0 0-.52 1.88 2.5 2.5 0 0 0 .5 1.65 1.59 1.59 0 0 0 1.31.63 1.72 1.72 0 0 0 1.36-.6 2.19 2.19 0 0 0 .53-1.52zM205.71 527.77a1.9 1.9 0 0 1-.61-.1 1.72 1.72 0 0 1-.48-.26 3 3 0 0 1-.44-.43c-.13-.16-.28-.35-.43-.56a4.61 4.61 0 0 1-.56.5 3.55 3.55 0 0 1-.7.43 3.71 3.71 0 0 1-.85.3 3.89 3.89 0 0 1-1 .12 4.09 4.09 0 0 1-1.2-.17 2.73 2.73 0 0 1-.93-.48 2.33 2.33 0 0 1-.6-.78 2.6 2.6 0 0 1-.21-1.08 2.46 2.46 0 0 1 .52-1.58 3.81 3.81 0 0 1 1.49-1.08 2.48 2.48 0 0 1-.36-.31 2.6 2.6 0 0 1-.33-.4 2.39 2.39 0 0 1-.23-.51 2.23 2.23 0 0 1-.08-.6 1.93 1.93 0 0 1 .17-.85 1.79 1.79 0 0 1 .47-.62 1.94 1.94 0 0 1 .71-.38 2.86 2.86 0 0 1 .89-.13 2.63 2.63 0 0 1 .86.13 1.9 1.9 0 0 1 .67.37 1.69 1.69 0 0 1 .44.58 1.87 1.87 0 0 1 .15.76 1.79 1.79 0 0 1-.41 1.21 3.23 3.23 0 0 1-1.24.82 3 3 0 0 1 .75.4 4 4 0 0 1 .63.52 5.35 5.35 0 0 1 .53.63c.17.22.33.45.49.69a5.18 5.18 0 0 0 .74-1.51 6.18 6.18 0 0 0 .25-1.73 2.9 2.9 0 0 0 0-.43c0-.14 0-.27-.08-.4h1a2.71 2.71 0 0 1 .06.38v.42a6 6 0 0 1-.11 1.11 7.86 7.86 0 0 1-.31 1.08 8.22 8.22 0 0 1-.45 1 7.9 7.9 0 0 1-.54.86c.14.2.27.37.38.51a3.05 3.05 0 0 0 .36.36 1.29 1.29 0 0 0 .37.22 1.38 1.38 0 0 0 .43.07 1.49 1.49 0 0 0 .36-.05l.39-.12v.92a2.3 2.3 0 0 1-.45.12 2.59 2.59 0 0 1-.51.05zm-5.06-.86a3.72 3.72 0 0 0 .84-.1 3.49 3.49 0 0 0 .71-.27 2.75 2.75 0 0 0 .59-.39 5.42 5.42 0 0 0 .49-.46c-.25-.39-.47-.71-.68-1a6.31 6.31 0 0 0-.63-.7 4 4 0 0 0-.67-.51 5.85 5.85 0 0 0-.83-.39 5.07 5.07 0 0 0-.7.33 2.48 2.48 0 0 0-.56.44 2 2 0 0 0-.36.58 2.06 2.06 0 0 0-.13.78 1.67 1.67 0 0 0 .15.73 1.42 1.42 0 0 0 .41.52 1.87 1.87 0 0 0 .61.32 2.68 2.68 0 0 0 .76.12zm1.5-6.19a1 1 0 0 0-.11-.51 1.08 1.08 0 0 0-.28-.35 1 1 0 0 0-.38-.21 1.52 1.52 0 0 0-.42-.06 1.35 1.35 0 0 0-.94.32 1.1 1.1 0 0 0-.36.87 1.45 1.45 0 0 0 .07.47 1.53 1.53 0 0 0 .21.4 1.72 1.72 0 0 0 .32.34 2.59 2.59 0 0 0 .39.25 3.2 3.2 0 0 0 1.13-.63 1.16 1.16 0 0 0 .37-.89zM216.69 527.63h-1v-3.58c0-1.29-.48-1.94-1.44-1.94a1.58 1.58 0 0 0-1.22.56 2.11 2.11 0 0 0-.49 1.44v3.52h-1v-9.19h1v4a2.25 2.25 0 0 1 2-1.17c1.39 0 2.09.84 2.09 2.52zM221.28 527.77a2.84 2.84 0 0 1-2.18-.87 3.19 3.19 0 0 1-.82-2.3 3.34 3.34 0 0 1 .85-2.44 3 3 0 0 1 2.3-.88 2.74 2.74 0 0 1 2.15.85 3.39 3.39 0 0 1 .78 2.37 3.34 3.34 0 0 1-.84 2.38 2.92 2.92 0 0 1-2.24.89zm.07-5.66a1.86 1.86 0 0 0-1.5.66 2.66 2.66 0 0 0-.56 1.79 2.54 2.54 0 0 0 .56 1.74 1.93 1.93 0 0 0 1.5.64 1.8 1.8 0 0 0 1.48-.63 2.73 2.73 0 0 0 .52-1.77 2.8 2.8 0 0 0-.52-1.8 1.8 1.8 0 0 0-1.48-.63zM233.87 521.42l-1.87 6.21h-1l-1.27-4.44a3 3 0 0 1-.1-.58 2.7 2.7 0 0 1-.13.56l-1.38 4.46h-1l-1.87-6.21h1l1.28 4.67a2.39 2.39 0 0 1 .08.55h.05a2.51 2.51 0 0 1 .11-.56l1.42-4.66h.91l1.28 4.68a3.45 3.45 0 0 1 .09.56 2.74 2.74 0 0 1 .11-.56l1.25-4.68zM241.56 527.57a1.88 1.88 0 0 1-.92.19c-1.08 0-1.62-.61-1.62-1.82v-3.67H238v-.85h1v-1.51l1-.32v1.83h1.55v.85H240v3.5a1.47 1.47 0 0 0 .21.89.86.86 0 0 0 .7.26 1 1 0 0 0 .64-.2zM248.16 527.63h-1v-3.58c0-1.29-.48-1.94-1.44-1.94a1.55 1.55 0 0 0-1.21.56 2.12 2.12 0 0 0-.5 1.44v3.52h-1v-9.19h1v4a2.26 2.26 0 0 1 2-1.17c1.39 0 2.09.84 2.09 2.52zM255.14 524.77h-4.37a2.36 2.36 0 0 0 .56 1.6 1.89 1.89 0 0 0 1.46.57 3 3 0 0 0 1.92-.69v.93a3.61 3.61 0 0 1-2.16.59 2.6 2.6 0 0 1-2.05-.84 3.48 3.48 0 0 1-.75-2.38 3.38 3.38 0 0 1 .82-2.36 2.6 2.6 0 0 1 2-.91 2.3 2.3 0 0 1 1.87.79 3.23 3.23 0 0 1 .67 2.18zm-1-.84a2 2 0 0 0-.41-1.34 1.4 1.4 0 0 0-1.13-.48 1.59 1.59 0 0 0-1.19.51 2.19 2.19 0 0 0-.6 1.31zM261.7 521.42l-2.84 7.2c-.51 1.28-1.22 1.93-2.14 1.93a2.4 2.4 0 0 1-.65-.08v-.89a2 2 0 0 0 .59.11 1.21 1.21 0 0 0 1.12-.9l.5-1.18-2.42-6.19H257l1.67 4.78a4.85 4.85 0 0 1 .13.47c0-.1.06-.25.12-.46l1.75-4.79zM270.65 527.34a3.17 3.17 0 0 1-1.69.43 2.8 2.8 0 0 1-2.13-.86 3.15 3.15 0 0 1-.81-2.24 3.46 3.46 0 0 1 .87-2.46 3.07 3.07 0 0 1 2.34-.93 3.23 3.23 0 0 1 1.43.3v1a2.54 2.54 0 0 0-1.47-.49 2 2 0 0 0-1.55.69 2.56 2.56 0 0 0-.61 1.79 2.48 2.48 0 0 0 .57 1.72 2 2 0 0 0 1.53.63 2.46 2.46 0 0 0 1.52-.54zM276.72 527.63h-1v-1a2.07 2.07 0 0 1-1.9 1.11 2 2 0 0 1-1.44-.49 1.7 1.7 0 0 1-.52-1.3c0-1.16.68-1.83 2-2l1.85-.26c0-1.06-.43-1.59-1.28-1.59a3 3 0 0 0-2 .77v-1a3.81 3.81 0 0 1 2.1-.58c1.45 0 2.18.77 2.18 2.31zm-1-3.14l-1.49.2a2.38 2.38 0 0 0-1 .35 1 1 0 0 0-.35.87 1 1 0 0 0 .32.74 1.26 1.26 0 0 0 .86.29 1.62 1.62 0 0 0 1.22-.52 1.86 1.86 0 0 0 .48-1.31zM283.86 527.63h-1v-3.54q0-2-1.44-2a1.59 1.59 0 0 0-1.23.56 2.12 2.12 0 0 0-.48 1.42v3.54h-1v-6.21h1v1a2.24 2.24 0 0 1 2-1.17 1.88 1.88 0 0 1 1.55.66 2.9 2.9 0 0 1 .54 1.89zM293.82 527.63h-1v-1a2.07 2.07 0 0 1-1.9 1.11 2 2 0 0 1-1.44-.49 1.7 1.7 0 0 1-.53-1.3c0-1.16.68-1.83 2-2l1.85-.26c0-1.06-.42-1.59-1.27-1.59a3 3 0 0 0-2 .77v-1a3.76 3.76 0 0 1 2.1-.58c1.45 0 2.17.77 2.17 2.31zm-1-3.14l-1.49.2a2.38 2.38 0 0 0-1 .35 1 1 0 0 0-.35.87.93.93 0 0 0 .32.74 1.24 1.24 0 0 0 .86.29 1.62 1.62 0 0 0 1.22-.52 1.9 1.9 0 0 0 .47-1.31zM298.89 519.32a1.3 1.3 0 0 0-.66-.17c-.69 0-1 .44-1 1.32v.95h1.45v.85h-1.45v5.36h-1v-5.36h-1.06v-.85h1.06v-1a2.09 2.09 0 0 1 .56-1.54 1.89 1.89 0 0 1 1.4-.57 2 2 0 0 1 .72.11zM302.9 519.32a1.29 1.29 0 0 0-.65-.17c-.7 0-1 .44-1 1.32v.95h1.45v.85h-1.45v5.36h-1v-5.36h-1.06v-.85h1.06v-1a2.05 2.05 0 0 1 .56-1.54 1.88 1.88 0 0 1 1.4-.57 1.92 1.92 0 0 1 .71.11zM308.83 524.77h-4.36a2.36 2.36 0 0 0 .55 1.6 1.91 1.91 0 0 0 1.46.57 3 3 0 0 0 1.92-.69v.93a3.6 3.6 0 0 1-2.15.59 2.63 2.63 0 0 1-2.06-.84 3.48 3.48 0 0 1-.75-2.38 3.42 3.42 0 0 1 .82-2.36 2.61 2.61 0 0 1 2-.91 2.31 2.31 0 0 1 1.88.79 3.28 3.28 0 0 1 .66 2.18zm-1-.84a2 2 0 0 0-.42-1.34 1.39 1.39 0 0 0-1.13-.48 1.57 1.57 0 0 0-1.18.51 2.26 2.26 0 0 0-.61 1.31zM314.69 527.34a3.19 3.19 0 0 1-1.69.43 2.84 2.84 0 0 1-2.14-.86 3.15 3.15 0 0 1-.81-2.24 3.42 3.42 0 0 1 .88-2.46 3 3 0 0 1 2.33-.93 3.28 3.28 0 0 1 1.44.3v1a2.54 2.54 0 0 0-1.47-.49 2 2 0 0 0-1.56.69 2.6 2.6 0 0 0-.6 1.79 2.48 2.48 0 0 0 .57 1.72 2 2 0 0 0 1.53.63 2.48 2.48 0 0 0 1.52-.54zM319.2 527.57a1.92 1.92 0 0 1-.93.19c-1.08 0-1.62-.61-1.62-1.82v-3.67h-1.06v-.85h1.06v-1.51l1-.32v1.83h1.56v.85h-1.56v3.5a1.47 1.47 0 0 0 .21.89.87.87 0 0 0 .7.26 1 1 0 0 0 .65-.2zM329.11 521.42l-2.84 7.2c-.5 1.28-1.22 1.93-2.13 1.93a2.4 2.4 0 0 1-.65-.08v-.89a2 2 0 0 0 .59.11 1.21 1.21 0 0 0 1.12-.9l.49-1.18-2.41-6.19h1.1l1.67 4.78c0 .06.06.21.13.47 0-.1.06-.25.12-.46l1.76-4.79zM332.85 527.77a2.85 2.85 0 0 1-2.19-.87 3.19 3.19 0 0 1-.82-2.3 3.38 3.38 0 0 1 .85-2.44 3.05 3.05 0 0 1 2.3-.88 2.77 2.77 0 0 1 2.16.85 3.43 3.43 0 0 1 .77 2.37 3.38 3.38 0 0 1-.83 2.38 3 3 0 0 1-2.24.89zm.07-5.66a1.86 1.86 0 0 0-1.51.66 2.66 2.66 0 0 0-.55 1.79 2.5 2.5 0 0 0 .56 1.74 1.91 1.91 0 0 0 1.5.64 1.78 1.78 0 0 0 1.47-.63 2.67 2.67 0 0 0 .52-1.77 2.74 2.74 0 0 0-.52-1.8 1.78 1.78 0 0 0-1.47-.63zM342.65 527.63h-1v-1a2 2 0 0 1-1.9 1.13c-1.47 0-2.21-.88-2.21-2.64v-3.71h1V525c0 1.31.5 2 1.5 2a1.5 1.5 0 0 0 1.19-.54 2.06 2.06 0 0 0 .47-1.4v-3.58h1zM348 522.43a1.21 1.21 0 0 0-.74-.2 1.25 1.25 0 0 0-1.06.6 2.72 2.72 0 0 0-.43 1.63v3.17h-1v-6.21h1v1.28a2.21 2.21 0 0 1 .64-1 1.61 1.61 0 0 1 1.56-.28zM358 527.63h-1v-1.06a2.29 2.29 0 0 1-2.13 1.2 2.33 2.33 0 0 1-1.86-.83 3.46 3.46 0 0 1-.69-2.27 3.66 3.66 0 0 1 .77-2.46 2.53 2.53 0 0 1 2.06-.93 2 2 0 0 1 1.85 1v-3.84h1zm-1-2.81v-.91a1.76 1.76 0 0 0-.49-1.27 1.66 1.66 0 0 0-1.26-.53 1.71 1.71 0 0 0-1.42.67 2.92 2.92 0 0 0-.52 1.84 2.62 2.62 0 0 0 .5 1.69 1.6 1.6 0 0 0 1.33.63 1.71 1.71 0 0 0 1.35-.6 2.27 2.27 0 0 0 .56-1.52zM364.61 527.63h-1v-1a2.07 2.07 0 0 1-1.9 1.11 2 2 0 0 1-1.44-.49 1.7 1.7 0 0 1-.53-1.3c0-1.16.68-1.83 2-2l1.85-.26c0-1.06-.42-1.59-1.27-1.59a3 3 0 0 0-2 .77v-1a3.76 3.76 0 0 1 2.1-.58c1.45 0 2.17.77 2.17 2.31zm-1-3.14l-1.49.2a2.38 2.38 0 0 0-1 .35 1 1 0 0 0-.35.87.93.93 0 0 0 .32.74 1.24 1.24 0 0 0 .86.29 1.62 1.62 0 0 0 1.22-.52 1.9 1.9 0 0 0 .47-1.31zM371.54 521.42l-2.84 7.2c-.51 1.28-1.22 1.93-2.13 1.93a2.35 2.35 0 0 1-.65-.08v-.89a1.9 1.9 0 0 0 .59.11 1.22 1.22 0 0 0 1.12-.9l.49-1.18-2.41-6.19h1.1l1.67 4.78c0 .06.06.21.12.47 0-.1.06-.25.12-.46l1.76-4.79zM373.51 527.74a.66.66 0 0 1-.48-.2.64.64 0 0 1-.19-.47.66.66 0 0 1 .19-.48.65.65 0 0 1 .48-.19.66.66 0 0 1 .47.19.67.67 0 0 1 .2.48.65.65 0 0 1-.2.47.67.67 0 0 1-.47.2zm.5-8.8l-.11 6.24h-.82l-.1-6.24z" fill="#fff"/><rect x="259.71" y="332.83" width="51.96" height="8.83" rx="3.64" ry="3.64" fill="#a5802a"/><circle cx="239.87" cy="337.24" r="6.1" fill="#a5802a"/><text transform="translate(220.84 427.75)" font-size="58.28" fill="#fff" font-family="SegoeUI-Light, Segoe UI" letter-spacing=".01em">7:00</text></g><path fill="#333" stroke="#a5802a" stroke-miterlimit="10" stroke-width="2" opacity=".2" d="M286.19 239.69l2.12 10.45 10.44 2.12-10.44 2.12-2.12 10.44-2.12-10.44-10.45-2.12 10.45-2.12 2.12-10.45zM498.94 399.69l2.13 10.45 10.44 2.12-10.44 2.12-2.13 10.44-2.12-10.44-10.44-2.12 10.44-2.12 2.12-10.45zM59.68 431.52l1.39 6.84 6.83 1.39-6.83 1.39-1.39 6.83-1.39-6.83-6.84-1.39 6.84-1.39 1.39-6.84zM464.32 554.08l1.41 6.93 6.94 1.41-6.94 1.41-1.41 6.94-1.41-6.94-6.93-1.41 6.93-1.41 1.41-6.93zM185.94 138.16l2.13 10.44 10.44 2.13-10.44 2.12-2.13 10.44-2.12-10.44-10.44-2.12 10.44-2.13 2.12-10.44z"/></g></svg>