<svg xmlns="http://www.w3.org/2000/svg" viewBox="0 0 360.18 381.43"><g data-name="Comp 1"><path d="M209.7 311.21a19.53 19.53 0 0 0-1.45 5.42z" fill="#333"/><path d="M209.7 311.21c6.37-15.08 30.27-22.21 34.8-30.82 5.05-9.58 6.5-8.39 6.5-8.39-3.23 7.74-.2 12.53-.2 12.53s.2-12.53 15.59-27.8 21.37-56.47 21.37-56.47c8.58 14.53 1.21 25.52 1.21 25.52 12.72-15.27 23.8-42.86-2-75-22-27.39-22-35.61-22-35.61l-1.88-4.17-3 1.23a13 13 0 1 0-16.42-16.44 51.68 51.68 0 0 0-64.43.44A13 13 0 1 0 159.9 111c-1.29 5-6.29 19.65-24 41.62-25.84 32.12-6.66 72.22 6.05 87.48 0 0-5.27-8.47-3-21.48 0 0 2.13 24.67 17.52 39.93s15.6 27.8 15.6 27.8 3-4.79-.2-12.53c0 0 1.41-1.17 6.45 8.41s12.72 31.91 32.1 37.38a10.45 10.45 0 0 1-2.17-3c-1.44-2.78-2.69-7.56-.46-14.58l-1.7 1.52" fill="#262626"/><path d="M209.24 316.74l-2-.23c1.4-12.26 13.67-20 23.52-26.23 5.94-3.75 11.06-7 12.84-10.35 4.47-8.49 6.25-8.85 6.84-9a1.36 1.36 0 0 1 1.14.24l.57.48-.29.68a16.37 16.37 0 0 0-1.37 7.66c1.32-5.07 5-13.95 15.14-24 15-14.85 21-55.5 21.08-55.9l.41-2.81 1.44 2.44c4.74 8 4.81 15 3.81 19.76 19.83-29.49 2.54-57.13-6.28-68.09-21.95-27.29-23.78-40-23.85-40.54l2-.26c0 .13 1.92 12.82 23.42 39.55 29.06 36.13 11.1 65.36 2 76.25l-1.6-1.2a19.46 19.46 0 0 0 2.47-7 24.68 24.68 0 0 0-2.33-14.86c-1.69 9.8-8 41-21.18 54.1-14.93 14.81-15.3 27-15.3 27.1v3.35l-1.8-2.88c-.12-.18-2.43-4-1-10.13a49.41 49.41 0 0 0-3.56 5.95c-2 3.84-7.36 7.21-13.54 11.11-9.96 6.35-21.28 13.5-22.58 24.81z" fill="#a5802a"/><path d="M211.07 318.83c-.25-.21-5.89-5.25-2.32-16.48l-1.91-.61c-2.47 7.77-.87 13 .77 15.84-14-5.63-21.13-20.65-25.94-30.81-.88-1.84-1.7-3.59-2.46-5-4.47-8.49-6.25-8.85-6.84-9a1.3 1.3 0 0 0-1.14.24l-.57.47.28.68a16.31 16.31 0 0 1 1.38 7.66c-1.32-5.07-5-13.95-15.14-24-15-14.82-17.22-39.06-17.24-39.31l-.67-7.74-1.27 7.66a36.81 36.81 0 0 0 .44 15c-11-16.75-24.91-51.38-1.68-80.26 18.35-22.81 22.8-36.47 23.82-40.72a14.14 14.14 0 0 0 4 1.3l.32-2a12 12 0 1 1 13.18-16.12 6.82 6.82 0 0 1 .51 2.18l1.9-1.81c-.16-1.4-.26-.36-.79-1.6a14 14 0 1 0-21.21 16.82c-1.23 4.89-6 19.21-23.33 40.72-27.35 34-4.9 75.59 6.06 88.75l1.62-1.17a29.13 29.13 0 0 1-3.31-11.71c2 8.69 6.54 21.78 16.24 31.4 14.87 14.75 15.3 27 15.3 27.1l.05 3.35 1.79-2.83c.12-.18 2.43-3.95 1-10.13a49.41 49.41 0 0 1 3.56 5.95c.74 1.4 1.52 3 2.42 4.95 5.31 11.21 13.34 28.14 30.29 32.92l4.32 1.22z" fill="#a5802a"/><path d="M242.23 116.34c0 13.23 6.59 23.95 14.73 23.95h.22v40.38c0 19.9-13.74 36-30.68 36h-27.45c-17 0-30.68-16.14-30.68-36v-40.38c8.14 0 14.73-10.72 14.73-23.95" fill="#262626"/><path d="M226.5 217.71h-27.45c-17.47 0-31.68-16.62-31.68-37v-41.42h1c7.57 0 13.73-10.3 13.73-22.95h2c0 13.22-6.52 24.08-14.73 24.9v39.43c0 19.32 13.31 35 29.68 35h27.45c16.36 0 29.68-15.72 29.68-35v-39.41c-8.32-.65-15-11.58-15-24.92h2c0 12.65 6.16 22.95 13.73 22.95h1.22v41.38c.05 20.42-14.13 37.04-31.63 37.04z" fill="#a5802a"/><path d="M182.51 192.28v28.5c0 9.39 8.41 15.26 15.13 10.57l15.13-13.8 15.13 13.8c6.73 4.65 15.1-1.18 15.1-10.57v-28.5" fill="#262626"/><path fill="#262626" d="M212.77 216.71l13.42-16.75h-26.84l13.42 16.75z"/><path d="M226.28 159.36V199h-27v-39.63H176.7v2h2.72l7.28 11.92h10.57V199l14.52 18.13L197 230.56a7.48 7.48 0 0 1-7.93.55c-3.44-1.79-5.58-5.75-5.58-10.33v-28.5h-2v28.5c0 5.33 2.55 10 6.66 12.11a9.45 9.45 0 0 0 10-.72l14.56-13.27 14.46 13.19.1.08a9.48 9.48 0 0 0 10 .72c4.1-2.14 6.65-6.78 6.65-12.11v-28.5h-2v28.5c0 4.58-2.13 8.54-5.58 10.33a7.46 7.46 0 0 1-7.92-.55l-14.78-13.47L228.28 199v-25.67h10.78l7.31-12H249v-2zm-29 11.93h-9.45l-6.06-9.92h15.51zm15.5 43.82L201.43 201h22.68zm25.17-43.78h-9.66v-10H244zM256.05 85.87a14 14 0 0 0-12.75 8.19l-.05.11a52.78 52.78 0 0 0-68.74 5l1.41 1.41a50.78 50.78 0 0 1 71.72 0l1.42-1.41a52.13 52.13 0 0 0-4.17-3.74 12 12 0 1 1 13.11 16.3l.32 2a14 14 0 0 0-2.26-27.84z" fill="#a5802a"/><path fill="#333" d="M210.42 30.75l2.12 10.45 10.45 2.12-10.45 2.12-2.12 10.45-2.12-10.45-10.45-2.12 10.45-2.12 2.12-10.45z"/><path d="M210.42 60.91l-3-14.62-14.63-3 14.63-3 3-14.62 3 14.62 14.62 3-14.62 3zm-7.54-17.59l6.26 1.27 1.28 6.27 1.27-6.27 6.31-1.27-6.27-1.27-1.27-6.27-1.28 6.27z" fill="#a5802a"/><path d="M241.46 319h-15a36.37 36.37 0 0 0-41.35-53.29A50.33 50.33 0 0 0 87.9 278.6a36.76 36.76 0 0 0-8.18-.93 36.3 36.3 0 0 0-36 41.33h-11a15.72 15.72 0 0 0 0 31.43h208.74a15.72 15.72 0 1 0 0-31.43z" fill="#262626"/><path d="M241.46 351.43H32.71a16.72 16.72 0 0 1 0-33.43h9.85a38.1 38.1 0 0 1-.22-3.95A37.38 37.38 0 0 1 87 277.39 51.06 51.06 0 0 1 138 232a51.57 51.57 0 0 1 47.76 32.51A37.36 37.36 0 0 1 228.19 318h13.27a16.72 16.72 0 1 1 0 33.43zM32.71 320a14.72 14.72 0 0 0 0 29.43h208.75a14.72 14.72 0 1 0 0-29.43h-16.7l.88-1.5a35.37 35.37 0 0 0-40.21-51.83l-.89.25-.32-.86a49.34 49.34 0 0 0-95.33 12.63l-.11 1.14-1.11-.26a35.4 35.4 0 0 0-43.33 34.48 36.43 36.43 0 0 0 .34 4.82l.15 1.13z" fill="#a5802a"/><path d="M330.2 287.85h-7.41a21.17 21.17 0 0 0-37.11-13.94v-.11a25.71 25.71 0 1 0-47.23 14.05h-19.61a10.59 10.59 0 0 0 0 21.18H330.2a10.59 10.59 0 1 0 0-21.18z" fill="#262626"/><path d="M330.2 310H218.84a11.59 11.59 0 0 1 0-23.18h17.83a26.71 26.71 0 1 1 49.92-15.3 22.16 22.16 0 0 1 37.17 15.3h6.44a11.59 11.59 0 1 1 0 23.18zm-111.36-21.15a9.59 9.59 0 0 0 0 19.18H330.2a9.59 9.59 0 1 0 0-19.18h-8.41v-1a20.17 20.17 0 0 0-35.36-13.28l-1.75 2v-2.77a24.71 24.71 0 1 0-45.39 13.5l1 1.55z" fill="#a5802a"/><path fill="#333" d="M306.47 103.22l2.12 10.45 10.45 2.12-10.45 2.12-2.12 10.45-2.12-10.45-10.45-2.12 10.45-2.12 2.12-10.45z"/><path d="M306.47 133.38l-3-14.62-14.62-3 14.62-3 3-14.62 3 14.62 14.62 3-14.62 3zm-7.54-17.59l6.27 1.27 1.27 6.27 1.27-6.27 6.27-1.27-6.27-1.27-1.27-6.27-1.27 6.27z" fill="#a5802a"/><path fill="#333" d="M96.86 180.83l2.12 10.45 10.45 2.12-10.45 2.12-2.12 10.45-2.12-10.45-10.44-2.12 10.44-2.12 2.12-10.45z"/><path d="M96.86 211l-3-14.62-14.62-3 14.62-3 3-14.63 3 14.63 14.63 3-14.63 3zm-7.54-17.6l6.27 1.27 1.27 6.27 1.27-6.27 6.27-1.27-6.27-1.28-1.27-6.26-1.27 6.26zM97.06 103L90 101.73l.09-.7 7.17.63.12-1.34-7.17-.63v-.71h16v-1.35h-16v-.7l7.17-.63-.15-1.3-7.17.63-.09-.7 25-4.41-.23-1.33-17.9 3.16-7.08 1.25c0-.23-.11-.46-.16-.69l7-1.86-.35-1.3-7 1.86-.25-.71 6.77-2.47 8.27-3-.46-1.27-15 5.48c-.08-.22-.17-.44-.26-.65l6.52-3-.57-1.22-6.53 3.05c-.1-.21-.21-.42-.32-.63l22-12.68-.67-1.17L93 82.36 86.71 86c-.12-.2-.25-.4-.38-.6l5.91-4.13-.78-1.11-5.9 4.14-.43-.56 5.52-4.63 6.75-5.67-.86-1-12.28 10.24-.48-.52 5.11-5.1-1-1-5.1 5.1-.52-.48L87 75.21l11.63-13.92-1-.87-16.35 19.45-.56-.44 4.14-5.9-1.11-.78-4.13 5.91-.62-.38 8-13.87-1.16-.68-4.41 7.63-3.6 6.24-.63-.32 3-6.53-1.22-.57-3 6.53c-.21-.1-.43-.19-.65-.27l2.46-6.77L84 52.6l-1.27-.47L74.09 76l-.67-.22 1.87-7-1.29-.32-1.86 7-.69-.16 2.78-15.76-1.33-.23-1.53 8.67L70.1 75l-.7-.08.6-7.16-1.34-.12-.63 7.18h-.7v-25.4H66v25.37h-.71l-.62-7.18-1.35.12.68 7.21-.7.08-2.82-15.76-1.33.23 1.53 8.68 1.25 7.08-.68.16-1.87-7-1.3.35 1.86 7-.67.22-2.46-6.77-6.22-17.08-1.26.47L58 76.44l-.65.27-3-6.53-1.22.57 3 6.53-.62.32-3.61-6.24-4.4-7.63-1.17.68 8 13.87-.59.38-4.14-5.91-1.1.78 4.13 5.9c-.19.14-.37.29-.55.44L35.77 60.42l-1 .87 11.65 13.92 4.63 5.52-.51.48-5.11-5.1-1 1 5.1 5.1c-.16.17-.32.34-.47.52L36.83 72.38l-.87 1 6.75 5.67 5.53 4.63-.43.56-5.91-4.11-.77 1.11L47 85.37c-.12.2-.25.4-.38.6l-6.24-3.61-15.7-9.08-.68 1.17 22 12.68c-.12.21-.22.42-.33.63l-6.53-3.05-.57 1.22 6.53 3-.27.65-15-5.48-.46 1.27 8.28 3 6.77 2.47c-.07.22-.15.44-.21.67l-7-1.86-.38 1.35 7 1.86c-.06.23-.11.46-.16.69l-7.09-1.25-17.93-3.15-.23 1.33 25 4.41c0 .23-.06.46-.09.7l-7.2-.59-.13 1.3 7.17.63v.7h-16V99h16v.71l-7.17.63.11 1.34 7.18-.63c0 .23 0 .47.09.7L36.31 103l-17.89 3.15.23 1.33 25-4.4c0 .23.1.46.16.69l-7 1.86.35 1.3 7-1.86c.06.22.14.45.21.67l-15 5.48.46 1.26 8.28-3 6.7-2.48.27.65-6.53 3 .57 1.22 6.53-3c.11.21.21.42.33.63L24 122.17l.68 1.17 15.73-9.08 6.24-3.61.38.59-5.9 4.14.77 1.1 5.91-4.13c.14.19.28.37.43.55L36 123.21l.87 1 6.75-5.67 5.53-4.63.47.52-5.1 5.1 1 1 5.11-5.1.51.48-16.4 19.42 1 .87 11.68-13.92 4.64-5.53.55.44-4.13 5.9 1.1.77 4.14-5.9.59.38-8 13.87 1.17.68 4.4-7.64 3.63-6.25.62.32-3 6.53 1.22.57 3-6.53.66.27L49.33 144l1.26.46 6.22-17.07 2.46-6.77.67.22-1.86 7 1.3.35 1.87-7 .68.16-1.25 7.09-1.53 8.68 1.33.23 2.78-15.77c.23 0 .47.06.7.09l-.63 7.18 1.35.12.62-7.18h.71v25.41h1.35v-25.37h.7l.63 7.18 1.34-.12-.63-7.18c.24 0 .47-.05.7-.09l1.25 7.09 1.53 8.68 1.33-.23-2.78-15.77.69-.16 1.86 7 1.31-.35-1.87-7 .67-.22 8.68 23.84L84 144l-6.18-17-2.46-6.77.65-.27 3 6.53 1.22-.57-3-6.53.63-.32 3.6 6.23 4.41 7.64 1.16-.68-8-13.87.6-.38 4.13 5.9 1.11-.77-4.14-5.9.56-.44 16.3 19.4 1-.87L87 121.41l-4.64-5.52.52-.48 5.1 5.1 1-1-5.11-5.1.48-.52 5.53 4.63 6.75 5.67.86-1-12.36-10.29c.14-.18.29-.36.43-.55l5.9 4.13.78-1.1-5.91-4.14c.13-.19.26-.39.38-.59l6.29 3.61 15.74 9.08.67-1.17-22-12.68c.11-.21.22-.42.32-.63l6.53 3 .57-1.22-6.52-3c.09-.22.18-.44.26-.65l6.77 2.46 8.28 3 .46-1.26-15-5.48.21-.67 7 1.86.35-1.3-7-1.86c0-.23.11-.46.16-.69l25 4.4.23-1.33L97.06 103zm-30.38 17.5a22.19 22.19 0 1 1 22.19-22.19 22.21 22.21 0 0 1-22.19 22.19z" fill="#a5802a"/></g></svg>