<svg xmlns="http://www.w3.org/2000/svg" viewBox="0 0 360.18 381.43"><g data-name="Comp 1"><path d="M330.2 298.44h-7.41a21.16 21.16 0 0 0-37.11-13.93v-.11a25.71 25.71 0 1 0-47.23 14h-19.61a10.6 10.6 0 0 0 0 21.19H330.2a10.6 10.6 0 0 0 0-21.19z" fill="#262626"/><path d="M330.2 320.63H218.84a11.6 11.6 0 0 1 0-23.19h17.83a26.71 26.71 0 1 1 49.92-15.29 22.15 22.15 0 0 1 37.17 15.29h6.44a11.6 11.6 0 0 1 0 23.19zm-111.36-21.19a9.6 9.6 0 0 0 0 19.19H330.2a9.6 9.6 0 0 0 0-19.19h-8.41v-1a20.16 20.16 0 0 0-35.36-13.27l-1.75 2v-2.77a24.71 24.71 0 1 0-45.39 13.5l1 1.54z" fill="#a5802a"/><path d="M18.84 297.44h7.42a21.16 21.16 0 0 1 37.1-13.93v-.11a25.71 25.71 0 1 1 47.23 14h19.61a10.6 10.6 0 0 1 0 21.19H18.84a10.6 10.6 0 0 1 0-21.19z" fill="#262626"/><path d="M7.25 308a11.61 11.61 0 0 1 11.59-11.6h6.44a22.15 22.15 0 0 1 37.17-15.29 26.71 26.71 0 1 1 49.92 15.29h17.83a11.6 11.6 0 0 1 0 23.19H18.84A11.6 11.6 0 0 1 7.25 308zm101.5-9.6l1-1.54a24.71 24.71 0 1 0-45.4-13.5v2.77l-1.75-2a20.16 20.16 0 0 0-35.35 13.27v1h-8.41a9.6 9.6 0 0 0 0 19.19H130.2a9.6 9.6 0 0 0 0-19.19z" fill="#a5802a"/><g opacity=".53" stroke="#a5802a" stroke-miterlimit="10" stroke-width="2"><path d="M281 120.24s-12 8.45 1.63 21.79c0 0-7.35-.54-9.8-6 0 0-7.63 14.16 6 28.06 0 0-18.25-7.09-17.71-17.71.59-11.44-1.36-13.62-1.36-13.62s-1.09 11.71-3.27 18c0 0-.81-9-2.45-14.17 0 0-16.89 7.36-1.91 30.24s3.47 31.94 3.47 31.94c-1.46-12.76-21-18-24.46-24.45s-4.36-5.68-4.36-5.68c2.18 5.23.14 8.45.14 8.45s-.14-8.45-10.52-18.75-14.4-38.12-14.4-38.12c-5.79 9.81-.82 17.22-.82 17.22-8.58-10.3-16-28.92 1.38-50.59 14.86-18.48 16-27 16-27s1-5.87 6.13-7" fill="#262626"/><path d="M221.87 57.23c-4.36-16.71 34.32-29.78 43.58-6.36v-.36l25.61 10.35 9.8 22.34 18.21 8.9a7.34 7.34 0 0 1 3.51 9.52L309 132.77s-17.16-12.26-32.68-3.81" fill="#262626"/><path d="M234.78 57.94c-24.71-3.36-33.66 21.63-33.66 21.63.24-17.28 9.43-29.57 24.88-31.19M257.46 57.23a8.78 8.78 0 1 0-12.62 10.4" fill="#262626"/><path d="M251.75 97.82c-2.61 7.49 1.76 15.79 9.34 18.44a12.48 12.48 0 0 1-15-3.73" fill="none"/><path d="M318.84 110.25s1.82-8.35-4.36-10.53c-3.23-1.14 2.18-8.35 2.18-8.35M315.21 118.24s-3.19 2.21-8.72.37a9.67 9.67 0 0 0-9.44 2.18" fill="#262626"/><path d="M259.69 132.63s-14.21-12.93-13.49-20.92 11.26-19.25 6.9-25.79-3.63-10.17-3.63-10.17" fill="none"/></g><path d="M271.46 319h-15a36.37 36.37 0 0 0-41.35-53.29 50.33 50.33 0 0 0-97.21 12.89 36.76 36.76 0 0 0-8.18-.93 36.3 36.3 0 0 0-36 41.33h-11a15.72 15.72 0 0 0 0 31.43h208.74a15.72 15.72 0 1 0 0-31.43z" fill="#262626"/><path d="M271.46 351.43H62.71a16.72 16.72 0 0 1 0-33.43h9.85a38.1 38.1 0 0 1-.22-3.95A37.38 37.38 0 0 1 117 277.39 51.06 51.06 0 0 1 168 232a51.57 51.57 0 0 1 47.76 32.51A37.36 37.36 0 0 1 258.19 318h13.27a16.72 16.72 0 1 1 0 33.43zM62.71 320a14.72 14.72 0 0 0 0 29.43h208.75a14.72 14.72 0 1 0 0-29.43h-16.7l.88-1.5a35.37 35.37 0 0 0-40.21-51.83l-.89.25-.32-.86a49.34 49.34 0 0 0-95.33 12.63l-.11 1.14-1.11-.26a35.4 35.4 0 0 0-43.33 34.48 36.43 36.43 0 0 0 .34 4.82l.15 1.13zM261.63 191.25l3.25-7.48-7.21-3.82 7.88-2.13-1.5-8.02 6.57 4.83 5.33-6.17.32 8.15 8.15.32-6.17 5.33 4.83 6.58-8.02-1.5-2.12 7.87-3.83-7.2-7.48 3.24zM23.24 180.97l3.24-7.48-7.2-3.82 7.87-2.13-1.5-8.02 6.58 4.83 5.33-6.17.32 8.15 8.15.32-6.17 5.34 4.83 6.57-8.02-1.5-2.13 7.87-3.82-7.2-7.48 3.24zM222.83 139.86l3.24-7.49-7.2-3.82 7.88-2.13-1.5-8.02 6.57 4.83 5.33-6.17.32 8.15 8.15.32-6.17 5.34 4.83 6.57-8.02-1.5-2.13 7.87-3.82-7.2-7.48 3.25zM109.48 178.26l-.36-6.23-5.34-3.23 5.81-2.27 1.43-6.07 3.95 4.83 6.21-.52-3.37 5.25 2.42 5.74-6.03-1.57-4.72 4.07zM228.58 109.81l-.36-6.22-5.33-3.23 5.8-2.27 1.43-6.07 3.95 4.82 6.21-.52-3.36 5.25 2.41 5.75-6.03-1.58-4.72 4.07zM260.64 153.15l-.36-6.22-5.33-3.23 5.81-2.27 1.43-6.07 3.94 4.83 6.22-.53-3.37 5.25 2.42 5.75-6.03-1.58-4.73 4.07zM284.82 95.7l-.9-6.17-5.59-2.76 5.59-2.76.9-6.17 4.35 4.46 6.14-1.05-2.9 5.52 2.9 5.52-6.14-1.06-4.35 4.47zM86.17 240.47l4.96-2.54 2.8-4.82 2.54 4.96 4.81 2.81-4.95 2.53-2.81 4.82-2.54-4.96-4.81-2.8zM84.01 204.22l4.96-2.54 2.8-4.81 2.54 4.96 4.82 2.8-4.96 2.54-2.81 4.82-2.54-4.96-4.81-2.81zM331.78 165.92l4.42 3.4 5.55.48-3.4 4.42-.48 5.55-4.41-3.4-5.56-.48 3.4-4.42.48-5.55zM265.2 75.14l4.42-3.39 1.9-5.25 3.39 4.43 5.24 1.89-4.42 3.39-1.9 5.24-3.39-4.42-5.24-1.89zM295.023 175.918l29.778-3.471.1.864-29.778 3.472zM48.428 168.64l50.9-.986.018.87-50.9.986zM97.82 197.584l9.556-16.884.757.429-9.556 16.883zM91.044 230.64l.369-14.174.87.022-.37 14.175zM131.012 164.46l81.974-22.702.233.839-81.975 22.702zM246.496 90.912l15.772-11.653.517.7-15.772 11.653z" fill="#a5802a"/></g></svg>