<svg xmlns="http://www.w3.org/2000/svg" viewBox="0 0 643.58 166.61"><g data-name="Comp 1"><circle cx="86.58" cy="77.4" r="40.05" fill="#a5802a" stroke="#a5802a" stroke-miterlimit="10" stroke-width="2"/><path d="M125 65.85l-.18-.49c-.24-.72-.49-1.43-.73-2.14-.08-.23-.19-.35-.45-.32s-.39 0-.58 0a1.72 1.72 0 0 1-2-.86 2.26 2.26 0 0 1-.28-.66c-.08-.45-.12-.91-.18-1.4-.62.25-1.18.47-1.26 1.25a10.33 10.33 0 0 1-.34 1.57 16.07 16.07 0 0 1-1.45-1.59 1.6 1.6 0 0 1-.12-.94 1.14 1.14 0 0 0-.52-1.08 3.3 3.3 0 0 1-.84-.73c-.64-.88-1.53-.69-2.45-.66.18.49.33 1 .51 1.4a.73.73 0 0 0 .32.28c.51.3 1 .57 1.55.87.2.13.38.3.64.5-.51.17-.48.5-.47.85s0 .55-.08.62a2.22 2.22 0 0 1-1.06.37c-.68 0-.83-.15-1.17-.84.53-.2 1.31.4 1.66-.52-.67-.45-1.35-.89-2-1.37s-1.34-.62-1.25-1.67c-.4.36-.69.58-.94.85a.75.75 0 0 1-.91.24.92.92 0 0 0-1.27.47c-.29.47-.68.86-1 1.31s-.48.88-.75 1.29a.72.72 0 0 1-.44.34 20.69 20.69 0 0 1-2.61.08 3.26 3.26 0 0 1-1.18-.46c-.09 0-.14-.22-.16-.34-.09-.54-.17-1.08-.23-1.63a1.5 1.5 0 0 1 0-.47 1.23 1.23 0 0 1 1.07-1 5 5 0 0 1 2.65.1c.46.12.63 0 .67-.45a4.86 4.86 0 0 1 .11-.58l-.85-.24c.09-.53.17-1.07.29-1.59 0-.09.18-.17.29-.19.47-.1.94-.14 1.4-.26a1.33 1.33 0 0 0 .62-.4 4 4 0 0 0 .62-.86c.54-1.09 1.52-1.06 2.5-1 .47 0 .93.11 1.44.17-.11-.7-.2-1.29-.29-1.93l-1.64.63c-.14-.35-.29-.66-.39-1a.67.67 0 0 0-.66-.53c-.17 0-.46-.12-.49-.24-.07-.31-.27-.63 0-1a3.68 3.68 0 0 1 1.81-1.12 1.91 1.91 0 0 0 .69-.37c.5-.58.47-.7-.11-1.19a39.59 39.59 0 0 0-21.24-9.29l-1.72-.17h-6.46a40.44 40.44 0 0 0-19.87 7.44v.12h1.47a1.06 1.06 0 0 1 .51.09 5.3 5.3 0 0 0 2 .68c.28 0 .45.16.49.47a.42.42 0 0 0 .3.28h2.34c0-.63-.19-.77-.83-.78s-1.11 0-1.7-.06c.29-.38.63-.7.14-1.17h-1.85v-.08c.49-.37 1-.71 1.46-1.11a2.67 2.67 0 0 1 1.73-.61 1.87 1.87 0 0 1 2.1 1.09.86.86 0 0 0 .75.44 2 2 0 0 0 2.21-.81 1.58 1.58 0 0 1 .18-.15l.69.35c-.44.48-.86 1-1.31 1.39-.08.08-.28.08-.42.08h-1.56c0 .5.08.93.11 1.36h2.33c.09 0 .22-.18.26-.3a.49.49 0 0 1 .52-.37h.8c.26 0 .62-.11.63-.53a3.31 3.31 0 0 1 .08-.49l-.89-.19c0-.76.33-1.09 1-1.1s1.67.06 2.63.1c-.46.42-.82.79-1.22 1.11s-.11.68 0 1c0 .13.28.26.45.3.34.08.7.11 1.12.17 0-.5 0-.95-.09-1.4a.65.65 0 0 1 .38-.69c1.09-.72 2.35-.65 3.55-.83a.77.77 0 0 1 .38.1l3.16 1.4a.49.49 0 0 1 .35.53v1l1.18.34c-.17.33-.32.65-.5.95a.51.51 0 0 1-.29.16.57.57 0 0 1-.26 0c-.86-.14-1.5.06-1.65 1a.35.35 0 0 1-.26.2c-1.18-.27-2.35-.55-3.55-.93L85 46.5c-.4-.34-.75-.65-1.12-.93-.08-.06-.23 0-.34 0-.54.07-1.08.18-1.63.21a1.43 1.43 0 0 0-1.21.61 1.44 1.44 0 0 1-1.3.61h-.37c-.16.46.11.67.45.85V48a6.26 6.26 0 0 0-.73.14c-.12 0-.31.13-.31.21 0 .44-.28.45-.6.44h-.44c-.06-.37-.12-.73-.2-1.17a15.47 15.47 0 0 0-1.92.67c-1 .55-2 1.19-3.08 1.78-.23.13-.32.28-.22.53a1.62 1.62 0 0 1 .12.43c.14.92.82 1.23 1.6 1.4a11.09 11.09 0 0 0 1.27.18c.26 0 .33.13.32.37v1.91c.58 0 1-.07 1.2-.68a2.16 2.16 0 0 1 1.86-1.62c.85-.19.84-.25.84-1.11V50.1a1 1 0 0 1 .41-.81 1.5 1.5 0 0 1 1.69-.36 6.6 6.6 0 0 0 1.46.34c.42.06.49.26.43.63s-.09.82-.14 1.26c1.13.21 1.85-.69 2.86-.92 0 .63.07 1.26.07 1.88a.6.6 0 0 0 .34.61c.29.15.55.35.84.5a.58.58 0 0 1 .36.63c0 1 0 1-1 1.34a1.76 1.76 0 0 0-.44.29c.14.16.24.38.42.49a3.5 3.5 0 0 0 .88.4.62.62 0 0 1 .5.82v.37a2.23 2.23 0 0 1-.58 0c-.62-.17-1.25-.35-1.86-.58a.65.65 0 0 1-.3-.44.75.75 0 0 1 .16-.48c.11-.16.35-.26.4-.43.13-.47 0-.57-.69-.67 0 .63-.47.63-.91.68a3.11 3.11 0 0 0-.44.07c-.41.12-.68.06-.84-.4s-.88-.54-1.35-.36a.61.61 0 0 0-.4.78.52.52 0 0 0 .26.33c.33.12.68.19 1.08.3l-.69.76-.23-.24a.7.7 0 0 0-1 0c-.38.36-.77.7-1.13 1.07-.11.12-.13.31-.22.46a.52.52 0 0 1-.19.2 3.79 3.79 0 0 1-.62.35c-1.72.68-2.81 2.12-4 3.39A1.11 1.11 0 0 0 74 63a1.13 1.13 0 0 1-.59 1 12.69 12.69 0 0 0-3 2.27.84.84 0 0 0-.24.7c0 .64.08 1.27.13 2-.59-.27-1.1-.5-1.61-.76-.06 0-.07-.21-.07-.33v-1.1H64.3a2.52 2.52 0 0 0-.8.19c-.18.06-.34.19-.52.25-2 .66-2.52 2.41-3 4.17 0 .22.17.51.24.77a1.24 1.24 0 0 0 1.25 1 2.48 2.48 0 0 0 1.94-.45c.67-.52 1.41-1 2.17-1.46.18.52.4 1 .05 1.49a12.1 12.1 0 0 0-.63 1.2l2.32.42c.07 1.08.15 2.13.2 3.17 0 .34.14.46.47.5.79.11 1.57.26 2.36.41a.59.59 0 0 0 .65-.22c.5-.61 1-1.18 1.53-1.79a.54.54 0 0 1 .65-.21 4.93 4.93 0 0 0 1.13.23 1.75 1.75 0 0 1 1.53 1 .61.61 0 0 0 .72.36c.41 0 .83 0 1.24-.08.65 0 .65 0 .76-.71.62.31 1.3.46 1.65 1.17a11.24 11.24 0 0 0 .93 1.46.73.73 0 0 0 .49.27h1.78a.65.65 0 0 1 .63.35 4.74 4.74 0 0 1 .84 2.93.46.46 0 0 0 .38.5c.75.27 1.49.56 2.25.84a1.47 1.47 0 0 0 .51.08h2.76a.64.64 0 0 1 .69.42 2.59 2.59 0 0 0 2.1 1.72.93.93 0 0 1 .22.09 3.26 3.26 0 0 1-.78 2 4.5 4.5 0 0 0-1.43 3.48 18.79 18.79 0 0 1-.25 2.47 1.29 1.29 0 0 1-.33.62 2.77 2.77 0 0 1-2.81.95c-.55-.11-.83.14-1.11.6a1.7 1.7 0 0 0-.21 1.54c.12.39.17.81.28 1.2a.83.83 0 0 1-.18.85 23.79 23.79 0 0 0-2.97 4.2.77.77 0 0 1-.36.3 20 20 0 0 1-1.93.91 6.27 6.27 0 0 1-1.38.29c-.26 0-.37.13-.4.41s.1.37.33.41l.21.06c.55.16.66.56.26 1s-.55.53-.79.76c.28.93 1 .87 1.77.84-.08.45-.14.83-.21 1.22 0 .11-.08.22-.12.33-.29.84-.26 1 .4 1.5a9.62 9.62 0 0 0 .92.77c.31.22.14.46.09.71s-.25.28-.46.27a2 2 0 0 0-.49 0 3.3 3.3 0 0 1-2.75-1 12.74 12.74 0 0 1-2.39-3.2 2.89 2.89 0 0 1-.5-2.38 3.24 3.24 0 0 0-1-3.36.78.78 0 0 1-.19-.81c.16-.84.3-1.69.45-2.53a.53.53 0 0 0 0-.12s0-.06-.07-.07c-.73-.28-.73-.28-.73-1.1v-5.51a.8.8 0 0 0-.4-.76 11 11 0 0 1-1-.77 3.78 3.78 0 0 0-1.9-.9.45.45 0 0 1-.45-.48 2.69 2.69 0 0 0-.74-1.66 65.9 65.9 0 0 1-2.22-2.78.83.83 0 0 1-.16-.55c.08-1 .22-1.9.29-2.86a.81.81 0 0 1 .4-.72c.5-.31 1-.68 1.47-1a.48.48 0 0 0 .24-.55c-.09-.6-.18-1.21-.23-1.81 0-.28-.14-.37-.42-.39-.78 0-1.56-.09-2.34-.17a.91.91 0 0 1-.56-.28c-.64-.78-1.24-1.51-1.89-2.21a1.46 1.46 0 0 0-.65-.42c-.77-.22-1.56-.41-2.39-.62 0-.29.06-.6.1-.94l-1.32-.19-.12.52c-.8-.19-1.59-.44-2.4-.57a2.05 2.05 0 0 1-1.68-1.24 1 1 0 0 0-.16-.26c-.5-.56-.72-1.13-.15-1.78.06-.08 0-.34-.08-.47-.5-.75-1-1.5-1.54-2.23a3.12 3.12 0 0 1-.63-1.62c0-.25-.07-.5-.11-.74-.13-.8-.13-.8-1-.66.2 1.07.08 2.21.86 3.13.24.28.38.64.62.92a1.29 1.29 0 0 1 .15 1.42 1.72 1.72 0 0 1-1.7-.82 6.14 6.14 0 0 1-1.15-4.37 1 1 0 0 0-.79-1.23 1.07 1.07 0 0 1-.89-1.4 7.78 7.78 0 0 0 0-1.2 4.07 4.07 0 0 0-.23.43 39 39 0 0 0-2 6.51v.66c-1.54 3.29-2.17 10.39 0 15.9.37.91.32 2 .6 2.94A39.69 39.69 0 0 0 62 109a39.2 39.2 0 0 0 17.67 7.84c1.4.24 2.81.38 4.13.53h5.34a39.88 39.88 0 0 0 28.43-14.72h-1.26v-2.24a1.65 1.65 0 0 0-.24-.77 9.43 9.43 0 0 1-1.22-2 6.8 6.8 0 0 1 0-2.3 1.18 1.18 0 0 0-.49-1.14 1.82 1.82 0 0 1-.77-1.77 1.66 1.66 0 0 1 .14-.54c.37-.73.74-1.45 1.13-2.16a.65.65 0 0 0 0-.74c-.82-1.4-1.62-2.82-2.41-4.24a1.5 1.5 0 0 1-.17-.75c0-.78.15-1.56.22-2.34v-.64c-.66-.07-1.27-.17-1.89-.19a1.27 1.27 0 0 1-1.06-.52 1.29 1.29 0 0 0-1.15-.5 1.89 1.89 0 0 0-1.73.64.73.73 0 0 1-.47.17h-1.82a1.61 1.61 0 0 0-1.07.21c-.24.19-.72 0-1.08.07a1 1 0 0 1-.89-.45c-1.06-1.24-2.14-2.46-3.2-3.69a1 1 0 0 1-.21-.51v-2.79c0-.14.09-.36.18-.38.45-.1.53-.41.56-.79 0-.2.07-.4.1-.59s-.06-.07-.09-.07c-.26 0-.66 0-.74-.13a3 3 0 0 1-.35-1.13c0-.1.13-.27.25-.36 1.25-.91 2.51-1.83 3.78-2.72a.69.69 0 0 0 .34-.66 13.36 13.36 0 0 1 0-1.55.61.61 0 0 1 .27-.44c.54-.34 1.1-.64 1.66-.94a1.24 1.24 0 0 1 .5-.1c.33 0 .65 0 1 .06a4 4 0 0 0 2.61-.56 3.12 3.12 0 0 1 1.2-.21l3.49-.28v1.79c0 .37.08.56.47.64.82.16 1.62.37 2.41.6.41.12.77.35 1.17.5a7 7 0 0 0 .85.24v-1.31c.65-.07 1.25-.14 1.85-.18a.71.71 0 0 1 .44.15c.45.31.87.68 1.33 1a1.88 1.88 0 0 0 .88.29h2.27c.21 0 .42 0 .65-.06v.34zM105 51.6c.08-.31.21-.62.6-.68l1.06-.21c.27 1.54.67 2.95 2.28 3.6-.36.51-.65 1-1.41 1s-1.29 0-2 .09c0-.46.06-.85.13-1.23 0-.1.23-.17.36-.24s.52-.15.56-.29c.1-.32-.1-.57-.41-.74s-.54-.37-.82-.52a.62.62 0 0 1-.3-.78zm-1.91 2c.33-.54.67-1 1.36-1a2.42 2.42 0 0 1 .91.25c.2.09.1.83-.12 1a11 11 0 0 1-1.39 1 3 3 0 0 1-1 .13 1.63 1.63 0 0 1 .29-1.42zm-22 5.16c-.14.44-.5.22-.94.32l.44-1.08c.41.18.67.32.53.72zm2.6-.76a1.06 1.06 0 0 0-.34.36 1 1 0 0 1-1 .51c-.28 0-.48-.43-.43-.86h.51c.36 0 .66 0 .78-.44.07-.24.44-.24 1 .1a4.59 4.59 0 0 0-.49.33z" fill="#262626"/><circle cx="86.58" cy="77.4" r="40.05" fill="none" stroke="#a5802a" stroke-miterlimit="10" stroke-width="2"/><path d="M37.26 41l1.92-4.42-4.4-3.08-3.53 3.34a9.91 9.91 0 0 0-1.19-.31l-1.45-4.85-5.34.46-.59 5.1c-.29.12-.58.26-.87.41l-4.44-2.95-3.8 3.8 2.94 4.44q-.18.35-.33.69l-5.47.63-.47 5.35 5.13 1.52c.05.24.11.48.17.72l-3.79 4 3.08 4.4 4.77-2.07.72.55-.32 5.35 5.19 1.39L27.4 61h1.18l3 4.08 4.86-2.27-1.09-4.58a11.34 11.34 0 0 0 .9-.81l.15-.16 4.7 1.12 2.3-4.88-3.68-2.73a11.51 11.51 0 0 0 .17-1.54l4.23-2.12-1.38-5.18-4.64.27a11.93 11.93 0 0 0-.84-1.2zm-4.62 2.53a7.25 7.25 0 1 1-10.25 0 7.25 7.25 0 0 1 10.25-.01zM53.32 23.2l1-2.25-2.24-1.57-1.79 1.7c-.2-.06-.41-.11-.61-.15l-.74-2.47-2.72.24-.3 2.59-.44.2L43.2 20l-1.93 1.93 1.49 2.26c-.06.12-.11.24-.16.35l-2.79.32-.23 2.72 2.61.78c0 .12.05.25.08.37l-1.93 2L41.91 33l2.43-1 .37.28-.17 2.72 2.64.7 1.13-2.25h.6l1.54 2.08 2.47-1.15-.56-2.38a4.58 4.58 0 0 0 .46-.42.3.3 0 0 0 .08-.08l2.39.57 1.16-2.47-1.88-1.39a5.31 5.31 0 0 0 .09-.79l2.15-1.07-.7-2.64-2.36.14a6.26 6.26 0 0 0-.43-.65zM51 24.49a3.69 3.69 0 1 1-5.22 0 3.68 3.68 0 0 1 5.22 0z" fill="#a5802a"/><path fill="#333" d="M149.53 63.07h131.36v28.09H149.53z"/><path d="M281.69 92h-133V62.27h133zm-131.36-1.6h129.76V63.87H150.33z" fill="#a5802a"/><path fill="#333" d="M249.84 63.07h31.04v28.09h-31.04z"/><path d="M281.69 92H249V62.27h32.65zm-31.05-1.6h29.45V63.87h-29.45z" fill="#a5802a"/><path fill="#a5802a" d="M256.28 76.32h9.84v1.6h-9.84z"/><path d="M273.81 77.12a38.51 38.51 0 0 0-10.89 6l2.19-6-2.19-6.06a38.29 38.29 0 0 0 10.89 6.06z" fill="#a5802a"/><path fill="#333" stroke="#a5802a" stroke-miterlimit="10" stroke-width="2" d="M424.95 98.38H629.7v62.01H424.95z"/><text transform="translate(465.17 116.42)" font-size="11.57" fill="#fff" font-family="Georgia, Georgia" letter-spacing=".01em">The Zodiac would like to <tspan x="-9.75" y="13.5">send you push notifications!</tspan></text><path fill="#333" stroke="#a5802a" stroke-miterlimit="10" stroke-width="2" d="M424.95 141.99h102.38v18.4H424.95zM527.33 141.99H629.7v18.4H527.33z"/><text transform="translate(463.82 154.33)" font-size="9.64" fill="#fff" font-family="Georgia, Georgia" letter-spacing=".01em">Allow</text><text transform="translate(562.14 154.33)" font-size="9.64" fill="#fff" font-family="Georgia, Georgia" letter-spacing=".01em">Decline</text><path fill="#6e9b76" d="M334.8 55.9l-16.06-16.06 5.15-5.15 10.91 10.9 37.13-37.14 5.15 5.16L334.8 55.9z"/><path fill="#ce7882" d="M369.13 147.35l-18.57-18.57 18.57-18.56-5.15-5.16-18.57 18.57-18.57-18.57-5.15 5.16 18.57 18.56-18.57 18.57 5.15 5.15 18.57-18.56 18.57 18.56 5.15-5.15z"/><path d="M145.59 79.78a1 1 0 0 1 1-1 1 1 0 0 1 1 1 1 1 0 0 1-1 1 1 1 0 0 1-1-1zm-6 0a1 1 0 0 1 1-1 1 1 0 0 1 1 1 1 1 0 0 1-1 1 1 1 0 0 1-1-1zm-6 0a1 1 0 0 1 1-1 1 1 0 0 1 1 1 1 1 0 0 1-1 1 1 1 0 0 1-1-1zm-6 0a1 1 0 0 1 1-1 1 1 0 0 1 1 1 1 1 0 0 1-1 1 1 1 0 0 1-1-1zM301.09 79.78a1 1 0 0 1 1-1 1 1 0 0 1 1 1 1 1 0 0 1-1 1 1 1 0 0 1-1-1zm-6 0a1 1 0 0 1 1-1 1 1 0 0 1 1 1 1 1 0 0 1-1 1 1 1 0 0 1-1-1zm-6 0a1 1 0 0 1 1-1 1 1 0 0 1 1 1 1 1 0 0 1-1 1 1 1 0 0 1-1-1zm-6 0a1 1 0 0 1 1-1 1 1 0 0 1 1 1 1 1 0 0 1-1 1 1 1 0 0 1-1-1zM307.28 80.78a1 1 0 0 1-.38-.07 1 1 0 0 1-.32-.22 1 1 0 0 1-.22-1.09.87.87 0 0 1 .22-.32 1 1 0 0 1 1.63.32 1 1 0 0 1-.22 1.09 1 1 0 0 1-.32.22 1 1 0 0 1-.39.07zM306.28 73.45a1 1 0 0 1 1-1 1 1 0 0 1 1 1 1 1 0 0 1-1 1 1 1 0 0 1-1-1zm0-6.33a1 1 0 0 1 1-1 1 1 0 0 1 1 1 1 1 0 0 1-1 1 1 1 0 0 1-1-1zm0-6.34a1 1 0 0 1 1-1 1 1 0 0 1 1 1 1 1 0 0 1-1 1 1 1 0 0 1-1-1zm0-6.33a1 1 0 0 1 1-1 1 1 0 0 1 1 1 1 1 0 0 1-1 1 1 1 0 0 1-1-1zm0-6.33a1 1 0 0 1 1-1 1 1 0 0 1 1 1 1 1 0 0 1-1 1 1 1 0 0 1-1-1zm0-6.34a1 1 0 0 1 1-1 1 1 0 0 1 1 1 1 1 0 0 1-1 1 1 1 0 0 1-1-1zm0-6.33a1 1 0 0 1 1-1 1 1 0 0 1 1 1 1 1 0 0 1-1 1 1 1 0 0 1-1-1zM307.28 30.12a1 1 0 0 1-.38-.08.87.87 0 0 1-.32-.22 1 1 0 0 1-.3-.7 1.09 1.09 0 0 1 .08-.39.87.87 0 0 1 .22-.32 1 1 0 0 1 1.63.32 1.07 1.07 0 0 1 .07.39 1 1 0 0 1-.29.7.87.87 0 0 1-.32.22 1 1 0 0 1-.39.08zM317.39 29.12a1 1 0 0 1 1-1 1 1 0 0 1 1 1 1 1 0 0 1-1 1 1 1 0 0 1-1-1zm-5.55 0a1 1 0 0 1 1-1 1 1 0 0 1 1 1 1 1 0 0 1-1 1 1 1 0 0 1-1-1zM324 30.11a1 1 0 0 1-.38-.07 1 1 0 0 1-.33-.22 1 1 0 0 1-.29-.7 1 1 0 0 1 .29-.71l.15-.13.18-.09.18-.05a.86.86 0 0 1 .39 0l.19.05.18.09.15.13a1 1 0 0 1 .29.71 1 1 0 0 1-.29.7 1 1 0 0 1-.33.22 1 1 0 0 1-.38.07z" fill="#a5802a"/><path d="M307.28 80.83a.93.93 0 0 1-.7-.29 1 1 0 0 1 0-1.42 1 1 0 0 1 1.41 0 1 1 0 0 1 .22 1.09 1.19 1.19 0 0 1-.22.33 1.21 1.21 0 0 1-.32.22 1.23 1.23 0 0 1-.39.07zM306.28 124.16a1 1 0 0 1 1-1 1 1 0 0 1 1 1 1 1 0 0 1-1 1 1 1 0 0 1-1-1zm0-6.33a1 1 0 0 1 1-1 1 1 0 0 1 1 1 1 1 0 0 1-1 1 1 1 0 0 1-1-1zm0-6.33a1 1 0 0 1 1-1 1 1 0 0 1 1 1 1 1 0 0 1-1 1 1 1 0 0 1-1-1zm0-6.34a1 1 0 0 1 1-1 1 1 0 0 1 1 1 1 1 0 0 1-1 1 1 1 0 0 1-1-1zm0-6.33a1 1 0 0 1 1-1 1 1 0 0 1 1 1 1 1 0 0 1-1 1 1 1 0 0 1-1-1zm0-6.33a1 1 0 0 1 1-1 1 1 0 0 1 1 1 1 1 0 0 1-1 1 1 1 0 0 1-1-1zm0-6.34a1 1 0 0 1 1-1 1 1 0 0 1 1 1 1 1 0 0 1-1 1 1 1 0 0 1-1-1zM307.28 131.5a1 1 0 0 1-.38-.08 1.07 1.07 0 0 1-.54-.54 1 1 0 0 1-.08-.38 1.09 1.09 0 0 1 .08-.39.87.87 0 0 1 .22-.32 1 1 0 0 1 1.63.32 1.07 1.07 0 0 1 .07.39 1 1 0 0 1-.07.38 1 1 0 0 1-.22.32.87.87 0 0 1-.32.22 1 1 0 0 1-.39.08zM317.73 130.5a1 1 0 0 1 1-1 1 1 0 0 1 1 1 1 1 0 0 1-1 1 1 1 0 0 1-1-1zm-5.72 0a1 1 0 0 1 1-1 1 1 0 0 1 1 1 1 1 0 0 1-1 1 1 1 0 0 1-1.01-1zM324.45 131.5a1 1 0 0 1-.71-.3 1.21 1.21 0 0 1-.22-.32 1 1 0 0 1-.07-.38 1.36 1.36 0 0 1 0-.2.82.82 0 0 1 .06-.19.7.7 0 0 1 .09-.17 1.58 1.58 0 0 1 .12-.15 1 1 0 0 1 .9-.27h.19a1 1 0 0 1 .17.1.61.61 0 0 1 .16.12 1 1 0 0 1 .29.71.84.84 0 0 1-.08.38 1 1 0 0 1-.21.32 1 1 0 0 1-.69.35zM412.7 130.5a1 1 0 0 1 1-1 1 1 0 0 1 1 1 1 1 0 0 1-1 1 1 1 0 0 1-1-1zm-6 0a1 1 0 0 1 1-1 1 1 0 0 1 1 1 1 1 0 0 1-1 1 1 1 0 0 1-1-1zm-6 0a1 1 0 0 1 1-1 1 1 0 0 1 1 1 1 1 0 0 1-1 1 1 1 0 0 1-1-1zm-6 0a1 1 0 0 1 1-1 1 1 0 0 1 1 1 1 1 0 0 1-1 1 1 1 0 0 1-1-1zm-6 0a1 1 0 0 1 1-1 1 1 0 0 1 1 1 1 1 0 0 1-1 1 1 1 0 0 1-1-1zm-6 0a1 1 0 0 1 1-1 1 1 0 0 1 1 1 1 1 0 0 1-1 1 1 1 0 0 1-1-1zm-6 0a1 1 0 0 1 1-1 1 1 0 0 1 1 1 1 1 0 0 1-1 1 1 1 0 0 1-1-1zm-6 0a1 1 0 0 1 1-1 1 1 0 0 1 1 1 1 1 0 0 1-1 1 1 1 0 0 1-1-1zm-6 0a1 1 0 0 1 1-1 1 1 0 0 1 1 1 1 1 0 0 1-1 1 1 1 0 0 1-1-1zm-6 0a1 1 0 0 1 1-1 1 1 0 0 1 1 1 1 1 0 0 1-1 1 1 1 0 0 1-1-1z" fill="#a5802a"/><path d="M171.21 73.35a3.54 3.54 0 0 0-.5.1 1.34 1.34 0 0 0-.48.18.83.83 0 0 0-.29.56 6.24 6.24 0 0 0-.07 1.06v6.1h-.51l-5-6.82v4.3a5.23 5.23 0 0 0 .09 1.11 1 1 0 0 0 .28.56 1.52 1.52 0 0 0 .55.24 3.16 3.16 0 0 0 .56.11v.42h-3.44v-.42a2.39 2.39 0 0 0 .54-.11 1.31 1.31 0 0 0 .46-.19.82.82 0 0 0 .28-.5 5.19 5.19 0 0 0 .08-1.15v-4.11a1.7 1.7 0 0 0-.09-.54 1.2 1.2 0 0 0-.25-.42 1.88 1.88 0 0 0-.58-.33 2.15 2.15 0 0 0-.58-.15v-.42h2.37l4.67 6.36v-4a5.27 5.27 0 0 0-.09-1.12.9.9 0 0 0-.27-.52 1.79 1.79 0 0 0-.54-.22 3 3 0 0 0-.56-.12v-.42h3.37zM177.51 78.32a3.87 3.87 0 0 1-.2 1.2 2.77 2.77 0 0 1-.55 1 2.6 2.6 0 0 1-.93.7 3.09 3.09 0 0 1-1.2.23 2.73 2.73 0 0 1-1-.21 2.63 2.63 0 0 1-.88-.61 2.92 2.92 0 0 1-.61-1 3.42 3.42 0 0 1-.22-1.27 3.13 3.13 0 0 1 .79-2.22 2.64 2.64 0 0 1 2.06-.87 2.68 2.68 0 0 1 2 .82 3 3 0 0 1 .74 2.23zm-1.21 0a5 5 0 0 0-.09-.93 3.13 3.13 0 0 0-.26-.83 1.61 1.61 0 0 0-.5-.59 1.2 1.2 0 0 0-.74-.22 1.29 1.29 0 0 0-.77.22 1.63 1.63 0 0 0-.52.61 2.93 2.93 0 0 0-.27.82 5.51 5.51 0 0 0-.07.89 5.67 5.67 0 0 0 .09 1 3.22 3.22 0 0 0 .29.86 1.71 1.71 0 0 0 .5.59 1.28 1.28 0 0 0 .75.21 1.31 1.31 0 0 0 1.16-.71 3.85 3.85 0 0 0 .43-1.91zM182.05 81l-.72.27a2.9 2.9 0 0 1-.83.1 1.24 1.24 0 0 1-1-.36 1.61 1.61 0 0 1-.3-1v-3.94h-1v-.57h1.06v-1.8h1.07v1.8h1.65v.57h-1.64v3.23a5 5 0 0 0 0 .61 1 1 0 0 0 .12.43.64.64 0 0 0 .28.26 1.4 1.4 0 0 0 .51.08h.43a2 2 0 0 0 .4-.07zM185.56 81.27h-2.79v-.39h.28a.85.85 0 0 0 .25 0 .37.37 0 0 0 .24-.18.61.61 0 0 0 .08-.35v-3.64a.77.77 0 0 0-.08-.34.75.75 0 0 0-.24-.26.89.89 0 0 0-.3-.11 2 2 0 0 0-.39-.07v-.38l2-.13.08.08v4.72a.68.68 0 0 0 .08.34.43.43 0 0 0 .25.2 1.25 1.25 0 0 0 .25.09 1.1 1.1 0 0 0 .27 0zm-.73-8.15a.85.85 0 0 1-.22.59.72.72 0 0 1-.54.25.69.69 0 0 1-.52-.24.76.76 0 0 1-.22-.54.8.8 0 0 1 .22-.57.69.69 0 0 1 .52-.24.75.75 0 0 1 .55.23.73.73 0 0 1 .21.52zM190.71 72.88a.73.73 0 0 1-.14.45.5.5 0 0 1-.43.18.53.53 0 0 1-.31-.08 1 1 0 0 1-.26-.2 2.32 2.32 0 0 1-.22-.3 2.36 2.36 0 0 0-.17-.26c-.26 0-.46.19-.6.55a5 5 0 0 0-.21 1.69v.59h1.48v.57h-1.48v4.15a.69.69 0 0 0 .07.34.48.48 0 0 0 .25.19 1.52 1.52 0 0 0 .38.09 3.37 3.37 0 0 0 .4 0v.39h-3v-.39h.28a.92.92 0 0 0 .25 0 .4.4 0 0 0 .24-.18.72.72 0 0 0 .08-.35v-4.24h-1.14v-.57h1.14v-.37A3.17 3.17 0 0 1 188 73a2.11 2.11 0 0 1 1.7-.82 1.33 1.33 0 0 1 .79.2.64.64 0 0 1 .22.5z" fill="#fff"/><path d="M193.25 81.27h-2.78v-.39h.28a.92.92 0 0 0 .25 0 .37.37 0 0 0 .24-.18.7.7 0 0 0 .08-.35v-3.64a.67.67 0 0 0-.09-.34.64.64 0 0 0-.23-.26 1 1 0 0 0-.33-.12 1.92 1.92 0 0 0-.38-.07v-.38l2-.13.09.08v4.72a.69.69 0 0 0 .07.34.5.5 0 0 0 .25.2l.25.09a1.1 1.1 0 0 0 .27 0zm-.73-8.15a.85.85 0 0 1-.22.59.69.69 0 0 1-.54.25.65.65 0 0 1-.51-.24.76.76 0 0 1-.22-.54.8.8 0 0 1 .22-.57.65.65 0 0 1 .51-.24.72.72 0 0 1 .55.23.73.73 0 0 1 .21.52zM196.78 81.42a2.41 2.41 0 0 1-2-.83 3.36 3.36 0 0 1-.71-2.24 3.25 3.25 0 0 1 .19-1.14 3.21 3.21 0 0 1 .55-1 2.63 2.63 0 0 1 .87-.67 2.58 2.58 0 0 1 1.14-.26 2.24 2.24 0 0 1 1.38.41 1.35 1.35 0 0 1 .53 1.12 1 1 0 0 1-.14.51.48.48 0 0 1-.46.23.81.81 0 0 1-.54-.17.53.53 0 0 1-.19-.4 2.11 2.11 0 0 1 .07-.54 1.78 1.78 0 0 0 .08-.41.5.5 0 0 0-.31-.24 1.63 1.63 0 0 0-.45-.06 1.24 1.24 0 0 0-.53.12 1.41 1.41 0 0 0-.49.44 2.29 2.29 0 0 0-.35.8 4.57 4.57 0 0 0-.14 1.19 3 3 0 0 0 .48 1.78 1.5 1.5 0 0 0 1.27.69 1.61 1.61 0 0 0 1-.27 2.91 2.91 0 0 0 .71-.84l.37.25a2.92 2.92 0 0 1-1 1.1 2.36 2.36 0 0 1-1.33.43zM205.16 81.16l-.48.17a1.73 1.73 0 0 1-.47.06 1.1 1.1 0 0 1-.73-.22 1 1 0 0 1-.35-.62 2.82 2.82 0 0 1-.82.64 2.26 2.26 0 0 1-1.05.23 1.52 1.52 0 0 1-1.07-.4 1.39 1.39 0 0 1-.42-1 1.89 1.89 0 0 1 .1-.6 1.57 1.57 0 0 1 .66-.79 3.81 3.81 0 0 1 .46-.22L202 78a8.43 8.43 0 0 0 1.09-.42V77a2.85 2.85 0 0 0 0-.3 1.53 1.53 0 0 0-.14-.41 1.31 1.31 0 0 0-.33-.38 1.05 1.05 0 0 0-.61-.16 1.39 1.39 0 0 0-.5.09 1 1 0 0 0-.32.19 2.06 2.06 0 0 0 0 .35 1.64 1.64 0 0 1 .06.42.49.49 0 0 1-.19.38.73.73 0 0 1-.51.17.48.48 0 0 1-.43-.21.84.84 0 0 1-.14-.47.85.85 0 0 1 .19-.51 2 2 0 0 1 .5-.44 2.73 2.73 0 0 1 .64-.28 2.37 2.37 0 0 1 .73-.12 5.34 5.34 0 0 1 .86.07 1.63 1.63 0 0 1 .66.29 1.34 1.34 0 0 1 .45.59 2.41 2.41 0 0 1 .16 1v2.91a.78.78 0 0 0 .08.37.74.74 0 0 0 .24.22.53.53 0 0 0 .28.06h.39zm-2-3.1c-.33.1-.62.2-.87.29a3.56 3.56 0 0 0-.7.36 1.58 1.58 0 0 0-.46.47 1.23 1.23 0 0 0-.17.65.93.93 0 0 0 .25.72 1 1 0 0 0 .65.23 1.28 1.28 0 0 0 .73-.21 1.88 1.88 0 0 0 .53-.48zM209.44 81l-.72.27a2.81 2.81 0 0 1-.83.1 1.26 1.26 0 0 1-1-.36 1.61 1.61 0 0 1-.29-1v-3.94h-1.05v-.57h1.07v-1.8h1.06v1.8h1.66v.57h-1.64v3.23a5.35 5.35 0 0 0 0 .61 1.2 1.2 0 0 0 .13.43.59.59 0 0 0 .28.26 1.34 1.34 0 0 0 .5.08h.43a1.84 1.84 0 0 0 .4-.07zM213 81.27h-2.79v-.39h.28a.92.92 0 0 0 .25 0 .37.37 0 0 0 .24-.18.7.7 0 0 0 .08-.35v-3.64a.77.77 0 0 0-.08-.34.75.75 0 0 0-.24-.26 1 1 0 0 0-.32-.12 2 2 0 0 0-.39-.07v-.38l2-.13.08.08v4.72a.59.59 0 0 0 .08.34.44.44 0 0 0 .24.2l.25.09a1.18 1.18 0 0 0 .28 0zm-.74-8.15a.89.89 0 0 1-.21.59.73.73 0 0 1-.55.25.67.67 0 0 1-.51-.24.76.76 0 0 1-.22-.54.8.8 0 0 1 .22-.57.67.67 0 0 1 .51-.24.72.72 0 0 1 .55.23.73.73 0 0 1 .17.52zM219.44 78.32a3.86 3.86 0 0 1-.19 1.2 2.93 2.93 0 0 1-.55 1 2.55 2.55 0 0 1-.94.7 3 3 0 0 1-1.19.23 2.68 2.68 0 0 1-1.94-.82 2.9 2.9 0 0 1-.6-1 3.42 3.42 0 0 1-.23-1.27 3.13 3.13 0 0 1 .79-2.22 2.64 2.64 0 0 1 2.06-.87 2.67 2.67 0 0 1 2 .82 3 3 0 0 1 .79 2.23zm-1.21 0a5 5 0 0 0-.09-.93 2.8 2.8 0 0 0-.26-.83 1.69 1.69 0 0 0-.49-.59 1.23 1.23 0 0 0-.75-.22 1.29 1.29 0 0 0-.77.22 1.83 1.83 0 0 0-.52.61 2.92 2.92 0 0 0-.26.82 5.55 5.55 0 0 0-.08.89 5.67 5.67 0 0 0 .09 1 3.22 3.22 0 0 0 .29.86 1.82 1.82 0 0 0 .5.59 1.32 1.32 0 0 0 .75.21 1.3 1.3 0 0 0 1.16-.71 3.75 3.75 0 0 0 .43-1.91zM226.79 81.27H224v-.39h.29a.93.93 0 0 0 .27 0 .37.37 0 0 0 .24-.18.63.63 0 0 0 .08-.35v-3a1.4 1.4 0 0 0-.29-1 .9.9 0 0 0-.7-.33 1.48 1.48 0 0 0-.57.1 1.8 1.8 0 0 0-.46.23 1.45 1.45 0 0 0-.31.29l-.17.25v3.33a.54.54 0 0 0 .09.33.44.44 0 0 0 .24.2 1.07 1.07 0 0 0 .27.09 1.35 1.35 0 0 0 .29 0v.39h-2.82v-.39h.28a.85.85 0 0 0 .24 0 .42.42 0 0 0 .25-.18.7.7 0 0 0 .08-.35v-3.6a.81.81 0 0 0-.09-.37.69.69 0 0 0-.24-.27.67.67 0 0 0-.26-.1h-.33v-.38l1.92-.13.08.08v.82l.35-.34a3.28 3.28 0 0 1 .4-.32 2.27 2.27 0 0 1 .52-.24 2.31 2.31 0 0 1 .67-.09 1.45 1.45 0 0 1 1.23.52 2.2 2.2 0 0 1 .4 1.38v3a.81.81 0 0 0 .07.33.54.54 0 0 0 .24.2l.25.08a1.58 1.58 0 0 0 .28 0zM231.45 78.43a1.59 1.59 0 0 1 .37.49 1.68 1.68 0 0 1 .13.68 1.65 1.65 0 0 1-.6 1.31 2.57 2.57 0 0 1-2.48.33 2.47 2.47 0 0 1-.61-.33l-.12.38h-.43l-.06-2h.4a2.13 2.13 0 0 0 .2.54 2.31 2.31 0 0 0 .37.55 1.93 1.93 0 0 0 .54.44 1.48 1.48 0 0 0 .72.18 1.33 1.33 0 0 0 .87-.26.92.92 0 0 0 .3-.74.82.82 0 0 0-.1-.42.84.84 0 0 0-.28-.32 2.06 2.06 0 0 0-.47-.24l-.63-.21a6.06 6.06 0 0 1-.61-.23 2.69 2.69 0 0 1-.58-.34 1.7 1.7 0 0 1-.42-.5 1.46 1.46 0 0 1-.16-.71 1.56 1.56 0 0 1 .53-1.2 2 2 0 0 1 1.41-.5 2.84 2.84 0 0 1 .69.09 2.74 2.74 0 0 1 .58.21l.13-.3h.42l.09 1.86h-.4a1.93 1.93 0 0 0-.53-1 1.41 1.41 0 0 0-1-.39 1.09 1.09 0 0 0-.72.2.77.77 0 0 0-.28.59 1 1 0 0 0 .09.44.89.89 0 0 0 .28.3 2 2 0 0 0 .44.22l.66.23a5.84 5.84 0 0 1 .73.29 2.7 2.7 0 0 1 .53.36z" fill="#fff"/></g></svg>