<?xml version="1.0" encoding="utf-8"?>
<!-- Generator: Adobe Illustrator 22.0.1, SVG Export Plug-In . SVG Version: 6.00 Build 0)  -->
<svg version="1.1" id="Layer_1" xmlns="http://www.w3.org/2000/svg" xmlns:xlink="http://www.w3.org/1999/xlink" x="0px" y="0px"
	 viewBox="0 0 435.5 922.7" style="enable-background:new 0 0 435.5 922.7;" xml:space="preserve">
<style type="text/css">
	.st0{opacity:0.15;}
	.st1{fill:#757575;}
	.st2{opacity:0.3;fill:#333333;enable-background:new    ;}
	.st3{fill:#333333;}
</style>
<title>astrology-demo</title>
<g class="st0">
	<polygon class="st1" points="-3.5,866.4 -2.3,869.4 0.8,868.5 -0.8,871.3 1.9,873.2 -1.3,873.7 -1.1,876.9 -3.5,874.7 -5.9,876.9 
		-5.7,873.7 -8.9,873.2 -6.2,871.3 -7.8,868.5 -4.7,869.4 	"/>
	<polygon class="st1" points="98.3,662.3 99.5,665.4 102.7,664.4 101,667.2 103.7,669.1 100.5,669.6 100.7,672.8 98.3,670.6 
		95.9,672.8 96.2,669.6 92.9,669.1 95.6,667.2 94,664.4 97.1,665.4 	"/>
	<polygon class="st1" points="210.1,621.5 211.3,624.6 214.4,623.6 212.8,626.5 215.5,628.3 212.2,628.8 212.5,632.1 210.1,629.9 
		207.7,632.1 207.9,628.8 204.7,628.3 207.4,626.5 205.8,623.6 208.9,624.6 	"/>
	<polygon class="st1" points="134.3,696.3 135.5,699.3 138.6,698.4 137,701.2 139.7,703 136.4,703.5 136.7,706.8 134.3,704.6 
		131.9,706.8 132.1,703.5 128.9,703 131.6,701.2 129.9,698.4 133.1,699.3 	"/>
	<polygon class="st1" points="54.3,413.1 55.9,417.2 60.1,415.9 57.9,419.7 61.5,422.2 57.2,422.8 57.5,427.2 54.3,424.2 51,427.2 
		51.4,422.8 47,422.2 50.7,419.7 48.5,415.9 52.7,417.2 	"/>
	<polygon class="st1" points="110.1,418.4 111.7,422.5 115.9,421.2 113.8,425 117.4,427.5 113,428.1 113.3,432.5 110.1,429.5 
		106.9,432.5 107.2,428.1 102.8,427.5 106.5,425 104.3,421.2 108.5,422.5 	"/>
	<polygon class="st1" points="164.5,303.6 166.1,307.7 170.3,306.4 168.1,310.2 171.7,312.7 167.4,313.3 167.7,317.7 164.5,314.7 
		161.2,317.7 161.6,313.3 157.2,312.7 160.8,310.2 158.6,306.4 162.9,307.7 	"/>
	<polygon class="st1" points="243.5,470.6 245.1,474.7 249.3,473.4 247.1,477.3 250.8,479.8 246.4,480.4 246.7,484.8 243.5,481.8 
		240.3,484.8 240.6,480.4 236.2,479.8 239.9,477.3 237.7,473.4 241.9,474.7 	"/>
	<polygon class="st1" points="1.7,83 3.3,87.1 7.5,85.8 5.3,89.6 8.9,92.1 4.6,92.7 4.9,97.1 1.7,94.1 -1.6,97.1 -1.3,92.7 
		-5.6,92.1 -2,89.6 -4.2,85.8 0,87.1 	"/>
	<polygon class="st1" points="131.1,101.8 132.7,105.9 136.9,104.6 134.7,108.4 138.4,110.9 134,111.6 134.3,116 131.1,113 
		127.9,116 128.2,111.6 123.8,110.9 127.5,108.4 125.3,104.6 129.5,105.9 	"/>
	<polygon class="st1" points="188.9,118.2 190.5,122.3 194.7,121 192.5,124.9 196.2,127.3 191.8,128 192.1,132.4 188.9,129.4 
		185.7,132.4 186,128 181.6,127.3 185.3,124.9 183.1,121 187.3,122.3 	"/>
	<polygon class="st1" points="221.4,202.1 223,206.2 227.2,204.9 225,208.7 228.7,211.2 224.3,211.9 224.6,216.3 221.4,213.3 
		218.2,216.3 218.5,211.9 214.1,211.2 217.8,208.7 215.6,204.9 219.8,206.2 	"/>
	<polygon class="st1" points="359.9,350.6 361.5,354.7 365.7,353.4 363.5,357.3 367.1,359.7 362.8,360.4 363.1,364.8 359.9,361.8 
		356.6,364.8 357,360.4 352.6,359.7 356.3,357.3 354.1,353.4 358.3,354.7 	"/>
	<polygon class="st1" points="135.9,118.7 137.3,122.2 140.8,121.1 139,124.3 142,126.4 138.4,126.9 138.6,130.6 135.9,128.1 
		133.2,130.6 133.5,126.9 129.8,126.4 132.9,124.3 131,121.1 134.6,122.2 	"/>
	<polygon class="st1" points="58.6,196.4 60,199.9 63.5,198.8 61.7,202 64.7,204.1 61,204.7 61.3,208.4 58.6,205.8 55.9,208.4 
		56.2,204.7 52.5,204.1 55.5,202 53.7,198.8 57.2,199.9 	"/>
	<polygon class="st1" points="15.1,260.8 16.4,264.2 20,263.1 18.1,266.3 21.2,268.4 17.5,269 17.8,272.7 15.1,270.1 12.4,272.7 
		12.6,269 9,268.4 12,266.3 10.2,263.1 13.7,264.2 	"/>
	<polygon class="st1" points="80.4,278.5 81.8,281.9 85.3,280.8 83.5,284 86.5,286.1 82.9,286.7 83.1,290.4 80.4,287.9 77.7,290.4 
		78,286.7 74.3,286.1 77.4,284 75.5,280.8 79.1,281.9 	"/>
	<polygon class="st1" points="51.3,341.1 52.4,343.9 55.2,343 53.7,345.5 56.2,347.2 53.2,347.7 53.5,350.6 51.3,348.6 49.1,350.6 
		49.3,347.7 46.4,347.2 48.8,345.5 47.3,343 50.2,343.9 	"/>
	<polygon class="st1" points="19.9,352.9 21,355.6 23.8,354.8 22.3,357.3 24.8,359 21.8,359.5 22,362.4 19.9,360.4 17.7,362.4 
		17.9,359.5 15,359 17.4,357.3 15.9,354.8 18.8,355.6 	"/>
	<polygon class="st1" points="39.9,123.8 41.1,127 44.5,126 42.7,129 45.6,131 42.2,131.5 42.4,135 39.9,132.6 37.3,135 37.6,131.5 
		34.1,131 37,129 35.3,126 38.6,127 	"/>
	<polygon class="st1" points="77.7,881.3 79.3,885.4 83.5,884.1 81.3,887.9 84.9,890.4 80.6,891 80.9,895.4 77.7,892.5 74.4,895.4 
		74.7,891 70.4,890.4 74,887.9 71.8,884.1 76,885.4 	"/>
	<polygon class="st1" points="269.1,806.8 270.7,810.9 275,809.6 272.8,813.4 276.4,815.9 272,816.5 272.4,820.9 269.1,817.9 
		265.9,820.9 266.2,816.5 261.9,815.9 265.5,813.4 263.3,809.6 267.5,810.9 	"/>
	<polygon class="st1" points="102.8,517.8 104.5,521.9 108.7,520.6 106.5,524.4 110.1,526.9 105.8,527.6 106.1,532 102.8,529 
		99.6,532 99.9,527.6 95.6,526.9 99.2,524.4 97,520.6 101.2,521.9 	"/>
	<polygon class="st1" points="46.6,698.1 48.2,702.2 52.5,700.9 50.3,704.7 53.9,707.2 49.5,707.9 49.9,712.3 46.6,709.3 
		43.4,712.3 43.7,707.9 39.4,707.2 43,704.7 40.8,700.9 45,702.2 	"/>
	<polygon class="st1" points="31.9,527.1 32.5,530.4 35.5,531.8 32.5,533.4 32.1,536.7 29.7,534.4 26.4,535 27.9,532 26.3,529.1 
		29.6,529.5 	"/>
	<polygon class="st1" points="12.3,473.8 12.9,477.2 15.9,478.6 12.9,480.1 12.5,483.5 10.1,481.1 6.8,481.8 8.3,478.8 6.7,475.8 
		10,476.3 	"/>
	<polygon class="st1" points="31.1,58.9 33.5,61.3 36.8,60.7 35.3,63.7 36.8,66.7 33.5,66.1 31.2,68.5 30.7,65.2 27.7,63.7 
		30.7,62.2 	"/>
	<polygon class="st1" points="74.7,111.1 77.1,113.5 80.4,112.9 78.8,115.9 80.4,118.9 77.1,118.4 74.8,120.8 74.3,117.4 71.2,116 
		74.2,114.5 	"/>
	<polygon class="st1" points="174.5,116 174.5,119.3 177.2,121.2 174,122.3 173.1,125.5 171.1,122.8 167.7,122.8 169.7,120.1 
		168.6,116.9 171.8,118 	"/>
	<polygon class="st1" points="42.9,206.9 42.8,210.2 45.6,212.2 42.4,213.2 41.4,216.4 39.4,213.7 36.1,213.7 38.1,211 37,207.8 
		40.2,208.9 	"/>
	<polygon class="st1" points="46.9,230.3 48.9,233 52.2,232.9 50.3,235.7 51.4,238.8 48.2,237.8 45.6,239.9 45.5,236.5 42.8,234.6 
		46,233.6 	"/>
	<polygon class="st1" points="76.4,355.7 78.4,358.4 81.8,358.3 79.8,361.1 81,364.2 77.8,363.2 75.1,365.3 75.1,361.9 72.3,360 
		75.5,359 	"/>
	<polygon class="st1" points="41,402.9 43,405.6 46.4,405.5 44.4,408.3 45.5,411.4 42.3,410.4 39.7,412.5 39.7,409.1 36.9,407.2 
		40.1,406.2 	"/>
	<polygon class="st1" points="64.9,396.3 64.6,399.6 67.2,401.8 63.9,402.5 62.6,405.6 60.9,402.7 57.6,402.5 59.8,400 59,396.7 
		62.1,398.1 	"/>
	<polygon class="st1" points="135.9,89.8 137.4,92.8 140.7,93.3 138.4,95.6 138.9,98.9 136,97.4 133,99 133.5,95.7 131.1,93.4 
		134.4,92.8 	"/>
	<polygon class="st1" points="201.6,124.2 204.2,126.4 207.4,125.5 206.1,128.6 207.9,131.4 204.6,131.2 202.4,133.8 201.7,130.5 
		198.5,129.2 201.4,127.5 	"/>
	<polygon class="st1" points="162.5,183.3 165,185.5 168.3,184.7 167,187.8 168.8,190.6 165.4,190.3 163.3,192.9 162.6,189.7 
		159.4,188.4 162.3,186.7 	"/>
	<polygon class="st1" points="124.8,180.2 127.3,182.4 130.6,181.6 129.3,184.7 131.1,187.5 127.7,187.2 125.6,189.8 124.8,186.5 
		121.7,185.3 124.6,183.6 	"/>
	<polygon class="st1" points="77.5,164.5 80,166.7 83.3,165.9 82,169 83.8,171.8 80.4,171.5 78.3,174.1 77.5,170.8 74.4,169.6 
		77.3,167.9 	"/>
	<polygon class="st1" points="66.5,315.7 68.1,318.7 71.5,319 69.2,321.5 69.9,324.8 66.8,323.3 63.9,325 64.4,321.7 61.9,319.4 
		65.2,318.8 	"/>
	<polygon class="st1" points="79.5,329.3 82.3,331.2 85.4,329.9 84.5,333.2 86.6,335.8 83.3,335.9 81.5,338.7 80.3,335.6 77,334.7 
		79.7,332.7 	"/>
	<polygon class="st1" points="109,322.7 111.8,324.6 114.9,323.4 114,326.6 116.2,329.2 112.8,329.3 111,332.2 109.8,329 
		106.6,328.2 109.2,326.1 	"/>
	<polygon class="st1" points="138.5,294.3 141.7,295.3 144.4,293.2 144.4,296.5 147.2,298.4 144,299.5 143.1,302.8 141.1,300.1 
		137.8,300.2 139.7,297.4 	"/>
	<polygon class="st1" points="136.1,265.4 139.3,266.3 141.9,264.2 142,267.6 144.8,269.5 141.6,270.6 140.7,273.8 138.7,271.1 
		135.3,271.3 137.3,268.5 	"/>
	<polygon class="st1" points="250.7,334 252.3,337 255.6,337.3 253.3,339.8 254,343.1 251,341.6 248.1,343.3 248.5,340 246,337.7 
		249.3,337.1 	"/>
	<polygon class="st1" points="335.5,298.1 337.1,301.1 340.5,301.4 338.2,303.9 338.9,307.2 335.8,305.7 332.9,307.4 333.4,304 
		330.9,301.8 334.2,301.2 	"/>
	<polygon class="st1" points="344.1,280.9 345.7,283.9 349.1,284.2 346.8,286.7 347.5,290 344.4,288.5 341.5,290.2 342,286.9 
		339.5,284.6 342.8,284 	"/>
	<polygon class="st1" points="192.9,301.9 194.5,304.9 197.9,305.2 195.6,307.7 196.3,311 193.2,309.5 190.3,311.2 190.8,307.9 
		188.2,305.6 191.6,305 	"/>
	<polygon class="st1" points="215.9,418.2 215.2,420.7 216.9,422.8 214.2,422.8 212.8,425 211.9,422.5 209.4,421.9 211.4,420.3 
		211.3,417.6 213.5,419.1 	"/>
	<polygon class="st1" points="266.2,438.2 264.3,440 264.8,442.6 262.5,441.4 260.1,442.7 260.5,440.1 258.6,438.3 261.2,437.9 
		262.4,435.5 263.6,437.8 	"/>
	<polygon class="st1" points="257.3,482.6 255.4,484.4 255.9,487 253.6,485.8 251.2,487.1 251.7,484.5 249.8,482.6 252.4,482.2 
		253.5,479.9 254.7,482.2 	"/>
	<polygon class="st1" points="237.6,469.7 235.7,471.6 236.1,474.2 233.8,473 231.5,474.2 231.9,471.6 230,469.8 232.6,469.4 
		233.8,467 234.9,469.4 	"/>
	<polygon class="st1" points="288.7,401.4 286.8,403.2 287.3,405.8 285,404.6 282.6,405.8 283,403.2 281.1,401.4 283.8,401 
		284.9,398.6 286.1,401 	"/>
	<polygon class="st1" points="353.4,388.4 351.5,390.2 352,392.9 349.6,391.6 347.3,392.9 347.8,390.3 345.8,388.5 348.5,388.1 
		349.6,385.7 350.8,388 	"/>
	<polygon class="st1" points="141.8,434.3 141,436.8 142.7,438.9 140.1,439 138.6,441.2 137.7,438.7 135.2,438 137.3,436.4 
		137.1,433.8 139.3,435.2 	"/>
	<polygon class="st1" points="138,424.1 137,427.5 139.3,430.3 135.7,430.4 133.8,433.4 132.6,430 129.1,429.1 131.9,426.9 
		131.8,423.3 134.7,425.4 	"/>
	<polygon class="st1" points="201.5,335.3 200.5,338.5 202.6,341.1 199.3,341.2 197.4,344.1 196.3,340.9 193.1,340 195.7,338 
		195.6,334.6 198.3,336.5 	"/>
	<polygon class="st1" points="364.6,275.4 366.2,278.4 369.5,278.8 367.2,281.2 367.8,284.5 364.8,283 361.8,284.6 362.3,281.3 
		359.9,279 363.2,278.4 	"/>
	<polygon class="st1" points="375.9,356.9 377.4,359.9 380.7,360.3 378.4,362.7 379,366 376,364.5 373,366.1 373.5,362.8 
		371.1,360.5 374.4,359.9 	"/>
	<polygon class="st1" points="332.7,249.9 334.3,252.9 337.6,253.2 335.3,255.6 336,258.9 333,257.5 330.1,259.2 330.5,255.8 
		328,253.6 331.3,253 	"/>
	<polygon class="st1" points="69.6,194.2 72.2,196.5 75.4,195.6 74.1,198.7 75.9,201.6 72.6,201.3 70.4,203.9 69.7,200.6 
		66.5,199.4 69.4,197.6 	"/>
	<polygon class="st1" points="113.6,183.3 116.1,185.5 119.3,184.7 118,187.8 119.8,190.6 116.5,190.3 114.3,192.9 113.6,189.7 
		110.5,188.4 113.3,186.7 	"/>
	<polygon class="st1" points="238.9,123.8 241.4,126 244.7,125.2 243.4,128.2 245.2,131.1 241.8,130.8 239.7,133.4 238.9,130.1 
		235.8,128.9 238.7,127.2 	"/>
	<polygon class="st1" points="254.3,111 254.8,114.4 257.8,115.9 254.7,117.4 254.2,120.7 251.9,118.2 248.5,118.8 250.2,115.8 
		248.6,112.8 251.9,113.4 	"/>
	<polygon class="st1" points="301.4,123.9 301.8,127.3 304.8,128.8 301.8,130.2 301.2,133.6 298.9,131.1 295.6,131.6 297.2,128.7 
		295.7,125.7 299,126.3 	"/>
	<polygon class="st1" points="340.5,167.8 340.9,171.2 343.9,172.7 340.9,174.2 340.4,177.5 338,175 334.7,175.6 336.3,172.6 
		334.8,169.6 338.1,170.2 	"/>
	<polygon class="st1" points="317.9,184.6 318.3,187.9 321.3,189.5 318.3,190.9 317.7,194.2 315.4,191.8 312.1,192.3 313.7,189.4 
		312.2,186.4 315.5,187 	"/>
	<polygon class="st1" points="266.5,193.2 265.8,196.5 268.1,198.9 264.8,199.3 263.2,202.3 261.8,199.2 258.5,198.6 261,196.4 
		260.5,193 263.4,194.7 	"/>
	<polygon class="st1" points="338.5,192.9 340.3,195.8 343.7,195.8 341.5,198.5 342.5,201.7 339.4,200.5 336.6,202.4 336.8,199 
		334.1,197 337.3,196.1 	"/>
	<polygon class="st1" points="13.7,706.5 14.2,709.8 17.3,711.2 14.3,712.8 13.9,716.1 11.5,713.8 8.2,714.4 9.7,711.4 8,708.5 
		11.4,708.9 	"/>
	<polygon class="st1" points="65.7,749.3 66.2,752.7 69.3,754.1 66.3,755.7 65.9,759 63.5,756.6 60.2,757.3 61.7,754.3 60.1,751.3 
		63.4,751.8 	"/>
	<polygon class="st1" points="169.7,685.4 170.3,688.7 173.3,690.1 170.3,691.7 169.9,695 167.5,692.7 164.2,693.3 165.7,690.3 
		164.1,687.4 167.4,687.8 	"/>
	<polygon class="st1" points="236.1,770.1 236.6,773.4 239.7,774.8 236.7,776.4 236.3,779.7 233.9,777.4 230.6,778 232.1,775 
		230.5,772 233.8,772.5 	"/>
	<polygon class="st1" points="109.2,641.7 109.8,645 112.8,646.4 109.8,648 109.4,651.3 107,648.9 103.7,649.6 105.2,646.6 
		103.6,643.6 106.9,644.1 	"/>
	<polygon class="st1" points="0.3,521.6 0.9,524.9 3.9,526.4 0.9,527.9 0.5,531.2 -1.9,528.9 -5.2,529.5 -3.7,526.5 -5.3,523.6 
		-2,524.1 	"/>
	<polygon class="st1" points="143.7,531.5 144.3,534.8 147.3,536.2 144.3,537.8 143.9,541.1 141.5,538.7 138.2,539.4 139.7,536.4 
		138.1,533.4 141.4,533.9 	"/>
	<polygon class="st1" points="121.3,507.6 121.9,510.9 124.9,512.3 121.9,513.9 121.5,517.2 119.1,514.9 115.8,515.5 117.3,512.5 
		115.7,509.5 119,510 	"/>
	<polygon class="st1" points="152.1,562.4 152.7,565.7 155.8,567.1 152.8,568.7 152.4,572 149.9,569.7 146.6,570.3 148.1,567.3 
		146.5,564.3 149.8,564.8 	"/>
	<polygon class="st1" points="208.7,659 209.2,662.4 212.3,663.8 209.3,665.3 208.9,668.7 206.5,666.3 203.2,667 204.7,664 203,661 
		206.4,661.5 	"/>
	<polygon class="st1" points="305.4,668.9 306,672.2 309,673.6 306,675.2 305.6,678.5 303.2,676.2 299.9,676.8 301.4,673.8 
		299.8,670.8 303.1,671.3 	"/>
	<polygon class="st1" points="234.7,666.8 235.2,670.1 238.3,671.5 235.3,673.1 234.9,676.4 232.5,674 229.2,674.7 230.7,671.7 
		229,668.7 232.4,669.2 	"/>
	<polygon class="st1" points="277.6,627 278.1,630.3 281.2,631.8 278.2,633.3 277.8,636.7 275.4,634.3 272.1,634.9 273.6,631.9 
		272,629 275.3,629.5 	"/>
	<polygon class="st1" points="213.9,545.1 214.5,548.5 217.6,549.9 214.6,551.4 214.2,554.8 211.8,552.4 208.4,553.1 209.9,550 
		208.3,547.1 211.6,547.6 	"/>
	<polygon class="st1" points="330.2,508.6 330.8,511.9 333.9,513.4 330.9,514.9 330.5,518.3 328.1,515.9 324.8,516.5 326.3,513.5 
		324.6,510.6 328,511.1 	"/>
	<polygon class="st1" points="283.8,498.6 284.4,502 287.4,503.4 284.4,504.9 284,508.3 281.6,505.9 278.3,506.6 279.8,503.5 
		278.2,500.6 281.5,501.1 	"/>
	<polygon class="st1" points="341.5,519.9 342.1,523.2 345.1,524.6 342.1,526.2 341.7,529.5 339.3,527.2 336,527.8 337.5,524.8 
		335.9,521.8 339.2,522.3 	"/>
	<polygon class="st1" points="26.8,866.2 28.2,869.2 31.6,869.7 29.2,872 29.7,875.3 26.8,873.8 23.8,875.3 24.3,872 21.9,869.7 
		25.3,869.2 	"/>
	<polygon class="st1" points="101.3,838.1 102.8,841.1 106.1,841.6 103.7,843.9 104.2,847.2 101.3,845.7 98.3,847.2 98.8,843.9 
		96.4,841.6 99.8,841.1 	"/>
	<polygon class="st1" points="238.1,762.9 235.2,764.5 233.6,767.5 232,764.5 229,762.9 232,761.3 233.6,758.4 235.2,761.3 	"/>
	<polygon class="st1" points="218.5,749.2 215.6,750.8 214,753.7 212.4,750.8 209.4,749.2 212.4,747.6 214,744.6 215.6,747.6 	"/>
	<polygon class="st1" points="212.3,707.5 209.4,709.1 207.8,712.1 206.1,709.1 203.2,707.5 206.1,705.9 207.8,703 209.4,705.9 	"/>
	<polygon class="st1" points="218.8,699.3 215.9,700.9 214.3,703.8 212.7,700.9 209.7,699.3 212.7,697.7 214.3,694.7 215.9,697.7 	
		"/>
	<polygon class="st1" points="160,746.4 157.9,749 157.6,752.3 154.9,750.3 151.6,750 153.7,747.3 154,744 156.6,746 	"/>
	<polygon class="st1" points="128,760.7 125.8,763.2 125.3,766.6 122.8,764.3 119.5,763.8 121.7,761.3 122.2,758 124.7,760.2 	"/>
	<polygon class="st1" points="254.7,703.6 252.5,706.1 252,709.4 249.4,707.2 246.1,706.7 248.4,704.2 248.9,700.8 251.4,703.1 	"/>
	<polygon class="st1" points="284.4,697.1 282.2,699.6 281.7,702.9 279.2,700.7 275.9,700.2 278.1,697.7 278.6,694.4 281.1,696.6 	
		"/>
	<polygon class="st1" points="345,644.8 342.8,647.3 342.2,650.6 339.7,648.4 336.4,647.9 338.7,645.3 339.2,642 341.7,644.3 	"/>
	<polygon class="st1" points="383.9,577.7 381.7,580.2 381.1,583.5 378.6,581.3 375.3,580.7 377.5,578.2 378.1,574.9 380.6,577.2 	
		"/>
	<polygon class="st1" points="374.6,568.7 372.4,571.2 371.9,574.5 369.3,572.3 366,571.8 368.3,569.3 368.8,566 371.3,568.2 	"/>
	<polygon class="st1" points="314.3,658.6 313.4,661.5 314.1,664.4 311.3,663.5 308.4,664.2 309.3,661.4 308.5,658.5 311.4,659.4 	
		"/>
	<polygon class="st1" points="226.5,693.4 225.6,696.2 226.4,699.2 223.5,698.2 220.6,699 221.5,696.1 220.7,693.2 223.6,694.2 	"/>
	<polygon class="st1" points="310.1,600.5 309.2,603.3 310,606.2 307.1,605.3 304.2,606.1 305.1,603.2 304.4,600.3 307.2,601.2 	"/>
	<polygon class="st1" points="315,564 314,566.8 314.8,569.7 312,568.8 309,569.6 310,566.7 309.2,563.8 312.1,564.7 	"/>
	<polygon class="st1" points="180.9,455.5 180,458.3 180.8,461.2 177.9,460.3 175,461.1 175.9,458.2 175.2,455.3 178,456.2 	"/>
	<polygon class="st1" points="208.6,462.7 207.6,465.6 208.4,468.5 205.6,467.6 202.6,468.4 203.6,465.5 202.8,462.6 205.7,463.5 	
		"/>
	<polygon class="st1" points="143.8,485.7 142.8,488.5 143.6,491.5 140.7,490.5 137.8,491.3 138.7,488.4 138,485.5 140.8,486.4 	"/>
	<polygon class="st1" points="38.5,425.5 37.5,428.4 38.3,431.3 35.5,430.4 32.5,431.1 33.5,428.3 32.7,425.4 35.6,426.3 	"/>
	<polygon class="st1" points="246.5,594.9 245.5,597.8 246.3,600.7 243.4,599.8 240.5,600.6 241.5,597.7 240.7,594.8 243.6,595.7 	
		"/>
	<polygon class="st1" points="235.9,532.1 235,535 235.8,537.9 232.9,537 230,537.7 230.9,534.9 230.1,532 233,532.9 	"/>
	<polygon class="st1" points="219.6,535.3 218.9,537.4 219.4,539.6 217.3,538.9 215.2,539.4 215.9,537.3 215.3,535.2 217.4,535.9 	
		"/>
	<polygon class="st1" points="222.2,542.1 221.5,544.2 222.1,546.4 220,545.7 217.9,546.3 218.5,544.2 218,542 220.1,542.7 	"/>
	<polygon class="st1" points="212.8,539.1 212.1,541.2 212.6,543.3 210.5,542.7 208.4,543.2 209.1,541.1 208.5,539 210.6,539.7 	"/>
	<polygon class="st1" points="156,600.5 155.1,603.4 155.9,606.3 153,605.4 150.1,606.1 151,603.3 150.3,600.4 153.1,601.3 	"/>
	<polygon class="st1" points="24.9,676.6 24,679.5 24.7,682.4 21.9,681.5 19,682.2 19.9,679.3 19.1,676.4 22,677.4 	"/>
	<polygon class="st1" points="36.6,276.1 38.2,278.6 41,279.9 38.4,281.5 37.2,284.2 35.5,281.7 32.8,280.5 35.3,278.8 	"/>
	<polygon class="st1" points="32.5,272.5 32.5,275.6 34,278.1 31,278.1 28.5,279.6 28.5,276.6 26.9,274.1 29.9,274.1 	"/>
	<polygon class="st1" points="7.4,273.8 7.4,276.8 9,279.4 6,279.3 3.4,280.9 3.5,277.9 1.9,275.3 4.9,275.4 	"/>
	<polygon class="st1" points="27.5,266.7 27.5,269.7 29,272.3 26,272.2 23.5,273.8 23.5,270.8 21.9,268.2 25,268.3 	"/>
	<polygon class="st1" points="99.4,64.8 99.6,67.8 101.5,70.2 98.5,70.4 96.1,72.3 95.8,69.3 94,66.9 97,66.6 	"/>
	<polygon class="st1" points="93.8,73.2 94,76.2 95.8,78.6 92.8,78.9 90.4,80.7 90.2,77.7 88.4,75.3 91.4,75.1 	"/>
	<polygon class="st1" points="137.6,77.9 137.8,80.9 139.6,83.3 136.6,83.6 134.3,85.4 134,82.4 132.2,80 135.2,79.8 	"/>
	<polygon class="st1" points="147,128.8 146.8,131.8 148.2,134.4 145.2,134.2 142.6,135.6 142.8,132.6 141.4,130 144.4,130.2 	"/>
	<polygon class="st1" points="62.3,242.8 60.5,245.2 60.2,248.2 57.8,246.3 54.9,246.1 56.7,243.7 57,240.7 59.3,242.5 	"/>
	<polygon class="st1" points="316.2,180.6 313.6,182.3 312.4,185 310.8,182.5 308,181.2 310.5,179.6 311.8,176.9 313.4,179.4 	"/>
	<polygon class="st1" points="135.2,268 132.6,269.6 131.4,272.4 129.8,269.9 127,268.6 129.6,267 130.8,264.2 132.4,266.8 	"/>
	<polygon class="st1" points="259.7,289.9 256.9,291 255.2,293.5 254,290.7 251.6,289 254.4,287.8 256.1,285.4 257.2,288.1 	"/>
	<polygon class="st1" points="226.4,315.2 225.3,318 225.8,320.9 223,319.8 220.1,320.3 221.2,317.5 220.7,314.5 223.5,315.7 	"/>
	<polygon class="st1" points="223.2,324.9 222.1,327.7 222.6,330.6 219.8,329.5 216.9,330 218,327.2 217.5,324.3 220.3,325.4 	"/>
	<polygon class="st1" points="368.8,265.1 366.1,266.5 364.5,269 363.2,266.3 360.6,264.8 363.3,263.4 364.9,260.9 366.2,263.6 	"/>
	<polygon class="st1" points="209.5,306.8 206.8,308.1 205.2,310.6 203.9,307.9 201.3,306.4 204,305.1 205.6,302.5 206.9,305.2 	"/>
	<polygon class="st1" points="217.6,315.5 216.1,318.2 216.3,321.2 213.7,319.7 210.7,319.9 212.1,317.3 211.9,314.3 214.6,315.7 	
		"/>
	<polygon class="st1" points="269,101.5 268.6,104.5 270,107.2 267,106.8 264.3,108.1 264.6,105.1 263.3,102.4 266.3,102.8 	"/>
	<polygon class="st1" points="35,416.1 32.5,417.8 31.3,420.6 29.6,418.1 26.8,417 29.3,415.2 30.5,412.5 32.2,415 	"/>
	<polygon class="st1" points="210.2,411.5 208.3,413.9 208,416.8 205.6,415 202.6,414.6 204.5,412.3 204.9,409.3 207.2,411.2 	"/>
	<polygon class="st1" points="249.8,395.1 247.9,397.4 247.6,400.4 245.2,398.5 242.2,398.2 244.1,395.9 244.4,392.9 246.8,394.8 	
		"/>
	<polygon class="st1" points="370,378.8 370.4,375.6 372.4,373.2 369.4,372.9 367,371 366.6,374.1 364.7,376.6 367.7,376.9 	"/>
	<polygon class="st1" points="350.6,382.7 351,379.6 352.9,377.1 349.9,376.8 347.6,374.9 347.2,378 345.3,380.5 348.3,380.8 	"/>
	<polygon class="st1" points="345.8,363.7 344,366 343.6,369 341.3,367.1 338.3,366.8 340.2,364.5 340.5,361.5 342.9,363.4 	"/>
	<polygon class="st1" points="348,319.6 346.1,322 345.8,324.9 343.5,323.1 340.5,322.7 342.4,320.4 342.7,317.4 345,319.3 	"/>
	<polygon class="st1" points="311,285 309.1,287.4 308.8,290.4 306.5,288.5 303.5,288.2 305.4,285.8 305.7,282.8 308,284.7 	"/>
	<polygon class="st1" points="126.3,434.3 124,436.2 123.1,439.1 121.1,436.8 118.3,435.9 120.6,433.9 121.5,431.1 123.4,433.4 	"/>
	<polygon class="st1" points="126.1,427 123.1,427.3 120.7,429.2 120.4,426.2 118.5,423.9 121.5,423.5 123.8,421.7 124.2,424.7 	"/>
	<polygon class="st1" points="16.3,698.3 15.4,701.2 16.1,704 13.3,703.1 10.4,703.9 11.3,701 10.5,698.1 13.4,699 	"/>
	<polygon class="st1" points="23.5,714.1 22.6,717 23.4,719.9 20.5,719 17.6,719.7 18.5,716.9 17.7,714 20.6,714.9 	"/>
	<polygon class="st1" points="18.7,734.8 17.8,737.6 18.5,740.5 15.7,739.6 12.8,740.4 13.7,737.5 12.9,734.6 15.8,735.5 	"/>
	<polygon class="st1" points="120.3,661.5 119.3,664.4 120.1,667.3 117.2,666.4 114.3,667.2 115.3,664.3 114.5,661.4 117.4,662.3 	
		"/>
	<polygon class="st1" points="102.6,770.7 100.3,773.2 99.8,776.5 97.3,774.3 94,773.8 96.2,771.3 96.8,768 99.3,770.2 	"/>
	<polygon class="st1" points="35.8,799.3 33.6,801.8 33,805.1 30.5,802.9 27.2,802.4 29.5,799.8 30,796.5 32.5,798.8 	"/>
	<polygon class="st1" points="16.7,804.9 14.5,807.4 13.9,810.7 11.4,808.5 8.1,808 10.3,805.5 10.9,802.2 13.4,804.4 	"/>
</g>
<path class="st2" d="M31.5,660.5c6.3,0,11.4-5.1,11.5-11.4c0-3.4-1.5-6.6-4.1-8.8h37.4l6.1,7.1l2-1.7l-6.8-8H30.2v0.1
	c-6.3,0.7-10.8,6.4-10.1,12.6C20.7,656.1,25.7,660.5,31.5,660.5L31.5,660.5z M31.5,640.2c4.9,0,8.8,3.9,8.8,8.8s-3.9,8.8-8.8,8.8
	s-8.8-3.9-8.8-8.8l0,0C22.7,644.2,26.7,640.2,31.5,640.2L31.5,640.2z"/>
<path class="st2" d="M72.3,645.4c-6.3,0-11.4,5.2-11.4,11.5c0,3.4,1.5,6.6,4.1,8.7H27.6l-6-7.1l-2,1.7l6.8,8h47.2v-0.1
	c6.3-0.7,10.8-6.4,10.1-12.6C83.1,649.8,78.1,645.4,72.3,645.4L72.3,645.4z M72.3,665.7c-4.9,0-8.8-3.9-8.8-8.8
	c0-4.9,3.9-8.8,8.8-8.8s8.8,3.9,8.8,8.8l0,0C81.1,661.7,77.1,665.7,72.3,665.7z"/>
<rect x="151.5" y="439.4" class="st2" width="57.1" height="2.6"/>
<path class="st2" d="M208.7,434.4h-20.3l1.6-2.1c1.7-2.2,2.6-4.9,2.6-7.7c0-6.9-5.6-12.6-12.6-12.6c-6.9,0-12.5,5.6-12.6,12.6
	c0,2.8,0.9,5.5,2.6,7.7l1.7,2.1h-20.3v-2.6h15.1c-1.2-2.2-1.8-4.7-1.8-7.2c0-8.4,6.8-15.2,15.2-15.2s15.2,6.8,15.2,15.2
	c0,2.5-0.6,5-1.8,7.2h15.1v2.6H208.7z"/>
<polygon class="st2" points="54.3,285.4 54.3,288 65.1,288 42.2,310.9 37.4,306.1 35.5,308 40.3,312.8 32.8,320.3 34.6,322.2 
	42.2,314.6 47.2,319.6 49.1,317.8 44.1,312.8 66.9,289.9 66.9,300.6 69.6,300.6 69.6,285.4 "/>
<path class="st2" d="M153.1,617v1.3c0,5.5-4.5,10-10,10s-10-4.5-10-10c0-4,3.7-7.2,7-10c1.1-0.9,2.1-1.9,3.1-2.9l0.7-0.8
	c0.8-0.8,1.4-1.7,2-2.6c4.8-8,2.3-18.4-5.7-23.2s-18.4-2.3-23.2,5.7c-1.6,2.6-2.5,5.7-2.5,8.8c0,1.6,0.3,3.1,0.8,4.6
	c-6-2.6-13.1,0.1-15.7,6.1s0.1,13.1,6.1,15.7c6,2.6,13.1-0.1,15.7-6.1c1.4-3.1,1.3-6.7-0.1-9.9l0,0l-0.2-0.4
	c-0.2-0.5-0.5-0.9-0.8-1.3c-1.7-2.9-3.1-5.6-3.1-8.7c0-7.8,6.4-14.2,14.2-14.2s14.2,6.4,14.2,14.2c0,2.6-0.7,5.1-2,7.3
	c-0.5,0.8-1.1,1.5-1.7,2.2l-0.8,0.8c-0.9,1-1.9,1.8-2.9,2.7c-3.5,3-7.9,6.8-7.9,12.1c0,7,5.7,12.7,12.7,12.7s12.7-5.7,12.7-12.7
	v-1.3L153.1,617z M110.6,618c-5.1,0-9.2-4.1-9.2-9.2c0-5.1,4.1-9.2,9.2-9.2c3,0,5.8,1.5,7.5,3.9c0.1,0.2,0.2,0.3,0.3,0.5l0.4,0.6
	c2.3,4.5,0.5,10.1-4,12.4C113.5,617.7,112.1,618,110.6,618L110.6,618z"/>
<path class="st2" d="M157.7,365.8l-7.6,2l1.9,1.9l-0.5,0.5c-2,2-5.2,2.1-7.4,0.4V331l-0.1-3.9l-0.4-0.4c-4-4-10.3-4.3-14.7-0.8
	c-3.9-3.1-9.3-3.2-13.3-0.3c-3.3-2.6-8-2.3-11,0.6l-1,1l2,2l1-1c2-2,5.1-2.1,7.3-0.4v42.8h2.8v-42.3c3.1-2.7,7.7-2.7,10.8,0l0.1,2.7
	v39.5h2.9v-42.3c3.1-2.7,7.7-2.7,10.8,0l0.1,2.7v40.7l0.4,0.4c3.2,3.2,8.5,3.2,11.7,0l0.5-0.5l1.7,1.7L157.7,365.8z"/>
<path class="st2" d="M202.8,541.7l-1,1c-2,2-5.2,2.1-7.4,0.4v-0.6c8.2-10.2,11.2-17.9,8.8-22.7c-2-4-6.9-4.6-8.8-4.7v-11.5l-0.1-3.9
	l-0.4-0.4c-4-4-10.3-4.3-14.7-0.8c-3.9-3.1-9.3-3.2-13.4-0.3c-3.3-2.6-8-2.3-11,0.6l-1,1l2,2l1-1c2-2,5.1-2.1,7.3-0.4v42.8h2.8
	v-42.3c3.1-2.7,7.7-2.7,10.8,0l0.1,2.7v39.5h2.9v-42.3c3.1-2.7,7.7-2.7,10.8,0l0.1,2.7v37.8c-1.6,1.7-4.1,3.1-6.3,2.5l-1.4-0.4
	l-0.8,2.7l1.4,0.4c0.6,0.2,1.2,0.3,1.9,0.2c2.1-0.1,4-0.8,5.7-2.1c3.2,3.2,8.4,3.1,11.6-0.1l1-1L202.8,541.7z M200.7,521.1
	c2,4.1-2.3,11.4-6.3,16.8v-20C195.9,518,199.4,518.5,200.7,521.1z"/>
<path class="st2" d="M227.5,476.9c0,39.1-10.1,77.5-29.4,111.4l1.8,1c19.5-34.3,29.7-73,29.7-112.5v-0.2h-2L227.5,476.9z"/>
<path class="st2" d="M115.6,672.2l1,1.8c34.1-20.1,62.4-48.6,82.3-82.8l-1.8-1C177.4,624,149.4,652.3,115.6,672.2z"/>
<path class="st2" d="M2,703.3v2c39.6-0.1,78.5-10.5,112.8-30.3l-1-1.8C79.8,692.8,41.3,703.2,2,703.3z"/>
<path class="st2" d="M227.5,474.7h2c-0.3-39.4-10.9-78-30.6-112l-1.8,1C216.7,397.5,227.2,435.7,227.5,474.7z"/>
<path class="st2" d="M196.1,362l1.8-1c-20-33.8-48.3-61.9-82.2-81.6l-1,1.8C148.3,300.7,176.3,328.6,196.1,362z"/>
<path class="st2" d="M112.9,280.1l1-1.8c-34-19.4-72.5-29.7-111.7-29.8v2C41,250.7,79.2,260.9,112.9,280.1z"/>
<path class="st2" d="M1,337.2h1.1v-88.7h-2v88.7H1z"/>
<path class="st2" d="M1,614c-0.4,0-0.7,0-1.1,0v89.3H2V614C1.7,614,1.4,614,1,614z"/>
<path class="st2" d="M1.2,703.3H0v2h2v-2H1.2z"/>
<path class="st2" d="M69.3,596l44.6,77.2l1.8-1L71,595C70.4,595.3,69.8,595.7,69.3,596z"/>
<path class="st2" d="M113.8,673.2l1,1.8l1.7-1l-1-1.8L113.8,673.2z"/>
<path class="st2" d="M120.3,545.8l76.8,44.3c0.3-0.6,0.7-1.2,1-1.8L121.3,544C121,544.6,120.7,545.2,120.3,545.8z"/>
<path class="st2" d="M197.1,590.1l1.8,1l1-1.8l-1.8-1C197.8,589,197.5,589.5,197.1,590.1z"/>
<path class="st2" d="M139.5,475.6c0,0.4,0,0.8,0,1.1h88.1c0-0.7,0-1.4,0-2h-88.1C139.4,475,139.5,475.3,139.5,475.6z"/>
<path class="st3" d="M227.5,474.7c0,0.7,0,1.4,0,2h2c0-0.7,0-1.4,0-2H227.5z"/>
<path class="st2" d="M121.4,407.4l75.7-43.7c-0.3-0.6-0.7-1.2-1-1.8l-75.7,43.7C120.8,406.2,121.1,406.8,121.4,407.4z"/>
<path class="st2" d="M197.1,363.7l1.8-1l-1-1.7l-1.8,1C196.4,362.5,196.8,363.1,197.1,363.7z"/>
<path class="st2" d="M71.2,356.4l43.5-75.3l-1.8-1l-43.5,75.3C70,355.7,70.6,356,71.2,356.4z"/>
<path class="st2" d="M114.7,281.1l1-1.8l-1.8-1l-1,1.8L114.7,281.1z"/>
<path class="st2" d="M2,612v2c23.6-0.1,46.8-6.3,67.3-18l-1-1.8C48.1,605.8,25.3,611.9,2,612z"/>
<path class="st2" d="M137.4,474.7h2c-0.1-23.6-6.3-46.8-18-67.3l-1.8,1C131.2,428.6,137.3,451.5,137.4,474.7z"/>
<path class="st2" d="M68.4,357.1l1-1.8c-20.5-11.7-43.6-18-67.2-18.1v2C25.4,339.4,48.2,345.6,68.4,357.1z"/>
<path class="st2" d="M119.6,543l1.8,1c11.7-20.5,18-43.7,18.1-67.3h-2C137.3,500,131.1,522.8,119.6,543z"/>
<path class="st2" d="M118.7,406.7l1.8-1c-12-20.3-28.9-37.3-49.2-49.3l-1,1.8C90.2,370,106.9,386.7,118.7,406.7z"/>
<path class="st2" d="M70,593.2l1,1.8c20.3-12,37.3-28.9,49.3-49.2l-1.8-1C106.7,564.8,90,581.5,70,593.2z"/>
<path class="st2" d="M1,339.2h1.1v-2H1H0.1v2H1z"/>
<path class="st2" d="M1,612c-0.4,0-0.7,0-1.1,0v2c0.4,0,0.8,0,1.1,0s0.6,0,0.9,0v-2C1.7,612,1.4,612,1,612z"/>
<path class="st2" d="M68.2,594.2l1,1.8c0.6-0.3,1.2-0.7,1.8-1l-1-1.8L68.2,594.2z"/>
<path class="st2" d="M118.6,544.8l1.8,1c0.3-0.6,0.7-1.2,1-1.8l-1.8-1L118.6,544.8z"/>
<path class="st2" d="M137.4,475.6c0,0.4,0,0.8,0,1.1h2c0-0.4,0-0.7,0-1.1s0-0.6,0-0.9h-2C137.4,475,137.4,475.3,137.4,475.6z"/>
<path class="st2" d="M118.7,406.7c0.3,0.6,0.7,1.2,1,1.8l1.8-1c-0.3-0.6-0.7-1.2-1-1.8L118.7,406.7z"/>
<path class="st2" d="M70.2,358.1l1-1.8c-0.6-0.4-1.2-0.7-1.8-1l-1,1.8C69,357.5,69.6,357.8,70.2,358.1z"/>
</svg>
