<svg xmlns="http://www.w3.org/2000/svg" viewBox="0 0 545.97 1055.95"><g opacity=".13" fill="#a5802a" data-name="Comp 1"><path d="M535.6 1037.13a509.29 509.29 0 0 1-198.19-978.3 509.28 509.28 0 0 1 396.37 938.28 506 506 0 0 1-198.18 40.02zm0-1016.77C255.7 20.36 28 248.08 28 528s227.7 507.58 507.6 507.58S1043.21 807.87 1043.21 528 815.49 20.36 535.6 20.36z"/><path d="M537 913.68a382.24 382.24 0 1 1 149.24-30.13A380.89 380.89 0 0 1 537 913.68zm0-765.28c-210.56 0-381.87 171.31-381.87 381.87S326.41 912.14 537 912.14s381.84-171.31 381.84-381.87S747.53 148.4 537 148.4z"/><path d="M26.77 524.64h387.28v1.54H26.77z"/><path d="M537 789.9a258.82 258.82 0 1 1 101-20.4 258 258 0 0 1-101 20.4zm0-517.71c-142.31 0-258.08 115.77-258.08 258.08S394.66 788.36 537 788.36s258.06-115.78 258.06-258.09S679.28 272.19 537 272.19z"/><path d="M537 657.09a127.33 127.33 0 1 1 90-37.3 126.51 126.51 0 0 1-90 37.3zM537 404a125.79 125.79 0 1 0 125.76 125.76A125.93 125.93 0 0 0 537 404z"/><path d="M537.224 524.807l438.418-251.796.767 1.336L537.99 526.143zM538.352 18.986l1.54-.006 1.543 384.456-1.54.007z"/><path d="M283.68 84.198l1.326-.782 274.868 466.26-1.326.783zM95.612 272.871l.766-1.336 333.5 191.461-.767 1.336zM463.94 121.78l-1.32-3.34-3.43 1.05 1.79-3.11-2.97-2.03 3.55-.55-.26-3.58 2.64 2.44 2.64-2.44-.26 3.58 3.55.55-2.97 2.03 1.79 3.11-3.43-1.05-1.32 3.34zM539.59 247.6l-1.32-3.34-3.44 1.05 1.79-3.12-2.96-2.03 3.55-.54-.26-3.58 2.64 2.44 2.63-2.44-.26 3.58 3.55.54-2.96 2.03 1.79 3.12-3.44-1.05-1.31 3.34zM502.64 412.26l-1.32-3.34-3.44 1.05 1.79-3.11-2.96-2.03 3.55-.55-.26-3.58 2.64 2.44 2.63-2.44-.26 3.58 3.55.55-2.96 2.03 1.79 3.11-3.44-1.05-1.31 3.34zM488.64 399.66l-1.32-3.34-3.43 1.05 1.79-3.12-2.97-2.03 3.55-.54-.26-3.58 2.64 2.44 2.64-2.44-.26 3.58 3.55.54-2.96 2.03 1.78 3.12-3.43-1.05-1.32 3.34zM352.12 345.88l-1.32-3.34-3.43 1.05 1.78-3.11-2.96-2.04 3.55-.54-.26-3.58 2.64 2.44 2.64-2.44-.26 3.58 3.55.54-2.97 2.04 1.79 3.11-3.43-1.05-1.32 3.34zM229.39 390.65l-1.32-3.34-3.43 1.05 1.79-3.12-2.97-2.03 3.55-.54-.26-3.58 2.64 2.44 2.64-2.44-.26 3.58 3.55.54-2.97 2.03 1.8 3.12-3.44-1.05-1.32 3.34zM312.65 308.58l-1.32-3.34-3.43 1.05 1.79-3.12-2.97-2.03 3.55-.54-.26-3.58 2.64 2.43 2.64-2.43-.26 3.58 3.55.54-2.96 2.03 1.79 3.12-3.44-1.05-1.32 3.34zM537.37 330.44l-1.32-3.34-3.43 1.05 1.79-3.11-2.97-2.03 3.55-.55-.26-3.58 2.64 2.44 2.64-2.44-.26 3.58 3.55.55-2.96 2.03 1.79 3.11-3.44-1.05-1.32 3.34z"/><path d="M540.1 529.66l-1.77-4.5-4.62 1.42 2.4-4.19-3.98-2.74 4.77-.73-.35-4.82 3.55 3.28 3.55-3.28-.35 4.82 4.78.73-3.99 2.74 2.41 4.19-4.62-1.42-1.78 4.5zM400.49 619.6l-1.78-4.5-4.62 1.41 2.41-4.19-3.99-2.73 4.78-.73-.35-4.82 3.55 3.28 3.55-3.28-.35 4.82 4.78.73-3.99 2.73 2.41 4.19-4.63-1.41-1.77 4.5zM527.66 596.13l-1.77-4.49-4.62 1.41 2.4-4.19-3.99-2.73 4.79-.73-.36-4.82 3.55 3.28 3.56-3.28-.36 4.82 4.78.73-3.99 2.73 2.41 4.19-4.62-1.41-1.78 4.49zM339.17 613.79l-1.77-4.5-4.63 1.41 2.41-4.19-3.99-2.73 4.78-.73-.35-4.82 3.55 3.28 3.55-3.28-.35 4.82 4.78.73-3.99 2.73 2.41 4.19-4.62-1.41-1.78 4.5zM279.48 739.85l-1.78-4.5-4.62 1.41 2.41-4.19-3.99-2.73 4.78-.73-.35-4.82 3.55 3.28 3.55-3.28-.35 4.82 4.78.73-3.99 2.73 2.41 4.19-4.63-1.41-1.77 4.5zM192.69 556.38l-1.77-4.5-4.63 1.41 2.41-4.19-3.99-2.73 4.78-.73-.35-4.82 3.55 3.28 3.55-3.28-.35 4.82 4.78.73-3.99 2.73 2.41 4.19-4.62-1.41-1.78 4.5zM495.7 794.51l-1.77-4.49-4.62 1.41 2.4-4.19-3.98-2.73 4.77-.73-.35-4.82 3.55 3.28 3.56-3.28-.36 4.82 4.78.73-3.99 2.73 2.41 4.19-4.62-1.41-1.78 4.49zM531.1 833.07l-1.78-4.5-4.62 1.42 2.41-4.2-3.99-2.73 4.78-.73-.36-4.82 3.56 3.28 3.55-3.28-.36 4.82 4.78.73-3.98 2.73 2.4 4.2-4.62-1.42-1.77 4.5zM458.28 982.11l-1.78-4.5-4.62 1.41 2.41-4.19-3.99-2.73 4.78-.73-.35-4.82 3.55 3.28 3.55-3.28-.35 4.82 4.78.73-3.99 2.73 2.41 4.19-4.63-1.41-1.77 4.5zM316.13 961.43l-1.77-4.5-4.62 1.42 2.4-4.2-3.99-2.73 4.79-.73-.36-4.82 3.55 3.28 3.56-3.28-.36 4.82 4.78.73-3.99 2.73 2.41 4.2-4.62-1.42-1.78 4.5zM252.65 943.37l-1.78-4.49-4.62 1.41 2.41-4.19-3.99-2.73 4.77-.73-.35-4.83 3.56 3.29 3.55-3.29-.36 4.83 4.78.73-3.99 2.73 2.41 4.19-4.62-1.41-1.77 4.49zM216.96 851.26l-1.77-4.5-4.63 1.42 2.41-4.19-3.98-2.74 4.77-.73-.35-4.82 3.55 3.28 3.55-3.28-.35 4.82 4.78.73-3.99 2.74 2.41 4.19-4.62-1.42-1.78 4.5zM64.88 688.16l-1.77-4.5-4.63 1.42 2.41-4.2-3.99-2.73 4.78-.73-.35-4.82 3.55 3.28 3.55-3.28-.35 4.82 4.78.73-3.99 2.73 2.41 4.2-4.62-1.42-1.78 4.5zM310.84 942.82l-1.49-3.78-3.89 1.19 2.03-3.52-3.35-2.3 4.01-.61-.29-4.06 2.98 2.76 2.98-2.76-.29 4.06 4.02.61-3.36 2.3 2.03 3.52-3.89-1.19-1.49 3.78zM395.75 857.49l-1.49-3.78-3.88 1.19 2.02-3.53-3.35-2.29 4.01-.62-.29-4.05 2.98 2.76 2.99-2.76-.3 4.05 4.02.62-3.35 2.29 2.02 3.53-3.89-1.19-1.49 3.78zM443.54 786.86l-1.5-3.78-3.88 1.19 2.02-3.52-3.35-2.3 4.02-.61-.3-4.05 2.99 2.75 2.98-2.75-.3 4.05 4.02.61-3.35 2.3 2.02 3.52-3.88-1.19-1.49 3.78zM371.78 767.41l-1.49-3.78-3.89 1.19 2.03-3.52-3.35-2.3 4.01-.61-.29-4.05 2.98 2.76 2.98-2.76-.29 4.05 4.02.61-3.36 2.3 2.03 3.52-3.89-1.19-1.49 3.78zM403.79 698.64l-1.2-3.03-3.12.96 1.63-2.83-2.69-1.84 3.22-.49-.24-3.25 2.4 2.21 2.39-2.21-.24 3.25 3.22.49-2.69 1.84 1.63 2.83-3.12-.96-1.19 3.03zM438.28 685.69l-1.2-3.03-3.11.95 1.62-2.82-2.69-1.84 3.22-.49-.23-3.25 2.39 2.21 2.39-2.21-.23 3.25 3.22.49-2.69 1.84 1.62 2.82-3.11-.95-1.2 3.03zM416.33 937.27l-1.4-3.55-3.65 1.11 1.9-3.3-3.15-2.16 3.77-.58-.27-3.8 2.8 2.59 2.8-2.59-.28 3.8 3.78.58-3.15 2.16 1.9 3.3-3.65-1.11-1.4 3.55zM374.82 105.44l-1.78-4.5-4.62 1.42 2.41-4.2-3.99-2.73 4.78-.73-.35-4.82 3.55 3.28 3.55-3.28-.35 4.82 4.78.73-3.99 2.73 2.41 4.2-4.62-1.42-1.78 4.5zM164.56 187.26l-1.78-4.5-4.62 1.41 2.41-4.19-3.99-2.73 4.78-.73-.35-4.82 3.55 3.28 3.55-3.28-.35 4.82 4.78.73-3.99 2.73 2.41 4.19-4.62-1.41-1.78 4.5zM347.15 504.56l-1.77-4.5-4.63 1.42 2.41-4.19-3.99-2.73 4.78-.73-.35-4.83 3.55 3.29 3.55-3.29-.35 4.83 4.78.73-3.99 2.73 2.41 4.19-4.62-1.42-1.78 4.5zM482.98 307.36l-1.77-4.5-4.62 1.42 2.41-4.2-4-2.73 4.79-.73-.36-4.82 3.55 3.28 3.56-3.28-.36 4.82 4.78.73-3.99 2.73 2.41 4.2-4.62-1.42-1.78 4.5zM408.88 306.59l-1.77-4.5-4.62 1.41 2.4-4.19-3.99-2.73 4.79-.73-.36-4.82 3.55 3.28 3.56-3.28-.36 4.82 4.78.73-3.99 2.73 2.41 4.19-4.62-1.41-1.78 4.5zM531.66 161.89l-.61-3.65-3.35-1.56 3.27-1.71.45-3.67 2.64 2.59 3.63-.71-1.65 3.31 1.8 3.23-3.66-.54-2.52 2.71zM522.73 237.55l-.61-3.64-3.36-1.56 3.28-1.71.45-3.67 2.64 2.59 3.63-.71-1.65 3.31 1.8 3.23-3.66-.54-2.52 2.7zM516.1 404.68l-.61-3.65-3.35-1.56 3.27-1.71.45-3.67 2.64 2.59 3.63-.71-1.65 3.31 1.8 3.23-3.66-.54-2.52 2.71zM506.11 485.89l-.61-3.64-3.35-1.56 3.27-1.71.45-3.67 2.64 2.58 3.63-.7-1.64 3.31 1.79 3.23-3.66-.54-2.52 2.7zM425.07 494.38l-.62-3.64-3.35-1.56 3.28-1.71.44-3.67 2.64 2.59 3.63-.71-1.64 3.31 1.79 3.23-3.65-.54-2.52 2.7zM446.59 552.86l-.61-3.65-3.35-1.56 3.27-1.71.45-3.67 2.64 2.59 3.63-.71-1.65 3.31 1.8 3.23-3.66-.54-2.52 2.71zM514.5 600.71l-.61-3.64-3.35-1.56 3.27-1.71.45-3.67 2.64 2.59 3.63-.71-1.65 3.31 1.8 3.23-3.66-.54-2.52 2.7zM516.94 576.17l-.61-3.64-3.35-1.56 3.27-1.71.45-3.67 2.64 2.59 3.63-.71-1.65 3.31 1.8 3.23-3.66-.54-2.52 2.7zM487.02 733.87l.93-3.58-2.42-2.79 3.69-.22 1.91-3.17 1.35 3.44 3.6.84-2.85 2.35.31 3.68-3.11-1.99-3.41 1.44zM471.67 761.45l-2.27-2.92-3.69.22 2.07-3.06-1.35-3.45 3.55 1.03 2.86-2.35.12 3.7 3.12 1.99-3.48 1.26-.93 3.58zM519.13 751.25l-2.27-2.91-3.69.22 2.07-3.06-1.35-3.45 3.55 1.03 2.86-2.35.12 3.7 3.11 1.99-3.47 1.26-.93 3.57zM494.98 652.79l-.62-3.65-3.35-1.55 3.28-1.72.44-3.66 2.64 2.58 3.63-.71-1.64 3.31 1.79 3.24-3.66-.55-2.51 2.71zM539 636.01l-.62-3.64-3.35-1.56 3.28-1.71.45-3.67 2.64 2.59 3.62-.71-1.64 3.31 1.79 3.23-3.65-.54-2.52 2.7zM471.76 629.03l-.62-3.64-3.35-1.56 3.28-1.71.44-3.67 2.64 2.58 3.63-.7-1.64 3.3 1.79 3.24-3.66-.54-2.51 2.7zM491.98 851.26l-1.1-3.53-3.52-1.1 3.02-2.13-.05-3.7 2.96 2.21 3.51-1.18-1.19 3.5 2.2 2.96-3.69-.05-2.14 3.02zM425.91 1008.54l-2.6-2.63-3.63.64 1.7-3.28-1.74-3.26 3.65.6 2.56-2.66.55 3.66 3.33 1.61-3.31 1.66-.51 3.66zM378.05 951.16l-2.59-2.63-3.64.64 1.7-3.28-1.74-3.26 3.65.61 2.56-2.66.56 3.65 3.32 1.62-3.31 1.65-.51 3.66zM268.45 945.87l.03-3.7-3.03-2.12 3.53-1.11 1.07-3.54 2.15 3.01 3.7-.07-2.19 2.98 1.2 3.49-3.51-1.17-2.95 2.23zM413.04 846.03l.02-3.69-3.03-2.12 3.53-1.12 1.07-3.53 2.16 3 3.69-.06-2.19 2.97 1.2 3.49-3.5-1.16-2.95 2.22zM408.6 820.28l-2.19-2.98-3.7.11 2.16-3-1.25-3.48 3.52 1.13 2.93-2.27.01 3.7 3.06 2.08-3.51 1.16-1.03 3.55zM376.17 682.57l-2.19-2.98-3.69.12 2.15-3.01-1.25-3.47 3.53 1.12 2.92-2.26.02 3.69 3.05 2.08-3.51 1.16-1.03 3.55zM415.04 630.72l-2.18-2.98-3.7.12 2.16-3-1.25-3.48 3.52 1.12 2.92-2.26.02 3.69 3.06 2.08-3.51 1.16-1.04 3.55zM388.77 638.02l.37-3.68-2.82-2.39 3.62-.78 1.4-3.42 1.86 3.19 3.69.28-2.47 2.76.88 3.59-3.38-1.49-3.15 1.94zM310.88 974.58l-1.67-3.3-3.66-.49 2.62-2.61-.67-3.63 3.29 1.68 3.26-1.75-.59 3.65 2.67 2.55-3.65.57-1.6 3.33zM238.67 936.87l-2.79-2.42-3.58.93 1.45-3.41-1.99-3.11 3.68.31 2.35-2.85.84 3.6 3.43 1.36-3.16 1.9-.23 3.69zM281.64 871.89l-2.79-2.43-3.58.93 1.44-3.4-1.98-3.12 3.68.32 2.35-2.85.84 3.6 3.44 1.35-3.17 1.91-.23 3.69zM323.05 875.33l-2.79-2.42-3.58.92 1.44-3.4-1.99-3.12 3.69.32 2.35-2.85.83 3.6 3.44 1.35-3.17 1.91-.22 3.69zM375.02 892.57l-2.79-2.42-3.58.92 1.45-3.4-1.99-3.12 3.68.32 2.35-2.85.84 3.6 3.44 1.35-3.17 1.91-.23 3.69zM387.03 726.48l-1.77-3.25-3.67-.39 2.55-2.68-.77-3.62 3.34 1.6 3.2-1.85-.48 3.67 2.74 2.47-3.64.68-1.5 3.37zM372.84 711.59l-3.08-2.06-3.43 1.37 1-3.55-2.36-2.85 3.69-.14 1.98-3.13 1.28 3.47 3.58.91-2.9 2.29.24 3.69zM340.42 718.79l-3.08-2.05-3.43 1.37 1-3.56-2.36-2.84 3.69-.15 1.98-3.12 1.28 3.46 3.58.92-2.9 2.28.24 3.69zM307.99 750.03l-3.53-1.08-2.9 2.3-.06-3.7-3.08-2.05 3.49-1.2 1-3.56 2.22 2.96 3.69-.16-2.12 3.03 1.29 3.46zM310.65 781.82l-3.53-1.09-2.9 2.3-.06-3.69-3.08-2.05 3.5-1.2.99-3.56 2.22 2.95 3.7-.15-2.13 3.02 1.29 3.47zM184.81 706.41l-1.76-3.25-3.67-.39 2.54-2.68-.76-3.62 3.33 1.6 3.21-1.85-.49 3.67 2.75 2.48-3.64.67-1.51 3.37zM91.62 745.84l-1.77-3.25-3.67-.39 2.54-2.68-.76-3.62 3.34 1.59 3.2-1.84-.48 3.66 2.74 2.48-3.64.67-1.5 3.38zM82.18 764.71l-1.76-3.25-3.67-.39 2.54-2.68-.76-3.62 3.34 1.6 3.2-1.85-.49 3.67 2.75 2.48-3.64.67-1.51 3.37zM248.23 741.64l-1.77-3.25-3.67-.39 2.55-2.68-.77-3.62 3.34 1.59 3.2-1.84-.48 3.67 2.74 2.47-3.64.67-1.5 3.38zM222.95 613.98l.83-2.78-1.82-2.25 2.89-.08 1.59-2.43.96 2.74 2.8.75-2.3 1.76.15 2.9-2.39-1.64-2.71 1.03zM167.76 592l2.06-2.04-.52-2.85 2.58 1.33 2.55-1.38-.46 2.86 2.09 2.01-2.86.44-1.26 2.61-1.31-2.58-2.87-.4zM177.51 543.25l2.06-2.04-.52-2.85 2.58 1.32 2.55-1.37-.46 2.86 2.09 2.01-2.86.44-1.26 2.61-1.31-2.59-2.87-.39zM199.22 557.36l2.06-2.04-.51-2.86 2.57 1.33 2.56-1.37-.47 2.86 2.1 2-2.87.44-1.26 2.62-1.3-2.59-2.88-.39zM143.06 632.47l2.06-2.04-.52-2.86 2.58 1.33 2.55-1.37-.46 2.86 2.09 2-2.86.45-1.26 2.61-1.31-2.59-2.87-.39zM72.01 646.69l2.06-2.04-.52-2.85 2.58 1.32 2.55-1.37-.46 2.86 2.09 2.01-2.86.44-1.26 2.61-1.31-2.59-2.87-.39zM304.39 596.27l.83-2.78-1.82-2.26 2.89-.07 1.59-2.43.96 2.74 2.8.75-2.3 1.76.15 2.9-2.39-1.65-2.71 1.04zM308.51 607.5l1.12-3.75-2.46-3.05 3.91-.1 2.14-3.28 1.3 3.69 3.79 1.02-3.11 2.38.2 3.92-3.23-2.22-3.66 1.39zM238.84 704.99l1.05-3.54-2.32-2.88 3.69-.09 2.02-3.1 1.23 3.48 3.57.97-2.93 2.24.18 3.69-3.04-2.09-3.45 1.32zM59.65 770.8l-1.69-3.29-3.66-.47 2.6-2.63-.68-3.63 3.3 1.67 3.24-1.78-.57 3.66 2.69 2.54-3.65.59-1.58 3.34zM47.34 681.29L45.65 678l-3.67-.47 2.61-2.62-.69-3.64 3.3 1.67 3.25-1.77-.57 3.65 2.69 2.54-3.65.59-1.58 3.34zM94.75 798.78l-1.76-3.25-3.67-.39 2.54-2.68-.76-3.61 3.34 1.59 3.2-1.84-.48 3.66 2.74 2.48-3.64.67-1.51 3.37zM383.63 859.89l-2.79-2.42-3.58.92 1.44-3.4-1.99-3.12 3.69.32 2.35-2.85.83 3.6 3.44 1.35-3.17 1.91-.22 3.69zM335.4 871.89l-2.79-2.43-3.58.93 1.44-3.4-1.98-3.12 3.68.32 2.35-2.85.83 3.6 3.44 1.35-3.16 1.91-.23 3.69zM197.76 937.27l-2.79-2.43-3.58.93 1.44-3.4-1.98-3.12 3.68.32 2.35-2.85.83 3.6 3.44 1.35-3.16 1.91-.23 3.69zM180.8 951.27l-.47-3.67-3.29-1.69 3.34-1.58.59-3.65 2.53 2.69 3.66-.57-1.77 3.24 1.67 3.3-3.64-.68-2.62 2.61zM129.15 937.11l-.47-3.66-3.29-1.69 3.34-1.59.58-3.64 2.54 2.68 3.66-.57-1.77 3.25 1.67 3.29-3.64-.68-2.62 2.61zM86.18 888.89l-.47-3.67-3.29-1.68 3.34-1.59.58-3.65 2.54 2.69 3.66-.57-1.77 3.24 1.67 3.3-3.64-.68-2.62 2.61zM111.01 870.48l-.47-3.67-3.29-1.68 3.34-1.59.58-3.65 2.54 2.69 3.65-.57-1.76 3.24 1.67 3.3-3.64-.68-2.62 2.61zM167.47 861.02l.74-3.62-2.57-2.66 3.67-.42 1.74-3.26 1.54 3.36 3.64.65-2.73 2.49.51 3.66-3.21-1.82-3.33 1.62zM88.41 861.34l-2.02-3.1-3.69-.09 2.32-2.88-1.06-3.54 3.46 1.31 3.04-2.09-.19 3.69 2.94 2.25-3.57.96-1.23 3.49zM464.97 600.71l-.62-3.64-3.35-1.56 3.28-1.71.45-3.67 2.64 2.59 3.62-.71-1.64 3.31 1.79 3.23-3.65-.54-2.52 2.7zM445.09 297.39l-.62-3.65-3.35-1.56 3.28-1.71.45-3.67 2.64 2.59 3.62-.71-1.64 3.31 1.79 3.23-3.65-.54-2.52 2.71zM387.97 250.3l-.61-3.64-3.36-1.56 3.28-1.71.45-3.67 2.64 2.58 3.63-.7-1.65 3.31 1.79 3.23-3.65-.54-2.52 2.7zM273.73 320.54l-.61-3.64-3.36-1.56 3.28-1.71.45-3.67 2.64 2.59 3.63-.71-1.65 3.31 1.8 3.23-3.66-.54-2.52 2.7zM200.83 227.53l-.61-3.64-3.35-1.56 3.27-1.71.45-3.67 2.64 2.59 3.63-.71-1.65 3.31 1.8 3.23-3.66-.54-2.52 2.7zM340.16 368.57l-.61-3.65-3.36-1.56 3.28-1.71.45-3.67 2.64 2.59 3.63-.71-1.65 3.31 1.79 3.23-3.65-.54-2.52 2.71zM459.75 500.39l-.61-3.64-3.35-1.56 3.27-1.71.45-3.67 2.64 2.58 3.63-.7-1.65 3.31 1.8 3.23-3.66-.54-2.52 2.7zM302.29 489.58l-.61-3.64-3.36-1.56 3.28-1.71.45-3.67 2.64 2.59 3.63-.71-1.65 3.31 1.8 3.23-3.66-.54-2.52 2.7zM326.87 515.81l-.62-3.65-3.35-1.56 3.28-1.71.44-3.67 2.64 2.59 3.63-.71-1.64 3.31 1.79 3.23-3.66-.54-2.51 2.71zM293.03 455.62l-.62-3.64-3.35-1.56 3.28-1.71.45-3.67 2.64 2.58 3.62-.7-1.64 3.31 1.79 3.23-3.65-.54-2.52 2.7zM230.96 349.48l-.62-3.65-3.35-1.56 3.28-1.71.45-3.67 2.64 2.59 3.63-.71-1.65 3.31 1.79 3.23-3.65-.54-2.52 2.71zM124.7 338.67l-.62-3.64-3.35-1.56 3.28-1.72.45-3.66 2.64 2.58 3.62-.71-1.64 3.31 1.79 3.24-3.65-.55-2.52 2.71zM202.4 340.99l-.62-3.65-3.35-1.56 3.28-1.71.45-3.67 2.64 2.59 3.63-.71-1.65 3.31 1.8 3.23-3.66-.54-2.52 2.71zM155.26 384.64l-.61-3.64-3.36-1.56 3.28-1.71.45-3.67 2.64 2.59 3.62-.71-1.64 3.31 1.8 3.23-3.66-.54-2.52 2.7zM225.16 474.57l-.61-3.65-3.35-1.56 3.27-1.71.45-3.67 2.64 2.59 3.63-.71-1.65 3.31 1.8 3.23-3.66-.54-2.52 2.71zM97.42 514.66l-.61-3.65-3.35-1.55 3.27-1.72.45-3.67 2.64 2.59 3.63-.71-1.64 3.31 1.79 3.24-3.66-.55-2.52 2.71zM148.46 525.62l-.62-3.64-3.35-1.56 3.27-1.71.45-3.67 2.64 2.58 3.63-.7-1.64 3.31 1.79 3.23-3.66-.54-2.51 2.7zM85.08 502.31l-.62-3.64-3.35-1.56 3.27-1.72.45-3.66 2.64 2.58 3.63-.71-1.65 3.31 1.8 3.23-3.66-.54-2.51 2.71zM512 101.96l-1.63-3.31-3.66-.53 2.65-2.58-.63-3.65 3.27 1.72 3.28-1.72-.63 3.65 2.65 2.58-3.66.53-1.64 3.31zM430.72 122.01l-1.64-3.32-3.65-.53 2.64-2.58-.62-3.64 3.27 1.72 3.27-1.72-.62 3.64 2.64 2.58-3.65.53-1.64 3.32zM348.9 152.88l-1.64-3.31-3.65-.53 2.64-2.58-.62-3.65 3.27 1.72 3.27-1.72-.62 3.65 2.64 2.58-3.65.53-1.64 3.31zM198.59 235.38l3.23-1.77 1.77-3.23 1.77 3.23 3.23 1.77-3.23 1.77-1.77 3.23-1.77-3.23-3.23-1.77zM220.14 250.5l3.23-1.77 1.77-3.23 1.76 3.23 3.24 1.77-3.24 1.77-1.76 3.23-1.77-3.23-3.23-1.77zM226.94 296.24l3.23-1.77 1.77-3.23 1.77 3.23 3.23 1.77-3.23 1.76-1.77 3.24-1.77-3.24-3.23-1.76zM219.78 305.28l3.23-1.77 1.77-3.23 1.77 3.23 3.23 1.77-3.23 1.77-1.77 3.23-1.77-3.23-3.23-1.77zM284.44 253.57l2.28-2.9.36-3.66 2.89 2.28 3.67.36-2.28 2.89-.36 3.67-2.89-2.28-3.67-.36zM319.49 237.79l2.45-2.75.57-3.64 2.75 2.45 3.64.58-2.45 2.75-.57 3.64-2.75-2.45-3.64-.58zM180.38 300.54l2.45-2.75.58-3.64 2.75 2.45 3.64.57-2.45 2.76-.58 3.63-2.75-2.44-3.64-.58zM147.76 307.66l2.45-2.75.57-3.64 2.76 2.45 3.64.58-2.45 2.75-.58 3.64-2.75-2.45-3.64-.58zM81.23 365.12l2.45-2.75.58-3.64 2.75 2.45 3.64.57-2.45 2.76-.58 3.64-2.75-2.45-3.64-.58zM38.52 438.83l2.45-2.75.57-3.64 2.75 2.45 3.64.57-2.45 2.76-.57 3.64-2.75-2.45-3.64-.58zM48.72 448.66l2.45-2.75.58-3.64 2.75 2.45 3.64.57-2.45 2.76-.58 3.63-2.75-2.44-3.64-.58zM114.97 349.94l1.01-3.15-.84-3.19 3.15 1.01 3.19-.84-1.01 3.14.84 3.2-3.14-1.02-3.2.85zM211.36 311.76l1.02-3.15-.85-3.19 3.15 1.01 3.19-.84-1.01 3.15.84 3.19-3.14-1.01-3.2.84zM119.51 413.82l1.01-3.14-.84-3.2 3.14 1.02 3.2-.85-1.02 3.15.84 3.19-3.14-1.01-3.19.84zM114.22 453.89l1.01-3.15-.84-3.19 3.14 1.01 3.19-.84-1.01 3.15.84 3.19-3.14-1.02-3.19.85zM261.39 573.02l1.02-3.14-.84-3.2 3.14 1.02 3.19-.85-1.01 3.15.84 3.19-3.14-1.01-3.2.84zM231.06 565.04l1.01-3.14-.84-3.19 3.14 1.01 3.2-.84-1.02 3.14.84 3.2-3.14-1.02-3.19.84zM302.24 539.86l1.01-3.14-.84-3.2 3.15 1.02 3.19-.85-1.02 3.15.85 3.19-3.15-1.01-3.19.84zM417.85 605.91l1.01-3.15-.84-3.19 3.14 1.01 3.2-.84-1.02 3.14.84 3.2-3.14-1.02-3.19.85zM472.92 643.93l1.02-3.15-.84-3.19 3.14 1.01 3.19-.84-1.01 3.14.84 3.2-3.14-1.01-3.2.84zM514.79 553.29l1.01-3.14-.84-3.2 3.15 1.02 3.19-.84-1.01 3.14.84 3.19-3.14-1.01-3.2.84zM189.44 419.87l1.01-3.15-.84-3.19 3.14 1.01 3.2-.84-1.02 3.14.85 3.2-3.15-1.02-3.19.85zM201.02 488.87l1.01-3.14-.84-3.2 3.14 1.02 3.2-.85-1.02 3.15.84 3.19-3.14-1.01-3.19.84zM219 485.34l.75-2.31-.62-2.34 2.31.74 2.34-.62-.74 2.31.62 2.35-2.31-.75-2.35.62zM216.09 477.86l.74-2.31-.62-2.35 2.31.75 2.35-.62-.75 2.31.62 2.35-2.31-.75-2.34.62zM226.47 481.17l.75-2.31-.62-2.34 2.31.74 2.34-.62-.74 2.31.61 2.35-2.3-.75-2.35.62zM288.75 413.73l1.01-3.14-.84-3.19 3.14 1.01 3.2-.84-1.02 3.14.84 3.2-3.14-1.02-3.19.84zM432.77 330.19l1.01-3.14-.84-3.19 3.14 1.01 3.2-.84-1.02 3.14.84 3.2-3.14-1.02-3.19.84zM465.65 332.84l1.02-3.14-.84-3.2 3.14 1.02 3.19-.84-1.01 3.14.84 3.19-3.14-1.01-3.2.84zM469.81 319.61l1.02-3.14-.85-3.2 3.15 1.02 3.19-.84-1.01 3.14.84 3.19-3.15-1.01-3.19.84zM515.61 353.61l1.01-3.14-.84-3.2 3.14 1.02 3.2-.84-1.02 3.14.84 3.19-3.14-1.01-3.19.84zM419.91 770l-1.79-2.77-3-1.38 2.77-1.78 1.38-3.01 1.79 2.78 3 1.37-2.78 1.79-1.37 3zM424.4 773.9l.06-3.3-1.73-2.81 3.3.05 2.81-1.73-.06 3.3 1.74 2.81-3.31-.05-2.81 1.73zM451.92 772.53l.06-3.3-1.74-2.81 3.3.05 2.81-1.73-.05 3.3 1.73 2.81-3.3-.06-2.81 1.74zM429.89 780.32l.06-3.3-1.74-2.81 3.31.05 2.81-1.73-.06 3.3 1.74 2.81-3.31-.05-2.81 1.73zM532.72 957.83l-2.53-2.13-3.27-.43 2.12-2.52.43-3.28 2.53 2.13 3.27.42-2.12 2.53-.43 3.28zM350.97 1002.05l-.28-3.29-2.01-2.62 3.29-.28 2.62-2.01.28 3.29 2.01 2.62-3.29.28-2.62 2.01zM357.15 992.79l-.28-3.29-2.01-2.62 3.29-.28 2.62-2.01.28 3.29 2.01 2.62-3.29.28-2.62 2.01zM309.03 987.64l-.28-3.29-2.01-2.62 3.29-.28 2.62-2.01.28 3.29 2.01 2.62-3.29.28-2.62 2.01zM527.62 939.98l-2.02-2.61-3.11-1.11 2.62-2.02 1.11-3.11 2.02 2.61 3.11 1.11-2.62 2.02-1.11 3.11zM479.51 935.59l-1.33-3.02-2.75-1.83 3.03-1.33 1.83-2.75 1.32 3.03 2.75 1.83-3.02 1.32-1.83 2.75zM298.67 931.82l.22-3.3-1.59-2.89 3.3.22 2.89-1.59-.22 3.3 1.59 2.89-3.29-.22-2.9 1.59zM391.65 806.59l2.01-2.61.29-3.29 2.61 2.01 3.3.29-2.02 2.61-.28 3.29-2.62-2.01-3.29-.29zM112.89 874.85l2.78-1.79 1.37-3.01 1.79 2.78 3.01 1.37-2.78 1.79-1.37 3.01-1.79-2.78-3.01-1.37zM311.66 778.89l2.78-1.79 1.37-3.01 1.79 2.78 3.01 1.36-2.78 1.8-1.37 3-1.79-2.77-3.01-1.37zM174.92 754.88l3.06-1.24 1.9-2.7 1.25 3.06 2.7 1.9-3.06 1.24-1.9 2.71-1.25-3.06-2.7-1.91zM211.42 727.08l1.28-3.05-.56-3.25 3.04 1.28 3.26-.56-1.28 3.04.56 3.26-3.04-1.29-3.26.57zM214.93 716.41l1.28-3.05-.56-3.25 3.04 1.28 3.26-.57-1.29 3.05.57 3.25-3.04-1.28-3.26.57zM55.11 782.05l2.97-1.45 1.72-2.82 1.45 2.97 2.82 1.72-2.97 1.45-1.72 2.82-1.45-2.97-2.82-1.72zM230.08 736.34l2.97-1.45 1.72-2.82 1.44 2.97 2.82 1.71-2.96 1.45-1.72 2.82-1.45-2.97-2.82-1.71zM221.16 726.7l1.59-2.89-.22-3.3 2.9 1.59 3.29-.22-1.59 2.89.23 3.3-2.9-1.59-3.3.22zM164.68 961.77l.39-3.28-1.44-2.97 3.28.39 2.97-1.44-.39 3.28 1.44 2.97-3.27-.39-2.98 1.44zM421.71 616.22l2.73-1.86 1.29-3.04 1.86 2.72 3.04 1.29-2.72 1.87-1.29 3.04-1.87-2.73-3.04-1.29zM229.28 621.31l2.07-2.57.36-3.28 2.57 2.07 3.29.35-2.07 2.58-.36 3.28-2.57-2.07-3.29-.36zM185.81 639.32l2.07-2.57.36-3.28 2.57 2.07 3.29.35-2.07 2.58-.36 3.28-2.57-2.07-3.29-.36zM53.73 657.25l-.42 3.43-2.13 2.71 3.3.32 2.56 2.11.41-3.42 2.13-2.72-3.3-.31-2.55-2.12zM75.09 652.97l-.41 3.43-2.13 2.71 3.3.32 2.55 2.11.42-3.43 2.13-2.71-3.3-.32-2.56-2.11zM80.31 673.8l2.07-2.57.36-3.28 2.57 2.07 3.28.35-2.07 2.58-.35 3.28-2.58-2.07-3.28-.36zM77.9 722.23l2.07-2.58.35-3.28 2.57 2.07 3.29.35-2.07 2.58-.36 3.28-2.57-2.07-3.28-.35zM118.55 760.19l2.07-2.57.36-3.28 2.57 2.07 3.28.35-2.07 2.58-.35 3.28-2.58-2.07-3.28-.36zM321.42 596.29l2.53-2.12 1-3.15 2.11 2.54 3.15 1-2.54 2.11-.99 3.15-2.12-2.54-3.14-.99zM321.68 604.28l3.28-.35 2.58-2.06.35 3.28 2.06 2.58-3.28.35-2.58 2.06-.35-3.28-2.06-2.58zM523.53 530.77l3.29-.33 2.59-2.05.33 3.28 2.05 2.59-3.28.34-2.59 2.05-.33-3.29-2.06-2.59zM442.22 306.38l1.01-3.14-.84-3.2 3.14 1.02 3.2-.84-1.02 3.14.84 3.19-3.14-1.01-3.19.84zM472.46 414.11l1.01-3.14-.84-3.2 3.14 1.02 3.2-.84-1.02 3.14.85 3.19-3.15-1.01-3.19.84zM434.28 288.99l1.01-3.14-.84-3.19 3.15 1.01 3.19-.84-1.02 3.14.85 3.2-3.15-1.02-3.19.84zM439.57 266.31l1.02-3.14-.85-3.19 3.15 1.01 3.19-.84-1.01 3.14.84 3.2-3.15-1.02-3.19.84zM328.03 346.74l1.01-3.14-.84-3.2 3.14 1.02 3.2-.85-1.02 3.15.84 3.19-3.14-1.01-3.19.84zM347.46 226.83l2.45-2.75.57-3.64 2.76 2.45 3.64.57-2.45 2.76-.58 3.63-2.75-2.44-3.64-.58zM420.79 195.46l2.45-2.76.58-3.64 2.75 2.45 3.64.58-2.45 2.75-.58 3.64-2.75-2.45-3.64-.57zM441.77 189.29l2.45-2.75.58-3.64 2.75 2.45 3.64.58-2.45 2.75-.58 3.64-2.75-2.45-3.64-.58zM512.64 152.26l3.5-1.12 2.35-2.84 1.13 3.51 2.83 2.35-3.5 1.12-2.35 2.84-1.13-3.51-2.83-2.35zM508.1 181.75l3.51-1.12 2.35-2.84 1.12 3.51 2.84 2.35-3.51 1.12-2.35 2.83-1.12-3.5-2.84-2.35zM488.07 210.1l3.5-1.12 2.35-2.84 1.13 3.51 2.83 2.35-3.5 1.12-2.35 2.84-1.13-3.51-2.83-2.35z"/><circle cx="495.11" cy="418.52" r="1.96"/><path d="M468.822 491.968l29.487-8.51.141.49-29.486 8.51zM434.229 489.078l.147-.488 18.71 5.67-.148.488zM45.223 429.64l35.52-59.423.447.267-35.521 59.422zM56.053 456.152l.424-.282 24.7 37.05-.423.284zM119.3 418.95h.51v23.93h-.51zM129.431 403.304l20.848-17.75.33.389-20.847 17.749zM165.683 367.833l32.43-28.54.336.383-32.43 28.54zM93.929 356.994l23.153-18.522.318.398-23.153 18.522zM190.336 307.885l.476-.183 7.719 20.067-.476.183zM158.114 305.229l22.382-4.647.104.499-22.383 4.647zM225.806 257.67l.506-.062 3.858 31.645-.506.062zM209.749 240.87l.242-.449 10.037 5.405-.242.449zM228.404 377.642l1.632-24.506.51.034-1.633 24.505zM235.06 338.812l13.073-7.833.262.437-13.073 7.834zM253.62 327.85l-.27-.44 14.7-9.15.28.44-14.71 9.15zM283.138 311.714l23.856-8.182.166.483-23.856 8.181zM321.93 311.477l.355-.365 22.874 22.22-.356.366zM319.658 294.773l14.375-12.1.335.397-14.375 12.1zM339.303 279.729l39.513-28.143.295.416-39.512 28.142zM345.39 357.602l4.256-12.093.481.17-4.256 12.092zM296.46 403.97l-.33-.39 40.85-33.99.33.4-40.85 33.98zM297.028 456.77l.496-.117 4.249 17.974-.496.117zM313.105 494.77l.368-.352 7.19 7.515-.37.353zM332.694 518.912l.435-.266 9.807 16.016-.435.266zM309.487 531.424l12.093-15.029.397.32-12.092 15.03zM332.431 506.163l7.52-5.229.292.419-7.52 5.229zM296.39 249.44l-.2-.48 17.98-7.51.2.47-17.98 7.52zM334.104 232.965l8.827-3.922.207.466-8.827 3.922zM359.605 220.848l56.851-23.56.196.471-56.852 23.56zM430.32 193.9l-.08-.51 10.13-1.63.08.5-10.13 1.64zM452.069 184.273l58.174-26.463.21.464-58.173 26.463zM353.264 140.599l18.332-36.26.455.23-18.332 36.26zM384.105 99.763l.17-.48 35.949 12.744-.17.48zM438.773 116.9l14.706-.662.022.51-14.705.662zM471.033 112.996l30.393-12.751.198.47-30.394 12.751zM520.666 100.064l.318-.398 37.255 29.74-.318.399zM495.1 205.583l11.11-16.666.425.283-11.11 16.666zM517.41 176.81l-.4-.32 9.32-11.86.41.31-9.33 11.87zM495.87 306.955l.191-.472 34.639 14.05-.192.473zM457.004 295.511l.091-.501 14.385 2.614-.091.501zM418.805 296.998l16.34-2.288.07.505-16.34 2.288zM440.789 280.182l2.283-13.732.503.084-2.283 13.731zM521.906 345.418l8.5-10.449.396.322-8.5 10.45zM390.826 251.258l.486-.185 8.821 23.2-.486.185zM357.923 334.292l23.844-17.336.3.412-23.844 17.336zM438.195 320.655l4.584-11.758.476.185-4.585 11.758zM477.085 311.481l1.963-4.248.463.214-1.963 4.248zM480.4 405.665l3.924-7.517.452.236-3.924 7.517zM479.155 412.184l.188-.475 11.458 4.559-.189.474zM491.89 397.402l.287-.421 7.189 4.9-.287.421zM538.943 930.105l46.138-21.378.214.463-46.138 21.378zM487.69 932.067l.06-.517 32.234 3.736-.06.516zM526.738 943.316l.472-.195 2.553 6.173-.472.195zM503.54 839.44l8.045-5.072.272.432-8.044 5.072zM541.164 825.857l.079-.503 10.295 1.604-.078.504zM503.657 795.774l.388-.33 18.646 21.87-.388.33zM475.884 761.579l.403-.313 11.651 14.983-.402.313zM475.225 748.836l11.602-15.185.405.31-11.601 15.185zM497.704 734.692l.223-.47 16.08 7.636-.224.47zM502.518 644.56l29.48-10.578.172.48-29.48 10.578zM472.727 630.79l.438-.261 3.153 5.292-.438.26zM467.519 603.23l.493-.131 3.102 11.685-.493.13zM451.44 553.544l.487-.147 10.636 35.272-.488.147zM444.93 693.373l15.856-27.887.443.252-15.855 27.888zM421.485 595.25l19.316-39.065.457.226-19.316 39.065zM282.01 561.777l16.205-20.32.398.318-16.204 20.32zM207.273 569.345l.457-.227 16.253 32.67-.457.228zM184.42 690.966l4.765-44.878.507.054-4.764 44.878zM179.135 745.807l2.265-31.288.508.037-2.264 31.288zM192.59 706l.197-.47 18.732 7.85-.197.47zM181.464 765.814l.464-.211 29.763 65.308-.464.211zM225.988 849.596l.185-.486 45.417 17.27-.185.487zM180.517 854.333l27.014-7.097.13.494-27.014 7.096zM337.705 872.16l.217-.46 27.159 12.814-.218.46zM411.411 690.758l20.562-8.37.192.472-20.562 8.37zM392.304 711.443l7.347-10.531.418.292-7.347 10.53zM375.243 878.195l2.99-11.683.495.126-2.991 11.684zM287.43 868.346l.044-.508 27.005 2.377-.044.508zM311.466 790.562l.515-.068 8.946 67.409-.515.068zM287.268 741.731l.443-.252 16.167 28.366-.443.253zM252.456 708.672l.332-.387 18.855 16.218-.332.387zM402.592 845.815l6.446-2.546.187.475-6.446 2.545zM411.342 821.208l.501-.096 1.59 8.299-.501.096zM373.03 751.213l8.6-23.187.479.178-8.6 23.186zM310.654 741.469l19.357-21.446.379.342-19.358 21.445zM345.58 711.374l17.845-3.15.088.502-17.844 3.15zM378.386 702.87l17.26-5.835.164.483-17.26 5.835zM380.595 681.284l.238-.451 13.689 7.229-.238.45zM376.752 668.375l12.062-27.795.468.203-12.062 27.795zM149.338 623.65l15.997-25.522.432.271-15.997 25.521zM174.79 582.778l11.005-23.644.462.215-11.005 23.645zM361.105 998.235l.039-.518 55.208 4.102-.039.519zM381.685 952.859l.39-.328 34.464 41.13-.391.328zM430.31 995.639l19.725-16.318.325.393-19.725 16.318zM424.482 940.242l.356-.365 27.35 26.568-.356.366zM384.086 939.689l19.685-4.577.116.496-19.685 4.578zM263.737 931.716l31.848-.873.014.51-31.848.873zM207.42 933.43h21.3v.51h-21.3zM179.286 846.254l.2-.469 7.784 3.312-.2.47zM137.576 937.942l.327-.391 22.295 18.576-.326.391zM125.2 925.17l-30.78-32.42.38-.36 30.77 32.42-.37.36zM85.92 866.61h.51v7.91h-.51zM94.516 860.057l.208-.465 10.917 4.885-.208.466zM279.712 949.762l.294-.416 21.195 15.007-.294.416zM520.423 576.69l.474-.189 2.44 6.11-.473.19zM510.342 582.762l.485-.158L513.24 590l-.485.158zM112.76 754.56l-12.83-7.95.27-.43 12.83 7.94-.27.44zM47.019 685.759l.506-.06 8.11 68.612-.507.06zM69.536 693.422l.505-.073 8.158 56.969-.505.072zM508.572 575.628l4.275-2.706.278.44-4.275 2.706z"/><circle cx="507.38" cy="577.31" r="1.13"/><path d="M100 375.86a7.27 7.27 0 0 1 3.47-4.83 7.14 7.14 0 0 1 5.44-.67 7.47 7.47 0 0 1 4.07 2.55 7.16 7.16 0 0 1 1.21 6.56 9.49 9.49 0 0 1-2.19 4.13 2.83 2.83 0 0 1 .59.17c.22.14.28.41.19.8l-4.54-1.05.2-.8a10.22 10.22 0 0 0 2.39-.31 3.54 3.54 0 0 0 2.56-2.75q1-4.08-5.28-5.67a16.15 16.15 0 0 0-3.3-.53q-3.48-.09-4.21 2.82a5.29 5.29 0 0 0-.17 1.37c0 1.54 1 2.85 3 4l-.18.75-4.52-1.12a1.29 1.29 0 0 1 .15-.4c.13-.26.48-.31 1.06-.15a10.07 10.07 0 0 1 .06-4.87zM99 388.75a3.38 3.38 0 0 1-.55-.45 3.25 3.25 0 0 1-.75-3.23 4.44 4.44 0 0 1 .45-1.13 2.54 2.54 0 0 1 3.06-1.13q3 .76 1.64 6.69l1.49.37a6.69 6.69 0 0 0 1.17.19c.91.07 1.46-.26 1.63-1a1.23 1.23 0 0 0 0-.6c-.09-.3-.41-.61-1-.93l-.43-.25a1.36 1.36 0 0 1-.63-1.57 1.57 1.57 0 0 1 .18-.42 1.1 1.1 0 0 1 1.33-.57 1.5 1.5 0 0 1 .68.39q1.16 1.14.38 4.26a6.7 6.7 0 0 1-.53 1.45 3.37 3.37 0 0 1-4.19 1.78l-4.79-1.2c-.74-.18-1.16-.11-1.28.22s.38.85 1.41 1.2l-.17.59a6.48 6.48 0 0 1-1.12-.49 2 2 0 0 1-.7-2.39 2.5 2.5 0 0 1 2.72-1.78zm-.63-1.86q.12 1 1.62 1.89l2.22.56a7 7 0 0 0 .17-1.76 1.94 1.94 0 0 0-1.66-1.73c-1.33-.32-2.11-.1-2.33.66a.93.93 0 0 0-.03.38zM90.74 397.92a1.43 1.43 0 0 1-.09.27c-.08.19-.3.24-.65.15l1.49-6 .59.15a3.09 3.09 0 0 0-.09.56c0 .54.3.88 1 1.05l11.82 2.95.33-1.31.59.15-1 4.05-2.23-.43a4.34 4.34 0 0 1 1 1 3.83 3.83 0 0 1 .6 3.32 3.57 3.57 0 0 1-1.24 2 5.1 5.1 0 0 1-4.65.69 6.26 6.26 0 0 1-3.48-2.08 4.55 4.55 0 0 1-.83-4.08 3.68 3.68 0 0 1 1.73-2.47L91 396.75zm12.32 3.08c-.61-1-1.86-1.78-3.77-2.26a7.51 7.51 0 0 0-2.7-.23 2.07 2.07 0 0 0-2 1.48c-.34 1.41 1 2.5 4 3.26q4.13 1 4.67-.93a1.77 1.77 0 0 0-.2-1.32zM91.67 412.64c-.08.19-.3.24-.65.15l1.62-6.49.6.15a3 3 0 0 0-.09.54c0 .56.27.92.95 1.09l7.47 1.86.33-1.33.59.15-1 4-2.17-.37a4.12 4.12 0 0 1 1 1 3.46 3.46 0 0 1 .5 2.78 2.69 2.69 0 0 1-.21.56 1.41 1.41 0 0 1-1.72.76 1.48 1.48 0 0 1-.59-.29 1.39 1.39 0 0 1-.54-1.53 1.72 1.72 0 0 1 .19-.48 2 2 0 0 1 1.14-.67c.4-.11.62-.25.67-.42a.8.8 0 0 0 0-.31c-.18-.76-1.06-1.4-2.64-1.9l-4.95-1.24-.42 1.7zM89.44 421.57c-.08.19-.29.25-.65.16l1.41-5.64.6.15a3 3 0 0 0-.09.54c0 .56.27.92 1 1.09l7.47 1.86.33-1.33.59.15-1 4.24-9.26-2.31-.21.85a1.34 1.34 0 0 1-.19.24zm11.74 1.74a1.65 1.65 0 0 1-.48-1.7 1.73 1.73 0 0 1 .41-.75 1.58 1.58 0 0 1 1.69-.53 1.75 1.75 0 0 1 .77.41 1.66 1.66 0 0 1 .53 1.71 1.71 1.71 0 0 1-.44.77 1.62 1.62 0 0 1-1.71.52 1.69 1.69 0 0 1-.77-.43zM96.79 426.38a5.38 5.38 0 0 1 .6 4.33 5.84 5.84 0 0 1-1.46 2.8 2.16 2.16 0 0 1-2.06.78 1.58 1.58 0 0 1-.36-.14 1.37 1.37 0 0 1-.51-1.66 1.44 1.44 0 0 1 .45-.81 2 2 0 0 1 1.49-.22h.64a1.17 1.17 0 0 0 1.25-1 1.69 1.69 0 0 0 0-.92q-.42-1.4-4.28-2.36a9 9 0 0 0-3.07-.35 2.1 2.1 0 0 0-1.95 1.75 4.25 4.25 0 0 0-.12 1.24 3.54 3.54 0 0 0 1.32 2.64l-.31.55a4 4 0 0 1-.94-.93 4.82 4.82 0 0 1-.52-4 6.33 6.33 0 0 1 1.25-2.59c1.26-1.48 3-1.95 5.24-1.39a5.23 5.23 0 0 1 3.34 2.28zM92.85 444.31a5 5 0 0 1-4.46.81 5.53 5.53 0 0 1-3.11-2 5.42 5.42 0 0 1 5.7-8.59 5.17 5.17 0 0 1 3.79 6.67 5.54 5.54 0 0 1-1.92 3.11zm-5.95-7.16a1.83 1.83 0 0 0-1.9 1.47 1.89 1.89 0 0 0 .16 1.43c.43.72 1.77 1.36 4 1.92a12.46 12.46 0 0 0 3.11.48 1.85 1.85 0 0 0 2-1.51 1.77 1.77 0 0 0-.19-1.48c-.46-.67-1.77-1.27-3.91-1.8a13.06 13.06 0 0 0-3.27-.51zM82 451.32c-.08.19-.29.24-.64.16L83 445l.6.15a3 3 0 0 0-.09.54c0 .56.28.92 1 1.09l7.47 1.86.33-1.33.6.15-1 4-2.17-.37a4.3 4.3 0 0 1 1 1 3.49 3.49 0 0 1 .5 2.78 2.6 2.6 0 0 1-.21.55 1.4 1.4 0 0 1-1.73.76 1.44 1.44 0 0 1-.58-.29 1.37 1.37 0 0 1-.55-1.52 1.8 1.8 0 0 1 .2-.49 1.94 1.94 0 0 1 1.14-.66q.6-.17.66-.42a1.11 1.11 0 0 0 0-.32c-.19-.76-1.07-1.39-2.65-1.9l-5-1.23-.42 1.7a.85.85 0 0 1-.1.27zM79.89 459.87c-.08.19-.29.24-.64.16l1.33-5.37.6.15a2.33 2.33 0 0 0-.06.35 1.06 1.06 0 0 0 .92 1.28l7.47 1.86.33-1.33.6.15-1 4.08-1.82-.33a3.26 3.26 0 0 1 .67.75 3.8 3.8 0 0 1 .15 4.27c-.81 1.23-2.16 1.6-4 1.13l-5.87-1.46-.19.76a1.43 1.43 0 0 1-.09.27c-.08.19-.3.24-.65.15l1.32-5.29.6.14a1.77 1.77 0 0 0-.07.57c0 .36.35.63 1 .79l5.06 1.26a4.9 4.9 0 0 0 .63.11c1.06.1 1.7-.28 1.92-1.16a1.5 1.5 0 0 0 0-.7 2.76 2.76 0 0 0-2.1-1.92l-5.86-1.49-.14.57a.81.81 0 0 1-.11.25zM495.5 72a5.63 5.63 0 0 1 4.24 1.69 5.5 5.5 0 0 1 1.5 3.92 5.69 5.69 0 0 1-1.14 3.5 5.5 5.5 0 0 1-4.65 2.11 7.17 7.17 0 0 1-3.48-.85 1.76 1.76 0 0 1 0 .47c-.06.19-.25.29-.56.29l-.06-3.56h.65a8.23 8.23 0 0 0 .67 1.72 2.74 2.74 0 0 0 2.52 1.39c2.15 0 3.22-1.67 3.24-5a13 13 0 0 0-.22-2.55c-.39-1.73-1.35-2.6-2.88-2.6a4.32 4.32 0 0 0-1.05.12c-1.13.32-1.92 1.31-2.37 3h-.59v-3.58a1.39 1.39 0 0 1 .32 0c.22.05.32.3.31.76a7.74 7.74 0 0 1 3.55-.83zM483.24 73.46a3.29 3.29 0 0 1 3-1.49 4.64 4.64 0 0 1 2.13.49 3.78 3.78 0 0 1 2 3.66 4.16 4.16 0 0 1-.87 2.69 3.88 3.88 0 0 1-3.18 1.4 5.11 5.11 0 0 1-2-.38 2.34 2.34 0 0 1-1.57-2.25 1.3 1.3 0 0 1 .11-.56c.31-.67 1.44-1 3.38-.92l1.66.05a9.29 9.29 0 0 0-.18-1.81c-.27-1.23-.9-1.84-1.86-1.84a2.5 2.5 0 0 0-.89.16 2.79 2.79 0 0 0-1.59 1.5L483 74a2.71 2.71 0 0 1 .24-.54zm4.66 3.22l-1.15-.06a3.25 3.25 0 0 0-1.09.09q-.51.21-.51 1.05c0 1.29.41 1.95 1.18 2 .96-.06 1.49-1.08 1.57-3.08zM482 79.84h-1.25v1.72l-2.29.38v-2.1h-2.39v-.47h2.39v-5.48a3.42 3.42 0 0 0 0-.45c-.1-.63-.37-.94-.81-.94h-.22c-.47.09-.83.63-1.07 1.61l-.49-.07a4.1 4.1 0 0 1 .4-1.2 2 2 0 0 1 1.92-.9h.43c1.45.17 2.17 1.13 2.17 2.88v4.52H482zM466.19 72.61q-.21-.06-.21-.45h3.22l.09 1.48.11-.22a2.71 2.71 0 0 1 2.47-1.42c1.7 0 2.57 1 2.59 3v4.54h1.05v.48h-3.35v-5.4a3.79 3.79 0 0 0 0-.49c-.12-.81-.53-1.21-1.21-1.21a1.33 1.33 0 0 0-.55.12 2.12 2.12 0 0 0-1 1.87v4.55h.89v.48H467v-7.31h-.62zM441 162.32l.18.62-1.81.53 3.63 12.37 1.82-.52.18.61-7.58 2.21a6.1 6.1 0 0 1-2.73.23 3.29 3.29 0 0 1-2.8-2.5 4.14 4.14 0 0 1-.16-1.65c.18-1.84 1.58-3.15 4.2-3.91l1.85-.54-1.56-5.38-1.66.49a.72.72 0 0 1-.79-.44zm-1.19 14.45l-1.81-6.32-1.2.35c-1.61.48-2.13 1.78-1.55 3.87s1.73 2.91 3.31 2.48zM422.84 168.48c-.21 0-.37-.12-.48-.47l5.53-1.79.19.59a2.59 2.59 0 0 0-.5.21q-.75.39-.42 1.38l2.37 7.32 1.3-.42.19.58-4.16 1.35-2.94-9.08-.83.27zm4.74 10.88a1.65 1.65 0 0 1 1.19-1.31 1.86 1.86 0 0 1 .85-.05 1.58 1.58 0 0 1 1.34 1.16 1.82 1.82 0 0 1 .06.87 1.67 1.67 0 0 1-1.17 1.35 1.78 1.78 0 0 1-.89 0 1.7 1.7 0 0 1-1.38-2.06zM417.47 170.15c-1 .35-1.44.9-1.34 1.67a2.17 2.17 0 0 0 .08.3 2.33 2.33 0 0 0 2.09 1.39 11.6 11.6 0 0 0 1.17.12 6.94 6.94 0 0 1 2.68.58 2.46 2.46 0 0 1 1.13 1.38 2.71 2.71 0 0 1-1.17 3.29 6.29 6.29 0 0 1-1.84 1 5.26 5.26 0 0 1-2.93.33c.15.45.1.74-.15.88l-.17.08-1-2.78.72-.25a2.06 2.06 0 0 0 2.92 1.27c1-.33 1.43-.85 1.44-1.55a1.78 1.78 0 0 0-.09-.47c-.23-.64-.86-1-1.91-1.16a9.45 9.45 0 0 0-1-.11 7.81 7.81 0 0 1-2.82-.61 2.78 2.78 0 0 1-1.3-1.57 2.72 2.72 0 0 1 1.09-3.31 6.29 6.29 0 0 1 1.75-.92 7.52 7.52 0 0 1 3.54-.47c-.13-.38-.11-.64.06-.77a2.23 2.23 0 0 1 .3-.13l1.19 3.39-.76.26c-.69-1.84-1.91-2.45-3.68-1.84zM413.31 180.63a5.37 5.37 0 0 1-3.2 3 6 6 0 0 1-3.11.37 2.18 2.18 0 0 1-1.82-1.24 1.56 1.56 0 0 1-.1-.37 1.36 1.36 0 0 1 1.07-1.37 1.55 1.55 0 0 1 .92-.11c.34.09.68.46 1 1.1.15.26.27.44.34.55a1.18 1.18 0 0 0 1.59.44 1.79 1.79 0 0 0 .76-.53q.9-1.15-.53-4.85a9.24 9.24 0 0 0-1.48-2.72 2.11 2.11 0 0 0-2.55-.59 4.15 4.15 0 0 0-1.08.62 3.49 3.49 0 0 0-1.41 2.59l-.63.07a3.92 3.92 0 0 1 .23-1.3 4.78 4.78 0 0 1 3-2.75 6.33 6.33 0 0 1 2.84-.46c1.94.17 3.32 1.34 4.15 3.48a5.22 5.22 0 0 1 .01 4.07zM393.2 181.05a4.3 4.3 0 0 1 2.89-3.33 6 6 0 0 1 2.82-.51 4.92 4.92 0 0 1 4.23 3.39 5.41 5.41 0 0 1 .33 3.68 5.06 5.06 0 0 1-3.11 3.3 6.69 6.69 0 0 1-2.61.57 3.07 3.07 0 0 1-3-1.89 2 2 0 0 1-.15-.73q0-1.46 3.59-2.84l2-.78a11.91 11.91 0 0 0-1.14-2.08c-1-1.34-2-1.76-3.18-1.27a3.16 3.16 0 0 0-1 .65 3.54 3.54 0 0 0-1.15 2.61l-.6.05a3.29 3.29 0 0 1 .08-.82zm7.25 1.49l-1.42.52a4 4 0 0 0-1.26.67c-.34.33-.36.84-.07 1.52.67 1.54 1.48 2.13 2.42 1.77q1.71-.81.33-4.48zM387.11 182.43c-1 .44-1.35 1-1.17 1.79a1.63 1.63 0 0 0 .1.29 2.36 2.36 0 0 0 2.22 1.19 11 11 0 0 0 1.17 0 6.86 6.86 0 0 1 2.73.32 2.48 2.48 0 0 1 1.26 1.27 2.71 2.71 0 0 1-.85 3.38 6.44 6.44 0 0 1-1.73 1.15 5.4 5.4 0 0 1-2.89.61c.19.43.17.72-.06.89l-.16.1-1.25-2.68.69-.32a2.07 2.07 0 0 0 3 1c.91-.43 1.34-1 1.27-1.69a1.86 1.86 0 0 0-.13-.46q-.44-.91-2-1a8.36 8.36 0 0 0-1 0 7.85 7.85 0 0 1-2.86-.34 2.79 2.79 0 0 1-1.45-1.44 2.74 2.74 0 0 1 .76-3.4 6.27 6.27 0 0 1 1.64-1.09 7.69 7.69 0 0 1 3.48-.81c-.17-.37-.18-.63 0-.77a2.52 2.52 0 0 1 .29-.16l1.51 3.26-.73.33q-1.28-2.58-3.84-1.42zM168.43 188.8l.36.33-1 1.07 7.27 6.7 1-1.07.36.33-4.1 4.44a4.77 4.77 0 0 1-1.7 1.24 2.53 2.53 0 0 1-2.83-.54 3.16 3.16 0 0 1-.76-1q-.9-1.92 1.21-4.22l1-1.09-3.15-2.91-.9 1a.55.55 0 0 1-.69 0zm4.92 10l-3.71-3.42-.65.7q-1.31 1.44.51 3.15t3.15.33zM159.08 199.79c-.12.1-.29.06-.49-.12l2.94-3.34.36.31a1.73 1.73 0 0 0-.25.34c-.23.36-.14.72.26 1.07l4.42 3.91.69-.79.35.31-2.21 2.52-5.48-4.84-.44.5a1 1 0 0 1-.15.13zm7.37 5.32a1.23 1.23 0 0 1 .28-1.32 1.3 1.3 0 0 1 .54-.37 1.21 1.21 0 0 1 1.33.24 1.4 1.4 0 0 1 .38.55 1.35 1.35 0 0 1-2.16 1.47 1.16 1.16 0 0 1-.37-.57zM156.32 202.81q-.8.91-.24 1.62l.16.17a1.79 1.79 0 0 0 1.92.11 6.65 6.65 0 0 0 .82-.37 5.3 5.3 0 0 1 2-.65 2 2 0 0 1 1.29.48 2.09 2.09 0 0 1 .49 2.63 5.18 5.18 0 0 1-.84 1.35 4.19 4.19 0 0 1-1.82 1.35c.27.23.36.45.24.63a.57.57 0 0 1-.08.13l-1.72-1.47.38-.44a1.57 1.57 0 0 0 2.42-.29c.51-.58.62-1.11.35-1.58a1.22 1.22 0 0 0-.24-.27 1.56 1.56 0 0 0-1.71 0 5.84 5.84 0 0 0-.73.33 6.12 6.12 0 0 1-2.1.68 2.15 2.15 0 0 1-1.47-.54 2.1 2.1 0 0 1-.55-2.61 4.92 4.92 0 0 1 .81-1.29 5.91 5.91 0 0 1 2.16-1.67c-.24-.2-.32-.38-.26-.53l.15-.21 2.09 1.79-.39.47a2 2 0 0 0-3.13.18zM157.76 211.15a4.11 4.11 0 0 1-1 3.2 4.48 4.48 0 0 1-1.92 1.47 1.71 1.71 0 0 1-1.69-.14 1.34 1.34 0 0 1-.2-.21 1 1 0 0 1 .19-1.32 1.21 1.21 0 0 1 .57-.42 1.6 1.6 0 0 1 1.11.34 4.77 4.77 0 0 0 .43.24.9.9 0 0 0 1.19-.29 1.41 1.41 0 0 0 .31-.64c.11-.74-.63-1.74-2.2-3a6.88 6.88 0 0 0-2-1.24 1.62 1.62 0 0 0-1.93.58 3.47 3.47 0 0 0-.48.82 2.7 2.7 0 0 0 .05 2.26l-.39.28a2.84 2.84 0 0 1-.34-1 3.66 3.66 0 0 1 .94-3 5 5 0 0 1 1.71-1.38 3.7 3.7 0 0 1 4.09.74 4 4 0 0 1 1.56 2.71zM145.83 215.89c-.11.11-.28.08-.5-.1l2.75-3.5.37.29a2.09 2.09 0 0 0-.23.35c-.2.38-.1.73.32 1.06l4.64 3.64.65-.83.37.29-2.07 2.64-5.75-4.51-.41.52a1 1 0 0 1-.14.15zm7.67 4.88a1.25 1.25 0 0 1 .2-1.34 1.21 1.21 0 0 1 .52-.39 1.2 1.2 0 0 1 1.34.16 1.35 1.35 0 0 1-1.66 2.12 1.23 1.23 0 0 1-.4-.55zM143.25 219.06c-.49.64-.53 1.19-.15 1.64a1.19 1.19 0 0 0 .18.15 1.8 1.8 0 0 0 1.93 0 5.9 5.9 0 0 0 .79-.42 5.34 5.34 0 0 1 2-.76 1.91 1.91 0 0 1 1.31.4 2.08 2.08 0 0 1 .64 2.6 4.67 4.67 0 0 1-.76 1.39 4.06 4.06 0 0 1-1.73 1.46c.29.22.38.42.28.62a.83.83 0 0 1-.07.13l-1.81-1.37.35-.46a1.58 1.58 0 0 0 2.41-.43c.46-.61.55-1.14.25-1.59a1.29 1.29 0 0 0-.25-.27 1.58 1.58 0 0 0-1.71.07c-.15.07-.39.19-.71.37a5.86 5.86 0 0 1-2.06.81 2.18 2.18 0 0 1-1.5-.45 2.1 2.1 0 0 1-.7-2.58 5 5 0 0 1 .73-1.33 5.84 5.84 0 0 1 2.06-1.79c-.25-.19-.35-.37-.29-.52a1.09 1.09 0 0 1 .14-.21l2.19 1.66-.37.49a2 2 0 0 0-3.15.39zM134.59 230.45l.41.28-.74 1.05 3.62.87 2.07-3-2.11-3-.58.83a.64.64 0 0 1-.13.15c-.11.11-.28.09-.52-.08l1.91-2.73.4.28-.66 1 6.23 9.19-.77 1.09-10.94-2.43-.31.45-.13.15c-.11.11-.28.09-.52-.08zm8.2 3.4l-2.52-3.66-1.82 2.6zM127 242.63c-.11.1-.28.08-.5-.07l1.76-2.7 1.29.74-.12-.21a2.72 2.72 0 0 1 .14-2.87c.94-1.42 2.23-1.6 3.88-.56l3.81 2.48.57-.88.39.26-1.82 2.81-4.4-2.91a3.62 3.62 0 0 0-.43-.24 1.19 1.19 0 0 0-1.68.36 1.4 1.4 0 0 0-.19.52 2.12 2.12 0 0 0 1 1.88l3.81 2.51.49-.75.39.25-1.74 2.67-6.12-4-.34.51a1.4 1.4 0 0 1-.19.2zM124.81 246c-.43.69-.42 1.24 0 1.64a1.15 1.15 0 0 0 .19.14 1.81 1.81 0 0 0 1.92-.18 8.74 8.74 0 0 0 .75-.49 5.12 5.12 0 0 1 1.87-1 1.87 1.87 0 0 1 1.34.27 2.1 2.1 0 0 1 .9 2.52 5.3 5.3 0 0 1-.63 1.47 4 4 0 0 1-1.59 1.61c.31.19.42.39.34.59a.42.42 0 0 1-.06.14l-1.93-1.19.31-.49a1.58 1.58 0 0 0 2.35-.66 1.32 1.32 0 0 0 .11-1.61 1.55 1.55 0 0 0-.28-.24 1.59 1.59 0 0 0-1.7.24 7.19 7.19 0 0 0-.67.43 6.07 6.07 0 0 1-2 1 2.13 2.13 0 0 1-1.53-.31 2.07 2.07 0 0 1-1-2.49 4.76 4.76 0 0 1 .6-1.39 5.66 5.66 0 0 1 1.88-2c-.27-.17-.38-.33-.34-.49a2.24 2.24 0 0 1 .11-.22l2.35 1.44-.32.52a2 2 0 0 0-2.97.75zM129 253.34l-.63 1.08 1.48.87-.83 2.17-1.81-1.06-1.21 2.06-.4-.24 1.2-2.06-4.8-2.77a3.11 3.11 0 0 0-.41-.2c-.59-.23-1-.15-1.22.23a.72.72 0 0 0-.09.2c-.16.45.13 1 .85 1.73l-.31.39a4 4 0 0 1-.83-1 2 2 0 0 1 .19-2.11c.07-.13.15-.25.23-.37q1.32-1.74 3.58-.42l3.9 2.29.63-1.08zM117 259.6c-.09.12-.26.12-.51 0l2.49-4.47.41.23a3 3 0 0 0-.17.38c-.14.4 0 .74.49 1l5.15 2.87.51-.91.41.22-1.54 2.77-1.53-.71a3.28 3.28 0 0 1 .54 1 2.66 2.66 0 0 1-.18 2.15 2.07 2.07 0 0 1-.27.37 1.09 1.09 0 0 1-1.43.22 1.19 1.19 0 0 1-.47-1.57 1.57 1.57 0 0 1 .24-.32 1.52 1.52 0 0 1 1-.26c.32 0 .51-.06.58-.18a.69.69 0 0 0 .07-.23c0-.6-.51-1.25-1.58-1.94l-3.41-1.9-.65 1.17a1.25 1.25 0 0 1-.15.11zM114.65 264.23a1.21 1.21 0 0 1 0-1.32 1.3 1.3 0 0 1 .4-.44 1.18 1.18 0 0 1 1.31-.08 1.39 1.39 0 0 1 .46.41 1.2 1.2 0 0 1 .08 1.32 1.26 1.26 0 0 1-.41.45 1.22 1.22 0 0 1-1.33.07 1.33 1.33 0 0 1-.51-.41zM311.06 315.93l.41.25-.76 1.23 8.39 5.22.76-1.23.42.26-3.19 5.13a4.66 4.66 0 0 1-1.45 1.53 2.51 2.51 0 0 1-2.87 0 3.26 3.26 0 0 1-.94-.86c-.84-1.14-.7-2.6.4-4.37l.78-1.26-3.64-2.27-.7 1.13a.54.54 0 0 1-.67.15zm6.7 8.85l-4.29-2.67-.5.82c-.68 1.1-.31 2.1 1.09 3s2.47.78 3.15-.27zM302.93 331.47a3.31 3.31 0 0 1 .34-3.37 4.59 4.59 0 0 1 1.55-1.55 3.75 3.75 0 0 1 4.14.25 4.21 4.21 0 0 1 1.83 2.16 3.88 3.88 0 0 1-.5 3.44 4.93 4.93 0 0 1-1.38 1.51 2.36 2.36 0 0 1-2.74.15 1.4 1.4 0 0 1-.41-.39c-.41-.62-.08-1.74 1-3.36l.92-1.38a9.81 9.81 0 0 0-1.63-.81c-1.19-.41-2-.21-2.55.61a2.54 2.54 0 0 0-.33.84 2.77 2.77 0 0 0 .43 2.15l-.35.29a3.65 3.65 0 0 1-.32-.54zm5.2-2.27l-.66 1a3.19 3.19 0 0 0-.5 1c-.06.35.15.68.63 1 1.1.67 1.87.69 2.29 0q.72-1.31-1.76-3zM304.26 341.08c.09.11.17.23.25.35a1.62 1.62 0 0 1 .15 1.82 1.65 1.65 0 0 1-.44.47 1 1 0 0 1-1.12 0l-.14-.11a.62.62 0 0 1-.08-.84.79.79 0 0 1 .45-.31 1 1 0 0 0 .57-.33 1 1 0 0 0 0-.93 2.77 2.77 0 0 1-2.37-.3 3 3 0 0 1-1.2-1.43 3.5 3.5 0 0 1 .44-3.26l1-1.64.06-.13a.45.45 0 0 0-.16-.63.25.25 0 0 0-.11 0 .52.52 0 0 0-.65.25l-2 3.15a4 4 0 0 1-.29.39 2 2 0 0 1-2.82.59 1.65 1.65 0 0 1-.63-.7q-.72-1.49.85-4a6.08 6.08 0 0 1 1.38-1.61 1.63 1.63 0 0 1 1.92-.32 1.74 1.74 0 0 1 .69 1 1.8 1.8 0 0 1 1.55.17 1.87 1.87 0 0 1 .54.51 1.45 1.45 0 0 1 0 1.75 5.05 5.05 0 0 1 .53-.24 2.82 2.82 0 0 1 2.61.13 2.7 2.7 0 0 1 1.12 1.33 3.53 3.53 0 0 1-.48 3.32 4 4 0 0 1-1.62 1.55zm-8.57-5.92c-.41 1.07-.37 1.75.11 2a.66.66 0 0 0 .3.1q.38 0 .93-.87l2-3.09a2.17 2.17 0 0 1 .52-.57 1.24 1.24 0 0 0-.5-.63 1 1 0 0 0-.39-.13c-.71-.09-1.45.49-2.23 1.74a8 8 0 0 0-.74 1.45zm6.72.85a1 1 0 0 0-1.29.5 1.12 1.12 0 0 0-.19.88q.18.63 1.74 1.59a7.41 7.41 0 0 0 1.51.79 1.06 1.06 0 0 0 1.31-.53 1.1 1.1 0 0 0 .17-.89q-.2-.59-1.71-1.53a8.08 8.08 0 0 0-1.54-.82zM295 344.54a2.8 2.8 0 0 1-.3-.46 2.46 2.46 0 0 1 .22-2.53 2.85 2.85 0 0 1 .59-.72 1.94 1.94 0 0 1 2.5-.11c1.33.84 1.21 2.6-.38 5.26l1 .62a4.52 4.52 0 0 0 .81.42 1 1 0 0 0 1.42-.33 1.08 1.08 0 0 0 .16-.43 1.46 1.46 0 0 0-.5-.91l-.25-.28a1 1 0 0 1-.09-1.3 1 1 0 0 1 .23-.26.83.83 0 0 1 1.1-.1 1.15 1.15 0 0 1 .41.44c.38.74.14 1.8-.73 3.2a5.37 5.37 0 0 1-.73.93 2.58 2.58 0 0 1-3.47.31l-3.21-2c-.5-.3-.82-.35-1-.14s.07.71.74 1.21l-.26.39a4.59 4.59 0 0 1-.7-.63 1.52 1.52 0 0 1 .05-1.9 1.9 1.9 0 0 1 2.39-.68zm0-1.51a2.12 2.12 0 0 0 .74 1.76l1.49.93a5.22 5.22 0 0 0 .54-1.25 1.48 1.48 0 0 0-.81-1.65c-.89-.54-1.51-.56-1.85-.06a1.16 1.16 0 0 0-.11.24zM290.19 350.11c-.43.68-.43 1.23 0 1.64l.19.14a1.8 1.8 0 0 0 1.92-.17c.17-.1.42-.26.75-.49a5.18 5.18 0 0 1 1.89-.94 1.81 1.81 0 0 1 1.33.28 2.08 2.08 0 0 1 .88 2.52 4.62 4.62 0 0 1-.63 1.46 4.08 4.08 0 0 1-1.59 1.61c.3.19.42.39.33.59a.35.35 0 0 1-.06.14l-1.92-1.2.31-.49a1.57 1.57 0 0 0 2.35-.64c.41-.66.45-1.2.11-1.62a1.18 1.18 0 0 0-.27-.23 1.58 1.58 0 0 0-1.7.22 7.19 7.19 0 0 0-.67.43 5.91 5.91 0 0 1-2 1 2.13 2.13 0 0 1-1.53-.31 2.11 2.11 0 0 1-.94-2.5 4.8 4.8 0 0 1 .61-1.39 5.83 5.83 0 0 1 1.89-2c-.27-.17-.38-.33-.34-.49s.07-.14.12-.22l2.34 1.45-.33.52a2 2 0 0 0-3.04.69zM283.11 361.74c-.11.1-.28.09-.5-.06l1.7-2.73 1.31.71-.13-.21a2.72 2.72 0 0 1 .08-2.87q1.37-2.16 3.87-.64l3.86 2.4.55-.89.4.25-1.77 2.84-4.48-2.81a3.09 3.09 0 0 0-.44-.23 1.19 1.19 0 0 0-1.67.39 1.51 1.51 0 0 0-.18.53 2.12 2.12 0 0 0 1 1.86l3.86 2.42.47-.75.4.25-1.68 2.7-6.2-3.9-.32.52a1.72 1.72 0 0 1-.13.22zM280.82 365.17c-.42.69-.42 1.24 0 1.65a1.33 1.33 0 0 0 .19.14 1.79 1.79 0 0 0 1.91-.18 6.71 6.71 0 0 0 .76-.49 5.25 5.25 0 0 1 1.88-.94 1.94 1.94 0 0 1 1.34.28 2.1 2.1 0 0 1 .88 2.53 5.25 5.25 0 0 1-.63 1.46 4.09 4.09 0 0 1-1.6 1.61c.31.19.42.39.33.59a.31.31 0 0 1-.06.13l-1.92-1.19.31-.49a1.59 1.59 0 0 0 2.36-.65 1.32 1.32 0 0 0 .11-1.61 2.09 2.09 0 0 0-.28-.24 1.58 1.58 0 0 0-1.7.23c-.14.08-.37.22-.67.43a5.92 5.92 0 0 1-2 1 2.14 2.14 0 0 1-1.53-.32 2.1 2.1 0 0 1-.94-2.5 5.22 5.22 0 0 1 .61-1.39 5.7 5.7 0 0 1 1.89-2c-.26-.17-.38-.33-.33-.49a1.17 1.17 0 0 1 .11-.23l2.34 1.46-.32.52a2 2 0 0 0-3.04.69zM324.75 445.44a5.63 5.63 0 0 1-1.89-4.15 5.48 5.48 0 0 1 1.64-3.87 5.68 5.68 0 0 1 3.24-1.73 5.49 5.49 0 0 1 4.82 1.7 7.16 7.16 0 0 1 1.91 3 2 2 0 0 1 .34-.33c.18-.09.38 0 .61.18l-2.42 2.63-.46-.44a7.76 7.76 0 0 0 .71-1.7 2.72 2.72 0 0 0-.85-2.75q-2.33-2.22-5.78 1.34a12.88 12.88 0 0 0-1.61 2q-1.39 2.28.27 3.87a4 4 0 0 0 .84.64c1 .56 2.29.39 3.78-.51l.43.41-2.47 2.57a.9.9 0 0 1-.21-.25c-.12-.18 0-.44.3-.76a7.72 7.72 0 0 1-3.2-1.85zM328.18 452.41c.52.22 1.49 0 2.9-.61l2.8-8-.55-.53.31-.32 3.07 2.94-.32.33-.79-.77-1.92 5.16 4.92-2.27-1-.94.31-.33 2 1.95a.69.69 0 0 1-.13.11c-.15.12-.31.08-.51-.1a1 1 0 0 0-.79 0l-6.83 3.19a9.93 9.93 0 0 1-1.59.61 2.89 2.89 0 0 1-3-.48 2.46 2.46 0 0 1-.66-1 1.11 1.11 0 0 1 .16-1.2.92.92 0 0 1 .21-.17.78.78 0 0 1 1 .17.94.94 0 0 1 .28.49 2.22 2.22 0 0 1-.23.89c-.13.33-.12.56 0 .72a1.48 1.48 0 0 0 .36.16zM344.47 453.74l.4-.18a1.59 1.59 0 0 1 1.8.24 1.38 1.38 0 0 1 .37.53.93.93 0 0 1-.18 1.1l-.14.12a.62.62 0 0 1-.83-.1.81.81 0 0 1-.22-.51 1 1 0 0 0-.2-.62 1 1 0 0 0-.91-.15 2.85 2.85 0 0 1-.79 2.26 3 3 0 0 1-1.65.87 3.49 3.49 0 0 1-3.1-1.1l-1.38-1.36-.12-.08a.43.43 0 0 0-.65 0 .24.24 0 0 0-.06.09.51.51 0 0 0 .11.69l2.65 2.65q.18.18.33.36a2 2 0 0 1 0 2.88 1.72 1.72 0 0 1-.82.47c-1.06.27-2.31-.29-3.73-1.66a6.08 6.08 0 0 1-1.29-1.69 1.61 1.61 0 0 1 .09-1.94 1.73 1.73 0 0 1 1.1-.47 1.81 1.81 0 0 1 .5-1.48 1.75 1.75 0 0 1 .61-.42 1.46 1.46 0 0 1 1.72.34 3.75 3.75 0 0 1-.08-.58 2.87 2.87 0 0 1 .67-2.52 2.8 2.8 0 0 1 1.54-.82 3.57 3.57 0 0 1 3.15 1.17 3.87 3.87 0 0 1 1.11 1.91zm-7.57 7.14c1 .63 1.63.73 2 .32a.63.63 0 0 0 .16-.27c.06-.24-.16-.6-.66-1.09l-2.61-2.56a1.87 1.87 0 0 1-.45-.63 1.3 1.3 0 0 0-.72.36.84.84 0 0 0-.21.35c-.24.68.17 1.53 1.24 2.55a7 7 0 0 0 1.25.97zm2.23-6.39a1 1 0 0 0 .22 1.37 1.16 1.16 0 0 0 .82.37c.44 0 1.07-.49 1.92-1.37a8.31 8.31 0 0 0 1.09-1.32 1.07 1.07 0 0 0-.25-1.39 1.12 1.12 0 0 0-.84-.35c-.41 0-1 .49-1.85 1.35a7.67 7.67 0 0 0-1.11 1.34zM344.61 463.66c.1.12.05.29-.14.49l-3.06-2.94.33-.34.21.18a.82.82 0 0 0 1.2-.13l4.09-4.25-.76-.73.33-.34 2.32 2.24-.91 1.08a2.43 2.43 0 0 1 .75-.16 2.86 2.86 0 0 1 2.34.8 2.75 2.75 0 0 1 .55.73c.51 1 .24 2-.79 3.13l-3.21 3.33.43.42a1.07 1.07 0 0 1 .14.16c.1.13.05.29-.14.49l-3-2.9.33-.34a1.57 1.57 0 0 0 .35.27c.25.12.55 0 .9-.37l2.77-2.88a2.8 2.8 0 0 0 .32-.38 1.18 1.18 0 0 0 0-1.71 1 1 0 0 0-.46-.27 2.1 2.1 0 0 0-2.06.63l-3.23 3.32.33.32zM355.71 474.33c.08.12 0 .28-.16.48l-2.32-2.24 1-1.13-.23.08a2.73 2.73 0 0 1-2.79-.67q-1.82-1.78.18-3.92l3.15-3.27-.76-.73.33-.34 2.41 2.32-3.68 3.83a3.79 3.79 0 0 0-.32.38 1.18 1.18 0 0 0 0 1.71 1.29 1.29 0 0 0 .48.29 2.1 2.1 0 0 0 2-.63l3.17-3.27-.63-.62.32-.34 2.3 2.21-5.07 5.27.44.43a.73.73 0 0 1 .18.16zM358.6 477.29c.59.56 1.12.67 1.61.34l.18-.16a1.8 1.8 0 0 0 .23-1.91q-.09-.29-.33-.84a5.24 5.24 0 0 1-.52-2 1.91 1.91 0 0 1 .55-1.25 2.08 2.08 0 0 1 2.65-.33 4.93 4.93 0 0 1 1.3.92 4.08 4.08 0 0 1 1.24 1.89c.25-.26.47-.32.65-.2a.47.47 0 0 1 .12.09l-1.57 1.63-.42-.4a1.58 1.58 0 0 0-.14-2.44c-.55-.54-1.07-.69-1.55-.45a1.09 1.09 0 0 0-.29.23 1.57 1.57 0 0 0-.14 1.7 7.33 7.33 0 0 0 .29.75A6 6 0 0 1 363 477a2.14 2.14 0 0 1-.62 1.43 2.09 2.09 0 0 1-2.64.4 4.77 4.77 0 0 1-1.24-.89 5.78 5.78 0 0 1-1.54-2.26c-.22.23-.4.31-.54.23a1.27 1.27 0 0 1-.2-.16l1.91-2 .44.42a2 2 0 0 0 .03 3.12zM322.44 565.05l.34-.35 1 1 6.85-7.12-1.05-1 .34-.35 4 3.82-.34.35-1.11-1.06-6.84 7.12 1.34 1.29a1.91 1.91 0 0 0 2.68.17l1.56-.87.37.37-2.77 2.78zM328.9 575.18c.51.23 1.48 0 2.89-.61l2.8-8-.59-.57.31-.32 3.07 2.94-.32.33-.79-.77-1.92 5.16 4.92-2.27-1-.94.31-.33 2 1.95-.14.11c-.15.12-.31.08-.5-.1a1 1 0 0 0-.8 0L332.4 575a9.26 9.26 0 0 1-1.59.61 2.89 2.89 0 0 1-3-.48 2.46 2.46 0 0 1-.66-1 1.11 1.11 0 0 1 .16-1.2 1.2 1.2 0 0 1 .21-.17.78.78 0 0 1 1 .17.94.94 0 0 1 .28.49 2.22 2.22 0 0 1-.23.89c-.13.33-.11.57 0 .72a1.33 1.33 0 0 0 .33.15zM339.37 580.7c.09.13 0 .29-.15.49l-3.69-3.55.33-.34a1.74 1.74 0 0 0 .32.26.79.79 0 0 0 1.09-.21l4.08-4.25-.75-.73.32-.34 2.29 2.2-1.08 1.3a3.19 3.19 0 0 1 1.07-.28 2.67 2.67 0 0 1 2 .73 1.79 1.79 0 0 1 .28.35 1.08 1.08 0 0 1-.15 1.44 1.2 1.2 0 0 1-.41.28 1.07 1.07 0 0 1-1.22-.22 1.21 1.21 0 0 1-.25-.32 1.48 1.48 0 0 1 0-1c.08-.31.07-.51 0-.6a.72.72 0 0 0-.21-.12c-.58-.17-1.33.17-2.27 1l-2.71 2.81 1 .93zM345.53 585.22a2.23 2.23 0 0 1-.51.19 2.45 2.45 0 0 1-2.43-.73 3.51 3.51 0 0 1-.59-.68 1.94 1.94 0 0 1 .42-2.46q1.65-1.71 5.07 1.46l.81-.85a5.33 5.33 0 0 0 .58-.7 1.06 1.06 0 0 0-.42-1.71 1.54 1.54 0 0 0-1 .3l-.33.19a1 1 0 0 1-1.28-.18 1.08 1.08 0 0 1-.21-.28.82.82 0 0 1 .13-1.1 1.1 1.1 0 0 1 .52-.31c.79-.22 1.78.24 3 1.38a5.27 5.27 0 0 1 .77.9 2.6 2.6 0 0 1-.42 3.47l-2.64 2.67c-.4.42-.52.73-.34.93s.7.08 1.33-.47l.33.34a6.05 6.05 0 0 1-.76.55 1.52 1.52 0 0 1-1.85-.45 1.92 1.92 0 0 1-.18-2.46zm-1.47-.29a2.05 2.05 0 0 0 1.87-.35l1.22-1.27a5.19 5.19 0 0 0-1.11-.78 1.48 1.48 0 0 0-1.78.44q-1.08 1.15-.45 1.8a.83.83 0 0 0 .25.16zM342.85 846.42a4.93 4.93 0 0 1-3.15 2 6 6 0 0 1-3.49-.09 3.18 3.18 0 0 1 .09.48c0 .2-.18.34-.5.42l-.91-3.72.68-.17a5.25 5.25 0 0 0 .79 1.55 2.72 2.72 0 0 0 3 1.06 2.68 2.68 0 0 0 .86-.36 1.68 1.68 0 0 0 .71-2 1.79 1.79 0 0 0-.33-.68 4.41 4.41 0 0 0-2.26-1.07c-1.27-.29-2-.47-2.14-.53a3.05 3.05 0 0 1-2.29-2.08 2.48 2.48 0 0 1 .27-1.88 4.37 4.37 0 0 1 2.92-1.89 7.28 7.28 0 0 1 3.25-.07 1.88 1.88 0 0 1-.06-.29c0-.24.17-.4.5-.48l.78 3.18-.68.17a3.17 3.17 0 0 0-.86-1.52 2.5 2.5 0 0 0-2.43-.56 3.14 3.14 0 0 0-.68.28 1.38 1.38 0 0 0-.66 1.62 1.87 1.87 0 0 0 .37.73 4.22 4.22 0 0 0 2.22 1.07l2.08.53a3.07 3.07 0 0 1 2.22 2.1 2.75 2.75 0 0 1-.3 2.2zM351.79 843.9a3.31 3.31 0 0 1-2.6 2.17 4.65 4.65 0 0 1-2.19 0 3.77 3.77 0 0 1-2.79-3.08 4.2 4.2 0 0 1 .2-2.82 3.88 3.88 0 0 1 2.76-2.12 5.1 5.1 0 0 1 2-.11 2.34 2.34 0 0 1 2.06 1.8 1.39 1.39 0 0 1 0 .57q-.21 1.1-3.06 1.71l-1.63.34a9.43 9.43 0 0 0 .61 1.72c.56 1.13 1.31 1.57 2.25 1.34a2.33 2.33 0 0 0 .82-.37 2.73 2.73 0 0 0 1.19-1.84h.45a2.57 2.57 0 0 1-.07.69zm-5.31-2l1.14-.22a2.89 2.89 0 0 0 1-.35q.45-.32.24-1.14c-.32-1.25-.85-1.79-1.61-1.63-.9.25-1.16 1.37-.77 3.33zM358 843.26c.16 0 .27.11.34.38l-5 1.22-.12-.45a1.69 1.69 0 0 0 .4-.14c.39-.17.52-.51.4-1l-1.41-5.72-1 .25-.12-.46 3.08-.76.52 1.61a3.28 3.28 0 0 1 .34-1.06 2.7 2.7 0 0 1 1.7-1.33 1.85 1.85 0 0 1 .46 0 1.07 1.07 0 0 1 1.13.89 1.2 1.2 0 0 1 0 .5 1.06 1.06 0 0 1-.84.92 1.87 1.87 0 0 1-.4 0 1.47 1.47 0 0 1-.85-.54c-.22-.23-.4-.33-.52-.3a.65.65 0 0 0-.22.11c-.45.4-.56 1.22-.34 2.47l.93 3.8 1.3-.32zM365.59 844.9h.21c.16 0 .27.11.34.38l-4.57 1.13-.11-.46a3.26 3.26 0 0 0 .41-.14c.37-.18.49-.52.37-1l-2.24-9.12-1 .25-.11-.46 3.11-.76.5 1.66a3.33 3.33 0 0 1 .3-1 3 3 0 0 1 2-1.6 2.74 2.74 0 0 1 1.79.14 3.9 3.9 0 0 1 2.13 2.9 4.77 4.77 0 0 1-.17 3.1 3.46 3.46 0 0 1-2.46 2 2.83 2.83 0 0 1-2.29-.29l.86 3.51zm-2.29-9.46a4.4 4.4 0 0 0-.18 3.36 5.63 5.63 0 0 0 .8 1.91 1.61 1.61 0 0 0 1.71.81c1.08-.28 1.33-1.57.78-3.88-.52-2.11-1.29-3-2.3-2.83a1.31 1.31 0 0 0-.81.63zM377.4 837.59a3.31 3.31 0 0 1-2.6 2.17 4.65 4.65 0 0 1-2.19 0 3.77 3.77 0 0 1-2.79-3.08 4.2 4.2 0 0 1 .2-2.82 3.88 3.88 0 0 1 2.76-2.12 5.1 5.1 0 0 1 2-.11 2.34 2.34 0 0 1 2.06 1.8 1.39 1.39 0 0 1 0 .57q-.21 1.1-3.06 1.71l-1.63.34a9.43 9.43 0 0 0 .61 1.72c.56 1.13 1.31 1.57 2.25 1.34a2.33 2.33 0 0 0 .82-.37 2.73 2.73 0 0 0 1.19-1.84h.45a2.57 2.57 0 0 1-.07.69zm-5.31-2l1.14-.22a2.89 2.89 0 0 0 1-.35q.45-.32.24-1.14c-.32-1.25-.85-1.79-1.61-1.63-.86.26-1.16 1.37-.77 3.33zM382.73 837.16c.16 0 .27.11.34.38l-4.11 1-.11-.46.26-.08a.82.82 0 0 0 .53-1.08l-1.41-5.73-1 .25-.11-.45 3.12-.77.43 1.35a2.64 2.64 0 0 1 .27-.72 2.87 2.87 0 0 1 1.93-1.56 2.8 2.8 0 0 1 .91-.07c1.12.1 1.86.89 2.22 2.34l1.1 4.49.58-.14a.83.83 0 0 1 .22 0c.16 0 .27.11.34.38l-4.06 1-.11-.46a1.52 1.52 0 0 0 .4-.15q.36-.23.18-1l-1-3.88a3.23 3.23 0 0 0-.15-.47c-.31-.75-.8-1.05-1.47-.88a1.21 1.21 0 0 0-.48.24 2.12 2.12 0 0 0-.56 2.08l1.09 4.5.44-.1zM391.84 835q1.17-.28 1.14-1.17a1.5 1.5 0 0 0 0-.24 1.77 1.77 0 0 0-1.49-1.21 8.09 8.09 0 0 0-.88-.18 5.25 5.25 0 0 1-2-.64 1.92 1.92 0 0 1-.77-1.13 2.1 2.1 0 0 1 1.14-2.43 5.15 5.15 0 0 1 1.47-.6 4 4 0 0 1 2.26 0q-.12-.52.18-.66h.13l.54 2.2-.56.06a1.58 1.58 0 0 0-2.13-1.19c-.75.18-1.16.54-1.21 1.08a1.08 1.08 0 0 0 0 .36c.13.51.58.85 1.37 1 .16 0 .43.1.79.16a6 6 0 0 1 2.1.67 2.15 2.15 0 0 1 .88 1.29 2.1 2.1 0 0 1-1.08 2.45 4.56 4.56 0 0 1-1.4.57 5.85 5.85 0 0 1-2.74.09c.08.31.05.5-.09.59l-.25.08-.65-2.67.59-.15a2 2 0 0 0 2.66 1.67zM307.16 709l-.35-.34 1-1-7.13-6.84-1 1-.35-.33 3.76-3.92.35.34-1 1 3.25 3.12 3.18-3.32-3.25-3.12-1 1.05-.35-.34 3.76-3.92.35.34-1 1.05 7.13 6.83.66-.69a.55.55 0 0 1 .69 0l-3.75 3.92-.36-.34 1-1-3.49-3.34-3.18 3.32 3.49 3.34.66-.69a.55.55 0 0 1 .69 0zM320.48 693.24a3.29 3.29 0 0 1-1 3.22 4.42 4.42 0 0 1-1.83 1.2 3.74 3.74 0 0 1-4-1.1 4.18 4.18 0 0 1-1.35-2.5 3.91 3.91 0 0 1 1.2-3.26 5 5 0 0 1 1.66-1.18 2.33 2.33 0 0 1 2.71.41 1.34 1.34 0 0 1 .33.47c.27.69-.29 1.72-1.67 3.08l-1.19 1.16a9 9 0 0 0 1.43 1.12c1.08.66 1.95.63 2.62-.06a2.49 2.49 0 0 0 .49-.75 2.73 2.73 0 0 0 0-2.19l.41-.22a3 3 0 0 1 .19.6zm-5.55 1.14l.84-.8a2.91 2.91 0 0 0 .68-.84c.14-.34 0-.7-.4-1.1-.94-.88-1.69-1-2.24-.51q-.96 1.08 1.12 3.25zM325.37 689.37c.13-.1.29 0 .49.14l-3.54 3.7-.34-.33a2.29 2.29 0 0 0 .26-.32c.24-.36.17-.72-.22-1.09l-4.25-4.08-.73.76-.34-.33 2.19-2.28 1.31 1.07a2.92 2.92 0 0 1-.28-1.07 2.65 2.65 0 0 1 .72-2 1.64 1.64 0 0 1 .36-.29 1.17 1.17 0 0 1 1.49 1.78 1.18 1.18 0 0 1-.31.25 1.49 1.49 0 0 1-1 0c-.31-.08-.51-.07-.61 0a.56.56 0 0 0-.12.2c-.17.58.18 1.33 1 2.27l2.82 2.71.93-1zM323.55 682.09a4.14 4.14 0 0 1 1.25-3.09 4.58 4.58 0 0 1 2-1.3 1.67 1.67 0 0 1 1.67.27 1 1 0 0 1 .18.22 1 1 0 0 1-.29 1.3 1.12 1.12 0 0 1-.61.37 1.54 1.54 0 0 1-1.07-.42l-.42-.27a.89.89 0 0 0-1.21.19 1.43 1.43 0 0 0-.36.61c-.16.73.49 1.79 1.95 3.19a7.22 7.22 0 0 0 1.91 1.41 1.61 1.61 0 0 0 2-.43 3 3 0 0 0 .55-.78 2.66 2.66 0 0 0 .13-2.25l.42-.25a2.9 2.9 0 0 1 .26 1 3.68 3.68 0 0 1-1.18 2.88 5 5 0 0 1-1.81 1.24 3.71 3.71 0 0 1-4-1.07 4.05 4.05 0 0 1-1.37-2.82zM339.34 674.81q.2-.12.48.15l-2.23 2.33-1.13-1a1.55 1.55 0 0 0 .08.23 2.72 2.72 0 0 1-.67 2.79q-1.78 1.83-3.92-.17l-3.28-3.14-.73.75-.34-.32 2.32-2.42 3.84 3.68a2.8 2.8 0 0 0 .38.32 1.18 1.18 0 0 0 1.71 0 1.15 1.15 0 0 0 .28-.48 2.1 2.1 0 0 0-.63-2l-3.27-3.17-.62.64-.34-.33 2.21-2.3 5.27 5.06.43-.44a.94.94 0 0 1 .16-.18zM343.26 670.72c.13-.1.29-.05.49.14l-3.49 3.64-.34-.32a4.39 4.39 0 0 0 .51-.64.82.82 0 0 0-.24-1.06l-7.1-6.81-1 1-.34-.33 2.57-2.67 8.15 7.81.62-.65a.87.87 0 0 1 .17-.11zM348.36 664.18a3.32 3.32 0 0 1-1 3.22 4.72 4.72 0 0 1-1.84 1.2 3.77 3.77 0 0 1-4-1.11 4.17 4.17 0 0 1-1.34-2.49 3.84 3.84 0 0 1 1.2-3.26 5 5 0 0 1 1.66-1.19 2.35 2.35 0 0 1 2.71.42 1.31 1.31 0 0 1 .33.46c.27.7-.29 1.72-1.68 3.08l-1.19 1.17a9.59 9.59 0 0 0 1.43 1.12c1.08.65 2 .63 2.62-.07a2.52 2.52 0 0 0 .5-.75 2.73 2.73 0 0 0 0-2.19l.4-.21a2.65 2.65 0 0 1 .2.6zm-5.56 1.13l.84-.79a3.18 3.18 0 0 0 .69-.85c.14-.33 0-.7-.41-1.09-.94-.89-1.68-1.06-2.23-.52-.69.72-.27 1.81 1.11 3.25zM352.16 661.62c.56-.58.67-1.11.34-1.6l-.16-.18a1.81 1.81 0 0 0-1.91-.23q-.29.09-.84.33a5.5 5.5 0 0 1-2 .53 2 2 0 0 1-1.25-.55 2.1 2.1 0 0 1-.34-2.66 5.17 5.17 0 0 1 .92-1.3 4.1 4.1 0 0 1 1.9-1.24c-.26-.25-.33-.47-.21-.65l.09-.11 1.63 1.56-.4.42a1.58 1.58 0 0 0-2.44.14c-.54.56-.68 1.08-.44 1.56a1.23 1.23 0 0 0 .22.29 1.59 1.59 0 0 0 1.71.13 7.33 7.33 0 0 0 .75-.29 5.87 5.87 0 0 1 2.13-.55 2.15 2.15 0 0 1 1.44.62 2.1 2.1 0 0 1 .4 2.64 4.9 4.9 0 0 1-.89 1.23 5.78 5.78 0 0 1-2.25 1.55c.22.21.3.4.23.54a2.61 2.61 0 0 1-.17.2l-2-1.91.42-.44a2 2 0 0 0 3.12-.03zM494.69 469a5.59 5.59 0 0 1 4.35 1.37 5.52 5.52 0 0 1 1.77 3.81 5.68 5.68 0 0 1-.88 3.57 5.49 5.49 0 0 1-4.49 2.44 7.17 7.17 0 0 1-3.52-.6 1.9 1.9 0 0 1 0 .47q-.06.3-.54.33l-.31-3.55.64-.05a7.25 7.25 0 0 0 .79 1.67 2.69 2.69 0 0 0 2.6 1.21c2.15-.17 3.1-1.9 2.88-5.19a12.67 12.67 0 0 0-.4-2.53q-.76-2.57-3.06-2.4a3.91 3.91 0 0 0-1 .21c-1.11.39-1.83 1.44-2.15 3.14l-.6.05-.26-3.56a1.64 1.64 0 0 1 .33 0c.22 0 .34.28.36.74a7.74 7.74 0 0 1 3.49-1.13zM482.57 471.38a3.32 3.32 0 0 1 2.93-1.7 4.5 4.5 0 0 1 2.16.33 3.77 3.77 0 0 1 2.23 3.51 4.13 4.13 0 0 1-.67 2.75 3.9 3.9 0 0 1-3.08 1.62 5.14 5.14 0 0 1-2-.24 2.34 2.34 0 0 1-1.73-2.12 1.49 1.49 0 0 1 .07-.57c.27-.7 1.37-1.08 3.31-1.16l1.66-.07a8.93 8.93 0 0 0-.31-1.79c-.36-1.21-1-1.78-2-1.71a2.44 2.44 0 0 0-.87.23 2.71 2.71 0 0 0-1.48 1.61l-.44-.11a2.63 2.63 0 0 1 .22-.58zm4.89 2.87h-1.16a3 3 0 0 0-1.07.17c-.33.16-.47.52-.43 1.08.1 1.29.54 1.92 1.31 1.89.96-.08 1.41-1.13 1.35-3.14zM476.74 467.52h-.22c-.16 0-.25-.15-.27-.43l4.69-.34v.47a1.84 1.84 0 0 0-.43.07c-.39.11-.57.43-.53.94l.66 9.31 1-.07v.47l-3.2.23-.21-1.73a3.19 3.19 0 0 1-.48 1 2.93 2.93 0 0 1-2.27 1.23 2.75 2.75 0 0 1-1.73-.43 3.89 3.89 0 0 1-1.61-3.23 4.69 4.69 0 0 1 .69-3 3.48 3.48 0 0 1 2.77-1.58 2.85 2.85 0 0 1 2.21.68l-.26-3.61zm.66 9.71a4.42 4.42 0 0 0 .74-3.29 5.61 5.61 0 0 0-.47-2 1.61 1.61 0 0 0-1.55-1.09c-1.1.09-1.58 1.32-1.42 3.7.16 2.16.75 3.22 1.79 3.17a1.39 1.39 0 0 0 .91-.49zM467.11 471.63c-.15 0-.24-.15-.26-.43l4.24-.3v.46h-.25a.82.82 0 0 0-.75 1l.71 9.85 1.07-.07v.47l-3.36.24-.38-5.33a3.31 3.31 0 0 1-.27.53 2.79 2.79 0 0 1-2.25 1.29 2.48 2.48 0 0 1-.87-.09c-1.1-.28-1.7-1.17-1.81-2.68l-.33-4.62h-.82c-.15 0-.24-.15-.26-.43l4-.29v.47a1.06 1.06 0 0 0-.48.12q-.21.15-.15.87l.28 4v.33c.15.89.6 1.32 1.33 1.26a1.22 1.22 0 0 0 .58-.2 2.16 2.16 0 0 0 .82-2.18l-.31-4.33h-.45zM453.74 473.45a3.29 3.29 0 0 1 2.92-1.7 4.54 4.54 0 0 1 2.17.33 3.78 3.78 0 0 1 2.23 3.51 4.19 4.19 0 0 1-.68 2.75 3.88 3.88 0 0 1-3.07 1.62 5.09 5.09 0 0 1-2-.24 2.33 2.33 0 0 1-1.73-2.12 1.32 1.32 0 0 1 .06-.57c.27-.7 1.37-1.08 3.31-1.16l1.67-.07a10.81 10.81 0 0 0-.31-1.79c-.37-1.21-1-1.78-2-1.71a2.67 2.67 0 0 0-.87.23 2.77 2.77 0 0 0-1.48 1.61l-.44-.11a2.67 2.67 0 0 1 .22-.58zm4.88 2.88h-1.16a3 3 0 0 0-1.07.17c-.33.16-.47.52-.43 1.09.1 1.28.54 1.91 1.31 1.88.96-.09 1.41-1.14 1.35-3.14zM443.19 473.35c-.15 0-.23-.17-.25-.43l3.21-.23.19 1.47a2.14 2.14 0 0 0 .1-.22 2.7 2.7 0 0 1 2.37-1.63q2.54-.17 2.79 2.76l.32 4.53 1.05-.08v.47l-3.34.24-.38-5.3a2.63 2.63 0 0 0-.07-.49c-.17-.79-.61-1.17-1.29-1.12a1.26 1.26 0 0 0-.54.17 2.1 2.1 0 0 0-.89 1.93l.31 4.55.88-.07v.47l-3.18.23-.52-7.29-.62.05zM439.05 473.52c-.8.06-1.25.38-1.32 1a1.85 1.85 0 0 0 0 .23 1.81 1.81 0 0 0 1.27 1.46c.18.08.45.19.84.32a5.13 5.13 0 0 1 1.86 1 1.86 1.86 0 0 1 .56 1.25 2.07 2.07 0 0 1-1.52 2.19 5 5 0 0 1-1.56.35 4 4 0 0 1-2.23-.35c0 .36-.07.57-.29.62a.32.32 0 0 1-.14 0l-.16-2.26h.58a1.57 1.57 0 0 0 1.9 1.53c.77-.05 1.23-.34 1.37-.86a1.1 1.1 0 0 0 0-.36c0-.52-.43-.93-1.18-1.24-.15-.07-.4-.17-.74-.29a6.18 6.18 0 0 1-2-1 2.14 2.14 0 0 1-.65-1.42 2.11 2.11 0 0 1 1.47-2.23 4.8 4.8 0 0 1 1.49-.33 5.89 5.89 0 0 1 2.71.37c0-.31 0-.5.19-.56a1.71 1.71 0 0 1 .25 0l.2 2.74h-.61a2 2 0 0 0-2.29-2.16zM207.78 203l.38-.51 1.34 1 1.28-4.7L207 196l-4.06 2.63 1.06.79.2.17c.14.15.1.38-.12.68l-3.5-2.59.38-.51 1.22.9 12.21-7.8 1.41 1.05-3.58 14.19.57.42a1.62 1.62 0 0 1 .19.17c.15.15.11.38-.12.68zm4.74-10.57l-4.87 3.16L211 198zM220 201.66a4.59 4.59 0 0 1 3.83 1.49 4.25 4.25 0 0 1 1.3 2.88l.56-.44 3 3.08-.44.42-1.09-1.09-9.66 9.32.66.68.18.22c.09.17 0 .37-.23.61l-4.11-4.22.44-.42a3.54 3.54 0 0 0 .43.37c.44.3.9.21 1.39-.26l3.37-3.24a7.54 7.54 0 0 1-.82.2 3.57 3.57 0 0 1-3.22-1.13 4 4 0 0 1-1.1-2.22 5.08 5.08 0 0 1 1.82-4.45 6 6 0 0 1 3.69-1.8zm3.32 5.82q1.6-2.1.43-3.33a1.78 1.78 0 0 0-.8-.48q-1.66-.45-4.16 1.94a10.66 10.66 0 0 0-1.09 1.22c-1.11 1.44-1.28 2.55-.51 3.35a1.66 1.66 0 0 0 .83.48q1.73.41 4.28-2.06a11.62 11.62 0 0 0 1.01-1.12zM229 225.51c.08.18 0 .37-.31.57l-2.44-3.43 1.51-1.21h-.31a3.54 3.54 0 0 1-3.42-1.54c-1.27-1.82-.88-3.48 1.19-5l4.83-3.44-.79-1.11.5-.36 2.53 3.56-5.66 4a4 4 0 0 0-.5.4 1.55 1.55 0 0 0-.37 2.21 1.72 1.72 0 0 0 .55.48 2.73 2.73 0 0 0 2.76-.31L234 217l-.67-.94.5-.36 2.41 3.39-7.78 5.53.47.65a1.28 1.28 0 0 1 .07.24zM233.55 231.2a3.37 3.37 0 0 1-.71 0 3.2 3.2 0 0 1-2.71-1.9 4 4 0 0 1-.42-1.15 2.54 2.54 0 0 1 1.53-2.88q2.74-1.42 5.68 3.9l1.36-.72a6.7 6.7 0 0 0 1-.63c.72-.56.91-1.17.56-1.82a1.38 1.38 0 0 0-.38-.47 2 2 0 0 0-1.35 0l-.48.09a1.35 1.35 0 0 1-1.52-.75 1.69 1.69 0 0 1-.15-.43 1.09 1.09 0 0 1 .62-1.31 1.45 1.45 0 0 1 .77-.17q1.62.09 3.11 2.93a6.53 6.53 0 0 1 .57 1.44 3.35 3.35 0 0 1-1.94 4.11l-4.37 2.3c-.67.35-.94.69-.8 1s.84.39 1.84 0l.27.56a6.62 6.62 0 0 1-1.17.37q-1.31.21-2.1-1.32a2.47 2.47 0 0 1 .79-3.15zm-1.71-1a2.7 2.7 0 0 0 2.46.33l2-1.07a7.16 7.16 0 0 0-1-1.42 1.92 1.92 0 0 0-2.39-.18c-1.21.65-1.64 1.33-1.3 2a1.05 1.05 0 0 0 .23.37zM237 242.21c0 .2-.1.37-.43.5l-2.45-6.22.57-.22a2.49 2.49 0 0 0 .24.49 1 1 0 0 0 1.4.33l7.17-2.82-.5-1.27.58-.22 1.51 3.84-2 1a4.18 4.18 0 0 1 1.42.26 3.45 3.45 0 0 1 2 2 3 3 0 0 1 .15.57 1.41 1.41 0 0 1-1 1.62 1.44 1.44 0 0 1-.65.11 1.37 1.37 0 0 1-1.32-.93 1.6 1.6 0 0 1-.13-.51 2 2 0 0 1 .54-1.2c.26-.32.36-.57.3-.73a.94.94 0 0 0-.18-.26c-.59-.51-1.68-.51-3.25 0l-4.75 1.87.64 1.63a.86.86 0 0 1 .14.16zM239.74 250.71c0 .21-.13.36-.47.47l-1.7-5.56.58-.18a2.45 2.45 0 0 0 .21.51c.25.5.71.65 1.37.44l7.36-2.25-.4-1.31.59-.18 1.28 4.18-9.13 2.79.26.84c.02.09.04.17.05.25zm11-4.56a1.63 1.63 0 0 1-1.29-1.21 1.86 1.86 0 0 1 0-.85 1.6 1.6 0 0 1 1.18-1.32 1.75 1.75 0 0 1 .88-.05 1.67 1.67 0 0 1 1.33 1.2 1.75 1.75 0 0 1 0 .88 1.63 1.63 0 0 1-1.2 1.33 1.55 1.55 0 0 1-.94.02zM243.24 260.77a4.32 4.32 0 0 1-2.75-3.46 5.87 5.87 0 0 1 0-2.86 4.91 4.91 0 0 1 4.1-3.54 5.43 5.43 0 0 1 3.68.35 5.1 5.1 0 0 1 2.68 3.67 6.69 6.69 0 0 1 .08 2.66 3.07 3.07 0 0 1-2.42 2.64 1.86 1.86 0 0 1-.74 0q-1.42-.31-2.13-4.05l-.4-2.14a12.48 12.48 0 0 0-2.26.74c-1.49.7-2.1 1.66-1.83 2.9a3.42 3.42 0 0 0 .46 1.08 3.6 3.6 0 0 0 2.36 1.61l-.07.63a3.69 3.69 0 0 1-.76-.23zm2.79-6.86l.25 1.49a4.2 4.2 0 0 0 .42 1.36c.27.39.76.51 1.48.35 1.65-.38 2.37-1.06 2.19-2.05q-.48-1.83-4.37-1.15zM242.78 266.54c.14 1 .6 1.59 1.37 1.65h.3c.8-.11 1.4-.7 1.79-1.77a7.68 7.68 0 0 0 .35-1.12 6.77 6.77 0 0 1 1.12-2.5 2.49 2.49 0 0 1 1.58-.84 2.74 2.74 0 0 1 3 1.82 6.61 6.61 0 0 1 .57 2 5.27 5.27 0 0 1-.27 2.95c.47-.06.75 0 .83.32a1.21 1.21 0 0 1 .05.18l-2.93.39-.1-.75a2.05 2.05 0 0 0 1.84-2.6c-.13-1-.54-1.57-1.23-1.72a1.49 1.49 0 0 0-.47 0c-.68.09-1.18.64-1.52 1.64a6.79 6.79 0 0 0-.32 1 8.12 8.12 0 0 1-1.17 2.64 2.81 2.81 0 0 1-1.81 1 2.75 2.75 0 0 1-3-1.74 6.68 6.68 0 0 1-.54-1.91 7.45 7.45 0 0 1 .26-3.56c-.41.05-.65 0-.74-.21a2.09 2.09 0 0 1-.07-.33l3.56-.47.1.79q-2.9.35-2.55 3.14zM498 357.07l.1.48-1.26.25 2 3.14 3.53-.72.58-3.67-1 .2h-.2c-.16 0-.27-.13-.32-.42l3.26-.66.1.48-1.14.23-1.81 10.95-1.31.26-6.26-9.3-.53.11h-.2c-.16 0-.26-.13-.32-.41zm3.59 8.11l.7-4.39-3.11.63z"/><path d="M489.3 358.7c-.16 0-.25-.16-.27-.44l4.22-.3v.47a1.1 1.1 0 0 0-.27 0 .81.81 0 0 0-.71 1l.42 5.88 1-.07v.47l-3.21.23-.19-1.4a3.15 3.15 0 0 1-2.55 1.87 2.76 2.76 0 0 1-.91-.08c-1.09-.3-1.68-1.19-1.79-2.68l-.34-4.62h-.7c-.16 0-.25-.16-.27-.44l4.17-.3v.47a1.31 1.31 0 0 0-.43.09c-.26.1-.37.41-.34.91l.29 4a3.46 3.46 0 0 0 .07.48c.18.8.61 1.18 1.3 1.13a1.19 1.19 0 0 0 .51-.17 2.1 2.1 0 0 0 .92-1.95l-.32-4.62h-.45zM477.17 360.06a3.68 3.68 0 0 1 .23-.44 2.68 2.68 0 0 1 2.56-1.31 3 3 0 0 1 1.82.7 3.8 3.8 0 0 1 1.31 3.37 4.71 4.71 0 0 1-1.07 3 3.5 3.5 0 0 1-2.86 1.19 3.26 3.26 0 0 1-2.17-.9l-.19 4 1.65.08v.47l-3.94-.18.51-11.26h-1.05c-.14-.05-.21-.21-.19-.48l3.23.14zm3.4 1.17c-.14-1.38-.63-2.09-1.48-2.13a1.27 1.27 0 0 0-.71.17c-.78.46-1.21 1.59-1.29 3.4a8.91 8.91 0 0 0 0 1.16c.15 1.34.65 2 1.52 2.08a1.45 1.45 0 0 0 .7-.15c.78-.43 1.21-1.52 1.29-3.28a7.22 7.22 0 0 0-.03-1.25zM468.53 357.83c-.15 0-.21-.2-.17-.48l5.07.75-.07.46a2.06 2.06 0 0 0-.42 0c-.43 0-.68.28-.76.8l-.85 5.84 1 .15-.06.47-3.14-.47.12-1.68a3 3 0 0 1-.71.85 2.65 2.65 0 0 1-2.08.59 3.17 3.17 0 0 1-.44-.12 1.09 1.09 0 0 1-.71-1.26 1.35 1.35 0 0 1 .18-.47 1.06 1.06 0 0 1 1.12-.53 1.61 1.61 0 0 1 .39.12 1.53 1.53 0 0 1 .59.81c.12.3.24.46.37.48a.69.69 0 0 0 .24 0c.57-.2 1-.92 1.25-2.16l.57-3.86-1.33-.2a.59.59 0 0 1-.16-.09zM457.55 362.37a3.86 3.86 0 0 1-.64-3.42 4.3 4.3 0 0 1 1.51-2.39 4.2 4.2 0 1 1 1.52 7.26 4.23 4.23 0 0 1-2.39-1.45zm5.46-4.6a1.39 1.39 0 0 0-1.13-1.46 1.47 1.47 0 0 0-1.1.12c-.55.34-1 1.36-1.45 3.07a9.7 9.7 0 0 0-.36 2.39 1.43 1.43 0 0 0 1.17 1.49 1.35 1.35 0 0 0 1.13-.15c.51-.36 1-1.36 1.36-3a10 10 0 0 0 .37-2.46zM453.51 354.07c-.14-.07-.16-.24-.06-.5l3.84 1.45-.17.44-.26-.08a.81.81 0 0 0-1.05.59l-2.09 5.52 1 .37-.17.44-3-1.14.38-1.27a2.69 2.69 0 0 1-2.93.59 2.86 2.86 0 0 1-.52-.27 2.29 2.29 0 0 1-.86-2 2.85 2.85 0 0 1-3 .64 2.17 2.17 0 0 1-1-.74 2.73 2.73 0 0 1-.21-2.77l1.67-4.41-.55-.21-.2-.1c-.14-.07-.16-.24-.06-.5l3.86 1.46-.17.44a1.33 1.33 0 0 0-.44-.11c-.25 0-.46.24-.64.71l-1.41 3.73a3 3 0 0 0-.2.82 1.1 1.1 0 0 0 .67 1.24.78.78 0 0 0 .37.06c.61 0 1.14-.49 1.57-1.39l.05-.12 1.64-4.33-.29-.11-.2-.1c-.13-.07-.15-.24-.06-.5l3.59 1.36-.17.44a1.28 1.28 0 0 0-.44-.11c-.25 0-.46.24-.63.7l-1.48 3.69a3 3 0 0 0-.2.88 1 1 0 0 0 .61 1.12.94.94 0 0 0 .48 0c.62-.07 1.13-.54 1.54-1.41l1.67-4.35-.3-.12a.51.51 0 0 1-.18-.05zM436.88 347.61a3.32 3.32 0 0 1 3.39.06 4.66 4.66 0 0 1 1.68 1.4 3.77 3.77 0 0 1 .09 4.15 4.15 4.15 0 0 1-2 2 3.89 3.89 0 0 1-3.47-.21 5 5 0 0 1-1.61-1.25 2.35 2.35 0 0 1-.39-2.71 1.46 1.46 0 0 1 .36-.45c.58-.46 1.73-.22 3.43.71l1.46.81a10.74 10.74 0 0 0 .66-1.69c.31-1.23 0-2.06-.82-2.49a2.37 2.37 0 0 0-.87-.26 2.73 2.73 0 0 0-2.1.61l-.32-.33a2.74 2.74 0 0 1 .51-.35zm2.7 5l-1-.58a2.9 2.9 0 0 0-1-.41c-.36 0-.67.2-.93.7-.57 1.16-.52 1.92.16 2.29q1.29.61 2.77-2.01zM430.36 344.16a1.88 1.88 0 0 1 .42-.27 2.66 2.66 0 0 1 2.87.09 3.07 3.07 0 0 1 1.25 1.5 3.81 3.81 0 0 1-.49 3.58 4.68 4.68 0 0 1-2.38 2.06 3.43 3.43 0 0 1-3.08-.35 3.23 3.23 0 0 1-1.46-1.84l-2.11 3.42 1.4.87-.25.4-3.36-2.08 5.93-9.54-.71-.44-.17-.13c-.11-.11-.08-.28.06-.52l2.76 1.71zm2.4 2.68c.55-1.28.47-2.14-.25-2.59a1.36 1.36 0 0 0-.71-.2c-.9 0-1.83.8-2.78 2.34a8.59 8.59 0 0 0-.55 1c-.53 1.25-.42 2.1.31 2.56a1.5 1.5 0 0 0 .68.21c.89 0 1.8-.74 2.72-2.23a7.45 7.45 0 0 0 .58-1.09zM423.19 339a2.77 2.77 0 0 1 .48-.26 2.48 2.48 0 0 1 2.51.39 3.2 3.2 0 0 1 .67.65 1.94 1.94 0 0 1-.07 2.5q-1.41 1.9-5.22-.76l-.69.95a4.68 4.68 0 0 0-.48.77 1.07 1.07 0 0 0 .65 1.64 1.51 1.51 0 0 0 .94-.43l.3-.23a1 1 0 0 1 1.29 0 1 1 0 0 1 .25.25.83.83 0 0 1 0 1.11 1.14 1.14 0 0 1-.47.37c-.76.33-1.8 0-3.13-1a5.66 5.66 0 0 1-.88-.79 2.58 2.58 0 0 1-.05-3.49l2.22-3.06q.51-.71.21-1c-.29-.2-.71 0-1.25.65l-.37-.29a4 4 0 0 1 .67-.65 1.52 1.52 0 0 1 1.9.19 1.9 1.9 0 0 1 .52 2.49zm1.51.08a2.08 2.08 0 0 0-1.81.61l-1 1.42a5.4 5.4 0 0 0 1.2.63 1.48 1.48 0 0 0 1.7-.69c.61-.85.68-1.47.2-1.84a1 1 0 0 0-.29-.21zM540.43 442.07h-.21q-.24 0-.33-.39l4.59-1 .1.46-.42.13c-.36.17-.49.51-.38 1l2.05 9.1 1-.22.1.46-3.12.7-.47-1.67a3.24 3.24 0 0 1-.32 1 2.94 2.94 0 0 1-2.06 1.56 2.81 2.81 0 0 1-1.79-.17 3.91 3.91 0 0 1-2.07-2.95 4.78 4.78 0 0 1 .23-3.09 3.49 3.49 0 0 1 2.5-2 2.86 2.86 0 0 1 2.29.33l-.8-3.53zm2.11 9.5a4.44 4.44 0 0 0 .24-3.36 5.58 5.58 0 0 0-.77-1.92 1.59 1.59 0 0 0-1.69-.84q-1.62.38-.85 3.86c.48 2.12 1.22 3.08 2.24 2.87a1.36 1.36 0 0 0 .83-.61zM528.5 448.38a3.29 3.29 0 0 1 2.82-1.86 4.5 4.5 0 0 1 2.18.2 3.77 3.77 0 0 1 2.43 3.37 4.16 4.16 0 0 1-.51 2.78 3.88 3.88 0 0 1-3 1.8 5.08 5.08 0 0 1-2-.11 2.36 2.36 0 0 1-1.86-2 1.51 1.51 0 0 1 0-.57c.22-.71 1.3-1.17 3.23-1.36l1.66-.16a8.87 8.87 0 0 0-.42-1.77c-.43-1.19-1.13-1.72-2.08-1.59a2.42 2.42 0 0 0-.86.28 2.74 2.74 0 0 0-1.39 1.69l-.44-.08a2.39 2.39 0 0 1 .24-.62zm5 2.59l-1.16.09a2.91 2.91 0 0 0-1.06.24c-.32.17-.44.54-.37 1.1.18 1.28.66 1.88 1.43 1.8 1-.2 1.39-1.2 1.21-3.2zM522.54 448.93a2.41 2.41 0 0 1 .21-.5 2.49 2.49 0 0 1 2.2-1.28 3.08 3.08 0 0 1 .93.08 1.93 1.93 0 0 1 1.51 2q.11 2.37-4.53 2.7l.06 1.17a5.18 5.18 0 0 0 .12.9c.16.68.52 1 1.08 1a1.07 1.07 0 0 0 .45-.12 1.48 1.48 0 0 0 .46-.93l.09-.36a1 1 0 0 1 1-.82 1.27 1.27 0 0 1 .34 0 .84.84 0 0 1 .72.85 1.13 1.13 0 0 1-.13.59c-.39.73-1.4 1.14-3 1.22a5 5 0 0 1-1.18-.06 2.58 2.58 0 0 1-2.24-2.67l-.2-3.78c0-.58-.17-.87-.44-.88s-.54.46-.57 1.29h-.47a5.29 5.29 0 0 1 .12-.93c.18-.65.71-1 1.59-1a1.89 1.89 0 0 1 1.88 1.53zm1.22-.88a2.1 2.1 0 0 0-1 1.61l.09 1.75a5.17 5.17 0 0 0 1.33-.27 1.48 1.48 0 0 0 .9-1.6c-.07-1.05-.41-1.57-1-1.56a.93.93 0 0 0-.32.07zM242.8 435.53a6.4 6.4 0 0 1 .76 3.56 5 5 0 0 1-3 4.09 5.08 5.08 0 0 1-4.17.37 5.85 5.85 0 0 1-3.25-3l-2.48-4.79.44-.23.66 1.29 8.78-4.54-.67-1.29.43-.22zm-1.06-1l-8.74 4.56.63 1.22a2.79 2.79 0 0 0 1 1.11q1.47.93 4.82-.8a10.7 10.7 0 0 0 2.52-1.71 2.48 2.48 0 0 0 .49-3.11zM239.76 452.71a3.33 3.33 0 0 1-2.45-2.34 4.6 4.6 0 0 1-.28-2.17 3.77 3.77 0 0 1 2.74-3.12 4.2 4.2 0 0 1 2.83-.12 3.88 3.88 0 0 1 2.41 2.5 4.89 4.89 0 0 1 .34 2 2.34 2.34 0 0 1-1.55 2.26 1.45 1.45 0 0 1-.57.09q-1.11-.09-2-2.85l-.53-1.58a9.91 9.91 0 0 0-1.63.8c-1.06.69-1.42 1.48-1.08 2.39a2.43 2.43 0 0 0 .46.77 2.72 2.72 0 0 0 2 1v.46a2.7 2.7 0 0 1-.69-.09zm1.4-5.5l.35 1.1a3.06 3.06 0 0 0 .46 1c.24.27.63.31 1.16.11 1.21-.46 1.69-1.06 1.44-1.79-.37-.9-1.51-1.04-3.41-.42zM240.53 458.59c0 .15-.1.27-.37.34l-1.36-4.86.45-.12a3.68 3.68 0 0 0 .29.76.81.81 0 0 0 1 .33l9.48-2.65-.38-1.36.45-.13 1 3.57-10.87 3 .25.87a.69.69 0 0 1 .06.25zM238.21 464a1.64 1.64 0 0 1 0 .22c0 .16-.13.26-.4.31L237 460l.46-.09a2.1 2.1 0 0 0 .12.42c.15.38.49.52 1 .42l9.18-1.7-.19-1 .46-.08.58 3.15-1.69.4a3.24 3.24 0 0 1 1 .36 3 3 0 0 1 1.48 2.12 2.86 2.86 0 0 1-.24 1.78 3.92 3.92 0 0 1-3 2 4.82 4.82 0 0 1-3.09-.35 3.45 3.45 0 0 1-1.87-2.58 2.79 2.79 0 0 1 .42-2.27l-3.56.67zm9.58-1.74a4.41 4.41 0 0 0-3.35-.37 5.64 5.64 0 0 0-1.95.69 1.59 1.59 0 0 0-.9 1.66q.32 1.64 3.83 1c2.13-.4 3.11-1.11 3-2.13a1.35 1.35 0 0 0-.63-.81zM242.86 472.94c0 .16-.16.25-.43.27l-.31-4.24h.47a1.17 1.17 0 0 0 0 .26.81.81 0 0 0 1 .74l9.86-.71-.08-1.06h.47l.24 3.36-5.32.38a5.31 5.31 0 0 1 .53.27 2.83 2.83 0 0 1 1.28 2.25 2.54 2.54 0 0 1-.08.88c-.28 1.09-1.18 1.7-2.68 1.8l-4.62.34v.59a.81.81 0 0 1 0 .22c0 .16-.16.25-.43.27l-.3-4h.47a1.1 1.1 0 0 0 .13.48c.09.14.38.19.86.16l4-.29h.32c.9-.15 1.32-.59 1.27-1.33a1.18 1.18 0 0 0-.21-.58 2.17 2.17 0 0 0-2.18-.82l-4.33.31v.45a.67.67 0 0 1 .07 0zM243.12 483.18c0 .16-.17.24-.45.23v-4.45h.47a1.73 1.73 0 0 0 0 .41c.06.43.36.64.89.65l5.9.05V479h.47v3.34l-7.31-.07v.73a.62.62 0 0 1 .03.18zm9.06-.8a1.23 1.23 0 0 1-.66-1.18 1.29 1.29 0 0 1 .17-.63 1.19 1.19 0 0 1 1.16-.69 1.33 1.33 0 0 1 .65.16 1.31 1.31 0 0 1 .51 1.84 1.25 1.25 0 0 1-1.18.69 1.17 1.17 0 0 1-.65-.19zM242.84 487.94c0 .16-.2.22-.47.2l.37-4.22h.47a2.62 2.62 0 0 0 0 .27.82.82 0 0 0 .85.86l5.88.52.09-1.05h.47l-.28 3.21h-1.42a2.65 2.65 0 0 1 .59.48 2.86 2.86 0 0 1 .85 2.33 2.71 2.71 0 0 1-.22.89c-.47 1-1.44 1.47-2.93 1.34l-4.62-.41-.05.6a1.55 1.55 0 0 1 0 .21c0 .16-.19.22-.47.2l.37-4.17.47.05a1.51 1.51 0 0 0 0 .43c.06.27.35.43.85.48l4 .35h.49c.82 0 1.26-.41 1.32-1.1a1.2 1.2 0 0 0-.08-.53 2.11 2.11 0 0 0-1.78-1.21l-4.62-.43v.46a.58.58 0 0 1-.13.24zM240.6 502.92c-.06.14-.23.18-.49.13l.59-3.17 1.48.19-.2-.15a2.71 2.71 0 0 1-1-2.7q.48-2.5 3.37-2l4.46.83.2-1 .46.08-.62 3.29-5.23-1a3.93 3.93 0 0 0-.48-.06c-.82 0-1.29.3-1.42 1a1.34 1.34 0 0 0 0 .56 2.11 2.11 0 0 0 1.64 1.36l4.48.85.16-.87.47.08-.59 3.13-7.18-1.34-.11.61q.04.09.01.18zM239.44 506.67c-.2.78 0 1.3.48 1.57l.23.08a1.78 1.78 0 0 0 1.78-.72 8.31 8.31 0 0 0 .58-.69 5.48 5.48 0 0 1 1.53-1.45 1.88 1.88 0 0 1 1.36-.12 2.09 2.09 0 0 1 1.6 2.16 5 5 0 0 1-.18 1.59 4.15 4.15 0 0 1-1 2c.34.09.51.25.49.46a.77.77 0 0 1 0 .15l-2.19-.58.15-.56a1.58 1.58 0 0 0 2.07-1.3c.2-.75.08-1.28-.36-1.58a1.14 1.14 0 0 0-.34-.15c-.5-.13-1 .1-1.55.71a7.78 7.78 0 0 0-.52.61 5.86 5.86 0 0 1-1.61 1.52 2.13 2.13 0 0 1-1.55.14 2.09 2.09 0 0 1-1.63-2.12 5.07 5.07 0 0 1 .18-1.5 5.79 5.79 0 0 1 1.24-2.44c-.31-.09-.46-.21-.47-.37s0-.16.05-.25l2.66.71-.16.59a2 2 0 0 0-2.84 1.54zM85.11 602.07a6.41 6.41 0 0 1-3.6-3.25 7.76 7.76 0 0 1-1.12-4.42 3.24 3.24 0 0 1-.58.28c-.26.05-.49-.1-.7-.47l4.35-2.47.46.8a6.62 6.62 0 0 0-1.68 1.54 3.58 3.58 0 0 0-.25 4.2 3.62 3.62 0 0 0 .75 1 2.21 2.21 0 0 0 2.72.2 2.37 2.37 0 0 0 .74-.67 5.73 5.73 0 0 0 .54-3.21q-.1-2.53-.09-2.88a4 4 0 0 1 1.81-3.61 3.27 3.27 0 0 1 2.45-.33 5.74 5.74 0 0 1 3.42 3 9.65 9.65 0 0 1 1.23 4 2.76 2.76 0 0 1 .35-.17c.29-.08.55.08.77.46L93 598.19l-.45-.8a4.31 4.31 0 0 0 1.61-1.62 3.27 3.27 0 0 0-.16-3.25 3.16 3.16 0 0 0-.59-.75 1.78 1.78 0 0 0-2.27-.26 2.24 2.24 0 0 0-.79.71 5.58 5.58 0 0 0-.56 3.17c0 1.65.06 2.58.07 2.81a4 4 0 0 1-1.86 3.53 3.6 3.6 0 0 1-2.89.34zM89.82 609.52a4.18 4.18 0 0 1-.71 0 3.26 3.26 0 0 1-2.72-1.9 4.29 4.29 0 0 1-.42-1.14 2.53 2.53 0 0 1 1.52-2.89c1.83-1 3.72.34 5.69 3.87l1.36-.72a6.7 6.7 0 0 0 1-.63c.72-.56.9-1.17.55-1.82a1.38 1.38 0 0 0-.38-.47 2 2 0 0 0-1.35 0l-.48.1a1.35 1.35 0 0 1-1.52-.75 1.16 1.16 0 0 1-.15-.43 1.08 1.08 0 0 1 .61-1.31 1.37 1.37 0 0 1 .77-.17q1.62.07 3.12 2.91a7.12 7.12 0 0 1 .58 1.44 3.36 3.36 0 0 1-1.93 4.12L91 612.05c-.67.35-.93.69-.8 1s.85.38 1.85 0l.27.55a7.05 7.05 0 0 1-1.17.38c-.87.14-1.57-.3-2.11-1.32a2.48 2.48 0 0 1 .78-3.14zm-1.72-1a2.76 2.76 0 0 0 2.47.32l2-1.08a7.16 7.16 0 0 0-1-1.42 1.94 1.94 0 0 0-2.39-.17c-1.21.65-1.64 1.34-1.3 2a2.61 2.61 0 0 0 .22.39zM102.94 617.89a5.09 5.09 0 0 1 .56 0 2.1 2.1 0 0 1 2.12 1.08 2.23 2.23 0 0 1 .22.81 1.23 1.23 0 0 1-.71 1.28l-.22.08a.81.81 0 0 1-1-.48 1.14 1.14 0 0 1 0-.72 1.27 1.27 0 0 0 0-.86 1.29 1.29 0 0 0-1.06-.58 3.64 3.64 0 0 1-2 2.42 3.85 3.85 0 0 1-2.41.36 4.58 4.58 0 0 1-3.33-2.73l-1.1-2.27a.91.91 0 0 0-.11-.16.57.57 0 0 0-.81-.25l-.12.08a.69.69 0 0 0-.16.9l2.09 4.42a5 5 0 0 1 .25.59q.86 2.48-1.28 3.54a2.24 2.24 0 0 1-1.21.21c-1.43-.14-2.71-1.37-3.86-3.68a7.71 7.71 0 0 1-.84-2.64c-.12-1.19.2-2 1-2.35a2.28 2.28 0 0 1 1.57-.1 2.36 2.36 0 0 1 1.26-1.6 2.56 2.56 0 0 1 .93-.25 1.9 1.9 0 0 1 2 1.19 6.31 6.31 0 0 1 .1-.76 3.7 3.7 0 0 1 1.93-2.81 3.54 3.54 0 0 1 2.26-.33 4.62 4.62 0 0 1 3.35 2.82 5.21 5.21 0 0 1 .58 2.79zm-12.46 5.45c.91 1.19 1.69 1.62 2.35 1.29a.72.72 0 0 0 .32-.27c.19-.27.07-.81-.33-1.62l-2.08-4.3a2.58 2.58 0 0 1-.28-1 1.69 1.69 0 0 0-1 .12 1.24 1.24 0 0 0-.42.34c-.58.73-.45 2 .41 3.68a10.46 10.46 0 0 0 1.03 1.76zm5.52-6.87a1.35 1.35 0 0 0-.33 1.77 1.54 1.54 0 0 0 .85.82c.55.15 1.54-.13 3-.84a10.12 10.12 0 0 0 1.92-1.14 1.38 1.38 0 0 0 .31-1.81 1.41 1.41 0 0 0-.88-.81 5.26 5.26 0 0 0-2.87.85 10.19 10.19 0 0 0-2 1.16zM98.75 630.52c.06.2-.07.38-.4.53l-2.47-5.26.55-.26a2.54 2.54 0 0 0 .28.47 1 1 0 0 0 1.42.25l7-3.27-.59-1.25.56-.26 1.86 4-8.64 4.06.37.79a1.44 1.44 0 0 1 .06.2zm10.2-6.07a1.66 1.66 0 0 1-1.45-1 1.83 1.83 0 0 1-.16-.84 1.59 1.59 0 0 1 1-1.48 1.82 1.82 0 0 1 .86-.17 1.68 1.68 0 0 1 1.49 1 1.82 1.82 0 0 1 .15.87 1.66 1.66 0 0 1-1 1.49 1.7 1.7 0 0 1-.84.13zM107.84 627.64l.66 1.49 2-.92 1.68 2.54-2.5 1.12 1.27 2.84-.56.25-1.27-2.84-6.49 2.88a4.3 4.3 0 0 0-.52.28c-.69.45-.92.94-.68 1.47a1.19 1.19 0 0 0 .13.25q.56.76 2.49.42l.17.62a5.23 5.23 0 0 1-1.63.16 2.65 2.65 0 0 1-2.1-1.8 5.83 5.83 0 0 1-.21-.53q-.86-2.73 2.27-4.12l5.39-2.41-.66-1.49zM111.36 635.55l.64 1.5 2.06-.87 1.63 2.57-2.53 1.06 1.21 2.88-.57.24-1.21-2.88-6.59 2.78a3.76 3.76 0 0 0-.53.27c-.7.44-.94.92-.72 1.46a2 2 0 0 0 .13.25c.36.52 1.19.67 2.48.47l.16.62a5.16 5.16 0 0 1-1.64.13 2.65 2.65 0 0 1-2.06-1.85c-.07-.17-.13-.35-.19-.53-.53-1.83.25-3.18 2.36-4.07l5.44-2.29-.63-1.5zM109.51 652.5a3.44 3.44 0 0 1-.71 0 3.23 3.23 0 0 1-2.47-2.2 4.29 4.29 0 0 1-.29-1.19 2.54 2.54 0 0 1 1.84-2.69q2.9-1.1 5.21 4.51l1.43-.55a6.55 6.55 0 0 0 1.06-.52c.78-.47 1-1 .77-1.74a1.44 1.44 0 0 0-.32-.51 2 2 0 0 0-1.34-.19h-.49a1.35 1.35 0 0 1-1.43-.92 1.33 1.33 0 0 1-.09-.44 1.08 1.08 0 0 1 .76-1.23 1.38 1.38 0 0 1 .78-.08c1.07.18 2 1.26 2.76 3.26a6.8 6.8 0 0 1 .41 1.49 3.37 3.37 0 0 1-2.4 3.87l-4.6 1.79c-.71.28-1 .58-.91.92s.79.47 1.84.17l.2.58a7 7 0 0 1-1.2.24c-.88 0-1.53-.48-1.95-1.55a2.5 2.5 0 0 1 1.14-3.02zm-1.59-1.15a2.71 2.71 0 0 0 2.42.6l2.13-.83a7.41 7.41 0 0 0-.87-1.53 1.94 1.94 0 0 0-2.36-.45c-1.27.51-1.78 1.14-1.52 1.88a1.53 1.53 0 0 0 .2.33zM112.27 663.87c0 .21-.11.37-.46.49l-2.22-6.31.58-.2a2.59 2.59 0 0 0 .23.5c.27.48.73.61 1.38.38l7.27-2.56-.46-1.29.58-.2 1.37 3.9-2 .88a4.21 4.21 0 0 1 1.41.31 3.44 3.44 0 0 1 1.94 2 2 2 0 0 1 .13.58 1.4 1.4 0 0 1-1 1.59 1.44 1.44 0 0 1-.65.07 1.37 1.37 0 0 1-1.3-1 1.59 1.59 0 0 1-.1-.51 2 2 0 0 1 .58-1.18q.41-.48.33-.72a.83.83 0 0 0-.17-.26c-.58-.54-1.66-.58-3.26-.14l-4.81 1.7.58 1.65a.86.86 0 0 1 .05.32zM115.13 672.54c0 .21-.12.36-.47.48l-1.78-5.53.58-.19a3.39 3.39 0 0 0 .22.5c.25.49.71.64 1.37.42l7.33-2.36-.42-1.3.59-.19 1.34 4.16-9.08 2.93.26.83a1.29 1.29 0 0 1 .06.25zm10.87-4.72a1.67 1.67 0 0 1-1.31-1.2 1.86 1.86 0 0 1 0-.85 1.58 1.58 0 0 1 1.16-1.34 1.82 1.82 0 0 1 .87-.06 1.68 1.68 0 0 1 1.35 1.18 1.75 1.75 0 0 1 0 .88 1.63 1.63 0 0 1-1.18 1.35 1.75 1.75 0 0 1-.89.04zM118.81 685.2c0 .19-.16.34-.49.43l-1.15-4L119 681l-.31-.06a3.56 3.56 0 0 1-2.7-2.6q-.88-3.21 2.78-4.3l5.71-1.62-.38-1.32.59-.17 1.2 4.21-6.68 1.86a4.84 4.84 0 0 0-.61.22c-1 .44-1.33 1.1-1.09 2a1.78 1.78 0 0 0 .36.64 2.74 2.74 0 0 0 2.71.63l5.73-1.61-.32-1.11.59-.17 1.14 4-9.18 2.61.22.77a1.86 1.86 0 0 1 .05.22zM119.85 690.35c.24 1 .75 1.53 1.52 1.51l.31-.05a2.34 2.34 0 0 0 1.6-1.93 8.11 8.11 0 0 0 .24-1.15 7 7 0 0 1 .87-2.61 2.52 2.52 0 0 1 1.49-1 2.73 2.73 0 0 1 3.15 1.52 6.34 6.34 0 0 1 .77 1.93 5.35 5.35 0 0 1 0 2.95c.46-.11.74 0 .85.24a.75.75 0 0 1 .07.18l-2.88.67-.17-.73a2.07 2.07 0 0 0 1.58-2.78c-.23-1-.7-1.51-1.39-1.59a1.87 1.87 0 0 0-.48 0c-.66.16-1.11.75-1.35 1.78a7.79 7.79 0 0 0-.22 1 7.92 7.92 0 0 1-.91 2.74 2.8 2.8 0 0 1-1.7 1.13 2.75 2.75 0 0 1-3.2-1.36 6.09 6.09 0 0 1-.72-1.84 7.51 7.51 0 0 1-.09-3.57c-.4.09-.65 0-.76-.14a1.74 1.74 0 0 1-.1-.32l3.49-.82.19.78q-2.78.72-2.16 3.46zM218 912.56a6.4 6.4 0 0 1-4.53 1.75 7.73 7.73 0 0 1-4.44-1 3.9 3.9 0 0 1 0 .63c-.07.26-.31.4-.74.42l-.24-5h.92a6.53 6.53 0 0 0 .63 2.19 3.56 3.56 0 0 0 3.62 2.12 3.51 3.51 0 0 0 1.2-.25 2.19 2.19 0 0 0 1.4-2.33 2.38 2.38 0 0 0-.26-1 5.66 5.66 0 0 0-2.63-1.93c-1.54-.7-2.41-1.1-2.61-1.22a4 4 0 0 1-2.4-3.24 3.21 3.21 0 0 1 .8-2.34 5.76 5.76 0 0 1 4.23-1.69 9.62 9.62 0 0 1 4.17.72 1.57 1.57 0 0 1 0-.38c.06-.3.31-.46.75-.49l.21 4.27-.92.05a4.22 4.22 0 0 0-.72-2.17 3.26 3.26 0 0 0-3-1.32 3.21 3.21 0 0 0-.94.19 1.8 1.8 0 0 0-1.26 1.91 2.44 2.44 0 0 0 .29 1 5.43 5.43 0 0 0 2.58 1.93l2.54 1.21a4 4 0 0 1 2.31 3.24 3.59 3.59 0 0 1-.96 2.73zM221.91 904.85a5.39 5.39 0 0 1 4-1.72 5.86 5.86 0 0 1 3.08.66 2.19 2.19 0 0 1 1.29 1.8 1.67 1.67 0 0 1 0 .38 1.36 1.36 0 0 1-1.47.92 1.5 1.5 0 0 1-.9-.21 2 2 0 0 1-.6-1.38c-.06-.3-.1-.51-.13-.64a1.19 1.19 0 0 0-1.3-.94 1.89 1.89 0 0 0-.89.23q-1.25.79-1.15 4.75a9.1 9.1 0 0 0 .47 3.07 2.11 2.11 0 0 0 2.2 1.41 4.41 4.41 0 0 0 1.23-.21 3.54 3.54 0 0 0 2.2-2l.61.16a3.46 3.46 0 0 1-.66 1.14 4.71 4.71 0 0 1-3.74 1.57 6.34 6.34 0 0 1-2.82-.52q-2.66-1.25-2.73-4.69a5.26 5.26 0 0 1 1.31-3.78zM240.4 904.17a5 5 0 0 1 1.84 4.14 5.48 5.48 0 0 1-1.19 3.49 5.48 5.48 0 0 1-8.59-6.79 5.35 5.35 0 0 1 4.47-2 5.54 5.54 0 0 1 3.47 1.16zm-5.54 7.49a1.83 1.83 0 0 0 1.88 1.52 1.85 1.85 0 0 0 1.35-.49c.6-.6.91-2.05.92-4.35a13.11 13.11 0 0 0-.27-3.14 1.86 1.86 0 0 0-1.93-1.54 1.8 1.8 0 0 0-1.4.53c-.54.62-.81 2-.82 4.23a13.38 13.38 0 0 0 .27 3.24zM249.71 913.21c.2 0 .3.24.29.6l-6.69-.2v-.62a2.37 2.37 0 0 0 .55 0c.55-.08.84-.46.86-1.15l.23-7.7h-1.37v-.61l4.13.12.1 2.2a4.06 4.06 0 0 1 .8-1.2 3.45 3.45 0 0 1 2.6-1.08 1.92 1.92 0 0 1 .59.09 1.39 1.39 0 0 1 1.11 1.52 1.4 1.4 0 0 1-.16.63 1.37 1.37 0 0 1-1.37.86 2.09 2.09 0 0 1-.52-.09 2 2 0 0 1-.89-1c-.19-.37-.38-.56-.55-.56a.94.94 0 0 0-.31.06c-.7.34-1.13 1.34-1.29 3l-.16 5.1h1.75a1.09 1.09 0 0 1 .3.03zM258.48 918.09a1.26 1.26 0 0 1 .28 0c.21 0 .3.24.27.61l-6.13-.37v-.61a3.55 3.55 0 0 0 .57 0c.53-.08.81-.46.85-1.14l.72-12.16-1.35-.08v-.62l4.17.25v2.27a3.91 3.91 0 0 1 .78-1.18 3.82 3.82 0 0 1 3.15-1.21 3.57 3.57 0 0 1 2.17.86 5.08 5.08 0 0 1 1.53 4.44 6.27 6.27 0 0 1-1.4 3.8 4.56 4.56 0 0 1-3.86 1.57 3.69 3.69 0 0 1-2.74-1.25l-.28 4.72zm.8-12.69c-.9.79-1.41 2.16-1.52 4.13a7.41 7.41 0 0 0 .27 2.69c.36 1.06 1 1.61 1.81 1.67 1.45.07 2.27-1.45 2.47-4.54q.26-4.25-1.77-4.41a1.77 1.77 0 0 0-1.26.46zM271.91 914.61c.2 0 .28.26.25.62l-5.79-.5.06-.61a2.43 2.43 0 0 0 .54 0q.84-.07.93-1.11l.66-7.67-1.37-.12.06-.61 4.35.38-.82 9.5.87.08zm-.14-11.86a1.66 1.66 0 0 1-1.61.74 1.73 1.73 0 0 1-.8-.29 1.56 1.56 0 0 1-.79-1.58 1.8 1.8 0 0 1 .29-.83 1.7 1.7 0 0 1 2.43-.48 1.64 1.64 0 0 1 .79 1.61 1.72 1.72 0 0 1-.31.83zM283.26 907a5 5 0 0 1 1.39 4.32 5.51 5.51 0 0 1-1.57 3.34 5.68 5.68 0 0 1-7.9-.12 5.2 5.2 0 0 1-1.35-4.41 5.25 5.25 0 0 1 1.45-3.16 5.33 5.33 0 0 1 4.66-1.47 5.59 5.59 0 0 1 3.32 1.5zm-6.26 6.82a1.82 1.82 0 0 0 1.7 1.72 2 2 0 0 0 1.4-.34c.66-.53 1.12-1.94 1.38-4.22a12.21 12.21 0 0 0 .07-3.15 1.86 1.86 0 0 0-1.75-1.75 1.78 1.78 0 0 0-1.44.38c-.61.55-1 1.92-1.28 4.11a12.64 12.64 0 0 0-.08 3.25zM455.38 1005.59l.06-.63 1.88.17 1.19-12.84-1.88-.17.06-.64 7.17.67-.06.63-2-.18-1.19 12.84 2.42.22a2.92 2.92 0 0 0 1.27-.12 3.15 3.15 0 0 0 1.6-1.89l.89-2.14.68.06-.57 5.09zM473 1006.8c.2.06.28.26.24.62l-5.77-.66.07-.61a3.41 3.41 0 0 0 .54 0q.84-.06 1-1.08l.88-7.65-1.37-.16.07-.61 4.35.5-1.09 9.48.87.1zm.2-11.86a1.65 1.65 0 0 1-1.63.69 1.72 1.72 0 0 1-.79-.31 1.56 1.56 0 0 1-.75-1.6 1.87 1.87 0 0 1 .31-.82 1.66 1.66 0 0 1 1.63-.74 1.59 1.59 0 0 1 .82.33 1.63 1.63 0 0 1 .74 1.63 1.72 1.72 0 0 1-.29.82zM478 1006.36l-.41 1.61-3.58-.49.08-.63h.57c.53 0 .84-.4.94-1.07l1.75-12.73-1.35-.15.09-.63 4.3.59-1 7.18a4 4 0 0 1 3.95-1.88 3.69 3.69 0 0 1 2.08 1 5 5 0 0 1 1.3 4.64 6.06 6.06 0 0 1-1.75 3.69 4.5 4.5 0 0 1-3.91 1.23 4 4 0 0 1-3.06-2.36zm2.89-7c-1 .61-1.65 2-1.95 4.12a8.8 8.8 0 0 0 0 2.22c.18 1.39.77 2.15 1.79 2.29q2.15.27 2.81-4.33c.38-2.81-.09-4.32-1.43-4.54a1.9 1.9 0 0 0-1.21.24zM493.43 1009.75c.2.07.27.28.21.64l-6.6-1.09.1-.61a2.8 2.8 0 0 0 .55 0c.56 0 .89-.35 1-1l1.26-7.6-1.36-.22.1-.61 4.08.67-.19 2.2a4.06 4.06 0 0 1 .94-1.09 3.44 3.44 0 0 1 2.73-.73 2.69 2.69 0 0 1 .57.17 1.53 1.53 0 0 1 .66 2.26 1.37 1.37 0 0 1-1.47.67 1.61 1.61 0 0 1-.51-.16 2 2 0 0 1-.75-1.08c-.14-.39-.3-.6-.47-.63a.89.89 0 0 0-.32 0q-1.11.38-1.68 2.79l-.83 5 1.73.29a1.53 1.53 0 0 1 .25.13zM503.33 1010.21a2.79 2.79 0 0 1-.42.57 3.24 3.24 0 0 1-3.18.93 3.89 3.89 0 0 1-1.15-.39 2.55 2.55 0 0 1-1.31-3c.41-2 2.6-2.69 6.59-2l.29-1.51a6 6 0 0 0 .13-1.17c0-.92-.34-1.44-1.07-1.58a1.51 1.51 0 0 0-.6 0 2 2 0 0 0-.87 1l-.23.44a1.34 1.34 0 0 1-1.53.71 1.57 1.57 0 0 1-.43-.15 1.1 1.1 0 0 1-.64-1.3 1.49 1.49 0 0 1 .35-.71c.72-.8 2.13-1 4.23-.6a6.41 6.41 0 0 1 1.48.45 3.35 3.35 0 0 1 2 4.09l-.92 4.85c-.15.74-.05 1.16.28 1.25s.83-.42 1.13-1.46l.59.13a6.1 6.1 0 0 1-.43 1.15 2 2 0 0 1-2.35.82 2.48 2.48 0 0 1-1.94-2.52zm-1.82.73c.7-.12 1.3-.69 1.8-1.72l.43-2.25a6.88 6.88 0 0 0-1.77-.07 1.93 1.93 0 0 0-1.63 1.75c-.24 1.35 0 2.11.79 2.29a1.2 1.2 0 0 0 .38 0zM467.32 705.64a3 3 0 0 1-1.93 1.94 5.67 5.67 0 0 1 .84.1 2.53 2.53 0 0 1 2.38 2.41 2.86 2.86 0 0 1-.42 1.7 4.21 4.21 0 0 1-3.46 1.74l-6.17.46v-.48l1.45-.11-.75-9.85-1.44.11v-.49l5.84-.44a6.47 6.47 0 0 1 1.79.08 2.21 2.21 0 0 1 2 2.08 2.17 2.17 0 0 1-.13.75zm-5.58-2.28l.33 4.22 1-.08a2.37 2.37 0 0 0 .6-.12c.83-.3 1.2-1 1.11-2.15a1.85 1.85 0 0 0-2.18-1.94zm.36 4.72l.39 5.13 1.21-.1a2.54 2.54 0 0 0 .47-.07c1.23-.27 1.79-1.23 1.67-2.86a3.19 3.19 0 0 0-.24-1 1.87 1.87 0 0 0-2-1.21zM476.31 705.61a3.83 3.83 0 0 1 1.59 3.09 4.25 4.25 0 0 1-.76 2.72 4.2 4.2 0 0 1-6.87-4.82 4.08 4.08 0 0 1 3.34-1.7 4.26 4.26 0 0 1 2.7.71zm-3.91 6a1.51 1.51 0 0 0 2.51.64c.44-.48.61-1.6.52-3.36a9.74 9.74 0 0 0-.35-2.39 1.41 1.41 0 0 0-1.54-1.09 1.33 1.33 0 0 0-1 .47c-.39.49-.54 1.58-.45 3.26a10.2 10.2 0 0 0 .31 2.44zM485.81 705.27a3.83 3.83 0 0 1 1.52 3.12 4.16 4.16 0 0 1-.82 2.7 4 4 0 0 1-3.29 1.65 4.08 4.08 0 0 1-2.71-.86 4.36 4.36 0 0 1-.76-5.75 4.1 4.1 0 0 1 3.37-1.63 4.23 4.23 0 0 1 2.69.77zm-3.27-2.38a1.15 1.15 0 0 1-1 .65 1.26 1.26 0 0 1-.57-.11 1.11 1.11 0 0 1-.7-1 1.22 1.22 0 0 1 .11-.56 1.15 1.15 0 0 1 1.08-.7 1.17 1.17 0 0 1 .57.12 1.14 1.14 0 0 1 .68 1.07 1.22 1.22 0 0 1-.17.53zm-.77 8.26a1.39 1.39 0 0 0 1.49 1.11 1.43 1.43 0 0 0 1-.41c.44-.47.63-1.59.58-3.35a9.38 9.38 0 0 0-.3-2.4A1.41 1.41 0 0 0 483 705a1.38 1.38 0 0 0-1.05.44c-.39.49-.57 1.57-.51 3.26a9.94 9.94 0 0 0 .33 2.45zm4.16-8.38a1.16 1.16 0 0 1-1.09.66 1.12 1.12 0 0 1-.54-.11 1.13 1.13 0 0 1-.69-1 1.15 1.15 0 0 1 .13-.58 1.11 1.11 0 0 1 1-.69 1.25 1.25 0 0 1 .58.13 1.13 1.13 0 0 1 .7 1.06 1.17 1.17 0 0 1-.09.53zM488.11 704.73h1.25v-1.72l2.29-.41v2.1h2.39v.47h-2.38l.07 5.48a2.15 2.15 0 0 0 0 .45c.1.63.38.94.83.93h.21q.71-.15 1.05-1.62l.49.06a4.14 4.14 0 0 1-.38 1.2 2 2 0 0 1-1.91.93h-.43c-1.45-.15-2.19-1.1-2.21-2.85l-.06-4.52h-1.25zM502.11 711.06a3.28 3.28 0 0 1-3 1.46 4.46 4.46 0 0 1-2.13-.49 3.76 3.76 0 0 1-2-3.67 4.22 4.22 0 0 1 .88-2.69 3.93 3.93 0 0 1 3.19-1.38 5.29 5.29 0 0 1 2 .39 2.34 2.34 0 0 1 1.56 2.25 1.25 1.25 0 0 1-.11.56c-.31.68-1.44 1-3.39.91l-1.66-.06a10.22 10.22 0 0 0 .17 1.81c.27 1.23.89 1.85 1.86 1.85a2.44 2.44 0 0 0 .88-.16 2.73 2.73 0 0 0 1.6-1.49l.44.15a2.77 2.77 0 0 1-.29.56zm-4.65-3.25l1.16.06a3.1 3.1 0 0 0 1.09-.08c.33-.13.51-.48.51-1q0-1.93-1.17-2c-.96.01-1.49 1.02-1.59 3.02zM506.52 712.13c.81 0 1.28-.26 1.42-.84a2 2 0 0 0 0-.23 1.78 1.78 0 0 0-1.12-1.57c-.17-.1-.43-.23-.8-.4a5.34 5.34 0 0 1-1.77-1.14 2 2 0 0 1-.44-1.3 2.11 2.11 0 0 1 1.74-2 4.93 4.93 0 0 1 1.58-.19 4.05 4.05 0 0 1 2.19.56c0-.37.12-.56.34-.59h.15l-.06 2.26h-.58a1.58 1.58 0 0 0-1.75-1.71c-.77 0-1.25.22-1.44.73a1.53 1.53 0 0 0-.07.36c0 .51.34 1 1.06 1.34.14.09.38.21.71.37a5.71 5.71 0 0 1 1.85 1.2 2.17 2.17 0 0 1 .51 1.48 2.09 2.09 0 0 1-1.68 2.07 4.51 4.51 0 0 1-1.51.18 5.71 5.71 0 0 1-2.66-.62c0 .31-.09.49-.25.53h-.25l.07-2.75h.61a2 2 0 0 0 2.15 2.26zM465.44 642.61a6.39 6.39 0 0 1 1.92 3.09 5 5 0 0 1-1.39 4.85 5.07 5.07 0 0 1-3.8 1.76 5.86 5.86 0 0 1-4.07-1.7l-4-3.67.33-.35 1.06 1 6.71-7.25-1.06-1 .33-.36zm-1.33-.57l-6.71 7.25 1 .93a2.65 2.65 0 0 0 1.28.72q1.71.38 4.26-2.39a10.39 10.39 0 0 0 1.79-2.46 2.48 2.48 0 0 0-.59-3.09zM468.93 658c.12.1.11.27 0 .51l-4.38-2.65.24-.4a2.13 2.13 0 0 0 .38.18c.4.16.73 0 1-.45l3.05-5-.9-.55.25-.4 2.71 1.64-.77 1.5a3.36 3.36 0 0 1 1-.5 2.66 2.66 0 0 1 2.15.26 1.45 1.45 0 0 1 .36.28 1.08 1.08 0 0 1 .17 1.43 1.12 1.12 0 0 1-.35.37 1.05 1.05 0 0 1-1.23 0 1.37 1.37 0 0 1-.32-.25 1.56 1.56 0 0 1-.23-1c0-.32 0-.52-.15-.59a.69.69 0 0 0-.23-.07c-.6 0-1.26.46-2 1.5l-2 3.35 1.14.69zM477.1 660.83a2 2 0 0 1-.41.36 2.47 2.47 0 0 1-2.53.2 3.25 3.25 0 0 1-.8-.47 1.94 1.94 0 0 1-.51-2.45q.93-2.18 5.26-.47l.45-1.09a5 5 0 0 0 .28-.86c.15-.68 0-1.13-.55-1.35a1.29 1.29 0 0 0-.46-.09c-.23 0-.5.25-.81.64-.11.14-.19.24-.24.29a1 1 0 0 1-1.26.3 1.49 1.49 0 0 1-.3-.18.83.83 0 0 1-.27-1.08 1 1 0 0 1 .37-.47c.66-.49 1.75-.43 3.26.21a4.9 4.9 0 0 1 1 .57 2.57 2.57 0 0 1 .86 3.38l-1.44 3.49c-.23.53-.22.86 0 1s.69-.18 1.08-.92l.42.2a4.74 4.74 0 0 1-.5.79 1.53 1.53 0 0 1-1.89.25 1.9 1.9 0 0 1-1.01-2.25zm-1.48.27a2.09 2.09 0 0 0 1.61-1l.68-1.62a5.64 5.64 0 0 0-1.31-.34 1.49 1.49 0 0 0-1.5 1.06c-.4 1-.32 1.59.23 1.85a1.05 1.05 0 0 0 .29.05zM484.28 657.76a4.11 4.11 0 0 1 3.33-.41 4.53 4.53 0 0 1 2.13 1.14 1.69 1.69 0 0 1 .57 1.6 1 1 0 0 1-.11.27 1 1 0 0 1-1.28.37 1.17 1.17 0 0 1-.62-.35 1.57 1.57 0 0 1-.14-1.14v-.5a.92.92 0 0 0-.76-1 1.43 1.43 0 0 0-.71 0c-.71.21-1.33 1.29-1.85 3.25a6.9 6.9 0 0 0-.3 2.35 1.62 1.62 0 0 0 1.32 1.51 3 3 0 0 0 1 .1 2.67 2.67 0 0 0 2-1l.43.25a3 3 0 0 1-.73.7 3.68 3.68 0 0 1-3.09.37 5 5 0 0 1-2-1 3.7 3.7 0 0 1-1-4 4.05 4.05 0 0 1 1.81-2.51zM498.21 660.09a3.83 3.83 0 0 1 1 3.33A4.19 4.19 0 0 1 498 666a4.15 4.15 0 0 1-7-3.6 4 4 0 0 1 4.75-3.45 4.21 4.21 0 0 1 2.46 1.14zm-4.95 5.14a1.4 1.4 0 0 0 1.28 1.34 1.42 1.42 0 0 0 1.08-.24c.51-.39.89-1.46 1.12-3.2a9.8 9.8 0 0 0 .11-2.42 1.43 1.43 0 0 0-1.32-1.36 1.38 1.38 0 0 0-1.11.27c-.47.41-.82 1.46-1 3.13a10.43 10.43 0 0 0-.16 2.48zM234.2 791.62a5.32 5.32 0 0 1-2.49 4.35 5.39 5.39 0 0 1-4.29 1 6.21 6.21 0 0 1-4.71-6.15 5.73 5.73 0 0 1 6.75-5.16 5.8 5.8 0 0 1 3.58 2.45 5.93 5.93 0 0 1 1.16 3.51zm-8.79 3.54c1.05.44 2.63-.09 4.73-1.57a11.54 11.54 0 0 0 2.08-1.79 2.6 2.6 0 0 0 .37-3.47 2.63 2.63 0 0 0-.82-.78q-1.65-1-5 1.36a10.18 10.18 0 0 0-2.49 2.31 2.46 2.46 0 0 0 .07 3 2.4 2.4 0 0 0 1.06.94zM228.74 805.47a.81.81 0 0 1 .12.18c.08.13 0 .29-.2.47l-3-3.62.36-.3a3 3 0 0 0 .31.31.79.79 0 0 0 1.08-.12l7.18-6-.65-.79.36-.3 2 2.46-1.24 1.24a3.21 3.21 0 0 1 1.07-.18 3 3 0 0 1 2.33 1.13 2.8 2.8 0 0 1 .65 1.67 3.91 3.91 0 0 1-1.69 3.18 4.83 4.83 0 0 1-2.86 1.2 3.49 3.49 0 0 1-2.89-1.34 2.87 2.87 0 0 1-.74-2.19l-2.78 2.31zm7.51-6.18a4.38 4.38 0 0 0-3.1 1.3 5.42 5.42 0 0 0-1.36 1.55 1.59 1.59 0 0 0 0 1.89q1.08 1.28 3.83-1c1.68-1.38 2.19-2.48 1.55-3.3a1.34 1.34 0 0 0-.92-.44zM238.19 811.06c.09.13 0 .29-.16.48l-2.92-3.09.34-.32a1.54 1.54 0 0 0 .19.17.81.81 0 0 0 1.23 0l7.19-6.77-.73-.78.34-.32 2.31 2.45-3.89 3.65a5 5 0 0 1 .58-.12 2.81 2.81 0 0 1 2.42.93 2.6 2.6 0 0 1 .49.73c.47 1 .16 2.06-.94 3.1l-3.37 3.17.41.44.14.17c.05.06 0 .29-.17.48l-2.78-2.95.34-.32a1.17 1.17 0 0 0 .4.29c.16.05.42-.09.77-.42l2.91-2.75.23-.23c.6-.68.64-1.29.14-1.83a1.22 1.22 0 0 0-.53-.32 2.16 2.16 0 0 0-2.21.74l-3.16 3 .31.32zM245.81 818.72c.09.12.05.29-.15.49l-3.2-3.09.32-.34a2.18 2.18 0 0 0 .33.26q.52.36 1.08-.21l4.09-4.25-.75-.73.33-.33 2.41 2.32-5.08 5.26.49.47zm5.63-7.13a1.27 1.27 0 0 1-1.31-.34 1.35 1.35 0 0 1-.34-.55 1.23 1.23 0 0 1 .3-1.33 1.3 1.3 0 0 1 .56-.35 1.27 1.27 0 0 1 1.34.31 1.14 1.14 0 0 1 .34.58 1.22 1.22 0 0 1-.3 1.33 1.31 1.31 0 0 1-.59.35zM253.69 825.72c.09.12 0 .28-.13.48l-2.43-2.11.91-1.18-.23.09a2.71 2.71 0 0 1-2.82-.53c-1.27-1.13-1.28-2.44 0-3.93l3-3.42-.79-.69.31-.36 2.52 2.2-3.49 4a3.79 3.79 0 0 0-.3.4 1.19 1.19 0 0 0 .12 1.71 1.53 1.53 0 0 0 .49.26 2.13 2.13 0 0 0 2-.73l3-3.43-.66-.58.3-.35 2.41 2.09-4.8 5.51.46.4zM259.63 822.29a4.14 4.14 0 0 1 3.23.91 4.52 4.52 0 0 1 1.52 1.87 1.68 1.68 0 0 1-.08 1.69 1 1 0 0 1-1.53.06 1.18 1.18 0 0 1-.44-.56 1.59 1.59 0 0 1 .31-1.11l.22-.44a.9.9 0 0 0-.32-1.19 1.4 1.4 0 0 0-.65-.29c-.74-.08-1.73.68-3 2.29a7.08 7.08 0 0 0-1.18 2.06 1.61 1.61 0 0 0 .64 1.9 3.17 3.17 0 0 0 .83.46 2.7 2.7 0 0 0 2.26-.12l.29.39a3.24 3.24 0 0 1-.94.37 3.68 3.68 0 0 1-3-.86 5 5 0 0 1-1.44-1.67 3.69 3.69 0 0 1 .62-4.11 4.06 4.06 0 0 1 2.66-1.65zM265 834.09c.12.11.1.28 0 .51l-3.54-2.36.26-.39.22.13a.82.82 0 0 0 1.19-.32l5.47-8.23-.89-.59.26-.39 2.8 1.86-2.95 4.45a2.87 2.87 0 0 1 .53-.25 2.79 2.79 0 0 1 2.57.35 2.67 2.67 0 0 1 .64.61c.69.89.62 2-.21 3.22l-2.57 3.86.5.33.17.14c.12.1.1.27-.05.5l-3.4-2.24.26-.39a1.07 1.07 0 0 0 .46.19c.17 0 .38-.18.65-.59l2.22-3.33a2.79 2.79 0 0 0 .16-.28c.43-.8.34-1.4-.27-1.81a1.21 1.21 0 0 0-.59-.19 2.17 2.17 0 0 0-2 1.22l-2.4 3.61.38.25a1 1 0 0 1 .13.13zM278.71 842.26c.11.1.1.27 0 .5l-2.81-1.57.64-1.34-.2.14a2.7 2.7 0 0 1-2.87.06q-2.22-1.26-.83-3.84l2.21-4-.92-.51.23-.41 2.93 1.63-2.59 4.65a4.39 4.39 0 0 0-.21.44c-.28.77-.13 1.32.47 1.65a1.36 1.36 0 0 0 .54.16 2.14 2.14 0 0 0 1.81-1.13l2.23-4-.77-.43.22-.41 2.79 1.55-3.58 6.44.54.3zM282.85 844.34c.74.34 1.28.28 1.63-.2a1.13 1.13 0 0 0 .12-.21 1.8 1.8 0 0 0-.4-1.88c-.12-.16-.31-.38-.58-.68a5.23 5.23 0 0 1-1.16-1.76 1.89 1.89 0 0 1 .11-1.36 2.1 2.1 0 0 1 2.41-1.18 4.6 4.6 0 0 1 1.52.45 4.09 4.09 0 0 1 1.79 1.39c.15-.33.34-.46.55-.41h.14l-1 2.05-.52-.24a1.59 1.59 0 0 0-.92-2.27 1.34 1.34 0 0 0-1.62.09 1.21 1.21 0 0 0-.2.3 1.57 1.57 0 0 0 .43 1.66 6 6 0 0 0 .51.62 6 6 0 0 1 1.22 1.84 2.17 2.17 0 0 1-.13 1.56 2.09 2.09 0 0 1-2.37 1.23A4.79 4.79 0 0 1 283 845a5.69 5.69 0 0 1-2.19-1.63c-.14.28-.28.41-.45.39l-.23-.09 1.16-2.49.55.25a2 2 0 0 0 1.01 2.91zM298 849.27a3.3 3.3 0 0 1-3.35.41 4.57 4.57 0 0 1-1.86-1.16 3.77 3.77 0 0 1-.67-4.1 4.22 4.22 0 0 1 1.71-2.27 3.89 3.89 0 0 1 3.46-.27 5.07 5.07 0 0 1 1.78 1 2.36 2.36 0 0 1 .75 2.63 1.53 1.53 0 0 1-.29.5c-.52.53-1.68.45-3.5-.24l-1.55-.6a9.25 9.25 0 0 0-.42 1.77c-.15 1.26.24 2 1.15 2.36a2.43 2.43 0 0 0 .89.13 2.75 2.75 0 0 0 2-.89l.36.28a2.72 2.72 0 0 1-.46.45zm-3.35-4.57l1.08.43a3 3 0 0 0 1.05.27c.36 0 .64-.29.82-.83.42-1.22.26-2-.46-2.24q-1.34-.43-2.45 2.37zM301.28 843.58l1.2.32.45-1.65 2.32.23-.55 2 2.31.62-.13.46-2.3-.63-1.44 5.29a2.36 2.36 0 0 0-.08.45c-.07.63.11 1 .54 1.12h.21c.48 0 1-.4 1.45-1.28l.45.2a4.15 4.15 0 0 1-.69 1.05 2 2 0 0 1-2.09.37l-.41-.13c-1.36-.54-1.8-1.66-1.35-3.35l1.19-4.36-1.2-.33zM408.89 786.56a5.61 5.61 0 0 1-1.9-4.14 5.51 5.51 0 0 1 1.63-3.88 5.64 5.64 0 0 1 3.23-1.74 5.5 5.5 0 0 1 4.83 1.68 7.28 7.28 0 0 1 1.92 3 2 2 0 0 1 .34-.33c.18-.1.38 0 .61.17l-2.43 2.68-.45-.44a8 8 0 0 0 .7-1.7 2.72 2.72 0 0 0-.86-2.75q-2.34-2.21-5.78 1.37a12.75 12.75 0 0 0-1.6 2q-1.38 2.3.28 3.87a4 4 0 0 0 .85.64c1 .55 2.29.38 3.77-.53l.44.42-2.47 2.52a.9.9 0 0 1-.21-.25c-.13-.18 0-.44.3-.76a7.66 7.66 0 0 1-3.2-1.83zM423.84 788.27a3.87 3.87 0 0 1-.44 3.45 4.31 4.31 0 0 1-2.17 1.81 4.35 4.35 0 0 1-5.45-2.65 4.37 4.37 0 0 1 2.52-5.22 4.1 4.1 0 0 1 3.71.49 4.29 4.29 0 0 1 1.83 2.12zm-6.61 2.7a1.39 1.39 0 0 0 .63 1.74 1.43 1.43 0 0 0 1.08.22c.63-.15 1.41-1 2.33-2.48a9.68 9.68 0 0 0 1.07-2.16 1.43 1.43 0 0 0-.65-1.78 1.4 1.4 0 0 0-1.13-.21c-.59.19-1.33 1-2.22 2.44a10.39 10.39 0 0 0-1.11 2.26zM427.84 797.52c.13.08.15.25 0 .51l-4.72-2 .18-.43a3.05 3.05 0 0 0 .4.13c.42.09.73-.1.93-.59l2.29-5.44-1-.41.18-.43 2.92 1.23-.53 1.6a3.15 3.15 0 0 1 .9-.65 2.67 2.67 0 0 1 2.16 0 1.9 1.9 0 0 1 .39.23 1.07 1.07 0 0 1 .38 1.39 1.18 1.18 0 0 1-.29.41 1.06 1.06 0 0 1-1.22.23 1.13 1.13 0 0 1-.34-.2 1.49 1.49 0 0 1-.37-.94c0-.32-.12-.5-.24-.55a.6.6 0 0 0-.24-.05c-.6.06-1.18.65-1.75 1.78l-1.51 3.6 1.23.52a.77.77 0 0 1 .25.06zM439.9 794.21a3.83 3.83 0 0 1 .56 3.43 4.21 4.21 0 0 1-1.56 2.36 4.2 4.2 0 0 1-5-6.7 4.12 4.12 0 0 1 3.7-.59 4.26 4.26 0 0 1 2.3 1.5zm-5.56 4.47a1.4 1.4 0 0 0 1.1 1.49 1.42 1.42 0 0 0 1.1-.1c.56-.32 1.07-1.33 1.52-3a9.65 9.65 0 0 0 .41-2.38 1.54 1.54 0 0 0-2.27-1.39c-.52.35-1 1.34-1.43 3a10.6 10.6 0 0 0-.43 2.38zM445.39 802q.23.07.18.48l-4.21-.52.06-.46h.27a.82.82 0 0 0 .89-.82l.72-5.85-1-.13.05-.47 3.2.4-.08 1.41a2.5 2.5 0 0 1 .51-.58 2.89 2.89 0 0 1 2.35-.77 3 3 0 0 1 .88.26c1 .5 1.42 1.49 1.24 3l-.57 4.59.59.08a.78.78 0 0 1 .22 0q.23.06.18.48l-4.15-.51.06-.47a1.54 1.54 0 0 0 .43 0c.28 0 .45-.33.51-.83l.49-4a4.1 4.1 0 0 0 0-.49c0-.82-.37-1.27-1.06-1.35a1.21 1.21 0 0 0-.53.06 2.12 2.12 0 0 0-1.27 1.74l-.59 4.6h.45zM457.17 801.71a2.47 2.47 0 0 1-2.51 1.63 3 3 0 0 1-.92-.14 1.94 1.94 0 0 1-1.4-2.07q0-2.37 4.69-2.42v-1.18a4.7 4.7 0 0 0-.07-.9c-.11-.69-.46-1-1-1a.93.93 0 0 0-.45.08 1.49 1.49 0 0 0-.52.9c-.05.17-.08.29-.11.37a1.1 1.1 0 0 1-1.4.69.83.83 0 0 1-.66-.89 1.09 1.09 0 0 1 .17-.58c.42-.71 1.46-1.06 3.1-1a4.82 4.82 0 0 1 1.17.13 2.58 2.58 0 0 1 2.08 2.8v3.78c0 .58.13.89.39.91s.57-.43.65-1.26h.47a5.26 5.26 0 0 1-.17.92 1.52 1.52 0 0 1-1.66 1 1.9 1.9 0 0 1-1.85-1.77zm-1.27.8A2.06 2.06 0 0 0 457 801v-1.76a5.64 5.64 0 0 0-1.33.19 1.47 1.47 0 0 0-1 1.55c0 1 .3 1.59.91 1.62a.88.88 0 0 0 .32-.09zM539.68 655.5h1.54v355.46h-1.54z"/><path d="M289.18 971.672L483.039 644.4l1.325.785-193.857 327.273zM101.401 786.206l327.26-190.623.776 1.33-327.26 190.624z"/></g></svg>