<?xml version="1.0" encoding="utf-8"?>
<!-- Generator: Adobe Illustrator 22.0.1, SVG Export Plug-In . SVG Version: 6.00 Build 0)  -->
<svg version="1.1" id="Layer_1" xmlns="http://www.w3.org/2000/svg" xmlns:xlink="http://www.w3.org/1999/xlink" x="0px" y="0px"
	 viewBox="0 0 569.5 922.7" style="enable-background:new 0 0 569.5 922.7;" xml:space="preserve">
<style type="text/css">
	.st0{opacity:0.15;}
	.st1{fill:#757575;}
	.st2{opacity:0.3;fill:#333333;enable-background:new    ;}
</style>
<title>astrology-demo</title>
<g class="st0">
	<polygon class="st1" points="-1.7,998.3 -0.1,1002.3 4.1,1001.1 1.9,1004.9 5.6,1007.4 1.3,1008.1 1.5,1012.4 -1.7,1009.4 
		-4.9,1012.4 -4.6,1008.1 -8.9,1007.4 -5.3,1004.9 -7.4,1001.1 -3.3,1002.3 	"/>
	<polygon class="st1" points="134.6,725 136.2,729.2 140.5,727.8 138.2,731.6 141.9,734.1 137.6,734.8 137.8,739.1 134.6,736.2 
		131.4,739.1 131.8,734.8 127.4,734.1 131,731.6 128.9,727.8 133,729.2 	"/>
	<polygon class="st1" points="284.3,670.4 285.9,674.6 290.1,673.2 287.9,677.1 291.5,679.5 287.1,680.2 287.5,684.6 284.3,681.7 
		281.1,684.6 281.4,680.2 277.1,679.5 280.7,677.1 278.6,673.2 282.7,674.6 	"/>
	<polygon class="st1" points="182.8,770.6 184.4,774.6 188.6,773.4 186.4,777.1 190.1,779.5 185.6,780.2 186,784.6 182.8,781.7 
		179.6,784.6 179.9,780.2 175.6,779.5 179.2,777.1 176.9,773.4 181.2,774.6 	"/>
	<polygon class="st1" points="75.7,391.4 77.9,396.9 83.5,395.1 80.5,400.2 85.4,403.6 79.6,404.4 80,410.3 75.7,406.3 71.3,410.3 
		71.8,404.4 65.9,403.6 70.9,400.2 67.9,395.1 73.6,396.9 	"/>
	<polygon class="st1" points="150.4,398.5 152.6,404 158.2,402.2 155.4,407.3 160.2,410.7 154.3,411.5 154.7,417.4 150.4,413.4 
		146.1,417.4 146.5,411.5 140.6,410.7 145.6,407.3 142.7,402.2 148.3,404 	"/>
	<polygon class="st1" points="223.3,244.8 225.4,250.3 231,248.5 228.1,253.6 232.9,257 227.1,257.8 227.5,263.7 223.3,259.7 
		218.8,263.7 219.4,257.8 213.5,257 218.3,253.6 215.4,248.5 221.1,250.3 	"/>
	<polygon class="st1" points="329,468.4 331.2,473.9 336.8,472.1 333.8,477.4 338.8,480.7 332.9,481.5 333.3,487.4 329,483.4 
		324.7,487.4 325.1,481.5 319.3,480.7 324.2,477.4 321.3,472.1 326.9,473.9 	"/>
	<polygon class="st1" points="5.3,-50.6 7.4,-45.1 13.1,-46.8 10.1,-41.7 14.9,-38.4 9.2,-37.6 9.6,-31.7 5.3,-35.7 0.9,-31.7 
		1.3,-37.6 -4.5,-38.4 0.3,-41.7 -2.6,-46.8 3,-45.1 	"/>
	<polygon class="st1" points="178.5,-25.4 180.7,-19.9 186.3,-21.6 183.4,-16.6 188.3,-13.2 182.4,-12.3 182.8,-6.4 178.5,-10.4 
		174.3,-6.4 174.7,-12.3 168.8,-13.2 173.7,-16.6 170.8,-21.6 176.4,-19.9 	"/>
	<polygon class="st1" points="255.9,-3.4 258.1,2.1 263.7,0.3 260.7,5.5 265.7,8.8 259.8,9.7 260.2,15.6 255.9,11.6 251.6,15.6 
		252,9.7 246.2,8.8 251.1,5.5 248.2,0.3 253.8,2.1 	"/>
	<polygon class="st1" points="299.4,108.9 301.6,114.4 307.2,112.6 304.3,117.7 309.2,121.1 303.3,122 303.7,127.9 299.4,123.9 
		295.2,127.9 295.6,122 289.7,121.1 294.6,117.7 291.7,112.6 297.3,114.4 	"/>
	<polygon class="st1" points="484.9,307.7 487,313.2 492.6,311.5 489.7,316.7 494.5,319.9 488.8,320.8 489.2,326.7 484.9,322.7 
		480.4,326.7 481,320.8 475.1,319.9 480,316.7 477.1,311.5 482.7,313.2 	"/>
	<polygon class="st1" points="185,-2.8 186.8,1.9 191.5,0.5 189.1,4.7 193.1,7.5 188.3,8.2 188.6,13.2 185,9.8 181.4,13.2 
		181.8,8.2 176.8,7.5 180.9,4.7 178.4,0.5 183.2,1.9 	"/>
	<polygon class="st1" points="81.5,101.3 83.3,106 88,104.5 85.6,108.8 89.6,111.6 84.7,112.4 85.1,117.3 81.5,113.9 77.9,117.3 
		78.3,112.4 73.3,111.6 77.3,108.8 74.9,104.5 79.6,106 	"/>
	<polygon class="st1" points="23.2,187.5 25,192 29.8,190.6 27.2,194.9 31.4,197.7 26.4,198.5 26.8,203.4 23.2,199.9 19.6,203.4 
		19.9,198.5 15.1,197.7 19.1,194.9 16.7,190.6 21.4,192 	"/>
	<polygon class="st1" points="110.7,211.2 112.5,215.7 117.2,214.3 114.8,218.6 118.8,221.4 114,222.2 114.3,227.1 110.7,223.8 
		107,227.1 107.4,222.2 102.5,221.4 106.6,218.6 104.1,214.3 108.9,215.7 	"/>
	<polygon class="st1" points="71.7,295 73.2,298.7 76.9,297.5 74.9,300.9 78.3,303.2 74.2,303.8 74.6,307.7 71.7,305 68.8,307.7 
		69,303.8 65.1,303.2 68.4,300.9 66.3,297.5 70.2,298.7 	"/>
	<polygon class="st1" points="29.7,310.8 31.1,314.4 34.9,313.3 32.9,316.7 36.2,319 32.2,319.6 32.5,323.5 29.7,320.8 26.7,323.5 
		27,319.6 23.1,319 26.3,316.7 24.3,313.3 28.2,314.4 	"/>
	<polygon class="st1" points="56.4,4.1 58,8.4 62.6,7 60.2,11 64.1,13.7 59.5,14.4 59.8,19.1 56.4,15.8 53,19.1 53.4,14.4 
		48.7,13.7 52.6,11 50.3,7 54.7,8.4 	"/>
	<polygon class="st1" points="107,1018.2 109.2,1023.7 114.8,1022 111.9,1027.1 116.7,1030.4 110.9,1031.2 111.3,1037.1 107,1033.2 
		102.6,1037.1 103,1031.2 97.3,1030.4 102.1,1027.1 99.1,1022 104.8,1023.7 	"/>
	<polygon class="st1" points="363.3,918.5 365.4,924 371.2,922.3 368.3,927.3 373.1,930.7 367.2,931.5 367.7,937.4 363.3,933.4 
		359,937.4 359.4,931.5 353.7,930.7 358.5,927.3 355.5,922.3 361.2,924 	"/>
	<polygon class="st1" points="140.6,531.6 142.9,537.1 148.5,535.3 145.6,540.4 150.4,543.8 144.7,544.7 145.1,550.6 140.6,546.6 
		136.4,550.6 136.8,544.7 131,543.8 135.8,540.4 132.9,535.3 138.5,537.1 	"/>
	<polygon class="st1" points="65.4,773 67.5,778.5 73.3,776.7 70.4,781.8 75.2,785.2 69.3,786.1 69.8,792 65.4,788 61.1,792 
		61.5,786.1 55.8,785.2 60.6,781.8 57.6,776.7 63.3,778.5 	"/>
	<polygon class="st1" points="45.7,544 46.5,548.4 50.5,550.3 46.5,552.5 46,556.9 42.8,553.8 38.4,554.6 40.4,550.6 38.2,546.7 
		42.6,547.2 	"/>
	<polygon class="st1" points="19.5,472.7 20.3,477.2 24.3,479.1 20.3,481.1 19.8,485.7 16.5,482.4 12.1,483.4 14.1,479.4 12,475.3 
		16.4,476 	"/>
	<polygon class="st1" points="44.7,-82.8 47.9,-79.6 52.3,-80.4 50.3,-76.4 52.3,-72.4 47.9,-73.2 44.8,-70 44.1,-74.4 40.1,-76.4 
		44.1,-78.4 	"/>
	<polygon class="st1" points="103,-12.9 106.2,-9.7 110.7,-10.5 108.5,-6.5 110.7,-2.5 106.2,-3.2 103.2,0.1 102.5,-4.5 98.3,-6.4 
		102.4,-8.4 	"/>
	<polygon class="st1" points="236.6,-6.4 236.6,-2 240.3,0.6 236,2.1 234.8,6.3 232.1,2.7 227.5,2.7 230.2,-0.9 228.7,-5.2 
		233,-3.7 	"/>
	<polygon class="st1" points="60.5,115.3 60.3,119.7 64.1,122.4 59.8,123.8 58.4,128 55.8,124.4 51.3,124.4 54,120.8 52.6,116.5 
		56.8,118 	"/>
	<polygon class="st1" points="65.8,146.7 68.5,150.3 72.9,150.1 70.4,153.9 71.8,158 67.5,156.7 64.1,159.5 63.9,155 60.3,152.4 
		64.6,151.1 	"/>
	<polygon class="st1" points="105.3,314.5 108,318.2 112.5,318 109.9,321.8 111.5,325.9 107.2,324.6 103.6,327.4 103.6,322.8 
		99.8,320.3 104.1,319 	"/>
	<polygon class="st1" points="57.9,377.7 60.6,381.4 65.1,381.2 62.5,385 63.9,389.1 59.6,387.8 56.2,390.6 56.2,386 52.4,383.5 
		56.7,382.2 	"/>
	<polygon class="st1" points="89.9,368.9 89.5,373.3 93,376.3 88.6,377.2 86.8,381.4 84.6,377.5 80.1,377.2 83.1,373.9 82,369.4 
		86.2,371.3 	"/>
	<polygon class="st1" points="185,-41.5 187,-37.4 191.4,-36.8 188.3,-33.7 189,-29.3 185.1,-31.3 181.1,-29.1 181.8,-33.6 
		178.5,-36.6 183,-37.4 	"/>
	<polygon class="st1" points="272.9,4.6 276.4,7.5 280.7,6.3 279,10.5 281.4,14.2 276.9,14 274,17.5 273.1,13 268.8,11.3 272.7,9 	
		"/>
	<polygon class="st1" points="220.6,83.7 223.9,86.7 228.3,85.6 226.6,89.8 229,93.5 224.5,93.1 221.6,96.6 220.7,92.3 216.4,90.6 
		220.3,88.3 	"/>
	<polygon class="st1" points="170.1,79.6 173.5,82.5 177.9,81.5 176.1,85.6 178.5,89.4 174,89 171.2,92.4 170.1,88 166,86.4 
		169.8,84.1 	"/>
	<polygon class="st1" points="106.8,58.6 110.1,61.5 114.5,60.4 112.8,64.6 115.2,68.3 110.7,67.9 107.8,71.4 106.8,67 102.6,65.4 
		106.5,63.1 	"/>
	<polygon class="st1" points="92,261 94.2,265 98.7,265.4 95.7,268.8 96.6,273.2 92.5,271.2 88.6,273.4 89.2,269 85.9,265.9 
		90.3,265.1 	"/>
	<polygon class="st1" points="109.5,279.2 113.2,281.7 117.4,280 116.1,284.4 119,287.9 114.5,288 112.1,291.8 110.5,287.6 
		106.1,286.4 109.7,283.8 	"/>
	<polygon class="st1" points="149,270.4 152.7,272.9 156.8,271.3 155.6,275.6 158.6,279.1 154,279.2 151.6,283.1 150,278.8 
		145.7,277.7 149.2,274.9 	"/>
	<polygon class="st1" points="188.4,232.3 192.7,233.7 196.3,230.9 196.3,235.3 200.1,237.8 195.8,239.3 194.6,243.7 191.9,240.1 
		187.5,240.2 190.1,236.5 	"/>
	<polygon class="st1" points="185.2,193.6 189.5,194.9 193,192 193.1,196.6 196.9,199.1 192.6,200.6 191.4,204.9 188.7,201.3 
		184.2,201.5 186.8,197.8 	"/>
	<polygon class="st1" points="338.7,285.5 340.8,289.5 345.2,289.9 342.1,293.3 343.1,297.7 339.1,295.7 335.2,297.9 335.7,293.5 
		332.4,290.4 336.8,289.6 	"/>
	<polygon class="st1" points="452.2,237.4 454.3,241.4 458.9,241.8 455.8,245.2 456.8,249.6 452.6,247.6 448.7,249.9 449.4,245.3 
		446,242.4 450.5,241.6 	"/>
	<polygon class="st1" points="463.7,214.4 465.9,218.4 470.4,218.8 467.3,222.2 468.3,226.6 464.1,224.6 460.2,226.9 460.9,222.4 
		457.6,219.4 462,218.6 	"/>
	<polygon class="st1" points="261.3,242.5 263.4,246.5 268,246.9 264.9,250.3 265.8,254.7 261.7,252.7 257.8,255 258.5,250.5 
		255,247.5 259.5,246.7 	"/>
	<polygon class="st1" points="292.1,398.2 291.1,401.6 293.4,404.4 289.8,404.4 287.9,407.3 286.7,404 283.4,403.2 286,401 
		285.9,397.4 288.9,399.4 	"/>
	<polygon class="st1" points="359.4,425 356.9,427.4 357.5,430.9 354.5,429.3 351.3,431 351.8,427.5 349.2,425.1 352.7,424.6 
		354.3,421.4 355.9,424.5 	"/>
	<polygon class="st1" points="347.5,484.4 345,486.9 345.6,490.3 342.5,488.7 339.3,490.5 340,487 337.5,484.4 340.9,483.9 
		342.4,480.8 344,483.9 	"/>
	<polygon class="st1" points="321.1,467.2 318.6,469.7 319.1,473.2 316,471.6 313,473.2 313.5,469.7 311,467.3 314.4,466.8 
		316,463.6 317.5,466.8 	"/>
	<polygon class="st1" points="389.5,375.7 387,378.1 387.7,381.6 384.6,380 381.4,381.6 381.9,378.1 379.4,375.7 383,375.2 
		384.5,372 386.1,375.2 	"/>
	<polygon class="st1" points="476.2,358.3 473.6,360.7 474.3,364.4 471.1,362.6 468,364.4 468.7,360.9 466,358.5 469.6,357.9 
		471.1,354.7 472.7,357.8 	"/>
	<polygon class="st1" points="192.9,419.8 191.8,423.1 194.1,425.9 190.6,426.1 188.6,429 187.4,425.7 184,424.7 186.8,422.6 
		186.6,419.1 189.5,421 	"/>
	<polygon class="st1" points="187.8,406.1 186.4,410.7 189.5,414.4 184.7,414.6 182.2,418.6 180.5,414 175.9,412.8 179.6,409.9 
		179.5,405.1 183.4,407.9 	"/>
	<polygon class="st1" points="272.8,287.2 271.5,291.5 274.3,295 269.8,295.1 267.3,299 265.8,294.7 261.5,293.5 265,290.8 
		264.9,286.3 268.5,288.8 	"/>
	<polygon class="st1" points="491.2,207 493.3,211.1 497.7,211.6 494.6,214.8 495.4,219.2 491.4,217.2 487.4,219.4 488.1,214.9 
		484.9,211.9 489.3,211.1 	"/>
	<polygon class="st1" points="506.3,316.2 508.3,320.2 512.7,320.7 509.6,323.9 510.4,328.3 506.4,326.3 502.4,328.5 503.1,324.1 
		499.9,321 504.3,320.2 	"/>
	<polygon class="st1" points="448.5,172.9 450.6,176.9 455,177.3 451.9,180.5 452.9,184.9 448.9,183.1 445,185.3 445.5,180.8 
		442.2,177.9 446.6,177 	"/>
	<polygon class="st1" points="96.2,98.3 99.7,101.4 104,100.2 102.2,104.3 104.6,108.2 100.2,107.8 97.3,111.3 96.3,106.9 92,105.3 
		95.9,102.9 	"/>
	<polygon class="st1" points="155.1,83.7 158.5,86.7 162.7,85.6 161,89.8 163.4,93.5 159,93.1 156,96.6 155.1,92.3 151,90.6 
		154.7,88.3 	"/>
	<polygon class="st1" points="322.9,4.1 326.2,7 330.6,5.9 328.9,10 331.3,13.8 326.7,13.4 323.9,16.9 322.9,12.5 318.7,10.9 
		322.6,8.6 	"/>
	<polygon class="st1" points="343.5,-13.1 344.2,-8.5 348.2,-6.5 344,-4.5 343.4,-0.1 340.3,-3.4 335.7,-2.6 338,-6.6 335.9,-10.7 
		340.3,-9.9 	"/>
	<polygon class="st1" points="406.5,4.2 407.1,8.8 411.1,10.8 407.1,12.6 406.3,17.2 403.2,13.8 398.8,14.5 400.9,10.6 398.9,6.6 
		403.3,7.4 	"/>
	<polygon class="st1" points="458.9,63 459.4,67.5 463.4,69.5 459.4,71.5 458.8,76 455.5,72.6 451.1,73.4 453.3,69.4 451.3,65.4 
		455.7,66.2 	"/>
	<polygon class="st1" points="428.6,85.5 429.2,89.9 433.2,92 429.2,93.9 428.4,98.3 425.3,95.1 420.9,95.8 423,91.9 421,87.9 
		425.4,88.7 	"/>
	<polygon class="st1" points="359.8,97 358.9,101.4 362,104.6 357.5,105.2 355.4,109.2 353.5,105 349.1,104.2 352.5,101.3 
		351.8,96.7 355.7,99 	"/>
	<polygon class="st1" points="456.2,96.6 458.6,100.5 463.2,100.5 460.2,104.1 461.6,108.4 457.4,106.8 453.7,109.3 453.9,104.7 
		450.3,102.1 454.6,100.9 	"/>
	<polygon class="st1" points="21.4,784.2 22,788.6 26.2,790.5 22.2,792.6 21.6,797.1 18.4,794 14,794.8 16,790.8 13.7,786.9 
		18.3,787.4 	"/>
	<polygon class="st1" points="91,841.5 91.6,846.1 95.8,847.9 91.8,850.1 91.2,854.5 88,851.3 83.6,852.2 85.6,848.2 83.5,844.2 
		87.9,844.9 	"/>
	<polygon class="st1" points="230.2,756 231,760.4 235,762.3 231,764.4 230.5,768.8 227.3,765.7 222.9,766.5 224.9,762.5 
		222.7,758.6 227.1,759.2 	"/>
	<polygon class="st1" points="319.1,869.4 319.8,873.8 323.9,875.7 319.9,877.8 319.4,882.2 316.2,879.1 311.8,879.9 313.8,875.9 
		311.6,871.9 316,872.6 	"/>
	<polygon class="st1" points="149.2,697.5 150,701.9 154,703.8 150,705.9 149.5,710.3 146.3,707.1 141.9,708 143.9,704 141.7,700 
		146.1,700.7 	"/>
	<polygon class="st1" points="3.4,536.7 4.2,541.1 8.2,543.1 4.2,545.1 3.7,549.5 0.5,546.4 -3.9,547.2 -1.9,543.2 -4.1,539.3 
		0.3,540 	"/>
	<polygon class="st1" points="195.4,549.9 196.2,554.3 200.2,556.2 196.2,558.4 195.7,562.8 192.5,559.6 188,560.5 190.1,556.5 
		187.9,552.5 192.3,553.1 	"/>
	<polygon class="st1" points="165.4,517.9 166.2,522.3 170.2,524.2 166.2,526.4 165.7,530.8 162.5,527.7 158.1,528.5 160.1,524.5 
		157.9,520.5 162.3,521.1 	"/>
	<polygon class="st1" points="206.7,591.3 207.5,595.7 211.6,597.6 207.6,599.7 207.1,604.1 203.7,601.1 199.3,601.9 201.3,597.8 
		199.2,593.8 203.6,594.5 	"/>
	<polygon class="st1" points="282.4,720.6 283.1,725.2 287.3,727 283.2,729.1 282.7,733.6 279.5,730.4 275.1,731.3 277.1,727.3 
		274.8,723.3 279.4,724 	"/>
	<polygon class="st1" points="411.9,733.9 412.7,738.3 416.7,740.2 412.7,742.3 412.2,746.7 409,743.6 404.5,744.5 406.5,740.4 
		404.4,736.4 408.8,737.1 	"/>
	<polygon class="st1" points="317.2,731.1 317.9,735.5 322.1,737.4 318,739.5 317.5,743.9 314.3,740.7 309.9,741.6 311.9,737.6 
		309.6,733.6 314.2,734.3 	"/>
	<polygon class="st1" points="374.7,677.8 375.3,682.2 379.5,684.2 375.5,686.2 374.9,690.8 371.7,687.6 367.3,688.4 369.3,684.3 
		367.2,680.5 371.6,681.1 	"/>
	<polygon class="st1" points="289.4,568.1 290.2,572.7 294.3,574.6 290.3,576.6 289.8,581.1 286.6,577.9 282,578.8 284,574.7 
		281.9,570.8 286.3,571.5 	"/>
	<polygon class="st1" points="445.1,519.3 445.9,523.7 450.1,525.7 446,527.7 445.5,532.2 442.3,529 437.9,529.8 439.9,525.8 
		437.6,521.9 442.2,522.6 	"/>
	<polygon class="st1" points="383,505.9 383.8,510.4 387.8,512.3 383.8,514.3 383.2,518.9 380,515.6 375.6,516.6 377.6,512.4 
		375.5,508.5 379.9,509.2 	"/>
	<polygon class="st1" points="460.2,534.4 461,538.8 465.1,540.7 461,542.8 460.5,547.2 457.3,544.2 452.9,545 454.9,540.9 
		452.7,536.9 457.2,537.6 	"/>
	<polygon class="st1" points="38.9,998 40.8,1002 45.3,1002.7 42.1,1005.8 42.8,1010.2 38.9,1008.2 34.9,1010.2 35.5,1005.8 
		32.3,1002.7 36.9,1002 	"/>
	<polygon class="st1" points="138.6,960.4 140.6,964.4 145.1,965.1 141.9,968.2 142.5,972.6 138.6,970.6 134.6,972.6 135.3,968.2 
		132.1,965.1 136.6,964.4 	"/>
	<polygon class="st1" points="321.8,859.7 317.9,861.9 315.8,865.9 313.6,861.9 309.6,859.7 313.6,857.6 315.8,853.7 317.9,857.6 	
		"/>
	<polygon class="st1" points="295.6,841.4 291.7,843.5 289.5,847.4 287.4,843.5 283.4,841.4 287.4,839.2 289.5,835.2 291.7,839.2 	
		"/>
	<polygon class="st1" points="287.3,785.6 283.4,787.7 281.2,791.7 279,787.7 275.1,785.6 279,783.4 281.2,779.5 283.4,783.4 	"/>
	<polygon class="st1" points="296,774.6 292.1,776.7 289.9,780.6 287.8,776.7 283.8,774.6 287.8,772.4 289.9,768.4 292.1,772.4 	"/>
	<polygon class="st1" points="217.2,837.6 214.4,841.1 214,845.5 210.4,842.9 206,842.5 208.8,838.8 209.2,834.4 212.7,837.1 	"/>
	<polygon class="st1" points="174.4,856.8 171.4,860.1 170.8,864.7 167.4,861.6 163,860.9 166,857.6 166.6,853.2 170,856.1 	"/>
	<polygon class="st1" points="344,780.3 341.1,783.7 340.4,788.1 336.9,785.2 332.5,784.5 335.6,781.1 336.3,776.6 339.6,779.7 	"/>
	<polygon class="st1" points="383.8,771.6 380.8,775 380.2,779.4 376.8,776.4 372.4,775.8 375.3,772.4 376,768 379.4,771 	"/>
	<polygon class="st1" points="464.9,701.6 462,705 461.2,709.4 457.8,706.4 453.4,705.8 456.5,702.3 457.2,697.9 460.5,700.9 	"/>
	<polygon class="st1" points="517,611.8 514.1,615.1 513.3,619.5 509.9,616.6 505.5,615.8 508.4,612.4 509.2,608 512.6,611.1 	"/>
	<polygon class="st1" points="504.5,599.7 501.6,603.1 500.9,607.5 497.5,604.5 493,603.9 496.1,600.5 496.8,596.1 500.1,599.1 	"/>
	<polygon class="st1" points="423.8,720.1 422.6,724 423.5,727.8 419.8,726.6 415.9,727.6 417.1,723.8 416.1,720 419.9,721.2 	"/>
	<polygon class="st1" points="306.3,766.7 305.1,770.4 306.1,774.4 302.2,773.1 298.4,774.2 299.6,770.3 298.5,766.4 302.4,767.7 	
		"/>
	<polygon class="st1" points="418.2,642.3 417,646 418.1,649.9 414.2,648.7 410.3,649.8 411.5,645.9 410.6,642 414.3,643.2 	"/>
	<polygon class="st1" points="424.8,593.4 423.4,597.2 424.5,601.1 420.7,599.9 416.7,600.9 418.1,597 417,593.2 420.9,594.4 	"/>
	<polygon class="st1" points="245.2,448.2 244,451.9 245.1,455.8 241.2,454.6 237.3,455.7 238.5,451.8 237.6,447.9 241.3,449.1 	"/>
	<polygon class="st1" points="282.3,457.8 281,461.7 282,465.6 278.3,464.4 274.3,465.4 275.6,461.6 274.5,457.7 278.4,458.9 	"/>
	<polygon class="st1" points="195.5,488.6 194.2,492.3 195.3,496.4 191.4,495 187.5,496.1 188.7,492.2 187.8,488.3 191.5,489.5 	"/>
	<polygon class="st1" points="54.6,408 53.2,411.9 54.3,415.8 50.5,414.6 46.5,415.5 47.9,411.7 46.8,407.9 50.7,409.1 	"/>
	<polygon class="st1" points="333,634.8 331.7,638.7 332.8,642.6 328.9,641.4 325,642.4 326.3,638.5 325.3,634.7 329.2,635.9 	"/>
	<polygon class="st1" points="318.9,550.7 317.6,554.6 318.7,558.5 314.8,557.3 311,558.2 312.2,554.5 311.1,550.6 315,551.8 	"/>
	<polygon class="st1" points="297,555 296.1,557.8 296.8,560.8 293.9,559.8 291.1,560.5 292.1,557.7 291.3,554.9 294.1,555.8 	"/>
	<polygon class="st1" points="300.5,564.1 299.6,566.9 300.4,569.9 297.6,568.9 294.8,569.7 295.6,566.9 294.9,564 297.7,564.9 	"/>
	<polygon class="st1" points="287.9,560.1 287,562.9 287.7,565.7 284.8,564.9 282,565.6 283,562.8 282.2,560 285,560.9 	"/>
	<polygon class="st1" points="211.9,642.3 210.7,646.2 211.7,650.1 207.9,648.9 204,649.8 205.2,646 204.2,642.2 208,643.4 	"/>
	<polygon class="st1" points="36.4,744.2 35.1,748.1 36.1,751.9 32.3,750.7 28.5,751.7 29.7,747.8 28.6,743.9 32.5,745.3 	"/>
	<polygon class="st1" points="52,208 54.2,211.3 57.9,213.1 54.4,215.2 52.8,218.8 50.5,215.5 46.9,213.9 50.3,211.6 	"/>
	<polygon class="st1" points="46.5,203.2 46.5,207.3 48.5,210.7 44.5,210.7 41.2,212.7 41.2,208.6 39,205.3 43,205.3 	"/>
	<polygon class="st1" points="12.9,204.9 12.9,208.9 15.1,212.4 11,212.3 7.6,214.4 7.7,210.4 5.6,206.9 9.6,207 	"/>
	<polygon class="st1" points="39.8,195.4 39.8,199.4 41.8,202.9 37.8,202.8 34.5,204.9 34.5,200.9 32.3,197.4 36.5,197.5 	"/>
	<polygon class="st1" points="136.1,-74.9 136.4,-70.9 138.9,-67.7 134.9,-67.4 131.7,-64.9 131.3,-68.9 128.9,-72.1 132.9,-72.5 	
		"/>
	<polygon class="st1" points="128.6,-63.7 128.9,-59.7 131.3,-56.4 127.3,-56 124,-53.6 123.8,-57.7 121.4,-60.9 125.4,-61.1 	"/>
	<polygon class="st1" points="187.2,-57.4 187.5,-53.4 189.9,-50.2 185.9,-49.8 182.8,-47.3 182.4,-51.4 180,-54.6 184,-54.8 	"/>
	<polygon class="st1" points="199.8,10.8 199.6,14.8 201.4,18.3 197.4,18 193.9,19.9 194.2,15.8 192.3,12.4 196.3,12.6 	"/>
	<polygon class="st1" points="86.4,163.4 84,166.6 83.6,170.6 80.4,168.1 76.5,167.8 78.9,164.6 79.3,160.6 82.4,163 	"/>
	<polygon class="st1" points="426.4,80.1 422.9,82.4 421.3,86 419.1,82.7 415.4,80.9 418.7,78.8 420.5,75.2 422.6,78.5 	"/>
	<polygon class="st1" points="184,197.1 180.5,199.3 178.9,203 176.8,199.7 173,197.9 176.5,195.8 178.1,192 180.3,195.5 	"/>
	<polygon class="st1" points="350.7,226.5 347,227.9 344.7,231.3 343.1,227.5 339.9,225.2 343.6,223.6 345.9,220.4 347.4,224 	"/>
	<polygon class="st1" points="306.1,260.3 304.7,264.1 305.3,268 301.6,266.5 297.7,267.2 299.2,263.4 298.5,259.4 302.2,261 	"/>
	<polygon class="st1" points="301.8,273.3 300.4,277.1 301,280.9 297.3,279.5 293.4,280.1 294.9,276.4 294.2,272.5 298,274 	"/>
	<polygon class="st1" points="496.8,193.2 493.2,195.1 491,198.5 489.3,194.9 485.8,192.8 489.4,191 491.6,187.6 493.3,191.2 	"/>
	<polygon class="st1" points="283.5,249.1 279.9,250.8 277.7,254.2 276,250.5 272.5,248.5 276.1,246.8 278.3,243.3 280,246.9 	"/>
	<polygon class="st1" points="294.3,260.7 292.3,264.3 292.6,268.4 289.1,266.3 285.1,266.6 287,263.1 286.7,259.1 290.3,261 	"/>
	<polygon class="st1" points="363.2,-25.8 362.6,-21.8 364.5,-18.2 360.5,-18.7 356.9,-17 357.3,-21 355.5,-24.6 359.6,-24 	"/>
	<polygon class="st1" points="49.9,395.4 46.5,397.7 44.9,401.4 42.6,398.1 38.9,396.6 42.2,394.2 43.9,390.6 46.1,393.9 	"/>
	<polygon class="st1" points="284.4,389.3 281.9,392.5 281.5,396.4 278.3,393.9 274.3,393.4 276.8,390.3 277.3,386.3 280.4,388.9 	
		"/>
	<polygon class="st1" points="337.5,367.3 334.9,370.4 334.5,374.4 331.3,371.8 327.3,371.4 329.8,368.4 330.2,364.4 333.4,366.9 	
		"/>
	<polygon class="st1" points="498.4,345.5 498.9,341.2 501.6,338 497.6,337.6 494.4,335 493.8,339.2 491.3,342.5 495.3,342.9 	"/>
	<polygon class="st1" points="472.4,350.7 473,346.5 475.5,343.2 471.5,342.8 468.4,340.3 467.9,344.4 465.3,347.8 469.3,348.2 	"/>
	<polygon class="st1" points="466,325.3 463.6,328.3 463,332.4 460,329.8 455.9,329.4 458.5,326.3 458.9,322.3 462.1,324.9 	"/>
	<polygon class="st1" points="468.9,266.2 466.4,269.4 466,273.3 462.9,270.9 458.9,270.4 461.4,267.3 461.8,263.3 464.9,265.8 	"/>
	<polygon class="st1" points="419.4,219.9 416.9,223.1 416.5,227.1 413.4,224.6 409.4,224.2 411.9,221 412.3,216.9 415.4,219.5 	"/>
	<polygon class="st1" points="172.1,419.8 169,422.3 167.8,426.2 165.2,423.1 161.4,421.9 164.5,419.2 165.7,415.5 168.2,418.6 	"/>
	<polygon class="st1" points="171.8,410 167.8,410.4 164.6,413 164.2,408.9 161.7,405.9 165.7,405.3 168.8,402.9 169.3,406.9 	"/>
	<polygon class="st1" points="24.8,773.2 23.6,777.1 24.6,780.9 20.8,779.7 16.9,780.7 18.1,776.9 17.1,773 21,774.2 	"/>
	<polygon class="st1" points="34.5,794.4 33.3,798.3 34.3,802.2 30.5,801 26.6,801.9 27.8,798.1 26.7,794.3 30.6,795.5 	"/>
	<polygon class="st1" points="28.1,822.1 26.8,825.9 27.8,829.7 24,828.5 20.2,829.6 21.4,825.7 20.3,821.8 24.2,823 	"/>
	<polygon class="st1" points="164.1,724 162.7,727.8 163.8,731.7 159.9,730.5 156,731.6 157.4,727.7 156.3,723.8 160.2,725 	"/>
	<polygon class="st1" points="140.4,870.2 137.3,873.5 136.6,877.9 133.3,875 128.9,874.3 131.8,871 132.6,866.6 136,869.5 	"/>
	<polygon class="st1" points="50.9,908.5 48,911.8 47.2,916.2 43.9,913.3 39.4,912.6 42.5,909.1 43.2,904.7 46.5,907.8 	"/>
	<polygon class="st1" points="25.4,916 22.4,919.3 21.6,923.7 18.3,920.8 13.9,920.1 16.8,916.8 17.6,912.3 21,915.3 	"/>
</g>
<path class="st2" d="M24.2,614.8c4.7,0,8.6-3.8,8.6-8.6c0-2.6-1.1-5-3.1-6.6h28.1l4.6,5.3l1.5-1.3l-5.1-6H23.3v0.1
	c-4.7,0.5-8.1,4.8-7.6,9.5C16.1,611.5,19.9,614.8,24.2,614.8L24.2,614.8z M24.2,599.5c3.7,0,6.6,2.9,6.6,6.6c0,3.7-2.9,6.6-6.6,6.6
	c-3.7,0-6.6-2.9-6.6-6.6l0,0C17.6,602.5,20.6,599.5,24.2,599.5L24.2,599.5z"/>
<path class="st2" d="M54.9,603.4c-4.7,0-8.6,3.9-8.6,8.6c0,2.6,1.1,5,3.1,6.5H21.3l-4.5-5.3l-1.5,1.3l5.1,6h35.4v-0.1
	c4.7-0.5,8.1-4.8,7.6-9.5C63,606.7,59.2,603.4,54.9,603.4L54.9,603.4z M54.9,618.7c-3.7,0-6.6-2.9-6.6-6.6c0-3.7,2.9-6.6,6.6-6.6
	c3.7,0,6.6,2.9,6.6,6.6l0,0C61.5,615.7,58.5,618.7,54.9,618.7z"/>
<rect x="114.3" y="448.7" class="st2" width="42.9" height="2"/>
<path class="st2" d="M157.3,445h-15.2l1.2-1.6c1.3-1.7,2-3.7,2-5.8c0-5.2-4.2-9.5-9.5-9.5c-5.2,0-9.4,4.2-9.5,9.5
	c0,2.1,0.7,4.1,2,5.8l1.3,1.6h-15.2v-2h11.3c-0.9-1.7-1.4-3.5-1.4-5.4c0-6.3,5.1-11.4,11.4-11.4c6.3,0,11.4,5.1,11.4,11.4
	c0,1.9-0.5,3.8-1.4,5.4h11.3v2H157.3z"/>
<polygon class="st2" points="41.4,333.1 41.4,335 49.5,335 32.3,352.2 28.7,348.6 27.2,350.1 30.8,353.7 25.2,359.3 26.6,360.7 
	32.3,355 36,358.8 37.4,357.4 33.7,353.7 50.8,336.5 50.8,344.5 52.8,344.5 52.8,333.1 "/>
<path class="st2" d="M115.6,582.1v1c0,4.1-3.4,7.5-7.5,7.5s-7.5-3.4-7.5-7.5c0-3,2.8-5.4,5.3-7.5c0.8-0.7,1.6-1.4,2.3-2.2l0.5-0.6
	c0.6-0.6,1.1-1.3,1.5-2c3.6-6,1.7-13.8-4.3-17.4c-6-3.6-13.8-1.7-17.4,4.3c-1.2,2-1.9,4.3-1.9,6.6c0,1.2,0.2,2.3,0.6,3.5
	c-4.5-2-9.8,0.1-11.8,4.6c-2,4.5,0.1,9.8,4.6,11.8c4.5,2,9.8-0.1,11.8-4.6c1.1-2.3,1-5-0.1-7.4l0,0l-0.2-0.3c-0.2-0.4-0.4-0.7-0.6-1
	c-1.3-2.2-2.3-4.2-2.3-6.5c0-5.9,4.8-10.7,10.7-10.7s10.7,4.8,10.7,10.7c0,2-0.5,3.8-1.5,5.5c-0.4,0.6-0.8,1.1-1.3,1.7l-0.6,0.6
	c-0.7,0.8-1.4,1.4-2.2,2c-2.6,2.3-5.9,5.1-5.9,9.1c0,5.3,4.3,9.5,9.5,9.5s9.5-4.3,9.5-9.5v-1L115.6,582.1z M83.6,582.9
	c-3.8,0-6.9-3.1-6.9-6.9c0-3.8,3.1-6.9,6.9-6.9c2.3,0,4.4,1.1,5.6,2.9c0.1,0.2,0.2,0.2,0.2,0.4l0.3,0.5c1.7,3.4,0.4,7.6-3,9.3
	C85.8,582.6,84.8,582.9,83.6,582.9L83.6,582.9z"/>
<path class="st2" d="M119,393.5l-5.7,1.5l1.4,1.4l-0.4,0.4c-1.5,1.5-3.9,1.6-5.6,0.3v-29.7l-0.1-2.9l-0.3-0.3c-3-3-7.7-3.2-11-0.6
	c-2.9-2.3-7-2.4-10-0.2c-2.5-2-6-1.7-8.3,0.5l-0.8,0.8l1.5,1.5l0.8-0.8c1.5-1.5,3.8-1.6,5.5-0.3v32.1h2.1v-31.8c2.3-2,5.8-2,8.1,0
	l0.1,2V397h2.2v-31.8c2.3-2,5.8-2,8.1,0l0.1,2v30.6l0.3,0.3c2.4,2.4,6.4,2.4,8.8,0l0.4-0.4l1.3,1.3L119,393.5z"/>
<path class="st2" d="M152.9,525.6l-0.8,0.8c-1.5,1.5-3.9,1.6-5.6,0.3v-0.5c6.2-7.7,8.4-13.4,6.6-17c-1.5-3-5.2-3.5-6.6-3.5V497
	l-0.1-2.9l-0.3-0.3c-3-3-7.7-3.2-11-0.6c-2.9-2.3-7-2.4-10.1-0.2c-2.5-2-6-1.7-8.3,0.5l-0.8,0.8l1.5,1.5l0.8-0.8
	c1.5-1.5,3.8-1.6,5.5-0.3v32.1h2.1v-31.8c2.3-2,5.8-2,8.1,0l0.1,2v29.7h2.2v-31.8c2.3-2,5.8-2,8.1,0l0.1,2v28.4
	c-1.2,1.3-3.1,2.3-4.7,1.9l-1.1-0.3l-0.6,2l1.1,0.3c0.5,0.2,0.9,0.2,1.4,0.2c1.6-0.1,3-0.6,4.3-1.6c2.4,2.4,6.3,2.3,8.7-0.1l0.8-0.8
	L152.9,525.6z M151.3,510.1c1.5,3.1-1.7,8.6-4.7,12.6v-15C147.7,507.8,150.3,508.1,151.3,510.1z"/>
<path class="st2" d="M172,475.2L172,475.2c-0.3-29.6-8.2-58.6-23-84.1l-0.8-1.3c-15-25.4-36.3-46.5-61.7-61.3l-0.8,1.4
	c25.2,14.6,46.2,35.6,61.1,60.6L90,423.3c-9-15.2-21.7-27.9-36.9-36.9l-0.2,0.1l0.1-0.1c0,0,0,0,0,0l32.7-56.5l0.8-1.4l-1.4-0.8
	c-25.5-14.6-54.4-22.3-83.9-22.4l-0.1,0.2v-0.2h-1.5V372v1.5h0.7h0.8V372v-65.1c29,0.2,58,7.9,83.2,22.2l-32.6,56.5c0,0,0,0,0,0
	c-15.4-8.8-32.7-13.5-50.5-13.6v1.5c17.4,0.2,34.5,4.8,49.7,13.4c0.3,0.2,0.5,0.3,0.8,0.5c14.8,8.9,28.2,21.8,37,36.8
	c0.2,0.4,0.5,0.8,0.7,1.3l0,0c8.7,15.2,13.3,32.4,13.4,49.8c0,0.2,0,0.5,0,0.7c0,0.3,0,0.6,0,0.8h0.1c-0.2,17.5-4.8,34.6-13.4,49.8
	l-0.8,1.4l0.1,0l-0.1,0c-8.9,15-21.4,27.6-36.4,36.3l-1.4,0.8l0,0c-15.2,8.7-32.3,13.3-49.7,13.3c-0.3,0-0.6,0-0.8,0
	c-0.3,0-0.5,0-0.8,0v1.5v67.1h0.1v1.5h1.5c29.7-0.1,59-7.9,84.7-22.8l1.3-0.8l0-0.1l0,0.1c25.6-15.1,46.9-36.5,61.8-62.2l0.8-1.4
	c14.6-25.8,22.3-54.8,22.3-84.5v-0.2C172,476.7,172,475.7,172,475.2z M147.6,562c-14.8,25.4-35.8,46.6-61.1,61.5l-33.5-57.9
	c-0.5,0.2-0.9,0.5-1.3,0.8l33.5,57.9l-0.1,0c-25.5,14.7-54.4,22.5-84,22.6v-67.1c0,0-0.1,0-0.1,0l0.1-0.2v0.2
	c17.7-0.1,35.1-4.7,50.5-13.5l0,0c0.4-0.2,0.9-0.5,1.3-0.7C68,556.6,81,543.8,90,528.7L147.6,562C147.6,561.8,147.6,561.8,147.6,562
	L147.6,562L147.6,562z M170.4,476.9c0,29.4-7.6,58.2-22.1,83.7c0,0,0,0,0,0.1h0c0,0,0,0,0-0.1l-57.6-33.2c0,0,0,0,0,0
	c8.8-15.4,13.5-32.8,13.6-50.5h-0.1c0-0.3,0-0.5,0-0.8c0-0.3,0-0.5,0-0.7c-0.1-17.7-4.7-35.1-13.5-50.5l0,0c0,0,0-0.1,0-0.1
	l56.8-32.8v0c14.7,25.4,22.6,54.1,22.8,83.4h-66.1c-0.1,0.2,0,0.5,0,0.7c0,0.3,0,0.6,0,0.8h66.1L170.4,476.9z"/>
</svg>
