<svg xmlns="http://www.w3.org/2000/svg" viewBox="0 0 1570.73 950.4"><g data-name="Comp 1" fill="#9b8e6e"><path d="M244.09 381.31l4.26 6.16 6.47-3.76-2.16 7.17 6.98 2.72-6.96 2.78 2.23 7.15-6.51-3.71-4.21 6.2-1.16-7.4-7.46.58 5.06-5.52-5.11-5.48 7.47.51 1.1-7.4zM382.79 327.06l4.25 6.15 6.48-3.75-2.16 7.17 6.97 2.72-6.95 2.78 2.22 7.14-6.5-3.7-4.21 6.2-1.16-7.4-7.47.57 5.06-5.51-5.1-5.48 7.47.51 1.1-7.4zM374.93 477.35l3.16 4.57 4.81-2.79-1.6 5.33 5.18 2.02-5.17 2.06 1.65 5.32-4.83-2.76-3.12 4.61-.87-5.5-5.54.43 3.76-4.1-3.8-4.07 5.55.38.82-5.5zM1022.87 791.58l3.16 4.58 4.81-2.79-1.61 5.32 5.19 2.02-5.17 2.07 1.65 5.31-4.83-2.75-3.13 4.6-.86-5.49-5.55.42 3.76-4.1-3.79-4.07 5.55.38.82-5.5zM864.64 628.35l3.16 4.57 4.81-2.79-1.61 5.33 5.19 2.02-5.17 2.06 1.65 5.32-4.83-2.76-3.13 4.61-.86-5.5-5.55.43 3.76-4.1-3.79-4.07 5.55.38.82-5.5zM862.61 367.02l3.16 4.58 4.81-2.79-1.61 5.32 5.19 2.02-5.17 2.07 1.65 5.31-4.84-2.75-3.12 4.6-.86-5.49-5.55.42 3.76-4.1-3.79-4.07 5.55.38.82-5.5zM888.13 381.12l3.17 4.58 4.81-2.79-1.61 5.32 5.19 2.02-5.17 2.07 1.65 5.31-4.83-2.75-3.13 4.6-.86-5.49-5.55.42 3.76-4.1-3.79-4.07 5.55.38.81-5.5zM1112.92 414.35l3.16 4.57 4.81-2.79-1.61 5.33 5.19 2.02-5.17 2.06 1.65 5.32-4.83-2.76-3.13 4.61-.86-5.5-5.55.43 3.76-4.1-3.79-4.07 5.55.38.82-5.5zM1282.33 303.77l3.16 4.58 4.81-2.8-1.61 5.33 5.19 2.02-5.17 2.07 1.65 5.31-4.83-2.75-3.13 4.6-.86-5.5-5.55.43 3.76-4.1-3.79-4.07 5.55.38.82-5.5zM1185.53 456.76l3.16 4.58 4.82-2.79-1.61 5.33 5.18 2.02-5.17 2.06 1.66 5.32-4.84-2.76-3.12 4.61-.87-5.5-5.54.43 3.76-4.1-3.8-4.07 5.55.38.82-5.51zM838.92 502.61l3.16 4.58 4.81-2.79-1.61 5.33 5.19 2.02-5.17 2.06 1.65 5.32-4.83-2.76-3.13 4.61-.86-5.5-5.55.43 3.76-4.1-3.79-4.07 5.55.38.82-5.51zM559.5 409.29l3.16 4.58 4.81-2.8-1.6 5.33 5.18 2.02-5.17 2.07 1.65 5.31-4.83-2.75-3.13 4.6-.86-5.5-5.55.43 3.76-4.1-3.79-4.07 5.55.38.82-5.5zM406.63 727.09l3.17 4.58 4.81-2.79-1.61 5.32 5.19 2.02-5.17 2.07 1.65 5.31-4.84-2.75-3.12 4.6-.86-5.49-5.55.42 3.76-4.1-3.79-4.07 5.55.38.81-5.5zM95.24 586.39l3.16 4.57 4.81-2.79-1.6 5.33 5.18 2.02-5.17 2.06 1.65 5.32-4.83-2.76-3.13 4.61-.86-5.5-5.55.43 3.76-4.1-3.79-4.07 5.55.38.82-5.5zM90.07 547.91l3.16 4.58 4.81-2.79-1.6 5.32 5.18 2.02-5.17 2.07 1.65 5.31-4.83-2.75-3.13 4.6-.86-5.5-5.55.43 3.76-4.1-3.79-4.07 5.55.38.82-5.5zM373.36 653.02l3.16 4.57 4.81-2.79-1.61 5.33 5.19 2.02-5.17 2.06 1.65 5.32-4.83-2.76-3.13 4.61-.86-5.5-5.55.43 3.76-4.1-3.79-4.07 5.55.38.82-5.5zM217.7 640.95l3.17 4.58 4.81-2.79-1.61 5.33 5.18 2.02-5.16 2.06 1.65 5.31-4.84-2.75-3.12 4.61-.87-5.5-5.54.43 3.76-4.11-3.8-4.07 5.55.39.82-5.51zM405.11 666.49l3.16 4.58 4.81-2.79-1.6 5.33 5.18 2.02-5.17 2.06 1.65 5.31-4.83-2.75-3.13 4.61-.86-5.5-5.55.43 3.76-4.11-3.79-4.06 5.55.38.82-5.51zM525.11 525.28l3.17 4.58 4.81-2.79-1.61 5.32 5.18 2.02-5.16 2.07 1.65 5.31-4.84-2.75-3.12 4.6-.86-5.5-5.55.43 3.76-4.1-3.79-4.07 5.55.38.81-5.5zM442.35 639.02l3.16 4.58 4.81-2.79-1.61 5.32 5.19 2.03-5.17 2.06 1.65 5.31-4.83-2.75-3.13 4.6-.86-5.49-5.55.43 3.76-4.1-3.79-4.08 5.55.39.82-5.51zM412.34 339.19l3.16 4.58 4.81-2.79-1.6 5.33 5.18 2.02-5.17 2.06 1.66 5.31-4.84-2.75-3.12 4.61-.87-5.5-5.54.43 3.75-4.1-3.79-4.08 5.55.39.82-5.51zM605.34 442.81l3.16 4.57 4.81-2.79-1.61 5.33 5.19 2.02-5.17 2.06 1.65 5.32-4.83-2.75-3.13 4.6-.86-5.5-5.55.43 3.76-4.1-3.79-4.07 5.55.38.82-5.5zM738.41 460.95l3.16 4.57 4.82-2.79-1.61 5.33 5.18 2.02-5.16 2.06 1.65 5.32-4.84-2.76-3.12 4.61-.86-5.5-5.55.43 3.76-4.1-3.8-4.07 5.55.38.82-5.5zM747.35 522.68l3.16 4.58 4.81-2.79-1.6 5.32 5.18 2.03-5.17 2.06 1.65 5.31-4.83-2.75-3.13 4.6-.86-5.49-5.55.43 3.76-4.11-3.79-4.07 5.55.39.82-5.51z"/><path d="M389.08 660.81l3.16 4.58 4.81-2.79-1.61 5.32 5.19 2.03-5.17 2.06 1.65 5.31-4.83-2.75-3.13 4.6-.86-5.49-5.55.43 3.76-4.11-3.79-4.07 5.55.39.82-5.51zM764.91 203.09l4.26 6.16 6.47-3.76-2.16 7.17 6.98 2.72-6.96 2.78 2.22 7.15-6.5-3.7-4.21 6.19-1.16-7.39-7.46.57 5.06-5.52-5.11-5.48 7.47.52 1.1-7.41zM183.56 573.92l4.25 6.16 6.48-3.76-2.17 7.17 6.98 2.72-6.95 2.78 2.22 7.15-6.51-3.7-4.2 6.19-1.16-7.39-7.47.57 5.06-5.52-5.11-5.48 7.47.52 1.11-7.41zM1163.02 784.97l4.26 6.16 6.47-3.76-2.16 7.17 6.98 2.72-6.96 2.78 2.23 7.15-6.51-3.7-4.21 6.19-1.16-7.39-7.46.57 5.06-5.52-5.11-5.48 7.47.52 1.1-7.41zM753.57 763.61l4.25 6.16 6.48-3.75-2.16 7.16 6.97 2.72-6.95 2.78 2.22 7.15-6.51-3.7-4.2 6.19-1.16-7.39-7.47.57 5.06-5.52-5.1-5.48 7.47.52 1.1-7.41zM390.17 581.09l4.25 6.16 6.48-3.75-2.16 7.16 6.97 2.72-6.95 2.78 2.22 7.15-6.51-3.7-4.2 6.19-1.16-7.39-7.47.57 5.06-5.52-5.1-5.47 7.47.51 1.1-7.41zM559.72 645.38l4.25 6.16 6.48-3.76-2.17 7.17 6.98 2.72-6.95 2.78 2.22 7.15-6.51-3.71-4.2 6.2-1.16-7.4-7.47.58 5.06-5.52-5.11-5.48 7.48.51 1.1-7.4zM1451.46 587.81l4.25 6.16 6.48-3.76-2.16 7.17 6.97 2.72-6.95 2.78 2.22 7.15-6.51-3.71-4.2 6.2-1.16-7.4-7.47.58 5.06-5.52-5.1-5.48 7.47.51 1.1-7.4zM1064.75 173.26l4.25 6.16 6.48-3.76-2.16 7.17 6.97 2.72-6.95 2.78 2.22 7.15-6.51-3.7-4.2 6.19-1.16-7.39-7.47.57 5.06-5.52-5.1-5.48 7.46.52 1.11-7.41zM929.04 518.35l4.26 6.16 6.48-3.75-2.17 7.16 6.98 2.73-6.95 2.77 2.22 7.15-6.51-3.7-4.2 6.2-1.16-7.4-7.47.57 5.06-5.52-5.11-5.47 7.47.51 1.1-7.41zM1041.08 493.52l4.26 6.17 6.47-3.76-2.16 7.17 6.98 2.72-6.96 2.78 2.22 7.15-6.5-3.71-4.21 6.2-1.16-7.4-7.46.57 5.06-5.52-5.11-5.47 7.47.51 1.1-7.41zM324.11 748.75l3.63 4.42 5.7-.48-3.08 4.82 2.22 5.28-5.54-1.45-4.33 3.74-.34-5.71-4.89-2.96 5.33-2.09 1.3-5.57zM376.66 766.02l3.63 4.42 5.71-.48-3.09 4.82 2.22 5.28-5.54-1.45-4.33 3.74-.34-5.71-4.89-2.96 5.33-2.09 1.3-5.57zM357.81 687.54l3.1 3.6 4.73-.51-2.46 4.07 1.95 4.34-4.64-1.09-3.52 3.19-.4-4.74-4.13-2.37 4.39-1.83.98-4.66zM372.57 676.23l3.11 3.6 4.73-.51-2.47 4.07 1.95 4.34-4.63-1.09-3.53 3.19-.39-4.74-4.13-2.37 4.39-1.84.97-4.65zM160.36 696.06l3.63 4.42 5.7-.48-3.09 4.82 2.22 5.28-5.53-1.45-4.34 3.74-.33-5.71-4.9-2.96 5.33-2.09 1.31-5.57zM118.8 557.19l3.63 4.43 5.7-.48-3.09 4.82 2.23 5.27-5.54-1.44-4.34 3.74-.33-5.72-4.9-2.96 5.33-2.08 1.31-5.58zM39.39 368.84l3.63 4.43 5.7-.48-3.09 4.82 2.22 5.27-5.54-1.44-4.33 3.74-.33-5.72-4.9-2.96 5.33-2.08 1.31-5.58zM53.16 514.82l3.63 4.42 5.71-.48-3.09 4.82 2.22 5.28-5.54-1.45-4.33 3.74-.33-5.71-4.9-2.96 5.33-2.09 1.3-5.57zM433.03 723.46l3.63 4.42 5.71-.48-3.09 4.82 2.22 5.28-5.54-1.45-4.33 3.74-.34-5.71-4.89-2.97 5.33-2.08 1.3-5.57zM512.82 755.21l3.63 4.43 5.71-.48-3.09 4.82 2.22 5.27-5.54-1.44-4.33 3.74-.34-5.71-4.89-2.97 5.33-2.08 1.3-5.58zM590.67 856.11l3.63 4.43 5.7-.49-3.09 4.83 2.22 5.27-5.53-1.45-4.34 3.75-.33-5.72-4.9-2.96 5.33-2.09 1.31-5.57zM630.52 844.43l3.63 4.42 5.7-.48-3.08 4.82 2.22 5.28-5.54-1.45-4.33 3.74-.34-5.71-4.9-2.97 5.34-2.08 1.3-5.57zM660.9 848.4l3.63 4.43 5.7-.48-3.08 4.82 2.22 5.28-5.54-1.45-4.33 3.74-.34-5.71-4.9-2.97 5.34-2.08 1.3-5.58zM764.14 860.32l2.21 5.28 5.6 1.18-4.34 3.73.61 5.69-4.88-2.98-5.23 2.34 1.32-5.57-3.84-4.24 5.7-.47 2.85-4.96zM806.8 765.76l2.21 5.28 5.6 1.17-4.34 3.74.61 5.69-4.88-2.98-5.23 2.34 1.32-5.57-3.84-4.24 5.71-.47 2.84-4.96zM906.65 754.85l2.21 5.28 5.6 1.17-4.34 3.73.61 5.7-4.89-2.98-5.22 2.34 1.32-5.57-3.84-4.24 5.7-.47 2.85-4.96zM893.58 637.58l2.21 5.28 5.6 1.18-4.34 3.73.61 5.69-4.89-2.97-5.22 2.34 1.32-5.57-3.85-4.25 5.71-.47 2.85-4.96zM716.53 472.59l2.21 5.28 5.6 1.17-4.34 3.73.61 5.7-4.89-2.98-5.22 2.34 1.32-5.57-3.84-4.24 5.7-.47 2.85-4.96zM688.22 516.58l2.2 5.29 5.6 1.17-4.34 3.73.62 5.69-4.89-2.97-5.23 2.34 1.32-5.57-3.84-4.25 5.71-.46 2.85-4.97zM610.36 460.65l2.21 5.28 5.6 1.18-4.34 3.72.61 5.7-4.89-2.98-5.22 2.34 1.32-5.57-3.84-4.24 5.7-.47 2.85-4.96zM844.95 383.18l2.21 5.28 5.6 1.18-4.34 3.73.61 5.69-4.89-2.97-5.22 2.34 1.32-5.57-3.84-4.25 5.7-.46 2.85-4.97zM831.53 257.18l2.21 5.28 5.6 1.18-4.34 3.73.61 5.69-4.89-2.97-5.22 2.34 1.32-5.57-3.84-4.25 5.7-.46 2.85-4.97zM950.8 215.94l2.2 5.29 5.6 1.17-4.34 3.73.62 5.69-4.89-2.97-5.23 2.34 1.32-5.57-3.84-4.24 5.71-.47 2.85-4.97zM989.7 520.1l2.21 5.28 5.6 1.18-4.34 3.73.61 5.69-4.89-2.98-5.22 2.35 1.32-5.57-3.85-4.25 5.71-.46 2.85-4.97zM1092.37 571.08l2.21 5.28 5.6 1.18-4.34 3.73.61 5.69-4.89-2.97-5.22 2.34 1.32-5.57-3.84-4.25 5.7-.46 2.85-4.97zM677.74 571.79l2.21 5.28 5.6 1.18-4.34 3.73.61 5.69-4.89-2.98-5.22 2.34 1.31-5.56-3.84-4.25 5.71-.47 2.85-4.96zM580.81 524.38l2.21 5.28 5.6 1.18-4.34 3.73.61 5.69-4.89-2.97-5.22 2.34 1.32-5.57-3.85-4.25 5.71-.46 2.85-4.97zM518.67 441.88l2.21 5.29 5.6 1.17-4.34 3.73.61 5.69-4.89-2.97-5.22 2.34 1.32-5.57-3.84-4.24 5.7-.47 2.85-4.97zM1240.04 425.06l2.2 5.29 5.61 1.17-4.35 3.73.62 5.69-4.89-2.97-5.23 2.34 1.32-5.57-3.84-4.25 5.71-.46 2.85-4.97zM1382.62 539.78l2.2 5.28 5.61 1.17-4.34 3.74.61 5.69-4.89-2.98-5.22 2.34 1.31-5.57-3.84-4.24 5.71-.47 2.85-4.96zM1123 375.93l2.2 5.28 5.61 1.18-4.35 3.73.62 5.69-4.89-2.98-5.23 2.35 1.32-5.57-3.84-4.25 5.71-.47 2.85-4.96zM896.37 219.05l2.21 5.28 5.6 1.18-4.34 3.73.61 5.69-4.89-2.97-5.22 2.34 1.31-5.57-3.84-4.25 5.71-.46 2.85-4.97zM1137.66 180.12l2.21 5.28 5.6 1.17-4.34 3.73.61 5.69-4.89-2.97-5.22 2.34 1.32-5.57-3.84-4.24 5.7-.47 2.85-4.96zM1091.4 149.18l2.2 5.28 5.61 1.18-4.34 3.73.61 5.69-4.89-2.97-5.22 2.34 1.31-5.57-3.84-4.25 5.71-.46 2.85-4.97zM1163.55 228.09l2.2 5.28 5.61 1.18-4.35 3.73.62 5.69-4.89-2.97-5.23 2.34 1.32-5.57-3.84-4.25 5.71-.46 2.85-4.97zM1294.4 366.42l2.21 5.28 5.6 1.18-4.34 3.73.61 5.69-4.89-2.98-5.22 2.34 1.31-5.57-3.83-4.24 5.7-.47 2.85-4.96zM1458.46 345.44l2.21 5.28 5.6 1.18-4.34 3.73.62 5.69-4.9-2.97-5.22 2.34 1.32-5.57-3.84-4.25 5.71-.46 2.84-4.97zM1340.45 369.21l2.21 5.28 5.6 1.17-4.34 3.73.61 5.7-4.89-2.98-5.22 2.34 1.32-5.57-3.84-4.24 5.71-.47 2.84-4.96zM1396.24 286.82l2.21 5.28 5.6 1.18-4.34 3.73.61 5.69-4.89-2.98-5.22 2.34 1.32-5.56-3.84-4.25 5.7-.47 2.85-4.96zM1259.26 175.71l2.21 5.28 5.6 1.18-4.34 3.73.61 5.69-4.89-2.97-5.22 2.34 1.32-5.57-3.84-4.25 5.7-.46 2.85-4.97zM1437.87 70.43l2.21 5.28 5.6 1.18-4.34 3.73.61 5.69-4.89-2.98-5.22 2.34 1.31-5.56-3.84-4.25 5.71-.47 2.85-4.96zM1357.05 71.8l2.21 5.28 5.6 1.17-4.34 3.73.61 5.7-4.89-2.98-5.22 2.34 1.32-5.57-3.84-4.24 5.7-.47 2.85-4.96zM1460.83 84.72l2.21 5.29 5.6 1.17-4.34 3.73.61 5.7-4.89-2.98-5.22 2.34 1.31-5.57-3.84-4.24 5.71-.47 2.85-4.97zM957.32 838.33l3.63 4.43 5.71-.48-3.09 4.82 2.22 5.27-5.54-1.44-4.33 3.74-.34-5.71-4.89-2.97 5.33-2.08 1.3-5.58zM595.97 657.3l3.63 4.42 5.7-.48-3.08 4.82 2.22 5.28-5.54-1.45-4.33 3.74-.34-5.71-4.89-2.96 5.33-2.09 1.3-5.57zM414.27 436.97l3.63 4.43 5.7-.48-3.09 4.82 2.22 5.27-5.54-1.45-4.33 3.75-.33-5.72-4.9-2.96 5.33-2.08 1.31-5.58zM276.97 411.23l3.63 4.42 5.7-.48-3.09 4.82 2.22 5.27-5.53-1.44-4.34 3.74-.33-5.71-4.9-2.97 5.33-2.08 1.31-5.57zM477.43 545l3.63 4.43 5.71-.48-3.09 4.82 2.22 5.27-5.54-1.44-4.33 3.74-.33-5.72-4.9-2.96 5.33-2.08 1.3-5.58zM433.9 604.18l3.63 4.42 5.7-.48-3.09 4.82 2.23 5.28-5.54-1.45-4.33 3.74-.34-5.71-4.9-2.96 5.33-2.09 1.31-5.57zM456.12 395.33l3.63 4.42 5.71-.48-3.09 4.82 2.22 5.28-5.54-1.45-4.33 3.75-.33-5.72-4.9-2.96 5.33-2.09 1.3-5.57zM424.91 477.45l3.63 4.43 5.7-.49-3.09 4.82 2.22 5.28-5.53-1.45-4.34 3.74-.33-5.71-4.9-2.96 5.33-2.09 1.31-5.57zM440.07 489.88l3.63 4.42 5.7-.48-3.08 4.82 2.22 5.28-5.54-1.45-4.33 3.74-.34-5.71-4.9-2.96 5.33-2.09 1.31-5.57zM364.36 387.22l3.63 4.42 5.7-.48-3.08 4.82 2.22 5.28-5.54-1.45-4.33 3.74-.34-5.71-4.9-2.96 5.33-2.09 1.31-5.57zM760.99 441.01l3.63 4.43 5.7-.48-3.09 4.82 2.22 5.27-5.54-1.44-4.33 3.74-.33-5.72-4.9-2.96 5.33-2.08 1.31-5.58zM1072.9 779.59l3.63 4.42 5.7-.48-3.09 4.82 2.22 5.28-5.53-1.45-4.34 3.74-.33-5.71-4.9-2.97 5.33-2.08 1.31-5.57zM1185.47 704.32l3.63 4.42 5.71-.48-3.09 4.82 2.22 5.28-5.54-1.45-4.33 3.74-.33-5.71-4.9-2.97 5.33-2.08 1.3-5.57zM320.59 772.92l3.63 4.43 5.7-.48-3.08 4.82 2.22 5.27-5.54-1.44-4.33 3.74-.34-5.72-4.9-2.96 5.34-2.08 1.3-5.58zM326.17 680.81l3.63 4.43 5.7-.48-3.09 4.82 2.22 5.27-5.53-1.44-4.34 3.74-.33-5.72-4.9-2.96 5.33-2.08 1.31-5.58zM1383.25 527.16l-4.26 3.8-1.53 5.5-3.8-4.26-5.5-1.53 4.26-3.8 1.53-5.5 3.8 4.26 5.5 1.53zM1345.45 511.91l-4.26 3.8-1.53 5.5-3.8-4.26-5.5-1.53 4.26-3.8 1.53-5.49 3.8 4.25 5.5 1.53zM1319.14 445.31l-4.26 3.8-1.53 5.5-3.8-4.26-5.49-1.53 4.25-3.8 1.53-5.5 3.8 4.26 5.5 1.53zM1326.77 429.15l-4.26 3.8-1.53 5.5-3.8-4.26-5.5-1.53 4.26-3.8 1.53-5.49 3.8 4.25 5.5 1.53zM1247.38 529.84l-2.43 5.17.75 5.65-5.17-2.42-5.65.74 2.42-5.16-.74-5.66 5.16 2.43 5.66-.75zM1200.05 565.93l-2.72 5.01.4 5.69-5.01-2.73-5.69.41 2.73-5.01-.41-5.69 5.01 2.73 5.69-.41zM1387.85 422.49l-2.72 5.01.4 5.69-5.01-2.73-5.69.41 2.73-5.01-.41-5.69 5.01 2.72 5.69-.4zM1434.56 400.3l-2.73 5.01.41 5.69-5.01-2.73-5.69.41 2.73-5.01-.41-5.69 5.01 2.73 5.69-.41zM1514.75 290.3l-2.73 5.01.41 5.69-5.01-2.73-5.69.41 2.73-5.01-.41-5.69 5.01 2.73 5.69-.41zM1553.32 164.14l-2.73 5.01.41 5.69-5.01-2.73-5.69.41 2.73-5.01-.41-5.69 5.01 2.72 5.69-.4zM1534.48 152.89l-2.73 5.02.41 5.68-5.01-2.72-5.69.41 2.72-5.02-.4-5.69 5.01 2.73 5.69-.41zM1469.19 325.04l-.43 5.1 2.39 4.52-5.1-.43-4.52 2.39.43-5.1-2.39-4.52 5.09.43 4.53-2.39zM1337.19 416.44l-.42 5.09 2.38 4.53-5.09-.43-4.52 2.39.42-5.1-2.39-4.52 5.1.43 4.52-2.39zM1439.93 230.28l-.42 5.09 2.39 4.53-5.1-.43-4.52 2.39.43-5.1-2.39-4.52 5.09.43 4.52-2.39zM1433.86 167.99l-.43 5.09 2.4 4.52-5.1-.42-4.52 2.39.42-5.1-2.39-4.52 5.1.43 4.52-2.39zM1332.34 245.69l-.43 5.09 2.39 4.52-5.1-.42-4.52 2.39.43-5.1-2.39-4.52 5.1.42 4.52-2.38zM1290.66 145.67l-.42 5.1 2.39 4.52-5.1-.43-4.52 2.39.43-5.09-2.39-4.53 5.09.43 4.52-2.39zM1264.78 157.3l-.32 3.74 1.76 3.32-3.74-.31-3.32 1.76.31-3.75-1.76-3.32 3.75.32 3.32-1.76zM1271.8 167.56l-.31 3.74 1.75 3.33-3.74-.32-3.32 1.76.31-3.75-1.75-3.32 3.74.32 3.32-1.76zM1254.97 166.21l-.31 3.74 1.76 3.32-3.75-.31-3.32 1.75.32-3.74-1.76-3.32 3.74.31 3.32-1.75zM1184.7 289.77l-.43 5.1 2.39 4.52-5.1-.43-4.52 2.39.43-5.09-2.39-4.53 5.09.43 4.53-2.39zM996.78 466.29l-.43 5.1 2.39 4.52-5.1-.43-4.52 2.39.43-5.09-2.39-4.52 5.09.42 4.53-2.39zM946.25 473.84l-.43 5.1 2.39 4.52-5.1-.43-4.52 2.39.43-5.1-2.39-4.52 5.09.43 4.53-2.39zM944.62 495.25l-.43 5.1 2.39 4.52-5.1-.43-4.52 2.39.43-5.09-2.39-4.53 5.09.43 4.53-2.39zM863.62 460.03l-.43 5.1 2.39 4.52-5.1-.42-4.52 2.39.43-5.1L854 462l5.09.42 4.53-2.39zM699.77 339.4l-.43 5.1 2.39 4.52-5.09-.43-4.52 2.39.42-5.1-2.39-4.52 5.1.43 4.52-2.39zM606.93 370.56l-.43 5.09 2.39 4.52-5.1-.42-4.52 2.39.43-5.1-2.39-4.52 5.1.42 4.52-2.38zM990.88 505.53l-.43 5.09 2.39 4.52-5.1-.42-4.52 2.39.43-5.1-2.39-4.52 5.1.43 4.52-2.39zM907.47 353.64l-.42 5.1 2.39 4.52-5.1-.43-4.52 2.4.43-5.1-2.39-4.52 5.09.42 4.52-2.39zM790.25 617.09l-.42 5.1 2.39 4.52-5.1-.43-4.52 2.39.42-5.09-2.39-4.53 5.1.43 4.52-2.39zM745.32 664.2l-.43 5.1 2.39 4.52-5.1-.43-4.52 2.39.43-5.09-2.39-4.52 5.1.42 4.52-2.39zM1008.95 528.97l-.43 5.1 2.39 4.52-5.09-.43-4.53 2.39.43-5.1-2.39-4.52 5.1.43 4.52-2.39zM1008.92 565.03l-.42 5.1 2.39 4.52-5.1-.42-4.52 2.39.43-5.1-2.4-4.52 5.1.42 4.52-2.39zM708.92 856.57l-.42 5.09 2.39 4.53-5.1-.43-4.52 2.39.43-5.1-2.4-4.52 5.1.43 4.52-2.39zM634.05 687.08l-.43 5.09 2.39 4.52-5.1-.42-4.52 2.39.43-5.1-2.39-4.52 5.09.43 4.53-2.39zM591.13 629.15l-.43 5.09 2.39 4.52-5.1-.42-4.52 2.39.43-5.1-2.39-4.52 5.09.43 4.53-2.39zM669.73 615.67l-.43 5.1 2.39 4.52-5.1-.42-4.52 2.39.43-5.1-2.39-4.52 5.1.43 4.52-2.4zM678.21 626.32l-.43 5.1 2.39 4.52-5.09-.43-4.52 2.39.42-5.09-2.39-4.53 5.1.43 4.52-2.39zM688.85 635.87l-.43 5.1 2.39 4.52-5.1-.43-4.52 2.39.43-5.1-2.39-4.52 5.1.43 4.52-2.39zM1148.95 404.6l-.42 5.09 2.39 4.53-5.1-.43-4.52 2.39.42-5.1-2.38-4.52 5.09.43 4.52-2.39zM1161.71 592.27l-2.73 5.01.41 5.7-5.01-2.73-5.69.4 2.72-5.01-.4-5.69 5.01 2.73 5.69-.41zM1062.11 665.32l-2.73 5.01.4 5.69-5.01-2.73-5.69.41 2.73-5.01-.41-5.69 5.01 2.73 5.7-.41zM1032.62 681.98l-2.73 5.01.41 5.68-5.01-2.72-5.69.41 2.73-5.02-.41-5.69 5.01 2.73 5.69-.4zM938.73 762.68l-4.9 2.93-2.55 5.1-2.92-4.89-5.11-2.55 4.9-2.93 2.55-5.1 2.92 4.9 5.11 2.54zM935.23 716.62l-4.9 2.93-2.55 5.1-2.92-4.9-5.11-2.54 4.9-2.93 2.55-5.1 2.92 4.9 5.11 2.54zM955.5 666.83l-4.9 2.93-2.55 5.1-2.92-4.9-5.11-2.54 4.9-2.93 2.55-5.1 2.92 4.9 5.11 2.54z"/><circle cx="869.02" cy="807.38" r="4.78"/><circle cx="591.99" cy="647.86" r="3.03"/><circle cx="871.75" cy="354.94" r="3.03"/><circle cx="581.61" cy="661.3" r="3.03"/><path d="M843.78 257.432l41.485-23.176.39.698-41.486 23.176zM908.642 226.011l.053-.798 30.214 1.99-.052.8zM1512.814 282.178l32.773-102.077.762.244-32.773 102.078zM1470.039 97.576l.547-.583 50.254 47.223-.548.583zM1429.281 186.606l.78-.181 8.39 36.087-.779.181zM1402.8 283.192l25.22-34.083.644.476-25.22 34.083zM1346.858 369.839l38.865-54.466.65.465-38.864 54.465zM1469.433 342.615l28.428-36.062.629.496-28.43 36.061zM1350.932 387.774l.662-.448 18.684 27.564-.663.45zM1387.362 421.816l32.145-14.826.335.727-32.145 14.826zM1316.675 456.888l.752-.274 16.926 46.378-.752.274zM1347.312 518.966l.21-.772 17.031 4.63-.21.773zM1287.626 323.108l.79-.129 6.14 37.541-.79.13zM1274.392 399.646l16.963-16.422.557.575-16.964 16.422zM1248.803 425.897l18.974-18.955.566.566-18.975 18.955zM1195.425 461.798l33.11-20.705.424.678-33.11 20.705zM1133.658 428.382l.416-.688 42.476 25.683-.416.688zM1161.74 502.898l17.45-23.275.64.48-17.45 23.275zM1105.09 565.316l49.773-56.278.599.53-49.773 56.278zM1116.006 413.96l2.178-19.73.795.087-2.178 19.73zM1126.74 372.716l49.718-65.572.637.483-49.718 65.573zM1143.688 202.512l.717-.356 12.712 25.62-.717.355zM1105.624 167.897l.438-.67 13.483 8.816-.438.67zM1076.268 175.597l9.497-10.53.594.536-9.497 10.53zM1206.323 557.873l24.47-17.648.468.648-24.47 17.649zM1167.316 586.835l11.932-9.008.482.639-11.932 9.007zM1067.536 660.362l77.488-55.476.466.65-77.488 55.477zM1033.56 677.034l14.706-6.02.303.741-14.706 6.02zM939.904 752.976l78.466-60.318.488.635-78.466 60.317zM1167.497 785.281l14.923-61.124.777.19-14.923 61.124zM1092.214 790.97l.09-.794 58.688 6.614-.09.795zM1040.338 795.536l21.959-6.135.215.77-21.959 6.135zM973.412 836.53l41.37-29.893.469.648-41.37 29.893zM878.021 813.254l.345-.722 66.623 31.792-.345.722zM822.408 779.876l.422-.679 36.451 22.698-.422.679zM934.835 704.892l10.914-29.036.75.281-10.915 29.037zM912.993 748.45l9.89-21.173.726.339-9.892 21.173zM797.073 623.647l.18-.78 51.607 11.896-.18.78zM748.535 660.758l28.962-29.597.572.56-28.963 29.596zM770.335 773.63l21.013-1.248.047.799-21.013 1.248zM716.896 863.753l.036-.8 29.93 1.354-.037.8zM678.723 863.192l.104-.792 14.424 1.894-.104.792zM639.84 853.282l13.39-.516.03.799-13.39.517zM604.644 860.907l17.399-5.606.245.761-17.399 5.607zM522.145 773.65l.637-.484 62.962 83.04-.638.483zM447.162 738.844l.27-.753 58.945 21.106-.27.753zM487.723 567.627l.618-.507 63.784 77.652-.618.507zM533.582 546.003l.693-.401 45.12 77.838-.692.4zM608.606 676.208l.56-.57 12.805 12.609-.562.57zM608.251 635.18l51.238-3.08.048.799-51.238 3.08zM678.54 566.035l6.027-29.97.784.157-6.027 29.97zM697.056 510.534l15.752-24.058.672.44-15.752 24.058zM752.247 523.435l8.407-60.125.792.111-8.407 60.125zM856.888 515.063l.128-.792 57.311 9.262-.128.792zM949.757 528.126l22.604-1.101.038.799-22.603 1.101zM1005.339 520.017l23.843-9.181.288.746-23.844 9.181zM1001.421 549.316l.8-.048 1.293 21.55-.8.048zM847.063 492.91l9.149-18.757.72.35-9.15 18.758zM1065.632 539.26l.664-.447 21.446 31.902-.664.447zM1077.768 467.875l29.883-34.51.605.523-29.883 34.51zM985.701 500.173l2.737-19.355.792.112-2.737 19.355zM934.178 516.95l1.473-7.1.783.163-1.472 7.1zM894.406 381.714l3.281-12.713.775.2-3.281 12.713zM878.55 354.857l.122-.79 18.86 2.889-.121.79zM871.094 381.433l.29-.746 12.568 4.872-.29.746zM603.757 383.935l.8-.033 1.728 41.253-.799.034zM604.867 432.671l.79-.121 1 6.524-.79.121zM571.287 426.225l.447-.664 24.645 16.61-.448.664zM570.995 404.307l23.02-19.393.516.612-23.02 19.392zM532.845 439.204l18.932-16.873.533.597-18.932 16.874zM586.541 520.393l19.232-44.234.736.32-19.232 44.234zM434.453 620.39l.78-.18 3.782 16.266-.78.18zM402.622 601.138l.339-.725 16.322 7.636-.339.724zM389.3 656.184l4.284-42.032.796.08-4.284 42.033zM340.493 685.954l27.792-10.099.273.752-27.792 10.099zM393.179 686.075l.77-.214 9.85 35.635-.772.213zM411.465 660.657l19.374-6.06.239.763-19.374 6.06zM339.704 763.758l.218-.77 21.137 5.994-.218.77zM421.962 352.676l.64-.48 27.468 36.624-.64.48zM424.006 435.88l24.802-22.919.543.588-24.802 22.919zM418.747 456.741l.78-.18 3.437 14.785-.779.18zM366.222 409.68l.793-.101 8.165 64.092-.794.101zM368.296 384.559l13.235-28.011.723.342-13.234 28.01zM388.903 487.914l.013-.8 27.126.445-.013.8zM257.228 403.075l.559-.572 10.751 10.488-.558.573zM130.64 569.93l.282-.75 36.31 13.649-.282.748zM195.726 602.36l.718-.354 16.274 33.029-.718.353zM68.136 538.94l.482-.638 14.891 11.262-.483.638zM91.839 567.549l.779-.181 2.706 11.64-.779.18zM107.455 608.192l.718-.353 39.554 80.385-.718.353z"/></g></svg>