<svg id="Layer_1" xmlns="http://www.w3.org/2000/svg" viewBox="0 0 1570.7 950.4"><style>.st1{fill:#9b8e6e}</style><g opacity=".8"><path class="st1" d="M244.1 381.3l4.3 6.2 6.5-3.8-2.2 7.2 7 2.7-7 2.8 2.2 7.1-6.5-3.7-4.2 6.2-1.2-7.4-7.5.6 5.1-5.5-5.1-5.5 7.5.5 1.1-7.4zm138.7-54.2l4.2 6.1 6.5-3.8-2.2 7.2 7 2.7-7 2.8 2.2 7.1-6.5-3.7-4.2 6.2-1.2-7.4-7.5.6 5.1-5.5-5.1-5.5 7.5.5 1.2-7.3zm-7.9 150.3l3.2 4.6 4.8-2.8-1.6 5.3 5.2 2-5.2 2.1 1.6 5.3-4.8-2.8-3.1 4.6-.9-5.5-5.5.4 3.8-4.1-3.8-4.1 5.5.4.8-5.4zm648 314.2l3.2 4.6 4.8-2.8-1.6 5.3 5.2 2-5.2 2.1 1.7 5.3-4.8-2.8-3.1 4.6-.9-5.5-5.5.4 3.8-4.1-3.8-4.1 5.5.4.7-5.4zM864.6 628.3l3.2 4.6 4.8-2.8-1.6 5.3 5.2 2-5.2 2.1 1.7 5.3-4.8-2.8-3.1 4.6-.9-5.5-5.5.4 3.8-4.1-3.8-4.1 5.5.4.7-5.4zm-2-261.3l3.2 4.6 4.8-2.8-1.6 5.3 5.2 2-5.2 2.1 1.7 5.3-4.8-2.8-3.1 4.6-.9-5.5-5.5.4 3.8-4.1-3.8-4.1 5.5.4.7-5.4zm25.5 14.1l3.2 4.6 4.8-2.8-1.6 5.3 5.2 2-5.2 2.1 1.7 5.3-4.8-2.8-3.1 4.6-.9-5.5-5.5.4 3.8-4.1-3.8-4.1 5.5.4.7-5.4zm224.8 33.3l3.2 4.6 4.8-2.8-1.6 5.3 5.2 2-5.2 2.1 1.7 5.3-4.8-2.8-3.1 4.6-.9-5.5-5.6.4 3.8-4.1-3.8-4.1 5.6.4.7-5.4zm169.4-110.6l3.2 4.6 4.8-2.8-1.6 5.3 5.2 2-5.2 2.1 1.7 5.3-4.8-2.8-3.1 4.6-.9-5.5-5.6.4 3.8-4.1-3.8-4.1 5.6.4.7-5.4zm-96.8 153l3.2 4.6 4.8-2.8-1.6 5.3 5.2 2-5.2 2.1 1.7 5.3-4.8-2.8-3.1 4.6-.9-5.5-5.5.4 3.8-4.1-3.8-4.1 5.6.4.6-5.4zm-346.6 45.8l3.2 4.6 4.8-2.8-1.6 5.3 5.2 2-5.2 2.1 1.7 5.3-4.8-2.8-3.2 4.7-.9-5.5-5.5.4 3.8-4.1-3.8-4.1 5.5.4.8-5.5zm-279.4-93.3l3.2 4.6 4.8-2.8-1.6 5.3 5.2 2-5.2 2.1 1.7 5.3-4.8-2.8-3.1 4.6-.9-5.5-5.5.4 3.8-4.1-3.8-4.1 5.5.4.7-5.4zM406.6 727.1l3.2 4.6 4.8-2.8-1.6 5.3 5.2 2-5.2 2.1 1.6 5.3-4.8-2.8-3.1 4.6-.9-5.5-5.5.4 3.8-4.1-3.8-4.1 5.5.4.8-5.4zM95.2 586.4l3.2 4.6 4.8-2.8-1.6 5.3 5.2 2-5.2 2.1 1.7 5.3-4.8-2.8-3.1 4.6-.9-5.5-5.6.4 3.8-4.1-3.8-4.1 5.6.4.7-5.4zm-5.1-38.5l3.2 4.6 4.8-2.8-1.6 5.3 5.2 2-5.2 2.1 1.7 5.3-4.8-2.8-3.1 4.6-.9-5.5-5.6.4 3.8-4.1-3.8-4.1 5.6.4.7-5.4zM373.4 653l3.2 4.6 4.8-2.8-1.6 5.3 5.2 2-5.2 2.1 1.6 5.3-4.8-2.8-3.1 4.6-.9-5.5-5.5.4 3.8-4.1-3.8-4.1 5.5.4.8-5.4zm-155.7-12l3.2 4.6 4.8-2.8-1.6 5.3 5.2 2-5.2 2.1 1.6 5.3-4.8-2.8-3.1 4.6-.9-5.5-5.5.4 3.8-4.1-3.8-4.1 5.6.4.7-5.4zm187.4 25.5l3.2 4.6 4.8-2.8-1.6 5.3 5.2 2-5.2 2.1 1.6 5.3-4.8-2.8-3.1 4.6-.9-5.5-5.5.4 3.8-4.1-3.8-4.1 5.5.4.8-5.4zm120-141.2l3.2 4.6 4.8-2.8-1.6 5.3 5.2 2-5.2 2.1 1.7 5.3-4.8-2.8-3.1 4.6-.9-5.5-5.5.4 3.8-4.1-3.8-4.1 5.5.4.7-5.4zM442.4 639l3.2 4.6 4.8-2.8-1.6 5.3 5.2 2-5.2 2.1 1.6 5.3-4.8-2.8-3.1 4.6-.9-5.5-5.5.4 3.8-4.1-3.8-4.1 5.5.4.8-5.4zm-30.1-299.8l3.2 4.6 4.8-2.8-1.6 5.3 5.2 2-5.2 2.1 1.7 5.3-4.8-2.8-3.1 4.6-.9-5.5-5.5.4 3.8-4.1-3.8-4.1 5.5.4.7-5.4zm193 103.6l3.2 4.6 4.8-2.8-1.6 5.3 5.2 2-5.2 2.1 1.7 5.3-4.8-2.8-3.1 4.6-.9-5.5-5.5.4 3.8-4.1-3.8-4.1 5.5.4.7-5.4zM738.4 461l3.2 4.6 4.8-2.8-1.6 5.3 5.2 2-5.2 2.1 1.7 5.3-4.8-2.8-3.1 4.6-.9-5.5-5.5.4 3.8-4.1-3.8-4.1 5.5.4.7-5.4zm8.9 61.7l3.2 4.6 4.8-2.8-1.6 5.3 5.2 2-5.2 2.1 1.7 5.3-4.8-2.8-3.1 4.6-.9-5.5-5.6.5 3.8-4.1-3.8-4.1 5.5.4.8-5.5z"/><path class="st1" d="M389.1 660.8l3.2 4.6 4.8-2.8-1.6 5.3 5.2 2-5.2 2.1 1.6 5.3-4.8-2.8-3.1 4.6-.9-5.5-5.5.4 3.8-4.1-3.8-4.1 5.5.4.8-5.4zm375.8-457.7l4.3 6.2 6.5-3.8-2.2 7.2 7 2.7-7 2.8 2.2 7.1-6.5-3.7-4.2 6.2-1.2-7.4-7.5.6 5.1-5.5-5.1-5.5 7.5.5 1.1-7.4zM183.6 573.9l4.2 6.2 6.5-3.8-2.2 7.2 7 2.7-6.9 2.8 2.2 7.2-6.5-3.7-4.2 6.2-1.2-7.4-7.5.6 5.1-5.5-5.1-5.5 7.5.5 1.1-7.5zM1163 785l4.3 6.2 6.5-3.8-2.2 7.2 7 2.7-7 2.8 2.2 7.2-6.5-3.7-4.2 6.2-1.2-7.4-7.5.6 5.1-5.5-5.1-5.5 7.5.5 1.1-7.5zm-409.4-21.4l4.2 6.2 6.5-3.8-2.2 7.2 7 2.7-7 2.8 2.2 7.2-6.5-3.7-4.2 6.2-1.2-7.4-7.5.6 5.1-5.5-5.1-5.5 7.5.5 1.2-7.5zM390.2 581.1l4.2 6.2 6.5-3.8-2.2 7.2 7 2.7-7 2.8 2.2 7.2-6.5-3.7-4.2 6.2-1.2-7.4-7.5.6 5.1-5.5-5.1-5.5 7.5.5 1.2-7.5zm169.5 64.3l4.2 6.2 6.5-3.8-2.2 7.2 7 2.7-7 2.8 2.2 7.2-6.5-3.7-4.2 6.2-1.2-7.4-7.5.6 5.1-5.5-5.1-5.5 7.5.5 1.2-7.5zm891.8-57.6l4.2 6.2 6.5-3.8-2.2 7.2 7 2.7-6.9 2.8 2.2 7.2-6.5-3.7-4.2 6.2-1.2-7.4-7.5.6 5.1-5.5-5.1-5.5 7.5.5 1.1-7.5zm-386.7-414.5l4.2 6.2 6.5-3.8-2.2 7.2 7 2.7-6.9 2.8 2.2 7.1-6.5-3.7-4.2 6.2-1.2-7.4-7.5.6 5.1-5.5-5.1-5.5 7.5.5 1.1-7.4zM929 518.3l4.3 6.2 6.5-3.8-2.2 7.2 7 2.7-7 2.8 2.2 7.2-6.5-3.7-4.2 6.2-1.2-7.4-7.5.6 5.1-5.5-5.1-5.5 7.5.5 1.1-7.5zm112.1-24.8l4.3 6.2 6.5-3.8-2.2 7.2 7 2.7-7 2.8 2.2 7.1-6.5-3.7-4.2 6.2-1.2-7.4-7.5.6 5.1-5.5-5.1-5.5 7.5.5 1.1-7.4zm-717 255.3l3.6 4.4 5.7-.5-3.1 4.8 2.2 5.3-5.5-1.5-4.3 3.7-.3-5.7-4.9-3 5.3-2.1 1.3-5.4zm52.6 17.2l3.6 4.4 5.7-.5-3.1 4.8 2.2 5.3-5.5-1.5-4.3 3.7-.3-5.7-4.9-3 5.3-2.1 1.3-5.4zm-18.9-78.5l3.1 3.6 4.7-.5-2.5 4.1 2 4.3-4.6-1.1-3.5 3.2-.4-4.7-4.1-2.4 4.4-1.8.9-4.7zm14.8-11.3l3.1 3.6 4.7-.5-2.5 4.1 2 4.3-4.6-1.1-3.5 3.2-.4-4.7-4.1-2.4 4.4-1.8.9-4.7zm-212.2 19.9l3.6 4.4 5.7-.5-3.1 4.8 2.2 5.3-5.5-1.5-4.3 3.7-.3-5.7-4.9-3 5.3-2.1 1.3-5.4zm-41.6-138.9l3.6 4.4 5.7-.5-3.1 4.9 2.2 5.3-5.5-1.4-4.3 3.7-.3-5.7-4.9-3 5.3-2.1 1.3-5.6zM39.4 368.8l3.6 4.4 5.7-.5-3.1 4.8 2.2 5.3-5.5-1.4-4.3 3.7-.3-5.7-4.9-3 5.3-2.1c0 .1 1.3-5.5 1.3-5.5zm13.8 146l3.6 4.4 5.7-.5-3.1 4.8 2.2 5.3-5.5-1.5-4.3 3.7-.3-5.7-4.9-3 5.3-2.1 1.3-5.4zM433 723.5l3.6 4.4 5.7-.5-3.1 4.8 2.2 5.3-5.5-1.5-4.3 3.7-.3-5.7-4.9-3 5.3-2.1 1.3-5.4zm79.8 31.7l3.6 4.4 5.7-.5-3.1 4.8 2.2 5.3-5.5-1.4-4.3 3.7-.3-5.7-4.9-3 5.3-2.1 1.3-5.5zm77.9 100.9l3.6 4.4 5.7-.5-3.1 4.8 2.2 5.3-5.5-1.5-4.3 3.8-.3-5.7-4.9-3 5.3-2.1 1.3-5.5zm39.8-11.7l3.6 4.4 5.7-.5-3.1 4.8 2.2 5.3-5.5-1.5-4.3 3.7-.3-5.7-4.9-3 5.3-2.1 1.3-5.4zm30.4 4l3.6 4.4 5.7-.5-3.1 4.8 2.2 5.3-5.5-1.5-4.3 3.7-.3-5.7-4.9-3 5.3-2.1 1.3-5.4zm103.2 11.9l2.2 5.3 5.6 1.2-4.3 3.7.6 5.7-4.9-3-5.2 2.3 1.3-5.6-3.8-4.2 5.7-.5 2.8-4.9zm42.7-94.5l2.2 5.3 5.6 1.2-4.3 3.7.6 5.7-4.9-3-5.2 2.3 1.3-5.6-3.8-4.2 5.7-.5 2.8-4.9zm99.9-11l2.2 5.3 5.6 1.2-4.3 3.7.6 5.7-4.9-3-5.2 2.3 1.3-5.6-3.8-4.2 5.7-.5 2.8-4.9zm-13.1-117.2l2.2 5.3 5.6 1.2-4.3 3.7.6 5.7-4.9-3-5.2 2.3 1.3-5.6-3.9-4.2 5.7-.5 2.9-4.9zm-177.1-165l2.2 5.3 5.6 1.2-4.3 3.7.6 5.7-4.9-3-5.2 2.3 1.3-5.6-3.8-4.2 5.7-.5 2.8-4.9zm-28.3 44l2.2 5.3 5.6 1.2-4.3 3.7.6 5.7-4.9-3-5.2 2.3 1.3-5.6-3.8-4.2 5.7-.5 2.8-4.9zm-77.8-56l2.2 5.3 5.6 1.2-4.3 3.7.6 5.7-4.9-3-5.2 2.3 1.3-5.6-3.8-4.2 5.7-.5 2.8-4.9zM845 383.2l2.2 5.3 5.6 1.2-4.3 3.7.6 5.7-4.9-3-5.2 2.3 1.3-5.6-3.8-4.2 5.7-.5 2.8-4.9zm-13.5-126l2.2 5.3 5.6 1.2-4.3 3.7.6 5.7-4.9-3-5.2 2.3 1.3-5.6-3.8-4.2 5.7-.5 2.8-4.9zm119.3-41.3l2.2 5.3 5.6 1.2-4.3 3.7.6 5.7-4.9-3-5.2 2.3 1.3-5.6-3.8-4.2 5.7-.5 2.8-4.9zm38.9 304.2l2.2 5.3 5.6 1.2-4.3 3.7.6 5.7-4.9-3-5.2 2.3 1.3-5.6-3.8-4.2 5.7-.5 2.8-4.9zm102.7 51l2.2 5.3 5.6 1.2-4.3 3.7.6 5.7-4.9-3-5.2 2.3 1.3-5.6-3.8-4.2 5.7-.5 2.8-4.9zm-414.7.7l2.2 5.3 5.6 1.2-4.3 3.7.6 5.7-4.9-3-5.2 2.3 1.3-5.6-3.8-4.2 5.7-.5 2.8-4.9zm-96.9-47.4l2.2 5.3 5.6 1.2-4.3 3.7.6 5.7-4.9-3-5.2 2.3 1.3-5.6-3.8-4.2 5.7-.5 2.8-4.9zm-62.1-82.5l2.2 5.3 5.6 1.2-4.3 3.7.6 5.7-4.9-3-5.2 2.3 1.3-5.6-3.8-4.2 5.7-.5 2.8-4.9zm721.3-16.8l2.2 5.3 5.6 1.2-4.3 3.7.6 5.7-4.9-3-5.2 2.3 1.3-5.6-3.8-4.2 5.7-.5 2.8-4.9zm142.6 114.7l2.2 5.3 5.6 1.2-4.3 3.7.6 5.7-4.9-3-5.2 2.3 1.3-5.6-3.8-4.2 5.7-.5 2.8-4.9zM1123 375.9l2.2 5.3 5.6 1.2-4.3 3.7.6 5.7-4.9-3-5.2 2.4 1.3-5.6-3.8-4.2 5.7-.5 2.8-5zM896.4 219.1l2.2 5.3 5.6 1.2-4.3 3.7.6 5.7-4.9-3-5.2 2.3 1.3-5.6-3.8-4.2 5.7-.5 2.8-4.9zm241.3-39l2.2 5.3 5.6 1.2-4.3 3.7.6 5.7-4.9-3-5.2 2.3 1.3-5.6-3.8-4.2 5.7-.5 2.8-4.9zm-46.3-30.9l2.2 5.3 5.6 1.2-4.3 3.7.6 5.7-4.9-3-5.2 2.3 1.3-5.6-3.8-4.2 5.7-.5 2.8-4.9zm72.2 78.9l2.2 5.3 5.6 1.2-4.3 3.7.6 5.7-4.9-3-5.2 2.3 1.3-5.6-3.8-4.2 5.7-.5 2.8-4.9zm130.8 138.3l2.2 5.3 5.6 1.2-4.3 3.7.6 5.7-4.9-3-5.2 2.3 1.3-5.6-3.8-4.2 5.7-.5 2.8-4.9zm164.1-21l2.2 5.3 5.6 1.2-4.3 3.7.6 5.7-4.9-3-5.2 2.3 1.3-5.6-3.8-4.2 5.7-.5 2.8-4.9zm-118.1 23.8l2.2 5.3 5.6 1.2-4.3 3.7.6 5.7-4.9-3-5.2 2.3 1.3-5.6-3.8-4.2 5.7-.5 2.8-4.9zm55.8-82.4l2.2 5.3 5.6 1.2-4.3 3.7.6 5.7-4.9-3-5.2 2.3 1.3-5.6-3.8-4.2 5.7-.5 2.8-4.9zm-136.9-111.1l2.2 5.3 5.6 1.2-4.3 3.7.6 5.7-4.9-3-5.2 2.3 1.3-5.6-3.8-4.2 5.7-.5 2.8-4.9zm178.6-105.3l2.2 5.3 5.6 1.2-4.3 3.7.6 5.7-4.9-3-5.2 2.3 1.3-5.6-3.8-4.2 5.7-.5 2.8-4.9zm-80.8 1.4l2.2 5.3 5.6 1.2-4.3 3.7.6 5.7-4.9-3-5.3 2.3 1.3-5.6-3.8-4.2 5.7-.5 2.9-4.9zm103.7 12.9l2.2 5.3 5.6 1.2-4.3 3.7.6 5.7-4.9-3-5.2 2.3 1.3-5.6-3.8-4.2 5.7-.5c0 .1 2.8-4.9 2.8-4.9zM957.3 838.3l3.6 4.4 5.7-.5-3.1 4.8 2.2 5.3-5.5-1.4-4.3 3.7-.3-5.7-4.9-3 5.3-2.1 1.3-5.5zM596 657.3l3.6 4.4 5.7-.5-3.1 4.8 2.2 5.3-5.5-1.5-4.3 3.7-.3-5.7-4.9-3 5.3-2.1 1.3-5.4zM414.3 437l3.6 4.4 5.7-.5-3.1 4.8 2.2 5.3-5.5-1.5-4.3 3.8-.3-5.7-4.9-3 5.3-2.1 1.3-5.5zM277 411.2l3.6 4.4 5.7-.5-3.1 4.8 2.2 5.3-5.5-1.4-4.3 3.7-.3-5.7-4.9-3 5.3-2.1 1.3-5.5zM477.4 545l3.6 4.4 5.7-.5-3.1 4.8 2.2 5.3-5.5-1.4-4.3 3.7-.3-5.7-4.9-3 5.3-2.1 1.3-5.5zm-43.5 59.2l3.6 4.4 5.7-.5-3.1 4.8 2.2 5.3-5.5-1.5-4.3 3.7-.3-5.7-4.9-3 5.3-2.1 1.3-5.4zm22.2-208.9l3.6 4.4 5.7-.5-3.1 4.8 2.2 5.3-5.5-1.5-4.3 3.8-.3-5.7-4.9-3 5.3-2.1 1.3-5.5zm-31.2 82.2l3.6 4.4 5.7-.5-3.1 4.8 2.2 5.3-5.5-1.5-4.3 3.7-.3-5.7-4.9-3 5.3-2.1 1.3-5.4zm15.2 12.4l3.6 4.4 5.7-.5-3.1 4.8 2.2 5.3-5.5-1.5-4.3 3.7-.3-5.7-4.9-3 5.3-2.1 1.3-5.4zm-75.7-102.7l3.6 4.4 5.7-.5-3.1 4.8 2.2 5.3-5.5-1.5-4.3 3.7-.3-5.7-4.9-3 5.3-2.1 1.3-5.4zM761 441l3.6 4.4 5.7-.5-3.1 4.8 2.2 5.3-5.5-1.4-4.3 3.7-.3-5.7-4.9-3 5.3-2.1 1.3-5.5zm311.9 338.6l3.6 4.4 5.7-.5-3.1 4.8 2.2 5.3-5.5-1.5-4.3 3.7-.3-5.7-4.9-3 5.3-2.1 1.3-5.4zm112.6-75.3l3.6 4.4 5.7-.5-3.1 4.8 2.2 5.3-5.5-1.5-4.3 3.7-.3-5.7-4.9-3 5.3-2.1 1.3-5.4zm-864.9 68.6l3.6 4.4 5.7-.5-3.1 4.8 2.2 5.3-5.5-1.4-4.3 3.7-.3-5.7-4.9-3 5.3-2.1 1.3-5.5zm5.6-92.1l3.6 4.4 5.7-.5-3.1 4.8 2.2 5.3-5.5-1.4-4.3 3.7-.3-5.7-4.9-3 5.3-2.1 1.3-5.5zm1057-153.6l-4.3 3.8-1.5 5.5-3.8-4.3-5.5-1.5 4.3-3.8 1.5-5.5 3.8 4.3 5.5 1.5zm-37.8-15.3l-4.3 3.8-1.5 5.5-3.8-4.3-5.5-1.5 4.3-3.8 1.5-5.5 3.8 4.2 5.5 1.6zm-26.3-66.6l-4.3 3.8-1.5 5.5-3.8-4.3-5.5-1.5 4.2-3.8 1.5-5.5 3.8 4.3 5.6 1.5zm7.7-16.2l-4.3 3.8-1.5 5.5-3.8-4.3-5.5-1.5 4.3-3.8 1.5-5.5 3.8 4.2 5.5 1.6zm-79.4 100.7l-2.4 5.2.8 5.7-5.2-2.4-5.7.7 2.4-5.2-.7-5.7 5.2 2.4 5.6-.7zm-47.3 36.1l-2.7 5 .4 5.7-5-2.7-5.7.4 2.7-5-.4-5.7 5 2.7 5.7-.4zm187.7-143.4l-2.7 5 .4 5.7-5-2.7-5.7.4 2.7-5-.4-5.7 5 2.7 5.7-.4zm46.8-22.2l-2.7 5 .4 5.7-5-2.7-5.7.4 2.7-5-.4-5.7 5 2.7 5.7-.4zm80.2-110l-2.7 5 .4 5.7-5-2.7-5.7.4 2.7-5-.4-5.7 5 2.7 5.7-.4zm38.5-126.2l-2.7 5 .4 5.7-5-2.7-5.7.4 2.7-5-.4-5.7 5 2.7 5.7-.4zm-18.8-11.2l-2.7 5 .4 5.7-5-2.7-5.7.4 2.7-5-.4-5.7 5 2.7 5.7-.4zM1469.2 325l-.4 5.1 2.4 4.5-5.1-.4-4.5 2.4.4-5.1-2.4-4.5 5.1.4 4.5-2.4zm-132 91.4l-.4 5.1 2.4 4.5-5.1-.4-4.5 2.4.4-5.1-2.4-4.5 5.1.4 4.5-2.4zm102.7-186.1l-.4 5.1 2.4 4.5-5.1-.4-4.5 2.4.4-5.1-2.4-4.5 5.1.4 4.5-2.4zm-6-62.3l-.4 5.1 2.4 4.5-5.1-.4-4.5 2.4.4-5.1-2.4-4.5 5.1.4 4.5-2.4zm-101.6 77.7l-.4 5.1 2.4 4.5-5.1-.4-4.5 2.4.4-5.1-2.4-4.5 5.1.4 4.5-2.4zm-41.6-100l-.4 5.1 2.4 4.5-5.1-.4-4.5 2.4.4-5.1-2.4-4.5 5.1.4 4.5-2.4zm-25.9 11.6l-.3 3.7 1.8 3.3-3.7-.3-3.3 1.8.3-3.8-1.8-3.3 3.8.3 3.2-1.7zm7 10.3l-.3 3.7 1.8 3.3-3.7-.3-3.3 1.8.3-3.8-1.8-3.3 3.7.3 3.3-1.7zm-16.8-1.4l-.3 3.7 1.8 3.3-3.8-.3-3.3 1.8.3-3.7-1.8-3.3 3.7.3 3.4-1.8zm-70.3 123.6l-.4 5.1 2.4 4.5-5.1-.4-4.5 2.4.4-5.1-2.4-4.5 5.1.4 4.5-2.4zM996.8 466.3l-.4 5.1 2.4 4.5-5.1-.4-4.5 2.4.4-5.1-2.4-4.5 5.1.4 4.5-2.4zm-50.6 7.5l-.4 5.1 2.4 4.5-5.1-.4-4.5 2.4.4-5.1-2.4-4.5 5.1.4 4.5-2.4zm-1.6 21.4l-.4 5.1 2.4 4.5-5.1-.4-4.5 2.4.4-5.1-2.4-4.5 5.1.4 4.5-2.4zm-81-35.2l-.4 5.1 2.4 4.5-5.1-.4-4.5 2.4.4-5.1-2.4-4.5 5.1.4 4.5-2.4zM699.8 339.4l-.4 5.1 2.4 4.5-5.1-.4-4.5 2.4.4-5.1-2.4-4.5 5.1.4 4.5-2.4zm-92.9 31.2l-.4 5.1 2.4 4.5-5.1-.4-4.5 2.4.4-5.1-2.4-4.5 5.1.4 4.5-2.4zm384 134.9l-.4 5.1 2.4 4.5-5.1-.4-4.5 2.4.4-5.1-2.4-4.5 5.1.4 4.5-2.4zm-83.4-151.9l-.4 5.1 2.4 4.5-5.1-.4-4.5 2.4.4-5.1-2.4-4.5 5.1.4 4.5-2.4zM790.2 617.1l-.4 5.1 2.4 4.5-5.1-.4-4.5 2.4.4-5.1-2.4-4.5 5.1.4 4.5-2.4zm-44.9 47.1l-.4 5.1 2.4 4.5-5.1-.4-4.5 2.4.4-5.1-2.4-4.5 5.1.4 4.5-2.4zM1009 529l-.4 5.1 2.4 4.5-5.1-.4-4.5 2.4.4-5.1-2.4-4.5 5.1.4 4.5-2.4zm-.1 36l-.4 5.1 2.4 4.5-5.1-.4-4.5 2.4.4-5.1-2.4-4.5 5.1.4 4.5-2.4zm-300 291.6l-.4 5.1 2.4 4.5-5.1-.4-4.5 2.4.4-5.1-2.4-4.5 5.1.4 4.5-2.4zM634 687.1l-.4 5.1 2.4 4.5-5.1-.4-4.5 2.4.4-5.1-2.4-4.5 5.1.4 4.5-2.4zm-42.9-57.9l-.4 5.1 2.4 4.5-5.1-.4-4.5 2.4.4-5.1-2.4-4.5 5.1.4 4.5-2.4zm78.6-13.5l-.4 5.1 2.4 4.5-5.1-.4-4.5 2.4.4-5.1-2.4-4.5 5.1.4 4.5-2.4zm8.5 10.6l-.4 5.1 2.4 4.5-5.1-.4-4.5 2.4.4-5.1-2.4-4.5 5.1.4 4.5-2.4zm10.6 9.6l-.4 5.1 2.4 4.5-5.1-.4-4.5 2.4.4-5.1-2.4-4.5 5.1.4 4.5-2.4zm460.1-231.3l-.4 5.1 2.4 4.5-5.1-.4-4.5 2.4.4-5.1-2.4-4.5 5.1.4 4.5-2.4zm12.8 187.7l-2.7 5 .4 5.7-5-2.7-5.7.4 2.7-5-.4-5.7 5 2.7 5.7-.4zm-99.6 73l-2.7 5 .4 5.7-5-2.7-5.7.4 2.7-5-.4-5.7 5 2.7 5.7-.4zm-29.5 16.7l-2.7 5 .4 5.7-5-2.7-5.7.4 2.7-5-.4-5.7 5 2.7 5.7-.4zm-93.9 80.7l-4.9 2.9-2.5 5.1-2.9-4.9-5.1-2.5 4.9-2.9 2.5-5.1 2.9 4.9 5.1 2.5zm-3.5-46.1l-4.9 2.9-2.5 5.1-2.9-4.9-5.1-2.5 4.9-2.9 2.5-5.1 2.9 4.9 5.1 2.5zm20.3-49.8l-4.9 2.9-2.5 5.1-2.9-4.9-5.1-2.5 4.9-2.9 2.5-5.1 2.9 4.9 5.1 2.5z"/><circle class="st1" cx="869" cy="807.4" r="4.8"/><circle class="st1" cx="592" cy="647.9" r="3"/><circle class="st1" cx="871.8" cy="354.9" r="3"/><circle class="st1" cx="581.6" cy="661.3" r="3"/><path class="st1" d="M843.8 257.4l41.5-23.2.4.7-41.5 23.2-.4-.7zm64.8-31.4l.1-.8 30.2 2-.1.8-30.2-2zm604.2 56.2l32.8-102.1.8.2-32.8 102.1-.8-.2zM1470 97.6l.5-.6 50.3 47.2-.5.6-50.3-47.2zm-40.7 89l.8-.2 8.4 36.1-.8.2-8.4-36.1zm-26.5 96.6l25.2-34.1.6.5-25.2 34.1-.6-.5zm-55.9 86.6l38.9-54.5.7.5-38.9 54.5-.7-.5zm122.5-27.2l28.4-36.1.6.5-28.4 36.1-.6-.5zm-118.5 45.2l.7-.4 18.7 27.6-.7.5-18.7-27.7zm36.5 34l32.1-14.8.3.7-32.1 14.8-.3-.7zm-70.7 35.1l.8-.3 16.9 46.4-.8.3-16.9-46.4zm30.6 62.1l.2-.8 17 4.6-.2.8-17-4.6zm-59.7-195.9l.8-.1 6.1 37.5-.8.1-6.1-37.5zm-13.2 76.5l17-16.4.6.6-17 16.4-.6-.6zm-25.6 26.3l19-19 .6.6-19 19-.6-.6zm-53.4 35.9l33.1-20.7.4.7-33.1 20.7-.4-.7zm-61.7-33.4l.4-.7 42.5 25.7-.4.7-42.5-25.7zm28 74.5l17.4-23.3.6.5-17.4 23.3-.6-.5zm-56.6 62.4l49.8-56.3.6.5-49.8 56.3-.6-.5zM1116 414l2.2-19.7.8.1-2.2 19.7-.8-.1zm10.7-41.3l49.7-65.6.6.5-49.7 65.6-.6-.5zm17-170.2l.7-.4 12.7 25.6-.7.4-12.7-25.6zm-38.1-34.6l.4-.7 13.5 8.8-.4.7-13.5-8.8zm-29.3 7.7l9.5-10.5.6.5-9.5 10.5-.6-.5zm130 382.3l24.5-17.6.5.6-24.5 17.6-.5-.6zm-39 28.9l11.9-9 .5.6-11.9 9-.5-.6zm-99.8 73.6l77.5-55.5.5.7L1068 661l-.5-.6zm-33.9 16.6l14.7-6 .3.7-14.7 6-.3-.7zm-93.7 76l78.5-60.3.5.6-78.5 60.3-.5-.6zm227.6 32.3l14.9-61.1.8.2-14.9 61.1-.8-.2zm-75.3 5.7l.1-.8 58.7 6.6-.1.8-58.7-6.6zm-51.9 4.5l22-6.1.2.8-22 6.1-.2-.8zm-66.9 41l41.4-29.9.5.6-41.4 29.9-.5-.6zM878 813.3l.3-.7 66.6 31.8-.3.7-66.6-31.8zm-55.6-33.4l.4-.7 36.5 22.7-.4.7-36.5-22.7zm112.4-75l10.9-29 .8.3-10.9 29-.8-.3zM913 748.5l9.9-21.2.7.3-9.9 21.2-.7-.3zM797.1 623.6l.2-.8 51.6 11.9-.2.8-51.6-11.9zm-48.6 37.2l29-29.6.6.6-29 29.6-.6-.6zm21.8 112.8l21-1.2v.8l-21 1.2v-.8zm-53.4 90.2v-.8l29.9 1.4v.8l-29.9-1.4zm-38.2-.6l.1-.8 14.4 1.9-.1.8-14.4-1.9zm-38.9-9.9l13.4-.5v.8l-13.4.5v-.8zm-35.2 7.6l17.4-5.6.2.8-17.4 5.6-.2-.8zm-82.5-87.2l.6-.5 63 83-.6.5-63-83zm-74.9-34.9l.3-.8 58.9 21.1-.3.8-58.9-21.1zm40.5-171.2l.6-.5 63.8 77.7-.6.5-63.8-77.7zm45.9-21.6l.7-.4 45.1 77.8-.7.4-45.1-77.8zm75 130.2l.6-.6 12.8 12.6-.6.6-12.8-12.6zm-.3-41l51.2-3.1v.8l-51.2 3.1v-.8zm70.2-69.2l6-30 .8.2-6 30-.8-.2zm18.6-55.5l15.8-24.1.7.4-15.9 24.2-.6-.5zm55.1 12.9l8.4-60.1.8.1-8.4 60.1-.8-.1zm104.7-8.3l.1-.8 57.3 9.3-.1.8-57.3-9.3zm92.9 13l22.6-1.1v.8l-22.6 1.1v-.8zm55.5-8.1l23.8-9.2.3.7-23.8 9.2-.3-.7zm-3.9 29.3h.8l1.3 21.5h-.8l-1.3-21.5zm-154.3-56.4l9.1-18.8.7.4-9.2 18.8-.6-.4zm218.5 46.4l.7-.4 21.4 31.9-.7.4-21.4-31.9zm12.2-71.4l29.9-34.5.6.5-29.9 34.5-.6-.5zm-92.1 32.3l2.7-19.4.8.1-2.7 19.4-.8-.1zM934.2 517l1.5-7.1.8.2-1.5 7.1-.8-.2zm-39.8-135.3l3.3-12.7.8.2-3.3 12.7-.8-.2zm-15.9-26.8l.1-.8 18.9 2.9-.1.8-18.9-2.9zm-7.4 26.5l.3-.7 12.6 4.9-.3.7-12.6-4.9zm-267.3 2.5h.8l1.7 41.3h-.8l-1.7-41.3zm1.1 48.8l.8-.1 1 6.5-.8.1-1-6.5zm-33.6-6.5l.4-.7 24.6 16.6-.4.7-24.6-16.6zm-.3-21.9l23-19.4.5.6-23 19.4-.5-.6zm-38.2 34.9l18.9-16.9.5.6-18.9 16.9-.5-.6zm53.7 81.2l19.2-44.2.7.3-19.2 44.2-.7-.3zm-152 100l.8-.2 3.8 16.3-.8.2-3.8-16.3zm-31.9-19.3l.3-.7 16.3 7.6-.3.7-16.3-7.6zm-13.3 55.1l4.3-42 .8.1-4.3 42-.8-.1zM340.5 686l27.8-10.1.3.8-27.8 10.1-.3-.8zm52.7.1l.8-.2 9.9 35.6-.8.2-9.9-35.6zm18.3-25.4l19.4-6.1.2.8-19.4 6.1-.2-.8zm-71.8 103.1l.2-.8 21.1 6-.2.8-21.1-6zM422 352.7l.6-.5 27.5 36.6-.6.5-27.5-36.6zm2 83.2l24.8-22.9.5.6-24.8 22.9-.5-.6zm-5.3 20.8l.8-.2 3.4 14.8-.8.2-3.4-14.8zm-52.5-47l.8-.1 8.2 64.1-.8.1-8.2-64.1zm2.1-25.1l13.2-28 .7.3-13.2 28-.7-.3zm20.6 103.3v-.8l27.1.4v.8l-27.1-.4zm-131.7-84.8l.6-.6 10.8 10.5-.6.6-10.8-10.5zM130.6 569.9l.3-.8 36.3 13.6-.3.7-36.3-13.5zm65.1 32.5l.7-.4 16.3 33-.7.4-16.3-33zM68.1 538.9l.5-.6 14.9 11.3-.5.6-14.9-11.3zm23.7 28.6l.8-.2 2.7 11.6-.8.2-2.7-11.6zm15.7 40.7l.7-.4 39.6 80.4-.7.4-39.6-80.4z"/></g></svg>