<svg xmlns="http://www.w3.org/2000/svg" viewBox="0 0 1026.84 551.47"><g opacity=".3" fill="#a5802a" data-name="Comp 1"><path d="M168.88 67.59l1.71 4.33 4.44-1.37-2.31 4.04 3.84 2.63-4.6.7.34 4.64-3.42-3.16-3.42 3.16.34-4.64-4.6-.7 3.84-2.63-2.32-4.04 4.45 1.37 1.71-4.33zM260.44 54.28l1.7 4.33 4.45-1.36-2.32 4.03 3.84 2.63-4.6.7.34 4.64-3.41-3.16-3.42 3.16.34-4.64-4.6-.7 3.84-2.63-2.32-4.03 4.45 1.36 1.71-4.33zM234.53 144.11l1.27 3.22 3.3-1.02-1.72 3 2.86 1.95-3.42.52.25 3.45-2.54-2.34-2.54 2.34.25-3.45-3.41-.52 2.85-1.95-1.72-3 3.3 1.02 1.27-3.22zM582.36 425.42l1.26 3.21 3.31-1.01-1.72 3 2.85 1.95-3.42.52.25 3.45-2.53-2.34-2.54 2.34.25-3.45-3.42-.52 2.85-1.95-1.72-3 3.31 1.01 1.27-3.21zM509.59 304.39l1.27 3.21 3.3-1.01-1.72 3 2.85 1.95-3.42.52.26 3.45-2.54-2.35-2.54 2.35.25-3.45-3.42-.52 2.85-1.95-1.72-3 3.31 1.01 1.27-3.21zM545.13 145.98l1.27 3.22 3.3-1.01-1.72 2.99 2.85 1.95-3.41.53.25 3.44-2.54-2.34-2.54 2.34.25-3.44-3.41-.53 2.85-1.95-1.72-2.99 3.3 1.01 1.27-3.22zM558.59 158.11l1.27 3.21 3.31-1.01-1.72 3 2.85 1.95-3.42.52.25 3.45-2.54-2.35-2.54 2.35.26-3.45-3.42-.52 2.85-1.95-1.72-3 3.31 1.01 1.26-3.21zM689.92 209.84l1.28 3.22 3.3-1.02-1.72 3 2.85 1.95-3.42.52.25 3.45-2.54-2.34-2.53 2.34.25-3.45-3.42-.52 2.85-1.95-1.72-3 3.31 1.02 1.26-3.22zM807.99 166.77l1.27 3.22 3.3-1.01-1.72 2.99 2.85 1.96-3.41.52.25 3.45-2.54-2.35-2.54 2.35.25-3.45-3.41-.52 2.85-1.96-1.73-2.99 3.31 1.01 1.27-3.22zM727.89 245.73l1.27 3.21 3.31-1.01-1.73 3 2.86 1.95-3.42.52.25 3.45-2.54-2.35-2.54 2.35.26-3.45-3.42-.52 2.85-1.95-1.72-3 3.3 1.01 1.27-3.21zM511.72 224.69l1.27 3.22 3.3-1.01-1.72 2.99 2.85 1.95-3.42.53.25 3.44-2.53-2.34-2.54 2.34.25-3.44-3.42-.53 2.86-1.95-1.73-2.99 3.31 1.01 1.27-3.22zM355.78 128.91l1.27 3.21 3.31-1.01-1.73 2.99 2.86 1.96-3.42.52.25 3.45-2.54-2.35-2.53 2.35.25-3.45-3.42-.52 2.85-1.96-1.72-2.99 3.3 1.01 1.27-3.21zM218.57 299.68l1.27 3.22 3.3-1.01-1.72 2.99 2.85 1.96-3.41.52.25 3.45-2.54-2.35-2.54 2.35.25-3.45-3.41-.52 2.85-1.96-1.72-2.99 3.3 1.01 1.27-3.22zM49.95 170.73l1.27 3.21 3.31-1.01-1.72 3 2.85 1.95-3.42.52.25 3.45-2.54-2.35-2.53 2.35.25-3.45-3.42-.52 2.85-1.95-1.72-3 3.31 1.01 1.26-3.21zM52.24 146.72l1.27 3.22 3.31-1.02-1.73 3 2.86 1.95-3.42.53.25 3.44-2.54-2.34-2.54 2.34.25-3.44-3.41-.53 2.85-1.95-1.72-3 3.3 1.02 1.27-3.22zM208.86 250.18l1.27 3.22 3.3-1.02-1.72 3 2.85 1.95-3.41.53.25 3.44-2.54-2.34-2.54 2.34.25-3.44-3.41-.53 2.85-1.95-1.73-3 3.31 1.02 1.27-3.22zM116.38 220.98l1.26 3.21 3.31-1.01-1.72 3 2.85 1.95-3.42.52.25 3.45-2.53-2.35-2.54 2.35.25-3.45-3.42-.52 2.85-1.95-1.72-3 3.31 1.01 1.27-3.21zM226.17 262.81l1.27 3.21 3.31-1.01-1.72 2.99 2.85 1.96-3.42.52.25 3.45-2.54-2.35-2.54 2.35.26-3.45-3.42-.52 2.85-1.96-1.72-2.99 3.3 1.01 1.27-3.21zM318.66 194.25l1.27 3.21 3.3-1.01-1.72 3 2.85 1.95-3.42.52.25 3.45-2.53-2.35-2.54 2.35.25-3.45-3.42-.52 2.86-1.95-1.73-3 3.31 1.01 1.27-3.21zM252.57 251.42l1.27 3.22 3.3-1.01-1.72 2.99 2.85 1.95-3.41.53.25 3.44-2.54-2.34-2.54 2.34.25-3.44-3.41-.53 2.85-1.95-1.72-2.99 3.3 1.01 1.27-3.22zM276.61 65.78l1.27 3.22 3.3-1.01-1.72 2.99 2.85 1.96-3.42.52.25 3.45-2.53-2.35-2.54 2.35.25-3.45-3.42-.52 2.85-1.96-1.72-2.99 3.31 1.01 1.27-3.22zM378.8 155.64l1.27 3.21 3.31-1.01-1.73 3 2.85 1.95-3.41.52.25 3.45-2.54-2.35-2.54 2.35.25-3.45-3.41-.52 2.85-1.95-1.72-3 3.3 1.01 1.27-3.21zM456.77 185.34l1.27 3.21 3.3-1.01-1.72 3 2.85 1.95-3.41.52.25 3.45-2.54-2.35-2.54 2.35.25-3.45-3.42-.52 2.86-1.95-1.73-3 3.31 1.01 1.27-3.21zM453.49 223.95l1.27 3.21 3.3-1.01-1.72 3 2.85 1.95-3.42.52.26 3.45-2.54-2.35-2.54 2.35.25-3.45-3.42-.52 2.86-1.95-1.73-3 3.31 1.01 1.27-3.21z"/><path d="M217.27 257.11l1.27 3.22 3.31-1.02-1.72 3 2.85 1.95-3.42.53.25 3.44-2.54-2.34-2.53 2.34.25-3.44-3.42-.53 2.85-1.95-1.72-3 3.3 1.02 1.27-3.22zM509.09 33.05l1.71 4.32 4.44-1.36-2.32 4.04 3.84 2.62-4.6.71.34 4.63-3.41-3.15-3.42 3.15.34-4.63-4.6-.71 3.84-2.62-2.32-4.04 4.45 1.36 1.71-4.32zM105.15 175.62l1.71 4.32 4.44-1.36-2.32 4.03 3.84 2.63-4.6.7.34 4.64-3.41-3.16-3.42 3.16.34-4.64-4.6-.7 3.84-2.63-2.32-4.03 4.45 1.36 1.71-4.32zM668.09 441.14l1.71 4.33 4.44-1.36-2.31 4.03 3.83 2.63-4.59.7.33 4.64-3.41-3.16-3.42 3.16.34-4.64-4.6-.7 3.84-2.63-2.32-4.03 4.45 1.36 1.71-4.33zM423.35 370.6l1.71 4.33 4.44-1.36-2.31 4.03 3.83 2.63-4.59.7.33 4.64-3.41-3.16-3.42 3.16.34-4.64-4.6-.7 3.84-2.63-2.32-4.03 4.45 1.36 1.71-4.33zM229.15 209.03l1.71 4.32 4.45-1.36-2.32 4.04 3.84 2.62-4.6.71.34 4.64-3.42-3.16-3.42 3.16.34-4.64-4.6-.71 3.84-2.62-2.31-4.04 4.44 1.36 1.71-4.32zM322.69 271.79l1.71 4.32 4.45-1.36-2.32 4.03 3.84 2.63-4.6.7.34 4.64-3.42-3.16-3.41 3.16.34-4.64-4.6-.7 3.84-2.63-2.32-4.03 4.45 1.36 1.7-4.32zM870.36 362.44l1.7 4.32 4.45-1.36-2.32 4.03 3.84 2.63-4.6.7.34 4.64-3.41-3.15-3.42 3.15.34-4.64-4.6-.7 3.84-2.63-2.32-4.03 4.45 1.36 1.71-4.32zM694.7 57.19l1.71 4.33 4.45-1.36-2.32 4.03 3.84 2.63-4.6.7.34 4.64L694.7 69l-3.41 3.16.34-4.64-4.6-.7 3.84-2.63-2.32-4.03 4.45 1.36 1.7-4.33zM564.03 246.9l1.71 4.32 4.45-1.36-2.32 4.04 3.84 2.62-4.6.71.34 4.64-3.42-3.16-3.41 3.16.34-4.64-4.6-.71 3.84-2.62-2.32-4.04 4.45 1.36 1.7-4.32zM635.32 247.64l1.71 4.33 4.44-1.37-2.31 4.04 3.83 2.63-4.59.7.34 4.64-3.42-3.16-3.42 3.16.34-4.64-4.6-.7 3.84-2.63-2.32-4.04 4.45 1.37 1.71-4.33zM165.59 301.18l1.57 3.19 3.52.51-2.54 2.48.6 3.5-3.15-1.65-3.15 1.65.6-3.5-2.54-2.48 3.52-.51 1.57-3.19zM194.96 319.02l1.57 3.19 3.52.51-2.55 2.48.6 3.51-3.14-1.66-3.15 1.66.6-3.51-2.54-2.48 3.51-.51 1.58-3.19zM194.59 268.88l1.37 2.62 2.94.36-2.07 2.11.57 2.9-2.65-1.31-2.58 1.44.43-2.93-2.17-2.01 2.92-.5 1.24-2.68zM205.12 264.12l1.37 2.61 2.94.36-2.07 2.11.57 2.91-2.65-1.32-2.58 1.44.43-2.92-2.17-2.02 2.91-.49 1.25-2.68zM73.92 246.25l1.58 3.19 3.52.51-2.55 2.48.6 3.51-3.15-1.66-3.14 1.66.6-3.51-2.55-2.48 3.52-.51 1.57-3.19zM68.32 156.38l1.57 3.19 3.52.51-2.55 2.48.61 3.51-3.15-1.66-3.15 1.66.6-3.51-2.54-2.48 3.52-.51 1.57-3.19zM46.77 31.24l1.58 3.19 3.52.51-2.55 2.48.6 3.51-3.15-1.66-3.14 1.66.6-3.51-2.55-2.48 3.52-.51 1.57-3.19zM34.57 121.5l1.57 3.19 3.52.51-2.54 2.49.6 3.5-3.15-1.65-3.15 1.65.6-3.5-2.54-2.49 3.51-.51 1.58-3.19zM235.05 301.2l1.58 3.19 3.52.51-2.55 2.48.6 3.51-3.15-1.66-3.14 1.66.6-3.51-2.55-2.48 3.52-.51 1.57-3.19zM278.86 331.64l1.58 3.19 3.52.51-2.55 2.49.6 3.5-3.15-1.65-3.14 1.65.6-3.5-2.55-2.49 3.52-.51 1.57-3.19zM311.77 403.65l1.57 3.18 3.52.52-2.55 2.48.6 3.5-3.14-1.65-3.15 1.65.6-3.5-2.55-2.48 3.52-.52 1.58-3.18zM337.52 402.19l1.58 3.18 3.52.51-2.55 2.49.6 3.5-3.15-1.65-3.14 1.65.6-3.5-2.55-2.49 3.52-.51 1.57-3.18zM355.35 408.87l1.57 3.19 3.52.51-2.55 2.48.6 3.5-3.14-1.65-3.15 1.65.6-3.5-2.55-2.48 3.52-.51 1.58-3.19zM416.14 430.61l.59 3.5 3.22 1.5-3.15 1.65-.43 3.53-2.54-2.49-3.49.68 1.59-3.18-1.73-3.11 3.52.52 2.42-2.6zM455.26 379.39l.59 3.51 3.22 1.5-3.15 1.64-.43 3.53-2.54-2.49-3.49.69 1.58-3.19-1.72-3.11 3.51.52 2.43-2.6zM517.21 386.84l.59 3.51 3.22 1.5-3.15 1.64-.43 3.53-2.54-2.49-3.49.68 1.58-3.18-1.72-3.11 3.51.52 2.43-2.6zM525.8 314.05l.59 3.5 3.23 1.5-3.16 1.65-.43 3.53-2.54-2.49-3.49.68 1.59-3.18-1.73-3.11 3.52.52 2.42-2.6zM441.89 189.3l.59 3.51 3.23 1.5-3.15 1.65-.43 3.52-2.54-2.48-3.49.68 1.58-3.19-1.73-3.11 3.52.53 2.42-2.61zM418.57 211.94l.59 3.5 3.22 1.5-3.15 1.65-.43 3.53-2.54-2.49-3.49.68 1.58-3.18-1.72-3.11 3.51.52 2.43-2.6zM379.33 167.14l.59 3.5 3.23 1.5-3.15 1.65-.43 3.53-2.54-2.49-3.49.68 1.58-3.18-1.73-3.11 3.52.52 2.42-2.6zM532.18 153.28l.59 3.5 3.22 1.5-3.15 1.65-.43 3.53-2.54-2.49-3.49.68 1.58-3.18-1.72-3.11 3.51.52 2.43-2.6zM541.78 75.15l.6 3.51 3.22 1.5-3.15 1.64-.43 3.53-2.54-2.49-3.49.69 1.58-3.19-1.73-3.11 3.52.52 2.42-2.6zM619.75 66.98l.59 3.51 3.23 1.5-3.16 1.65-.42 3.53-2.54-2.49-3.49.68 1.58-3.19-1.73-3.11 3.52.52 2.42-2.6zM600.49 256.49l.59 3.51 3.22 1.5-3.15 1.64-.43 3.53-2.54-2.49-3.49.69 1.59-3.19-1.73-3.11 3.52.52 2.42-2.6zM655.44 301.79l.59 3.5 3.22 1.5-3.15 1.65-.43 3.53-2.54-2.49-3.49.68 1.58-3.18-1.72-3.11 3.51.52 2.43-2.6zM404.46 243.87l.59 3.5 3.22 1.5-3.15 1.65-.43 3.53-2.54-2.49-3.49.68 1.59-3.18-1.73-3.11 3.52.52 2.42-2.6zM352.48 201.54l.59 3.51 3.23 1.5-3.15 1.65-.43 3.52-2.54-2.48-3.49.68 1.58-3.19-1.73-3.1 3.52.52 2.42-2.61zM326.49 142.88l.59 3.51 3.23 1.5-3.15 1.64-.43 3.53-2.54-2.48-3.49.68 1.58-3.19-1.73-3.1 3.52.52 2.42-2.61zM765.33 234.22l.59 3.5 3.23 1.5-3.15 1.65-.43 3.53-2.54-2.49-3.49.68 1.58-3.18-1.73-3.11 3.52.52 2.42-2.6zM835.46 323.69l.59 3.5 3.23 1.5-3.15 1.65-.43 3.53-2.54-2.49-3.49.68 1.58-3.18-1.73-3.11 3.52.52 2.42-2.6zM701.43 188.02l.59 3.5 3.23 1.5-3.16 1.65-.43 3.53-2.54-2.49-3.49.68 1.59-3.18-1.73-3.11 3.52.52 2.42-2.6zM586.38 61.2l.59 3.51 3.23 1.5-3.15 1.65-.43 3.53-2.54-2.49-3.49.68 1.58-3.19-1.73-3.11 3.52.53 2.42-2.61zM737.86 71.6l.59 3.51 3.22 1.5-3.15 1.64-.43 3.53-2.54-2.49-3.49.68 1.58-3.18-1.72-3.11 3.52.52 2.42-2.6zM714.22 46.37l.59 3.51 3.22 1.5-3.15 1.64-.43 3.53-2.54-2.48-3.49.68 1.58-3.19-1.72-3.11 3.52.53 2.42-2.61zM746.77 104.27l.59 3.51 3.23 1.5-3.16 1.64-.43 3.53-2.54-2.49-3.49.69 1.59-3.19-1.73-3.11 3.52.52 2.42-2.6zM806.48 206.38l.59 3.51 3.22 1.5-3.15 1.64-.43 3.53-2.54-2.49-3.49.68 1.58-3.18-1.72-3.11 3.52.52 2.42-2.6zM908.7 216.78l.59 3.5 3.23 1.5-3.15 1.65-.44 3.53-2.54-2.49-3.49.68 1.59-3.18-1.73-3.11 3.52.52 2.42-2.6zM833.95 214.55l.59 3.5 3.23 1.5-3.15 1.65-.43 3.53-2.54-2.49-3.49.68 1.58-3.18-1.73-3.11 3.52.52 2.42-2.6zM879.3 172.55l.59 3.51 3.23 1.5-3.15 1.64-.44 3.53-2.53-2.49-3.5.68 1.59-3.18-1.73-3.11 3.52.52 2.42-2.6zM812.05 86.05l.6 3.5 3.22 1.5-3.15 1.65-.43 3.53-2.54-2.49-3.49.68 1.58-3.18-1.72-3.11 3.51.52 2.42-2.6zM934.94 47.48l.59 3.5 3.22 1.5-3.15 1.65-.43 3.53-2.54-2.49-3.49.68 1.58-3.18-1.72-3.11 3.51.52 2.43-2.6zM885.85 36.93l.59 3.51 3.22 1.5-3.15 1.64-.43 3.53-2.54-2.48-3.49.68 1.58-3.19-1.72-3.11 3.51.52 2.43-2.6zM946.82 59.36l.59 3.5 3.22 1.5-3.15 1.65-.43 3.53-2.54-2.49-3.49.68 1.58-3.18-1.72-3.11 3.51.52 2.43-2.6zM536.12 444.49l1.57 3.19 3.52.51-2.55 2.48.6 3.5-3.14-1.65-3.15 1.65.6-3.5-2.55-2.48 3.52-.51 1.58-3.19zM342.95 284.1l1.58 3.19 3.52.51-2.55 2.48.6 3.51-3.15-1.66-3.14 1.66.6-3.51-2.55-2.48 3.52-.51 1.57-3.19zM264.01 125.22l1.58 3.19 3.52.51-2.55 2.48.6 3.51-3.15-1.66-3.14 1.66.6-3.51-2.55-2.48 3.52-.51 1.57-3.19zM184.56 90.32l1.57 3.19 3.52.51-2.54 2.48.6 3.5-3.15-1.65-3.15 1.65.6-3.5-2.54-2.48 3.52-.51 1.57-3.19zM287.03 199.47l1.58 3.19 3.51.51-2.54 2.48.6 3.51-3.15-1.66-3.15 1.66.61-3.51-2.55-2.48 3.52-.51 1.57-3.19zM252.36 229.15l1.58 3.19 3.51.51-2.54 2.48.6 3.51-3.15-1.66-3.14 1.66.6-3.51-2.55-2.48 3.52-.51 1.57-3.19zM295.2 105.91l1.57 3.19 3.52.51-2.54 2.48.6 3.51-3.15-1.66-3.15 1.66.6-3.51-2.54-2.48 3.52-.51 1.57-3.19zM264.76 151.21l1.57 3.19 3.52.51-2.55 2.48.6 3.5-3.14-1.65-3.15 1.65.6-3.5-2.55-2.48 3.52-.51 1.58-3.19zM272.18 160.86l1.57 3.19 3.52.51-2.54 2.48.6 3.51-3.15-1.66-3.15 1.66.6-3.51-2.54-2.48 3.52-.51 1.57-3.19zM240.82 88.09l1.57 3.19 3.52.51-2.55 2.48.61 3.51-3.15-1.66-3.15 1.66.6-3.51-2.55-2.48 3.52-.51 1.58-3.19zM473.23 176.45l1.58 3.19 3.51.51-2.54 2.48.6 3.51-3.15-1.65-3.15 1.65.61-3.51-2.55-2.48 3.52-.51 1.57-3.19zM614.31 425.2l1.58 3.19 3.52.51-2.55 2.48.6 3.51-3.15-1.65-3.14 1.65.6-3.51-2.55-2.48 3.52-.51 1.57-3.19zM693.02 395.5l1.58 3.19 3.52.51-2.55 2.48.6 3.51-3.15-1.66-3.14 1.66.6-3.51-2.55-2.48 3.52-.51 1.57-3.19zM160.06 315.31l1.57 3.19 3.52.51-2.55 2.48.61 3.5-3.15-1.65-3.15 1.65.6-3.5-2.54-2.48 3.51-.51 1.58-3.19zM176.39 260.36l1.58 3.19 3.52.51-2.55 2.48.6 3.51-3.15-1.66-3.14 1.66.6-3.51-2.55-2.48 3.52-.51 1.57-3.19zM837.62 316.14l-3.11 1.7-1.7 3.11-1.7-3.11-3.11-1.7 3.11-1.7 1.7-3.11 1.7 3.11 3.11 1.7zM816.89 301.6l-3.11 1.7-1.7 3.11-1.7-3.11-3.11-1.7 3.11-1.7 1.7-3.11 1.7 3.11 3.11 1.7zM810.35 257.6l-3.11 1.7-1.7 3.11-1.7-3.11-3.11-1.7 3.11-1.7 1.7-3.11 1.7 3.11 3.11 1.7zM817.23 248.89l-3.1 1.7-1.71 3.11-1.7-3.11-3.11-1.7 3.11-1.7 1.7-3.1 1.71 3.1 3.1 1.7zM755.03 298.65l-2.19 2.78-.35 3.52-2.78-2.19-3.53-.34 2.2-2.79.34-3.52 2.78 2.19 3.53.35zM721.32 313.82l-2.36 2.65-.55 3.5-2.65-2.36-3.5-.55 2.36-2.65.55-3.5 2.65 2.35 3.5.56zM855.13 253.46l-2.35 2.65-.55 3.5-2.65-2.36-3.5-.56 2.35-2.64.56-3.5 2.64 2.35 3.5.56zM886.52 246.6l-2.36 2.65-.55 3.5-2.65-2.35-3.5-.56 2.35-2.65.56-3.5 2.65 2.36 3.5.55zM950.52 191.33l-2.36 2.65-.55 3.5-2.65-2.36-3.5-.55 2.35-2.65.56-3.5 2.65 2.36 3.5.55zM991.61 120.42l-2.36 2.65-.55 3.5-2.65-2.35-3.5-.56 2.35-2.65.56-3.5 2.65 2.36 3.5.55zM981.79 110.97l-2.36 2.65-.55 3.5-2.65-2.36-3.5-.55 2.36-2.65.55-3.5 2.65 2.35 3.5.56zM918.06 205.94l-.98 3.02.81 3.08-3.02-.98-3.07.81.97-3.02-.81-3.08 3.03.98 3.07-.81zM825.33 242.67l-.97 3.02.81 3.07-3.03-.97-3.07.81.98-3.03-.81-3.07 3.02.98 3.07-.81zM913.7 144.49l-.98 3.02.81 3.07-3.03-.97-3.07.81.98-3.03-.81-3.07 3.02.97 3.08-.8zM918.79 105.94l-.98 3.02.81 3.08-3.02-.98-3.08.81.98-3.02-.81-3.07 3.02.97 3.08-.81zM846.42 138.67l-.97 3.02.81 3.07-3.03-.97-3.07.81.98-3.03-.81-3.07 3.02.98 3.07-.81zM835.28 72.29l-.97 3.02.81 3.08-3.03-.98-3.07.81.98-3.03-.81-3.07 3.02.98 3.07-.81zM817.98 75.68l-.71 2.22.59 2.26-2.22-.72-2.26.6.72-2.22-.59-2.26 2.22.72 2.25-.6zM820.79 82.88l-.72 2.22.6 2.26-2.22-.72-2.26.59.71-2.22-.59-2.25 2.22.71 2.26-.59zM810.8 79.69l-.72 2.22.6 2.26-2.22-.72-2.26.6.72-2.22-.6-2.26 2.22.72 2.26-.6zM750.89 144.57l-.98 3.02.81 3.07-3.02-.97-3.07.81.97-3.03-.81-3.07 3.03.98 3.07-.81zM612.34 224.93l-.97 3.02.81 3.08-3.03-.98-3.07.81.98-3.02-.81-3.08 3.02.98 3.07-.81zM580.71 222.38l-.98 3.03.81 3.07-3.02-.98-3.07.81.97-3.02-.81-3.07 3.02.97 3.08-.81zM576.71 235.11l-.98 3.02.81 3.08-3.02-.98-3.07.81.97-3.02-.81-3.07 3.02.97 3.08-.81zM532.65 202.4l-.97 3.03.81 3.07-3.03-.97-3.07.81.98-3.03-.81-3.07 3.02.97 3.07-.81zM450.49 106.36l-.97 3.02.81 3.07-3.03-.97-3.07.81.98-3.03-.81-3.07 3.02.98 3.07-.81zM389.93 112.14l-.97 3.03.81 3.07-3.03-.98-3.07.81.98-3.02-.81-3.07 3.02.97 3.07-.81zM603.25 247.84l-.97 3.02.81 3.07-3.03-.97-3.07.81.98-3.02-.81-3.08 3.02.98 3.07-.81zM574.16 144.2l-.97 3.03.81 3.07-3.03-.98-3.07.81.98-3.02-.81-3.07 3.02.97 3.07-.81zM466.16 287.11l-.97 3.02.81 3.08-3.03-.98-3.07.81.98-3.02-.81-3.08 3.02.98 3.07-.81zM432.35 309.29l-.98 3.03.81 3.07-3.03-.98-3.07.81.98-3.02-.81-3.07 3.02.97 3.08-.81zM610.89 264.57l-.98 3.02.81 3.07-3.02-.97-3.07.81.97-3.03-.81-3.07 3.03.98 3.07-.81zM605.8 286.38l-.98 3.03.81 3.07-3.02-.98-3.07.81.97-3.02-.81-3.07 3.03.97 3.07-.81zM383.25 420.56l-.97 3.03.81 3.07-3.03-.97-3.07.81.98-3.03-.81-3.07 3.02.97 3.07-.81zM361.8 307.47l-.98 3.03.81 3.07-3.02-.97-3.07.8.97-3.02-.81-3.07 3.03.97 3.07-.81zM343.98 266.38l-.97 3.03.81 3.07-3.03-.98-3.07.81.98-3.02-.81-3.07 3.02.97 3.07-.81zM393.44 269.29l-.98 3.03.81 3.07-3.02-.98-3.08.81.98-3.02-.81-3.07 3.02.97 3.08-.81zM397.07 276.93l-.97 3.02.81 3.07-3.03-.97-3.07.81.98-3.02-.81-3.08 3.02.98 3.07-.81zM402.16 284.2l-.97 3.03.81 3.07-3.03-.98-3.07.81.98-3.02-.81-3.07 3.02.97 3.07-.81zM713.1 209.01l-.97 3.03.81 3.07-3.03-.98-3.07.81.98-3.02-.82-3.07 3.03.97 3.07-.81zM694.41 324.37l-2.36 2.64-.55 3.5-2.65-2.35-3.5-.56 2.36-2.64.55-3.51 2.65 2.36 3.5.56zM623.86 354.55l-2.35 2.64-.56 3.5-2.64-2.35-3.5-.55 2.35-2.65.56-3.5 2.64 2.35 3.5.56zM603.68 360.48l-2.35 2.64-.56 3.5-2.65-2.35-3.5-.56 2.36-2.65.55-3.5 2.65 2.36 3.5.56zM535.51 396.1l-3.38 1.08-2.25 2.73-1.08-3.38-2.73-2.26 3.37-1.08 2.26-2.73 1.08 3.38 2.73 2.26zM539.87 367.73l-3.37 1.08-2.26 2.73-1.08-3.37-2.73-2.26 3.37-1.08 2.26-2.73 1.08 3.37 2.73 2.26zM559.15 340.46l-3.38 1.08-2.26 2.73-1.08-3.38-2.73-2.25 3.38-1.08 2.26-2.73 1.08 3.37 2.73 2.26z"/><circle cx="487.04" cy="413.33" r="2.97"/><circle cx="341.87" cy="277.83" r="1.88"/><circle cx="552.37" cy="139.96" r="1.88"/><circle cx="333.7" cy="284.5" r="1.88"/><path d="M549.16 77.002l28.363-8.187.138.48-28.362 8.187zM592.812 67.133l.145-.479 18.002 5.456-.145.478zM950.587 186.223l34.201-57.147.43.257-34.202 57.147zM950.571 68.392l.416-.277 23.763 35.645-.416.277zM913.4 116.53h.5v23.02h-.5zM883.758 171.245l20.055-17.075.325.38-20.056 17.076zM837.724 215.795l31.175-27.484.324.367-31.175 27.484zM915.72 216.573l22.278-17.823.312.39-22.278 17.823zM837.673 227.213l.467-.18 7.424 19.302-.466.18zM854.937 252.942l21.536-4.448.099.48-21.536 4.448zM807.202 264.369l.486-.06 3.711 30.445-.486.06zM817 306.095l.236-.44 9.65 5.195-.237.44zM810.187 201.789l1.654-23.63.5.035-1.654 23.63zM790.747 227.953l12.616-7.482.255.43-12.616 7.482zM771.6 234.68l14.161-8.83.265.425-14.161 8.83zM735.084 254.37l23.047-7.764.157.466-23.047 7.763zM696.62 221.925l.348-.359 22.006 21.378-.348.358zM706.996 270.262l13.832-11.628.322.383-13.832 11.627zM660.812 298.36l37.803-27.07.284.398-37.802 27.068zM691.824 210.02l4.093-11.63.472.166-4.093 11.63zM704.19 186.694l39.314-32.675.32.385-39.315 32.674zM738.355 85.965l.486-.115 4.088 17.294-.486.115zM720.169 59.68l.36-.346 6.92 7.233-.361.346zM698.757 28.18l.418-.255 9.43 15.402-.417.256zM718.938 45.554l11.634-14.46.39.313-11.635 14.46zM701.39 60.305l7.23-5.034.28.402-7.23 5.034zM726.242 309.796l17.287-7.235.189.452-17.287 7.235zM698.566 321.828l8.49-3.772.203.456-8.49 3.773zM627.851 352.272l54.69-22.665.191.462-54.69 22.665zM604.955 357.597l9.744-1.573.078.484-9.744 1.573zM537.599 390.362l55.962-25.456.207.455-55.962 25.456zM670.811 442.05l17.637-34.885.446.226-17.637 34.885zM624.38 434.784l.167-.472 34.582 12.26-.168.471zM591.267 433.014l14.16-.567.02.49-14.16.567zM546.12 445.633l29.23-12.264.19.452-29.231 12.264zM491.655 418.122l.306-.383 35.84 28.612-.306.383zM462.711 390.103l.347-.346 18.865 18.866-.346.346zM541.279 360.553l10.689-16.033.416.277-10.69 16.034zM521.962 383.952l8.968-11.42.385.303-8.967 11.42zM469.402 292.1l.22-.45 29.55 14.464-.22.45zM434.778 307.639l21.693-13.836.27.421-21.694 13.836zM432.047 379.49l.084-.493 12.894 2.202-.085.493zM385.788 426.988l.135-.48 17.865 5.025-.135.48zM366.009 417.474l.171-.46 8.507 3.167-.171.46zM341.787 409.317l.094-.491 8.17 1.57-.094.49zM319.48 408.569l11.321-.943.041.489-11.32.942zM281.909 344.09l.456-.203 26.41 59.097-.456.204zM241.427 312.475l.265-.412 32.694 21.061-.266.412zM290.071 214.596l.449-.221 27.666 55.954-.448.221zM320.868 207.965l.478-.147 16.35 53.445-.478.147zM347.94 297.297l.422-.267 5.972 9.428-.423.267zM353.448 272.912l.084-.493 31.439 5.346-.084.493zM405.751 240.479l7.863-17.286.455.207-7.863 17.286zM422.785 210.84l12.888-12.264.344.362-12.887 12.264zM456.33 225.076l13.549-35.203.466.18-13.548 35.202zM518.13 234.233l.183-.454 33.323 13.517-.184.454zM575.115 256.268l.09-.492 13.832 2.517-.089.492zM609.98 258.612l15.717-2.2.068.485-15.716 2.2zM601.874 286.113l2.196-13.209.483.08-2.196 13.21zM518.04 220.046l8.173-10.058.388.315-8.173 10.058zM643.74 278.736l.457-.174 8.488 22.32-.458.175zM661.128 237.253l22.938-16.678.288.397-22.938 16.677zM602.218 245.206l4.41-11.311.466.182-4.41 11.31zM567.327 246.751l1.889-4.085.453.21-1.888 4.085zM562.355 159.41l3.777-7.233.443.232-3.776 7.233zM556.465 140.85l.182-.456 11.003 4.4-.182.456zM548.29 155.95l.282-.413 6.915 4.716-.281.413zM381.393 145.02l4.763-25.204.481.091-4.762 25.204zM379.663 153.502l.312-4.088.499.038-.313 4.088zM360.531 140.79l.366-.34 12.574 13.515-.367.34zM363.432 127.49l16.659-8.496.222.436-16.659 8.496zM335.449 143.24l13.834-7.55.235.43-13.835 7.55zM355.493 202.421l17.918-23.899.392.294-17.918 23.9zM250.44 239.03h.5v10.37h-.5zM233.87 222.875l.309-.394 8.798 6.914-.309.393zM218.06 254.336l8.508-24.833.473.162-8.507 24.833zM184.336 265.481l18.237-2.2.059.486-18.238 2.2zM216.15 273.007l.49-.02.942 22.951-.49.02zM230.857 260.167l12.575-.942.037.5-12.575.94zM172.915 312.512l.237-.429 11.947 6.603-.237.43zM280.012 77.213l.458-.199 11.318 26.091-.459.2zM270.054 125.978l18.235-10.376.247.435-18.234 10.375zM263.95 137.8h.5v9.43h-.5zM234.717 141.861l4.076-39.922.488.05-4.077 39.922zM243.569 87.029l11.952-15.09.392.31-11.952 15.09zM241.518 152.513l.121-.485 16.347 4.088-.121.485zM173.768 82.603l.422-.27 5.029 7.86-.421.269zM73.698 165.738l.277-.416 20.053 13.369-.278.416zM108.488 194.558l.477-.111 5.196 22.272-.478.111zM40.24 138.214l.383-.32 7.427 8.91-.384.32zM50.57 158.85h.5v7.43h-.5zM54.64 184.719l.485-.115 12.802 53.99-.485.115zM450.61 332.06v-.61h1.61l-1.71-4.36H446l-1.63 4.36h1.52c.2 0 .29.23.29.59H442v-.61h1.46l5-13h1.69l5.36 13h.93c.2 0 .29.23.29.59zm-2.39-10.88l-2 5.22h4zM463.28 331.49q.3 0 .3.57h-6.43v-.59a2.68 2.68 0 0 0 .52 0c.53-.1.8-.47.8-1.14v-7.41h-1.32v-.59h4l.15 2.11a4.2 4.2 0 0 1 .73-1.18 3.34 3.34 0 0 1 2.48-1.11 2.17 2.17 0 0 1 .57.07 1.34 1.34 0 0 1 1.11 1.43 1.43 1.43 0 0 1-.14.61 1.32 1.32 0 0 1-1.29.87 2 2 0 0 1-.5-.07 1.9 1.9 0 0 1-.89-.91c-.19-.35-.38-.52-.54-.52a.89.89 0 0 0-.3.06c-.67.35-1.05 1.32-1.16 2.91v4.91H463zM472.15 331.49c.19 0 .29.22.29.57h-5.59v-.59a2.68 2.68 0 0 0 .52 0c.53-.1.8-.47.8-1.14v-7.41h-1.32v-.59h4.2v9.18h.85zM471 320.13a1.58 1.58 0 0 1-1.47.84 1.76 1.76 0 0 1-.8-.2 1.53 1.53 0 0 1-.89-1.46 1.66 1.66 0 0 1 .21-.81 1.6 1.6 0 0 1 1.48-.89 1.76 1.76 0 0 1 1.7 1.7 1.61 1.61 0 0 1-.23.82zM482.55 330.43a4.14 4.14 0 0 1-3.81 1.86 5.77 5.77 0 0 1-2.69-.62 4.71 4.71 0 0 1-2.47-4.58 5.24 5.24 0 0 1 1.09-3.39 4.85 4.85 0 0 1 4-1.75 6.29 6.29 0 0 1 2.52.48 2.94 2.94 0 0 1 2 2.81 1.8 1.8 0 0 1-.14.71c-.39.85-1.81 1.23-4.25 1.16l-2.09-.07a12 12 0 0 0 .23 2.27c.35 1.55 1.13 2.32 2.34 2.32a3.25 3.25 0 0 0 1.11-.2 3.47 3.47 0 0 0 2-1.89l.55.18a4.37 4.37 0 0 1-.39.71zm-5.86-4.05l1.45.07a4 4 0 0 0 1.37-.11q.63-.25.63-1.32c0-1.62-.5-2.45-1.47-2.48-1.22.05-1.87 1.33-1.98 3.84zM488.16 331.65c1 0 1.6-.36 1.75-1.09a1.5 1.5 0 0 0 0-.29 2.26 2.26 0 0 0-1.46-1.94 9 9 0 0 0-1-.47 6.46 6.46 0 0 1-2.25-1.39 2.39 2.39 0 0 1-.59-1.61 2.61 2.61 0 0 1 2.11-2.61 6.14 6.14 0 0 1 2-.3 5.07 5.07 0 0 1 2.77.64c0-.46.14-.71.41-.75h.18v2.84h-.72a2 2 0 0 0-2.25-2.09q-1.46 0-1.8 1a1.76 1.76 0 0 0-.07.45c0 .65.46 1.21 1.37 1.66a7.49 7.49 0 0 0 .91.43 7.47 7.47 0 0 1 2.36 1.46 2.7 2.7 0 0 1 .68 1.84 2.64 2.64 0 0 1-2 2.66 6.21 6.21 0 0 1-1.89.27 7.26 7.26 0 0 1-3.36-.71c0 .4-.1.62-.3.69h-.32v-3.46h.78c-.02 1.82.89 2.76 2.69 2.77zM932.47 181a7 7 0 0 1-3.33 4.65 6.94 6.94 0 0 1-5.25.64 7.11 7.11 0 0 1-3.9-2.45 6.87 6.87 0 0 1-1.17-6.31 9 9 0 0 1 2.09-4 2.07 2.07 0 0 1-.57-.16c-.21-.13-.27-.39-.18-.77l4.36 1-.19.78a9.64 9.64 0 0 0-2.3.29 3.39 3.39 0 0 0-2.46 2.64q-1 3.93 5.08 5.46a15.47 15.47 0 0 0 3.17.51c2.24.06 3.59-.85 4-2.71a5.31 5.31 0 0 0 .17-1.32c0-1.48-1-2.74-2.92-3.8l.18-.72 4.34 1.08a1.61 1.61 0 0 1-.14.38q-.19.38-1 .15a9.67 9.67 0 0 1 .02 4.66zM933.43 168.6a3.05 3.05 0 0 1 1.25 3.54 4.27 4.27 0 0 1-.43 1.09 2.46 2.46 0 0 1-3 1.09c-1.92-.5-2.44-2.64-1.58-6.44l-1.43-.35a6 6 0 0 0-1.12-.19c-.88-.06-1.4.25-1.57.94a1.45 1.45 0 0 0 0 .58c.08.29.4.59.95.89.19.11.33.19.41.25a1.29 1.29 0 0 1 .6 1.51 1.18 1.18 0 0 1-.17.4 1 1 0 0 1-1.28.54 1.36 1.36 0 0 1-.66-.37c-.74-.73-.86-2.1-.36-4.09a6.78 6.78 0 0 1 .51-1.4 3.24 3.24 0 0 1 4-1.71l4.6 1.15q1.06.25 1.23-.21c.09-.43-.36-.82-1.35-1.16l.16-.57a6.31 6.31 0 0 1 1.08.48 1.93 1.93 0 0 1 .67 2.3 2.41 2.41 0 0 1-2.51 1.73zm.61 1.79c-.08-.68-.6-1.28-1.56-1.82l-2.14-.53a6.85 6.85 0 0 0-.16 1.69 1.85 1.85 0 0 0 1.6 1.66c1.28.31 2 .1 2.24-.63a1.45 1.45 0 0 0-.02-.37zM941.37 159.78a1.34 1.34 0 0 1 .09-.26c.07-.18.28-.23.62-.15l-1.43 5.73-.57-.14q.06-.28.09-.54c0-.51-.29-.84-.93-1l-11.37-2.84-.32 1.26-.57-.14 1-3.91 2.15.42a3.82 3.82 0 0 1-1.57-4.14 3.45 3.45 0 0 1 1.2-1.9 4.88 4.88 0 0 1 4.48-.66 6 6 0 0 1 3.34 2 4.4 4.4 0 0 1 .8 3.92 3.58 3.58 0 0 1-1.67 2.38l4.41 1.09zm-11.85-3c.58 1 1.79 1.71 3.63 2.17a7.07 7.07 0 0 0 2.59.22 2 2 0 0 0 1.9-1.42c.32-1.36-1-2.4-3.86-3.14-2.64-.66-4.14-.36-4.48.9a1.69 1.69 0 0 0 .22 1.27zM940.47 145.62q.12-.27.63-.15l-1.56 6.24-.57-.14a3.67 3.67 0 0 0 .08-.52c0-.53-.26-.88-.91-1l-7.19-1.8-.32 1.28-.57-.14 1-3.86 2.09.36a4.35 4.35 0 0 1-1-1 3.33 3.33 0 0 1-.48-2.68 2.41 2.41 0 0 1 .2-.53 1.47 1.47 0 0 1 2.22-.45 1.33 1.33 0 0 1 .53 1.46 2 2 0 0 1-.19.47 1.89 1.89 0 0 1-1.1.64c-.38.11-.59.24-.63.4a.64.64 0 0 0 0 .31c.18.73 1 1.34 2.54 1.82l4.76 1.19.41-1.63a1.35 1.35 0 0 1 .06-.27zM931.32 135.36a1.7 1.7 0 0 1 .07 2.36 1.51 1.51 0 0 1-1.62.5 1.8 1.8 0 0 1-.75-.39 1.61 1.61 0 0 1-.5-1.65 1.57 1.57 0 0 1 .42-.74 1.56 1.56 0 0 1 1.64-.5 1.57 1.57 0 0 1 .74.42zm11.3 1.67c.07-.19.28-.24.62-.15l-1.35 5.42-.58-.14a2.84 2.84 0 0 0 .09-.52c0-.54-.27-.89-.91-1l-7.19-1.79-.32 1.28-.57-.14 1-4.08 8.91 2.22.2-.82a1.23 1.23 0 0 1 .1-.31zM935.55 132.41a5.19 5.19 0 0 1-.58-4.18 5.79 5.79 0 0 1 1.4-2.69 2.11 2.11 0 0 1 2-.75 1.43 1.43 0 0 1 .34.14 1.29 1.29 0 0 1 .49 1.59 1.4 1.4 0 0 1-.43.79 2 2 0 0 1-1.43.2h-.62a1.13 1.13 0 0 0-1.2 1 1.68 1.68 0 0 0 0 .89c.27.89 1.65 1.65 4.12 2.26a8.8 8.8 0 0 0 3 .34 2 2 0 0 0 1.88-1.68 4.33 4.33 0 0 0 .11-1.2 3.38 3.38 0 0 0-1.27-2.53l.3-.54a3.5 3.5 0 0 1 .9.9 4.63 4.63 0 0 1 .51 3.88 6.19 6.19 0 0 1-1.21 2.48 4.64 4.64 0 0 1-5 1.35 5.06 5.06 0 0 1-3.31-2.25zM939.34 115.15a4.79 4.79 0 0 1 4.29-.78 5.35 5.35 0 0 1 3 1.92 5.27 5.27 0 0 1-8.32 6.48 5.16 5.16 0 0 1-.81-4.63 5.33 5.33 0 0 1 1.84-2.99zm5.73 6.89a1.76 1.76 0 0 0 1.85-1.41 1.9 1.9 0 0 0-.15-1.38c-.42-.69-1.71-1.31-3.85-1.84a11.93 11.93 0 0 0-3-.47 1.79 1.79 0 0 0-1.88 1.45 1.73 1.73 0 0 0 .18 1.43c.45.64 1.7 1.22 3.76 1.73a12.39 12.39 0 0 0 3.09.45zM949.75 108.41c.08-.19.29-.24.62-.15l-1.55 6.24-.57-.14a4.16 4.16 0 0 0 .08-.52c0-.54-.27-.89-.91-1l-7.19-1.84-.32 1.28-.57-.15 1-3.85 2.09.35a3.81 3.81 0 0 1-1-1 3.31 3.31 0 0 1-.48-2.67 2.49 2.49 0 0 1 .2-.54 1.36 1.36 0 0 1 1.66-.73 1.48 1.48 0 0 1 .56.28 1.34 1.34 0 0 1 .53 1.47 2.2 2.2 0 0 1-.19.47 2 2 0 0 1-1.1.64c-.38.1-.6.24-.64.4a.76.76 0 0 0 0 .3c.18.73 1 1.34 2.54 1.83l4.76 1.19.41-1.64a1.55 1.55 0 0 1 .07-.22zM951.8 100.18c.08-.18.29-.23.62-.14l-1.28 5.15-.57-.14c0-.12 0-.23.06-.33a1 1 0 0 0-.89-1.23l-7.19-1.8-.32 1.28-.57-.14 1-3.92 1.74.31a3.49 3.49 0 0 1-.64-.72 3.62 3.62 0 0 1-.59-3 3.42 3.42 0 0 1 .45-1.06q1.17-1.77 3.9-1.09l5.64 1.41.18-.73.09-.26c.08-.18.29-.23.63-.14l-1.27 5.09-.58-.14a1.92 1.92 0 0 0 .07-.55q0-.53-1-.75L946.43 96a3.37 3.37 0 0 0-.61-.1c-1-.1-1.64.27-1.85 1.1a1.56 1.56 0 0 0 0 .68 2.65 2.65 0 0 0 2 1.85l5.64 1.43.14-.55a1.35 1.35 0 0 1 .05-.23zM474.61 422.59h-1.4v9.51h.93a.53.53 0 0 1 .47.47h-5.14v-.47h1.39v-8.27l-3.74 8.91h-.31l-3.71-7.21v6.57h.9a.53.53 0 0 1 .47.47H461v-.47h1.39v-9.51H461v-.47h3.11l3.66 7.49 3.11-7.49h3.75zM479.27 432.13c.15 0 .23.17.23.44h-4.28v-.46a2.41 2.41 0 0 0 .4 0c.4-.07.61-.36.61-.87v-5.68h-1v-.45h3.22v7h.64zm-.85-8.7a1.21 1.21 0 0 1-1.13.64 1.34 1.34 0 0 1-.61-.15 1.19 1.19 0 0 1-.68-1.12 1.28 1.28 0 0 1 .16-.63 1.21 1.21 0 0 1 1.13-.67 1.14 1.14 0 0 1 .62.17 1.19 1.19 0 0 1 .68 1.13 1.29 1.29 0 0 1-.17.63zM484.89 432.13c.15 0 .23.17.23.44h-4.93v-.46a2.33 2.33 0 0 0 .4 0c.41-.07.61-.36.61-.87v-5.68h-1v-.45h3.05l.12 1.62a3.11 3.11 0 0 1 .56-.91 2.58 2.58 0 0 1 1.9-.85 2 2 0 0 1 .43.05 1 1 0 0 1 .85 1.1 1.1 1.1 0 0 1-.1.47 1 1 0 0 1-1 .66 1.6 1.6 0 0 1-.39-.05 1.48 1.48 0 0 1-.68-.7c-.15-.26-.29-.4-.41-.4a.53.53 0 0 0-.23.06c-.51.26-.81 1-.89 2.22v3.76h1.29zM492.19 431.16a3.39 3.39 0 0 1-.23.47 2.39 2.39 0 0 1-2.18 1.11 3 3 0 0 1-.88-.12 1.87 1.87 0 0 1-1.36-2q0-2.28 4.49-2.36v-1.13a5.5 5.5 0 0 0-.07-.88q-.18-1-1-1a1 1 0 0 0-.44.09 1.45 1.45 0 0 0-.49.87c0 .16-.08.28-.1.35a1 1 0 0 1-1 .73 1.14 1.14 0 0 1-.33-.05.8.8 0 0 1-.64-.86 1.08 1.08 0 0 1 .15-.55c.41-.69 1.4-1 3-1a5.09 5.09 0 0 1 1.13.12 2.48 2.48 0 0 1 2 2.68v3.64c0 .56.13.85.38.87s.54-.42.61-1.22h.45a4.54 4.54 0 0 1-.15.89 1.47 1.47 0 0 1-1.59.92 1.82 1.82 0 0 1-1.75-1.57zm-1.22.78a2 2 0 0 0 1.06-1.5v-1.69a5.3 5.3 0 0 0-1.29.2 1.42 1.42 0 0 0-.94 1.49c0 1 .31 1.53.89 1.55a1.11 1.11 0 0 0 .31-.05zM552 473.33a5.4 5.4 0 0 1-4.07-1.61 5.32 5.32 0 0 1-1.44-3.78 5.43 5.43 0 0 1 1.09-3.36 5.3 5.3 0 0 1 4.48-2 7 7 0 0 1 3.34.82 2.12 2.12 0 0 1 0-.45c.06-.19.24-.28.54-.28l.06 3.43h-.61a7.08 7.08 0 0 0-.65-1.65 2.6 2.6 0 0 0-2.42-1.34q-3.09 0-3.11 4.78a12.18 12.18 0 0 0 .21 2.46c.37 1.67 1.29 2.5 2.76 2.5a3.89 3.89 0 0 0 1-.12c1.09-.3 1.85-1.26 2.28-2.87h.58v3.43a.9.9 0 0 1-.31 0c-.21 0-.31-.29-.3-.73a7.4 7.4 0 0 1-3.43.77zM563.79 471.91a3.16 3.16 0 0 1-2.92 1.42 4.27 4.27 0 0 1-2-.47 3.61 3.61 0 0 1-1.9-3.51 4.09 4.09 0 0 1 .83-2.6 3.76 3.76 0 0 1 3.07-1.34 4.92 4.92 0 0 1 1.93.37 2.25 2.25 0 0 1 1.51 2.16 1.33 1.33 0 0 1-.1.54c-.3.65-1.39.94-3.26.89l-1.6-.06a8.46 8.46 0 0 0 .18 1.74c.26 1.19.86 1.78 1.79 1.78a2.29 2.29 0 0 0 .85-.16 2.58 2.58 0 0 0 1.53-1.44l.42.14a2.78 2.78 0 0 1-.33.54zm-4.49-3.1l1.12.05a2.76 2.76 0 0 0 1-.09c.33-.12.49-.46.49-1 0-1.24-.39-1.87-1.13-1.89-.89.02-1.4 1-1.48 2.93zM564.94 465.76h1.2v-1.65l2.21-.37v2h2.3v.46h-2.3v5.27a2 2 0 0 0 0 .43c.09.61.35.91.78.91h.21c.45-.09.79-.61 1-1.55l.47.07a3.85 3.85 0 0 1-.39 1.15 1.94 1.94 0 0 1-1.84.87 3 3 0 0 1-.42 0c-1.39-.16-2.09-1.08-2.09-2.76v-4.35h-1.2zM580.19 472.72c.14 0 .21.18.21.44h-3.1l-.09-1.43-.1.21a2.61 2.61 0 0 1-2.39 1.39c-1.63 0-2.46-.95-2.49-2.83v-4.37h-1v-.45h3.22v5.11a3.43 3.43 0 0 0 0 .47c.12.78.5 1.17 1.17 1.17a1.27 1.27 0 0 0 .52-.12 2 2 0 0 0 1-1.8v-4.38h-.86v-.45h3.07v7h.8zM273.28 232.81l.55-.27.95 1.94 11.15-5.48-.17-.35a2.75 2.75 0 0 0-.85-1.05 3.26 3.26 0 0 0-2.28-.33l-2.15.26-.3-.61 4.42-2.05 5.15 10.58-4.33 2.21-.29-.61 1.52-1.53c.22-.22.4-.42.55-.6a2.37 2.37 0 0 0 .29-2.72l-.17-.34-11.15 5.44.68 1.38a.69.69 0 0 1-.28.82zM282.2 246.91a3.86 3.86 0 0 1-.68 0A3.11 3.11 0 0 1 279 245a3.59 3.59 0 0 1-.36-1.11 2.42 2.42 0 0 1 1.55-2.72q2.68-1.29 5.34 3.91l1.33-.65a5.39 5.39 0 0 0 1-.58c.71-.51.91-1.09.6-1.73a1.37 1.37 0 0 0-.35-.46 1.81 1.81 0 0 0-1.3-.07l-.47.07a1.3 1.3 0 0 1-1.44-.76 1.66 1.66 0 0 1-.12-.42 1.05 1.05 0 0 1 .63-1.25 1.44 1.44 0 0 1 .74-.13c1 .09 2 1 2.91 2.9a6.57 6.57 0 0 1 .5 1.4 3.22 3.22 0 0 1-2 3.9l-4.26 2.09c-.66.31-.92.63-.81.94s.8.4 1.78 0l.24.54a5.82 5.82 0 0 1-1.13.33 1.93 1.93 0 0 1-2-1.33 2.39 2.39 0 0 1 .82-2.96zm-1.61-1a2.61 2.61 0 0 0 2.36.38l2-1a6.26 6.26 0 0 0-1-1.4 1.85 1.85 0 0 0-2.29-.25c-1.18.59-1.62 1.23-1.31 1.93a1.26 1.26 0 0 0 .24.36zM288.39 262.5c0 .18-.09.34-.39.49l-1.77-3.64 1.62-.91h-.3a3.41 3.41 0 0 1-3-2c-.92-1.92-.29-3.44 1.9-4.54l5.13-2.5-.58-1.2.53-.26 1.85 3.78-6 2.93a3.88 3.88 0 0 0-.53.31 1.49 1.49 0 0 0-.7 2 1.59 1.59 0 0 0 .44.54 2.66 2.66 0 0 0 2.67.14l5.16-2.49-.49-1 .53-.26 1.75 3.59-8.25 4 .34.69a1.24 1.24 0 0 1 .09.33zM291.6 269.07c.06.19-.07.36-.38.52l-2.82-5.78.53-.26a4.45 4.45 0 0 0 .27.45 1 1 0 0 0 1.37.21l6.66-3.24-.58-1.19.53-.26 1.74 3.58-1.83 1.07a4.05 4.05 0 0 1 1.38.13 3.37 3.37 0 0 1 2.09 1.74 2.32 2.32 0 0 1 .19.54 1.36 1.36 0 0 1-.8 1.63 1.57 1.57 0 0 1-.61.15 1.35 1.35 0 0 1-1.35-.79 1.77 1.77 0 0 1-.15-.48 1.85 1.85 0 0 1 .43-1.19c.22-.33.3-.57.23-.72a.84.84 0 0 0-.19-.24c-.61-.45-1.65-.37-3.13.23l-4.41 2.16.74 1.51a1.36 1.36 0 0 1 .09.23zM298.19 282.59c0 .18-.09.35-.39.5l-1.8-3.64 1.62-.92h-.3a3.43 3.43 0 0 1-3-2c-.92-1.93-.29-3.44 1.9-4.55l5.13-2.5-.58-1.18.53-.26 1.85 3.78-6 2.93a3.07 3.07 0 0 0-.53.31 1.48 1.48 0 0 0-.7 2 1.52 1.52 0 0 0 .44.54 2.61 2.61 0 0 0 2.67.14l5.16-2.49-.49-1 .53-.26 1.76 3.6-8.26 4 .34.7a1.18 1.18 0 0 1 .12.3zM300.32 287.32c.45.91 1 1.27 1.75 1.09a1.69 1.69 0 0 0 .27-.11 2.23 2.23 0 0 0 1.1-2.15 9.12 9.12 0 0 0 0-1.13 6.64 6.64 0 0 1 .26-2.63 2.43 2.43 0 0 1 1.19-1.24 2.63 2.63 0 0 1 3.28.76 6.33 6.33 0 0 1 1.13 1.64 5.13 5.13 0 0 1 .64 2.77c.41-.19.7-.18.86 0a.86.86 0 0 1 .1.16l-2.56 1.24-.32-.65a2 2 0 0 0 .9-2.94c-.43-.87-1-1.27-1.65-1.19a1.71 1.71 0 0 0-.44.13c-.58.29-.88.94-.89 2v1a7.47 7.47 0 0 1-.27 2.76 2.68 2.68 0 0 1-1.35 1.42 2.63 2.63 0 0 1-3.29-.67A5.84 5.84 0 0 1 300 288a7.07 7.07 0 0 1-.84-3.33c-.36.18-.6.19-.75 0l-.16-.28 3.11-1.51.34.69c-1.7.88-2.16 2.12-1.38 3.75zM604.43 386.42l-.17-.59 1.74-.51-3.48-11.91-1.74.51-.17-.59 7.28-2.13a5.94 5.94 0 0 1 2.63-.22 3.18 3.18 0 0 1 2.7 2.41 4 4 0 0 1 .15 1.59q-.25 2.65-4 3.76l-1.78.52 1.51 5.17 1.59-.47a.7.7 0 0 1 .76.42zm1.15-13.9l1.77 6.08 1.16-.33q2.32-.7 1.49-3.73c-.6-2-1.66-2.8-3.18-2.38zM617.34 370a1.61 1.61 0 0 1-1.15 1.26 1.73 1.73 0 0 1-.82 0 1.53 1.53 0 0 1-1.29-1.11 1.72 1.72 0 0 1-.06-.84 1.6 1.6 0 0 1 1.13-1.3 1.63 1.63 0 0 1 .85 0 1.58 1.58 0 0 1 1.3 1.13 1.63 1.63 0 0 1 .04.86zm4.56 10.47q.29 0 .45.45l-5.35 1.75-.18-.56a2.49 2.49 0 0 0 .49-.21c.47-.25.61-.69.4-1.32l-2.28-7.05-1.25.41-.19-.57 4-1.29 2.83 8.73.8-.26zM627.06 378.89c1-.33 1.39-.87 1.29-1.61a1.87 1.87 0 0 0-.08-.28 2.22 2.22 0 0 0-2-1.34 8.84 8.84 0 0 0-1.12-.11 6.65 6.65 0 0 1-2.58-.57 2.35 2.35 0 0 1-1.09-1.32 2.63 2.63 0 0 1 1.12-3.17 6.45 6.45 0 0 1 1.77-.93 5.17 5.17 0 0 1 2.83-.32c-.15-.43-.11-.71.14-.84a.48.48 0 0 1 .16-.08l.94 2.68-.69.24a2 2 0 0 0-2.81-1.23c-.92.32-1.37.82-1.38 1.49a1.79 1.79 0 0 0 .09.46c.21.61.83 1 1.83 1.11.21 0 .54.07 1 .11a7.39 7.39 0 0 1 2.72.58 2.71 2.71 0 0 1 1.25 1.52 2.62 2.62 0 0 1-1.05 3.18 6 6 0 0 1-1.69.88 7.32 7.32 0 0 1-3.41.45c.14.37.12.62 0 .74a1.57 1.57 0 0 1-.29.13l-1.15-3.26.73-.25c.59 1.74 1.77 2.33 3.47 1.74zM631.06 368.81a5.16 5.16 0 0 1 3.08-2.87 5.69 5.69 0 0 1 3-.41 2.11 2.11 0 0 1 1.75 1.2 1.12 1.12 0 0 1 .09.36q.06.9-1 1.32a1.52 1.52 0 0 1-.89.1c-.32-.09-.65-.44-1-1.06-.15-.25-.26-.43-.33-.53a1.14 1.14 0 0 0-1.48-.43 1.72 1.72 0 0 0-.73.51c-.57.74-.4 2.29.51 4.67a8.72 8.72 0 0 0 1.43 2.62 2 2 0 0 0 2.45.56 3.75 3.75 0 0 0 1-.6 3.38 3.38 0 0 0 1.35-2.49l.61-.07a3.63 3.63 0 0 1-.22 1.26 4.61 4.61 0 0 1-2.88 2.64 6.11 6.11 0 0 1-2.73.45 4.64 4.64 0 0 1-4-3.36 5 5 0 0 1-.01-3.87zM650.41 368.4a4.14 4.14 0 0 1-2.79 3.21 5.7 5.7 0 0 1-2.7.48 4.73 4.73 0 0 1-4.08-3.25 5.33 5.33 0 0 1-.32-3.55 4.93 4.93 0 0 1 3-3.17 6.18 6.18 0 0 1 2.51-.54 2.92 2.92 0 0 1 2.97 1.82 1.76 1.76 0 0 1 .15.7q0 1.39-3.46 2.72l-1.95.76a11.73 11.73 0 0 0 1.1 2c.92 1.29 1.94 1.69 3.06 1.22a3.07 3.07 0 0 0 .94-.62 3.44 3.44 0 0 0 1.11-2.52l.57-.05a3.51 3.51 0 0 1-.11.79zm-7-1.43l1.37-.5a3.77 3.77 0 0 0 1.21-.64c.32-.32.35-.81.07-1.46-.65-1.49-1.42-2.06-2.33-1.7-1.08.51-1.18 1.95-.3 4.33zM656.27 367.08c.92-.43 1.29-1 1.12-1.73a2.31 2.31 0 0 0-.1-.28 2.25 2.25 0 0 0-2.13-1.14 10.33 10.33 0 0 0-1.13 0 6.52 6.52 0 0 1-2.62-.31 2.4 2.4 0 0 1-1.22-1.21 2.62 2.62 0 0 1 .82-3.26 6 6 0 0 1 1.67-1.1 5.06 5.06 0 0 1 2.78-.59c-.19-.41-.17-.7.06-.86l.15-.09 1.2 2.57-.66.31a2 2 0 0 0-2.92-.95q-1.32.62-1.23 1.62a1.5 1.5 0 0 0 .13.44c.27.59.92.9 1.93.93a7.74 7.74 0 0 0 1 0 7.64 7.64 0 0 1 2.76.33 2.68 2.68 0 0 1 1.39 1.38 2.63 2.63 0 0 1-.74 3.27 6 6 0 0 1-1.59 1 7.35 7.35 0 0 1-3.35.78c.16.36.17.6 0 .74a2.32 2.32 0 0 1-.28.16l-1.42-3.09.7-.32c.81 1.68 2.03 2.14 3.68 1.4zM866.64 361l-.35-.32.94-1-7-6.44-1 1-.34-.32 3.94-4.28a4.42 4.42 0 0 1 1.64-1.18 2.42 2.42 0 0 1 2.72.51 3.34 3.34 0 0 1 .73 1c.58 1.24.19 2.59-1.17 4.07l-1 1 3 2.79.87-.93a.53.53 0 0 1 .66 0zm-4.74-9.58l3.57 3.29.62-.68c.84-.92.67-1.93-.49-3s-2.19-1.18-3-.31zM868.54 345.26a1.21 1.21 0 0 1-.27 1.27 1.26 1.26 0 0 1-.52.35 1.15 1.15 0 0 1-1.28-.23 1.24 1.24 0 0 1-.37-.53 1.27 1.27 0 0 1 .79-1.65 1.18 1.18 0 0 1 1.29.24 1.2 1.2 0 0 1 .36.55zm7.08 5.12q.18-.15.48.12l-2.83 3.21-.34-.3a2.09 2.09 0 0 0 .24-.33c.21-.35.13-.69-.25-1l-4.25-3.76-.67.76-.34-.3 2.13-2.41 5.27 4.65.43-.48a.8.8 0 0 1 .13-.16zM878.28 347.48c.51-.6.59-1.12.24-1.57l-.16-.16a1.73 1.73 0 0 0-1.85-.11 8.24 8.24 0 0 0-.79.36 4.92 4.92 0 0 1-1.92.62 1.79 1.79 0 0 1-1.24-.45 2 2 0 0 1-.47-2.53 4.81 4.81 0 0 1 .81-1.3 4 4 0 0 1 1.75-1.3c-.27-.23-.35-.43-.24-.61a.5.5 0 0 1 .08-.12l1.66 1.41-.37.42a1.52 1.52 0 0 0-2.33.28c-.48.56-.6 1.07-.34 1.52a1.47 1.47 0 0 0 .23.26 1.5 1.5 0 0 0 1.65 0c.15-.05.38-.16.7-.31a5.63 5.63 0 0 1 2-.66 2.13 2.13 0 0 1 1.95 3 4.56 4.56 0 0 1-.78 1.24 5.7 5.7 0 0 1-2.08 1.61c.23.19.31.36.25.51a1.12 1.12 0 0 1-.15.19l-2-1.71.39-.45a1.91 1.91 0 0 0 3.01-.14zM876.9 339.45a3.94 3.94 0 0 1 1-3.08 4.35 4.35 0 0 1 1.85-1.41 1.63 1.63 0 0 1 1.62.13 1.29 1.29 0 0 1 .19.21 1 1 0 0 1-.18 1.26 1.14 1.14 0 0 1-.55.41 1.56 1.56 0 0 1-1.06-.33l-.42-.23a.87.87 0 0 0-1.15.28 1.27 1.27 0 0 0-.29.61c-.1.71.6 1.68 2.11 2.91a6.63 6.63 0 0 0 1.94 1.2 1.55 1.55 0 0 0 1.85-.55 3 3 0 0 0 .46-.79 2.59 2.59 0 0 0 0-2.18l.38-.27a2.65 2.65 0 0 1 .32.92 3.52 3.52 0 0 1-.9 2.85 4.76 4.76 0 0 1-1.65 1.33 3.53 3.53 0 0 1-3.93-.71 3.86 3.86 0 0 1-1.59-2.56zM881 330.19a1.22 1.22 0 0 1-.19 1.29 1.36 1.36 0 0 1-.5.38 1.17 1.17 0 0 1-1.3-.15 1.39 1.39 0 0 1-.39-.51 1.22 1.22 0 0 1 .16-1.31 1.23 1.23 0 0 1 .52-.38 1.19 1.19 0 0 1 1.31.16 1.26 1.26 0 0 1 .39.52zm7.37 4.7q.17-.15.48.09l-2.64 3.37-.36-.28a1.71 1.71 0 0 0 .22-.33.74.74 0 0 0-.3-1l-4.47-3.5-.62.79-.36-.28 2-2.53 5.53 4.34.4-.51zM890.85 331.84c.47-.62.52-1.14.15-1.57l-.17-.15a1.74 1.74 0 0 0-1.86 0c-.17.08-.42.21-.76.41a5 5 0 0 1-1.89.73 1.77 1.77 0 0 1-1.25-.38 2 2 0 0 1-.63-2.5 4.83 4.83 0 0 1 .74-1.34 3.83 3.83 0 0 1 1.67-1.4q-.42-.31-.27-.6a.37.37 0 0 1 .07-.12l1.73 1.31-.33.44a1.53 1.53 0 0 0-2.32.41c-.45.6-.53 1.11-.25 1.54a1.48 1.48 0 0 0 .25.25 1.52 1.52 0 0 0 1.64-.06l.69-.36a5.47 5.47 0 0 1 2-.77 2.07 2.07 0 0 1 1.44.43 2 2 0 0 1 .68 2.48 5 5 0 0 1-.71 1.28 5.55 5.55 0 0 1-2 1.73c.24.18.33.34.28.49s-.08.13-.13.21l-2.11-1.6.35-.47a1.92 1.92 0 0 0 2.99-.39zM899.18 320.89l-.38-.27.7-1-3.48-.84-2 2.84 2 2.94.55-.8.13-.14c.1-.11.27-.09.5.07l-1.83 2.63-.37-.32.64-.92-6-8.83.74-1.06 10.53 2.34.3-.42a1 1 0 0 1 .12-.15c.11-.11.27-.09.5.07zm-7.88-3.28l2.42 3.52 1.75-2.5zM906.46 309.17q.16-.15.48.06l-1.69 2.6-1.25-.71.12.2a2.61 2.61 0 0 1-.13 2.76c-.91 1.36-2.15 1.54-3.74.54l-3.66-2.39-.55.85-.38-.25 1.76-2.7 4.29 2.8a2.32 2.32 0 0 0 .41.22 1.13 1.13 0 0 0 1.61-.34 1.16 1.16 0 0 0 .19-.5 2 2 0 0 0-1-1.81l-3.66-2.41-.47.72-.37-.25 1.67-2.57 5.89 3.84.32-.5zM908.6 305.92c.4-.66.4-1.19 0-1.58l-.19-.13a1.72 1.72 0 0 0-1.84.17q-.24.14-.72.48a5.14 5.14 0 0 1-1.81.91 1.8 1.8 0 0 1-1.29-.26 2 2 0 0 1-.86-2.43 5 5 0 0 1 .6-1.41 4 4 0 0 1 1.53-1.55c-.3-.18-.4-.37-.32-.57a.43.43 0 0 1 0-.12l1.86 1.13-.29.48a1.53 1.53 0 0 0-2.27.63c-.39.63-.42 1.15-.1 1.55a1.18 1.18 0 0 0 .27.23 1.52 1.52 0 0 0 1.63-.22 7.61 7.61 0 0 0 .65-.43 5.81 5.81 0 0 1 1.89-.95 2.05 2.05 0 0 1 1.48.29 2 2 0 0 1 .91 2.4 4.43 4.43 0 0 1-.58 1.34 5.47 5.47 0 0 1-1.8 1.91c.25.16.36.32.32.47a1.12 1.12 0 0 1-.11.22l-2.25-1.39.31-.5a1.92 1.92 0 0 0 2.98-.67zM904.61 298.86l.61-1-1.43-.84.8-2.09 1.75 1 1.16-2 .39.23-1.16 2 4.55 2.66a2.33 2.33 0 0 0 .39.19c.57.23 1 .15 1.18-.22l.09-.18c.15-.44-.13-1-.82-1.67l.3-.37a3.68 3.68 0 0 1 .79.91 2 2 0 0 1-.18 2c-.07.12-.14.24-.22.35q-1.27 1.68-3.45.4l-3.75-2.19-.61 1zM916.09 292.84c.09-.12.25-.11.49 0l-2.4 4.3-.4-.22a1.72 1.72 0 0 0 .17-.37c.14-.39 0-.7-.47-.95l-5-2.76-.49.88-.4-.22 1.48-2.66 1.48.68a2.83 2.83 0 0 1-.52-.93 2.55 2.55 0 0 1 .17-2.07 1.87 1.87 0 0 1 .26-.35 1 1 0 0 1 1.37-.22 1 1 0 0 1 .36.32 1 1 0 0 1 .1 1.19 1.56 1.56 0 0 1-.23.31 1.49 1.49 0 0 1-.94.26c-.31 0-.49.05-.55.17a.48.48 0 0 0-.07.22c0 .57.49 1.19 1.52 1.86l3.28 1.83.7-1.11a.91.91 0 0 1 .09-.16zM918.37 288.39a1.17 1.17 0 0 1 0 1.26 1.15 1.15 0 0 1-.39.43 1.12 1.12 0 0 1-1.26.07 1.17 1.17 0 0 1-.44-.39 1.14 1.14 0 0 1-.08-1.26 1.33 1.33 0 0 1 .4-.45 1.17 1.17 0 0 1 1.27-.06 1.27 1.27 0 0 1 .5.4zM258.34 276.1a5.09 5.09 0 0 1-2.08 4.35 5.16 5.16 0 0 1-4 1.23 5.59 5.59 0 0 1-3.61-2.08 5.66 5.66 0 0 1-1.35-3.48 5.51 5.51 0 0 1 6.09-5.44 5.6 5.6 0 0 1 3.62 2.09 5.72 5.72 0 0 1 1.33 3.33zm-8.18 4q1.56.51 4.43-1.85a11.21 11.21 0 0 0 1.86-1.87 2.6 2.6 0 0 0-.74-4q-1.65-.87-4.73 1.67a9.34 9.34 0 0 0-2.22 2.39 2.36 2.36 0 0 0 .28 2.89 2.42 2.42 0 0 0 1.12.8zM256.26 287.64c.09.13 0 .28-.18.46l-3.23-3.71.34-.3a1.88 1.88 0 0 0 .29.28.75.75 0 0 0 1.05-.11l4.28-3.73-.67-.77.34-.29 2 2.29-1.14 1.16a3 3 0 0 1 1-.18 2.6 2.6 0 0 1 1.9.87 1.74 1.74 0 0 1 .24.36 1.05 1.05 0 0 1-.26 1.37 1.37 1.37 0 0 1-.43.23 1 1 0 0 1-1.15-.32 1.26 1.26 0 0 1-.21-.32 1.48 1.48 0 0 1 .08-1c.1-.29.11-.48 0-.58a.7.7 0 0 0-.19-.13c-.54-.21-1.29.05-2.26.79l-2.84 2.48.85 1a.72.72 0 0 1 .19.15zM260.75 292.65c.09.13 0 .28-.17.46l-2.87-3.18.33-.3a2.35 2.35 0 0 0 .3.27c.32.26.67.21 1.05-.13l4.21-3.77-.68-.74.34-.31 2.16 2.39-5.21 4.66.43.47zm5.88-6.47a1.24 1.24 0 0 1-1.24-.41 1.36 1.36 0 0 1-.29-.56 1.17 1.17 0 0 1 .37-1.25 1.31 1.31 0 0 1 .57-.3 1.21 1.21 0 0 1 1.26.38 1.24 1.24 0 0 1 .3.58 1.29 1.29 0 0 1-1 1.56zM270.73 293.8a3.69 3.69 0 0 1-1.28 3.09A4.05 4.05 0 0 1 267 298a3.89 3.89 0 0 1-3.28-1.33 3.84 3.84 0 0 1 .22-5.62 3.81 3.81 0 0 1 5.64.3 4 4 0 0 1 1.15 2.45zm-6.81.85a1.35 1.35 0 0 0 .14 1.78 1.42 1.42 0 0 0 .95.47c.62 0 1.55-.56 2.78-1.72a9.22 9.22 0 0 0 1.54-1.74 1.37 1.37 0 0 0-.16-1.82 1.33 1.33 0 0 0-1-.47q-.9 0-2.67 1.71a9.37 9.37 0 0 0-1.58 1.79zM270.21 302.55c.09.12 0 .27-.15.46l-2.88-2.88.32-.32a1 1 0 0 0 .2.17.78.78 0 0 0 1.16-.09l4-4-.71-.72.32-.32 2.19 2.19-.9 1a2.71 2.71 0 0 1 .72-.14 2.8 2.8 0 0 1 2.76 1.53c.47 1 .19 2-.83 3l-3.15 3.15.41.4a1.83 1.83 0 0 1 .13.16c.09.13 0 .28-.15.47l-2.84-2.84.32-.32a2.18 2.18 0 0 0 .33.26c.24.12.53 0 .88-.34l2.72-2.71c.11-.12.22-.24.31-.36a1.14 1.14 0 0 0 0-1.65 1.16 1.16 0 0 0-.44-.27 2 2 0 0 0-2 .56l-3.16 3.14.3.31zM148.4 58.07a5.37 5.37 0 0 1 1.12-4.24A5.25 5.25 0 0 1 153.1 52a5.5 5.5 0 0 1 3.46.68 5.33 5.33 0 0 1 2.56 4.2 7 7 0 0 1-.42 3.42 2 2 0 0 1 .45 0c.19 0 .31.21.34.51l-3.39.46-.08-.61a6.88 6.88 0 0 0 1.57-.84 2.61 2.61 0 0 0 1-2.56c-.26-2.05-2-2.89-5.12-2.52a11.49 11.49 0 0 0-2.41.5c-1.62.56-2.34 1.58-2.16 3a3.59 3.59 0 0 0 .24 1q.65 1.57 3.12 1.92l.07.57-3.41.41a1.58 1.58 0 0 1 0-.31c0-.22.25-.34.69-.39a7.41 7.41 0 0 1-1.21-3.37zM151.22 67.07a2.21 2.21 0 0 1-.5-.15 2.4 2.4 0 0 1-1.42-2 3 3 0 0 1 0-.9 1.88 1.88 0 0 1 1.77-1.63c1.5-.21 2.5 1.15 3 4.1l1.12-.17a4.72 4.72 0 0 0 .85-.19c.64-.22.92-.59.84-1.13a1 1 0 0 0-.15-.42 1.35 1.35 0 0 0-.93-.35l-.36-.06a1 1 0 0 1-.87-.89.91.91 0 0 1 0-.33.79.79 0 0 1 .75-.76 1.05 1.05 0 0 1 .58.07c.73.3 1.22 1.23 1.45 2.79a4.91 4.91 0 0 1 0 1.14 2.48 2.48 0 0 1-2.35 2.4l-3.59.53q-.82.12-.81.51c.06.33.49.47 1.3.42v.45a5.09 5.09 0 0 1-.9 0q-1-.18-1.14-1.44a1.83 1.83 0 0 1 1.36-1.99zm-.95-1.07a2 2 0 0 0 1.63.83l1.67-.24a5.37 5.37 0 0 0-.37-1.25 1.44 1.44 0 0 0-1.62-.71c-1 .16-1.47.53-1.41 1.1a1.3 1.3 0 0 0 .1.27zM151.48 74.81q0 .24-.39.3l-.7-4 .45-.08a1.1 1.1 0 0 0 .06.26.78.78 0 0 0 1 .58l5.59-1-.17-1 .44-.08.54 3-1.33.32a2.93 2.93 0 0 1 .68.31 2.73 2.73 0 0 1 1.36 2 2.6 2.6 0 0 1 0 .88c-.18 1.07-1 1.72-2.4 2l-4.39.77.1.57a.75.75 0 0 1 0 .21c0 .15-.12.25-.39.29l-.69-4 .44-.07a1.34 1.34 0 0 0 .13.4c.12.24.42.31.9.23l3.79-.67a2.37 2.37 0 0 0 .5-.03c.75-.25 1.06-.7.95-1.35a1.14 1.14 0 0 0-.21-.48 2 2 0 0 0-2-.68l-4.39.75.08.43a1.28 1.28 0 0 1 .05.14zM153.33 84.64c0 .15-.12.26-.38.31l-.83-4.2.44-.09a2.66 2.66 0 0 0 .11.39c.15.38.47.52 1 .43l5.57-1.11-.2-1 .45-.08.62 3.15-6.9 1.37.13.63a1.37 1.37 0 0 1-.01.2zm8.37-2.52a1.22 1.22 0 0 1-.85-1 1.36 1.36 0 0 1 0-.63 1.16 1.16 0 0 1 1-.88 1.39 1.39 0 0 1 .64 0 1.25 1.25 0 0 1 .89 1 1.31 1.31 0 0 1 0 .65 1.19 1.19 0 0 1-1 .88 1.2 1.2 0 0 1-.68-.02zM154 88.51c.17.76.54 1.14 1.1 1.14h.23c.58-.12 1-.59 1.21-1.4.05-.18.12-.46.19-.84a5.07 5.07 0 0 1 .67-1.91 1.83 1.83 0 0 1 1.11-.7 2 2 0 0 1 2.3 1.15 4.43 4.43 0 0 1 .54 1.43 3.87 3.87 0 0 1 0 2.18c.34-.07.55 0 .63.19a.5.5 0 0 1 0 .13l-2.12.46-.12-.54a1.53 1.53 0 0 0 1.2-2c-.16-.72-.49-1.12-1-1.19a1.34 1.34 0 0 0-.35 0q-.74.15-1 1.29a5.52 5.52 0 0 0-.17.75 5.59 5.59 0 0 1-.71 2 2.13 2.13 0 0 1-3.59-.29 4.47 4.47 0 0 1-.51-1.36 5.61 5.61 0 0 1 0-2.64c-.29.07-.48 0-.56-.1s0-.15-.07-.24l2.59-.56.13.58a1.91 1.91 0 0 0-1.7 2.47zM168.38 106.38L168 105l-9.19 2.41.23.89a.53.53 0 0 1-.33.58l-1.31-5 .46-.12.35 1.35 8-2.1-9.57-1.36-.08-.3 6-5.42-6.35 1.67.23.89a.54.54 0 0 1-.33.58l-.89-3.41.45-.11.35 1.34 9.2-2.41-.36-1.35.46-.12.79 3-6.31 5.43 8 1.12 1 3.61zM160.51 113.18c0 .15-.1.26-.35.34l-1.16-4.11.43-.13a1.67 1.67 0 0 0 .15.38c.18.37.51.48 1 .33l5.45-1.6-.29-1 .43-.13.91 3.09-6.74 2 .18.62a1.29 1.29 0 0 1-.01.21zm8.11-3.28a1.2 1.2 0 0 1-.94-.9 1.22 1.22 0 0 1 0-.63 1.16 1.16 0 0 1 .87-1 1.43 1.43 0 0 1 .65 0 1.24 1.24 0 0 1 1 .9 1.3 1.3 0 0 1 0 .65 1.2 1.2 0 0 1-.89 1 1.3 1.3 0 0 1-.69-.02zM161.9 117.66c0 .15-.09.27-.34.35l-1.24-3.88.43-.14.09.25a.8.8 0 0 0 1.08.44l5.4-1.73-.31-1 .43-.14.95 3-1.27.49a2.89 2.89 0 0 1 .71.22 2.76 2.76 0 0 1 1.62 1.74 2.63 2.63 0 0 1 .13.87c0 1.09-.73 1.85-2.1 2.29l-4.24 1.36.17.54a.8.8 0 0 1 .05.21c0 .15-.09.26-.34.35l-1.23-3.88.43-.14a1.49 1.49 0 0 0 .18.38c.15.22.46.25.93.11l3.66-1.18a3.38 3.38 0 0 0 .44-.18 1.13 1.13 0 0 0 .75-1.46 1 1 0 0 0-.27-.45 2 2 0 0 0-2-.4l-4.25 1.34.13.41a.72.72 0 0 1 .01.23zM172.1 127.46a3.71 3.71 0 0 1-2.42 2.32 4.07 4.07 0 0 1-2.71 0 4 4 0 1 1 5-5 4.13 4.13 0 0 1 .13 2.68zm-6.58-2a1.35 1.35 0 0 0-.58 1.69 1.37 1.37 0 0 0 .67.81q.85.4 3.24-.45a9 9 0 0 0 2.12-1 1.36 1.36 0 0 0 .58-1.72 1.3 1.3 0 0 0-.72-.84c-.55-.22-1.6-.05-3.13.49a9.6 9.6 0 0 0-2.18 1.05zM168.41 136.06c0 .14-.07.27-.32.36l-1.78-4.59.43-.16a2 2 0 0 0 .17.36.75.75 0 0 0 1 .25l5.3-2-.37-.94.43-.17 1.09 2.85-1.46.69a3 3 0 0 1 1 .2 2.54 2.54 0 0 1 1.48 1.46 2.17 2.17 0 0 1 .11.42 1 1 0 0 1-.72 1.19 1.09 1.09 0 0 1-.47.08 1 1 0 0 1-1-.69 1.39 1.39 0 0 1-.09-.38 1.47 1.47 0 0 1 .41-.88c.19-.24.27-.42.22-.54a.64.64 0 0 0-.13-.19c-.43-.38-1.23-.39-2.4 0l-3.5 1.35.46 1.2a1.8 1.8 0 0 1 .14.13zM222.45 74.69l-.56-.24.6-1.35-5.18-2.29 1.55-2.32a8 8 0 0 1 .72-3.31 7.39 7.39 0 0 1 2.66-3.27 6.58 6.58 0 0 1 6.63-.28 6.53 6.53 0 0 1 3.6 9.17 8.48 8.48 0 0 1-1.94 2.75l-.46 2.12-4.45-1.86.29-.64q4.28.94 5.59-2c.07-.17.14-.34.2-.51.72-2.28-.73-4.22-4.38-5.83a13.41 13.41 0 0 0-3.22-1 3.45 3.45 0 0 0-4.1 2.09 3.91 3.91 0 0 0-.26 2.59l4 1.76.78-1.77.57.25zM214.41 82.52a4.14 4.14 0 0 1-.33-4.23 5.63 5.63 0 0 1 1.55-2.29 4.72 4.72 0 0 1 5.18-.62 5.3 5.3 0 0 1 2.75 2.26 4.88 4.88 0 0 1 .16 4.36 6.4 6.4 0 0 1-1.37 2.17A3 3 0 0 1 219 85a1.83 1.83 0 0 1-.6-.39q-1-1 .48-4.38l.83-1.92a12.08 12.08 0 0 0-2.2-.62c-1.56-.24-2.57.2-3 1.33a3.18 3.18 0 0 0-.22 1.11 3.48 3.48 0 0 0 1 2.55l-.37.44a3 3 0 0 1-.51-.6zm5.91-4l-.59 1.33a3.63 3.63 0 0 0-.4 1.31q0 .69 1 1.08c1.52.58 2.46.42 2.85-.47q.59-1.68-2.86-3.22zM211 88.57c-.09.18-.3.21-.63.1l1.68-4.88.56.19a2.77 2.77 0 0 0-.09.33 1 1 0 0 0 .78 1.3l7 2.41.43-1.25.56.2-1.29 3.82-1.6-.43a3.37 3.37 0 0 1 .85 3.66 2.51 2.51 0 0 1-.32.66 2.91 2.91 0 0 1-2.54 1.17 3.57 3.57 0 0 1 .93 3.8 2.65 2.65 0 0 1-.89 1.25 3.43 3.43 0 0 1-3.47.37l-5.6-1.92-.25.71a1.36 1.36 0 0 1-.11.25q-.13.25-.63.09l1.68-4.9.56.19a1.82 1.82 0 0 0-.12.56c0 .31.33.57.91.77l4.75 1.64a4 4 0 0 0 1 .21 1.39 1.39 0 0 0 1.53-.89 1.19 1.19 0 0 0 .06-.46c-.06-.78-.66-1.42-1.82-1.93h-.15l-5.5-1.89-.12.37a2.72 2.72 0 0 1-.11.25c-.1.17-.31.21-.64.09l1.6-4.6.56.19a1.76 1.76 0 0 0-.12.56c0 .31.32.57.91.77l4.77 1.67a3.86 3.86 0 0 0 1.1.21 1.28 1.28 0 0 0 1.38-.8 1.23 1.23 0 0 0 .05-.61c-.12-.77-.73-1.4-1.83-1.87L211.28 88l-.13.38a1 1 0 0 1-.15.19zM205.12 106.88q-.12.27-.63.12l1.61-5.35.57.17a2.24 2.24 0 0 0-.11.51c-.07.54.22.9.86 1.09l7.09 2.13.38-1.26.57.17-1.21 4-8.79-2.64-.24.8a1 1 0 0 1-.1.26zm11.2 2.2a1.58 1.58 0 0 1-.38-1.65 1.7 1.7 0 0 1 .43-.71 1.54 1.54 0 0 1 1.65-.43 1.8 1.8 0 0 1 .72.44 1.58 1.58 0 0 1 .42 1.66 1.52 1.52 0 0 1-.45.72 1.56 1.56 0 0 1-1.67.43 1.74 1.74 0 0 1-.72-.46zM203.38 113.14c-.08.19-.29.23-.63.14l1.37-5.14.57.16a1.91 1.91 0 0 0-.06.33 1 1 0 0 0 .86 1.24l7.16 1.91.34-1.27.57.15-1 3.91-1.74-.35a3.77 3.77 0 0 1 .63.73A3.63 3.63 0 0 1 212 118a3.55 3.55 0 0 1-.47 1c-.8 1.17-2.1 1.51-3.92 1l-5.62-1.5-.19.73-.09.26c-.09.18-.29.23-.63.14l1.35-5.08.57.16a1.82 1.82 0 0 0-.07.54c0 .35.33.61.94.77l4.86 1.29a4.25 4.25 0 0 0 .6.12q1.53.17 1.86-1.08a1.42 1.42 0 0 0 0-.68 2.63 2.63 0 0 0-1.94-1.88l-5.62-1.52-.15.55a1.55 1.55 0 0 1-.1.32zM200.15 126.19c-.07.19-.28.24-.62.16l1.27-5.44.57.13a2.67 2.67 0 0 0-.07.52c0 .54.28.88.93 1l7.21 1.68.3-1.29.57.14-.94 4.09-9-2.07-.19.82a.9.9 0 0 1-.03.26zm11.32 1.49a1.59 1.59 0 0 1-.48-1.63 1.66 1.66 0 0 1 .38-.73 1.49 1.49 0 0 1 1.61-.53 1.67 1.67 0 0 1 .75.38 1.6 1.6 0 0 1 .53 1.64 1.54 1.54 0 0 1-.4.74 1.57 1.57 0 0 1-1.64.53 1.62 1.62 0 0 1-.75-.4zM393.07 227l-.4-.24.72-1.2-8.14-4.9-.72 1.19-.4-.24 3-5a4.5 4.5 0 0 1 1.36-1.49 2.42 2.42 0 0 1 2.77 0 3.13 3.13 0 0 1 .91.81c.82 1.09.72 2.5-.32 4.22l-.74 1.22 3.54 2.13.65-1.09a.53.53 0 0 1 .65-.16zm-6.56-8.43l4.16 2.51.47-.79c.63-1.07.27-2-1.09-2.88s-2.39-.71-3 .31zM400.68 211.89a3.17 3.17 0 0 1-.28 3.24 4.47 4.47 0 0 1-1.47 1.52 3.62 3.62 0 0 1-4-.19 4.05 4.05 0 0 1-1.79-2.05 3.76 3.76 0 0 1 .44-3.32 4.82 4.82 0 0 1 1.31-1.47 2.25 2.25 0 0 1 2.63-.18 1.3 1.3 0 0 1 .4.37c.41.59.1 1.68-.92 3.24l-.87 1.35a9.14 9.14 0 0 0 1.58.75c1.16.38 2 .18 2.45-.62a2.57 2.57 0 0 0 .31-.81 2.64 2.64 0 0 0-.45-2.06l.33-.29a2.51 2.51 0 0 1 .33.52zm-5 2.25l.62-.93a2.89 2.89 0 0 0 .47-.94c.05-.34-.15-.65-.62-.94-1.07-.63-1.8-.63-2.21 0q-.65 1.22 1.77 2.81zM404.45 207.23c.1-.12.26-.11.49 0l-2.54 4.22-.39-.24a1.91 1.91 0 0 0 .17-.36c.15-.38 0-.7-.43-1l-4.86-2.85-.52.87-.38-.24 1.57-2.6 1.45.73a2.86 2.86 0 0 1-.49-1 2.53 2.53 0 0 1 .25-2.06 1.91 1.91 0 0 1 .27-.35 1 1 0 0 1 1.38-.16 1 1 0 0 1 .34.33 1 1 0 0 1 .06 1.19 1.22 1.22 0 0 1-.24.3 1.43 1.43 0 0 1-.95.22c-.31 0-.49.05-.56.15a.69.69 0 0 0-.07.23c0 .57.45 1.21 1.45 1.91l3.22 1.94.66-1.11zM407.5 202.4c.4-.67.39-1.19 0-1.58a1.62 1.62 0 0 0-.19-.13 1.71 1.71 0 0 0-1.84.19q-.24.13-.72.48a4.93 4.93 0 0 1-1.8.93 1.85 1.85 0 0 1-1.29-.25 2 2 0 0 1-.88-2.42 4.72 4.72 0 0 1 .59-1.41 4 4 0 0 1 1.51-1.57q-.44-.27-.33-.57l.06-.12 1.86 1.12-.28.47a1.53 1.53 0 0 0-2.26.65q-.59 1-.09 1.56a1.13 1.13 0 0 0 .27.22 1.52 1.52 0 0 0 1.63-.23 6.43 6.43 0 0 0 .64-.43 5.83 5.83 0 0 1 1.89-1 2.1 2.1 0 0 1 1.48.28 2 2 0 0 1 .93 2.4 4.73 4.73 0 0 1-.56 1.34 5.62 5.62 0 0 1-1.79 1.93c.25.16.36.31.33.46s-.07.14-.11.22l-2.27-1.36.3-.51a1.91 1.91 0 0 0 2.92-.67zM412.52 192.25a3.18 3.18 0 0 1-.29 3.24 4.36 4.36 0 0 1-1.46 1.52 3.62 3.62 0 0 1-4-.19 4 4 0 0 1-1.79-2 3.73 3.73 0 0 1 .43-3.32 4.91 4.91 0 0 1 1.31-1.46 2.26 2.26 0 0 1 2.63-.19 1.48 1.48 0 0 1 .41.37c.4.59.09 1.68-.92 3.25l-.87 1.34a8.8 8.8 0 0 0 1.58.75c1.15.38 2 .18 2.44-.62a2.35 2.35 0 0 0 .31-.81 2.65 2.65 0 0 0-.45-2.06l.34-.28a2.6 2.6 0 0 1 .33.46zm-5 2.25l.61-.93a2.8 2.8 0 0 0 .47-.94c.06-.34-.15-.65-.61-.93-1.07-.63-1.81-.64-2.21 0-.42.8.16 1.74 1.77 2.8zM418.43 184c.11-.1.27-.09.49 0l-1.6 2.66-1.27-.67.12.2a2.61 2.61 0 0 1 0 2.76q-1.29 2.1-3.72.67l-3.74-2.26-.52.87-.39-.23 1.66-2.76 4.39 2.64a3.29 3.29 0 0 0 .42.21 1.16 1.16 0 0 0 1.76-.91 2 2 0 0 0-1-1.77l-3.75-2.28-.44.73-.39-.23 1.58-2.63 6 3.63.3-.5a.83.83 0 0 1 .1-.13zM420.59 180.68c.4-.67.39-1.19 0-1.58a1 1 0 0 0-.18-.13 1.71 1.71 0 0 0-1.84.19 7.28 7.28 0 0 0-.72.48 5.08 5.08 0 0 1-1.8.93 1.85 1.85 0 0 1-1.29-.25 2 2 0 0 1-.88-2.42 4.72 4.72 0 0 1 .59-1.41 4 4 0 0 1 1.51-1.57q-.45-.27-.33-.57a.45.45 0 0 1 .06-.12l1.86 1.12-.29.48a1.52 1.52 0 0 0-2.26.64c-.38.64-.41 1.16-.08 1.56a1.13 1.13 0 0 0 .27.22 1.52 1.52 0 0 0 1.63-.23c.14-.08.35-.22.64-.43a5.83 5.83 0 0 1 1.89-1 2.1 2.1 0 0 1 1.48.28 2 2 0 0 1 .93 2.4 4.62 4.62 0 0 1-.56 1.34 5.54 5.54 0 0 1-1.8 1.93c.26.16.37.31.33.46a.9.9 0 0 1-.11.22l-2.26-1.36.3-.51a1.91 1.91 0 0 0 2.91-.67zM729.43 238.66l-.4-.25.73-1.18-8.07-5-.73 1.18-.4-.24 3.07-4.94a4.52 4.52 0 0 1 1.39-1.48 2.44 2.44 0 0 1 2.76 0 3 3 0 0 1 .9.83q1.22 1.65-.38 4.21l-.75 1.21 3.5 2.18.67-1.08a.53.53 0 0 1 .65-.15zm-6.43-8.52l4.12 2.57.49-.79c.65-1.06.29-2-1.05-2.89s-2.38-.74-3 .27zM737.25 223.71a3.19 3.19 0 0 1-.34 3.24 4.31 4.31 0 0 1-1.48 1.49 3.61 3.61 0 0 1-4-.24 4.09 4.09 0 0 1-1.76-2.08 3.76 3.76 0 0 1 .48-3.31 4.92 4.92 0 0 1 1.33-1.45 2.25 2.25 0 0 1 2.63-.15 1.37 1.37 0 0 1 .41.38c.39.6.07 1.68-1 3.23l-.89 1.33a8.32 8.32 0 0 0 1.57.77c1.15.4 2 .21 2.46-.58a2.35 2.35 0 0 0 .31-.81 2.63 2.63 0 0 0-.41-2.06l.33-.28a2.27 2.27 0 0 1 .36.52zm-5 2.18l.64-.92a2.86 2.86 0 0 0 .47-.93c.07-.35-.13-.66-.6-.95-1.06-.65-1.79-.66-2.2 0-.48.76.09 1.71 1.68 2.8zM736 214.46l-.25-.33a1.56 1.56 0 0 1-.14-1.75 1.58 1.58 0 0 1 .43-.46.89.89 0 0 1 1.07 0 .71.71 0 0 1 .14.1.6.6 0 0 1 .07.81.81.81 0 0 1-.43.3.94.94 0 0 0-.55.32.93.93 0 0 0 .05.88 2.75 2.75 0 0 1 2.28.29 2.84 2.84 0 0 1 1.15 1.38 3.34 3.34 0 0 1-.42 3.14l-1 1.57a.31.31 0 0 0-.06.13.42.42 0 0 0 .15.61h.1a.51.51 0 0 0 .62-.25l2-3a2.88 2.88 0 0 1 .28-.38 1.88 1.88 0 0 1 2.71-.57 1.59 1.59 0 0 1 .6.68q.71 1.41-.81 3.84a5.64 5.64 0 0 1-1.33 1.55 1.57 1.57 0 0 1-1.85.31 1.61 1.61 0 0 0-2.15-1.12 1.72 1.72 0 0 1-.52-.49 1.41 1.41 0 0 1 0-1.69 2.94 2.94 0 0 1-.51.23 2.74 2.74 0 0 1-2.51-.12 2.63 2.63 0 0 1-1.08-1.29 3.41 3.41 0 0 1 .47-3.19 3.82 3.82 0 0 1 1.49-1.5zm1.78 4.88a1 1 0 0 0 1.24-.48 1.14 1.14 0 0 0 .18-.85c-.12-.4-.68-.91-1.67-1.53a7.1 7.1 0 0 0-1.46-.76 1 1 0 0 0-1.25.51 1 1 0 0 0-.17.86c.12.37.67.86 1.64 1.47a8.4 8.4 0 0 0 1.46.78zm6.46.82c.39-1 .35-1.69-.11-2a.48.48 0 0 0-.29-.1c-.24 0-.53.27-.89.84l-1.88 3a2 2 0 0 1-.51.54 1.27 1.27 0 0 0 .49.61.86.86 0 0 0 .37.13c.68.08 1.4-.47 2.15-1.68a8 8 0 0 0 .64-1.34zM744.87 211.15a2.2 2.2 0 0 1 .28.44A2.36 2.36 0 0 1 745 214a2.84 2.84 0 0 1-.57.69 1.88 1.88 0 0 1-2.41.11c-1.28-.82-1.16-2.5.36-5.07l-1-.59a4.4 4.4 0 0 0-.77-.4c-.62-.25-1.08-.15-1.37.32a.93.93 0 0 0-.15.41 1.36 1.36 0 0 0 .48.87l.24.28a1 1 0 0 1 .09 1.24 1.36 1.36 0 0 1-.22.25.8.8 0 0 1-1.07.1 1.16 1.16 0 0 1-.39-.43c-.36-.7-.13-1.73.7-3.07a5.4 5.4 0 0 1 .7-.89 2.47 2.47 0 0 1 3.34-.3l3.09 1.92c.48.29.79.34.94.13s-.06-.68-.71-1.16l.26-.37a5.32 5.32 0 0 1 .67.6 1.46 1.46 0 0 1-.06 1.83 1.82 1.82 0 0 1-2.28.68zm0 1.45a2 2 0 0 0-.71-1.7l-1.43-.89a5.23 5.23 0 0 0-.52 1.2 1.43 1.43 0 0 0 .78 1.58c.86.53 1.45.55 1.78.07a.88.88 0 0 0 .12-.26zM749.5 205.78c.41-.66.41-1.19 0-1.58l-.18-.14a1.74 1.74 0 0 0-1.85.17 6.78 6.78 0 0 0-.72.47 5 5 0 0 1-1.81.9 1.74 1.74 0 0 1-1.29-.27 2 2 0 0 1-.85-2.43 4.85 4.85 0 0 1 .61-1.4 4 4 0 0 1 1.53-1.55c-.29-.18-.4-.37-.32-.57l.06-.12 1.85 1.14-.3.48a1.51 1.51 0 0 0-2.26.62c-.4.63-.43 1.14-.11 1.55a1.18 1.18 0 0 0 .27.23 1.52 1.52 0 0 0 1.63-.22 5.31 5.31 0 0 0 .65-.42 5.47 5.47 0 0 1 1.9-.94 2 2 0 0 1 1.47.3 2 2 0 0 1 .9 2.4 4.82 4.82 0 0 1-.58 1.34 5.56 5.56 0 0 1-1.82 1.9c.26.16.36.32.32.47a1.12 1.12 0 0 1-.11.22l-2.25-1.4.32-.5a1.92 1.92 0 0 0 2.94-.65zM756.31 194.59c.11-.1.27-.09.48 0l-1.63 2.63-1.26-.68.12.2a2.61 2.61 0 0 1-.07 2.76q-1.32 2.07-3.73.62l-3.71-2.31-.53.86-.39-.24 1.7-2.74 4.35 2.7a2.82 2.82 0 0 0 .42.22 1.14 1.14 0 0 0 1.6-.37 1.24 1.24 0 0 0 .18-.51 2 2 0 0 0-1-1.79l-3.72-2.33-.45.73-.38-.24 1.61-2.61 6 3.72.31-.51a1.11 1.11 0 0 1 .1-.11zM758.51 191.28c.41-.66.41-1.18 0-1.58l-.18-.13a1.74 1.74 0 0 0-1.85.16q-.24.14-.72.48a5.34 5.34 0 0 1-1.81.9 1.84 1.84 0 0 1-1.29-.27 2 2 0 0 1-.85-2.43 5 5 0 0 1 .61-1.41 4 4 0 0 1 1.54-1.54q-.45-.27-.33-.57l.06-.13 1.85 1.15-.3.47a1.52 1.52 0 0 0-2.24.62c-.4.63-.43 1.15-.11 1.55a1 1 0 0 0 .27.23 1.51 1.51 0 0 0 1.63-.21c.14-.08.36-.22.65-.42a5.74 5.74 0 0 1 1.9-1 2.12 2.12 0 0 1 2.37 2.71 4.38 4.38 0 0 1-.58 1.33 5.6 5.6 0 0 1-1.82 1.91c.26.16.36.31.32.46a.9.9 0 0 1-.11.22l-2.25-1.4.32-.5a1.9 1.9 0 0 0 2.92-.6zM326.12 129.68l-.25-.4 1.05-.65-2.86-2.16-2.95 1.81.68 3.5.83-.51.17-.08c.14-.06.29 0 .43.26l-2.73 1.68-.24-.4.95-.58-2-10.5 1.1-.67 8.72 6.35.44-.27.17-.09c.14 0 .29 0 .43.27zm-5.92-6.15l.82 4.19 2.59-1.59zM337.73 122.05c.13 0 .27 0 .4.26l-2.64 1.62-.82-1.17v.23a2.62 2.62 0 0 1-1.3 2.44c-1.4.84-2.61.47-3.61-1.12l-2.28-3.72-.86.52-.24-.38 2.74-1.69 2.68 4.36a3.83 3.83 0 0 0 .27.39 1.14 1.14 0 0 0 1.61.38 1.21 1.21 0 0 0 .38-.37 2 2 0 0 0-.09-2l-2.26-3.8-.73.45-.23-.39 2.61-1.6 3.67 6 .51-.31zM342.51 119.12c.14-.06.28 0 .42.25l-4.2 2.57-.24-.38a2.36 2.36 0 0 0 .33-.24.75.75 0 0 0 .06-1.06l-3-4.84-.86.53-.23-.39 2.59-1.59.95 1.32a3.14 3.14 0 0 1 0-1.06 2.54 2.54 0 0 1 1.18-1.72 2 2 0 0 1 .39-.19 1 1 0 0 1 1.3.49 1.05 1.05 0 0 1 .16.46 1 1 0 0 1-.5 1.08 2.14 2.14 0 0 1-.35.16 1.59 1.59 0 0 1-1-.24c-.26-.15-.45-.19-.56-.13a.55.55 0 0 0-.17.17c-.29.49-.16 1.28.41 2.36l2 3.2 1.09-.67a.71.71 0 0 1 .23-.08zM343 108.59a1.22 1.22 0 0 1-.63 1.14 1.25 1.25 0 0 1-.6.19 1.15 1.15 0 0 1-1.16-.6 1.3 1.3 0 0 1-.2-.61 1.23 1.23 0 0 1 .61-1.17 1.16 1.16 0 0 1 .63-.18 1.2 1.2 0 0 1 1.17.61 1.35 1.35 0 0 1 .18.62zm5.27 7c.14-.06.29 0 .42.25l-3.65 2.24-.23-.39a2.22 2.22 0 0 0 .32-.24c.31-.27.33-.62.07-1.06l-3-4.83-.86.52-.24-.38 2.8-1.7 3.67 6 .55-.34a.85.85 0 0 1 .17-.09zM350.59 106.19c0-.13 0-.27-.07-.4a1.57 1.57 0 0 1 .66-1.63 1.48 1.48 0 0 1 .58-.22.93.93 0 0 1 1 .44.77.77 0 0 1 .07.16.59.59 0 0 1-.29.75.79.79 0 0 1-.53.08.73.73 0 0 0-1 .85 2.69 2.69 0 0 1 1.9 1.28 2.79 2.79 0 0 1 .42 1.74 3.38 3.38 0 0 1-1.78 2.63l-1.6 1-.11.08a.44.44 0 0 0-.13.62l.07.08a.52.52 0 0 0 .67.06l3.11-1.83a3.17 3.17 0 0 1 .41-.21 1.88 1.88 0 0 1 2.68.7 1.64 1.64 0 0 1 .24.88c0 1.05-.83 2.08-2.45 3.07a5.75 5.75 0 0 1-1.88.79c-.87.16-1.47 0-1.79-.56a1.6 1.6 0 0 1-.17-1.14 1.73 1.73 0 0 1-1.26-.82 1.88 1.88 0 0 1-.25-.66 1.42 1.42 0 0 1 .75-1.52 5.24 5.24 0 0 1-.56 0 2.75 2.75 0 0 1-2.19-1.23 2.65 2.65 0 0 1-.39-1.64 3.42 3.42 0 0 1 1.85-2.65 3.87 3.87 0 0 1 2.04-.7zm-.59 5.16a1 1 0 0 0 1.32.13 1.12 1.12 0 0 0 .55-.68 3.86 3.86 0 0 0-.81-2.12 7.85 7.85 0 0 0-1-1.33 1 1 0 0 0-1.36-.11 1.06 1.06 0 0 0-.53.7 3.87 3.87 0 0 0 .81 2 7.41 7.41 0 0 0 1.02 1.41zm5.41 3.63c.81-.74 1.07-1.35.79-1.81a.66.66 0 0 0-.2-.17c-.21-.12-.6 0-1.17.35l-3 1.81a2 2 0 0 1-.7.27 1.24 1.24 0 0 0 .16.76 1.19 1.19 0 0 0 .27.28c.58.38 1.47.2 2.68-.54a8.52 8.52 0 0 0 1.17-.93zM360 107.22a2.15 2.15 0 0 1 0 .51 2.36 2.36 0 0 1-1.27 2.09 2.93 2.93 0 0 1-.82.36 1.86 1.86 0 0 1-2.19-1c-.79-1.3.08-2.76 2.59-4.36l-.59-1a4.38 4.38 0 0 0-.52-.7c-.44-.51-.9-.62-1.36-.33a1 1 0 0 0-.33.3 1.44 1.44 0 0 0 0 1 2.56 2.56 0 0 1 .09.35 1 1 0 0 1-.47 1.15 1.37 1.37 0 0 1-.31.13.82.82 0 0 1-1-.39 1.21 1.21 0 0 1-.16-.56c0-.79.66-1.61 2-2.43a5.05 5.05 0 0 1 1-.49 2.46 2.46 0 0 1 3.12 1.23l1.91 3.1q.43.72.78.54c.28-.18.24-.64-.12-1.35l.39-.23a5.91 5.91 0 0 1 .34.84 1.48 1.48 0 0 1-.87 1.62 1.84 1.84 0 0 1-2.21-.38zm-.63 1.3a2 2 0 0 0 .12-1.83l-.88-1.44a5.3 5.3 0 0 0-1 .84 1.42 1.42 0 0 0 0 1.76c.53.86 1.06 1.14 1.56.86a.9.9 0 0 0 .24-.19zM169.32 346l.32-.34 1 1 6.54-6.9-1-1 .32-.34 3.86 3.65-.33.34-1.07-1-6.54 6.9 1.3 1.23a2.41 2.41 0 0 0 .79.51 2.32 2.32 0 0 0 1.79-.37l1.49-.84.37.35-2.65 2.7zM181.8 356.09a3.18 3.18 0 0 1-3.11-1 4.43 4.43 0 0 1-1.16-1.75 3.61 3.61 0 0 1 1-3.86 4 4 0 0 1 2.47-1.28 3.73 3.73 0 0 1 3.14 1.14 4.73 4.73 0 0 1 1.15 1.59 2.27 2.27 0 0 1-.38 2.61 1.49 1.49 0 0 1-.45.32c-.67.26-1.66-.27-3-1.6l-1.13-1.14a9.48 9.48 0 0 0-1.07 1.39c-.62 1-.59 1.88.08 2.52a2.23 2.23 0 0 0 .73.47 2.64 2.64 0 0 0 2.1 0l.21.38a2.27 2.27 0 0 1-.58.21zm-1.13-5.33l.77.8a2.79 2.79 0 0 0 .82.66c.32.13.67 0 1.05-.4q1.26-1.36.48-2.16-1.05-.91-3.12 1.1zM182.84 362.74l.13.15c.1.12.05.28-.13.48l-3.28-3.12.31-.33a2.42 2.42 0 0 0 .32.27.77.77 0 0 0 1-.24l6.18-6.52-.72-.68.31-.33 2.23 2.12-1.08 1.27a3 3 0 0 1 1-.29 2.83 2.83 0 0 1 2.35.81 2.59 2.59 0 0 1 .81 1.51 3.72 3.72 0 0 1-1.24 3.24 4.64 4.64 0 0 1-2.59 1.47 3.34 3.34 0 0 1-2.92-.94 2.7 2.7 0 0 1-.95-2l-2.4 2.53zm6.46-6.74a4.17 4.17 0 0 0-2.81 1.6 5.38 5.38 0 0 0-1.13 1.64 1.52 1.52 0 0 0 .24 1.8q1.17 1.1 3.54-1.38 2.16-2.28 1.09-3.33a1.21 1.21 0 0 0-.93-.33zM195.64 370.34c.08.12 0 .28-.15.46l-2.24-2.13.91-1.1-.22.08a2.59 2.59 0 0 1-2.68-.63c-1.18-1.13-1.14-2.39.14-3.77l3-3.17-.74-.69.31-.33 2.34 2.21-3.51 3.73q-.17.18-.3.36a1.14 1.14 0 0 0 .05 1.65 1.17 1.17 0 0 0 .46.27 2 2 0 0 0 2-.62l3-3.17-.62-.58.32-.33 2.22 2.1-4.84 5.11.43.41a.64.64 0 0 1 .12.14zM198.45 373.17c.56.53 1.08.64 1.54.31a1.29 1.29 0 0 0 .17-.15 1.71 1.71 0 0 0 .21-1.84 6.16 6.16 0 0 0-.32-.8 5.28 5.28 0 0 1-.52-2 1.83 1.83 0 0 1 .53-1.21 2 2 0 0 1 2.55-.34 5 5 0 0 1 1.25.88 4 4 0 0 1 1.21 1.81c.24-.25.44-.32.62-.2a.48.48 0 0 1 .11.09l-1.49 1.58-.41-.39a1.52 1.52 0 0 0-.15-2.34c-.54-.52-1-.65-1.5-.42a1.18 1.18 0 0 0-.28.22 1.51 1.51 0 0 0-.11 1.64 6.84 6.84 0 0 0 .28.72 5.6 5.6 0 0 1 .54 2.05 2 2 0 0 1-.59 1.38 2 2 0 0 1-2.53.4 4.52 4.52 0 0 1-1.2-.84 5.44 5.44 0 0 1-1.49-2.16c-.21.22-.39.29-.53.22l-.19-.15 1.82-1.93.43.41a1.92 1.92 0 0 0 .05 3.06zM68.38 118.36a5.39 5.39 0 0 1-1.84-4 5.26 5.26 0 0 1 1.55-3.73A5.49 5.49 0 0 1 71.2 109a5.28 5.28 0 0 1 4.64 1.6 6.91 6.91 0 0 1 1.87 2.89 1.81 1.81 0 0 1 .32-.31c.17-.1.36 0 .58.17l-2.32 2.52-.44-.42a7.18 7.18 0 0 0 .67-1.64 2.61 2.61 0 0 0-.83-2.64q-2.26-2.11-5.56 1.33a11.83 11.83 0 0 0-1.53 1.93q-1.32 2.2.28 3.72a3.71 3.71 0 0 0 .82.61c1 .53 2.21.36 3.63-.52l.42.4-2.36 2.48a.9.9 0 0 1-.21-.24c-.12-.17 0-.42.29-.73a7.52 7.52 0 0 1-3.09-1.79zM76.3 123.67a2.92 2.92 0 0 1-.49.19 2.39 2.39 0 0 1-2.35-.69 3 3 0 0 1-.56-.7 1.86 1.86 0 0 1 .38-2.37c1.06-1.1 2.68-.64 4.89 1.37l.78-.82a5.66 5.66 0 0 0 .55-.68 1 1 0 0 0 0-1.4 1.05 1.05 0 0 0-.38-.24 1.43 1.43 0 0 0-1 .3l-.32.18a1 1 0 0 1-1.23-.17 1 1 0 0 1-.21-.26.8.8 0 0 1 .12-1.06 1 1 0 0 1 .5-.3c.77-.22 1.72.22 2.87 1.3a4.82 4.82 0 0 1 .73.87 2.47 2.47 0 0 1-.37 3.33l-2.51 2.64c-.38.41-.49.71-.32.9s.68.07 1.28-.47l.32.33a5 5 0 0 1-.72.53 1.47 1.47 0 0 1-1.79-.42 1.83 1.83 0 0 1-.17-2.36zm-1.43-.27a2 2 0 0 0 1.8-.35l1.16-1.23a5 5 0 0 0-1.06-.74 1.41 1.41 0 0 0-1.71.44c-.69.74-.83 1.31-.43 1.73a.7.7 0 0 0 .24.15zM81.27 129.73c.09.12 0 .28-.14.47l-2.95-2.8.31-.33.2.17a.78.78 0 0 0 1.15-.13l3.91-4.11-.74-.7.31-.32 2.25 2.13-.87 1a2.71 2.71 0 0 1 .72-.15 2.8 2.8 0 0 1 2.27.75 3 3 0 0 1 .53.7c.49 1 .25 2-.74 3l-3.07 3.23.42.4a1.07 1.07 0 0 1 .14.16c.09.12 0 .27-.14.47l-2.91-2.77.31-.33a1.06 1.06 0 0 0 .34.25c.24.12.53 0 .86-.35l2.65-2.79a2.48 2.48 0 0 0 .29-.37 1.14 1.14 0 0 0 0-1.65 1.26 1.26 0 0 0-.45-.26 2 2 0 0 0-2 .62l-3.08 3.23.32.29zM88.58 136.66c.09.12 0 .28-.13.47l-3.11-2.95.31-.32a3.09 3.09 0 0 0 .31.25c.35.23.69.15 1-.22l3.91-4.11-.74-.7.32-.33 2.37 2.25-4.82 5.07.46.44a.87.87 0 0 1 .12.15zm5.42-6.91a1.19 1.19 0 0 1-1.27-.31 1.26 1.26 0 0 1-.33-.53 1.16 1.16 0 0 1 .27-1.27 1.33 1.33 0 0 1 .55-.35 1.21 1.21 0 0 1 1.28.29 1.17 1.17 0 0 1 .34.55 1.19 1.19 0 0 1-.29 1.29 1.15 1.15 0 0 1-.55.33zM91.39 139.49c.57.54 1.08.64 1.55.32l.17-.16a1.75 1.75 0 0 0 .21-1.84c-.06-.17-.16-.44-.32-.8a5.09 5.09 0 0 1-.52-2 1.78 1.78 0 0 1 .52-1.2 2 2 0 0 1 2.55-.34 4.92 4.92 0 0 1 1.26.87A4 4 0 0 1 98 136.2c.24-.25.45-.32.63-.2l.11.08-1.5 1.58-.4-.38a1.53 1.53 0 0 0-.15-2.35q-.81-.77-1.5-.42a1.24 1.24 0 0 0-.28.22 1.53 1.53 0 0 0-.12 1.64c0 .16.14.39.28.72a5.72 5.72 0 0 1 .55 2 2.11 2.11 0 0 1-.59 1.39 2 2 0 0 1-2.54.4 4.77 4.77 0 0 1-1.19-.85 5.58 5.58 0 0 1-1.5-2.16c-.21.22-.38.29-.52.22l-.18-.09 1.82-1.92.43.41a1.91 1.91 0 0 0 .04 3zM113.33 147l-1-1-6.53 6.9.67.63a.54.54 0 0 1 0 .67l-3.72-3.54.32-.34 1 1 5.69-6-8.85 3.89-.22-.21 2.31-7.8-4.55 4.8.67.64a.52.52 0 0 1 0 .66l-2.55-2.42.33-.34 1 1 6.53-6.9-1-1 .33-.34 2.26 2.15-2.5 7.94 7.41-3.29 2.72 2.58zM111.2 156.75a2.22 2.22 0 0 1-.49.18 2.39 2.39 0 0 1-2.35-.69 3.2 3.2 0 0 1-.56-.69 1.89 1.89 0 0 1 .38-2.38c1.06-1.09 2.68-.64 4.89 1.37l.78-.82a5 5 0 0 0 .55-.68 1 1 0 0 0 0-1.4 1.11 1.11 0 0 0-.38-.24 1.43 1.43 0 0 0-1 .3l-.31.18a1 1 0 0 1-1.24-.16 1.05 1.05 0 0 1-.2-.27.79.79 0 0 1 .11-1.06 1.22 1.22 0 0 1 .5-.3c.77-.21 1.72.22 2.87 1.31a4.9 4.9 0 0 1 .74.86 2.5 2.5 0 0 1-.38 3.34l-2.5 2.64c-.39.4-.49.7-.33.89s.68.07 1.28-.46l.32.32a4.47 4.47 0 0 1-.72.54 1.48 1.48 0 0 1-1.79-.42 1.83 1.83 0 0 1-.17-2.36zm-1.43-.27a2 2 0 0 0 1.8-.36l1.16-1.22a5.13 5.13 0 0 0-1.06-.75 1.42 1.42 0 0 0-1.71.44c-.69.74-.83 1.32-.43 1.73a.91.91 0 0 0 .24.16z"/><path d="M120.85 157.53l-4.71 5-.38.38c-1.69 1.6-3.17 1.8-4.42.61a2.91 2.91 0 0 1-.74-1 1.26 1.26 0 0 1 .18-1.43.9.9 0 0 1 .19-.15.75.75 0 0 1 1 .15.84.84 0 0 1 .3.72 2.9 2.9 0 0 1-.41.84c-.18.32-.18.57 0 .72s.53.11.91-.28q.2-.19.75-.84c.66-.76 1.17-1.34 1.55-1.73l3.9-4.12-.8-.75.32-.33zm1.09-1.25a1.2 1.2 0 0 1-1.26-.31 1.28 1.28 0 0 1-.34-.53 1.16 1.16 0 0 1 .28-1.27 1.3 1.3 0 0 1 .54-.35 1.24 1.24 0 0 1 1.62.84 1.24 1.24 0 0 1-.84 1.62zM126.43 163.58a3.67 3.67 0 0 1-1.1 3.16 4 4 0 0 1-2.4 1.27 4.19 4.19 0 0 1-4.6-3.57 4.2 4.2 0 0 1 3.41-4.41 4 4 0 0 1 3.4 1.2 4.1 4.1 0 0 1 1.29 2.35zm-6.75 1.23a1.34 1.34 0 0 0 .25 1.77 1.36 1.36 0 0 0 1 .42c.62 0 1.51-.64 2.68-1.87a9 9 0 0 0 1.39-1.83 1.49 1.49 0 0 0-1.28-2.22c-.6.06-1.45.68-2.57 1.86a9.89 9.89 0 0 0-1.47 1.87zM127 173.07c.09.12 0 .28-.14.47l-3.57-3.38.31-.33a2.12 2.12 0 0 0 .31.25c.35.23.69.16 1-.21l3.91-4.12-.74-.7.32-.33 2.21 2.1-1 1.26a3.21 3.21 0 0 1 1-.28 2.6 2.6 0 0 1 2 .69 1.81 1.81 0 0 1 .28.34 1 1 0 0 1-.13 1.38 1.18 1.18 0 0 1-.4.27 1 1 0 0 1-1.18-.2 1.58 1.58 0 0 1-.24-.3 1.46 1.46 0 0 1 0-1c.07-.29.06-.49 0-.57a.56.56 0 0 0-.2-.12c-.56-.16-1.28.18-2.18 1L126 172l.93.89zM302.57 434.1l.09-1.25a1.93 1.93 0 0 0 0-.34 2 2 0 0 0-1.32-2l-1.83-.73-1.6 4 3.1 1.23-.19.49-3.11-1.24-1.71 4.36 1.83.73a2.75 2.75 0 0 0 .61.16 2.16 2.16 0 0 0 1.93-.95l.82-1 .47.19-1.31 3.08-8.08-3.22.18-.44 1.29.51 3.52-8.82-1.29-.52.17-.43 8.08 3.22-1.22 3.16zM306 442.64c.13.08.15.24 0 .49l-4.58-1.83.17-.42a1.72 1.72 0 0 0 .39.12c.4.08.69-.11.88-.58l2.11-5.27-.94-.38.17-.42 2.83 1.13-.49 1.55a3 3 0 0 1 .85-.64 2.57 2.57 0 0 1 2.08-.08 1.52 1.52 0 0 1 .38.2 1 1 0 0 1 .39 1.34 1.18 1.18 0 0 1-.27.4 1 1 0 0 1-1.17.24 1.06 1.06 0 0 1-.33-.19 1.39 1.39 0 0 1-.38-.89c0-.31-.12-.48-.24-.53a.53.53 0 0 0-.23 0q-.86.09-1.65 1.74l-1.39 3.5 1.2.47zM312.28 445.15c.13.08.15.24.05.49l-4-1.59.17-.42a1.81 1.81 0 0 0 .38.12c.41.09.7-.11.89-.58l2.11-5.27-.94-.38.17-.42 3 1.2-2.61 6.53.6.24zm2.43-8.4a1.21 1.21 0 0 1-1.29.18 1.29 1.29 0 0 1-.51-.37 1.16 1.16 0 0 1-.21-1.28 1.31 1.31 0 0 1 .37-.53 1.26 1.26 0 0 1 1.31-.21 1.21 1.21 0 0 1 .51.39 1.24 1.24 0 0 1 .22 1.31 1.32 1.32 0 0 1-.4.51zM319.13 446.59a3.61 3.61 0 0 1-.35.33 2.58 2.58 0 0 1-2.74.39 2.91 2.91 0 0 1-1.43-1.21 3.68 3.68 0 0 1-.13-3.48 4.55 4.55 0 0 1 1.91-2.35 3.33 3.33 0 0 1 3-.18 3.18 3.18 0 0 1 1.68 1.5l1.44-3.59-1.48-.59.17-.42 3.53 1.41-4 10.07.74.3.19.09c.12.08.13.25 0 .5l-2.9-1.16zm-2.72-2.13c-.31 1.3-.09 2.1.67 2.4a1.28 1.28 0 0 0 .7.08c.85-.18 1.6-1.07 2.25-2.69a8.2 8.2 0 0 0 .35-1.06c.29-1.27.05-2.06-.73-2.37a1.38 1.38 0 0 0-.67-.08c-.85.14-1.58 1-2.21 2.57a7.88 7.88 0 0 0-.36 1.15zM327.05 450a2.55 2.55 0 0 1-.38.35 2.38 2.38 0 0 1-2.43.23 2.89 2.89 0 0 1-.78-.44 1.87 1.87 0 0 1-.53-2.35c.57-1.41 2.26-1.58 5.05-.53l.42-1.05a4.73 4.73 0 0 0 .25-.84c.14-.66 0-1.09-.55-1.29a1 1 0 0 0-.44-.08 1.49 1.49 0 0 0-.77.63 3.47 3.47 0 0 1-.23.28 1 1 0 0 1-1.49.14.79.79 0 0 1-.28-1 1 1 0 0 1 .35-.46c.63-.49 1.68-.44 3.14.15a5.33 5.33 0 0 1 1 .53 2.48 2.48 0 0 1 .88 3.24l-1.35 3.38c-.2.51-.19.83 0 .95s.66-.19 1-.91l.42.18a4.76 4.76 0 0 1-.48.77 1.47 1.47 0 0 1-1.81.27 1.84 1.84 0 0 1-.99-2.15zm-1.42.27a2 2 0 0 0 1.54-1l.63-1.57a5.54 5.54 0 0 0-1.27-.3 1.43 1.43 0 0 0-1.43 1c-.36.94-.28 1.53.25 1.77a.78.78 0 0 0 .28.1zM333.92 453.78c.13.08.14.24.05.49l-3.79-1.51.17-.42a1.44 1.44 0 0 0 .25.08.78.78 0 0 0 1-.54l2.11-5.27-.94-.38.17-.42 2.87 1.15-.42 1.29a3.18 3.18 0 0 1 .62-.41 2.79 2.79 0 0 1 2.37-.14 2.91 2.91 0 0 1 .76.46c.82.71 1 1.73.42 3.07l-1.65 4.14.54.21.18.09c.13.08.15.24.05.49l-3.68-1.49.17-.42a1.42 1.42 0 0 0 .4.11c.27 0 .49-.2.67-.65l1.43-3.57a2.89 2.89 0 0 0 .14-.45c.18-.77 0-1.27-.65-1.52a1.09 1.09 0 0 0-.51-.07 2 2 0 0 0-1.61 1.3l-1.67 4.14.41.16zM347.68 459.28c.12.08.13.24 0 .48l-2.88-1.15.45-1.36-.18.16a2.6 2.6 0 0 1-2.73.41c-1.51-.62-1.93-1.8-1.26-3.56l1.62-4.06-.94-.37.17-.42 3 1.19-1.89 4.75q-.09.24-.15.45a1.15 1.15 0 0 0 .66 1.52 1.29 1.29 0 0 0 .53.08 2 2 0 0 0 1.58-1.3l1.64-4.06-.79-.32.17-.42 2.84 1.13L347 459l.55.22zM351.32 460.86c.72.29 1.24.19 1.55-.28a.75.75 0 0 0 .1-.2 1.73 1.73 0 0 0-.48-1.79c-.12-.15-.32-.36-.59-.63a5.14 5.14 0 0 1-1.21-1.62 1.82 1.82 0 0 1 0-1.32 2 2 0 0 1 2.24-1.26 4.73 4.73 0 0 1 1.49.35 4 4 0 0 1 1.79 1.24q.19-.48.51-.42h.13l-.8 2-.52-.21a1.52 1.52 0 0 0-1-2.12 1.27 1.27 0 0 0-1.55.17 1.11 1.11 0 0 0-.17.3c-.19.46 0 1 .5 1.57.1.12.27.31.52.56a5.81 5.81 0 0 1 1.27 1.71 2 2 0 0 1 0 1.5 2 2 0 0 1-2.21 1.31 4.64 4.64 0 0 1-1.42-.34 5.55 5.55 0 0 1-2.19-1.45c-.11.28-.25.41-.4.4l-.24-.08 1-2.46.55.22a1.92 1.92 0 0 0 1.13 2.85zM716.26 114.07a5.25 5.25 0 0 1 .24 7.71 5.44 5.44 0 0 1-3.12 1.66 5.27 5.27 0 0 1-4.64-1.63 6.84 6.84 0 0 1-1.84-2.91 1.61 1.61 0 0 1-.33.32c-.17.09-.36 0-.58-.17l2.34-2.51.44.42a7.26 7.26 0 0 0-.68 1.64 2.6 2.6 0 0 0 .81 2.64q2.25 2.13 5.56-1.29A12.17 12.17 0 0 0 716 118c.89-1.46.8-2.71-.26-3.73a4.3 4.3 0 0 0-.81-.61c-1-.54-2.21-.37-3.64.49l-.41-.4 2.37-2.47a1.37 1.37 0 0 1 .21.24c.11.18 0 .42-.3.73a7.48 7.48 0 0 1 3.1 1.82zM713 107.36c-.5-.22-1.42 0-2.78.59l-2.7 7.69.53.51-.3.31-3-2.83.3-.31.77.73 1.85-5-4.74 2.19.94.9-.3.32-1.94-1.87a.74.74 0 0 1 .13-.12c.14-.11.3-.07.48.1a.91.91 0 0 0 .77 0l6.57-3.07a9.45 9.45 0 0 1 1.53-.59 2.79 2.79 0 0 1 2.91.46 2.48 2.48 0 0 1 .64 1 1.1 1.1 0 0 1-.15 1.16 1.92 1.92 0 0 1-.21.16.75.75 0 0 1-.95-.17.9.9 0 0 1-.27-.47 2.11 2.11 0 0 1 .22-.85c.13-.32.11-.55 0-.69a1.2 1.2 0 0 0-.3-.15zM697.28 106.08l-.38.17a1.55 1.55 0 0 1-1.74-.22 1.66 1.66 0 0 1-.35-.51.92.92 0 0 1 .17-1.07l.14-.11a.59.59 0 0 1 .8.1.77.77 0 0 1 .21.48.9.9 0 0 0 .19.6.92.92 0 0 0 .88.15 2.71 2.71 0 0 1 .76-2.17 2.83 2.83 0 0 1 1.58-.85 3.4 3.4 0 0 1 3 1.07l1.33 1.3.11.08a.43.43 0 0 0 .63 0l.06-.09a.51.51 0 0 0-.11-.66l-2.56-2.57a3.49 3.49 0 0 1-.32-.35 1.89 1.89 0 0 1 0-2.77 1.6 1.6 0 0 1 .79-.45c1-.25 2.22.28 3.59 1.6a5.66 5.66 0 0 1 1.24 1.62 1.55 1.55 0 0 1-.09 1.87 1.71 1.71 0 0 1-1.06.46 1.72 1.72 0 0 1-.48 1.42 1.9 1.9 0 0 1-.58.41 1.43 1.43 0 0 1-1.66-.34 4.88 4.88 0 0 1 .12.55 2.72 2.72 0 0 1-.64 2.42 2.67 2.67 0 0 1-1.49.8 3.41 3.41 0 0 1-3-1.13 3.74 3.74 0 0 1-1.14-1.81zm5.14-.73a1 1 0 0 0-.21-1.31 1.08 1.08 0 0 0-.79-.35c-.42 0-1 .47-1.85 1.31a7.5 7.5 0 0 0-1 1.27 1 1 0 0 0 .23 1.34 1.08 1.08 0 0 0 .81.34c.39 0 1-.48 1.78-1.31a6.56 6.56 0 0 0 1.03-1.29zm2.15-6.14c-.92-.6-1.57-.7-2-.31a.66.66 0 0 0-.16.26c-.06.23.15.58.64 1l2.51 2.46a2 2 0 0 1 .43.61 1.26 1.26 0 0 0 .69-.35.93.93 0 0 0 .21-.33c.22-.66-.18-1.47-1.2-2.46a7.32 7.32 0 0 0-1.12-.88zM697.15 96.54c-.09-.12 0-.28.14-.47l2.93 2.82-.31.33a1.51 1.51 0 0 0-.2-.17.79.79 0 0 0-1.16.12l-3.93 4.09.73.7-.31.33-2.24-2.15.88-1a2.71 2.71 0 0 1-.72.15 2.82 2.82 0 0 1-2.79-1.47c-.48-1-.23-2 .77-3l3.06-3.26-.42-.4c-.05 0-.09-.1-.14-.15s0-.28.14-.47l2.9 2.78-.31.33a1.4 1.4 0 0 0-.34-.25c-.24-.12-.53 0-.87.35l-2.66 2.77a2.38 2.38 0 0 0-.3.36 1.14 1.14 0 0 0 0 1.65 1 1 0 0 0 .45.26 2 2 0 0 0 2-.6l3.1-3.2-.32-.3a.79.79 0 0 1-.08-.15zM686.47 86.28c-.07-.13 0-.28.15-.46l2.24 2.18-.93 1.09.22-.08a2.61 2.61 0 0 1 2.68.65c1.17 1.15 1.12 2.4-.17 3.77l-3 3.15.73.7-.31.33-2.32-2.23 3.54-3.69a2.38 2.38 0 0 0 .3-.36 1.14 1.14 0 0 0 0-1.65 1.19 1.19 0 0 0-.46-.28 2 2 0 0 0-2 .61l-3 3.15.62.59-.32.32-2.21-2.12 4.77-5.11-.43-.41a1.79 1.79 0 0 1-.1-.15zM683.69 83.43c-.56-.54-1.08-.65-1.55-.33l-.17.15a1.73 1.73 0 0 0-.22 1.84 8.37 8.37 0 0 0 .31.81 5.22 5.22 0 0 1 .51 2 1.84 1.84 0 0 1-.53 1.2 2 2 0 0 1-2.56.32 4.72 4.72 0 0 1-1.24-.88 4 4 0 0 1-1.2-1.83c-.24.25-.45.32-.62.2l-.11-.08 1.51-1.57.4.38a1.52 1.52 0 0 0 .13 2.35c.53.52 1 .66 1.5.43a1.42 1.42 0 0 0 .28-.22 1.53 1.53 0 0 0 .12-1.64 6.23 6.23 0 0 0-.27-.72 5.58 5.58 0 0 1-.53-2 2 2 0 0 1 .6-1.38 2 2 0 0 1 2.54-.38 4.7 4.7 0 0 1 1.19.85 5.54 5.54 0 0 1 1.48 2.07c.21-.22.38-.29.52-.22a1.24 1.24 0 0 1 .22.22l-1.83 1.9-.43-.41a1.91 1.91 0 0 0-.05-3.06zM552.77 91.39a5.4 5.4 0 0 1-4.18-1.33 5.32 5.32 0 0 1-1.71-3.66 5.45 5.45 0 0 1 .86-3.43 5.27 5.27 0 0 1 4.31-2.35 6.77 6.77 0 0 1 3.39.58 1.82 1.82 0 0 1 0-.46c0-.19.21-.29.51-.31l.3 3.41h-.6a7.35 7.35 0 0 0-.77-1.61 2.6 2.6 0 0 0-2.5-1.16c-2.06.16-3 1.82-2.77 5a11.87 11.87 0 0 0 .39 2.43c.49 1.64 1.46 2.41 2.93 2.3a4 4 0 0 0 1-.19q1.61-.57 2.07-3h.57l.25 3.42a1.47 1.47 0 0 1-.31 0c-.22 0-.33-.27-.35-.71a7.58 7.58 0 0 1-3.39 1.07zM564.43 89.12a3.18 3.18 0 0 1-2.82 1.63 4.33 4.33 0 0 1-2.08-.32 3.61 3.61 0 0 1-2.14-3.37 4 4 0 0 1 .65-2.65 3.72 3.72 0 0 1 3-1.55 4.77 4.77 0 0 1 2 .22 2.25 2.25 0 0 1 1.66 2 1.22 1.22 0 0 1-.06.54c-.26.67-1.32 1-3.19 1.12l-1.6.06a9.2 9.2 0 0 0 .3 1.73c.35 1.16 1 1.7 1.92 1.64a2.49 2.49 0 0 0 .84-.22 2.63 2.63 0 0 0 1.42-1.55l.43.11a3 3 0 0 1-.33.61zm-4.7-2.77h1.11a2.89 2.89 0 0 0 1-.16c.31-.15.45-.5.41-1-.1-1.24-.52-1.84-1.26-1.81-.89.03-1.32 1.04-1.26 2.97zM570.05 92.83h.2c.16 0 .24.16.26.42l-4.51.33v-.45l.41-.07c.38-.11.55-.41.51-.91l-.64-9-1 .07v-.45l3.07-.22.2 1.66a3.28 3.28 0 0 1 .46-.94 2.82 2.82 0 0 1 2.18-1.18 2.56 2.56 0 0 1 1.67.42 3.71 3.71 0 0 1 1.55 3.1 4.64 4.64 0 0 1-.66 2.91 3.34 3.34 0 0 1-2.75 1.55 2.69 2.69 0 0 1-2.12-.65l.25 3.48zm-.64-9.34a4.25 4.25 0 0 0-.72 3.16 5.48 5.48 0 0 0 .46 1.94 1.51 1.51 0 0 0 1.49 1c1.06-.09 1.52-1.27 1.36-3.55-.15-2.08-.72-3.1-1.72-3a1.26 1.26 0 0 0-.87.45zM579.3 88.87c.15 0 .24.15.26.42l-4.08.29v-.45h.24a.78.78 0 0 0 .72-.94l-.68-9.48-1 .08v-.45l3.23-.24.37 5.13a3.07 3.07 0 0 1 .26-.51 2.68 2.68 0 0 1 2.16-1.24 2.56 2.56 0 0 1 .84.08q1.59.41 1.74 2.58l.32 4.44H584.46c.15 0 .24.15.26.41l-3.89.28v-.45a1 1 0 0 0 .46-.12c.13-.09.18-.37.15-.83L581 84a1.46 1.46 0 0 0 0-.31c-.14-.86-.56-1.27-1.27-1.22a1.27 1.27 0 0 0-.56.2 2.08 2.08 0 0 0-.79 2.1l.3 4.17h.43a.6.6 0 0 1 .19-.07zM592.17 87.12a3.17 3.17 0 0 1-2.81 1.64 4.47 4.47 0 0 1-2.09-.32 3.64 3.64 0 0 1-2.14-3.37 4 4 0 0 1 .65-2.65 3.76 3.76 0 0 1 3-1.56 4.92 4.92 0 0 1 2 .23 2.25 2.25 0 0 1 1.66 2 1.25 1.25 0 0 1-.06.55c-.26.67-1.32 1-3.18 1.12l-1.6.06a9.15 9.15 0 0 0 .29 1.72c.36 1.16 1 1.71 1.92 1.64a2.47 2.47 0 0 0 .84-.21 2.65 2.65 0 0 0 1.35-1.51l.43.11a3 3 0 0 1-.26.55zm-4.7-2.76h1.11a3.13 3.13 0 0 0 1-.16c.31-.15.45-.5.41-1-.1-1.24-.52-1.85-1.26-1.82-.88.04-1.32 1.05-1.26 2.98zM602.32 87.22q.21 0 .24.42l-3.09.22-.19-1.42-.09.22a2.64 2.64 0 0 1-2.28 1.56c-1.63.1-2.53-.78-2.68-2.66l-.32-4.35-1 .07v-.45l3.21-.23.36 5.1c0 .16 0 .32.07.47.17.76.59 1.12 1.25 1.08a1.44 1.44 0 0 0 .51-.16 2 2 0 0 0 .86-1.86l-.3-4.38-.85.06v-.45l3.06-.22.5 7 .59-.05zM606.3 87.05c.77 0 1.2-.36 1.27-.93a.81.81 0 0 0 0-.22 1.71 1.71 0 0 0-1.21-1.4c-.17-.08-.44-.18-.81-.31a5.25 5.25 0 0 1-1.8-.93 1.84 1.84 0 0 1-.53-1.2 2 2 0 0 1 1.47-2.12 4.8 4.8 0 0 1 1.49-.33 4 4 0 0 1 2.15.33c0-.34.07-.54.27-.59h.14l.16 2.17h-.56a1.51 1.51 0 0 0-1.83-1.47c-.74 0-1.18.33-1.32.83a1 1 0 0 0 0 .35c0 .49.42.89 1.14 1.19.14.07.38.16.71.28a5.77 5.77 0 0 1 1.89 1 2.08 2.08 0 0 1 .62 1.37 2 2 0 0 1-1.42 2.14 4.36 4.36 0 0 1-1.42.31 5.48 5.48 0 0 1-2.61-.35c0 .3 0 .48-.19.54a1.57 1.57 0 0 1-.24 0l-.19-2.64h.59a1.92 1.92 0 0 0 2.23 1.98zM828.78 347.33l-.36.49-1.3-1-1.23 4.52 3.63 2.69 3.92-2.53-1-.76a1.45 1.45 0 0 1-.18-.16c-.14-.15-.11-.36.11-.65l3.36 2.48-.37.5-1.16-.87-11.75 7.5-1.36-1 3.45-13.66-.55-.4a1.54 1.54 0 0 1-.19-.17c-.14-.14-.1-.36.12-.65zm-4.56 10.16l4.68-3-3.2-2.37zM817 348.58a4.44 4.44 0 0 1-3.69-1.43 4.2 4.2 0 0 1-1.25-2.77l-.53.42-2.86-3 .43-.41 1 1.05 9.29-9-.63-.66a.84.84 0 0 1-.18-.21c-.09-.16 0-.36.22-.59l3.91 4.06-.42.41a3.3 3.3 0 0 0-.41-.36c-.43-.29-.87-.21-1.34.25l-3.24 3.12a7 7 0 0 1 .79-.2 3.48 3.48 0 0 1 3.1 1.09 3.78 3.78 0 0 1 1 2.14 4.86 4.86 0 0 1-1.75 4.27 5.74 5.74 0 0 1-3.44 1.82zm-3.19-5.6c-1 1.35-1.17 2.42-.41 3.2a1.72 1.72 0 0 0 .76.47c1.08.29 2.41-.34 4-1.87a9.06 9.06 0 0 0 1-1.17c1.07-1.39 1.23-2.46.49-3.22a1.64 1.64 0 0 0-.79-.47q-1.66-.37-4.12 2a10.64 10.64 0 0 0-.9 1.08zM808.32 325.64c-.07-.18 0-.36.31-.55l2.34 3.29-1.45 1.18.3-.05a3.4 3.4 0 0 1 3.28 1.49q1.85 2.63-1.13 4.8l-4.65 3.3.76 1.08-.48.34-2.44-3.43 5.45-3.87a3.6 3.6 0 0 0 .47-.39 1.49 1.49 0 0 0 .36-2.12 1.58 1.58 0 0 0-.52-.47 2.64 2.64 0 0 0-2.66.3l-4.68 3.3.64.91-.48.34-2.31-3.26 7.48-5.32-.45-.63a1.18 1.18 0 0 1-.14-.24zM804 320.16a3.08 3.08 0 0 1 .68 0 3.11 3.11 0 0 1 2.61 1.83 4.09 4.09 0 0 1 .4 1.1 2.45 2.45 0 0 1-1.47 2.78q-2.64 1.36-5.46-3.75l-1.31.69a5.15 5.15 0 0 0-1 .61 1.29 1.29 0 0 0-.55 1.75 1.34 1.34 0 0 0 .37.44 1.86 1.86 0 0 0 1.3 0l.47-.09a1.42 1.42 0 0 1 1.6 1.13 1.07 1.07 0 0 1-.6 1.27 1.34 1.34 0 0 1-.74.15c-1 0-2-1-3-2.81a6.5 6.5 0 0 1-.55-1.38 3.23 3.23 0 0 1 1.87-4l4.2-2.21c.65-.34.9-.67.78-1s-.81-.37-1.78 0l-.26-.53a6.14 6.14 0 0 1 1.12-.36 1.91 1.91 0 0 1 2 1.27 2.37 2.37 0 0 1-.68 3.11zm1.65.93a2.63 2.63 0 0 0-2.38-.31l-2 1a7.05 7.05 0 0 0 1 1.37 1.86 1.86 0 0 0 2.31.18c1.15-.63 1.57-1.28 1.25-2a1.38 1.38 0 0 0-.19-.24zM800.7 309.57q-.06-.29.42-.48l2.36 6-.55.22a2.58 2.58 0 0 0-.23-.47q-.42-.69-1.35-.33l-6.89 2.72.48 1.23-.55.21-1.46-3.7 1.91-.92a4.16 4.16 0 0 1-1.37-.24 3.31 3.31 0 0 1-1.94-1.9 2.12 2.12 0 0 1-.14-.55 1.35 1.35 0 0 1 .92-1.56 1.45 1.45 0 0 1 .62-.1 1.34 1.34 0 0 1 1.28.89 2.33 2.33 0 0 1 .12.49 2 2 0 0 1-.52 1.16c-.25.31-.35.54-.29.7a.85.85 0 0 0 .17.25c.57.49 1.62.49 3.13 0l4.57-1.8-.62-1.57a2.17 2.17 0 0 1-.07-.25zM787.49 305.78a1.6 1.6 0 0 1 1.24 1.16 1.62 1.62 0 0 1 0 .82 1.52 1.52 0 0 1-1.13 1.28 1.83 1.83 0 0 1-.84 0 1.61 1.61 0 0 1-1.28-1.15 1.63 1.63 0 0 1 0-.85 1.57 1.57 0 0 1 1.15-1.28 1.53 1.53 0 0 1 .86.02zm10.51-4.39c0-.19.13-.34.46-.45l1.63 5.35-.56.17a2.78 2.78 0 0 0-.2-.48c-.24-.48-.68-.63-1.32-.43l-7.01 2.16.38 1.26-.56.17-1.23-4 8.78-2.68-.25-.8c-.06-.11-.12-.19-.12-.27zM794.67 291.72a4.12 4.12 0 0 1 2.64 3.32 5.67 5.67 0 0 1 0 2.75 4.72 4.72 0 0 1-3.95 3.41 5.28 5.28 0 0 1-3.54-.33 4.9 4.9 0 0 1-2.57-3.53 6.42 6.42 0 0 1-.08-2.57 2.94 2.94 0 0 1 2.33-2.53 1.6 1.6 0 0 1 .72 0q1.37.3 2 3.9l.39 2.05a11.75 11.75 0 0 0 2.17-.71c1.43-.67 2-1.6 1.76-2.79a3.39 3.39 0 0 0-.44-1 3.46 3.46 0 0 0-2.28-1.54l.06-.58a3.52 3.52 0 0 1 .79.15zm-2.67 6.59l-.24-1.43a3.81 3.81 0 0 0-.41-1.31c-.25-.38-.73-.49-1.42-.33-1.58.36-2.28 1-2.1 2 .28 1.15 1.68 1.51 4.17 1.07zM795.11 286.17c-.14-1-.58-1.53-1.32-1.59h-.29c-.77.1-1.34.67-1.72 1.7a7.66 7.66 0 0 0-.34 1.07 6.58 6.58 0 0 1-1.08 2.42 2.34 2.34 0 0 1-1.52.8 2.63 2.63 0 0 1-2.87-1.75 6.16 6.16 0 0 1-.55-1.92 5.13 5.13 0 0 1 .26-2.83c-.45.06-.72 0-.8-.31a.47.47 0 0 1 0-.17l2.81-.38.1.72a2 2 0 0 0-1.78 2.51c.13 1 .53 1.51 1.19 1.65a1.77 1.77 0 0 0 .46 0c.64-.09 1.13-.61 1.46-1.58.08-.19.18-.51.31-1a7.51 7.51 0 0 1 1.12-2.54 2.67 2.67 0 0 1 1.74-.92 2.62 2.62 0 0 1 2.9 1.67 6.11 6.11 0 0 1 .53 1.84 7.39 7.39 0 0 1-.25 3.42c.39-.05.62 0 .71.2a2.21 2.21 0 0 1 .07.32l-3.43.46-.1-.77q2.72-.34 2.39-3.02zM549.58 199.08l-.09-.46 1.21-.25-2-3-3.39.69-.56 3.52 1-.19h.19c.16 0 .26.12.32.4l-3.14.64-.1-.46 1.1-.23 1.74-10.53 1.26-.26 6 9 .51-.1h.19c.15 0 .26.12.31.4zm-3.45-7.8l-.67 4.22 3-.61zM558 197.51c.15 0 .24.15.26.42l-4.06.29v-.45h.26a.78.78 0 0 0 .69-.93l-.41-5.66-1 .07v-.45l3.09-.23.18 1.35a3 3 0 0 1 .37-.64 2.8 2.8 0 0 1 2.08-1.16 2.86 2.86 0 0 1 .88.08c1 .28 1.62 1.14 1.72 2.58l.32 4.44H563.17c.15 0 .23.15.25.42l-4 .29v-.45a1.49 1.49 0 0 0 .41-.08c.25-.1.36-.39.32-.88l-.27-3.84a3.4 3.4 0 0 0-.07-.46c-.17-.77-.59-1.13-1.25-1.08a1 1 0 0 0-.49.16 2 2 0 0 0-.88 1.87l.3 4.45h.44zM569.63 196.2a2.13 2.13 0 0 1-.23.42 2.58 2.58 0 0 1-2.46 1.27 2.94 2.94 0 0 1-1.75-.68 3.69 3.69 0 0 1-1.26-3.24 4.52 4.52 0 0 1 1-2.85 3.33 3.33 0 0 1 2.75-1.14 3.11 3.11 0 0 1 2.09.86L570 187l-1.58-.07v-.45l3.79.17-.49 10.83h1c.14 0 .2.2.19.46l-3.11-.14zm-3.28-1.13c.14 1.33.62 2 1.43 2.05a1.24 1.24 0 0 0 .68-.16c.76-.44 1.17-1.53 1.25-3.27a8.11 8.11 0 0 0 0-1.11c-.14-1.3-.62-2-1.46-2a1.23 1.23 0 0 0-.67.14c-.75.41-1.16 1.46-1.24 3.15a7.74 7.74 0 0 0 .01 1.2zM577.94 198.34c.15 0 .2.2.16.46l-4.87-.71.06-.45a2 2 0 0 0 .41 0c.41 0 .65-.26.72-.77l.83-5.61-1-.15.07-.45 3 .45-.11 1.61a3.06 3.06 0 0 1 .68-.81 2.58 2.58 0 0 1 2-.57 1.45 1.45 0 0 1 .42.12 1 1 0 0 1 .69 1.21 1.09 1.09 0 0 1-.18.45 1 1 0 0 1-1.07.51 1.34 1.34 0 0 1-.37-.11 1.44 1.44 0 0 1-.57-.79c-.12-.28-.23-.44-.36-.46a.93.93 0 0 0-.23 0c-.55.19-1 .88-1.2 2.08l-.55 3.72 1.27.18zM588.5 194a3.7 3.7 0 0 1 .62 3.29 4.06 4.06 0 0 1-1.46 2.29 4 4 0 0 1-5-6.34 3.94 3.94 0 0 1 3.54-.64 4.07 4.07 0 0 1 2.3 1.4zm-5.25 4.42a1.46 1.46 0 0 0 2.14 1.29c.53-.32 1-1.31 1.4-2.95a9.23 9.23 0 0 0 .34-2.3 1.48 1.48 0 0 0-2.21-1.29c-.49.34-.92 1.31-1.31 2.88a9.51 9.51 0 0 0-.36 2.35zM592.39 202c.13.07.15.24.06.49l-3.69-1.4.16-.43a1.21 1.21 0 0 0 .25.08.78.78 0 0 0 1-.57l2-5.3-.94-.36.16-.42 2.89 1.1-.36 1.21a2.57 2.57 0 0 1 2.82-.56 1.93 1.93 0 0 1 .49.26 2.2 2.2 0 0 1 .84 2 2.72 2.72 0 0 1 2.93-.62 2.13 2.13 0 0 1 .94.71 2.63 2.63 0 0 1 .2 2.66l-1.59 4.15.54.21a.82.82 0 0 1 .19.09q.19.1.06.48l-3.72-1.4.17-.43a1.45 1.45 0 0 0 .42.11c.24 0 .44-.24.61-.68l1.37-3.6a2.92 2.92 0 0 0 .18-.78 1.07 1.07 0 0 0-.64-1.2 1 1 0 0 0-.35-.06c-.6 0-1.1.48-1.52 1.35v.11l-1.58 4.17.28.1.19.09c.13.08.15.24 0 .49l-3.45-1.31.16-.42a1.23 1.23 0 0 0 .43.1c.24 0 .44-.23.61-.68l1.36-3.59a2.73 2.73 0 0 0 .19-.84 1 1 0 0 0-.58-1.08 1 1 0 0 0-.46 0 2.05 2.05 0 0 0-1.49 1.36l-1.6 4.19.29.11zM608.38 208.18a3.16 3.16 0 0 1-3.25-.06 4.51 4.51 0 0 1-1.62-1.35 3.64 3.64 0 0 1-.09-4 4 4 0 0 1 1.93-1.93 3.72 3.72 0 0 1 3.33.19 4.93 4.93 0 0 1 1.56 1.21 2.27 2.27 0 0 1 .37 2.61 1.47 1.47 0 0 1-.34.43q-.85.66-3.3-.69l-1.41-.77a8.8 8.8 0 0 0-.63 1.63c-.3 1.17 0 2 .79 2.39a2.11 2.11 0 0 0 .83.25 2.65 2.65 0 0 0 2-.59l.31.32a2.62 2.62 0 0 1-.48.36zm-2.59-4.8l1 .55a2.91 2.91 0 0 0 1 .4c.35 0 .65-.19.89-.68.56-1.11.51-1.84-.14-2.2-.9-.39-1.8.25-2.75 1.93zM614.66 211.5a3.42 3.42 0 0 1-.4.26 2.59 2.59 0 0 1-2.77-.1 3 3 0 0 1-1.2-1.43 3.67 3.67 0 0 1 .48-3.45 4.47 4.47 0 0 1 2.29-2 3.28 3.28 0 0 1 3 .34 3.11 3.11 0 0 1 1.4 1.76l2-3.28-1.34-.84.23-.38 3.23 2-5.7 9.23.68.42a.83.83 0 0 1 .17.12c.1.1.08.27-.06.5L614 213zm-2.31-2.58c-.53 1.23-.45 2.06.24 2.48a1.26 1.26 0 0 0 .68.2c.87 0 1.77-.77 2.68-2.25a9.67 9.67 0 0 0 .53-1c.51-1.19.41-2-.3-2.45a1.28 1.28 0 0 0-.66-.2c-.85 0-1.72.7-2.62 2.14a7.81 7.81 0 0 0-.55 1.08zM621.55 216.5a2.25 2.25 0 0 1-.46.25 2.37 2.37 0 0 1-2.41-.38 3.22 3.22 0 0 1-.65-.62 1.89 1.89 0 0 1 .07-2.41c.91-1.22 2.58-1 5 .73l.66-.91a4.61 4.61 0 0 0 .46-.75A1 1 0 0 0 624 211a1 1 0 0 0-.4-.19 1.46 1.46 0 0 0-.91.42l-.29.22a1 1 0 0 1-1.24 0 .91.91 0 0 1-.24-.24.8.8 0 0 1 0-1.07 1.09 1.09 0 0 1 .46-.36c.73-.31 1.73 0 3 .92a5.69 5.69 0 0 1 .84.77 2.46 2.46 0 0 1 0 3.35l-2.14 2.94c-.33.45-.39.76-.2.93s.68 0 1.21-.62l.35.28a4.48 4.48 0 0 1-.64.62 1.46 1.46 0 0 1-1.83-.18 1.85 1.85 0 0 1-.42-2.29zm-1.44-.08a2 2 0 0 0 1.74-.59l1-1.36a5.69 5.69 0 0 0-1.15-.61 1.43 1.43 0 0 0-1.64.66c-.59.82-.65 1.42-.2 1.78a1.62 1.62 0 0 0 .25.12zM469.33 135.22a5.39 5.39 0 0 1-4.05 1.68 5.28 5.28 0 0 1-3.66-1.7 5.46 5.46 0 0 1-1.56-3.18 5.25 5.25 0 0 1 1.79-4.57 7 7 0 0 1 3-1.75 2.13 2.13 0 0 1-.3-.33c-.09-.18 0-.37.19-.58l2.43 2.42-.44.43a7.63 7.63 0 0 0-1.61-.74 2.63 2.63 0 0 0-2.67.73c-1.47 1.45-1.1 3.31 1.1 5.6a11.73 11.73 0 0 0 1.86 1.61c1.44.94 2.68.9 3.74-.13a4 4 0 0 0 .63-.79c.58-1 .45-2.19-.36-3.65l.41-.4 2.39 2.46a1.18 1.18 0 0 1-.25.19c-.18.12-.42 0-.72-.31a7.47 7.47 0 0 1-1.92 3.01zM475.27 128.12a2.71 2.71 0 0 1 .11.51 2.4 2.4 0 0 1-1.05 2.21 3.08 3.08 0 0 1-.78.44 1.86 1.86 0 0 1-2.28-.75q-1.38-1.82 2.12-4.61l-.69-.9a4.73 4.73 0 0 0-.58-.64c-.5-.46-1-.52-1.39-.19a1.07 1.07 0 0 0-.3.34 1.4 1.4 0 0 0 .15 1c.06.16.1.27.12.34a1 1 0 0 1-.35 1.2 1.08 1.08 0 0 1-.3.16.8.8 0 0 1-1-.29 1 1 0 0 1-.21-.54c-.09-.78.48-1.66 1.74-2.62a4.75 4.75 0 0 1 1-.59 2.48 2.48 0 0 1 3.23.9L477 127c.34.44.62.6.84.46s.17-.66-.26-1.34l.37-.26a5.26 5.26 0 0 1 .42.8 1.49 1.49 0 0 1-.7 1.7 1.83 1.83 0 0 1-2.4-.24zm-.49 1.36a2 2 0 0 0-.07-1.83l-1-1.34a5.19 5.19 0 0 0-.91.93 1.42 1.42 0 0 0 .2 1.76c.62.8 1.17 1 1.64.69a.78.78 0 0 0 .14-.21zM481.5 125.16c.66-.41.89-.89.69-1.42 0-.07-.07-.14-.1-.2a1.73 1.73 0 0 0-1.73-.66 6.64 6.64 0 0 0-.86.1 5.18 5.18 0 0 1-2 0 1.86 1.86 0 0 1-1-.81 2 2 0 0 1 .31-2.56 4.55 4.55 0 0 1 1.16-1 4 4 0 0 1 2.06-.72c-.18-.29-.2-.51 0-.65l.11-.09 1.15 1.85-.47.29a1.52 1.52 0 0 0-2.31-.44q-.95.59-.78 1.35a1.17 1.17 0 0 0 .15.32 1.49 1.49 0 0 0 1.55.52 6.22 6.22 0 0 0 .77-.08 5.5 5.5 0 0 1 2.12 0 2.08 2.08 0 0 1 1.2.92 2 2 0 0 1-.25 2.55 4.42 4.42 0 0 1-1.12 1 5.64 5.64 0 0 1-2.47.91c.16.25.19.44.09.56a1.15 1.15 0 0 1-.2.14l-1.4-2.24.5-.31a1.92 1.92 0 0 0 2.83.67zM487.64 121.65q1-.53.81-1.35a2.2 2.2 0 0 0-.09-.21 1.74 1.74 0 0 0-1.67-.81 7.31 7.31 0 0 0-.86 0 4.88 4.88 0 0 1-2-.16 1.78 1.78 0 0 1-1-.89 2 2 0 0 1 .52-2.52 4.75 4.75 0 0 1 1.25-.89 3.91 3.91 0 0 1 2.11-.53c-.16-.31-.15-.53 0-.66l.11-.08 1 1.94-.5.25a1.52 1.52 0 0 0-2.26-.64c-.66.34-1 .77-.89 1.28a1.17 1.17 0 0 0 .11.33c.23.45.73.67 1.51.66a7.68 7.68 0 0 0 .77 0 5.82 5.82 0 0 1 2.12.16 2.14 2.14 0 0 1 .64 3.55 4.94 4.94 0 0 1-1.19.84 5.56 5.56 0 0 1-2.54.69q.21.41 0 .57a1.16 1.16 0 0 1-.2.13l-1.14-2.31.53-.27a1.91 1.91 0 0 0 2.86.92zM490.83 110.46a1.2 1.2 0 0 1-.79 1 1.29 1.29 0 0 1-.62.1 1.17 1.17 0 0 1-1.06-.76 1.41 1.41 0 0 1-.1-.64 1.25 1.25 0 0 1 1.42-1.15 1.19 1.19 0 0 1 1.07.77 1.3 1.3 0 0 1 .08.68zm4.19 7.67c.15 0 .28.07.38.31l-3.94 1.68-.18-.42a2 2 0 0 0 .36-.19c.35-.22.42-.57.22-1l-2.22-5.22-.93.4-.18-.42 3-1.26 2.75 6.47.59-.25a.76.76 0 0 1 .13-.1zM500.09 109.47a3.67 3.67 0 0 1 2.27 2.45 4.09 4.09 0 0 1 0 2.72A4.2 4.2 0 0 1 497 117a4 4 0 0 1 .37-7.52 4.08 4.08 0 0 1 2.72-.01zM498 116a1.35 1.35 0 0 0 1.67.61 1.4 1.4 0 0 0 .83-.66c.27-.56.14-1.64-.39-3.25a9.88 9.88 0 0 0-.93-2.13 1.39 1.39 0 0 0-1.72-.62 1.29 1.29 0 0 0-.84.71c-.23.55-.09 1.6.42 3.14a9.86 9.86 0 0 0 .96 2.2zM508.77 117.31h.21c.15 0 .26.12.31.38l-4.41 1-.1-.44a1.57 1.57 0 0 0 .4-.13c.36-.16.48-.48.37-1l-2-8.76-1 .22-.1-.45 3-.67.46 1.61a2.91 2.91 0 0 1 2.29-2.5 2.63 2.63 0 0 1 1.71.17 3.74 3.74 0 0 1 2 2.83 4.66 4.66 0 0 1-.22 3 3.39 3.39 0 0 1-2.41 1.9 2.73 2.73 0 0 1-2.2-.33l.76 3.4zm-2-9.14a4.2 4.2 0 0 0-.24 3.23 5.45 5.45 0 0 0 .74 1.85 1.52 1.52 0 0 0 1.63.81q1.56-.37.82-3.72-.69-3.06-2.16-2.76a1.27 1.27 0 0 0-.81.59zM520.25 111.23a3.19 3.19 0 0 1-2.71 1.8 4.42 4.42 0 0 1-2.1-.2 3.62 3.62 0 0 1-2.34-3.24 4.07 4.07 0 0 1 .49-2.68 3.73 3.73 0 0 1 2.86-1.72 4.74 4.74 0 0 1 2 .11 2.24 2.24 0 0 1 1.78 1.94 1.67 1.67 0 0 1 0 .55c-.22.68-1.26 1.12-3.12 1.3l-1.59.16a9.08 9.08 0 0 0 .4 1.7q.63 1.71 2 1.53a2.4 2.4 0 0 0 .82-.27 2.63 2.63 0 0 0 1.33-1.63l.44.08a2.78 2.78 0 0 1-.26.57zm-4.86-2.48l1.12-.1a2.77 2.77 0 0 0 1-.22c.3-.17.42-.52.35-1.06-.17-1.23-.63-1.81-1.37-1.74-.89.16-1.27 1.2-1.1 3.12zM526 110.71a2 2 0 0 1-.2.48 2.37 2.37 0 0 1-2.11 1.23 2.88 2.88 0 0 1-.9-.08 1.87 1.87 0 0 1-1.46-1.91c-.06-1.52 1.39-2.38 4.36-2.6v-1.12a4.8 4.8 0 0 0-.12-.87c-.15-.65-.5-1-1-.94a1.13 1.13 0 0 0-.43.11 1.44 1.44 0 0 0-.44.9l-.09.35a1 1 0 0 1-1 .78 1.19 1.19 0 0 1-.33 0 .8.8 0 0 1-.69-.82 1 1 0 0 1 .13-.57c.37-.7 1.34-1.1 2.92-1.18a4.61 4.61 0 0 1 1.13.07 2.48 2.48 0 0 1 2.16 2.57l.19 3.63c0 .56.17.84.43.85s.51-.45.54-1.25h.45a4.24 4.24 0 0 1-.11.9c-.17.62-.68 1-1.53 1a1.83 1.83 0 0 1-1.9-1.53zm-1.17.85a2 2 0 0 0 1-1.55l-.09-1.69a5.31 5.31 0 0 0-1.28.26 1.43 1.43 0 0 0-.86 1.54c.07 1 .39 1.51 1 1.5a.83.83 0 0 0 .21-.06zM795.09 123.6a6.2 6.2 0 0 1-.73-3.42 4.81 4.81 0 0 1 2.84-3.94 4.86 4.86 0 0 1 4-.35 5.59 5.59 0 0 1 3.13 2.86l2.39 4.61-.42.22-.64-1.24-8.44 4.37.64 1.23-.42.22zm1 .94l8.44-4.37-.61-1.17a2.73 2.73 0 0 0-.92-1.07c-.95-.59-2.5-.34-4.64.77a10.06 10.06 0 0 0-2.42 1.65 2.38 2.38 0 0 0-.47 3zM798 107.08a3.17 3.17 0 0 1 2.36 2.24 4.28 4.28 0 0 1 .27 2.09 3.61 3.61 0 0 1-2.63 3 4 4 0 0 1-2.73.12 3.74 3.74 0 0 1-2.32-2.41 4.85 4.85 0 0 1-.33-1.93 2.26 2.26 0 0 1 1.5-2.17 1.31 1.31 0 0 1 .54-.09c.72 0 1.37 1 2 2.74l.5 1.52a9.72 9.72 0 0 0 1.58-.77c1-.66 1.36-1.43 1-2.3a2.26 2.26 0 0 0-.45-.74 2.62 2.62 0 0 0-1.88-.94V107a2.47 2.47 0 0 1 .59.08zm-1.34 5.28l-.34-1.06a3.14 3.14 0 0 0-.44-1c-.23-.26-.61-.29-1.12-.1-1.16.44-1.62 1-1.38 1.72.36.91 1.46 1.08 3.29.44zM797.27 101.42c0-.15.1-.26.36-.34l1.31 4.68-.44.12a3.39 3.39 0 0 0-.28-.73.78.78 0 0 0-1-.32l-9.12 2.55.37 1.31-.44.12-1-3.43 10.46-2.93-.24-.84zM799.5 96.17a1.49 1.49 0 0 1 0-.21q0-.22.39-.3l.83 4.45-.45.08a2.11 2.11 0 0 0-.11-.4c-.15-.37-.47-.5-1-.41l-8.81 1.62.18 1-.44.08-.57-3 1.63-.39a2.75 2.75 0 0 1-1-.35 2.82 2.82 0 0 1-1.43-2 2.7 2.7 0 0 1 .23-1.71 3.75 3.75 0 0 1 2.91-1.89 4.66 4.66 0 0 1 3 .34 3.35 3.35 0 0 1 1.8 2.48 2.71 2.71 0 0 1-.41 2.18l3.43-.64zm-9.21 1.68a4.27 4.27 0 0 0 3.22.36 5.74 5.74 0 0 0 1.88-.67 1.55 1.55 0 0 0 .87-1.6q-.32-1.57-3.69-1c-2.05.38-3 1.07-2.84 2a1.32 1.32 0 0 0 .56.91zM795 87.61c0-.15.15-.24.42-.26l.29 4.08h-.45a2 2 0 0 0 0-.24.79.79 0 0 0-.94-.72l-9.48.69.07 1h-.45l-.23-3.16 5.12-.37a4.09 4.09 0 0 1-.51-.26 2.71 2.71 0 0 1-1.24-2.16 2.59 2.59 0 0 1 .08-.85q.41-1.57 2.58-1.74l4.44-.32v-.57a1.48 1.48 0 0 1 0-.21c0-.15.15-.24.41-.26l.28 3.89h-.45a1 1 0 0 0-.12-.46c-.09-.13-.37-.18-.83-.15l-3.84.28h-.31c-.86.14-1.26.57-1.21 1.27a1.28 1.28 0 0 0 .19.57 2.1 2.1 0 0 0 2.1.79l4.17-.3v-.44a.6.6 0 0 1-.09-.1zM786.07 78.53a1.18 1.18 0 0 1 .63 1.13 1.21 1.21 0 0 1-.16.61 1.18 1.18 0 0 1-1.12.67 1.4 1.4 0 0 1-.63-.16 1.27 1.27 0 0 1-.48-1.77 1.17 1.17 0 0 1 1.13-.66 1.21 1.21 0 0 1 .63.18zm8.71-.77c0-.15.17-.23.44-.22l-.05 4.28h-.45a2.41 2.41 0 0 0 0-.4c-.07-.4-.35-.61-.86-.62l-5.68-.05v1h-.45v-3.21l7 .06V78a1.11 1.11 0 0 1 .05-.24zM795.05 73.18c0-.15.19-.21.46-.19l-.36 4.06h-.45a1.13 1.13 0 0 0 0-.26.78.78 0 0 0-.81-.83l-5.66-.49-.09 1h-.45l.28-3.08h1.36a3 3 0 0 1-1.39-2.71 3 3 0 0 1 .21-.85c.45-1 1.39-1.42 2.83-1.29l4.43.39.05-.57a1.55 1.55 0 0 1 0-.21c0-.15.19-.21.45-.19l-.35 4h-.45a1.41 1.41 0 0 0 0-.42c0-.26-.33-.42-.81-.46l-3.83-.34H790c-.79 0-1.21.4-1.27 1.06a1.14 1.14 0 0 0 .08.51 2 2 0 0 0 1.71 1.16l4.44.41v-.43zM797.21 58.77c.06-.13.21-.17.46-.12l-.56 3-1.42-.18.18.15a2.59 2.59 0 0 1 .94 2.59c-.31 1.61-1.4 2.25-3.25 1.93l-4.29-.8-.19 1-.44-.08.59-3.16 5 .93a3.78 3.78 0 0 0 .47.06c.78 0 1.23-.29 1.36-.94a1.2 1.2 0 0 0 0-.53 2 2 0 0 0-1.58-1.31l-4.31-.82-.15.84-.45-.08.56-3 6.87 1.3.11-.58c.06-.08.08-.14.1-.2zM798.32 55.16c.2-.75 0-1.25-.46-1.51l-.22-.07a1.72 1.72 0 0 0-1.71.69 7.2 7.2 0 0 0-.56.66 4.9 4.9 0 0 1-1.47 1.39 1.8 1.8 0 0 1-1.31.12 2 2 0 0 1-1.52-2.08 4.57 4.57 0 0 1 .18-1.52 3.92 3.92 0 0 1 1-1.93q-.51-.13-.48-.45a.78.78 0 0 1 0-.14l2.1.57-.14.53a1.52 1.52 0 0 0-2 1.26c-.2.71-.08 1.22.35 1.51a1 1 0 0 0 .32.14c.48.13 1-.09 1.5-.68.11-.11.28-.31.5-.58a5.56 5.56 0 0 1 1.6-1.46 2 2 0 0 1 1.5-.14 2 2 0 0 1 1.56 2 4.66 4.66 0 0 1-.17 1.45 5.6 5.6 0 0 1-1.19 2.35q.43.12.45.36v.24l-2.55-.69.15-.57a1.91 1.91 0 0 0 2.57-1.45z"/><path d="M1002 0h-1.49q1.2 17.24 1.21 34.67v1.72H880.91v-3.93q0-16.35-1.4-32.46h-1.49q1.4 16.11 1.4 32.46v3.93H761.83v-3.93A253.39 253.39 0 0 0 759.78 0h-1.5a251.6 251.6 0 0 1 2.09 32.46v3.93H634.54c0-1.14.05-2.29.05-3.44A123.16 123.16 0 0 0 630.13 0h-1.55a121.51 121.51 0 0 1 4.53 33c0 1.15 0 2.3-.05 3.44h-2.71v1.48H633a120.13 120.13 0 0 1-35.33 80.65A121.45 121.45 0 0 1 566.79 141L507.47 40.31l-.75-1.31-15.35-26-1.28.75 15.34 26-97 55.68A120.26 120.26 0 0 1 391.09 33a121.51 121.51 0 0 1 4.53-33h-1.55a123.16 123.16 0 0 0-4.46 33c0 1.15 0 2.3.05 3.44h-125.8v-3.93A251.6 251.6 0 0 1 265.92 0h-1.5a253.39 253.39 0 0 0-2.08 32.46v3.93H144.77v-3.93q0-16.35 1.4-32.46h-1.49q-1.4 16.11-1.4 32.46v3.93H25.12v-1.72q0-17.43 1.21-34.67h-1.5q-1.2 17.24-1.21 34.67v3.2A488.28 488.28 0 0 0 167.08 381a489.63 489.63 0 0 0 97.66 75.76l1.29.75A490.41 490.41 0 0 0 322.77 486a491.41 491.41 0 0 0 381.3 0A489.89 489.89 0 0 0 754 461.45l1.29-.73a489.26 489.26 0 0 0 248-426Q1003.22 17.24 1002 0zM761.8 37.87h117.61a364.7 364.7 0 0 1-28.83 137.58 366.47 366.47 0 0 1-21.51 42.85l-102-58.57a249.36 249.36 0 0 0 15.17-30 247.83 247.83 0 0 0 19.56-91.86zm66.52 181.71a367.87 367.87 0 0 1-56.46 72.64 367.32 367.32 0 0 1-80.1 60.78L632 251.61a249.46 249.46 0 0 0 56.7-42.54A249.85 249.85 0 0 0 726.3 161zM634.49 37.87h125.82A247.46 247.46 0 0 1 725.77 159L616.88 96.48a121.53 121.53 0 0 0 17.61-58.61zm-35.77 81.7a123.3 123.3 0 0 0 17.38-21.82L725 160.27A248.44 248.44 0 0 1 687.66 208a247.55 247.55 0 0 1-56.4 42.31l-63.71-108.07a122.9 122.9 0 0 0 31.17-22.67zm-92.54-78.52l59.28 100.57a121.19 121.19 0 0 1-138.92-23.1 121.25 121.25 0 0 1-17.33-21.81zM386.91 248.64a249.63 249.63 0 0 0 28 13.95 248 248 0 0 0 93.44 19.6l.47 117.6a364.8 364.8 0 0 1-139.68-28.85 367.18 367.18 0 0 1-41.14-20.5zm-60.2 101.05a367.17 367.17 0 0 1-74.37-57.47 367.4 367.4 0 0 1-56.65-73l102-58.56a251.29 251.29 0 0 0 87.9 87.19zm98.78-230.12a121.59 121.59 0 0 0 82.32 35.79l.51 125.34a246.41 246.41 0 0 1-92.86-19.48 248.48 248.48 0 0 1-27.81-13.87L449.78 140l-1.28-.74-62.13 107.35A249.79 249.79 0 0 1 299 160l108.92-62.5a123.42 123.42 0 0 0 17.57 22.07zm-35.78-81.7a121.53 121.53 0 0 0 17.43 58.32l-108.9 62.5a249.65 249.65 0 0 1-14.9-29.59 246.41 246.41 0 0 1-19.45-91.23zm-127.31 0A248.86 248.86 0 0 0 297 159.43L194.94 218a367.1 367.1 0 0 1-21.32-42.53 364.7 364.7 0 0 1-28.83-137.6zM63.48 224.74A485 485 0 0 1 25.13 37.87h118.18A366.12 366.12 0 0 0 172.25 176a369.06 369.06 0 0 0 21.4 42.69L90 278.19a490.36 490.36 0 0 1-26.52-53.45zm202 230.75a491.61 491.61 0 0 1-174.71-176L194.4 220a369.19 369.19 0 0 0 56.89 73.27A368.87 368.87 0 0 0 326 351zm57.86 29.12a486.86 486.86 0 0 1-56.58-28.38l60.48-104.51a368.39 368.39 0 0 0 41.28 20.59 366.47 366.47 0 0 0 140.27 29l.5 121.69a485 485 0 0 1-185.94-38.39zm186-329.2h2.8a122 122 0 0 0 54.12-12.54L630 251q-10.32 5.58-21.21 10.18a246.65 246.65 0 0 1-96.64 19.51h-2.3zm.51 126.79h2.29a248.26 248.26 0 0 0 97.22-19.63q11-4.63 21.39-10.26l59.71 101.39a366.87 366.87 0 0 1-35.37 17.24 365 365 0 0 1-143 28.87h-1.82zM703.5 484.61A485.38 485.38 0 0 1 513.42 523h-2.65l-.48-121.68h1.81a366.6 366.6 0 0 0 143.57-29A368.28 368.28 0 0 0 691.22 355l62 105.19a488.4 488.4 0 0 1-49.72 24.42zM858.71 380a487.71 487.71 0 0 1-104.2 79.48l-62-105.18a368.65 368.65 0 0 0 80.4-61 369.29 369.29 0 0 0 56.7-72.95l105.6 60.62a488 488 0 0 1-76.5 99.03zm104.65-155.26A487 487 0 0 1 936 279.65L830.36 219A367.64 367.64 0 0 0 880.9 37.87h120.82a485.21 485.21 0 0 1-38.36 186.87z"/></g></svg>