<svg id="Layer_1" xmlns="http://www.w3.org/2000/svg" viewBox="0 0 1342.8 429.3"><style>.st1{fill:#7c7c7c}</style><g opacity=".14"><path class="st1" d="M920.1 379l15.9-20.4-19.2-17.4 25.9-.3 1.7-25.8 16.4 20 21.2-14.8-5.4 25.3 24.7 7.4-23.1 11.5 9.7 24-23.5-10.9-12.7 22.5-6.1-25.1zM196.3 160.4l15.8-20.4-19.1-17.4 25.8-.3 1.7-25.8 16.4 20 21.2-14.8-5.4 25.3 24.8 7.3-23.1 11.6 9.6 23.9-23.4-10.9-12.7 22.6-6.1-25.2zM841.3 190.8l15.9-20.4L838 153l25.9-.4 1.7-25.8 16.4 20 21.2-14.7-5.4 25.2 24.7 7.4-23.1 11.5 9.7 24-23.5-10.9-12.7 22.5-6.1-25.1zM463.2 219.8l3.8-19.4-13.9-14.1 19.6-2.4 9.2-17.6 8.3 17.9 19.5 3.3-14.5 13.5 2.9 19.5-17.2-9.5zM882.6 103.1l3.7-19.4-13.8-14.1 19.6-2.4 9.1-17.6 8.4 18 19.5 3.2-14.5 13.5 2.9 19.5-17.3-9.5zM947 261.3l3.8-19.4-13.9-14.1 19.6-2.4 9.2-17.5 8.3 17.9 19.5 3.3-14.4 13.4 2.8 19.6-17.2-9.6zM1068.8 104.5l2.1-19.7-15-12.8 19.3-4.1 7.6-18.2 9.9 17.1 19.7 1.6-13.3 14.6 4.6 19.3-18.1-8.1zM342.8 392.5l17.2-4 12.4-12.5 3.9 17.2 12.6 12.4-17.2 3.9-12.4 12.6-3.9-17.3zM364.6 279.5l17.2-3.9 12.4-12.6 3.9 17.2 12.6 12.4-17.2 3.9-12.4 12.6-3.9-17.2zM1155.4 356.3l10.9 13.9 16.6 5.8-13.9 10.9-5.8 16.7-10.9-13.9-16.6-5.8 13.9-10.9zM1022.2 25.3l16.2-6.9 10-14.6 6.9 16.2 14.6 10-16.2 6.9-10 14.6-6.9-16.2z"/><path transform="rotate(-82.322 1081.596 365.792)" class="st1" d="M1080.2 318.3h2.8v95h-2.8z"/><path transform="rotate(-76.768 361.496 162.124)" class="st1" d="M360.1 81.5h2.8v161.3h-2.8z"/><path transform="rotate(-46.164 434.482 248.658)" class="st1" d="M403.8 247.3h61.5v2.8h-61.5z"/><path transform="rotate(-74.17 372.941 344.926)" class="st1" d="M350.5 343.6h44.9v2.8h-44.9z"/><path transform="rotate(-1.146 674.847 193.063)" class="st1" d="M540.1 191.6h269.5v2.8H540.1z"/><path transform="rotate(-22.12 981.828 48.78)" class="st1" d="M950.6 47.4h62.2v2.8h-62.2z"/></g></svg>